<svg width="568" height="72" viewBox="0 0 568 72" fill="none" xmlns="http://www.w3.org/2000/svg">
<path d="M416.066 22.1445H413.893L413.881 21.0723H415.779C416.1 21.0723 416.371 21.0254 416.594 20.9316C416.82 20.834 416.992 20.6953 417.109 20.5156C417.227 20.332 417.285 20.1113 417.285 19.8535C417.285 19.5684 417.23 19.3359 417.121 19.1562C417.012 18.9766 416.844 18.8457 416.617 18.7637C416.395 18.6816 416.109 18.6406 415.762 18.6406H414.338V26H412.867V17.4688H415.762C416.23 17.4688 416.648 17.5137 417.016 17.6035C417.387 17.6934 417.701 17.834 417.959 18.0254C418.221 18.2129 418.418 18.4512 418.551 18.7402C418.688 19.0293 418.756 19.373 418.756 19.7715C418.756 20.123 418.672 20.4453 418.504 20.7383C418.336 21.0273 418.088 21.2637 417.76 21.4473C417.432 21.6309 417.023 21.7402 416.535 21.7754L416.066 22.1445ZM416.002 26H413.43L414.092 24.834H416.002C416.334 24.834 416.611 24.7793 416.834 24.6699C417.057 24.5566 417.223 24.4023 417.332 24.207C417.445 24.0078 417.502 23.7754 417.502 23.5098C417.502 23.2324 417.453 22.9922 417.355 22.7891C417.258 22.582 417.104 22.4238 416.893 22.3145C416.682 22.2012 416.406 22.1445 416.066 22.1445H414.414L414.426 21.0723H416.576L416.91 21.4766C417.379 21.4922 417.764 21.5957 418.064 21.7871C418.369 21.9785 418.596 22.2266 418.744 22.5312C418.893 22.8359 418.967 23.1641 418.967 23.5156C418.967 24.0586 418.848 24.5137 418.609 24.8809C418.375 25.248 418.037 25.5273 417.596 25.7188C417.154 25.9062 416.623 26 416.002 26ZM421.82 19.6602V26H420.402V19.6602H421.82ZM420.309 17.9961C420.309 17.7812 420.379 17.6035 420.52 17.4629C420.664 17.3184 420.863 17.2461 421.117 17.2461C421.367 17.2461 421.564 17.3184 421.709 17.4629C421.854 17.6035 421.926 17.7812 421.926 17.9961C421.926 18.207 421.854 18.3828 421.709 18.5234C421.564 18.6641 421.367 18.7344 421.117 18.7344C420.863 18.7344 420.664 18.6641 420.52 18.5234C420.379 18.3828 420.309 18.207 420.309 17.9961ZM424.879 17V26H423.461V17H424.879ZM427.938 17V26H426.52V17H427.938ZM430.996 19.6602V26H429.578V19.6602H430.996ZM429.484 17.9961C429.484 17.7812 429.555 17.6035 429.695 17.4629C429.84 17.3184 430.039 17.2461 430.293 17.2461C430.543 17.2461 430.74 17.3184 430.885 17.4629C431.029 17.6035 431.102 17.7812 431.102 17.9961C431.102 18.207 431.029 18.3828 430.885 18.5234C430.74 18.6641 430.543 18.7344 430.293 18.7344C430.039 18.7344 429.84 18.6641 429.695 18.5234C429.555 18.3828 429.484 18.207 429.484 17.9961ZM433.943 21.0137V26H432.531V19.6602H433.861L433.943 21.0137ZM433.691 22.5957L433.234 22.5898C433.238 22.1406 433.301 21.7285 433.422 21.3535C433.547 20.9785 433.719 20.6562 433.938 20.3867C434.16 20.1172 434.426 19.9102 434.734 19.7656C435.043 19.6172 435.387 19.543 435.766 19.543C436.07 19.543 436.346 19.5859 436.592 19.6719C436.842 19.7539 437.055 19.8887 437.23 20.0762C437.41 20.2637 437.547 20.5078 437.641 20.8086C437.734 21.1055 437.781 21.4707 437.781 21.9043V26H436.363V21.8984C436.363 21.5938 436.318 21.3535 436.229 21.1777C436.143 20.998 436.016 20.8711 435.848 20.7969C435.684 20.7188 435.479 20.6797 435.232 20.6797C434.99 20.6797 434.773 20.7305 434.582 20.832C434.391 20.9336 434.229 21.0723 434.096 21.248C433.967 21.4238 433.867 21.627 433.797 21.8574C433.727 22.0879 433.691 22.334 433.691 22.5957ZM443.283 19.6602H444.566V25.8242C444.566 26.3945 444.445 26.8789 444.203 27.2773C443.961 27.6758 443.623 27.9785 443.189 28.1855C442.756 28.3965 442.254 28.502 441.684 28.502C441.441 28.502 441.172 28.4668 440.875 28.3965C440.582 28.3262 440.297 28.2129 440.02 28.0566C439.746 27.9043 439.518 27.7031 439.334 27.4531L439.996 26.6211C440.223 26.8906 440.473 27.0879 440.746 27.2129C441.02 27.3379 441.307 27.4004 441.607 27.4004C441.932 27.4004 442.207 27.3398 442.434 27.2188C442.664 27.1016 442.842 26.9277 442.967 26.6973C443.092 26.4668 443.154 26.1855 443.154 25.8535V21.0957L443.283 19.6602ZM438.977 22.9004V22.7773C438.977 22.2969 439.035 21.8594 439.152 21.4648C439.27 21.0664 439.438 20.7246 439.656 20.4395C439.875 20.1504 440.141 19.9297 440.453 19.7773C440.766 19.6211 441.119 19.543 441.514 19.543C441.924 19.543 442.273 19.6172 442.562 19.7656C442.855 19.9141 443.1 20.127 443.295 20.4043C443.49 20.6777 443.643 21.0059 443.752 21.3887C443.865 21.7676 443.949 22.1895 444.004 22.6543V23.0469C443.953 23.5 443.867 23.9141 443.746 24.2891C443.625 24.6641 443.465 24.9883 443.266 25.2617C443.066 25.5352 442.82 25.7461 442.527 25.8945C442.238 26.043 441.896 26.1172 441.502 26.1172C441.115 26.1172 440.766 26.0371 440.453 25.877C440.145 25.7168 439.879 25.4922 439.656 25.2031C439.438 24.9141 439.27 24.5742 439.152 24.1836C439.035 23.7891 438.977 23.3613 438.977 22.9004ZM440.389 22.7773V22.9004C440.389 23.1895 440.416 23.459 440.471 23.709C440.529 23.959 440.617 24.1797 440.734 24.3711C440.855 24.5586 441.008 24.707 441.191 24.8164C441.379 24.9219 441.6 24.9746 441.854 24.9746C442.186 24.9746 442.457 24.9043 442.668 24.7637C442.883 24.623 443.047 24.4336 443.16 24.1953C443.277 23.9531 443.359 23.6836 443.406 23.3867V22.3262C443.383 22.0957 443.334 21.8809 443.26 21.6816C443.189 21.4824 443.094 21.3086 442.973 21.1602C442.852 21.0078 442.699 20.8906 442.516 20.8086C442.332 20.7227 442.115 20.6797 441.865 20.6797C441.611 20.6797 441.391 20.7344 441.203 20.8438C441.016 20.9531 440.861 21.1035 440.74 21.2949C440.623 21.4863 440.535 21.709 440.477 21.9629C440.418 22.2168 440.389 22.4883 440.389 22.7773ZM453.648 23.8027C453.648 23.627 453.621 23.4707 453.566 23.334C453.516 23.1973 453.424 23.0723 453.291 22.959C453.158 22.8457 452.971 22.7363 452.729 22.6309C452.49 22.5215 452.186 22.4102 451.814 22.2969C451.408 22.1719 451.033 22.0332 450.689 21.8809C450.35 21.7246 450.053 21.5449 449.799 21.3418C449.545 21.1348 449.348 20.8984 449.207 20.6328C449.066 20.3633 448.996 20.0527 448.996 19.7012C448.996 19.3535 449.068 19.0371 449.213 18.752C449.361 18.4668 449.57 18.2207 449.84 18.0137C450.113 17.8027 450.436 17.6406 450.807 17.5273C451.178 17.4102 451.588 17.3516 452.037 17.3516C452.67 17.3516 453.215 17.4688 453.672 17.7031C454.133 17.9375 454.486 18.252 454.732 18.6465C454.982 19.041 455.107 19.4766 455.107 19.9531H453.648C453.648 19.6719 453.588 19.4238 453.467 19.209C453.35 18.9902 453.17 18.8184 452.928 18.6934C452.689 18.5684 452.387 18.5059 452.02 18.5059C451.672 18.5059 451.383 18.5586 451.152 18.6641C450.922 18.7695 450.75 18.9121 450.637 19.0918C450.523 19.2715 450.467 19.4746 450.467 19.7012C450.467 19.8613 450.504 20.0078 450.578 20.1406C450.652 20.2695 450.766 20.3906 450.918 20.5039C451.07 20.6133 451.262 20.7168 451.492 20.8145C451.723 20.9121 451.994 21.0059 452.307 21.0957C452.779 21.2363 453.191 21.3926 453.543 21.5645C453.895 21.7324 454.188 21.9238 454.422 22.1387C454.656 22.3535 454.832 22.5977 454.949 22.8711C455.066 23.1406 455.125 23.4473 455.125 23.791C455.125 24.1504 455.053 24.4746 454.908 24.7637C454.764 25.0488 454.557 25.293 454.287 25.4961C454.021 25.6953 453.701 25.8496 453.326 25.959C452.955 26.0645 452.541 26.1172 452.084 26.1172C451.674 26.1172 451.27 26.0625 450.871 25.9531C450.477 25.8438 450.117 25.6777 449.793 25.4551C449.469 25.2285 449.211 24.9473 449.02 24.6113C448.828 24.2715 448.732 23.875 448.732 23.4219H450.203C450.203 23.6992 450.25 23.9355 450.344 24.1309C450.441 24.3262 450.576 24.4863 450.748 24.6113C450.92 24.7324 451.119 24.8223 451.346 24.8809C451.576 24.9395 451.822 24.9688 452.084 24.9688C452.428 24.9688 452.715 24.9199 452.945 24.8223C453.18 24.7246 453.355 24.5879 453.473 24.4121C453.59 24.2363 453.648 24.0332 453.648 23.8027ZM460.1 24.5059V19.6602H461.518V26H460.182L460.1 24.5059ZM460.299 23.1875L460.773 23.1758C460.773 23.6016 460.727 23.9941 460.633 24.3535C460.539 24.709 460.395 25.0195 460.199 25.2852C460.004 25.5469 459.754 25.752 459.449 25.9004C459.145 26.0449 458.779 26.1172 458.354 26.1172C458.045 26.1172 457.762 26.0723 457.504 25.9824C457.246 25.8926 457.023 25.7539 456.836 25.5664C456.652 25.3789 456.51 25.1348 456.408 24.834C456.307 24.5332 456.256 24.1738 456.256 23.7559V19.6602H457.668V23.7676C457.668 23.998 457.695 24.1914 457.75 24.3477C457.805 24.5 457.879 24.623 457.973 24.7168C458.066 24.8105 458.176 24.877 458.301 24.916C458.426 24.9551 458.559 24.9746 458.699 24.9746C459.102 24.9746 459.418 24.8965 459.648 24.7402C459.883 24.5801 460.049 24.3652 460.146 24.0957C460.248 23.8262 460.299 23.5234 460.299 23.1875ZM464.383 20.8789V28.4375H462.971V19.6602H464.271L464.383 20.8789ZM468.514 22.7715V22.8945C468.514 23.3555 468.459 23.7832 468.35 24.1777C468.244 24.5684 468.086 24.9102 467.875 25.2031C467.668 25.4922 467.412 25.7168 467.107 25.877C466.803 26.0371 466.451 26.1172 466.053 26.1172C465.658 26.1172 465.312 26.0449 465.016 25.9004C464.723 25.752 464.475 25.543 464.271 25.2734C464.068 25.0039 463.904 24.6875 463.779 24.3242C463.658 23.957 463.572 23.5547 463.521 23.1172V22.6426C463.572 22.1777 463.658 21.7559 463.779 21.377C463.904 20.998 464.068 20.6719 464.271 20.3984C464.475 20.125 464.723 19.9141 465.016 19.7656C465.309 19.6172 465.65 19.543 466.041 19.543C466.439 19.543 466.793 19.6211 467.102 19.7773C467.41 19.9297 467.67 20.1484 467.881 20.4336C468.092 20.7148 468.25 21.0547 468.355 21.4531C468.461 21.8477 468.514 22.2871 468.514 22.7715ZM467.102 22.8945V22.7715C467.102 22.4785 467.074 22.207 467.02 21.957C466.965 21.7031 466.879 21.4805 466.762 21.2891C466.645 21.0977 466.494 20.9492 466.311 20.8438C466.131 20.7344 465.914 20.6797 465.66 20.6797C465.41 20.6797 465.195 20.7227 465.016 20.8086C464.836 20.8906 464.686 21.0059 464.564 21.1543C464.443 21.3027 464.35 21.4766 464.283 21.6758C464.217 21.8711 464.17 22.084 464.143 22.3145V23.4512C464.189 23.7324 464.27 23.9902 464.383 24.2246C464.496 24.459 464.656 24.6465 464.863 24.7871C465.074 24.9238 465.344 24.9922 465.672 24.9922C465.926 24.9922 466.143 24.9375 466.322 24.8281C466.502 24.7188 466.648 24.5684 466.762 24.377C466.879 24.1816 466.965 23.957 467.02 23.7031C467.074 23.4492 467.102 23.1797 467.102 22.8945ZM471.133 20.8789V28.4375H469.721V19.6602H471.021L471.133 20.8789ZM475.264 22.7715V22.8945C475.264 23.3555 475.209 23.7832 475.1 24.1777C474.994 24.5684 474.836 24.9102 474.625 25.2031C474.418 25.4922 474.162 25.7168 473.857 25.877C473.553 26.0371 473.201 26.1172 472.803 26.1172C472.408 26.1172 472.062 26.0449 471.766 25.9004C471.473 25.752 471.225 25.543 471.021 25.2734C470.818 25.0039 470.654 24.6875 470.529 24.3242C470.408 23.957 470.322 23.5547 470.271 23.1172V22.6426C470.322 22.1777 470.408 21.7559 470.529 21.377C470.654 20.998 470.818 20.6719 471.021 20.3984C471.225 20.125 471.473 19.9141 471.766 19.7656C472.059 19.6172 472.4 19.543 472.791 19.543C473.189 19.543 473.543 19.6211 473.852 19.7773C474.16 19.9297 474.42 20.1484 474.631 20.4336C474.842 20.7148 475 21.0547 475.105 21.4531C475.211 21.8477 475.264 22.2871 475.264 22.7715ZM473.852 22.8945V22.7715C473.852 22.4785 473.824 22.207 473.77 21.957C473.715 21.7031 473.629 21.4805 473.512 21.2891C473.395 21.0977 473.244 20.9492 473.061 20.8438C472.881 20.7344 472.664 20.6797 472.41 20.6797C472.16 20.6797 471.945 20.7227 471.766 20.8086C471.586 20.8906 471.436 21.0059 471.314 21.1543C471.193 21.3027 471.1 21.4766 471.033 21.6758C470.967 21.8711 470.92 22.084 470.893 22.3145V23.4512C470.939 23.7324 471.02 23.9902 471.133 24.2246C471.246 24.459 471.406 24.6465 471.613 24.7871C471.824 24.9238 472.094 24.9922 472.422 24.9922C472.676 24.9922 472.893 24.9375 473.072 24.8281C473.252 24.7188 473.398 24.5684 473.512 24.377C473.629 24.1816 473.715 23.957 473.77 23.7031C473.824 23.4492 473.852 23.1797 473.852 22.8945ZM476.195 22.9004V22.7656C476.195 22.3086 476.262 21.8848 476.395 21.4941C476.527 21.0996 476.719 20.7578 476.969 20.4688C477.223 20.1758 477.531 19.9492 477.895 19.7891C478.262 19.625 478.676 19.543 479.137 19.543C479.602 19.543 480.016 19.625 480.379 19.7891C480.746 19.9492 481.057 20.1758 481.311 20.4688C481.564 20.7578 481.758 21.0996 481.891 21.4941C482.023 21.8848 482.09 22.3086 482.09 22.7656V22.9004C482.09 23.3574 482.023 23.7812 481.891 24.1719C481.758 24.5625 481.564 24.9043 481.311 25.1973C481.057 25.4863 480.748 25.7129 480.385 25.877C480.021 26.0371 479.609 26.1172 479.148 26.1172C478.684 26.1172 478.268 26.0371 477.9 25.877C477.537 25.7129 477.229 25.4863 476.975 25.1973C476.721 24.9043 476.527 24.5625 476.395 24.1719C476.262 23.7812 476.195 23.3574 476.195 22.9004ZM477.607 22.7656V22.9004C477.607 23.1855 477.637 23.4551 477.695 23.709C477.754 23.9629 477.846 24.1855 477.971 24.377C478.096 24.5684 478.256 24.7188 478.451 24.8281C478.646 24.9375 478.879 24.9922 479.148 24.9922C479.41 24.9922 479.637 24.9375 479.828 24.8281C480.023 24.7188 480.184 24.5684 480.309 24.377C480.434 24.1855 480.525 23.9629 480.584 23.709C480.646 23.4551 480.678 23.1855 480.678 22.9004V22.7656C480.678 22.4844 480.646 22.2188 480.584 21.9688C480.525 21.7148 480.432 21.4902 480.303 21.2949C480.178 21.0996 480.018 20.9473 479.822 20.8379C479.631 20.7246 479.402 20.668 479.137 20.668C478.871 20.668 478.641 20.7246 478.445 20.8379C478.254 20.9473 478.096 21.0996 477.971 21.2949C477.846 21.4902 477.754 21.7148 477.695 21.9688C477.637 22.2188 477.607 22.4844 477.607 22.7656ZM484.691 20.8672V26H483.279V19.6602H484.627L484.691 20.8672ZM486.631 19.6191L486.619 20.9316C486.533 20.916 486.439 20.9043 486.338 20.8965C486.24 20.8887 486.143 20.8848 486.045 20.8848C485.803 20.8848 485.59 20.9199 485.406 20.9902C485.223 21.0566 485.068 21.1543 484.943 21.2832C484.822 21.4082 484.729 21.5605 484.662 21.7402C484.596 21.9199 484.557 22.1211 484.545 22.3438L484.223 22.3672C484.223 21.9688 484.262 21.5996 484.34 21.2598C484.418 20.9199 484.535 20.6211 484.691 20.3633C484.852 20.1055 485.051 19.9043 485.289 19.7598C485.531 19.6152 485.811 19.543 486.127 19.543C486.213 19.543 486.305 19.5508 486.402 19.5664C486.504 19.582 486.58 19.5996 486.631 19.6191ZM490.715 19.6602V20.6914H487.141V19.6602H490.715ZM488.172 18.1074H489.584V24.248C489.584 24.4434 489.611 24.5938 489.666 24.6992C489.725 24.8008 489.805 24.8691 489.906 24.9043C490.008 24.9395 490.127 24.957 490.264 24.957C490.361 24.957 490.455 24.9512 490.545 24.9395C490.635 24.9277 490.707 24.916 490.762 24.9043L490.768 25.9824C490.65 26.0176 490.514 26.0488 490.357 26.0762C490.205 26.1035 490.029 26.1172 489.83 26.1172C489.506 26.1172 489.219 26.0605 488.969 25.9473C488.719 25.8301 488.523 25.6406 488.383 25.3789C488.242 25.1172 488.172 24.7695 488.172 24.3359V18.1074Z" fill="#131420"/>
<path d="M484 32H395C390.582 32 387 35.5817 387 40V64C387 68.4183 390.582 72 395 72H484C488.418 72 492 68.4183 492 64V40C492 35.5817 488.418 32 484 32Z" fill="#3F7BDA"/>
<path d="M404.293 51.1367V52.0566H399.676V51.1367H404.293ZM399.852 47.4688V56H398.721V47.4688H399.852ZM405.277 47.4688V56H404.152V47.4688H405.277ZM409.754 56.1172C409.312 56.1172 408.912 56.043 408.553 55.8945C408.197 55.7422 407.891 55.5293 407.633 55.2559C407.379 54.9824 407.184 54.6582 407.047 54.2832C406.91 53.9082 406.842 53.498 406.842 53.0527V52.8066C406.842 52.291 406.918 51.832 407.07 51.4297C407.223 51.0234 407.43 50.6797 407.691 50.3984C407.953 50.1172 408.25 49.9043 408.582 49.7598C408.914 49.6152 409.258 49.543 409.613 49.543C410.066 49.543 410.457 49.6211 410.785 49.7773C411.117 49.9336 411.389 50.1523 411.6 50.4336C411.811 50.7109 411.967 51.0391 412.068 51.418C412.17 51.793 412.221 52.2031 412.221 52.6484V53.1348H407.486V52.25H411.137V52.168C411.121 51.8867 411.062 51.6133 410.961 51.3477C410.863 51.082 410.707 50.8633 410.492 50.6914C410.277 50.5195 409.984 50.4336 409.613 50.4336C409.367 50.4336 409.141 50.4863 408.934 50.5918C408.727 50.6934 408.549 50.8457 408.4 51.0488C408.252 51.252 408.137 51.5 408.055 51.793C407.973 52.0859 407.932 52.4238 407.932 52.8066V53.0527C407.932 53.3535 407.973 53.6367 408.055 53.9023C408.141 54.1641 408.264 54.3945 408.424 54.5938C408.588 54.793 408.785 54.9492 409.016 55.0625C409.25 55.1758 409.516 55.2324 409.812 55.2324C410.195 55.2324 410.52 55.1543 410.785 54.998C411.051 54.8418 411.283 54.6328 411.482 54.3711L412.139 54.8926C412.002 55.0996 411.828 55.2969 411.617 55.4844C411.406 55.6719 411.146 55.8242 410.838 55.9414C410.533 56.0586 410.172 56.1172 409.754 56.1172ZM415.186 55.3438L416.949 49.6602H418.109L415.566 56.9785C415.508 57.1348 415.43 57.3027 415.332 57.4824C415.238 57.666 415.117 57.8398 414.969 58.0039C414.82 58.168 414.641 58.3008 414.43 58.4023C414.223 58.5078 413.975 58.5605 413.686 58.5605C413.6 58.5605 413.49 58.5488 413.357 58.5254C413.225 58.502 413.131 58.4824 413.076 58.4668L413.07 57.5879C413.102 57.5918 413.15 57.5957 413.217 57.5996C413.287 57.6074 413.336 57.6113 413.363 57.6113C413.609 57.6113 413.818 57.5781 413.99 57.5117C414.162 57.4492 414.307 57.3418 414.424 57.1895C414.545 57.041 414.648 56.8359 414.734 56.5742L415.186 55.3438ZM413.891 49.6602L415.537 54.582L415.818 55.7246L415.039 56.123L412.707 49.6602H413.891ZM420.377 47.4688L420.301 53.5918H419.322L419.24 47.4688H420.377ZM419.205 55.4551C419.205 55.2793 419.258 55.1309 419.363 55.0098C419.473 54.8887 419.633 54.8281 419.844 54.8281C420.051 54.8281 420.209 54.8887 420.318 55.0098C420.432 55.1309 420.488 55.2793 420.488 55.4551C420.488 55.623 420.432 55.7676 420.318 55.8887C420.209 56.0098 420.051 56.0703 419.844 56.0703C419.633 56.0703 419.473 56.0098 419.363 55.8887C419.258 55.7676 419.205 55.623 419.205 55.4551ZM427.566 53.4219L429.26 47.4688H430.08L429.605 49.7832L427.783 56H426.969L427.566 53.4219ZM425.814 47.4688L427.162 53.3047L427.566 56H426.758L424.689 47.4688H425.814ZM432.271 53.2988L433.59 47.4688H434.721L432.658 56H431.85L432.271 53.2988ZM430.203 47.4688L431.85 53.4219L432.447 56H431.633L429.875 49.7832L429.395 47.4688H430.203ZM436.895 47V56H435.811V47H436.895ZM436.637 52.5898L436.186 52.5723C436.189 52.1387 436.254 51.7383 436.379 51.3711C436.504 51 436.68 50.6777 436.906 50.4043C437.133 50.1309 437.402 49.9199 437.715 49.7715C438.031 49.6191 438.381 49.543 438.764 49.543C439.076 49.543 439.357 49.5859 439.607 49.6719C439.857 49.7539 440.07 49.8867 440.246 50.0703C440.426 50.2539 440.562 50.4922 440.656 50.7852C440.75 51.0742 440.797 51.4277 440.797 51.8457V56H439.707V51.834C439.707 51.502 439.658 51.2363 439.561 51.0371C439.463 50.834 439.32 50.6875 439.133 50.5977C438.945 50.5039 438.715 50.457 438.441 50.457C438.172 50.457 437.926 50.5137 437.703 50.627C437.484 50.7402 437.295 50.8965 437.135 51.0957C436.979 51.2949 436.855 51.5234 436.766 51.7812C436.68 52.0352 436.637 52.3047 436.637 52.5898ZM446.158 54.916V51.6523C446.158 51.4023 446.107 51.1855 446.006 51.002C445.908 50.8145 445.76 50.6699 445.561 50.5684C445.361 50.4668 445.115 50.416 444.822 50.416C444.549 50.416 444.309 50.4629 444.102 50.5566C443.898 50.6504 443.738 50.7734 443.621 50.9258C443.508 51.0781 443.451 51.2422 443.451 51.418H442.367C442.367 51.1914 442.426 50.9668 442.543 50.7441C442.66 50.5215 442.828 50.3203 443.047 50.1406C443.27 49.957 443.535 49.8125 443.844 49.707C444.156 49.5977 444.504 49.543 444.887 49.543C445.348 49.543 445.754 49.6211 446.105 49.7773C446.461 49.9336 446.738 50.1699 446.938 50.4863C447.141 50.7988 447.242 51.1914 447.242 51.6641V54.6172C447.242 54.8281 447.26 55.0527 447.295 55.291C447.334 55.5293 447.391 55.7344 447.465 55.9062V56H446.334C446.279 55.875 446.236 55.709 446.205 55.502C446.174 55.291 446.158 55.0957 446.158 54.916ZM446.346 52.1562L446.357 52.918H445.262C444.953 52.918 444.678 52.9434 444.436 52.9941C444.193 53.041 443.99 53.1133 443.826 53.2109C443.662 53.3086 443.537 53.4316 443.451 53.5801C443.365 53.7246 443.322 53.8945 443.322 54.0898C443.322 54.2891 443.367 54.4707 443.457 54.6348C443.547 54.7988 443.682 54.9297 443.861 55.0273C444.045 55.1211 444.27 55.168 444.535 55.168C444.867 55.168 445.16 55.0977 445.414 54.957C445.668 54.8164 445.869 54.6445 446.018 54.4414C446.17 54.2383 446.252 54.041 446.264 53.8496L446.727 54.3711C446.699 54.5352 446.625 54.7168 446.504 54.916C446.383 55.1152 446.221 55.3066 446.018 55.4902C445.818 55.6699 445.58 55.8203 445.303 55.9414C445.029 56.0586 444.721 56.1172 444.377 56.1172C443.947 56.1172 443.57 56.0332 443.246 55.8652C442.926 55.6973 442.676 55.4727 442.496 55.1914C442.32 54.9062 442.232 54.5879 442.232 54.2363C442.232 53.8965 442.299 53.5977 442.432 53.3398C442.564 53.0781 442.756 52.8613 443.006 52.6895C443.256 52.5137 443.557 52.3809 443.908 52.291C444.26 52.2012 444.652 52.1562 445.086 52.1562H446.346ZM451.602 49.6602V50.4922H448.174V49.6602H451.602ZM449.334 48.1191H450.418V54.4297C450.418 54.6445 450.451 54.8066 450.518 54.916C450.584 55.0254 450.67 55.0977 450.775 55.1328C450.881 55.168 450.994 55.1855 451.115 55.1855C451.205 55.1855 451.299 55.1777 451.396 55.1621C451.498 55.1426 451.574 55.127 451.625 55.1152L451.631 56C451.545 56.0273 451.432 56.0527 451.291 56.0762C451.154 56.1035 450.988 56.1172 450.793 56.1172C450.527 56.1172 450.283 56.0645 450.061 55.959C449.838 55.8535 449.66 55.6777 449.527 55.4316C449.398 55.1816 449.334 54.8457 449.334 54.4238V48.1191ZM453.969 47V47.75C453.969 47.9844 453.928 48.2324 453.846 48.4941C453.768 48.752 453.652 49.002 453.5 49.2441C453.348 49.4824 453.164 49.6914 452.949 49.8711L452.328 49.4434C452.512 49.1855 452.65 48.9219 452.744 48.6523C452.842 48.3789 452.891 48.084 452.891 47.7676V47H453.969ZM458.311 54.3184C458.311 54.1621 458.275 54.0176 458.205 53.8848C458.139 53.748 458 53.625 457.789 53.5156C457.582 53.4023 457.27 53.3047 456.852 53.2227C456.5 53.1484 456.182 53.0605 455.896 52.959C455.615 52.8574 455.375 52.7344 455.176 52.5898C454.98 52.4453 454.83 52.2754 454.725 52.0801C454.619 51.8848 454.566 51.6562 454.566 51.3945C454.566 51.1445 454.621 50.9082 454.73 50.6855C454.844 50.4629 455.002 50.2656 455.205 50.0938C455.412 49.9219 455.66 49.7871 455.949 49.6895C456.238 49.5918 456.561 49.543 456.916 49.543C457.424 49.543 457.857 49.6328 458.217 49.8125C458.576 49.9922 458.852 50.2324 459.043 50.5332C459.234 50.8301 459.33 51.1602 459.33 51.5234H458.246C458.246 51.3477 458.193 51.1777 458.088 51.0137C457.986 50.8457 457.836 50.707 457.637 50.5977C457.441 50.4883 457.201 50.4336 456.916 50.4336C456.615 50.4336 456.371 50.4805 456.184 50.5742C456 50.6641 455.865 50.7793 455.779 50.9199C455.697 51.0605 455.656 51.209 455.656 51.3652C455.656 51.4824 455.676 51.5879 455.715 51.6816C455.758 51.7715 455.832 51.8555 455.938 51.9336C456.043 52.0078 456.191 52.0781 456.383 52.1445C456.574 52.2109 456.818 52.2773 457.115 52.3438C457.635 52.4609 458.062 52.6016 458.398 52.7656C458.734 52.9297 458.984 53.1309 459.148 53.3691C459.312 53.6074 459.395 53.8965 459.395 54.2363C459.395 54.5137 459.336 54.7676 459.219 54.998C459.105 55.2285 458.939 55.4277 458.721 55.5957C458.506 55.7598 458.248 55.8887 457.947 55.9824C457.65 56.0723 457.316 56.1172 456.945 56.1172C456.387 56.1172 455.914 56.0176 455.527 55.8184C455.141 55.6191 454.848 55.3613 454.648 55.0449C454.449 54.7285 454.35 54.3945 454.35 54.043H455.439C455.455 54.3398 455.541 54.5762 455.697 54.752C455.854 54.9238 456.045 55.0469 456.271 55.1211C456.498 55.1914 456.723 55.2266 456.945 55.2266C457.242 55.2266 457.49 55.1875 457.689 55.1094C457.893 55.0312 458.047 54.9238 458.152 54.7871C458.258 54.6504 458.311 54.4941 458.311 54.3184ZM467.674 54.5352V49.6602H468.764V56H467.727L467.674 54.5352ZM467.879 53.1992L468.33 53.1875C468.33 53.6094 468.285 54 468.195 54.3594C468.109 54.7148 467.969 55.0234 467.773 55.2852C467.578 55.5469 467.322 55.752 467.006 55.9004C466.689 56.0449 466.305 56.1172 465.852 56.1172C465.543 56.1172 465.26 56.0723 465.002 55.9824C464.748 55.8926 464.529 55.7539 464.346 55.5664C464.162 55.3789 464.02 55.1348 463.918 54.834C463.82 54.5332 463.771 54.1719 463.771 53.75V49.6602H464.855V53.7617C464.855 54.0469 464.887 54.2832 464.949 54.4707C465.016 54.6543 465.104 54.8008 465.213 54.9102C465.326 55.0156 465.451 55.0898 465.588 55.1328C465.729 55.1758 465.873 55.1973 466.021 55.1973C466.482 55.1973 466.848 55.1094 467.117 54.9336C467.387 54.7539 467.58 54.5137 467.697 54.2129C467.818 53.9082 467.879 53.5703 467.879 53.1992ZM471.5 50.8789V58.4375H470.41V49.6602H471.406L471.5 50.8789ZM475.771 52.7773V52.9004C475.771 53.3613 475.717 53.7891 475.607 54.1836C475.498 54.5742 475.338 54.9141 475.127 55.2031C474.92 55.4922 474.664 55.7168 474.359 55.877C474.055 56.0371 473.705 56.1172 473.311 56.1172C472.908 56.1172 472.553 56.0508 472.244 55.918C471.936 55.7852 471.674 55.5918 471.459 55.3379C471.244 55.084 471.072 54.7793 470.943 54.4238C470.818 54.0684 470.732 53.668 470.686 53.2227V52.5664C470.732 52.0977 470.82 51.6777 470.949 51.3066C471.078 50.9355 471.248 50.6191 471.459 50.3574C471.674 50.0918 471.934 49.8906 472.238 49.7539C472.543 49.6133 472.895 49.543 473.293 49.543C473.691 49.543 474.045 49.6211 474.354 49.7773C474.662 49.9297 474.922 50.1484 475.133 50.4336C475.344 50.7188 475.502 51.0605 475.607 51.459C475.717 51.8535 475.771 52.293 475.771 52.7773ZM474.682 52.9004V52.7773C474.682 52.4609 474.648 52.1641 474.582 51.8867C474.516 51.6055 474.412 51.3594 474.271 51.1484C474.135 50.9336 473.959 50.7656 473.744 50.6445C473.529 50.5195 473.273 50.457 472.977 50.457C472.703 50.457 472.465 50.5039 472.262 50.5977C472.062 50.6914 471.893 50.8184 471.752 50.9785C471.611 51.1348 471.496 51.3145 471.406 51.5176C471.32 51.7168 471.256 51.9238 471.213 52.1387V53.6562C471.291 53.9297 471.4 54.1875 471.541 54.4297C471.682 54.668 471.869 54.8613 472.104 55.0098C472.338 55.1543 472.633 55.2266 472.988 55.2266C473.281 55.2266 473.533 55.166 473.744 55.0449C473.959 54.9199 474.135 54.75 474.271 54.5352C474.412 54.3203 474.516 54.0742 474.582 53.7969C474.648 53.5156 474.682 53.2168 474.682 52.9004ZM479.51 53.5977H478.42C478.424 53.2227 478.457 52.916 478.52 52.6777C478.586 52.4355 478.693 52.2148 478.842 52.0156C478.99 51.8164 479.188 51.5898 479.434 51.3359C479.613 51.1523 479.777 50.9805 479.926 50.8203C480.078 50.6562 480.201 50.4805 480.295 50.293C480.389 50.1016 480.436 49.873 480.436 49.6074C480.436 49.3379 480.387 49.1055 480.289 48.9102C480.195 48.7148 480.055 48.5645 479.867 48.459C479.684 48.3535 479.455 48.3008 479.182 48.3008C478.955 48.3008 478.74 48.3418 478.537 48.4238C478.334 48.5059 478.17 48.6328 478.045 48.8047C477.92 48.9727 477.855 49.1934 477.852 49.4668H476.768C476.775 49.0254 476.885 48.6465 477.096 48.3301C477.311 48.0137 477.6 47.7715 477.963 47.6035C478.326 47.4355 478.732 47.3516 479.182 47.3516C479.678 47.3516 480.1 47.4414 480.447 47.6211C480.799 47.8008 481.066 48.0586 481.25 48.3945C481.434 48.7266 481.525 49.1211 481.525 49.5781C481.525 49.9297 481.453 50.2539 481.309 50.5508C481.168 50.8438 480.986 51.1191 480.764 51.377C480.541 51.6348 480.305 51.8809 480.055 52.1152C479.84 52.3145 479.695 52.5391 479.621 52.7891C479.547 53.0391 479.51 53.3086 479.51 53.5977ZM478.373 55.4551C478.373 55.2793 478.428 55.1309 478.537 55.0098C478.646 54.8887 478.805 54.8281 479.012 54.8281C479.223 54.8281 479.383 54.8887 479.492 55.0098C479.602 55.1309 479.656 55.2793 479.656 55.4551C479.656 55.623 479.602 55.7676 479.492 55.8887C479.383 56.0098 479.223 56.0703 479.012 56.0703C478.805 56.0703 478.646 56.0098 478.537 55.8887C478.428 55.7676 478.373 55.623 478.373 55.4551Z" fill="white"/>
<mask id="mask0_1199_87935" style="mask-type:alpha" maskUnits="userSpaceOnUse" x="508" y="12" width="60" height="60">
<path d="M508 42C508 25.4315 521.431 12 538 12C554.569 12 568 25.4315 568 42C568 58.5685 554.569 72 538 72C521.431 72 508 58.5685 508 42Z" fill="#F5F3F9"/>
</mask>
<g mask="url(#mask0_1199_87935)">
<path d="M518.802 48.0796C519.635 52.4382 525.513 60.5706 537.271 60.4749C543.383 60.4217 548.646 57.1546 552.313 53.7812C552.55 53.565 552.781 53.3453 553.004 53.1256C555.974 50.227 557.731 47.3957 557.798 46.6091C557.944 44.8444 557.359 37.3994 554.811 32.7432C551.562 31.1025 546.654 24.547 543.989 21.1027C543.784 20.8405 543.593 20.5924 543.415 20.3692C543.015 19.8589 542.692 19.4656 542.466 19.2246C540.846 17.5095 535.166 16.7725 533.89 20.0078C533.89 20.0078 530.414 19.2247 529.433 22.4563C528.454 25.6916 521.155 27.2578 519.734 30.4435C518.313 33.6255 521.251 38.4766 521.251 38.4766C521.251 38.4766 517.969 43.7175 518.802 48.0796Z" fill="url(#paint0_linear_1199_87935)"/>
<g style="mix-blend-mode:multiply" opacity="0.3">
<g style="mix-blend-mode:multiply">
<g style="mix-blend-mode:multiply">
<path d="M543.415 20.3691C544.007 22.311 544.184 24.2174 544.34 25.9183C544.577 28.5015 544.787 30.734 546.261 32.4243C547.334 33.6574 548.419 34.196 549.468 34.7169C550.867 35.415 552.193 36.0741 553.213 38.4341C554.928 42.3922 554.457 49.5431 552.313 53.7811C552.55 53.565 552.781 53.3453 553.004 53.1256C554.861 48.7493 555.18 42.0874 553.539 38.2923C552.465 35.8154 551.083 35.1279 549.624 34.4015C548.606 33.8948 547.558 33.3704 546.526 32.1903C545.127 30.5887 544.925 28.4094 544.694 25.8829C544.56 24.4123 544.407 22.7858 543.989 21.1026C543.784 20.8404 543.592 20.5923 543.415 20.3691Z" fill="#311E2D"/>
</g>
</g>
</g>
<g style="mix-blend-mode:multiply" opacity="0.3">
<g style="mix-blend-mode:multiply">
<g style="mix-blend-mode:multiply">
<path d="M532.465 54.9767L532.513 54.6258C532.425 54.6133 523.644 53.3665 522.459 50.1669C521.115 46.5397 521.666 42.511 524.052 38.5165L524.118 38.4048L524.032 38.3075C522.464 36.5513 521.95 34.1996 522.724 32.316C523.606 30.1685 525.981 28.8677 529.41 28.6535L529.388 28.2998C525.816 28.523 523.333 29.9017 522.396 32.1814C521.586 34.1546 522.091 36.5998 523.681 38.4456C521.295 42.4992 520.757 46.5923 522.127 50.2901C523.385 53.6873 532.094 54.9258 532.465 54.9767Z" fill="#311E2D"/>
</g>
</g>
</g>
<path d="M527.971 45.2861C531.536 51.0691 529.187 55.7218 526.78 56.5049C524.234 52.2917 524.704 46.6574 527.971 45.2861ZM527.111 55.6934C528.893 55.0237 530.584 51.0444 527.853 46.1011C525.435 47.274 525.156 52.0897 527.111 55.6934Z" fill="#A1C5A9"/>
<path d="M542.001 50.4424C542.001 50.7446 541.548 62.1532 541.548 62.1532L534.295 62.0021L535.126 53.6912L542.001 50.4424Z" fill="url(#paint1_radial_1199_87935)"/>
<path d="M525.031 47.0062C526.328 50.4896 532.682 56.0245 532.682 56.0245C532.682 56.0245 540.747 54.2492 543.819 50.1494C546.895 46.0495 546.898 38.9845 546.898 38.9845C545.576 38.8041 540.286 31.6517 541.293 27.0526C538.284 25.0718 533.433 25.21 530.223 25.823C528.515 27.5771 527.214 30.2064 526.3 33.0448C525.439 35.6989 524.915 38.5372 524.702 41.0142C524.472 43.6222 524.592 45.8298 525.031 47.0062Z" fill="#DF7738"/>
<path d="M530.223 25.823C529.041 23.731 528.502 19.8117 528.992 18.293C529.482 16.7743 534.185 17.4112 535.508 18.587C536.83 19.7627 533.499 25.8866 533.352 25.8866C533.205 25.8866 530.223 25.823 530.223 25.823Z" fill="url(#paint2_linear_1199_87935)"/>
<path d="M533.891 20.0072C532.911 21.9179 532.96 25.9841 532.96 25.9841C532.96 25.9841 537.026 26.9149 537.81 25.9841C538.594 25.0532 537.516 19.6153 536.144 19.0274C534.773 18.4395 533.891 20.0072 533.891 20.0072Z" fill="#29132A"/>
<path d="M524.702 41.0139C526.555 41.7155 530.687 41.5419 530.903 41.0245C531.148 40.4362 531.981 38.1358 530.266 33.7737C530.266 33.7737 527.53 32.7007 526.3 33.0445C525.439 35.6986 524.915 38.537 524.702 41.0139Z" fill="url(#paint3_radial_1199_87935)"/>
<path d="M533.205 42.2987C538.104 43.1315 542.856 40.584 542.954 38.6244C543.052 36.6648 541.534 34.2152 540.064 33.7253C538.594 33.2354 535.067 32.8925 533.793 34.3622C532.519 35.8319 532.323 40.9759 532.323 40.9759L533.205 42.2987Z" fill="url(#paint4_radial_1199_87935)"/>
<path d="M541.975 38.2595C542.165 35.5481 536.787 35.4189 535.886 36.5946C534.792 38.0216 535.363 39.9719 535.363 40.4476C536.552 39.2108 540.88 38.2119 541.975 38.2595Z" fill="#311E2D"/>
<path d="M541.975 38.2591C540.167 36.4991 537.002 36.0558 536.076 37.2126C535.505 37.9262 535.363 39.9716 535.363 40.4473C536.552 39.2105 540.881 38.2116 541.975 38.2591Z" fill="white"/>
<path d="M537.98 39.683C537.057 39.3214 536.601 38.2797 536.963 37.3563C537.324 36.4328 538.366 35.9773 539.289 36.3389C540.213 36.7004 540.668 37.7421 540.307 38.6655C539.945 39.589 538.904 40.0445 537.98 39.683Z" fill="url(#paint5_linear_1199_87935)"/>
<path d="M536.521 37.6707C536.521 37.889 536.698 38.066 536.916 38.066C537.135 38.066 537.312 37.889 537.312 37.6707C537.312 37.4524 537.135 37.2754 536.916 37.2754C536.698 37.2754 536.521 37.4524 536.521 37.6707Z" fill="white"/>
<path d="M530.413 40.633C529.139 39.4573 526.689 38.5265 526.102 39.1143C525.955 32.5006 531.441 35.489 530.413 40.633Z" fill="#311E2D"/>
<path d="M530.413 40.6328C529.139 39.457 526.689 38.5262 526.101 39.1141C526.934 34.362 530.364 35.4888 530.413 40.6328Z" fill="white"/>
<path d="M529.697 40.0502C528.848 40.0502 528.159 39.2463 528.159 38.2546C528.159 37.2629 528.848 36.459 529.697 36.459C530.547 36.459 531.236 37.2629 531.236 38.2546C531.236 39.2463 530.547 40.0502 529.697 40.0502Z" fill="url(#paint6_linear_1199_87935)"/>
<path d="M527.881 37.698C527.881 37.9163 528.058 38.0933 528.277 38.0933C528.495 38.0933 528.672 37.9163 528.672 37.698C528.672 37.4797 528.495 37.3027 528.277 37.3027C528.058 37.3027 527.881 37.4797 527.881 37.698Z" fill="white"/>
<path d="M533.842 42.0533C533.842 42.0533 535.508 42.6412 535.557 43.1801C535.606 43.719 533.499 45.0907 531.147 44.9438C528.796 44.7968 528.159 43.915 528.159 43.474C528.159 43.0331 529.825 42.0533 530.217 41.9063C530.608 41.7594 531.245 39.7998 531.049 37.1543C530.853 34.5088 529.923 33.333 529.923 33.333L534.577 33.7249C534.577 33.7249 533.205 36.5174 532.813 38.673C532.421 40.8286 533.842 42.0533 533.842 42.0533Z" fill="url(#paint7_linear_1199_87935)"/>
<path d="M530.707 32.4019C530.658 33.1367 530.266 33.7736 530.266 33.7736C530.266 33.7736 526.248 32.7938 525.661 33.4797C525.465 33.2347 525.661 32.2549 525.905 32.0589C526.15 31.863 530.315 32.5978 530.707 32.4019Z" fill="#311E2D"/>
<path d="M534.283 32.5491C534.087 33.088 534.234 34.2148 534.234 34.2148C534.234 34.2148 536.291 33.8228 537.516 33.8228C538.741 33.8228 541.288 34.1168 542.121 35.0476C540.897 32.941 538.104 32.3531 534.283 32.5491Z" fill="#311E2D"/>
<path d="M539.329 44.7969C535.557 47.1484 530.413 47.6873 530.413 47.6873L533.156 49.5979C533.156 49.5979 537.369 48.5202 539.329 44.7969Z" fill="white"/>
<path d="M547.754 45.2861C551.319 51.0691 548.97 55.7218 546.563 56.5049C544.017 52.2917 544.487 46.6574 547.754 45.2861ZM546.894 55.6934C548.676 55.0237 550.367 51.0444 547.636 46.1011C545.218 47.274 544.94 52.0897 546.894 55.6934Z" fill="#A1C5A9"/>
<path d="M543.613 37.2462C545.904 41.5801 544.98 44.5047 543.613 47.5349C542.245 50.5651 543.251 53.243 544.779 54.1943C543.653 52.6792 543.773 48.0986 544.698 46.0198C545.623 43.9409 546.709 41.5801 545.14 38.3033C544.256 36.4557 543.613 37.2462 543.613 37.2462Z" fill="url(#paint8_linear_1199_87935)"/>
<path d="M521.217 74.4121H554.63C553.282 71.5986 550.405 66.4774 546.106 63.187C545.796 62.9437 545.479 62.7197 545.152 62.502C542.989 61.0649 540.502 60.1143 537.695 60.1143C534.766 60.1143 532.215 61.1481 530.038 62.6973C529.718 62.9213 529.411 63.1582 529.11 63.4014C525.071 66.695 522.453 71.6594 521.217 74.4121Z" fill="#406C6E"/>
<path d="M529.11 63.4027L535.198 67.3243L546.105 63.1865C545.796 62.9455 545.478 62.7188 545.152 62.5026C542.99 61.0639 540.502 60.1143 537.696 60.1143C534.765 60.1143 532.214 61.149 530.038 62.6975C529.719 62.9207 529.411 63.1582 529.11 63.4027Z" fill="#FFA200"/>
<path d="M530.038 62.6975L535.201 66.5351L545.152 62.5026C542.99 61.0639 540.502 60.1143 537.696 60.1143C534.765 60.1143 532.214 61.149 530.038 62.6975Z" fill="#DF7738"/>
<path d="M533.891 20.0081C535.948 18.0485 537.222 20.351 537.173 23.7314C537.124 27.1117 537.222 31.8148 539.182 34.8032C541.141 37.7917 544.914 37.9876 546.971 41.0251C549.029 44.0625 548.49 40.0942 548.49 40.0942C548.49 40.0942 545.061 37.3998 543.346 33.4805C541.631 29.5613 541.729 22.8006 539.868 19.9101C538.006 17.0197 535.116 18.2934 533.891 20.0081Z" fill="url(#paint9_linear_1199_87935)"/>
<path d="M545.572 46.3759C546.869 47.0243 548.794 47.5489 549.935 45.7027C550.237 45.2136 550.446 44.5475 550.517 43.6581C550.63 42.23 550.421 41.1173 549.999 40.398C549.167 38.9806 547.966 39.1936 546.382 41.3232C546.382 41.3232 545.71 44.597 545.572 46.3759Z" fill="#DF7738"/>
<path d="M547.714 44.476C549.174 43.7 549.904 44.6142 549.935 45.7021C550.237 45.2131 550.446 44.5469 550.517 43.6575C550.63 42.2294 550.421 41.1168 549.999 40.3975C548.351 41.255 547.838 43.6149 547.714 44.476Z" fill="url(#paint10_radial_1199_87935)"/>
<path d="M547.164 45.5996C547.2 45.8158 547.242 46.078 547.278 46.319C545.198 47.7718 545.042 52.2792 546.895 55.6951C547.143 55.603 547.388 55.4436 547.621 55.2274L547.639 55.8865C547.295 56.177 546.93 56.3861 546.562 56.5066C544.181 52.5591 544.439 47.3678 547.164 45.5996Z" fill="#A1C5A9"/>
</g>
<defs>
<linearGradient id="paint0_linear_1199_87935" x1="538.519" y1="26.4024" x2="538.086" y2="57.6039" gradientUnits="userSpaceOnUse">
<stop stop-color="#5D324C"/>
<stop offset="1" stop-color="#2D1534"/>
</linearGradient>
<radialGradient id="paint1_radial_1199_87935" cx="0" cy="0" r="1" gradientUnits="userSpaceOnUse" gradientTransform="translate(535.27 50.8572) rotate(180) scale(9.46553 9.46554)">
<stop stop-color="#C24B00"/>
<stop offset="0.14012" stop-color="#C65209"/>
<stop offset="0.6969" stop-color="#D86C2B"/>
<stop offset="1" stop-color="#DF7738"/>
</radialGradient>
<linearGradient id="paint2_linear_1199_87935" x1="531.34" y1="17.8736" x2="534.406" y2="26.6489" gradientUnits="userSpaceOnUse">
<stop stop-color="#5D324C"/>
<stop offset="1" stop-color="#2D1534"/>
</linearGradient>
<radialGradient id="paint3_radial_1199_87935" cx="0" cy="0" r="1" gradientUnits="userSpaceOnUse" gradientTransform="translate(532.835 32.5474) rotate(180) scale(8.20288 8.20292)">
<stop stop-color="#C24B00"/>
<stop offset="0.14012" stop-color="#C65209"/>
<stop offset="0.6969" stop-color="#D86C2B"/>
<stop offset="1" stop-color="#DF7738"/>
</radialGradient>
<radialGradient id="paint4_radial_1199_87935" cx="0" cy="0" r="1" gradientUnits="userSpaceOnUse" gradientTransform="translate(536.008 30.7434) rotate(180) scale(8.854 8.85401)">
<stop stop-color="#C24B00"/>
<stop offset="0.14012" stop-color="#C65209"/>
<stop offset="0.6969" stop-color="#D86C2B"/>
<stop offset="1" stop-color="#DF7738"/>
</radialGradient>
<linearGradient id="paint5_linear_1199_87935" x1="538.717" y1="39.265" x2="538.502" y2="35.9835" gradientUnits="userSpaceOnUse">
<stop offset="0.02128" stop-color="#385966"/>
<stop offset="1" stop-color="#251635"/>
</linearGradient>
<linearGradient id="paint6_linear_1199_87935" x1="529.802" y1="39.8484" x2="529.587" y2="36.5669" gradientUnits="userSpaceOnUse">
<stop offset="0.02128" stop-color="#385966"/>
<stop offset="1" stop-color="#251635"/>
</linearGradient>
<linearGradient id="paint7_linear_1199_87935" x1="530.834" y1="51.6206" x2="532.666" y2="36.8098" gradientUnits="userSpaceOnUse">
<stop offset="0.00313" stop-color="#B52000"/>
<stop offset="1" stop-color="#DF7738"/>
</linearGradient>
<linearGradient id="paint8_linear_1199_87935" x1="544.437" y1="48.5041" x2="544.382" y2="58.2102" gradientUnits="userSpaceOnUse">
<stop stop-color="#5D324C"/>
<stop offset="1" stop-color="#2D1534"/>
</linearGradient>
<linearGradient id="paint9_linear_1199_87935" x1="539.869" y1="16.3981" x2="542.514" y2="43.6857" gradientUnits="userSpaceOnUse">
<stop stop-color="#5D324C"/>
<stop offset="1" stop-color="#2D1534"/>
</linearGradient>
<radialGradient id="paint10_radial_1199_87935" cx="0" cy="0" r="1" gradientUnits="userSpaceOnUse" gradientTransform="translate(546.838 42.9512) rotate(180) scale(4.10174 4.10169)">
<stop stop-color="#C24B00"/>
<stop offset="0.14012" stop-color="#C65209"/>
<stop offset="0.6969" stop-color="#D86C2B"/>
<stop offset="1" stop-color="#DF7738"/>
</radialGradient>
</defs>
</svg>
