<svg xmlns="http://www.w3.org/2000/svg" fill="none" viewBox="0 0 568 72"><path fill="#131420" d="M416.066 22.145h-2.173l-.012-1.073h1.898a2.1 2.1 0 0 0 .815-.14c.226-.098.398-.237.515-.416.118-.184.176-.405.176-.662 0-.286-.055-.518-.164-.698a.937.937 0 0 0-.504-.392c-.222-.082-.508-.123-.855-.123h-1.424V26h-1.471v-8.531h2.895c.468 0 .886.045 1.254.134.371.09.685.231.943.422.262.188.459.426.592.715.137.29.205.633.205 1.032 0 .351-.084.673-.252.966a1.92 1.92 0 0 1-.744.71c-.328.183-.737.292-1.225.327l-.469.37zM416.002 26h-2.572l.662-1.166h1.91c.332 0 .609-.055.832-.164.223-.113.389-.268.498-.463.113-.2.17-.432.17-.697 0-.278-.049-.518-.147-.72a1.003 1.003 0 0 0-.462-.476c-.211-.113-.487-.17-.827-.17h-1.652l.012-1.072h2.15l.334.405c.469.015.854.119 1.154.31.305.192.532.44.68.744.149.305.223.633.223.985 0 .543-.119.998-.358 1.365a2.204 2.204 0 0 1-1.013.838c-.442.187-.973.281-1.594.281zm5.818-6.34V26h-1.418v-6.34h1.418zm-1.511-1.664c0-.215.07-.392.211-.533.144-.145.343-.217.597-.217.25 0 .447.072.592.217a.71.71 0 0 1 .217.533c0 .211-.072.387-.217.527-.145.141-.342.211-.592.211-.254 0-.453-.07-.597-.21a.714.714 0 0 1-.211-.528zm4.57-.996v9h-1.418v-9h1.418zm3.059 0v9h-1.418v-9h1.418zm3.058 2.66V26h-1.418v-6.34h1.418zm-1.512-1.664c0-.215.071-.392.211-.533.145-.145.344-.217.598-.217.25 0 .447.072.592.217.144.14.217.318.217.533 0 .211-.073.387-.217.527-.145.141-.342.211-.592.211-.254 0-.453-.07-.598-.21a.718.718 0 0 1-.211-.528zm4.459 3.018V26h-1.412v-6.34h1.33l.082 1.354zm-.252 1.582-.457-.006a4.13 4.13 0 0 1 .188-1.236 3.04 3.04 0 0 1 .516-.967c.222-.27.488-.477.796-.621a2.353 2.353 0 0 1 1.032-.223c.304 0 .58.043.826.129.25.082.463.217.638.404.18.188.317.432.411.733.093.296.14.662.14 1.095V26h-1.418v-4.102c0-.304-.045-.544-.134-.72a.754.754 0 0 0-.381-.381 1.43 1.43 0 0 0-.616-.117c-.242 0-.459.05-.65.152s-.353.24-.486.416a2.007 2.007 0 0 0-.299.61c-.07.23-.106.476-.106.738zm9.592-2.936h1.283v6.164c0 .57-.121 1.055-.363 1.453-.242.399-.58.701-1.014.909-.433.21-.935.316-1.505.316a3.537 3.537 0 0 1-1.664-.445 2.12 2.12 0 0 1-.686-.604l.662-.832c.227.27.477.467.75.592.274.125.561.187.861.187.325 0 .6-.06.827-.181a1.23 1.23 0 0 0 .533-.522c.125-.23.187-.511.187-.843v-4.758l.129-1.436zm-4.306 3.24v-.123c0-.48.058-.918.175-1.312.118-.399.286-.74.504-1.026.219-.289.485-.51.797-.662a2.342 2.342 0 0 1 1.061-.234c.41 0 .759.074 1.048.223.293.148.538.361.733.638.195.274.348.602.457.985.113.379.197.8.252 1.265v.393a6.363 6.363 0 0 1-.258 1.242c-.121.375-.281.7-.48.973-.2.273-.446.484-.739.633-.289.148-.631.222-1.025.222-.387 0-.736-.08-1.049-.24a2.397 2.397 0 0 1-.797-.674 3.224 3.224 0 0 1-.504-1.02 4.496 4.496 0 0 1-.175-1.283zm1.412-.123v.123c0 .29.027.559.082.809.058.25.146.47.263.662.121.188.274.336.457.445.188.106.409.159.663.159.332 0 .603-.07.814-.211.215-.141.379-.33.492-.569.117-.242.199-.511.246-.808v-1.06a2.58 2.58 0 0 0-.146-.645 1.74 1.74 0 0 0-.287-.522 1.201 1.201 0 0 0-.457-.351 1.526 1.526 0 0 0-.651-.13c-.254 0-.474.055-.662.165-.187.11-.342.26-.463.45a2.22 2.22 0 0 0-.263.669 3.592 3.592 0 0 0-.088.814zm13.259 1.026c0-.176-.027-.332-.082-.469a.906.906 0 0 0-.275-.375 2.272 2.272 0 0 0-.562-.328 7.477 7.477 0 0 0-.915-.334 10.18 10.18 0 0 1-1.125-.416 4.304 4.304 0 0 1-.89-.54 2.31 2.31 0 0 1-.592-.708 1.98 1.98 0 0 1-.211-.932c0-.348.072-.664.217-.949.148-.285.357-.531.627-.738.273-.211.596-.373.967-.487a4.072 4.072 0 0 1 1.23-.175c.633 0 1.178.117 1.635.351.461.235.814.549 1.06.944.25.394.375.83.375 1.306h-1.459c0-.281-.06-.53-.181-.744a1.23 1.23 0 0 0-.539-.516c-.239-.125-.541-.187-.908-.187-.348 0-.637.053-.868.158-.23.105-.402.248-.515.428-.114.18-.17.383-.17.61 0 .16.037.306.111.439.074.129.188.25.34.363.152.11.344.213.574.31.231.098.502.192.815.282.472.14.884.297 1.236.468.352.168.645.36.879.575.234.215.41.459.527.732.117.27.176.576.176.92 0 .36-.072.684-.217.973-.144.285-.351.529-.621.732-.266.2-.586.354-.961.463a4.537 4.537 0 0 1-1.242.158c-.41 0-.814-.055-1.213-.164a3.58 3.58 0 0 1-1.078-.498 2.57 2.57 0 0 1-.773-.844c-.192-.34-.288-.736-.288-1.19h1.471c0 .278.047.515.141.71.097.195.232.355.404.48.172.121.371.211.598.27.23.058.476.088.738.088.344 0 .631-.05.861-.147.235-.097.41-.234.528-.41.117-.176.175-.379.175-.61zm6.452.703V19.66h1.418V26h-1.336l-.082-1.494zm.199-1.319.474-.011c0 .426-.046.818-.14 1.178a2.723 2.723 0 0 1-.434.931 2.023 2.023 0 0 1-.75.615c-.304.145-.67.217-1.095.217-.309 0-.592-.045-.85-.135a1.736 1.736 0 0 1-.668-.416 1.894 1.894 0 0 1-.428-.732c-.101-.3-.152-.66-.152-1.078V19.66h1.412v4.108c0 .23.027.423.082.58a.984.984 0 0 0 .223.369c.093.094.203.16.328.199.125.04.258.059.398.059.403 0 .719-.079.949-.235.235-.16.401-.375.498-.644a2.55 2.55 0 0 0 .153-.909zm4.084-2.308v7.558h-1.412V19.66h1.3l.112 1.219zm4.131 1.892v.123c0 .462-.055.89-.164 1.284-.106.39-.264.732-.475 1.025-.207.29-.463.514-.768.674a2.23 2.23 0 0 1-1.054.24c-.395 0-.741-.072-1.037-.217a2.134 2.134 0 0 1-.745-.627 3.407 3.407 0 0 1-.492-.949 6.116 6.116 0 0 1-.258-1.207v-.474a6.49 6.49 0 0 1 .258-1.266c.125-.379.289-.705.492-.979.204-.273.452-.484.745-.632a2.238 2.238 0 0 1 1.025-.223c.398 0 .752.078 1.061.234.308.153.568.371.779.657.211.28.369.62.474 1.02.106.394.159.833.159 1.317zm-1.412.123v-.122c0-.293-.028-.565-.082-.815a2.139 2.139 0 0 0-.258-.668 1.265 1.265 0 0 0-.451-.445 1.23 1.23 0 0 0-.651-.164c-.25 0-.465.043-.644.129-.18.082-.33.197-.452.345a1.645 1.645 0 0 0-.281.522 3.129 3.129 0 0 0-.14.639v1.136c.046.281.127.54.24.774.113.234.273.421.48.562.211.137.481.205.809.205.254 0 .471-.055.65-.164.18-.11.326-.26.44-.451.117-.195.203-.42.258-.674a3.88 3.88 0 0 0 .082-.808zm4.031-2.015v7.558h-1.412V19.66h1.3l.112 1.219zm4.131 1.892v.123c0 .462-.055.89-.164 1.284-.106.39-.264.732-.475 1.025-.207.29-.463.514-.768.674a2.23 2.23 0 0 1-1.054.24c-.395 0-.741-.072-1.037-.217a2.134 2.134 0 0 1-.745-.627 3.407 3.407 0 0 1-.492-.949 6.116 6.116 0 0 1-.258-1.207v-.474a6.49 6.49 0 0 1 .258-1.266c.125-.379.289-.705.492-.979.204-.273.452-.484.745-.632a2.238 2.238 0 0 1 1.025-.223c.398 0 .752.078 1.061.234.308.153.568.371.779.657.211.28.369.62.474 1.02.106.394.159.833.159 1.317zm-1.412.123v-.122c0-.293-.028-.565-.082-.815a2.139 2.139 0 0 0-.258-.668 1.265 1.265 0 0 0-.451-.445 1.23 1.23 0 0 0-.651-.164c-.25 0-.465.043-.644.129-.18.082-.33.197-.452.345a1.645 1.645 0 0 0-.281.522 3.129 3.129 0 0 0-.14.639v1.136c.046.281.127.54.24.774.113.234.273.421.48.562.211.137.481.205.809.205.254 0 .471-.055.65-.164.18-.11.326-.26.44-.451.117-.195.203-.42.258-.674a3.88 3.88 0 0 0 .082-.808zm2.343.006v-.134c0-.457.067-.881.2-1.272.132-.394.324-.736.574-1.025.254-.293.562-.52.926-.68a3.011 3.011 0 0 1 1.242-.246c.465 0 .879.082 1.242.246.367.16.678.387.932.68.253.289.447.63.58 1.025.132.39.199.815.199 1.272v.134c0 .457-.067.881-.199 1.272-.133.39-.327.732-.58 1.025a2.693 2.693 0 0 1-.926.68c-.364.16-.776.24-1.237.24-.464 0-.88-.08-1.248-.24a2.69 2.69 0 0 1-.925-.68 3.027 3.027 0 0 1-.58-1.025c-.133-.39-.2-.815-.2-1.272zm1.412-.134v.134c0 .286.03.555.088.809.059.254.151.477.276.668.125.191.285.342.48.451.195.11.428.164.697.164.262 0 .489-.055.68-.164.195-.11.356-.26.481-.451s.216-.414.275-.668a3.4 3.4 0 0 0 .094-.809v-.134a3.3 3.3 0 0 0-.094-.797 2.053 2.053 0 0 0-.281-.674 1.34 1.34 0 0 0-1.166-.627c-.266 0-.496.057-.692.17-.191.11-.349.262-.474.457s-.217.42-.276.674c-.058.25-.088.515-.088.797zm7.084-1.899V26h-1.412v-6.34h1.348l.064 1.207zm1.94-1.248-.012 1.313a3.679 3.679 0 0 0-.574-.047c-.242 0-.455.035-.639.105a1.209 1.209 0 0 0-.463.293 1.298 1.298 0 0 0-.281.457c-.066.18-.105.381-.117.604l-.322.023c0-.398.039-.767.117-1.107.078-.34.195-.639.351-.897.161-.258.36-.459.598-.603.242-.145.522-.217.838-.217.086 0 .178.008.275.023.102.016.178.034.229.053zm4.084.041v1.031h-3.574v-1.03h3.574zm-2.543-1.553h1.412v6.141c0 .195.027.346.082.451.059.102.139.17.24.205.102.035.221.053.358.053.097 0 .191-.006.281-.018.09-.011.162-.023.217-.035l.006 1.078a3.626 3.626 0 0 1-.411.094 3.011 3.011 0 0 1-.527.041c-.324 0-.611-.056-.861-.17a1.265 1.265 0 0 1-.586-.568c-.141-.262-.211-.61-.211-1.043v-6.229z"/><path fill="#3F7BDA" d="M484 32h-89a8 8 0 0 0-8 8v24a8 8 0 0 0 8 8h89a8 8 0 0 0 8-8V40a8 8 0 0 0-8-8z"/><path fill="#fff" d="M404.293 51.137v.92h-4.617v-.92h4.617zm-4.441-3.668V56h-1.131v-8.531h1.131zm5.425 0V56h-1.125v-8.531h1.125zm4.477 8.648c-.442 0-.842-.074-1.201-.222a2.72 2.72 0 0 1-.92-.64 2.845 2.845 0 0 1-.586-.972 3.56 3.56 0 0 1-.205-1.23v-.246c0-.516.076-.975.228-1.377.153-.407.36-.75.621-1.032.262-.28.559-.494.891-.638a2.557 2.557 0 0 1 1.031-.217c.453 0 .844.078 1.172.234.332.157.604.375.815.657.211.277.367.605.468.984.102.375.153.785.153 1.23v.487h-4.735v-.885h3.651v-.082a2.732 2.732 0 0 0-.176-.82 1.477 1.477 0 0 0-.469-.657c-.215-.172-.508-.257-.879-.257a1.472 1.472 0 0 0-1.213.615 2.31 2.31 0 0 0-.345.744c-.082.293-.123.63-.123 1.014v.246c0 .3.041.584.123.85.086.261.209.492.369.69.164.2.361.356.592.47.234.113.5.17.796.17.383 0 .708-.079.973-.235a2.4 2.4 0 0 0 .697-.627l.657.522a3.044 3.044 0 0 1-.522.591c-.211.188-.471.34-.779.457a3.018 3.018 0 0 1-1.084.176zm5.432-.773 1.763-5.684h1.16l-2.543 7.319a3.889 3.889 0 0 1-.234.503 2.436 2.436 0 0 1-.363.522 1.733 1.733 0 0 1-.539.398 1.621 1.621 0 0 1-.744.158 3.262 3.262 0 0 1-.61-.094l-.006-.878c.032.004.08.008.147.012a1.746 1.746 0 0 0 .773-.088.948.948 0 0 0 .434-.322c.121-.149.224-.354.31-.616l.452-1.23zm-1.295-5.684 1.646 4.922.281 1.143-.779.398-2.332-6.463h1.184zm6.486-2.191-.076 6.123h-.979l-.082-6.123h1.137zm-1.172 7.986c0-.176.053-.324.158-.445.11-.121.27-.182.481-.182.207 0 .365.06.474.182.114.12.17.27.17.445a.61.61 0 0 1-.17.434c-.109.12-.267.181-.474.181-.211 0-.371-.06-.481-.181a.64.64 0 0 1-.158-.434zm8.361-2.033 1.694-5.953h.82l-.475 2.314L427.783 56h-.814l.597-2.578zm-1.752-5.953 1.348 5.836.404 2.695h-.808l-2.069-8.531h1.125zm6.457 5.83 1.319-5.83h1.131L432.658 56h-.808l.421-2.701zm-2.068-5.83 1.647 5.953.597 2.578h-.814l-1.758-6.217-.48-2.314h.808zm6.692-.469v9h-1.084v-9h1.084zm-.258 5.59-.451-.018c.003-.433.068-.834.193-1.2.125-.372.301-.694.527-.968a2.35 2.35 0 0 1 1.858-.861c.312 0 .593.043.843.129.25.082.463.215.639.398.18.184.316.422.41.715.094.29.141.643.141 1.06V56h-1.09v-4.166c0-.332-.049-.598-.146-.797a.905.905 0 0 0-.428-.44 1.537 1.537 0 0 0-.692-.14c-.269 0-.515.057-.738.17a1.76 1.76 0 0 0-.568.469c-.156.199-.28.427-.369.685a2.504 2.504 0 0 0-.129.809zm9.521 2.326v-3.264c0-.25-.051-.467-.152-.65a.999.999 0 0 0-.445-.434 1.619 1.619 0 0 0-.739-.152 1.73 1.73 0 0 0-.72.14 1.249 1.249 0 0 0-.481.37.81.81 0 0 0-.17.492h-1.084c0-.227.059-.451.176-.674.117-.222.285-.424.504-.603a2.52 2.52 0 0 1 .797-.434 3.14 3.14 0 0 1 1.043-.164c.461 0 .867.078 1.218.234.356.157.633.393.833.71.203.312.304.704.304 1.177v2.953c0 .211.018.436.053.674.039.238.096.443.17.615V56h-1.131a2 2 0 0 1-.129-.498 4.054 4.054 0 0 1-.047-.586zm.188-2.76.011.762h-1.095c-.309 0-.584.025-.826.076-.243.047-.446.12-.61.217a.978.978 0 0 0-.504.879c0 .2.045.38.135.545.09.164.225.295.404.392.184.094.409.141.674.141.332 0 .625-.07.879-.211.254-.14.455-.313.604-.516.152-.203.234-.4.246-.591l.463.521a1.59 1.59 0 0 1-.223.545 2.605 2.605 0 0 1-1.201 1.025 2.33 2.33 0 0 1-.926.176c-.43 0-.807-.084-1.131-.252a1.937 1.937 0 0 1-.75-.674 1.782 1.782 0 0 1-.264-.955c0-.34.067-.638.2-.896.132-.262.324-.479.574-.65.25-.176.551-.31.902-.399.352-.09.744-.135 1.178-.135h1.26zm5.256-2.496v.832h-3.428v-.832h3.428zm-2.268-1.54h1.084v6.31c0 .215.033.377.1.486.066.11.152.182.257.217.106.035.219.052.34.052.09 0 .184-.007.281-.023.102-.02.178-.035.229-.047l.006.885a2.541 2.541 0 0 1-.34.076 2.592 2.592 0 0 1-.498.041c-.266 0-.51-.052-.732-.158a1.18 1.18 0 0 1-.534-.527c-.129-.25-.193-.586-.193-1.008v-6.305zm4.635-1.12v.75c0 .234-.041.482-.123.744a3.094 3.094 0 0 1-.346.75 2.716 2.716 0 0 1-.551.627l-.621-.428c.184-.258.322-.521.416-.79.098-.274.147-.569.147-.885V47h1.078zm4.342 7.318c0-.156-.036-.3-.106-.433-.066-.137-.205-.26-.416-.37-.207-.113-.519-.21-.937-.292a7.484 7.484 0 0 1-.956-.264 2.89 2.89 0 0 1-.72-.37 1.535 1.535 0 0 1-.451-.509 1.416 1.416 0 0 1-.159-.685c0-.25.055-.487.164-.71.114-.222.272-.42.475-.591.207-.172.455-.307.744-.404a3.01 3.01 0 0 1 .967-.147c.508 0 .941.09 1.301.27.359.18.635.42.826.72.191.297.287.627.287.99h-1.084a.934.934 0 0 0-.158-.51 1.17 1.17 0 0 0-.451-.415 1.46 1.46 0 0 0-.721-.164c-.301 0-.545.047-.732.14a.941.941 0 0 0-.405.346.87.87 0 0 0-.064.762c.043.09.117.173.223.252.105.074.253.144.445.21.191.067.435.133.732.2.52.117.947.258 1.283.422.336.164.586.365.75.603.164.238.247.528.247.867 0 .278-.059.532-.176.762-.114.23-.28.43-.498.598a2.476 2.476 0 0 1-.774.386c-.297.09-.631.135-1.002.135-.558 0-1.031-.1-1.418-.299-.386-.199-.679-.457-.879-.773a1.851 1.851 0 0 1-.298-1.002h1.089c.016.297.102.533.258.709.157.172.348.295.574.37.227.07.452.105.674.105.297 0 .545-.04.744-.118a1.03 1.03 0 0 0 .463-.322.744.744 0 0 0 .159-.469zm9.363.217V49.66h1.09V56h-1.037l-.053-1.465zm.205-1.336.451-.011c0 .421-.045.812-.135 1.171a2.508 2.508 0 0 1-.422.926 1.994 1.994 0 0 1-.767.615c-.317.145-.701.217-1.154.217-.309 0-.592-.045-.85-.135a1.691 1.691 0 0 1-.656-.416 1.894 1.894 0 0 1-.428-.732 3.52 3.52 0 0 1-.147-1.084v-4.09h1.084v4.102c0 .285.032.521.094.709.067.183.155.33.264.44.113.105.238.179.375.222.141.043.285.064.433.064.461 0 .827-.088 1.096-.263.27-.18.463-.42.58-.721.121-.305.182-.643.182-1.014zm3.621-2.32v7.559h-1.09V49.66h.996l.094 1.219zm4.271 1.898v.123c0 .461-.054.89-.164 1.284-.109.39-.269.73-.48 1.02-.207.288-.463.513-.768.673-.304.16-.654.24-1.048.24a2.68 2.68 0 0 1-1.067-.199 2.109 2.109 0 0 1-.785-.58 2.962 2.962 0 0 1-.516-.914 5.243 5.243 0 0 1-.257-1.201v-.657c.046-.468.134-.888.263-1.26a3.14 3.14 0 0 1 .51-.949c.215-.265.475-.466.779-.603.305-.14.657-.211 1.055-.211.398 0 .752.078 1.061.234.308.153.568.371.779.657.211.285.369.627.474 1.025.11.394.164.834.164 1.318zm-1.089.123v-.123c0-.316-.034-.613-.1-.89a2.236 2.236 0 0 0-.311-.739 1.472 1.472 0 0 0-.527-.504 1.5 1.5 0 0 0-.767-.187 1.69 1.69 0 0 0-.715.14c-.2.094-.369.221-.51.381a2.018 2.018 0 0 0-.346.54c-.086.199-.15.406-.193.62v1.518c.078.274.187.532.328.774a1.7 1.7 0 0 0 .563.58c.234.144.529.217.884.217.293 0 .545-.061.756-.182.215-.125.391-.295.527-.51.141-.215.245-.46.311-.738.066-.281.1-.58.1-.897zm4.828.698h-1.09c.004-.375.037-.682.1-.92.066-.242.173-.463.322-.662.148-.2.346-.426.592-.68.179-.184.343-.355.492-.516.152-.164.275-.34.369-.527.094-.191.141-.42.141-.686 0-.27-.049-.502-.147-.697a1.003 1.003 0 0 0-.422-.451c-.183-.106-.412-.158-.685-.158-.227 0-.442.04-.645.123a1.109 1.109 0 0 0-.492.38c-.125.169-.19.39-.193.663h-1.084c.007-.442.117-.82.328-1.137.215-.316.504-.558.867-.727a2.867 2.867 0 0 1 1.219-.251c.496 0 .918.09 1.265.27.352.179.619.437.803.773.184.332.275.726.275 1.183 0 .352-.072.676-.216.973a3.772 3.772 0 0 1-.545.826 9.774 9.774 0 0 1-.709.738c-.215.2-.36.424-.434.674-.074.25-.111.52-.111.809zm-1.137 1.857c0-.176.055-.324.164-.445.109-.121.268-.182.475-.182.211 0 .371.06.48.182.11.12.164.27.164.445a.622.622 0 0 1-.164.434c-.109.12-.269.181-.48.181-.207 0-.366-.06-.475-.181a.627.627 0 0 1-.164-.434z"/><mask id="a" width="60" height="60" x="508" y="12" maskUnits="userSpaceOnUse" style="mask-type:alpha"><path fill="#F5F3F9" d="M508 42c0-16.569 13.431-30 30-30 16.569 0 30 13.431 30 30 0 16.569-13.431 30-30 30-16.569 0-30-13.431-30-30z"/></mask><g mask="url(#a)"><path fill="url(#b)" d="M518.802 48.08c.833 4.358 6.711 12.49 18.469 12.395 6.112-.053 11.375-3.32 15.042-6.694.237-.216.468-.436.691-.655 2.97-2.899 4.727-5.73 4.794-6.517.146-1.765-.439-9.21-2.987-13.866-3.249-1.64-8.157-8.196-10.822-11.64-.205-.263-.396-.51-.574-.734-.4-.51-.723-.903-.949-1.144-1.62-1.716-7.3-2.453-8.576.783 0 0-3.476-.783-4.457 2.448-.979 3.236-8.278 4.802-9.699 7.988-1.421 3.182 1.517 8.033 1.517 8.033s-3.282 5.24-2.449 9.603z"/><path fill="#311E2D" d="M543.415 20.37c.592 1.941.769 3.847.925 5.548.237 2.584.447 4.816 1.921 6.506 1.073 1.233 2.158 1.772 3.207 2.293 1.399.698 2.725 1.357 3.745 3.717 1.715 3.958 1.244 11.11-.9 15.347.237-.216.468-.436.691-.655 1.857-4.377 2.176-11.039.535-14.834-1.074-2.477-2.456-3.164-3.915-3.89-1.018-.507-2.066-1.032-3.098-2.212-1.399-1.601-1.601-3.78-1.832-6.307-.134-1.47-.287-3.097-.705-4.78-.205-.263-.397-.51-.574-.734zM532.465 54.977l.048-.351c-.088-.013-8.869-1.26-10.054-4.46-1.344-3.626-.793-7.655 1.593-11.65l.066-.111-.086-.098c-1.568-1.756-2.082-4.107-1.308-5.991.882-2.148 3.257-3.448 6.686-3.663l-.022-.353c-3.572.223-6.055 1.602-6.992 3.881-.81 1.974-.305 4.419 1.285 6.265-2.386 4.053-2.924 8.146-1.554 11.844 1.258 3.397 9.967 4.636 10.338 4.687z" opacity=".3" style="mix-blend-mode:multiply"/><path fill="#A1C5A9" d="M527.971 45.286c3.565 5.783 1.216 10.436-1.191 11.219-2.546-4.213-2.076-9.848 1.191-11.219zm-.86 10.407c1.782-.67 3.473-4.649.742-9.592-2.418 1.173-2.697 5.989-.742 9.592z"/><path fill="url(#c)" d="M542.001 50.442c0 .303-.453 11.711-.453 11.711l-7.253-.15.831-8.312 6.875-3.249z"/><path fill="#DF7738" d="M525.031 47.006c1.297 3.484 7.651 9.019 7.651 9.019s8.065-1.776 11.137-5.876c3.076-4.1 3.079-11.165 3.079-11.165-1.322-.18-6.612-7.332-5.605-11.931-3.009-1.981-7.86-1.843-11.07-1.23-1.708 1.754-3.009 4.383-3.923 7.222-.861 2.654-1.385 5.492-1.598 7.97-.23 2.607-.11 4.815.329 5.991z"/><path fill="url(#d)" d="M530.223 25.823c-1.182-2.092-1.721-6.011-1.231-7.53.49-1.519 5.193-.882 6.516.294 1.322 1.176-2.009 7.3-2.156 7.3-.147 0-3.129-.064-3.129-.064z"/><path fill="#29132A" d="M533.891 20.007c-.98 1.91-.931 5.977-.931 5.977s4.066.93 4.85 0c.784-.93-.294-6.369-1.666-6.957-1.371-.588-2.253.98-2.253.98z"/><path fill="url(#e)" d="M524.702 41.014c1.853.701 5.985.528 6.201.01.245-.588 1.078-2.888-.637-7.25 0 0-2.736-1.073-3.966-.73-.861 2.655-1.385 5.493-1.598 7.97z"/><path fill="url(#f)" d="M533.205 42.299c4.899.833 9.651-1.715 9.749-3.675.098-1.96-1.42-4.409-2.89-4.899-1.47-.49-4.997-.833-6.271.637s-1.47 6.614-1.47 6.614l.882 1.323z"/><path fill="#311E2D" d="M541.975 38.26c.19-2.712-5.188-2.841-6.089-1.665-1.094 1.427-.523 3.377-.523 3.853 1.189-1.237 5.517-2.236 6.612-2.188z"/><path fill="#fff" d="M541.975 38.26c-1.808-1.76-4.973-2.204-5.899-1.047-.571.713-.713 2.759-.713 3.234 1.189-1.236 5.518-2.235 6.612-2.188z"/><path fill="url(#g)" d="M537.98 39.683a1.795 1.795 0 1 1 1.31-3.344 1.795 1.795 0 0 1-1.31 3.344z"/><path fill="#fff" d="M536.521 37.67a.395.395 0 1 0 .79 0 .395.395 0 0 0-.79 0z"/><path fill="#311E2D" d="M530.413 40.633c-1.274-1.176-3.724-2.107-4.311-1.519-.147-6.613 5.339-3.625 4.311 1.519z"/><path fill="#fff" d="M530.413 40.633c-1.274-1.176-3.724-2.107-4.312-1.519.833-4.752 4.263-3.625 4.312 1.519z"/><path fill="url(#h)" d="M529.697 40.05c-.849 0-1.538-.804-1.538-1.795 0-.992.689-1.796 1.538-1.796.85 0 1.539.804 1.539 1.796 0 .991-.689 1.795-1.539 1.795z"/><path fill="#fff" d="M527.881 37.698a.395.395 0 1 0 .79 0 .395.395 0 0 0-.79 0z"/><path fill="url(#i)" d="M533.842 42.053s1.666.588 1.715 1.127c.049.539-2.058 1.91-4.41 1.764-2.351-.147-2.988-1.029-2.988-1.47 0-.44 1.666-1.42 2.058-1.568.391-.147 1.028-2.106.832-4.752-.196-2.645-1.126-3.821-1.126-3.821l4.654.392s-1.372 2.792-1.764 4.948c-.392 2.156 1.029 3.38 1.029 3.38z"/><path fill="#311E2D" d="M530.707 32.402c-.049.735-.441 1.372-.441 1.372s-4.018-.98-4.605-.294c-.196-.245 0-1.225.244-1.421.245-.196 4.41.539 4.802.343zM534.283 32.55c-.196.538-.049 1.665-.049 1.665s2.057-.392 3.282-.392 3.772.294 4.605 1.225c-1.224-2.107-4.017-2.695-7.838-2.499z"/><path fill="#fff" d="M539.329 44.797c-3.772 2.351-8.916 2.89-8.916 2.89l2.743 1.91s4.213-1.077 6.173-4.8z"/><path fill="#A1C5A9" d="M547.754 45.286c3.565 5.783 1.216 10.436-1.191 11.219-2.546-4.213-2.076-9.848 1.191-11.219zm-.86 10.407c1.782-.67 3.473-4.649.742-9.592-2.418 1.173-2.696 5.989-.742 9.592z"/><path fill="url(#j)" d="M543.613 37.246c2.291 4.334 1.367 7.259 0 10.289-1.368 3.03-.362 5.708 1.166 6.66-1.126-1.516-1.006-6.096-.081-8.175.925-2.08 2.011-4.44.442-7.717-.884-1.847-1.527-1.057-1.527-1.057z"/><path fill="#406C6E" d="M521.217 74.412h33.413c-1.348-2.813-4.225-7.935-8.524-11.225-.31-.243-.627-.467-.954-.685-2.163-1.437-4.65-2.388-7.457-2.388-2.929 0-5.48 1.034-7.657 2.583-.32.224-.627.461-.928.704-4.039 3.294-6.657 8.258-7.893 11.011z"/><path fill="#FFA200" d="m529.11 63.403 6.088 3.921 10.907-4.137a15.263 15.263 0 0 0-.953-.684c-2.162-1.44-4.65-2.389-7.456-2.389-2.931 0-5.482 1.035-7.658 2.584-.319.223-.627.46-.928.705z"/><path fill="#DF7738" d="m530.038 62.697 5.163 3.838 9.951-4.032c-2.162-1.44-4.65-2.389-7.456-2.389-2.931 0-5.482 1.035-7.658 2.584z"/><path fill="url(#k)" d="M533.891 20.008c2.057-1.96 3.331.343 3.282 3.723-.049 3.38.049 8.084 2.009 11.072 1.959 2.989 5.732 3.185 7.789 6.222 2.058 3.038 1.519-.93 1.519-.93s-3.429-2.695-5.144-6.614c-1.715-3.92-1.617-10.68-3.478-13.57-1.862-2.891-4.752-1.618-5.977.097z"/><path fill="#DF7738" d="M545.572 46.376c1.297.648 3.222 1.173 4.363-.673.302-.49.511-1.156.582-2.045.113-1.428-.096-2.54-.518-3.26-.832-1.417-2.033-1.204-3.617.925 0 0-.672 3.274-.81 5.053z"/><path fill="url(#l)" d="M547.714 44.476c1.46-.776 2.19.138 2.221 1.226.302-.489.511-1.155.582-2.044.113-1.429-.096-2.541-.518-3.26-1.648.857-2.161 3.217-2.285 4.078z"/><path fill="#A1C5A9" d="M547.164 45.6c.036.216.078.478.114.719-2.08 1.453-2.236 5.96-.383 9.376.248-.092.493-.251.726-.468l.018.66c-.344.29-.709.5-1.077.62-2.381-3.948-2.123-9.14.602-10.907z"/></g><defs><linearGradient id="b" x1="538.519" x2="538.086" y1="26.402" y2="57.604" gradientUnits="userSpaceOnUse"><stop stop-color="#5D324C"/><stop offset="1" stop-color="#2D1534"/></linearGradient><radialGradient id="c" cx="0" cy="0" r="1" gradientTransform="matrix(-9.46553 0 0 -9.46554 535.27 50.857)" gradientUnits="userSpaceOnUse"><stop stop-color="#C24B00"/><stop offset=".14" stop-color="#C65209"/><stop offset=".697" stop-color="#D86C2B"/><stop offset="1" stop-color="#DF7738"/></radialGradient><linearGradient id="d" x1="531.34" x2="534.406" y1="17.874" y2="26.649" gradientUnits="userSpaceOnUse"><stop stop-color="#5D324C"/><stop offset="1" stop-color="#2D1534"/></linearGradient><radialGradient id="e" cx="0" cy="0" r="1" gradientTransform="matrix(-8.20288 0 0 -8.20292 532.835 32.547)" gradientUnits="userSpaceOnUse"><stop stop-color="#C24B00"/><stop offset=".14" stop-color="#C65209"/><stop offset=".697" stop-color="#D86C2B"/><stop offset="1" stop-color="#DF7738"/></radialGradient><radialGradient id="f" cx="0" cy="0" r="1" gradientTransform="matrix(-8.854 0 0 -8.85401 536.008 30.743)" gradientUnits="userSpaceOnUse"><stop stop-color="#C24B00"/><stop offset=".14" stop-color="#C65209"/><stop offset=".697" stop-color="#D86C2B"/><stop offset="1" stop-color="#DF7738"/></radialGradient><linearGradient id="g" x1="538.717" x2="538.502" y1="39.265" y2="35.983" gradientUnits="userSpaceOnUse"><stop offset=".021" stop-color="#385966"/><stop offset="1" stop-color="#251635"/></linearGradient><linearGradient id="h" x1="529.802" x2="529.587" y1="39.848" y2="36.567" gradientUnits="userSpaceOnUse"><stop offset=".021" stop-color="#385966"/><stop offset="1" stop-color="#251635"/></linearGradient><linearGradient id="i" x1="530.834" x2="532.666" y1="51.621" y2="36.81" gradientUnits="userSpaceOnUse"><stop offset=".003" stop-color="#B52000"/><stop offset="1" stop-color="#DF7738"/></linearGradient><linearGradient id="j" x1="544.437" x2="544.382" y1="48.504" y2="58.21" gradientUnits="userSpaceOnUse"><stop stop-color="#5D324C"/><stop offset="1" stop-color="#2D1534"/></linearGradient><linearGradient id="k" x1="539.869" x2="542.514" y1="16.398" y2="43.686" gradientUnits="userSpaceOnUse"><stop stop-color="#5D324C"/><stop offset="1" stop-color="#2D1534"/></linearGradient><radialGradient id="l" cx="0" cy="0" r="1" gradientTransform="matrix(-4.10174 0 0 -4.10169 546.838 42.951)" gradientUnits="userSpaceOnUse"><stop stop-color="#C24B00"/><stop offset=".14" stop-color="#C65209"/><stop offset=".697" stop-color="#D86C2B"/><stop offset="1" stop-color="#DF7738"/></radialGradient></defs></svg>