<svg xmlns="http://www.w3.org/2000/svg" fill="none" viewBox="0 0 568 112"><path fill="#F5F3F9" d="M0 42c0-16.569 13.431-30 30-30 16.569 0 30 13.431 30 30 0 16.569-13.431 30-30 30C13.431 72 0 58.569 0 42z"/><mask id="a" width="60" height="60" x="0" y="12" maskUnits="userSpaceOnUse" style="mask-type:alpha"><path fill="#F5F3F9" d="M0 42c0-16.569 13.431-30 30-30 16.569 0 30 13.431 30 30 0 16.569-13.431 30-30 30C13.431 72 0 58.569 0 42z"/></mask><g mask="url(#a)"><path fill="url(#b)" d="M45.079 61.768a8.5 8.5 0 0 1-.804.984c-1.227 1.31-2.87 2.285-4.895 2.771a6.8 6.8 0 0 1-.555.117c-.286.057-.578.103-.875.138-9.3 1.083-13.916-1.359-15.408-2.989-1.493-1.627-5.225-15.202 1.63-21.445 6.854-6.245 19.14 4.884 19.14 4.884 4.264 5.2 4.632 11.502 1.767 15.54z"/><g opacity=".1" style="mix-blend-mode:screen"><path fill="#FDA41C" d="M40.13 54.714c2.243 4.08 1.87 7.406.773 9.159-.621.992-1.505 1.533-2.404 1.489l-.015.285.12.003c.97 0 1.891-.587 2.541-1.626 1.14-1.821 1.538-5.26-.763-9.448l-.251.138z" style="mix-blend-mode:screen"/><path fill="#FDA41C" d="M39.594 62.555c1.01-1.22 1.407-3.76-.502-7.232l-.25.138c1.84 3.346 1.481 5.764.532 6.911-.663.803-1.662 1.086-2.67.757l-.089.272c.308.1.614.15.913.15.793 0 1.528-.346 2.066-.996zM45.078 61.768a8.489 8.489 0 0 1-.803.984c1.104-1.853 1.956-5.228 1.19-8.033-.57-2.076-1.902-3.449-3.961-4.078l.083-.272c2.13.65 3.566 2.128 4.152 4.275.65 2.371.166 5.148-.66 7.124zM27.807 58.92c-.796-.228-4.052-2.38-4.24-8.08l-.286.01c.222 6.722 4.406 8.332 4.448 8.344.229.066.553.484.795.869-1.26-.551-5.315-2.777-6.044-8.828l-.284.034c.884 7.337 6.558 9.196 6.615 9.214l.332.104-.163-.308c-.065-.123-.654-1.211-1.173-1.36z" style="mix-blend-mode:screen"/></g><path fill="url(#c)" d="M45.852 72h-28.59l4.844-5.406 3.44-3.836.76-.85 1.014-1.124s.308-5.261.507-8.694c.04-.63.075-1.192.102-1.658.035-.719.062-1.185.062-1.233l.473.37 5.522 4.357.301 2.412.548 4.433 2.015 2.144h.006l1.268 1.343 2.569 2.733L45.852 72z"/><path fill="url(#d)" d="M41.104 17.334c4.588 8.558-.126 21.434-.126 21.434l-3.563-9.083 3.69-12.351z"/><path fill="#FFAE8D" d="M25.803 44.458s.017.137.066.386a19.024 19.024 0 0 0 2.056 5.588 17.272 17.272 0 0 0 2.13 3.051c1.21 1.384 2.737 2.277 4.23 2.854 2.977 1.15 5.834 1.044 5.834 1.044s3.386-5.851 3.677-10.152c.18-2.668-.077-3.918-.869-5.854-.18-.44-.389-.918-.626-1.458-.83-1.879-1.061-3.612-1.659-5.814a28.083 28.083 0 0 0-1.373-3.93 30.677 30.677 0 0 0-.763-1.638L25.803 44.458z"/><path fill="url(#e)" d="M39.492 41.71s1.041-.553 2.265-.184c.384.115.79.026 1.17-.151-.18-.44-.39-.918-.626-1.459-.83-1.878-1.061-3.611-1.659-5.813l-1.986.157c-.834 1.77.836 7.45.836 7.45z"/><path fill="url(#f)" d="M36.354 36.371c1.172 1.266 1.594 3.704 1.5 5.298-.093 1.595-6.517 2.486-7.642.329-1.126-2.157 2.766-5.252 3.235-5.346.469-.093 2.907-.28 2.907-.28z"/><path fill="#FFAE8D" d="M27.758 48.842s-.203.132-.507.263c-.549.24-1.427.48-2.036-.048-.95-.818-1.338-3.492-1.338-3.492l1.993-.72.51-.184 1.378 4.181z"/><path fill="#5D3000" d="m35.949 38.883.036-.448s-2.443.191-3.102.764c-.658.573-1.289 1.883-1.289 1.883l2.96-1.273 1.395-.926z"/><path fill="#B05600" d="M33.866 37.089s1.977.086 2.377-.172c.401-.258.516-1.117.516-1.117s-1.862.344-2.263.344c-.4 0-.63.945-.63.945zM38.22 34.769a6.673 6.673 0 0 1 .888-1.318l2.205-.086-.516 1.003s-1.346-.144-2.577.4z"/><path fill="#fff" d="M31.595 41.082c2.457-.733 4.613-.604 4.613-.604l-.26-1.595s-1.884.145-2.747.533c-.862.388-1.607 1.666-1.607 1.666z"/><path fill="url(#g)" d="M35.04 41.098c.728 0 1.318-.667 1.318-1.49 0-.822-.59-1.489-1.318-1.489-.727 0-1.317.667-1.317 1.49 0 .822.59 1.489 1.317 1.489z"/><path fill="#fff" d="M34.192 39.287a.343.343 0 1 1-.686 0 .343.343 0 0 1 .686 0z"/><path fill="#B74970" d="M39.27 30.174c-2.01 7.578-8.395 12.02-10.806 19.397-.129.39-.246.79-.349 1.195-.112.432-.206.873-.286 1.325.037-.63.072-1.196.097-1.66a18.192 18.192 0 0 1-.675-1.326c-.549.24-1.427.48-2.036-.049-.95-.817-1.338-3.491-1.338-3.491l1.993-.721a6.406 6.406 0 0 1-.066-.386l12.703-15.923c.289.575.54 1.121.764 1.639z" opacity=".2" style="mix-blend-mode:multiply"/><path fill="#5D3000" d="M38.46 37.481c.712-.949 2.076-.949 2.076-.949l.06.623-1.987.86-.149-.534z"/><path fill="#fff" d="M38.493 37.805c1.638-1.078 2.102-.828 2.102-.828s.593 1.602.27 2.811c-.418.066-1.855.56-1.855.56l-.517-2.543z"/><path fill="url(#h)" d="M40.597 39.695c.474 0 .859-.667.859-1.49 0-.822-.385-1.49-.859-1.49s-.858.668-.858 1.49c0 .823.384 1.49.858 1.49z"/><path fill="#fff" d="M40.057 38.156a.343.343 0 1 1-.686 0 .343.343 0 0 1 .686 0z"/><path fill="#FF7B5D" d="M38.775 49.74c-2.734-.378-4.256-2.1-4.256-2.1 1.906-.085 2.894-.738 4.52-.728 1.587.014 1.966.279 1.644.81-.004.011-.014.024-.02.036.015.035.029.074.042.108.24.712-.6 2.059-1.93 1.874z"/><path fill="#EB5000" d="M40.705 47.867c-1.228.63-4.955.44-5.96-.127 1.299.409 5.045.528 5.938-.018-.004.012-.014.025-.02.036l.042.109z" opacity=".3" style="mix-blend-mode:multiply"/><path fill="url(#i)" d="M14.055 52.903c2.15 8.104 10.01 11.496 10.01 11.496l.154-.186.183-.22.489-.586s-1.256-1.85-1.673-4.902a3.687 3.687 0 0 1-.034-.26c-.012-.072-.018-.146-.026-.22a14.34 14.34 0 0 1-.032-.355c-.148-1.902.049-4.192 1.015-6.749v-.003c.055-.143.112-.289.172-.434a17.722 17.722 0 0 1 .764-1.64v-.002c.294-.569.632-1.15 1.012-1.739a36.23 36.23 0 0 1 2.113-2.925c0-.003.003-.003.003-.003.132-.166.263-.329.398-.492 5.808-7.08 12.49-11.047 12.5-26.35 0 0-1.479-.06-4.716.867-.095.026-.189.055-.286.083-1.725.506-3.92 1.284-6.629 2.482-.097.04-.195.083-.292.126-.895.4-1.841.844-2.848 1.336l-.277.137a114.831 114.831 0 0 0-5.214 2.765l-.263.15c-.263.148-.529.302-.798.457a148.759 148.759 0 0 0-4.598 2.76c-.088.056-.177.11-.266.168-.472.295-.952.6-1.438.912.826 5.045-1.573 15.22.577 23.327z"/><path fill="#F48B79" d="M38.46 34.665c-.473 3.585.862 7.38.862 7.38s2.213-.374 2.713.138c.5.513-.986 2.754-.986 2.754s1.843-2.085 1.371-2.842c-.558-.896-2.826-.413-2.826-.413s-1.08-2.619-1.134-7.017z"/><path fill="#FBC0D7" d="M45.852 72h-28.59l4.844-5.405c6.879 4.254 14.654 2.5 18.587.397L45.852 72z"/><path fill="#FBC0D7" d="m28.25 69.632-.93.246s-.169-4.464-1.776-7.117l.764-.85c2.082 2.302 1.942 7.721 1.942 7.721zM38.121 64.26c-.077 1.572-.66 4.783-.66 4.783l-.833.15s.62-3.473.226-6.275l1.267 1.341z"/><g opacity=".3" style="mix-blend-mode:screen"><path fill="#FFCB3A" d="M29.473 20.766c-.097.04-.194.083-.292.125-.046 5.34-1.24 9.912-2.408 14.35-1.246 4.75-2.427 9.255-1.939 14.079.078-.16.158-.315.244-.475v-.003c-.37-4.607.772-8.953 1.973-13.526 1.178-4.493 2.393-9.123 2.422-14.55z" style="mix-blend-mode:screen"/><path fill="#FFCB3A" d="M24.314 50.483c-.96-3.643-.134-8.533.732-13.67.818-4.844 1.662-9.825 1.287-14.586l-.277.137c.349 4.693-.484 9.617-1.29 14.401-.9 5.34-1.759 10.415-.623 14.153.054-.143.111-.289.171-.435zM23.218 58.505a3.758 3.758 0 0 1-.035-.26c-.011-.072-.017-.146-.025-.22-.012-.118-.023-.235-.032-.355-3.397-4.93-2.88-9.846-2.23-16.012.497-4.736 1.06-10.055-.055-16.53-.085.05-.174.101-.263.15 1.084 6.391.53 11.656.035 16.351-.627 5.952-1.136 10.756 1.844 15.549-3.389-4.542-2.988-11.19-2.574-18.182.26-4.407.532-8.951-.103-13.26a6.46 6.46 0 0 0-.266.154c.61 4.246.344 8.736.083 13.088-.457 7.662-.89 14.92 3.62 19.527z" style="mix-blend-mode:screen"/><path fill="#FFCB3A" d="M17.156 54.733c-2.081-4.587-1.924-8.65-1.727-13.795.137-3.535.289-7.496-.246-12.443l-.266.169c.51 4.864.36 8.77.226 12.265-.2 5.182-.357 9.274 1.753 13.921 2.188 4.825 5.225 7.77 7.324 9.363l.183-.22c-2.068-1.568-5.076-4.476-7.247-9.26zM36.102 18.283c-.066 8.37-2.848 14.098-5.102 18.748-1.258 2.591-2.365 4.876-2.794 7.144.132-.166.263-.329.398-.492.483-2.056 1.507-4.164 2.654-6.529 2.276-4.69 5.081-10.475 5.13-18.954-.095.026-.189.055-.286.083z" style="mix-blend-mode:screen"/></g></g><path fill="#131420" d="M81.356 23.803c0-.176-.028-.332-.083-.469a.914.914 0 0 0-.275-.375 2.269 2.269 0 0 0-.563-.328 7.461 7.461 0 0 0-.913-.334 10.134 10.134 0 0 1-1.126-.416 4.282 4.282 0 0 1-.89-.54 2.305 2.305 0 0 1-.592-.708c-.14-.27-.21-.58-.21-.932 0-.348.071-.664.216-.949.148-.285.357-.531.627-.738.273-.211.596-.373.967-.487a4.074 4.074 0 0 1 1.23-.175c.633 0 1.178.117 1.635.351.46.235.814.549 1.06.944.25.394.376.83.376 1.306h-1.46c0-.281-.06-.53-.181-.744a1.23 1.23 0 0 0-.54-.516c-.237-.125-.54-.187-.907-.187-.348 0-.637.053-.868.158-.23.105-.402.248-.515.428-.113.18-.17.383-.17.61 0 .16.037.306.111.439.074.129.188.25.34.363.152.11.344.213.574.31.23.098.502.192.815.282.472.14.884.297 1.236.468.352.168.644.36.879.575.234.215.41.459.527.732.117.27.176.576.176.92 0 .36-.072.684-.217.973-.144.285-.351.529-.62.732-.267.2-.587.354-.962.463a4.539 4.539 0 0 1-1.242.158c-.41 0-.814-.055-1.213-.164a3.577 3.577 0 0 1-1.078-.498 2.574 2.574 0 0 1-.773-.844c-.192-.34-.288-.736-.288-1.19h1.471c0 .278.047.515.14.71.098.195.233.355.405.48.172.121.371.211.598.27.23.058.476.088.738.088.344 0 .63-.05.861-.147.235-.097.41-.234.528-.41.117-.176.175-.379.175-.61zM85.386 17v9h-1.405v-9h1.406zm-.245 5.596-.457-.006c.004-.438.064-.842.181-1.213a3.11 3.11 0 0 1 .504-.967 2.242 2.242 0 0 1 1.799-.867c.313 0 .594.043.844.129.254.086.472.224.656.416.184.187.322.433.416.738.098.301.147.668.147 1.102V26h-1.418v-4.084c0-.305-.045-.547-.135-.727a.782.782 0 0 0-.381-.386 1.394 1.394 0 0 0-.615-.123c-.254 0-.479.05-.674.152-.192.102-.352.24-.48.416a1.92 1.92 0 0 0-.294.61c-.062.23-.093.476-.093.738zm9.093 2.133v-3.024c0-.226-.04-.422-.123-.586a.861.861 0 0 0-.375-.38 1.282 1.282 0 0 0-.62-.136c-.231 0-.43.04-.598.118a.966.966 0 0 0-.393.316.763.763 0 0 0-.14.451h-1.407c0-.25.06-.492.182-.726.12-.235.297-.444.527-.627.23-.184.506-.328.826-.434.32-.105.68-.158 1.078-.158.477 0 .899.08 1.266.24.371.16.662.402.873.727.215.32.322.722.322 1.207v2.818c0 .29.02.549.059.78.043.226.103.423.182.591V26h-1.448a2.503 2.503 0 0 1-.158-.58 4.744 4.744 0 0 1-.053-.692zm.206-2.584.011.873h-1.013c-.262 0-.493.025-.692.076-.2.047-.365.117-.498.21a.915.915 0 0 0-.398.792c0 .168.039.322.117.463a.822.822 0 0 0 .34.322c.152.078.336.117.55.117.29 0 .541-.059.756-.176.219-.12.39-.267.516-.44.125-.175.191-.341.2-.497l.456.627c-.047.16-.127.332-.24.515-.113.184-.262.36-.445.528a2.215 2.215 0 0 1-1.518.563c-.414 0-.783-.083-1.107-.247a1.97 1.97 0 0 1-.762-.674 1.747 1.747 0 0 1-.275-.966c0-.337.062-.633.187-.891.129-.262.316-.48.563-.656.25-.176.554-.309.914-.399.359-.094.77-.14 1.23-.14h1.108zm4.107-1.278V26h-1.412v-6.34h1.347l.065 1.207zm1.939-1.248-.011 1.313a3.658 3.658 0 0 0-.575-.047 1.78 1.78 0 0 0-.638.105 1.204 1.204 0 0 0-.744.75c-.067.18-.106.381-.118.604l-.322.023c0-.398.04-.767.117-1.107.078-.34.196-.639.352-.897.16-.258.36-.459.597-.603.243-.145.522-.217.838-.217a1.76 1.76 0 0 1 .504.076zm.463 3.281v-.134c0-.457.067-.881.199-1.272.133-.394.325-.736.575-1.025.254-.293.562-.52.925-.68a3.02 3.02 0 0 1 1.243-.246c.464 0 .879.082 1.242.246.367.16.678.387.931.68.254.289.448.63.581 1.025.132.39.199.815.199 1.272v.134c0 .457-.067.881-.199 1.272-.133.39-.327.732-.581 1.025a2.68 2.68 0 0 1-.925.68c-.364.16-.776.24-1.237.24-.464 0-.881-.08-1.248-.24a2.68 2.68 0 0 1-.925-.68 3.046 3.046 0 0 1-.581-1.025 3.949 3.949 0 0 1-.199-1.272zm1.412-.134v.134c0 .286.03.555.088.809.059.254.151.477.276.668.125.191.285.342.48.451.195.11.428.164.697.164.262 0 .489-.055.68-.164.195-.11.356-.26.48-.451.126-.191.217-.414.276-.668a3.4 3.4 0 0 0 .094-.809v-.134a3.3 3.3 0 0 0-.094-.797 2.053 2.053 0 0 0-.281-.674 1.349 1.349 0 0 0-.481-.457 1.32 1.32 0 0 0-.685-.17c-.266 0-.496.057-.692.17-.191.11-.349.262-.474.457s-.217.42-.276.674c-.058.25-.088.515-.088.797zm7.067-1.752V26h-1.412v-6.34h1.33l.082 1.354zm-.252 1.582-.457-.006a4.13 4.13 0 0 1 .187-1.236 3.04 3.04 0 0 1 .516-.967c.223-.27.488-.477.797-.621a2.345 2.345 0 0 1 1.031-.223c.305 0 .58.043.826.129.25.082.463.217.639.404.18.188.316.432.41.733.094.296.141.662.141 1.095V26h-1.418v-4.102c0-.304-.045-.544-.135-.72a.754.754 0 0 0-.381-.381 1.428 1.428 0 0 0-.615-.117 1.371 1.371 0 0 0-1.137.568 2.03 2.03 0 0 0-.299.61c-.07.23-.105.476-.105.738z"/><path fill="#F0F5F9" d="M266 32H84a8 8 0 0 0-8 8v64a8 8 0 0 0 8 8h182a8 8 0 0 0 8-8V40a8 8 0 0 0-8-8z"/><path fill="#32375E" d="m87.383 47.469 2.215 4.283 2.22-4.283h1.284l-2.942 5.343V56h-1.13v-3.188l-2.942-5.343h1.295zm8.894 8.648c-.441 0-.841-.074-1.2-.222a2.724 2.724 0 0 1-.92-.64 2.841 2.841 0 0 1-.587-.972 3.568 3.568 0 0 1-.205-1.23v-.246c0-.516.076-.975.229-1.377.152-.407.36-.75.62-1.032.263-.28.56-.494.892-.638a2.557 2.557 0 0 1 1.03-.217c.454 0 .845.078 1.173.234.332.157.603.375.814.657.211.277.367.605.469.984.101.375.152.785.152 1.23v.487H94.01v-.885h3.65v-.082a2.707 2.707 0 0 0-.176-.82 1.475 1.475 0 0 0-.468-.657c-.215-.172-.508-.257-.88-.257a1.475 1.475 0 0 0-1.212.615 2.304 2.304 0 0 0-.346.744c-.082.293-.123.63-.123 1.014v.246c0 .3.041.584.123.85.086.261.21.492.37.69.163.2.36.356.591.47.234.113.5.17.797.17.383 0 .707-.079.973-.235a2.41 2.41 0 0 0 .697-.627l.656.522c-.137.207-.31.404-.521.591-.211.188-.471.34-.78.457a3.017 3.017 0 0 1-1.084.176zm7.471-1.201v-3.264c0-.25-.051-.467-.152-.65a.996.996 0 0 0-.446-.434c-.199-.101-.445-.152-.738-.152-.273 0-.514.047-.721.14a1.253 1.253 0 0 0-.48.37.81.81 0 0 0-.17.492h-1.084c0-.227.059-.451.176-.674.117-.222.285-.424.504-.603.222-.184.488-.328.797-.434a3.14 3.14 0 0 1 1.043-.164c.461 0 .867.078 1.218.234.356.157.633.393.832.71.203.312.305.704.305 1.177v2.953c0 .211.018.436.053.674.039.238.095.443.17.615V56h-1.131a2 2 0 0 1-.129-.498 4.054 4.054 0 0 1-.047-.586zm.188-2.76.011.762h-1.095c-.309 0-.584.025-.827.076a1.89 1.89 0 0 0-.609.217.978.978 0 0 0-.504.879c0 .2.045.38.135.545.09.164.224.295.404.392.184.094.408.141.674.141a1.822 1.822 0 0 0 1.482-.727c.153-.203.235-.4.247-.591l.462.521a1.566 1.566 0 0 1-.222.545c-.121.2-.283.39-.487.574-.199.18-.437.33-.714.451a2.33 2.33 0 0 1-.926.176c-.43 0-.807-.084-1.131-.252a1.937 1.937 0 0 1-.75-.674 1.784 1.784 0 0 1-.264-.955c0-.34.067-.638.199-.896.133-.262.325-.479.575-.65.25-.176.55-.31.902-.399.352-.09.744-.135 1.178-.135h1.26zM107.621 47v9h-1.084v-9h1.084zm-.258 5.59-.451-.018c.004-.433.068-.834.193-1.2a2.99 2.99 0 0 1 .528-.968 2.347 2.347 0 0 1 1.857-.861c.313 0 .594.043.844.129.25.082.463.215.639.398.179.184.316.422.41.715.094.29.14.643.14 1.06V56h-1.089v-4.166c0-.332-.049-.598-.147-.797a.9.9 0 0 0-.428-.44 1.533 1.533 0 0 0-.691-.14 1.6 1.6 0 0 0-.738.17c-.219.113-.409.27-.569.469-.156.199-.279.427-.369.685a2.504 2.504 0 0 0-.129.809zm6.768 2.12v.874c0 .355-.09.73-.27 1.125-.179.398-.431.73-.756.996l-.615-.428c.125-.172.231-.347.317-.527.086-.176.15-.36.193-.55a2.45 2.45 0 0 0 .07-.598v-.891h1.061zm5.443-7.71v9h-1.084v-9h1.084zm-.258 5.59-.451-.018c.004-.433.069-.834.194-1.2.125-.372.3-.694.527-.968a2.34 2.34 0 0 1 .809-.633 2.383 2.383 0 0 1 1.048-.228c.313 0 .594.043.844.129.25.082.463.215.639.398.179.184.316.422.41.715.094.29.141.643.141 1.06V56h-1.09v-4.166c0-.332-.049-.598-.147-.797a.896.896 0 0 0-.428-.44 1.53 1.53 0 0 0-.691-.14c-.269 0-.516.057-.738.17-.219.113-.408.27-.569.469-.156.199-.279.427-.369.685a2.504 2.504 0 0 0-.129.809zm6.961-2.93V56h-1.089v-6.34h1.089zm-1.172-1.681c0-.176.053-.325.159-.446.109-.12.269-.181.48-.181.207 0 .365.06.475.181.113.121.17.27.17.445a.614.614 0 0 1-.17.434c-.11.117-.268.176-.475.176-.211 0-.371-.059-.48-.176a.636.636 0 0 1-.159-.434zm2.93 7.447c0-.184.057-.338.17-.463.117-.129.285-.194.504-.194.219 0 .385.065.498.194.117.125.176.28.176.463 0 .18-.059.332-.176.457-.113.125-.279.187-.498.187-.219 0-.387-.062-.504-.187a.657.657 0 0 1-.17-.457zm11.168-7.957h1.125v5.771c0 .64-.142 1.174-.428 1.6a2.672 2.672 0 0 1-1.136.96c-.469.212-.979.317-1.53.317a3.785 3.785 0 0 1-1.57-.316 2.566 2.566 0 0 1-1.107-.961c-.27-.426-.405-.96-.405-1.6V47.47h1.119v5.771c0 .445.083.813.247 1.102.164.289.392.504.685.644.297.141.641.211 1.031.211.395 0 .739-.07 1.032-.21.296-.141.527-.356.691-.645.164-.29.246-.657.246-1.102V47.47zM146 47v9h-1.084v-9H146zm-.258 5.59-.451-.018c.004-.433.068-.834.193-1.2a2.99 2.99 0 0 1 .528-.968 2.347 2.347 0 0 1 1.857-.861c.313 0 .594.043.844.129.25.082.463.215.639.398.179.184.316.422.41.715.093.29.14.643.14 1.06V56h-1.09v-4.166c0-.332-.048-.598-.146-.797a.9.9 0 0 0-.428-.44 1.533 1.533 0 0 0-.691-.14 1.6 1.6 0 0 0-.738.17c-.219.113-.409.27-.569.469-.156.199-.279.427-.369.685a2.504 2.504 0 0 0-.129.809zm9.522 2.326v-3.264c0-.25-.051-.467-.153-.65a.994.994 0 0 0-.445-.434c-.199-.101-.445-.152-.738-.152-.274 0-.514.047-.721.14a1.253 1.253 0 0 0-.48.37.804.804 0 0 0-.17.492h-1.084c0-.227.058-.451.175-.674.118-.222.286-.424.504-.603a2.53 2.53 0 0 1 .797-.434c.313-.11.66-.164 1.043-.164.461 0 .867.078 1.219.234.355.157.633.393.832.71.203.312.305.704.305 1.177v2.953c0 .211.017.436.052.674.039.238.096.443.17.615V56h-1.131a2.049 2.049 0 0 1-.128-.498 3.917 3.917 0 0 1-.047-.586zm.187-2.76.012.762h-1.096c-.308 0-.584.025-.826.076a1.89 1.89 0 0 0-.609.217.978.978 0 0 0-.504.879c0 .2.045.38.134.545.09.164.225.295.405.392.183.094.408.141.674.141.332 0 .625-.07.879-.211.253-.14.455-.313.603-.516.152-.203.234-.4.246-.591l.463.521a1.57 1.57 0 0 1-.223.545 2.605 2.605 0 0 1-1.201 1.025 2.327 2.327 0 0 1-.926.176c-.429 0-.806-.084-1.13-.252a1.923 1.923 0 0 1-.75-.674 1.782 1.782 0 0 1-.264-.955c0-.34.066-.638.199-.896.133-.262.324-.479.574-.65.25-.176.551-.31.903-.399.351-.09.744-.135 1.177-.135h1.26zm4.436 2.866 1.734-5.362h1.108l-2.28 6.34h-.726l.164-.978zm-1.448-5.362 1.788 5.39.123.95h-.727l-2.297-6.34h1.113zm7.881 6.457a3.12 3.12 0 0 1-1.201-.222 2.73 2.73 0 0 1-.92-.64 2.845 2.845 0 0 1-.586-.972 3.585 3.585 0 0 1-.205-1.23v-.246c0-.516.076-.975.229-1.377a3.07 3.07 0 0 1 .621-1.032c.262-.28.558-.494.89-.638a2.559 2.559 0 0 1 1.032-.217c.453 0 .843.078 1.172.234.332.157.603.375.814.657.211.277.367.605.469.984.101.375.152.785.152 1.23v.487h-4.734v-.885h3.65v-.082a2.672 2.672 0 0 0-.176-.82 1.475 1.475 0 0 0-.468-.657c-.215-.172-.508-.257-.879-.257a1.477 1.477 0 0 0-1.213.615 2.29 2.29 0 0 0-.346.744c-.082.293-.123.63-.123 1.014v.246c0 .3.041.584.123.85.086.261.209.492.369.69.164.2.362.356.592.47.234.113.5.17.797.17.383 0 .707-.079.973-.235.265-.156.498-.365.697-.627l.656.522c-.137.207-.31.404-.521.591-.211.188-.471.34-.78.457-.304.118-.666.176-1.084.176zm10.401-1.799c0-.156-.035-.3-.106-.433-.066-.137-.205-.26-.416-.37-.207-.113-.519-.21-.937-.292a7.422 7.422 0 0 1-.955-.264 2.881 2.881 0 0 1-.721-.37 1.546 1.546 0 0 1-.451-.509 1.416 1.416 0 0 1-.158-.685c0-.25.054-.487.164-.71.113-.222.271-.42.474-.591.207-.172.455-.307.744-.404a3.01 3.01 0 0 1 .967-.147c.508 0 .942.09 1.301.27.359.18.635.42.826.72.192.297.287.627.287.99h-1.084a.925.925 0 0 0-.158-.51 1.17 1.17 0 0 0-.451-.415 1.457 1.457 0 0 0-.721-.164c-.301 0-.545.047-.732.14a.941.941 0 0 0-.405.346.87.87 0 0 0-.064.762c.043.09.117.173.223.252.105.074.254.144.445.21.191.067.436.133.732.2.52.117.948.258 1.284.422.336.164.586.365.75.603.164.238.246.528.246.867a1.683 1.683 0 0 1-.674 1.36 2.476 2.476 0 0 1-.774.386c-.296.09-.63.135-1.002.135-.558 0-1.031-.1-1.417-.299-.387-.199-.68-.457-.879-.773-.2-.317-.299-.65-.299-1.002h1.09c.015.297.101.533.257.709.157.172.348.295.575.37.226.07.451.105.673.105.297 0 .545-.04.745-.118.203-.078.357-.185.462-.322a.744.744 0 0 0 .159-.469zm2.22-1.418v-.134c0-.457.067-.881.2-1.272.132-.394.324-.736.574-1.025.25-.293.553-.52.908-.68a2.82 2.82 0 0 1 1.195-.246c.446 0 .846.082 1.202.246.359.16.664.387.914.68.254.289.447.63.58 1.025.132.39.199.815.199 1.272v.134c0 .457-.067.881-.199 1.272-.133.39-.326.732-.58 1.025-.25.29-.553.516-.909.68-.351.16-.75.24-1.195.24-.445 0-.846-.08-1.201-.24a2.715 2.715 0 0 1-.914-.68 3.083 3.083 0 0 1-.574-1.025c-.133-.39-.2-.815-.2-1.272zm1.084-.134v.134c0 .317.037.616.112.897.074.277.185.523.334.738.152.215.341.385.568.51.227.121.49.182.791.182.297 0 .557-.061.779-.182.227-.125.414-.295.563-.51.148-.215.26-.46.334-.738.078-.281.117-.58.117-.897v-.134c0-.313-.039-.608-.117-.885a2.282 2.282 0 0 0-.34-.744 1.615 1.615 0 0 0-.562-.516 1.581 1.581 0 0 0-.786-.187c-.297 0-.558.062-.785.187-.222.125-.41.297-.562.516-.149.215-.26.463-.334.744a3.376 3.376 0 0 0-.112.885zm7.125-1.846V56h-1.089v-6.34h1.031l.058 1.26zm-.222 1.67-.504-.018a4.31 4.31 0 0 1 .17-1.2 2.84 2.84 0 0 1 .486-.968c.215-.273.482-.484.803-.633.32-.152.691-.228 1.113-.228.297 0 .57.043.82.129.25.082.467.213.651.393.183.18.326.41.428.69.101.282.152.622.152 1.02V56h-1.084v-4.172c0-.332-.057-.598-.17-.797a.97.97 0 0 0-.469-.433 1.69 1.69 0 0 0-.715-.141c-.32 0-.588.057-.802.17-.215.113-.387.27-.516.469-.129.199-.223.427-.281.685a3.814 3.814 0 0 0-.082.809zm4.107-.598-.726.223c.003-.348.06-.682.17-1.002.113-.32.275-.606.486-.856a2.3 2.3 0 0 1 .791-.591 2.47 2.47 0 0 1 1.072-.223c.34 0 .641.045.902.135.266.09.489.228.668.416.184.183.323.42.416.709.094.289.141.633.141 1.031V56h-1.09v-4.178c0-.355-.056-.63-.17-.826a.883.883 0 0 0-.468-.416 1.877 1.877 0 0 0-.715-.123c-.239 0-.45.041-.633.123a1.305 1.305 0 0 0-.463.34c-.125.14-.221.303-.287.486a1.793 1.793 0 0 0-.094.586zm8.192 4.125c-.442 0-.842-.074-1.202-.222a2.73 2.73 0 0 1-.92-.64 2.842 2.842 0 0 1-.585-.972 3.561 3.561 0 0 1-.206-1.23v-.246c0-.516.077-.975.229-1.377a3.07 3.07 0 0 1 .621-1.032c.262-.28.559-.494.891-.638a2.554 2.554 0 0 1 1.031-.217c.453 0 .844.078 1.172.234.332.157.603.375.814.657.211.277.367.605.469.984.102.375.152.785.152 1.23v.487h-4.734v-.885h3.65v-.082a2.7 2.7 0 0 0-.175-.82 1.477 1.477 0 0 0-.469-.657c-.215-.172-.508-.257-.879-.257a1.477 1.477 0 0 0-1.213.615 2.31 2.31 0 0 0-.346.744c-.082.293-.123.63-.123 1.014v.246c0 .3.041.584.123.85.086.261.209.492.369.69.165.2.362.356.592.47.235.113.5.17.797.17.383 0 .707-.079.973-.235.265-.156.498-.365.697-.627l.656.522c-.136.207-.31.404-.521.591-.211.188-.471.34-.779.457a3.018 3.018 0 0 1-1.084.176zm7.793-5.238v7.559h-1.09V49.66h.996l.094 1.219zm4.271 1.898v.123c0 .461-.055.89-.164 1.284-.109.39-.27.73-.481 1.02-.207.288-.462.513-.767.673-.305.16-.654.24-1.049.24-.402 0-.758-.066-1.066-.199a2.093 2.093 0 0 1-.785-.58 2.962 2.962 0 0 1-.516-.914 5.295 5.295 0 0 1-.258-1.201v-.657c.047-.468.135-.888.264-1.26a3.14 3.14 0 0 1 .51-.949c.214-.265.474-.466.779-.603.304-.14.656-.211 1.054-.211.399 0 .752.078 1.061.234.309.153.568.371.779.657.211.285.369.627.475 1.025.109.394.164.834.164 1.318zm-1.09.123v-.123a3.84 3.84 0 0 0-.099-.89 2.257 2.257 0 0 0-.311-.739 1.48 1.48 0 0 0-.527-.504 1.502 1.502 0 0 0-.768-.187c-.273 0-.512.047-.715.14-.199.094-.369.221-.51.381a2.04 2.04 0 0 0-.345.54c-.086.199-.151.406-.194.62v1.518c.079.274.188.532.329.774.14.238.328.431.562.58.234.144.529.217.885.217.293 0 .545-.061.756-.182a1.53 1.53 0 0 0 .527-.51 2.33 2.33 0 0 0 .311-.738c.066-.281.099-.58.099-.897zm3.557-2.244V56h-1.084v-6.34h1.055l.029.996zm1.98-1.031-.006 1.008a1.547 1.547 0 0 0-.257-.035 2.727 2.727 0 0 0-.27-.012c-.25 0-.471.039-.662.117a1.367 1.367 0 0 0-.486.328c-.133.14-.239.309-.317.504a2.412 2.412 0 0 0-.146.633l-.305.176c0-.383.037-.742.111-1.078.079-.336.198-.633.358-.891a1.75 1.75 0 0 1 .609-.61 1.714 1.714 0 0 1 1.16-.193.796.796 0 0 1 .211.053zm.598 3.275v-.134c0-.457.066-.881.199-1.272.133-.394.324-.736.574-1.025.25-.293.553-.52.909-.68a2.814 2.814 0 0 1 1.195-.246c.445 0 .846.082 1.201.246.359.16.664.387.914.68.254.289.447.63.58 1.025.133.39.199.815.199 1.272v.134c0 .457-.066.881-.199 1.272-.133.39-.326.732-.58 1.025-.25.29-.553.516-.908.68-.352.16-.75.24-1.195.24-.446 0-.846-.08-1.202-.24a2.725 2.725 0 0 1-.914-.68 3.1 3.1 0 0 1-.574-1.025 3.922 3.922 0 0 1-.199-1.272zm1.084-.134v.134c0 .317.037.616.111.897.074.277.186.523.334.738.153.215.342.385.569.51.226.121.49.182.791.182.296 0 .556-.061.779-.182.226-.125.414-.295.562-.51.149-.215.26-.46.334-.738.079-.281.118-.58.118-.897v-.134c0-.313-.039-.608-.118-.885a2.28 2.28 0 0 0-.339-.744 1.618 1.618 0 0 0-.563-.516 1.578 1.578 0 0 0-.785-.187c-.297 0-.559.062-.785.187a1.69 1.69 0 0 0-.563.516c-.148.215-.26.463-.334.744a3.419 3.419 0 0 0-.111.885zM223.461 47h1.09v7.77l-.094 1.23h-.996v-9zm5.373 5.777v.123c0 .461-.055.89-.164 1.284-.109.39-.27.73-.481 1.02-.21.288-.468.513-.773.673-.305.16-.654.24-1.049.24-.402 0-.756-.068-1.06-.205a2.083 2.083 0 0 1-.762-.603 3.12 3.12 0 0 1-.498-.95 5.996 5.996 0 0 1-.252-1.254v-.539c.047-.468.131-.888.252-1.26a3.12 3.12 0 0 1 .498-.949c.207-.265.461-.466.762-.603.3-.14.65-.211 1.048-.211.399 0 .752.078 1.061.234.309.153.566.371.773.657.211.285.372.627.481 1.025.109.394.164.834.164 1.318zm-1.09.123v-.123c0-.316-.029-.613-.088-.89a2.292 2.292 0 0 0-.281-.739 1.402 1.402 0 0 0-.51-.504c-.211-.124-.47-.187-.779-.187a1.69 1.69 0 0 0-.715.14c-.199.094-.369.221-.51.381-.14.157-.256.337-.345.54-.086.199-.151.406-.194.62v1.413c.063.273.164.537.305.79.144.25.336.456.574.616.242.16.541.24.897.24a1.5 1.5 0 0 0 .75-.175c.211-.122.381-.288.509-.499.133-.21.231-.455.293-.732.063-.277.094-.574.094-.89zm3.639-5.9v9h-1.09v-9h1.09zm4.371 9.117c-.442 0-.842-.074-1.201-.222a2.72 2.72 0 0 1-.92-.64 2.845 2.845 0 0 1-.586-.972 3.56 3.56 0 0 1-.205-1.23v-.246c0-.516.076-.975.228-1.377.153-.407.36-.75.621-1.032.262-.28.559-.494.891-.638a2.557 2.557 0 0 1 1.031-.217c.453 0 .844.078 1.172.234.332.157.604.375.815.657.211.277.367.605.468.984.102.375.153.785.153 1.23v.487h-4.735v-.885h3.651v-.082a2.732 2.732 0 0 0-.176-.82 1.477 1.477 0 0 0-.469-.657c-.215-.172-.508-.257-.879-.257a1.472 1.472 0 0 0-1.213.615 2.31 2.31 0 0 0-.345.744c-.082.293-.123.63-.123 1.014v.246c0 .3.041.584.123.85.086.261.209.492.369.69.164.2.361.356.592.47.234.113.5.17.796.17.383 0 .708-.079.973-.235a2.4 2.4 0 0 0 .697-.627l.657.522a3.044 3.044 0 0 1-.522.591c-.211.188-.471.34-.779.457a3.018 3.018 0 0 1-1.084.176zm4.81-5.197V56h-1.089v-6.34h1.031l.058 1.26zm-.222 1.67-.504-.018a4.31 4.31 0 0 1 .17-1.2 2.84 2.84 0 0 1 .486-.968c.215-.273.483-.484.803-.633.32-.152.691-.228 1.113-.228.297 0 .57.043.82.129.25.082.467.213.651.393.183.18.326.41.428.69.101.282.152.622.152 1.02V56h-1.084v-4.172c0-.332-.057-.598-.17-.797a.97.97 0 0 0-.469-.433 1.69 1.69 0 0 0-.715-.141c-.32 0-.587.057-.802.17-.215.113-.387.27-.516.469-.129.199-.223.427-.281.685a3.814 3.814 0 0 0-.082.809zm4.107-.598-.726.223c.004-.348.06-.682.17-1.002.113-.32.275-.606.486-.856a2.3 2.3 0 0 1 .791-.591 2.47 2.47 0 0 1 1.072-.223c.34 0 .641.045.903.135.265.09.488.228.667.416.184.183.323.42.417.709.093.289.14.633.14 1.031V56h-1.09v-4.178c0-.355-.056-.63-.17-.826a.883.883 0 0 0-.468-.416 1.877 1.877 0 0 0-.715-.123 1.54 1.54 0 0 0-.633.123 1.305 1.305 0 0 0-.463.34c-.125.14-.221.303-.287.486a1.793 1.793 0 0 0-.094.586zm9.252 2.326c0-.156-.035-.3-.105-.433-.067-.137-.205-.26-.416-.37-.207-.113-.52-.21-.938-.292a7.467 7.467 0 0 1-.955-.264 2.916 2.916 0 0 1-.721-.37 1.557 1.557 0 0 1-.451-.509 1.427 1.427 0 0 1-.158-.685c0-.25.055-.487.164-.71a1.9 1.9 0 0 1 .475-.591c.207-.172.455-.307.744-.404.289-.098.611-.147.967-.147.507 0 .941.09 1.3.27.36.18.635.42.827.72.191.297.287.627.287.99h-1.084a.934.934 0 0 0-.158-.51 1.167 1.167 0 0 0-.452-.415 1.453 1.453 0 0 0-.72-.164c-.301 0-.545.047-.733.14a.944.944 0 0 0-.404.346.87.87 0 0 0-.065.762c.043.09.118.173.223.252.106.074.254.144.445.21.192.067.436.133.733.2.519.117.947.258 1.283.422.336.164.586.365.75.603.164.238.246.528.246.867a1.683 1.683 0 0 1-.674 1.36 2.47 2.47 0 0 1-.773.386c-.297.09-.631.135-1.002.135-.559 0-1.031-.1-1.418-.299-.387-.199-.68-.457-.879-.773a1.853 1.853 0 0 1-.299-1.002h1.09c.016.297.102.533.258.709.156.172.348.295.574.37.227.07.451.105.674.105.297 0 .545-.04.744-.118.203-.078.358-.185.463-.322a.75.75 0 0 0 .158-.469zM88.431 74.875l1.63-5.215h.714l-.14 1.037L88.977 76h-.698l.153-1.125zm-1.095-5.215 1.389 5.274.1 1.066h-.733l-1.84-6.34h1.084zm4.998 5.233 1.324-5.233h1.078L92.896 76h-.726l.164-1.107zm-1.4-5.233 1.593 5.127L92.71 76h-.691l-1.706-5.314-.14-1.026h.762zm6.093 0V76h-1.09v-6.34h1.09zm-1.171-1.681c0-.176.052-.325.158-.446.109-.12.27-.181.48-.181.207 0 .365.06.475.181.113.121.17.27.17.445a.613.613 0 0 1-.17.434c-.11.117-.268.176-.475.176-.21 0-.371-.059-.48-.176a.638.638 0 0 1-.158-.434zm5.566 1.681v.832h-3.428v-.832h3.428zm-2.268-1.54h1.084v6.31c0 .214.033.377.1.486.066.11.152.182.258.217.105.035.218.053.34.053.089 0 .183-.008.281-.024.101-.02.178-.035.228-.047l.006.885a2.541 2.541 0 0 1-.34.076 2.577 2.577 0 0 1-.498.041 1.69 1.69 0 0 1-.732-.158 1.178 1.178 0 0 1-.533-.527c-.13-.25-.194-.586-.194-1.008v-6.305zm4.623-1.12v9h-1.084v-9h1.084zm-.257 5.59-.452-.018c.004-.433.069-.834.194-1.2.125-.372.3-.694.527-.968a2.35 2.35 0 0 1 1.857-.861c.313 0 .594.043.844.129.25.082.463.215.639.398.18.184.316.422.41.715.094.29.141.643.141 1.06V76h-1.09v-4.166c0-.332-.049-.598-.147-.797a.898.898 0 0 0-.427-.44 1.537 1.537 0 0 0-.692-.14c-.269 0-.515.057-.738.17a1.76 1.76 0 0 0-.568.469c-.157.199-.28.427-.37.685a2.504 2.504 0 0 0-.128.809zm11.296 2.637c.258 0 .496-.053.715-.159.219-.105.399-.25.539-.433.141-.188.221-.4.241-.639h1.031a1.94 1.94 0 0 1-.381 1.049 2.604 2.604 0 0 1-2.145 1.072c-.476 0-.892-.084-1.248-.252a2.483 2.483 0 0 1-.879-.691 3.093 3.093 0 0 1-.521-1.008 4.263 4.263 0 0 1-.17-1.213v-.246c0-.426.057-.828.17-1.207.117-.383.291-.72.521-1.014.235-.293.528-.523.879-.691.356-.168.772-.252 1.248-.252.496 0 .93.101 1.301.305.371.199.662.472.873.82.215.344.332.734.352 1.172h-1.031a1.566 1.566 0 0 0-.223-.71 1.387 1.387 0 0 0-.516-.503 1.441 1.441 0 0 0-.756-.193c-.332 0-.611.066-.837.199a1.469 1.469 0 0 0-.534.527 2.469 2.469 0 0 0-.281.733 4.006 4.006 0 0 0-.082.814v.246c0 .278.027.55.082.82.055.27.147.514.275.733.133.219.311.394.534.527.226.13.507.194.843.194zm4.829-4.57V76h-1.084v-6.34h1.054l.03.996zm1.98-1.032-.006 1.008a1.573 1.573 0 0 0-.258-.035 2.706 2.706 0 0 0-.269-.012c-.25 0-.471.039-.662.117a1.37 1.37 0 0 0-.487.328 1.59 1.59 0 0 0-.316.504 2.453 2.453 0 0 0-.147.633l-.304.176c0-.383.037-.742.111-1.078a2.91 2.91 0 0 1 .358-.891 1.75 1.75 0 0 1 .609-.61 1.714 1.714 0 0 1 1.16-.193.796.796 0 0 1 .211.053zm3.516 6.492c-.442 0-.842-.074-1.202-.223a2.716 2.716 0 0 1-.919-.638 2.83 2.83 0 0 1-.586-.973 3.56 3.56 0 0 1-.205-1.23v-.246c0-.516.076-.975.228-1.377a3.07 3.07 0 0 1 .621-1.032c.262-.28.559-.494.891-.638a2.557 2.557 0 0 1 1.031-.217c.453 0 .844.078 1.172.234.332.157.603.375.814.657.211.277.368.605.469.984.102.375.152.785.152 1.23v.487h-4.734v-.885h3.65v-.082a2.7 2.7 0 0 0-.175-.82 1.477 1.477 0 0 0-.469-.657c-.215-.172-.508-.257-.879-.257a1.477 1.477 0 0 0-1.213.615 2.31 2.31 0 0 0-.346.744c-.082.293-.123.63-.123 1.014v.246c0 .3.041.584.123.85.086.261.209.491.37.69.164.2.361.356.591.47.235.113.5.17.797.17.383 0 .707-.079.973-.235a2.4 2.4 0 0 0 .697-.627l.656.522c-.136.207-.31.404-.521.591-.211.188-.471.34-.779.457a3.018 3.018 0 0 1-1.084.176zm7.47-1.201v-3.264c0-.25-.05-.466-.152-.65a.999.999 0 0 0-.445-.434 1.619 1.619 0 0 0-.739-.152 1.73 1.73 0 0 0-.72.14 1.256 1.256 0 0 0-.481.37.81.81 0 0 0-.17.492h-1.084c0-.227.059-.451.176-.674.117-.222.285-.424.504-.603a2.52 2.52 0 0 1 .797-.434 3.14 3.14 0 0 1 1.043-.164c.461 0 .867.078 1.219.234.355.157.632.393.832.71.203.312.304.704.304 1.177v2.953c0 .211.018.436.053.674.039.238.096.443.17.615V76h-1.131a2 2 0 0 1-.129-.498 4.054 4.054 0 0 1-.047-.586zm.188-2.76.012.762h-1.096c-.309 0-.584.025-.826.076-.243.047-.446.12-.61.217a.978.978 0 0 0-.504.879c0 .2.045.38.135.545.09.164.225.295.404.392.184.094.409.141.674.141.332 0 .625-.07.879-.211.254-.14.455-.313.604-.516.152-.203.234-.4.246-.591l.463.521a1.59 1.59 0 0 1-.223.545 2.605 2.605 0 0 1-1.201 1.025 2.33 2.33 0 0 1-.926.176c-.43 0-.807-.084-1.131-.252a1.937 1.937 0 0 1-.75-.674 1.781 1.781 0 0 1-.263-.955c0-.34.066-.638.199-.896.133-.262.324-.479.574-.65.25-.176.551-.31.902-.399.352-.09.744-.135 1.178-.135h1.26zm5.256-2.496v.832h-3.428v-.832h3.428zm-2.268-1.54h1.084v6.31c0 .214.033.377.1.486.066.11.152.182.258.217.105.035.218.053.339.053.09 0 .184-.008.282-.024.101-.02.177-.035.228-.047l.006.885a2.541 2.541 0 0 1-.34.076 2.592 2.592 0 0 1-.498.041c-.266 0-.51-.053-.732-.158a1.18 1.18 0 0 1-.534-.527c-.128-.25-.193-.586-.193-1.008v-6.305zm4.717 1.54V76h-1.09v-6.34h1.09zm-1.172-1.681c0-.176.053-.325.158-.446.11-.12.27-.181.481-.181.207 0 .365.06.474.181.114.121.17.27.17.445a.61.61 0 0 1-.17.434c-.109.117-.267.176-.474.176-.211 0-.371-.059-.481-.176a.64.64 0 0 1-.158-.434zm3.996 3.035V76h-1.084v-6.34h1.026l.058 1.354zm-.258 1.576-.451-.018c.004-.433.069-.834.193-1.2a3.01 3.01 0 0 1 .528-.968 2.347 2.347 0 0 1 1.857-.861c.313 0 .594.043.844.129.25.082.463.215.639.398.179.184.316.422.41.715.094.29.14.643.14 1.06V76h-1.089v-4.166c0-.332-.049-.598-.147-.797a.9.9 0 0 0-.428-.44 1.533 1.533 0 0 0-.691-.14 1.6 1.6 0 0 0-.738.17c-.219.113-.408.27-.569.469-.156.199-.279.427-.369.685a2.504 2.504 0 0 0-.129.809zm9.914-2.93h.985v6.205c0 .559-.114 1.035-.34 1.43a2.216 2.216 0 0 1-.949.896c-.403.207-.868.311-1.395.311a3.42 3.42 0 0 1-.773-.105 3.118 3.118 0 0 1-.867-.346 2.156 2.156 0 0 1-.709-.65l.568-.645c.266.32.543.543.832.668.293.125.582.187.867.187.344 0 .641-.064.891-.193s.443-.32.58-.574c.14-.25.211-.559.211-.926v-4.863l.099-1.395zm-4.365 3.24v-.123c0-.484.057-.924.17-1.318.117-.398.283-.74.498-1.025a2.244 2.244 0 0 1 1.834-.891c.399 0 .746.07 1.043.21.301.138.555.339.762.604.211.262.377.579.498.95.121.37.205.79.252 1.26v.539a5.523 5.523 0 0 1-.252 1.253 2.954 2.954 0 0 1-.498.95 2.083 2.083 0 0 1-.762.603 2.528 2.528 0 0 1-1.055.205c-.379 0-.722-.08-1.031-.24a2.348 2.348 0 0 1-.785-.674 3.182 3.182 0 0 1-.504-1.02 4.644 4.644 0 0 1-.17-1.283zm1.084-.123v.123c0 .317.031.614.094.891.066.277.166.522.299.732.136.211.31.377.521.499.211.117.463.175.756.175.359 0 .656-.076.891-.228a1.65 1.65 0 0 0 .556-.604c.141-.25.25-.521.328-.814v-1.412a2.87 2.87 0 0 0-.199-.621 1.907 1.907 0 0 0-.34-.54 1.46 1.46 0 0 0-.509-.38 1.696 1.696 0 0 0-.715-.141c-.297 0-.553.063-.768.188-.211.12-.385.289-.521.503a2.404 2.404 0 0 0-.299.739 4.015 4.015 0 0 0-.094.89zm8.602.123v-.134c0-.457.066-.881.199-1.272.133-.394.324-.736.574-1.025.25-.293.553-.52.908-.68a2.822 2.822 0 0 1 1.196-.246c.445 0 .845.082 1.201.246.359.16.664.387.914.68.254.289.447.63.58 1.025.133.39.199.815.199 1.272v.134c0 .457-.066.881-.199 1.272-.133.39-.326.732-.58 1.025-.25.29-.553.516-.908.68-.352.16-.75.24-1.196.24-.445 0-.845-.08-1.201-.24a2.725 2.725 0 0 1-.914-.68 3.1 3.1 0 0 1-.574-1.025 3.922 3.922 0 0 1-.199-1.272zm1.084-.134v.134c0 .317.037.616.111.897.074.277.186.523.334.738.152.215.342.385.568.51.227.121.491.182.791.182.297 0 .557-.061.78-.182.226-.125.414-.295.562-.51.149-.215.26-.46.334-.738.078-.281.117-.58.117-.897v-.134c0-.313-.039-.608-.117-.885a2.261 2.261 0 0 0-.34-.744 1.615 1.615 0 0 0-.562-.516 1.58 1.58 0 0 0-.785-.187c-.297 0-.559.062-.786.187-.222.125-.41.297-.562.516-.148.215-.26.463-.334.744a3.419 3.419 0 0 0-.111.885zm7.131-2.11V76h-1.084v-6.34h1.054l.03.996zm1.98-1.031-.006 1.008a1.573 1.573 0 0 0-.258-.035 2.706 2.706 0 0 0-.269-.012c-.25 0-.471.039-.662.117a1.37 1.37 0 0 0-.487.328 1.59 1.59 0 0 0-.316.504 2.453 2.453 0 0 0-.147.633l-.304.176c0-.383.037-.742.111-1.078a2.91 2.91 0 0 1 .358-.891 1.75 1.75 0 0 1 .609-.61 1.714 1.714 0 0 1 1.16-.193.796.796 0 0 1 .211.053zm4.881 5.144V67h1.09v9h-.996l-.094-1.23zm-4.266-1.869v-.123c0-.484.059-.924.176-1.318.121-.398.291-.74.51-1.025.222-.286.486-.504.791-.657a2.248 2.248 0 0 1 1.031-.234c.398 0 .746.07 1.043.21.301.138.555.339.762.604.211.262.377.579.498.95.121.37.205.79.252 1.26v.539a5.523 5.523 0 0 1-.252 1.253 2.954 2.954 0 0 1-.498.95 2.083 2.083 0 0 1-.762.603 2.528 2.528 0 0 1-1.055.205c-.371 0-.711-.08-1.019-.24a2.397 2.397 0 0 1-.791-.674 3.276 3.276 0 0 1-.51-1.02 4.496 4.496 0 0 1-.176-1.283zm1.09-.123v.123c0 .317.031.614.094.891.066.277.168.522.305.732.136.211.31.377.521.499.211.117.463.175.756.175.359 0 .654-.076.885-.228.234-.153.422-.354.562-.604.141-.25.25-.521.328-.814v-1.412a3.125 3.125 0 0 0-.205-.621 1.907 1.907 0 0 0-.34-.54 1.46 1.46 0 0 0-.509-.38c-.2-.094-.436-.141-.709-.141-.297 0-.553.063-.768.188-.211.12-.385.289-.521.503a2.316 2.316 0 0 0-.305.739 4.015 4.015 0 0 0-.094.89zm8.584 3.34c-.441 0-.842-.074-1.201-.223a2.72 2.72 0 0 1-.92-.638 2.845 2.845 0 0 1-.586-.973 3.56 3.56 0 0 1-.205-1.23v-.246c0-.516.076-.975.228-1.377.153-.407.36-.75.622-1.032.261-.28.558-.494.89-.638a2.557 2.557 0 0 1 1.031-.217c.454 0 .844.078 1.172.234.332.157.604.375.815.657.211.277.367.605.469.984.101.375.152.785.152 1.23v.487h-4.735v-.885h3.651v-.082a2.701 2.701 0 0 0-.176-.82 1.477 1.477 0 0 0-.469-.657c-.215-.172-.507-.257-.879-.257a1.472 1.472 0 0 0-1.212.615 2.29 2.29 0 0 0-.346.744c-.082.293-.123.63-.123 1.014v.246c0 .3.041.584.123.85.086.261.209.491.369.69.164.2.361.356.592.47.234.113.5.17.797.17.382 0 .707-.079.972-.235.266-.156.498-.365.698-.627l.656.522a3.044 3.044 0 0 1-.522.591c-.211.188-.47.34-.779.457a3.018 3.018 0 0 1-1.084.176zm4.816-5.46V76h-1.084v-6.34h1.055l.029.996zm1.981-1.032-.006 1.008a1.573 1.573 0 0 0-.258-.035 2.706 2.706 0 0 0-.269-.012c-.25 0-.471.039-.662.117a1.37 1.37 0 0 0-.487.328c-.133.14-.238.309-.316.504a2.453 2.453 0 0 0-.147.633l-.304.176c0-.383.037-.742.111-1.078.078-.336.197-.633.357-.891a1.76 1.76 0 0 1 .61-.61 1.713 1.713 0 0 1 1.16-.193.796.796 0 0 1 .211.053zm1.26 5.086v.873c0 .355-.09.73-.27 1.125-.18.398-.431.73-.756.996l-.615-.428a3.29 3.29 0 0 0 .316-.527c.086-.176.151-.36.194-.55a2.45 2.45 0 0 0 .07-.598v-.891h1.061zm6.896.516c.258 0 .496-.053.715-.159.219-.105.398-.25.539-.433a1.2 1.2 0 0 0 .24-.639h1.032a1.94 1.94 0 0 1-.381 1.049 2.604 2.604 0 0 1-2.145 1.072c-.476 0-.892-.084-1.248-.252a2.483 2.483 0 0 1-.879-.691 3.093 3.093 0 0 1-.521-1.008 4.228 4.228 0 0 1-.17-1.213v-.246c0-.426.056-.828.17-1.207.117-.383.291-.72.521-1.014.235-.293.528-.523.879-.691.356-.168.772-.252 1.248-.252.496 0 .93.101 1.301.305.371.199.662.472.873.82.215.344.332.734.352 1.172h-1.032a1.553 1.553 0 0 0-.222-.71 1.387 1.387 0 0 0-.516-.503 1.441 1.441 0 0 0-.756-.193c-.332 0-.611.066-.838.199-.222.129-.4.305-.533.527a2.442 2.442 0 0 0-.281.733 4.006 4.006 0 0 0-.082.814v.246c0 .278.027.55.082.82.055.27.146.514.275.733.133.219.311.394.533.527.227.13.508.194.844.194zm7.483-.311v-3.264c0-.25-.051-.466-.153-.65a.994.994 0 0 0-.445-.434c-.199-.101-.445-.152-.738-.152-.274 0-.514.047-.721.14a1.253 1.253 0 0 0-.48.37.804.804 0 0 0-.17.492h-1.084c0-.227.058-.451.175-.674.118-.222.286-.424.504-.603a2.53 2.53 0 0 1 .797-.434c.313-.11.66-.164 1.043-.164.461 0 .867.078 1.219.234.355.157.633.393.832.71.203.312.305.704.305 1.177v2.953c0 .211.017.436.052.674.039.238.096.443.17.615V76H201.4a2.091 2.091 0 0 1-.129-.498 4.045 4.045 0 0 1-.046-.586zm.187-2.76.012.762h-1.096c-.308 0-.584.025-.826.076a1.89 1.89 0 0 0-.609.217.978.978 0 0 0-.504.879c0 .2.045.38.134.545.09.164.225.295.405.392.183.094.408.141.674.141a1.826 1.826 0 0 0 1.482-.727c.152-.203.234-.4.246-.591l.463.521a1.57 1.57 0 0 1-.223.545 2.605 2.605 0 0 1-1.201 1.025 2.327 2.327 0 0 1-.926.176 2.43 2.43 0 0 1-1.131-.252 1.937 1.937 0 0 1-.75-.674 1.79 1.79 0 0 1-.263-.955c0-.34.066-.638.199-.896.133-.262.324-.479.574-.65.25-.176.551-.31.903-.399.351-.09.744-.135 1.177-.135h1.26zm3.686-1.142V76h-1.084v-6.34h1.025l.059 1.354zm-.258 1.576-.451-.018c.004-.433.068-.834.193-1.2.125-.372.301-.694.527-.968a2.35 2.35 0 0 1 1.858-.861c.312 0 .594.043.844.129.25.082.462.215.638.398.18.184.317.422.41.715.094.29.141.643.141 1.06V76h-1.09v-4.166c0-.332-.049-.598-.146-.797a.905.905 0 0 0-.428-.44 1.536 1.536 0 0 0-.691-.14c-.27 0-.516.057-.739.17a1.77 1.77 0 0 0-.568.469c-.156.199-.279.427-.369.685a2.504 2.504 0 0 0-.129.809zm10.564 2.754 1.764-5.684h1.16l-2.543 7.319a4.027 4.027 0 0 1-.234.503 2.436 2.436 0 0 1-.363.522 1.738 1.738 0 0 1-.54.398 1.621 1.621 0 0 1-.744.159c-.086 0-.195-.012-.328-.036a3.178 3.178 0 0 1-.281-.058l-.006-.88c.031.005.08.009.147.013a1.746 1.746 0 0 0 .773-.088.953.953 0 0 0 .434-.323c.121-.148.224-.353.31-.615l.451-1.23zm-1.295-5.684 1.647 4.922.281 1.143-.779.398-2.332-6.463h1.183zm4.817 3.24v-.134c0-.457.066-.881.199-1.272.133-.394.324-.736.574-1.025.25-.293.553-.52.908-.68a2.822 2.822 0 0 1 1.196-.246c.445 0 .845.082 1.201.246.359.16.664.387.914.68.254.289.447.63.58 1.025.133.39.199.815.199 1.272v.134c0 .457-.066.881-.199 1.272-.133.39-.326.732-.58 1.025-.25.29-.553.516-.908.68-.352.16-.75.24-1.196.24-.445 0-.845-.08-1.201-.24a2.725 2.725 0 0 1-.914-.68 3.1 3.1 0 0 1-.574-1.025 3.922 3.922 0 0 1-.199-1.272zm1.084-.134v.134c0 .317.037.616.111.897.074.277.186.523.334.738.152.215.342.385.568.51.227.121.491.182.791.182.297 0 .557-.061.78-.182.226-.125.414-.295.562-.51.149-.215.26-.46.334-.738.078-.281.117-.58.117-.897v-.134c0-.313-.039-.608-.117-.885a2.261 2.261 0 0 0-.34-.744 1.615 1.615 0 0 0-.562-.516 1.578 1.578 0 0 0-.785-.187c-.297 0-.559.062-.785.187a1.681 1.681 0 0 0-.563.516c-.148.215-.26.463-.334.744a3.419 3.419 0 0 0-.111.885zm9.926 1.77V69.66h1.089V76h-1.037l-.052-1.465zm.205-1.337.451-.011c0 .421-.045.812-.135 1.171a2.524 2.524 0 0 1-.422.926 1.994 1.994 0 0 1-.767.615c-.317.145-.702.217-1.155.217a2.56 2.56 0 0 1-.849-.135 1.702 1.702 0 0 1-.657-.416 1.893 1.893 0 0 1-.427-.732 3.52 3.52 0 0 1-.147-1.084v-4.09h1.084v4.102c0 .285.031.521.094.709.066.183.154.33.264.44.113.105.238.179.375.222.14.043.285.064.433.064.461 0 .826-.088 1.096-.263.269-.18.463-.42.58-.721.121-.305.182-.643.182-1.014zM236.738 67v9h-1.084v-9h1.084zm-.258 5.59-.451-.018c.004-.433.069-.834.194-1.2.125-.372.3-.694.527-.968a2.35 2.35 0 0 1 1.857-.861c.313 0 .594.043.844.129.25.082.463.215.639.398.18.184.316.422.41.715.094.29.141.643.141 1.06V76h-1.09v-4.166c0-.332-.049-.598-.147-.797a.898.898 0 0 0-.427-.44 1.537 1.537 0 0 0-.692-.14c-.269 0-.515.057-.738.17a1.76 1.76 0 0 0-.568.469c-.157.199-.28.427-.37.685a2.504 2.504 0 0 0-.129.809zm8.415 3.527c-.442 0-.842-.074-1.202-.223a2.73 2.73 0 0 1-.92-.638 2.842 2.842 0 0 1-.585-.973 3.561 3.561 0 0 1-.206-1.23v-.246c0-.516.077-.975.229-1.377a3.07 3.07 0 0 1 .621-1.032c.262-.28.559-.494.891-.638a2.554 2.554 0 0 1 1.031-.217c.453 0 .844.078 1.172.234.332.157.603.375.814.657.211.277.367.605.469.984.102.375.152.785.152 1.23v.487h-4.734v-.885h3.65v-.082a2.7 2.7 0 0 0-.175-.82 1.477 1.477 0 0 0-.469-.657c-.215-.172-.508-.257-.879-.257a1.477 1.477 0 0 0-1.213.615 2.31 2.31 0 0 0-.346.744c-.082.293-.123.63-.123 1.014v.246c0 .3.041.584.123.85.086.261.209.491.369.69.165.2.362.356.592.47.235.113.5.17.797.17.383 0 .707-.079.973-.235.265-.156.498-.365.697-.627l.656.522c-.136.207-.31.404-.521.591-.211.188-.471.34-.779.457a3.022 3.022 0 0 1-1.084.176zm4.91-9.117v9h-1.09v-9h1.09zm2.824 3.879v7.558h-1.09V69.66h.996l.094 1.219zm4.271 1.898v.123c0 .461-.054.89-.164 1.284-.109.39-.269.73-.48 1.02-.207.288-.463.513-.768.673-.304.16-.654.24-1.049.24-.402 0-.757-.066-1.066-.199a2.1 2.1 0 0 1-.785-.58 2.962 2.962 0 0 1-.516-.914 5.295 5.295 0 0 1-.258-1.201v-.657c.047-.468.135-.888.264-1.26a3.14 3.14 0 0 1 .51-.949 2.09 2.09 0 0 1 .779-.603c.305-.14.656-.211 1.055-.211.398 0 .752.078 1.06.234.309.153.569.371.78.657.211.285.369.627.474 1.025.11.394.164.834.164 1.318zm-1.089.123v-.123c0-.316-.034-.613-.1-.89a2.236 2.236 0 0 0-.311-.739 1.472 1.472 0 0 0-.527-.504 1.502 1.502 0 0 0-.768-.187c-.273 0-.511.047-.714.14-.2.094-.37.221-.51.382a2.018 2.018 0 0 0-.346.539c-.086.199-.15.406-.193.62v1.518c.078.274.187.531.328.774.141.238.328.431.562.58.235.144.53.217.885.217.293 0 .545-.061.756-.182.215-.125.391-.295.527-.51.141-.215.245-.46.311-.738.066-.281.1-.58.1-.897zM87.904 90.92V96h-1.09v-6.34h1.032l.058 1.26zm-.222 1.67-.504-.018a4.33 4.33 0 0 1 .17-1.2c.109-.372.271-.694.486-.968a2.16 2.16 0 0 1 .803-.632c.32-.153.691-.229 1.113-.229.297 0 .57.043.82.129.25.082.467.213.65.392.184.18.327.41.428.692.102.281.153.621.153 1.02V96h-1.084v-4.172c0-.332-.057-.597-.17-.797a.971.971 0 0 0-.469-.433 1.69 1.69 0 0 0-.715-.141c-.32 0-.588.057-.802.17-.215.113-.387.27-.516.469-.129.199-.223.427-.281.685a3.834 3.834 0 0 0-.082.809zm4.107-.598-.727.223a3.19 3.19 0 0 1 .17-1.002 2.72 2.72 0 0 1 .487-.856c.215-.25.478-.447.79-.591a2.47 2.47 0 0 1 1.073-.223c.34 0 .64.045.902.135.266.09.489.228.668.416.184.183.323.42.416.709.094.289.141.633.141 1.031V96h-1.09v-4.178c0-.355-.056-.63-.17-.826a.885.885 0 0 0-.468-.416 1.873 1.873 0 0 0-.715-.123c-.239 0-.45.041-.633.123a1.308 1.308 0 0 0-.463.34c-.125.14-.22.303-.287.486a1.806 1.806 0 0 0-.094.586zm8.192 4.125c-.442 0-.842-.074-1.202-.223a2.722 2.722 0 0 1-.92-.638 2.843 2.843 0 0 1-.586-.973 3.568 3.568 0 0 1-.205-1.23v-.246c0-.516.076-.975.229-1.377.152-.407.36-.75.621-1.032a2.66 2.66 0 0 1 .89-.638 2.557 2.557 0 0 1 1.032-.217c.453 0 .844.078 1.172.234.332.157.603.375.814.657.211.277.367.605.469.984.101.375.152.785.152 1.23v.487h-4.734v-.885h3.65v-.082a2.7 2.7 0 0 0-.175-.82 1.477 1.477 0 0 0-.469-.657c-.215-.172-.508-.257-.88-.257a1.475 1.475 0 0 0-1.212.615 2.302 2.302 0 0 0-.346.744c-.082.293-.123.63-.123 1.014v.246c0 .3.041.584.123.85.086.261.21.491.37.69.163.2.36.356.591.47.235.113.5.17.797.17.383 0 .707-.079.973-.235.265-.156.498-.365.697-.627l.656.522c-.136.207-.31.404-.521.591-.211.188-.471.34-.78.457-.304.118-.666.176-1.083.176zm6.087-2.52h-1.089c.003-.374.037-.681.099-.92.067-.242.174-.462.322-.661.149-.2.346-.426.592-.68.18-.184.344-.355.492-.516.153-.164.276-.34.37-.527.093-.191.14-.42.14-.686 0-.27-.049-.501-.146-.697a1.008 1.008 0 0 0-.422-.451c-.184-.106-.412-.158-.686-.158-.226 0-.441.04-.644.123a1.109 1.109 0 0 0-.492.38c-.125.169-.19.39-.194.663h-1.084c.008-.442.117-.82.328-1.137.215-.316.504-.558.867-.727.364-.167.77-.251 1.219-.251.496 0 .918.09 1.266.27.351.179.619.437.803.772.183.333.275.727.275 1.184 0 .352-.072.676-.217.973-.14.293-.322.568-.545.826a9.581 9.581 0 0 1-.709.738 1.49 1.49 0 0 0-.433.674c-.075.25-.112.52-.112.809zm-1.136 1.858c0-.176.054-.324.164-.445.109-.121.267-.182.474-.182.211 0 .371.06.481.182.109.12.164.27.164.445a.627.627 0 0 1-.164.434c-.11.12-.27.181-.481.181-.207 0-.365-.06-.474-.181a.622.622 0 0 1-.164-.434z"/><defs><linearGradient id="b" x1="46.929" x2="20.179" y1="52.744" y2="52.744" gradientUnits="userSpaceOnUse"><stop stop-color="#E4941E"/><stop offset="1" stop-color="#D16234"/></linearGradient><radialGradient id="c" cx="0" cy="0" r="1" gradientTransform="translate(38.408 52.863) scale(10.849)" gradientUnits="userSpaceOnUse"><stop stop-color="#E3745F"/><stop offset="1" stop-color="#FFAE8D"/></radialGradient><linearGradient id="d" x1="43.111" x2="37.415" y1="28.051" y2="28.051" gradientUnits="userSpaceOnUse"><stop stop-color="#E4941E"/><stop offset="1" stop-color="#D16234"/></linearGradient><radialGradient id="e" cx="0" cy="0" r="1" gradientTransform="matrix(-9.50572 0 0 -9.5057 35.977 32.234)" gradientUnits="userSpaceOnUse"><stop stop-color="#E3745F"/><stop offset="1" stop-color="#FFAE8D"/></radialGradient><radialGradient id="f" cx="0" cy="0" r="1" gradientTransform="matrix(-7.29031 0 0 -7.29033 34.47 35.22)" gradientUnits="userSpaceOnUse"><stop stop-color="#E3745F"/><stop offset="1" stop-color="#FFAE8D"/></radialGradient><linearGradient id="g" x1="34.993" x2="35.089" y1="38.907" y2="40.326" gradientUnits="userSpaceOnUse"><stop stop-color="#174B80"/><stop offset="1" stop-color="#00BEDD"/></linearGradient><linearGradient id="h" x1="40.257" x2="40.833" y1="36.97" y2="39.06" gradientUnits="userSpaceOnUse"><stop stop-color="#174B80"/><stop offset="1" stop-color="#00BEDD"/></linearGradient><linearGradient id="i" x1="27.047" x2="29.173" y1="30.897" y2="58.904" gradientUnits="userSpaceOnUse"><stop stop-color="#FFCB3A"/><stop offset="1" stop-color="#FFA23C"/></linearGradient></defs></svg>