<svg width="568" height="92" viewBox="0 0 568 92" fill="none" xmlns="http://www.w3.org/2000/svg">
<path d="M416.066 22.1445H413.893L413.881 21.0723H415.779C416.1 21.0723 416.371 21.0254 416.594 20.9316C416.82 20.834 416.992 20.6953 417.109 20.5156C417.227 20.332 417.285 20.1113 417.285 19.8535C417.285 19.5684 417.23 19.3359 417.121 19.1562C417.012 18.9766 416.844 18.8457 416.617 18.7637C416.395 18.6816 416.109 18.6406 415.762 18.6406H414.338V26H412.867V17.4688H415.762C416.23 17.4688 416.648 17.5137 417.016 17.6035C417.387 17.6934 417.701 17.834 417.959 18.0254C418.221 18.2129 418.418 18.4512 418.551 18.7402C418.688 19.0293 418.756 19.373 418.756 19.7715C418.756 20.123 418.672 20.4453 418.504 20.7383C418.336 21.0273 418.088 21.2637 417.76 21.4473C417.432 21.6309 417.023 21.7402 416.535 21.7754L416.066 22.1445ZM416.002 26H413.43L414.092 24.834H416.002C416.334 24.834 416.611 24.7793 416.834 24.6699C417.057 24.5566 417.223 24.4023 417.332 24.207C417.445 24.0078 417.502 23.7754 417.502 23.5098C417.502 23.2324 417.453 22.9922 417.355 22.7891C417.258 22.582 417.104 22.4238 416.893 22.3145C416.682 22.2012 416.406 22.1445 416.066 22.1445H414.414L414.426 21.0723H416.576L416.91 21.4766C417.379 21.4922 417.764 21.5957 418.064 21.7871C418.369 21.9785 418.596 22.2266 418.744 22.5312C418.893 22.8359 418.967 23.1641 418.967 23.5156C418.967 24.0586 418.848 24.5137 418.609 24.8809C418.375 25.248 418.037 25.5273 417.596 25.7188C417.154 25.9062 416.623 26 416.002 26ZM421.82 19.6602V26H420.402V19.6602H421.82ZM420.309 17.9961C420.309 17.7812 420.379 17.6035 420.52 17.4629C420.664 17.3184 420.863 17.2461 421.117 17.2461C421.367 17.2461 421.564 17.3184 421.709 17.4629C421.854 17.6035 421.926 17.7812 421.926 17.9961C421.926 18.207 421.854 18.3828 421.709 18.5234C421.564 18.6641 421.367 18.7344 421.117 18.7344C420.863 18.7344 420.664 18.6641 420.52 18.5234C420.379 18.3828 420.309 18.207 420.309 17.9961ZM424.879 17V26H423.461V17H424.879ZM427.938 17V26H426.52V17H427.938ZM430.996 19.6602V26H429.578V19.6602H430.996ZM429.484 17.9961C429.484 17.7812 429.555 17.6035 429.695 17.4629C429.84 17.3184 430.039 17.2461 430.293 17.2461C430.543 17.2461 430.74 17.3184 430.885 17.4629C431.029 17.6035 431.102 17.7812 431.102 17.9961C431.102 18.207 431.029 18.3828 430.885 18.5234C430.74 18.6641 430.543 18.7344 430.293 18.7344C430.039 18.7344 429.84 18.6641 429.695 18.5234C429.555 18.3828 429.484 18.207 429.484 17.9961ZM433.943 21.0137V26H432.531V19.6602H433.861L433.943 21.0137ZM433.691 22.5957L433.234 22.5898C433.238 22.1406 433.301 21.7285 433.422 21.3535C433.547 20.9785 433.719 20.6562 433.938 20.3867C434.16 20.1172 434.426 19.9102 434.734 19.7656C435.043 19.6172 435.387 19.543 435.766 19.543C436.07 19.543 436.346 19.5859 436.592 19.6719C436.842 19.7539 437.055 19.8887 437.23 20.0762C437.41 20.2637 437.547 20.5078 437.641 20.8086C437.734 21.1055 437.781 21.4707 437.781 21.9043V26H436.363V21.8984C436.363 21.5938 436.318 21.3535 436.229 21.1777C436.143 20.998 436.016 20.8711 435.848 20.7969C435.684 20.7188 435.479 20.6797 435.232 20.6797C434.99 20.6797 434.773 20.7305 434.582 20.832C434.391 20.9336 434.229 21.0723 434.096 21.248C433.967 21.4238 433.867 21.627 433.797 21.8574C433.727 22.0879 433.691 22.334 433.691 22.5957ZM443.283 19.6602H444.566V25.8242C444.566 26.3945 444.445 26.8789 444.203 27.2773C443.961 27.6758 443.623 27.9785 443.189 28.1855C442.756 28.3965 442.254 28.502 441.684 28.502C441.441 28.502 441.172 28.4668 440.875 28.3965C440.582 28.3262 440.297 28.2129 440.02 28.0566C439.746 27.9043 439.518 27.7031 439.334 27.4531L439.996 26.6211C440.223 26.8906 440.473 27.0879 440.746 27.2129C441.02 27.3379 441.307 27.4004 441.607 27.4004C441.932 27.4004 442.207 27.3398 442.434 27.2188C442.664 27.1016 442.842 26.9277 442.967 26.6973C443.092 26.4668 443.154 26.1855 443.154 25.8535V21.0957L443.283 19.6602ZM438.977 22.9004V22.7773C438.977 22.2969 439.035 21.8594 439.152 21.4648C439.27 21.0664 439.438 20.7246 439.656 20.4395C439.875 20.1504 440.141 19.9297 440.453 19.7773C440.766 19.6211 441.119 19.543 441.514 19.543C441.924 19.543 442.273 19.6172 442.562 19.7656C442.855 19.9141 443.1 20.127 443.295 20.4043C443.49 20.6777 443.643 21.0059 443.752 21.3887C443.865 21.7676 443.949 22.1895 444.004 22.6543V23.0469C443.953 23.5 443.867 23.9141 443.746 24.2891C443.625 24.6641 443.465 24.9883 443.266 25.2617C443.066 25.5352 442.82 25.7461 442.527 25.8945C442.238 26.043 441.896 26.1172 441.502 26.1172C441.115 26.1172 440.766 26.0371 440.453 25.877C440.145 25.7168 439.879 25.4922 439.656 25.2031C439.438 24.9141 439.27 24.5742 439.152 24.1836C439.035 23.7891 438.977 23.3613 438.977 22.9004ZM440.389 22.7773V22.9004C440.389 23.1895 440.416 23.459 440.471 23.709C440.529 23.959 440.617 24.1797 440.734 24.3711C440.855 24.5586 441.008 24.707 441.191 24.8164C441.379 24.9219 441.6 24.9746 441.854 24.9746C442.186 24.9746 442.457 24.9043 442.668 24.7637C442.883 24.623 443.047 24.4336 443.16 24.1953C443.277 23.9531 443.359 23.6836 443.406 23.3867V22.3262C443.383 22.0957 443.334 21.8809 443.26 21.6816C443.189 21.4824 443.094 21.3086 442.973 21.1602C442.852 21.0078 442.699 20.8906 442.516 20.8086C442.332 20.7227 442.115 20.6797 441.865 20.6797C441.611 20.6797 441.391 20.7344 441.203 20.8438C441.016 20.9531 440.861 21.1035 440.74 21.2949C440.623 21.4863 440.535 21.709 440.477 21.9629C440.418 22.2168 440.389 22.4883 440.389 22.7773ZM453.648 23.8027C453.648 23.627 453.621 23.4707 453.566 23.334C453.516 23.1973 453.424 23.0723 453.291 22.959C453.158 22.8457 452.971 22.7363 452.729 22.6309C452.49 22.5215 452.186 22.4102 451.814 22.2969C451.408 22.1719 451.033 22.0332 450.689 21.8809C450.35 21.7246 450.053 21.5449 449.799 21.3418C449.545 21.1348 449.348 20.8984 449.207 20.6328C449.066 20.3633 448.996 20.0527 448.996 19.7012C448.996 19.3535 449.068 19.0371 449.213 18.752C449.361 18.4668 449.57 18.2207 449.84 18.0137C450.113 17.8027 450.436 17.6406 450.807 17.5273C451.178 17.4102 451.588 17.3516 452.037 17.3516C452.67 17.3516 453.215 17.4688 453.672 17.7031C454.133 17.9375 454.486 18.252 454.732 18.6465C454.982 19.041 455.107 19.4766 455.107 19.9531H453.648C453.648 19.6719 453.588 19.4238 453.467 19.209C453.35 18.9902 453.17 18.8184 452.928 18.6934C452.689 18.5684 452.387 18.5059 452.02 18.5059C451.672 18.5059 451.383 18.5586 451.152 18.6641C450.922 18.7695 450.75 18.9121 450.637 19.0918C450.523 19.2715 450.467 19.4746 450.467 19.7012C450.467 19.8613 450.504 20.0078 450.578 20.1406C450.652 20.2695 450.766 20.3906 450.918 20.5039C451.07 20.6133 451.262 20.7168 451.492 20.8145C451.723 20.9121 451.994 21.0059 452.307 21.0957C452.779 21.2363 453.191 21.3926 453.543 21.5645C453.895 21.7324 454.188 21.9238 454.422 22.1387C454.656 22.3535 454.832 22.5977 454.949 22.8711C455.066 23.1406 455.125 23.4473 455.125 23.791C455.125 24.1504 455.053 24.4746 454.908 24.7637C454.764 25.0488 454.557 25.293 454.287 25.4961C454.021 25.6953 453.701 25.8496 453.326 25.959C452.955 26.0645 452.541 26.1172 452.084 26.1172C451.674 26.1172 451.27 26.0625 450.871 25.9531C450.477 25.8438 450.117 25.6777 449.793 25.4551C449.469 25.2285 449.211 24.9473 449.02 24.6113C448.828 24.2715 448.732 23.875 448.732 23.4219H450.203C450.203 23.6992 450.25 23.9355 450.344 24.1309C450.441 24.3262 450.576 24.4863 450.748 24.6113C450.92 24.7324 451.119 24.8223 451.346 24.8809C451.576 24.9395 451.822 24.9688 452.084 24.9688C452.428 24.9688 452.715 24.9199 452.945 24.8223C453.18 24.7246 453.355 24.5879 453.473 24.4121C453.59 24.2363 453.648 24.0332 453.648 23.8027ZM460.1 24.5059V19.6602H461.518V26H460.182L460.1 24.5059ZM460.299 23.1875L460.773 23.1758C460.773 23.6016 460.727 23.9941 460.633 24.3535C460.539 24.709 460.395 25.0195 460.199 25.2852C460.004 25.5469 459.754 25.752 459.449 25.9004C459.145 26.0449 458.779 26.1172 458.354 26.1172C458.045 26.1172 457.762 26.0723 457.504 25.9824C457.246 25.8926 457.023 25.7539 456.836 25.5664C456.652 25.3789 456.51 25.1348 456.408 24.834C456.307 24.5332 456.256 24.1738 456.256 23.7559V19.6602H457.668V23.7676C457.668 23.998 457.695 24.1914 457.75 24.3477C457.805 24.5 457.879 24.623 457.973 24.7168C458.066 24.8105 458.176 24.877 458.301 24.916C458.426 24.9551 458.559 24.9746 458.699 24.9746C459.102 24.9746 459.418 24.8965 459.648 24.7402C459.883 24.5801 460.049 24.3652 460.146 24.0957C460.248 23.8262 460.299 23.5234 460.299 23.1875ZM464.383 20.8789V28.4375H462.971V19.6602H464.271L464.383 20.8789ZM468.514 22.7715V22.8945C468.514 23.3555 468.459 23.7832 468.35 24.1777C468.244 24.5684 468.086 24.9102 467.875 25.2031C467.668 25.4922 467.412 25.7168 467.107 25.877C466.803 26.0371 466.451 26.1172 466.053 26.1172C465.658 26.1172 465.312 26.0449 465.016 25.9004C464.723 25.752 464.475 25.543 464.271 25.2734C464.068 25.0039 463.904 24.6875 463.779 24.3242C463.658 23.957 463.572 23.5547 463.521 23.1172V22.6426C463.572 22.1777 463.658 21.7559 463.779 21.377C463.904 20.998 464.068 20.6719 464.271 20.3984C464.475 20.125 464.723 19.9141 465.016 19.7656C465.309 19.6172 465.65 19.543 466.041 19.543C466.439 19.543 466.793 19.6211 467.102 19.7773C467.41 19.9297 467.67 20.1484 467.881 20.4336C468.092 20.7148 468.25 21.0547 468.355 21.4531C468.461 21.8477 468.514 22.2871 468.514 22.7715ZM467.102 22.8945V22.7715C467.102 22.4785 467.074 22.207 467.02 21.957C466.965 21.7031 466.879 21.4805 466.762 21.2891C466.645 21.0977 466.494 20.9492 466.311 20.8438C466.131 20.7344 465.914 20.6797 465.66 20.6797C465.41 20.6797 465.195 20.7227 465.016 20.8086C464.836 20.8906 464.686 21.0059 464.564 21.1543C464.443 21.3027 464.35 21.4766 464.283 21.6758C464.217 21.8711 464.17 22.084 464.143 22.3145V23.4512C464.189 23.7324 464.27 23.9902 464.383 24.2246C464.496 24.459 464.656 24.6465 464.863 24.7871C465.074 24.9238 465.344 24.9922 465.672 24.9922C465.926 24.9922 466.143 24.9375 466.322 24.8281C466.502 24.7188 466.648 24.5684 466.762 24.377C466.879 24.1816 466.965 23.957 467.02 23.7031C467.074 23.4492 467.102 23.1797 467.102 22.8945ZM471.133 20.8789V28.4375H469.721V19.6602H471.021L471.133 20.8789ZM475.264 22.7715V22.8945C475.264 23.3555 475.209 23.7832 475.1 24.1777C474.994 24.5684 474.836 24.9102 474.625 25.2031C474.418 25.4922 474.162 25.7168 473.857 25.877C473.553 26.0371 473.201 26.1172 472.803 26.1172C472.408 26.1172 472.062 26.0449 471.766 25.9004C471.473 25.752 471.225 25.543 471.021 25.2734C470.818 25.0039 470.654 24.6875 470.529 24.3242C470.408 23.957 470.322 23.5547 470.271 23.1172V22.6426C470.322 22.1777 470.408 21.7559 470.529 21.377C470.654 20.998 470.818 20.6719 471.021 20.3984C471.225 20.125 471.473 19.9141 471.766 19.7656C472.059 19.6172 472.4 19.543 472.791 19.543C473.189 19.543 473.543 19.6211 473.852 19.7773C474.16 19.9297 474.42 20.1484 474.631 20.4336C474.842 20.7148 475 21.0547 475.105 21.4531C475.211 21.8477 475.264 22.2871 475.264 22.7715ZM473.852 22.8945V22.7715C473.852 22.4785 473.824 22.207 473.77 21.957C473.715 21.7031 473.629 21.4805 473.512 21.2891C473.395 21.0977 473.244 20.9492 473.061 20.8438C472.881 20.7344 472.664 20.6797 472.41 20.6797C472.16 20.6797 471.945 20.7227 471.766 20.8086C471.586 20.8906 471.436 21.0059 471.314 21.1543C471.193 21.3027 471.1 21.4766 471.033 21.6758C470.967 21.8711 470.92 22.084 470.893 22.3145V23.4512C470.939 23.7324 471.02 23.9902 471.133 24.2246C471.246 24.459 471.406 24.6465 471.613 24.7871C471.824 24.9238 472.094 24.9922 472.422 24.9922C472.676 24.9922 472.893 24.9375 473.072 24.8281C473.252 24.7188 473.398 24.5684 473.512 24.377C473.629 24.1816 473.715 23.957 473.77 23.7031C473.824 23.4492 473.852 23.1797 473.852 22.8945ZM476.195 22.9004V22.7656C476.195 22.3086 476.262 21.8848 476.395 21.4941C476.527 21.0996 476.719 20.7578 476.969 20.4688C477.223 20.1758 477.531 19.9492 477.895 19.7891C478.262 19.625 478.676 19.543 479.137 19.543C479.602 19.543 480.016 19.625 480.379 19.7891C480.746 19.9492 481.057 20.1758 481.311 20.4688C481.564 20.7578 481.758 21.0996 481.891 21.4941C482.023 21.8848 482.09 22.3086 482.09 22.7656V22.9004C482.09 23.3574 482.023 23.7812 481.891 24.1719C481.758 24.5625 481.564 24.9043 481.311 25.1973C481.057 25.4863 480.748 25.7129 480.385 25.877C480.021 26.0371 479.609 26.1172 479.148 26.1172C478.684 26.1172 478.268 26.0371 477.9 25.877C477.537 25.7129 477.229 25.4863 476.975 25.1973C476.721 24.9043 476.527 24.5625 476.395 24.1719C476.262 23.7812 476.195 23.3574 476.195 22.9004ZM477.607 22.7656V22.9004C477.607 23.1855 477.637 23.4551 477.695 23.709C477.754 23.9629 477.846 24.1855 477.971 24.377C478.096 24.5684 478.256 24.7188 478.451 24.8281C478.646 24.9375 478.879 24.9922 479.148 24.9922C479.41 24.9922 479.637 24.9375 479.828 24.8281C480.023 24.7188 480.184 24.5684 480.309 24.377C480.434 24.1855 480.525 23.9629 480.584 23.709C480.646 23.4551 480.678 23.1855 480.678 22.9004V22.7656C480.678 22.4844 480.646 22.2188 480.584 21.9688C480.525 21.7148 480.432 21.4902 480.303 21.2949C480.178 21.0996 480.018 20.9473 479.822 20.8379C479.631 20.7246 479.402 20.668 479.137 20.668C478.871 20.668 478.641 20.7246 478.445 20.8379C478.254 20.9473 478.096 21.0996 477.971 21.2949C477.846 21.4902 477.754 21.7148 477.695 21.9688C477.637 22.2188 477.607 22.4844 477.607 22.7656ZM484.691 20.8672V26H483.279V19.6602H484.627L484.691 20.8672ZM486.631 19.6191L486.619 20.9316C486.533 20.916 486.439 20.9043 486.338 20.8965C486.24 20.8887 486.143 20.8848 486.045 20.8848C485.803 20.8848 485.59 20.9199 485.406 20.9902C485.223 21.0566 485.068 21.1543 484.943 21.2832C484.822 21.4082 484.729 21.5605 484.662 21.7402C484.596 21.9199 484.557 22.1211 484.545 22.3438L484.223 22.3672C484.223 21.9688 484.262 21.5996 484.34 21.2598C484.418 20.9199 484.535 20.6211 484.691 20.3633C484.852 20.1055 485.051 19.9043 485.289 19.7598C485.531 19.6152 485.811 19.543 486.127 19.543C486.213 19.543 486.305 19.5508 486.402 19.5664C486.504 19.582 486.58 19.5996 486.631 19.6191ZM490.715 19.6602V20.6914H487.141V19.6602H490.715ZM488.172 18.1074H489.584V24.248C489.584 24.4434 489.611 24.5938 489.666 24.6992C489.725 24.8008 489.805 24.8691 489.906 24.9043C490.008 24.9395 490.127 24.957 490.264 24.957C490.361 24.957 490.455 24.9512 490.545 24.9395C490.635 24.9277 490.707 24.916 490.762 24.9043L490.768 25.9824C490.65 26.0176 490.514 26.0488 490.357 26.0762C490.205 26.1035 490.029 26.1172 489.83 26.1172C489.506 26.1172 489.219 26.0605 488.969 25.9473C488.719 25.8301 488.523 25.6406 488.383 25.3789C488.242 25.1172 488.172 24.7695 488.172 24.3359V18.1074Z" fill="#131420"/>
<path d="M484 32H302C297.582 32 294 35.5817 294 40V84C294 88.4183 297.582 92 302 92H484C488.418 92 492 88.4183 492 84V40C492 35.5817 488.418 32 484 32Z" fill="#3F7BDA"/>
<path d="M323.691 48.2246L320.867 56H319.713L322.965 47.4688H323.709L323.691 48.2246ZM326.059 56L323.229 48.2246L323.211 47.4688H323.955L327.219 56H326.059ZM325.912 52.8418V53.7676H321.119V52.8418H325.912ZM329.281 51.0137V56H328.197V49.6602H329.223L329.281 51.0137ZM329.023 52.5898L328.572 52.5723C328.576 52.1387 328.641 51.7383 328.766 51.3711C328.891 51 329.066 50.6777 329.293 50.4043C329.52 50.1309 329.789 49.9199 330.102 49.7715C330.418 49.6191 330.768 49.543 331.15 49.543C331.463 49.543 331.744 49.5859 331.994 49.6719C332.244 49.7539 332.457 49.8867 332.633 50.0703C332.812 50.2539 332.949 50.4922 333.043 50.7852C333.137 51.0742 333.184 51.4277 333.184 51.8457V56H332.094V51.834C332.094 51.502 332.045 51.2363 331.947 51.0371C331.85 50.834 331.707 50.6875 331.52 50.5977C331.332 50.5039 331.102 50.457 330.828 50.457C330.559 50.457 330.312 50.5137 330.09 50.627C329.871 50.7402 329.682 50.8965 329.521 51.0957C329.365 51.2949 329.242 51.5234 329.152 51.7812C329.066 52.0352 329.023 52.3047 329.023 52.5898ZM338.826 54.7695V47H339.916V56H338.92L338.826 54.7695ZM334.561 52.9004V52.7773C334.561 52.293 334.619 51.8535 334.736 51.459C334.857 51.0605 335.027 50.7188 335.246 50.4336C335.469 50.1484 335.732 49.9297 336.037 49.7773C336.346 49.6211 336.689 49.543 337.068 49.543C337.467 49.543 337.814 49.6133 338.111 49.7539C338.412 49.8906 338.666 50.0918 338.873 50.3574C339.084 50.6191 339.25 50.9355 339.371 51.3066C339.492 51.6777 339.576 52.0977 339.623 52.5664V53.1055C339.58 53.5703 339.496 53.9883 339.371 54.3594C339.25 54.7305 339.084 55.0469 338.873 55.3086C338.666 55.5703 338.412 55.7715 338.111 55.9121C337.811 56.0488 337.459 56.1172 337.057 56.1172C336.686 56.1172 336.346 56.0371 336.037 55.877C335.732 55.7168 335.469 55.4922 335.246 55.2031C335.027 54.9141 334.857 54.5742 334.736 54.1836C334.619 53.7891 334.561 53.3613 334.561 52.9004ZM335.65 52.7773V52.9004C335.65 53.2168 335.682 53.5137 335.744 53.791C335.811 54.0684 335.912 54.3125 336.049 54.5234C336.186 54.7344 336.359 54.9004 336.57 55.0215C336.781 55.1387 337.033 55.1973 337.326 55.1973C337.686 55.1973 337.98 55.1211 338.211 54.9688C338.445 54.8164 338.633 54.6152 338.773 54.3652C338.914 54.1152 339.023 53.8438 339.102 53.5508V52.1387C339.055 51.9238 338.986 51.7168 338.896 51.5176C338.811 51.3145 338.697 51.1348 338.557 50.9785C338.42 50.8184 338.25 50.6914 338.047 50.5977C337.848 50.5039 337.611 50.457 337.338 50.457C337.041 50.457 336.785 50.5195 336.57 50.6445C336.359 50.7656 336.186 50.9336 336.049 51.1484C335.912 51.3594 335.811 51.6055 335.744 51.8867C335.682 52.1641 335.65 52.4609 335.65 52.7773ZM346.361 55.3438L348.125 49.6602H349.285L346.742 56.9785C346.684 57.1348 346.605 57.3027 346.508 57.4824C346.414 57.666 346.293 57.8398 346.145 58.0039C345.996 58.168 345.816 58.3008 345.605 58.4023C345.398 58.5078 345.15 58.5605 344.861 58.5605C344.775 58.5605 344.666 58.5488 344.533 58.5254C344.4 58.502 344.307 58.4824 344.252 58.4668L344.246 57.5879C344.277 57.5918 344.326 57.5957 344.393 57.5996C344.463 57.6074 344.512 57.6113 344.539 57.6113C344.785 57.6113 344.994 57.5781 345.166 57.5117C345.338 57.4492 345.482 57.3418 345.6 57.1895C345.721 57.041 345.824 56.8359 345.91 56.5742L346.361 55.3438ZM345.066 49.6602L346.713 54.582L346.994 55.7246L346.215 56.123L343.883 49.6602H345.066ZM349.883 52.9004V52.7656C349.883 52.3086 349.949 51.8848 350.082 51.4941C350.215 51.0996 350.406 50.7578 350.656 50.4688C350.906 50.1758 351.209 49.9492 351.564 49.7891C351.92 49.625 352.318 49.543 352.76 49.543C353.205 49.543 353.605 49.625 353.961 49.7891C354.32 49.9492 354.625 50.1758 354.875 50.4688C355.129 50.7578 355.322 51.0996 355.455 51.4941C355.588 51.8848 355.654 52.3086 355.654 52.7656V52.9004C355.654 53.3574 355.588 53.7812 355.455 54.1719C355.322 54.5625 355.129 54.9043 354.875 55.1973C354.625 55.4863 354.322 55.7129 353.967 55.877C353.615 56.0371 353.217 56.1172 352.771 56.1172C352.326 56.1172 351.926 56.0371 351.57 55.877C351.215 55.7129 350.91 55.4863 350.656 55.1973C350.406 54.9043 350.215 54.5625 350.082 54.1719C349.949 53.7812 349.883 53.3574 349.883 52.9004ZM350.967 52.7656V52.9004C350.967 53.2168 351.004 53.5156 351.078 53.7969C351.152 54.0742 351.264 54.3203 351.412 54.5352C351.564 54.75 351.754 54.9199 351.98 55.0449C352.207 55.166 352.471 55.2266 352.771 55.2266C353.068 55.2266 353.328 55.166 353.551 55.0449C353.777 54.9199 353.965 54.75 354.113 54.5352C354.262 54.3203 354.373 54.0742 354.447 53.7969C354.525 53.5156 354.564 53.2168 354.564 52.9004V52.7656C354.564 52.4531 354.525 52.1582 354.447 51.8809C354.373 51.5996 354.26 51.3516 354.107 51.1367C353.959 50.918 353.771 50.7461 353.545 50.6211C353.322 50.4961 353.061 50.4336 352.76 50.4336C352.463 50.4336 352.201 50.4961 351.975 50.6211C351.752 50.7461 351.564 50.918 351.412 51.1367C351.264 51.3516 351.152 51.5996 351.078 51.8809C351.004 52.1582 350.967 52.4531 350.967 52.7656ZM360.893 54.5352V49.6602H361.982V56H360.945L360.893 54.5352ZM361.098 53.1992L361.549 53.1875C361.549 53.6094 361.504 54 361.414 54.3594C361.328 54.7148 361.188 55.0234 360.992 55.2852C360.797 55.5469 360.541 55.752 360.225 55.9004C359.908 56.0449 359.523 56.1172 359.07 56.1172C358.762 56.1172 358.479 56.0723 358.221 55.9824C357.967 55.8926 357.748 55.7539 357.564 55.5664C357.381 55.3789 357.238 55.1348 357.137 54.834C357.039 54.5332 356.99 54.1719 356.99 53.75V49.6602H358.074V53.7617C358.074 54.0469 358.105 54.2832 358.168 54.4707C358.234 54.6543 358.322 54.8008 358.432 54.9102C358.545 55.0156 358.67 55.0898 358.807 55.1328C358.947 55.1758 359.092 55.1973 359.24 55.1973C359.701 55.1973 360.066 55.1094 360.336 54.9336C360.605 54.7539 360.799 54.5137 360.916 54.2129C361.037 53.9082 361.098 53.5703 361.098 53.1992ZM364.719 50.6562V56H363.635V49.6602H364.689L364.719 50.6562ZM366.699 49.625L366.693 50.6328C366.604 50.6133 366.518 50.6016 366.436 50.5977C366.357 50.5898 366.268 50.5859 366.166 50.5859C365.916 50.5859 365.695 50.625 365.504 50.7031C365.312 50.7812 365.15 50.8906 365.018 51.0312C364.885 51.1719 364.779 51.3398 364.701 51.5352C364.627 51.7266 364.578 51.9375 364.555 52.168L364.25 52.3438C364.25 51.9609 364.287 51.6016 364.361 51.2656C364.439 50.9297 364.559 50.6328 364.719 50.375C364.879 50.1133 365.082 49.9102 365.328 49.7656C365.578 49.6172 365.875 49.543 366.219 49.543C366.297 49.543 366.387 49.5527 366.488 49.5723C366.59 49.5879 366.66 49.6055 366.699 49.625ZM371.855 47V56H370.766V47H371.855ZM377.334 54.916V51.6523C377.334 51.4023 377.283 51.1855 377.182 51.002C377.084 50.8145 376.936 50.6699 376.736 50.5684C376.537 50.4668 376.291 50.416 375.998 50.416C375.725 50.416 375.484 50.4629 375.277 50.5566C375.074 50.6504 374.914 50.7734 374.797 50.9258C374.684 51.0781 374.627 51.2422 374.627 51.418H373.543C373.543 51.1914 373.602 50.9668 373.719 50.7441C373.836 50.5215 374.004 50.3203 374.223 50.1406C374.445 49.957 374.711 49.8125 375.02 49.707C375.332 49.5977 375.68 49.543 376.062 49.543C376.523 49.543 376.93 49.6211 377.281 49.7773C377.637 49.9336 377.914 50.1699 378.113 50.4863C378.316 50.7988 378.418 51.1914 378.418 51.6641V54.6172C378.418 54.8281 378.436 55.0527 378.471 55.291C378.51 55.5293 378.566 55.7344 378.641 55.9062V56H377.51C377.455 55.875 377.412 55.709 377.381 55.502C377.35 55.291 377.334 55.0957 377.334 54.916ZM377.521 52.1562L377.533 52.918H376.438C376.129 52.918 375.854 52.9434 375.611 52.9941C375.369 53.041 375.166 53.1133 375.002 53.2109C374.838 53.3086 374.713 53.4316 374.627 53.5801C374.541 53.7246 374.498 53.8945 374.498 54.0898C374.498 54.2891 374.543 54.4707 374.633 54.6348C374.723 54.7988 374.857 54.9297 375.037 55.0273C375.221 55.1211 375.445 55.168 375.711 55.168C376.043 55.168 376.336 55.0977 376.59 54.957C376.844 54.8164 377.045 54.6445 377.193 54.4414C377.346 54.2383 377.428 54.041 377.439 53.8496L377.902 54.3711C377.875 54.5352 377.801 54.7168 377.68 54.916C377.559 55.1152 377.396 55.3066 377.193 55.4902C376.994 55.6699 376.756 55.8203 376.479 55.9414C376.205 56.0586 375.896 56.1172 375.553 56.1172C375.123 56.1172 374.746 56.0332 374.422 55.8652C374.102 55.6973 373.852 55.4727 373.672 55.1914C373.496 54.9062 373.408 54.5879 373.408 54.2363C373.408 53.8965 373.475 53.5977 373.607 53.3398C373.74 53.0781 373.932 52.8613 374.182 52.6895C374.432 52.5137 374.732 52.3809 375.084 52.291C375.436 52.2012 375.828 52.1562 376.262 52.1562H377.521ZM383.814 54.3184C383.814 54.1621 383.779 54.0176 383.709 53.8848C383.643 53.748 383.504 53.625 383.293 53.5156C383.086 53.4023 382.773 53.3047 382.355 53.2227C382.004 53.1484 381.686 53.0605 381.4 52.959C381.119 52.8574 380.879 52.7344 380.68 52.5898C380.484 52.4453 380.334 52.2754 380.229 52.0801C380.123 51.8848 380.07 51.6562 380.07 51.3945C380.07 51.1445 380.125 50.9082 380.234 50.6855C380.348 50.4629 380.506 50.2656 380.709 50.0938C380.916 49.9219 381.164 49.7871 381.453 49.6895C381.742 49.5918 382.064 49.543 382.42 49.543C382.928 49.543 383.361 49.6328 383.721 49.8125C384.08 49.9922 384.355 50.2324 384.547 50.5332C384.738 50.8301 384.834 51.1602 384.834 51.5234H383.75C383.75 51.3477 383.697 51.1777 383.592 51.0137C383.49 50.8457 383.34 50.707 383.141 50.5977C382.945 50.4883 382.705 50.4336 382.42 50.4336C382.119 50.4336 381.875 50.4805 381.688 50.5742C381.504 50.6641 381.369 50.7793 381.283 50.9199C381.201 51.0605 381.16 51.209 381.16 51.3652C381.16 51.4824 381.18 51.5879 381.219 51.6816C381.262 51.7715 381.336 51.8555 381.441 51.9336C381.547 52.0078 381.695 52.0781 381.887 52.1445C382.078 52.2109 382.322 52.2773 382.619 52.3438C383.139 52.4609 383.566 52.6016 383.902 52.7656C384.238 52.9297 384.488 53.1309 384.652 53.3691C384.816 53.6074 384.898 53.8965 384.898 54.2363C384.898 54.5137 384.84 54.7676 384.723 54.998C384.609 55.2285 384.443 55.4277 384.225 55.5957C384.01 55.7598 383.752 55.8887 383.451 55.9824C383.154 56.0723 382.82 56.1172 382.449 56.1172C381.891 56.1172 381.418 56.0176 381.031 55.8184C380.645 55.6191 380.352 55.3613 380.152 55.0449C379.953 54.7285 379.854 54.3945 379.854 54.043H380.943C380.959 54.3398 381.045 54.5762 381.201 54.752C381.357 54.9238 381.549 55.0469 381.775 55.1211C382.002 55.1914 382.227 55.2266 382.449 55.2266C382.746 55.2266 382.994 55.1875 383.193 55.1094C383.396 55.0312 383.551 54.9238 383.656 54.7871C383.762 54.6504 383.814 54.4941 383.814 54.3184ZM388.977 49.6602V50.4922H385.549V49.6602H388.977ZM386.709 48.1191H387.793V54.4297C387.793 54.6445 387.826 54.8066 387.893 54.916C387.959 55.0254 388.045 55.0977 388.15 55.1328C388.256 55.168 388.369 55.1855 388.49 55.1855C388.58 55.1855 388.674 55.1777 388.771 55.1621C388.873 55.1426 388.949 55.127 389 55.1152L389.006 56C388.92 56.0273 388.807 56.0527 388.666 56.0762C388.529 56.1035 388.363 56.1172 388.168 56.1172C387.902 56.1172 387.658 56.0645 387.436 55.959C387.213 55.8535 387.035 55.6777 386.902 55.4316C386.773 55.1816 386.709 54.8457 386.709 54.4238V48.1191ZM394.309 51.0137V56H393.225V49.6602H394.25L394.309 51.0137ZM394.051 52.5898L393.6 52.5723C393.604 52.1387 393.668 51.7383 393.793 51.3711C393.918 51 394.094 50.6777 394.32 50.4043C394.547 50.1309 394.816 49.9199 395.129 49.7715C395.445 49.6191 395.795 49.543 396.178 49.543C396.49 49.543 396.771 49.5859 397.021 49.6719C397.271 49.7539 397.484 49.8867 397.66 50.0703C397.84 50.2539 397.977 50.4922 398.07 50.7852C398.164 51.0742 398.211 51.4277 398.211 51.8457V56H397.121V51.834C397.121 51.502 397.072 51.2363 396.975 51.0371C396.877 50.834 396.734 50.6875 396.547 50.5977C396.359 50.5039 396.129 50.457 395.855 50.457C395.586 50.457 395.34 50.5137 395.117 50.627C394.898 50.7402 394.709 50.8965 394.549 51.0957C394.393 51.2949 394.27 51.5234 394.18 51.7812C394.094 52.0352 394.051 52.3047 394.051 52.5898ZM403.596 54.916V51.6523C403.596 51.4023 403.545 51.1855 403.443 51.002C403.346 50.8145 403.197 50.6699 402.998 50.5684C402.799 50.4668 402.553 50.416 402.26 50.416C401.986 50.416 401.746 50.4629 401.539 50.5566C401.336 50.6504 401.176 50.7734 401.059 50.9258C400.945 51.0781 400.889 51.2422 400.889 51.418H399.805C399.805 51.1914 399.863 50.9668 399.98 50.7441C400.098 50.5215 400.266 50.3203 400.484 50.1406C400.707 49.957 400.973 49.8125 401.281 49.707C401.594 49.5977 401.941 49.543 402.324 49.543C402.785 49.543 403.191 49.6211 403.543 49.7773C403.898 49.9336 404.176 50.1699 404.375 50.4863C404.578 50.7988 404.68 51.1914 404.68 51.6641V54.6172C404.68 54.8281 404.697 55.0527 404.732 55.291C404.771 55.5293 404.828 55.7344 404.902 55.9062V56H403.771C403.717 55.875 403.674 55.709 403.643 55.502C403.611 55.291 403.596 55.0957 403.596 54.916ZM403.783 52.1562L403.795 52.918H402.699C402.391 52.918 402.115 52.9434 401.873 52.9941C401.631 53.041 401.428 53.1133 401.264 53.2109C401.1 53.3086 400.975 53.4316 400.889 53.5801C400.803 53.7246 400.76 53.8945 400.76 54.0898C400.76 54.2891 400.805 54.4707 400.895 54.6348C400.984 54.7988 401.119 54.9297 401.299 55.0273C401.482 55.1211 401.707 55.168 401.973 55.168C402.305 55.168 402.598 55.0977 402.852 54.957C403.105 54.8164 403.307 54.6445 403.455 54.4414C403.607 54.2383 403.689 54.041 403.701 53.8496L404.164 54.3711C404.137 54.5352 404.062 54.7168 403.941 54.916C403.82 55.1152 403.658 55.3066 403.455 55.4902C403.256 55.6699 403.018 55.8203 402.74 55.9414C402.467 56.0586 402.158 56.1172 401.814 56.1172C401.385 56.1172 401.008 56.0332 400.684 55.8652C400.363 55.6973 400.113 55.4727 399.934 55.1914C399.758 54.9062 399.67 54.5879 399.67 54.2363C399.67 53.8965 399.736 53.5977 399.869 53.3398C400.002 53.0781 400.193 52.8613 400.443 52.6895C400.693 52.5137 400.994 52.3809 401.346 52.291C401.697 52.2012 402.09 52.1562 402.523 52.1562H403.783ZM407.463 50.9199V56H406.373V49.6602H407.404L407.463 50.9199ZM407.24 52.5898L406.736 52.5723C406.74 52.1387 406.797 51.7383 406.906 51.3711C407.016 51 407.178 50.6777 407.393 50.4043C407.607 50.1309 407.875 49.9199 408.195 49.7715C408.516 49.6191 408.887 49.543 409.309 49.543C409.605 49.543 409.879 49.5859 410.129 49.6719C410.379 49.7539 410.596 49.8848 410.779 50.0645C410.963 50.2441 411.105 50.4746 411.207 50.7559C411.309 51.0371 411.359 51.377 411.359 51.7754V56H410.275V51.8281C410.275 51.4961 410.219 51.2305 410.105 51.0312C409.996 50.832 409.84 50.6875 409.637 50.5977C409.434 50.5039 409.195 50.457 408.922 50.457C408.602 50.457 408.334 50.5137 408.119 50.627C407.904 50.7402 407.732 50.8965 407.604 51.0957C407.475 51.2949 407.381 51.5234 407.322 51.7812C407.268 52.0352 407.24 52.3047 407.24 52.5898ZM411.348 51.9922L410.621 52.2148C410.625 51.8672 410.682 51.5332 410.791 51.2129C410.904 50.8926 411.066 50.6074 411.277 50.3574C411.492 50.1074 411.756 49.9102 412.068 49.7656C412.381 49.6172 412.738 49.543 413.141 49.543C413.48 49.543 413.781 49.5879 414.043 49.6777C414.309 49.7676 414.531 49.9062 414.711 50.0938C414.895 50.2773 415.033 50.5137 415.127 50.8027C415.221 51.0918 415.268 51.4355 415.268 51.834V56H414.178V51.8223C414.178 51.4668 414.121 51.1914 414.008 50.9961C413.898 50.7969 413.742 50.6582 413.539 50.5801C413.34 50.498 413.102 50.457 412.824 50.457C412.586 50.457 412.375 50.498 412.191 50.5801C412.008 50.6621 411.854 50.7754 411.729 50.9199C411.604 51.0605 411.508 51.2227 411.441 51.4062C411.379 51.5898 411.348 51.7852 411.348 51.9922ZM419.539 56.1172C419.098 56.1172 418.697 56.043 418.338 55.8945C417.982 55.7422 417.676 55.5293 417.418 55.2559C417.164 54.9824 416.969 54.6582 416.832 54.2832C416.695 53.9082 416.627 53.498 416.627 53.0527V52.8066C416.627 52.291 416.703 51.832 416.855 51.4297C417.008 51.0234 417.215 50.6797 417.477 50.3984C417.738 50.1172 418.035 49.9043 418.367 49.7598C418.699 49.6152 419.043 49.543 419.398 49.543C419.852 49.543 420.242 49.6211 420.57 49.7773C420.902 49.9336 421.174 50.1523 421.385 50.4336C421.596 50.7109 421.752 51.0391 421.854 51.418C421.955 51.793 422.006 52.2031 422.006 52.6484V53.1348H417.271V52.25H420.922V52.168C420.906 51.8867 420.848 51.6133 420.746 51.3477C420.648 51.082 420.492 50.8633 420.277 50.6914C420.062 50.5195 419.77 50.4336 419.398 50.4336C419.152 50.4336 418.926 50.4863 418.719 50.5918C418.512 50.6934 418.334 50.8457 418.186 51.0488C418.037 51.252 417.922 51.5 417.84 51.793C417.758 52.0859 417.717 52.4238 417.717 52.8066V53.0527C417.717 53.3535 417.758 53.6367 417.84 53.9023C417.926 54.1641 418.049 54.3945 418.209 54.5938C418.373 54.793 418.57 54.9492 418.801 55.0625C419.035 55.1758 419.301 55.2324 419.598 55.2324C419.98 55.2324 420.305 55.1543 420.57 54.998C420.836 54.8418 421.068 54.6328 421.268 54.3711L421.924 54.8926C421.787 55.0996 421.613 55.2969 421.402 55.4844C421.191 55.6719 420.932 55.8242 420.623 55.9414C420.318 56.0586 419.957 56.1172 419.539 56.1172ZM424.256 54.7109V55.584C424.256 55.9395 424.166 56.3145 423.986 56.709C423.807 57.1074 423.555 57.4395 423.23 57.7051L422.615 57.2773C422.74 57.1055 422.846 56.9297 422.932 56.75C423.018 56.5742 423.082 56.3906 423.125 56.1992C423.172 56.0117 423.195 55.8125 423.195 55.6016V54.7109H424.256ZM430.221 54.875L431.85 49.6602H432.564L432.424 50.6973L430.766 56H430.068L430.221 54.875ZM429.125 49.6602L430.514 54.9336L430.613 56H429.881L428.041 49.6602H429.125ZM434.123 54.8926L435.447 49.6602H436.525L434.686 56H433.959L434.123 54.8926ZM432.723 49.6602L434.316 54.7871L434.498 56H433.807L432.102 50.6855L431.961 49.6602H432.723ZM437.352 52.9004V52.7656C437.352 52.3086 437.418 51.8848 437.551 51.4941C437.684 51.0996 437.875 50.7578 438.125 50.4688C438.375 50.1758 438.678 49.9492 439.033 49.7891C439.389 49.625 439.787 49.543 440.229 49.543C440.674 49.543 441.074 49.625 441.43 49.7891C441.789 49.9492 442.094 50.1758 442.344 50.4688C442.598 50.7578 442.791 51.0996 442.924 51.4941C443.057 51.8848 443.123 52.3086 443.123 52.7656V52.9004C443.123 53.3574 443.057 53.7812 442.924 54.1719C442.791 54.5625 442.598 54.9043 442.344 55.1973C442.094 55.4863 441.791 55.7129 441.436 55.877C441.084 56.0371 440.686 56.1172 440.24 56.1172C439.795 56.1172 439.395 56.0371 439.039 55.877C438.684 55.7129 438.379 55.4863 438.125 55.1973C437.875 54.9043 437.684 54.5625 437.551 54.1719C437.418 53.7812 437.352 53.3574 437.352 52.9004ZM438.436 52.7656V52.9004C438.436 53.2168 438.473 53.5156 438.547 53.7969C438.621 54.0742 438.732 54.3203 438.881 54.5352C439.033 54.75 439.223 54.9199 439.449 55.0449C439.676 55.166 439.939 55.2266 440.24 55.2266C440.537 55.2266 440.797 55.166 441.02 55.0449C441.246 54.9199 441.434 54.75 441.582 54.5352C441.73 54.3203 441.842 54.0742 441.916 53.7969C441.994 53.5156 442.033 53.2168 442.033 52.9004V52.7656C442.033 52.4531 441.994 52.1582 441.916 51.8809C441.842 51.5996 441.729 51.3516 441.576 51.1367C441.428 50.918 441.24 50.7461 441.014 50.6211C440.791 50.4961 440.529 50.4336 440.229 50.4336C439.932 50.4336 439.67 50.4961 439.443 50.6211C439.221 50.7461 439.033 50.918 438.881 51.1367C438.732 51.3516 438.621 51.5996 438.547 51.8809C438.473 52.1582 438.436 52.4531 438.436 52.7656ZM448.361 54.5352V49.6602H449.451V56H448.414L448.361 54.5352ZM448.566 53.1992L449.018 53.1875C449.018 53.6094 448.973 54 448.883 54.3594C448.797 54.7148 448.656 55.0234 448.461 55.2852C448.266 55.5469 448.01 55.752 447.693 55.9004C447.377 56.0449 446.992 56.1172 446.539 56.1172C446.23 56.1172 445.947 56.0723 445.689 55.9824C445.436 55.8926 445.217 55.7539 445.033 55.5664C444.85 55.3789 444.707 55.1348 444.605 54.834C444.508 54.5332 444.459 54.1719 444.459 53.75V49.6602H445.543V53.7617C445.543 54.0469 445.574 54.2832 445.637 54.4707C445.703 54.6543 445.791 54.8008 445.9 54.9102C446.014 55.0156 446.139 55.0898 446.275 55.1328C446.416 55.1758 446.561 55.1973 446.709 55.1973C447.17 55.1973 447.535 55.1094 447.805 54.9336C448.074 54.7539 448.268 54.5137 448.385 54.2129C448.506 53.9082 448.566 53.5703 448.566 53.1992ZM452.281 47V56H451.191V47H452.281ZM458.018 54.7695V47H459.107V56H458.111L458.018 54.7695ZM453.752 52.9004V52.7773C453.752 52.293 453.811 51.8535 453.928 51.459C454.049 51.0605 454.219 50.7188 454.438 50.4336C454.66 50.1484 454.924 49.9297 455.229 49.7773C455.537 49.6211 455.881 49.543 456.26 49.543C456.658 49.543 457.006 49.6133 457.303 49.7539C457.604 49.8906 457.857 50.0918 458.064 50.3574C458.275 50.6191 458.441 50.9355 458.562 51.3066C458.684 51.6777 458.768 52.0977 458.814 52.5664V53.1055C458.771 53.5703 458.688 53.9883 458.562 54.3594C458.441 54.7305 458.275 55.0469 458.064 55.3086C457.857 55.5703 457.604 55.7715 457.303 55.9121C457.002 56.0488 456.65 56.1172 456.248 56.1172C455.877 56.1172 455.537 56.0371 455.229 55.877C454.924 55.7168 454.66 55.4922 454.438 55.2031C454.219 54.9141 454.049 54.5742 453.928 54.1836C453.811 53.7891 453.752 53.3613 453.752 52.9004ZM454.842 52.7773V52.9004C454.842 53.2168 454.873 53.5137 454.936 53.791C455.002 54.0684 455.104 54.3125 455.24 54.5234C455.377 54.7344 455.551 54.9004 455.762 55.0215C455.973 55.1387 456.225 55.1973 456.518 55.1973C456.877 55.1973 457.172 55.1211 457.402 54.9688C457.637 54.8164 457.824 54.6152 457.965 54.3652C458.105 54.1152 458.215 53.8438 458.293 53.5508V52.1387C458.246 51.9238 458.178 51.7168 458.088 51.5176C458.002 51.3145 457.889 51.1348 457.748 50.9785C457.611 50.8184 457.441 50.6914 457.238 50.5977C457.039 50.5039 456.803 50.457 456.529 50.457C456.232 50.457 455.977 50.5195 455.762 50.6445C455.551 50.7656 455.377 50.9336 455.24 51.1484C455.104 51.3594 455.002 51.6055 454.936 51.8867C454.873 52.1641 454.842 52.4609 454.842 52.7773ZM465.553 55.3438L467.316 49.6602H468.477L465.934 56.9785C465.875 57.1348 465.797 57.3027 465.699 57.4824C465.605 57.666 465.484 57.8398 465.336 58.0039C465.188 58.168 465.008 58.3008 464.797 58.4023C464.59 58.5078 464.342 58.5605 464.053 58.5605C463.967 58.5605 463.857 58.5488 463.725 58.5254C463.592 58.502 463.498 58.4824 463.443 58.4668L463.438 57.5879C463.469 57.5918 463.518 57.5957 463.584 57.5996C463.654 57.6074 463.703 57.6113 463.73 57.6113C463.977 57.6113 464.186 57.5781 464.357 57.5117C464.529 57.4492 464.674 57.3418 464.791 57.1895C464.912 57.041 465.016 56.8359 465.102 56.5742L465.553 55.3438ZM464.258 49.6602L465.904 54.582L466.186 55.7246L465.406 56.123L463.074 49.6602H464.258ZM469.074 52.9004V52.7656C469.074 52.3086 469.141 51.8848 469.273 51.4941C469.406 51.0996 469.598 50.7578 469.848 50.4688C470.098 50.1758 470.4 49.9492 470.756 49.7891C471.111 49.625 471.51 49.543 471.951 49.543C472.396 49.543 472.797 49.625 473.152 49.7891C473.512 49.9492 473.816 50.1758 474.066 50.4688C474.32 50.7578 474.514 51.0996 474.646 51.4941C474.779 51.8848 474.846 52.3086 474.846 52.7656V52.9004C474.846 53.3574 474.779 53.7812 474.646 54.1719C474.514 54.5625 474.32 54.9043 474.066 55.1973C473.816 55.4863 473.514 55.7129 473.158 55.877C472.807 56.0371 472.408 56.1172 471.963 56.1172C471.518 56.1172 471.117 56.0371 470.762 55.877C470.406 55.7129 470.102 55.4863 469.848 55.1973C469.598 54.9043 469.406 54.5625 469.273 54.1719C469.141 53.7812 469.074 53.3574 469.074 52.9004ZM470.158 52.7656V52.9004C470.158 53.2168 470.195 53.5156 470.27 53.7969C470.344 54.0742 470.455 54.3203 470.604 54.5352C470.756 54.75 470.945 54.9199 471.172 55.0449C471.398 55.166 471.662 55.2266 471.963 55.2266C472.26 55.2266 472.52 55.166 472.742 55.0449C472.969 54.9199 473.156 54.75 473.305 54.5352C473.453 54.3203 473.564 54.0742 473.639 53.7969C473.717 53.5156 473.756 53.2168 473.756 52.9004V52.7656C473.756 52.4531 473.717 52.1582 473.639 51.8809C473.564 51.5996 473.451 51.3516 473.299 51.1367C473.15 50.918 472.963 50.7461 472.736 50.6211C472.514 50.4961 472.252 50.4336 471.951 50.4336C471.654 50.4336 471.393 50.4961 471.166 50.6211C470.943 50.7461 470.756 50.918 470.604 51.1367C470.455 51.3516 470.344 51.5996 470.27 51.8809C470.195 52.1582 470.158 52.4531 470.158 52.7656ZM480.084 54.5352V49.6602H481.174V56H480.137L480.084 54.5352ZM480.289 53.1992L480.74 53.1875C480.74 53.6094 480.695 54 480.605 54.3594C480.52 54.7148 480.379 55.0234 480.184 55.2852C479.988 55.5469 479.732 55.752 479.416 55.9004C479.1 56.0449 478.715 56.1172 478.262 56.1172C477.953 56.1172 477.67 56.0723 477.412 55.9824C477.158 55.8926 476.939 55.7539 476.756 55.5664C476.572 55.3789 476.43 55.1348 476.328 54.834C476.23 54.5332 476.182 54.1719 476.182 53.75V49.6602H477.266V53.7617C477.266 54.0469 477.297 54.2832 477.359 54.4707C477.426 54.6543 477.514 54.8008 477.623 54.9102C477.736 55.0156 477.861 55.0898 477.998 55.1328C478.139 55.1758 478.283 55.1973 478.432 55.1973C478.893 55.1973 479.258 55.1094 479.527 54.9336C479.797 54.7539 479.99 54.5137 480.107 54.2129C480.229 53.9082 480.289 53.5703 480.289 53.1992ZM369.881 74.3184C369.881 74.1621 369.846 74.0176 369.775 73.8848C369.709 73.748 369.57 73.625 369.359 73.5156C369.152 73.4023 368.84 73.3047 368.422 73.2227C368.07 73.1484 367.752 73.0605 367.467 72.959C367.186 72.8574 366.945 72.7344 366.746 72.5898C366.551 72.4453 366.4 72.2754 366.295 72.0801C366.189 71.8848 366.137 71.6562 366.137 71.3945C366.137 71.1445 366.191 70.9082 366.301 70.6855C366.414 70.4629 366.572 70.2656 366.775 70.0938C366.982 69.9219 367.23 69.7871 367.52 69.6895C367.809 69.5918 368.131 69.543 368.486 69.543C368.994 69.543 369.428 69.6328 369.787 69.8125C370.146 69.9922 370.422 70.2324 370.613 70.5332C370.805 70.8301 370.9 71.1602 370.9 71.5234H369.816C369.816 71.3477 369.764 71.1777 369.658 71.0137C369.557 70.8457 369.406 70.707 369.207 70.5977C369.012 70.4883 368.771 70.4336 368.486 70.4336C368.186 70.4336 367.941 70.4805 367.754 70.5742C367.57 70.6641 367.436 70.7793 367.35 70.9199C367.268 71.0605 367.227 71.209 367.227 71.3652C367.227 71.4824 367.246 71.5879 367.285 71.6816C367.328 71.7715 367.402 71.8555 367.508 71.9336C367.613 72.0078 367.762 72.0781 367.953 72.1445C368.145 72.2109 368.389 72.2773 368.686 72.3438C369.205 72.4609 369.633 72.6016 369.969 72.7656C370.305 72.9297 370.555 73.1309 370.719 73.3691C370.883 73.6074 370.965 73.8965 370.965 74.2363C370.965 74.5137 370.906 74.7676 370.789 74.998C370.676 75.2285 370.51 75.4277 370.291 75.5957C370.076 75.7598 369.818 75.8887 369.518 75.9824C369.221 76.0723 368.887 76.1172 368.516 76.1172C367.957 76.1172 367.484 76.0176 367.098 75.8184C366.711 75.6191 366.418 75.3613 366.219 75.0449C366.02 74.7285 365.92 74.3945 365.92 74.043H367.01C367.025 74.3398 367.111 74.5762 367.268 74.752C367.424 74.9238 367.615 75.0469 367.842 75.1211C368.068 75.1914 368.293 75.2266 368.516 75.2266C368.812 75.2266 369.061 75.1875 369.26 75.1094C369.463 75.0312 369.617 74.9238 369.723 74.7871C369.828 74.6504 369.881 74.4941 369.881 74.3184ZM373.473 70.8789V78.4375H372.383V69.6602H373.379L373.473 70.8789ZM377.744 72.7773V72.9004C377.744 73.3613 377.689 73.7891 377.58 74.1836C377.471 74.5742 377.311 74.9141 377.1 75.2031C376.893 75.4922 376.637 75.7168 376.332 75.877C376.027 76.0371 375.678 76.1172 375.283 76.1172C374.881 76.1172 374.525 76.0508 374.217 75.918C373.908 75.7852 373.646 75.5918 373.432 75.3379C373.217 75.084 373.045 74.7793 372.916 74.4238C372.791 74.0684 372.705 73.668 372.658 73.2227V72.5664C372.705 72.0977 372.793 71.6777 372.922 71.3066C373.051 70.9355 373.221 70.6191 373.432 70.3574C373.646 70.0918 373.906 69.8906 374.211 69.7539C374.516 69.6133 374.867 69.543 375.266 69.543C375.664 69.543 376.018 69.6211 376.326 69.7773C376.635 69.9297 376.895 70.1484 377.105 70.4336C377.316 70.7188 377.475 71.0605 377.58 71.459C377.689 71.8535 377.744 72.293 377.744 72.7773ZM376.654 72.9004V72.7773C376.654 72.4609 376.621 72.1641 376.555 71.8867C376.488 71.6055 376.385 71.3594 376.244 71.1484C376.107 70.9336 375.932 70.7656 375.717 70.6445C375.502 70.5195 375.246 70.457 374.949 70.457C374.676 70.457 374.438 70.5039 374.234 70.5977C374.035 70.6914 373.865 70.8184 373.725 70.9785C373.584 71.1348 373.469 71.3145 373.379 71.5176C373.293 71.7168 373.229 71.9238 373.186 72.1387V73.6562C373.264 73.9297 373.373 74.1875 373.514 74.4297C373.654 74.668 373.842 74.8613 374.076 75.0098C374.311 75.1543 374.605 75.2266 374.961 75.2266C375.254 75.2266 375.506 75.166 375.717 75.0449C375.932 74.9199 376.107 74.75 376.244 74.5352C376.385 74.3203 376.488 74.0742 376.555 73.7969C376.621 73.5156 376.654 73.2168 376.654 72.9004ZM381.758 76.1172C381.316 76.1172 380.916 76.043 380.557 75.8945C380.201 75.7422 379.895 75.5293 379.637 75.2559C379.383 74.9824 379.188 74.6582 379.051 74.2832C378.914 73.9082 378.846 73.498 378.846 73.0527V72.8066C378.846 72.291 378.922 71.832 379.074 71.4297C379.227 71.0234 379.434 70.6797 379.695 70.3984C379.957 70.1172 380.254 69.9043 380.586 69.7598C380.918 69.6152 381.262 69.543 381.617 69.543C382.07 69.543 382.461 69.6211 382.789 69.7773C383.121 69.9336 383.393 70.1523 383.604 70.4336C383.814 70.7109 383.971 71.0391 384.072 71.418C384.174 71.793 384.225 72.2031 384.225 72.6484V73.1348H379.49V72.25H383.141V72.168C383.125 71.8867 383.066 71.6133 382.965 71.3477C382.867 71.082 382.711 70.8633 382.496 70.6914C382.281 70.5195 381.988 70.4336 381.617 70.4336C381.371 70.4336 381.145 70.4863 380.938 70.5918C380.73 70.6934 380.553 70.8457 380.404 71.0488C380.256 71.252 380.141 71.5 380.059 71.793C379.977 72.0859 379.936 72.4238 379.936 72.8066V73.0527C379.936 73.3535 379.977 73.6367 380.059 73.9023C380.145 74.1641 380.268 74.3945 380.428 74.5938C380.592 74.793 380.789 74.9492 381.02 75.0625C381.254 75.1758 381.52 75.2324 381.816 75.2324C382.199 75.2324 382.523 75.1543 382.789 74.998C383.055 74.8418 383.287 74.6328 383.486 74.3711L384.143 74.8926C384.006 75.0996 383.832 75.2969 383.621 75.4844C383.41 75.6719 383.15 75.8242 382.842 75.9414C382.537 76.0586 382.176 76.1172 381.758 76.1172ZM386.668 67V76H385.578V67H386.668ZM389.586 67V76H388.496V67H389.586ZM395.48 69.6602V76H394.391V69.6602H395.48ZM394.309 67.9785C394.309 67.8027 394.361 67.6543 394.467 67.5332C394.576 67.4121 394.736 67.3516 394.947 67.3516C395.154 67.3516 395.312 67.4121 395.422 67.5332C395.535 67.6543 395.592 67.8027 395.592 67.9785C395.592 68.1465 395.535 68.291 395.422 68.4121C395.312 68.5293 395.154 68.5879 394.947 68.5879C394.736 68.5879 394.576 68.5293 394.467 68.4121C394.361 68.291 394.309 68.1465 394.309 67.9785ZM399.875 69.6602V70.4922H396.447V69.6602H399.875ZM397.607 68.1191H398.691V74.4297C398.691 74.6445 398.725 74.8066 398.791 74.916C398.857 75.0254 398.943 75.0977 399.049 75.1328C399.154 75.168 399.268 75.1855 399.389 75.1855C399.479 75.1855 399.572 75.1777 399.67 75.1621C399.771 75.1426 399.848 75.127 399.898 75.1152L399.904 76C399.818 76.0273 399.705 76.0527 399.564 76.0762C399.428 76.1035 399.262 76.1172 399.066 76.1172C398.801 76.1172 398.557 76.0645 398.334 75.959C398.111 75.8535 397.934 75.6777 397.801 75.4316C397.672 75.1816 397.607 74.8457 397.607 74.4238V68.1191ZM405.74 76H404.656V68.9922C404.656 68.5352 404.738 68.1504 404.902 67.8379C405.07 67.5215 405.311 67.2832 405.623 67.123C405.936 66.959 406.307 66.877 406.736 66.877C406.861 66.877 406.986 66.8848 407.111 66.9004C407.24 66.916 407.365 66.9395 407.486 66.9707L407.428 67.8555C407.346 67.8359 407.252 67.8223 407.146 67.8145C407.045 67.8066 406.943 67.8027 406.842 67.8027C406.611 67.8027 406.412 67.8496 406.244 67.9434C406.08 68.0332 405.955 68.166 405.869 68.3418C405.783 68.5176 405.74 68.7344 405.74 68.9922V76ZM407.088 69.6602V70.4922H403.654V69.6602H407.088ZM408.008 72.9004V72.7656C408.008 72.3086 408.074 71.8848 408.207 71.4941C408.34 71.0996 408.531 70.7578 408.781 70.4688C409.031 70.1758 409.334 69.9492 409.689 69.7891C410.045 69.625 410.443 69.543 410.885 69.543C411.33 69.543 411.73 69.625 412.086 69.7891C412.445 69.9492 412.75 70.1758 413 70.4688C413.254 70.7578 413.447 71.0996 413.58 71.4941C413.713 71.8848 413.779 72.3086 413.779 72.7656V72.9004C413.779 73.3574 413.713 73.7812 413.58 74.1719C413.447 74.5625 413.254 74.9043 413 75.1973C412.75 75.4863 412.447 75.7129 412.092 75.877C411.74 76.0371 411.342 76.1172 410.896 76.1172C410.451 76.1172 410.051 76.0371 409.695 75.877C409.34 75.7129 409.035 75.4863 408.781 75.1973C408.531 74.9043 408.34 74.5625 408.207 74.1719C408.074 73.7812 408.008 73.3574 408.008 72.9004ZM409.092 72.7656V72.9004C409.092 73.2168 409.129 73.5156 409.203 73.7969C409.277 74.0742 409.389 74.3203 409.537 74.5352C409.689 74.75 409.879 74.9199 410.105 75.0449C410.332 75.166 410.596 75.2266 410.896 75.2266C411.193 75.2266 411.453 75.166 411.676 75.0449C411.902 74.9199 412.09 74.75 412.238 74.5352C412.387 74.3203 412.498 74.0742 412.572 73.7969C412.65 73.5156 412.689 73.2168 412.689 72.9004V72.7656C412.689 72.4531 412.65 72.1582 412.572 71.8809C412.498 71.5996 412.385 71.3516 412.232 71.1367C412.084 70.918 411.896 70.7461 411.67 70.6211C411.447 70.4961 411.186 70.4336 410.885 70.4336C410.588 70.4336 410.326 70.4961 410.1 70.6211C409.877 70.7461 409.689 70.918 409.537 71.1367C409.389 71.3516 409.277 71.5996 409.203 71.8809C409.129 72.1582 409.092 72.4531 409.092 72.7656ZM416.223 70.6562V76H415.139V69.6602H416.193L416.223 70.6562ZM418.203 69.625L418.197 70.6328C418.107 70.6133 418.021 70.6016 417.939 70.5977C417.861 70.5898 417.771 70.5859 417.67 70.5859C417.42 70.5859 417.199 70.625 417.008 70.7031C416.816 70.7812 416.654 70.8906 416.521 71.0312C416.389 71.1719 416.283 71.3398 416.205 71.5352C416.131 71.7266 416.082 71.9375 416.059 72.168L415.754 72.3438C415.754 71.9609 415.791 71.6016 415.865 71.2656C415.943 70.9297 416.062 70.6328 416.223 70.375C416.383 70.1133 416.586 69.9102 416.832 69.7656C417.082 69.6172 417.379 69.543 417.723 69.543C417.801 69.543 417.891 69.5527 417.992 69.5723C418.094 69.5879 418.164 69.6055 418.203 69.625ZM423.26 70.9199V76H422.17V69.6602H423.201L423.26 70.9199ZM423.037 72.5898L422.533 72.5723C422.537 72.1387 422.594 71.7383 422.703 71.3711C422.812 71 422.975 70.6777 423.189 70.4043C423.404 70.1309 423.672 69.9199 423.992 69.7715C424.312 69.6191 424.684 69.543 425.105 69.543C425.402 69.543 425.676 69.5859 425.926 69.6719C426.176 69.7539 426.393 69.8848 426.576 70.0645C426.76 70.2441 426.902 70.4746 427.004 70.7559C427.105 71.0371 427.156 71.377 427.156 71.7754V76H426.072V71.8281C426.072 71.4961 426.016 71.2305 425.902 71.0312C425.793 70.832 425.637 70.6875 425.434 70.5977C425.23 70.5039 424.992 70.457 424.719 70.457C424.398 70.457 424.131 70.5137 423.916 70.627C423.701 70.7402 423.529 70.8965 423.4 71.0957C423.271 71.2949 423.178 71.5234 423.119 71.7812C423.064 72.0352 423.037 72.3047 423.037 72.5898ZM427.145 71.9922L426.418 72.2148C426.422 71.8672 426.479 71.5332 426.588 71.2129C426.701 70.8926 426.863 70.6074 427.074 70.3574C427.289 70.1074 427.553 69.9102 427.865 69.7656C428.178 69.6172 428.535 69.543 428.938 69.543C429.277 69.543 429.578 69.5879 429.84 69.6777C430.105 69.7676 430.328 69.9062 430.508 70.0938C430.691 70.2773 430.83 70.5137 430.924 70.8027C431.018 71.0918 431.064 71.4355 431.064 71.834V76H429.975V71.8223C429.975 71.4668 429.918 71.1914 429.805 70.9961C429.695 70.7969 429.539 70.6582 429.336 70.5801C429.137 70.498 428.898 70.457 428.621 70.457C428.383 70.457 428.172 70.498 427.988 70.5801C427.805 70.6621 427.65 70.7754 427.525 70.9199C427.4 71.0605 427.305 71.2227 427.238 71.4062C427.176 71.5898 427.145 71.7852 427.145 71.9922ZM435.336 76.1172C434.895 76.1172 434.494 76.043 434.135 75.8945C433.779 75.7422 433.473 75.5293 433.215 75.2559C432.961 74.9824 432.766 74.6582 432.629 74.2832C432.492 73.9082 432.424 73.498 432.424 73.0527V72.8066C432.424 72.291 432.5 71.832 432.652 71.4297C432.805 71.0234 433.012 70.6797 433.273 70.3984C433.535 70.1172 433.832 69.9043 434.164 69.7598C434.496 69.6152 434.84 69.543 435.195 69.543C435.648 69.543 436.039 69.6211 436.367 69.7773C436.699 69.9336 436.971 70.1523 437.182 70.4336C437.393 70.7109 437.549 71.0391 437.65 71.418C437.752 71.793 437.803 72.2031 437.803 72.6484V73.1348H433.068V72.25H436.719V72.168C436.703 71.8867 436.645 71.6133 436.543 71.3477C436.445 71.082 436.289 70.8633 436.074 70.6914C435.859 70.5195 435.566 70.4336 435.195 70.4336C434.949 70.4336 434.723 70.4863 434.516 70.5918C434.309 70.6934 434.131 70.8457 433.982 71.0488C433.834 71.252 433.719 71.5 433.637 71.793C433.555 72.0859 433.514 72.4238 433.514 72.8066V73.0527C433.514 73.3535 433.555 73.6367 433.637 73.9023C433.723 74.1641 433.846 74.3945 434.006 74.5938C434.17 74.793 434.367 74.9492 434.598 75.0625C434.832 75.1758 435.098 75.2324 435.395 75.2324C435.777 75.2324 436.102 75.1543 436.367 74.998C436.633 74.8418 436.865 74.6328 437.064 74.3711L437.721 74.8926C437.584 75.0996 437.41 75.2969 437.199 75.4844C436.988 75.6719 436.729 75.8242 436.42 75.9414C436.115 76.0586 435.754 76.1172 435.336 76.1172ZM443.129 70.8789V78.4375H442.039V69.6602H443.035L443.129 70.8789ZM447.4 72.7773V72.9004C447.4 73.3613 447.346 73.7891 447.236 74.1836C447.127 74.5742 446.967 74.9141 446.756 75.2031C446.549 75.4922 446.293 75.7168 445.988 75.877C445.684 76.0371 445.334 76.1172 444.939 76.1172C444.537 76.1172 444.182 76.0508 443.873 75.918C443.564 75.7852 443.303 75.5918 443.088 75.3379C442.873 75.084 442.701 74.7793 442.572 74.4238C442.447 74.0684 442.361 73.668 442.314 73.2227V72.5664C442.361 72.0977 442.449 71.6777 442.578 71.3066C442.707 70.9355 442.877 70.6191 443.088 70.3574C443.303 70.0918 443.562 69.8906 443.867 69.7539C444.172 69.6133 444.523 69.543 444.922 69.543C445.32 69.543 445.674 69.6211 445.982 69.7773C446.291 69.9297 446.551 70.1484 446.762 70.4336C446.973 70.7188 447.131 71.0605 447.236 71.459C447.346 71.8535 447.4 72.293 447.4 72.7773ZM446.311 72.9004V72.7773C446.311 72.4609 446.277 72.1641 446.211 71.8867C446.145 71.6055 446.041 71.3594 445.9 71.1484C445.764 70.9336 445.588 70.7656 445.373 70.6445C445.158 70.5195 444.902 70.457 444.605 70.457C444.332 70.457 444.094 70.5039 443.891 70.5977C443.691 70.6914 443.521 70.8184 443.381 70.9785C443.24 71.1348 443.125 71.3145 443.035 71.5176C442.949 71.7168 442.885 71.9238 442.842 72.1387V73.6562C442.92 73.9297 443.029 74.1875 443.17 74.4297C443.311 74.668 443.498 74.8613 443.732 75.0098C443.967 75.1543 444.262 75.2266 444.617 75.2266C444.91 75.2266 445.162 75.166 445.373 75.0449C445.588 74.9199 445.764 74.75 445.9 74.5352C446.041 74.3203 446.145 74.0742 446.211 73.7969C446.277 73.5156 446.311 73.2168 446.311 72.9004ZM449.961 67V76H448.871V67H449.961ZM454.332 76.1172C453.891 76.1172 453.49 76.043 453.131 75.8945C452.775 75.7422 452.469 75.5293 452.211 75.2559C451.957 74.9824 451.762 74.6582 451.625 74.2832C451.488 73.9082 451.42 73.498 451.42 73.0527V72.8066C451.42 72.291 451.496 71.832 451.648 71.4297C451.801 71.0234 452.008 70.6797 452.27 70.3984C452.531 70.1172 452.828 69.9043 453.16 69.7598C453.492 69.6152 453.836 69.543 454.191 69.543C454.645 69.543 455.035 69.6211 455.363 69.7773C455.695 69.9336 455.967 70.1523 456.178 70.4336C456.389 70.7109 456.545 71.0391 456.646 71.418C456.748 71.793 456.799 72.2031 456.799 72.6484V73.1348H452.064V72.25H455.715V72.168C455.699 71.8867 455.641 71.6133 455.539 71.3477C455.441 71.082 455.285 70.8633 455.07 70.6914C454.855 70.5195 454.562 70.4336 454.191 70.4336C453.945 70.4336 453.719 70.4863 453.512 70.5918C453.305 70.6934 453.127 70.8457 452.979 71.0488C452.83 71.252 452.715 71.5 452.633 71.793C452.551 72.0859 452.51 72.4238 452.51 72.8066V73.0527C452.51 73.3535 452.551 73.6367 452.633 73.9023C452.719 74.1641 452.842 74.3945 453.002 74.5938C453.166 74.793 453.363 74.9492 453.594 75.0625C453.828 75.1758 454.094 75.2324 454.391 75.2324C454.773 75.2324 455.098 75.1543 455.363 74.998C455.629 74.8418 455.861 74.6328 456.061 74.3711L456.717 74.8926C456.58 75.0996 456.406 75.2969 456.195 75.4844C455.984 75.6719 455.725 75.8242 455.416 75.9414C455.111 76.0586 454.75 76.1172 454.332 76.1172ZM461.803 74.916V71.6523C461.803 71.4023 461.752 71.1855 461.65 71.002C461.553 70.8145 461.404 70.6699 461.205 70.5684C461.006 70.4668 460.76 70.416 460.467 70.416C460.193 70.416 459.953 70.4629 459.746 70.5566C459.543 70.6504 459.383 70.7734 459.266 70.9258C459.152 71.0781 459.096 71.2422 459.096 71.418H458.012C458.012 71.1914 458.07 70.9668 458.188 70.7441C458.305 70.5215 458.473 70.3203 458.691 70.1406C458.914 69.957 459.18 69.8125 459.488 69.707C459.801 69.5977 460.148 69.543 460.531 69.543C460.992 69.543 461.398 69.6211 461.75 69.7773C462.105 69.9336 462.383 70.1699 462.582 70.4863C462.785 70.7988 462.887 71.1914 462.887 71.6641V74.6172C462.887 74.8281 462.904 75.0527 462.939 75.291C462.979 75.5293 463.035 75.7344 463.109 75.9062V76H461.979C461.924 75.875 461.881 75.709 461.85 75.502C461.818 75.291 461.803 75.0957 461.803 74.916ZM461.99 72.1562L462.002 72.918H460.906C460.598 72.918 460.322 72.9434 460.08 72.9941C459.838 73.041 459.635 73.1133 459.471 73.2109C459.307 73.3086 459.182 73.4316 459.096 73.5801C459.01 73.7246 458.967 73.8945 458.967 74.0898C458.967 74.2891 459.012 74.4707 459.102 74.6348C459.191 74.7988 459.326 74.9297 459.506 75.0273C459.689 75.1211 459.914 75.168 460.18 75.168C460.512 75.168 460.805 75.0977 461.059 74.957C461.312 74.8164 461.514 74.6445 461.662 74.4414C461.814 74.2383 461.896 74.041 461.908 73.8496L462.371 74.3711C462.344 74.5352 462.27 74.7168 462.148 74.916C462.027 75.1152 461.865 75.3066 461.662 75.4902C461.463 75.6699 461.225 75.8203 460.947 75.9414C460.674 76.0586 460.365 76.1172 460.021 76.1172C459.592 76.1172 459.215 76.0332 458.891 75.8652C458.57 75.6973 458.32 75.4727 458.141 75.1914C457.965 74.9062 457.877 74.5879 457.877 74.2363C457.877 73.8965 457.943 73.5977 458.076 73.3398C458.209 73.0781 458.4 72.8613 458.65 72.6895C458.9 72.5137 459.201 72.3809 459.553 72.291C459.904 72.2012 460.297 72.1562 460.73 72.1562H461.99ZM468.283 74.3184C468.283 74.1621 468.248 74.0176 468.178 73.8848C468.111 73.748 467.973 73.625 467.762 73.5156C467.555 73.4023 467.242 73.3047 466.824 73.2227C466.473 73.1484 466.154 73.0605 465.869 72.959C465.588 72.8574 465.348 72.7344 465.148 72.5898C464.953 72.4453 464.803 72.2754 464.697 72.0801C464.592 71.8848 464.539 71.6562 464.539 71.3945C464.539 71.1445 464.594 70.9082 464.703 70.6855C464.816 70.4629 464.975 70.2656 465.178 70.0938C465.385 69.9219 465.633 69.7871 465.922 69.6895C466.211 69.5918 466.533 69.543 466.889 69.543C467.396 69.543 467.83 69.6328 468.189 69.8125C468.549 69.9922 468.824 70.2324 469.016 70.5332C469.207 70.8301 469.303 71.1602 469.303 71.5234H468.219C468.219 71.3477 468.166 71.1777 468.061 71.0137C467.959 70.8457 467.809 70.707 467.609 70.5977C467.414 70.4883 467.174 70.4336 466.889 70.4336C466.588 70.4336 466.344 70.4805 466.156 70.5742C465.973 70.6641 465.838 70.7793 465.752 70.9199C465.67 71.0605 465.629 71.209 465.629 71.3652C465.629 71.4824 465.648 71.5879 465.688 71.6816C465.73 71.7715 465.805 71.8555 465.91 71.9336C466.016 72.0078 466.164 72.0781 466.355 72.1445C466.547 72.2109 466.791 72.2773 467.088 72.3438C467.607 72.4609 468.035 72.6016 468.371 72.7656C468.707 72.9297 468.957 73.1309 469.121 73.3691C469.285 73.6074 469.367 73.8965 469.367 74.2363C469.367 74.5137 469.309 74.7676 469.191 74.998C469.078 75.2285 468.912 75.4277 468.693 75.5957C468.479 75.7598 468.221 75.8887 467.92 75.9824C467.623 76.0723 467.289 76.1172 466.918 76.1172C466.359 76.1172 465.887 76.0176 465.5 75.8184C465.113 75.6191 464.82 75.3613 464.621 75.0449C464.422 74.7285 464.322 74.3945 464.322 74.043H465.412C465.428 74.3398 465.514 74.5762 465.67 74.752C465.826 74.9238 466.018 75.0469 466.244 75.1211C466.471 75.1914 466.695 75.2266 466.918 75.2266C467.215 75.2266 467.463 75.1875 467.662 75.1094C467.865 75.0312 468.02 74.9238 468.125 74.7871C468.23 74.6504 468.283 74.4941 468.283 74.3184ZM473.422 76.1172C472.98 76.1172 472.58 76.043 472.221 75.8945C471.865 75.7422 471.559 75.5293 471.301 75.2559C471.047 74.9824 470.852 74.6582 470.715 74.2832C470.578 73.9082 470.51 73.498 470.51 73.0527V72.8066C470.51 72.291 470.586 71.832 470.738 71.4297C470.891 71.0234 471.098 70.6797 471.359 70.3984C471.621 70.1172 471.918 69.9043 472.25 69.7598C472.582 69.6152 472.926 69.543 473.281 69.543C473.734 69.543 474.125 69.6211 474.453 69.7773C474.785 69.9336 475.057 70.1523 475.268 70.4336C475.479 70.7109 475.635 71.0391 475.736 71.418C475.838 71.793 475.889 72.2031 475.889 72.6484V73.1348H471.154V72.25H474.805V72.168C474.789 71.8867 474.73 71.6133 474.629 71.3477C474.531 71.082 474.375 70.8633 474.16 70.6914C473.945 70.5195 473.652 70.4336 473.281 70.4336C473.035 70.4336 472.809 70.4863 472.602 70.5918C472.395 70.6934 472.217 70.8457 472.068 71.0488C471.92 71.252 471.805 71.5 471.723 71.793C471.641 72.0859 471.6 72.4238 471.6 72.8066V73.0527C471.6 73.3535 471.641 73.6367 471.723 73.9023C471.809 74.1641 471.932 74.3945 472.092 74.5938C472.256 74.793 472.453 74.9492 472.684 75.0625C472.918 75.1758 473.184 75.2324 473.48 75.2324C473.863 75.2324 474.188 75.1543 474.453 74.998C474.719 74.8418 474.951 74.6328 475.15 74.3711L475.807 74.8926C475.67 75.0996 475.496 75.2969 475.285 75.4844C475.074 75.6719 474.814 75.8242 474.506 75.9414C474.201 76.0586 473.84 76.1172 473.422 76.1172ZM479.51 73.5977H478.42C478.424 73.2227 478.457 72.916 478.52 72.6777C478.586 72.4355 478.693 72.2148 478.842 72.0156C478.99 71.8164 479.188 71.5898 479.434 71.3359C479.613 71.1523 479.777 70.9805 479.926 70.8203C480.078 70.6562 480.201 70.4805 480.295 70.293C480.389 70.1016 480.436 69.873 480.436 69.6074C480.436 69.3379 480.387 69.1055 480.289 68.9102C480.195 68.7148 480.055 68.5645 479.867 68.459C479.684 68.3535 479.455 68.3008 479.182 68.3008C478.955 68.3008 478.74 68.3418 478.537 68.4238C478.334 68.5059 478.17 68.6328 478.045 68.8047C477.92 68.9727 477.855 69.1934 477.852 69.4668H476.768C476.775 69.0254 476.885 68.6465 477.096 68.3301C477.311 68.0137 477.6 67.7715 477.963 67.6035C478.326 67.4355 478.732 67.3516 479.182 67.3516C479.678 67.3516 480.1 67.4414 480.447 67.6211C480.799 67.8008 481.066 68.0586 481.25 68.3945C481.434 68.7266 481.525 69.1211 481.525 69.5781C481.525 69.9297 481.453 70.2539 481.309 70.5508C481.168 70.8438 480.986 71.1191 480.764 71.377C480.541 71.6348 480.305 71.8809 480.055 72.1152C479.84 72.3145 479.695 72.5391 479.621 72.7891C479.547 73.0391 479.51 73.3086 479.51 73.5977ZM478.373 75.4551C478.373 75.2793 478.428 75.1309 478.537 75.0098C478.646 74.8887 478.805 74.8281 479.012 74.8281C479.223 74.8281 479.383 74.8887 479.492 75.0098C479.602 75.1309 479.656 75.2793 479.656 75.4551C479.656 75.623 479.602 75.7676 479.492 75.8887C479.383 76.0098 479.223 76.0703 479.012 76.0703C478.805 76.0703 478.646 76.0098 478.537 75.8887C478.428 75.7676 478.373 75.623 478.373 75.4551Z" fill="white"/>
<mask id="mask0_1199_87893" style="mask-type:alpha" maskUnits="userSpaceOnUse" x="508" y="12" width="60" height="60">
<path d="M508 42C508 25.4315 521.431 12 538 12C554.569 12 568 25.4315 568 42C568 58.5685 554.569 72 538 72C521.431 72 508 58.5685 508 42Z" fill="#F5F3F9"/>
</mask>
<g mask="url(#mask0_1199_87893)">
<path d="M518.802 48.0796C519.635 52.4382 525.513 60.5706 537.271 60.4749C543.383 60.4217 548.646 57.1546 552.313 53.7812C552.55 53.565 552.781 53.3453 553.004 53.1256C555.974 50.227 557.731 47.3957 557.798 46.6091C557.944 44.8444 557.359 37.3994 554.811 32.7432C551.562 31.1025 546.654 24.547 543.989 21.1027C543.784 20.8405 543.593 20.5924 543.415 20.3692C543.015 19.8589 542.692 19.4656 542.466 19.2246C540.846 17.5095 535.166 16.7725 533.89 20.0078C533.89 20.0078 530.414 19.2247 529.433 22.4563C528.454 25.6916 521.155 27.2578 519.734 30.4435C518.313 33.6255 521.251 38.4766 521.251 38.4766C521.251 38.4766 517.969 43.7175 518.802 48.0796Z" fill="url(#paint0_linear_1199_87893)"/>
<g style="mix-blend-mode:multiply" opacity="0.3">
<g style="mix-blend-mode:multiply">
<g style="mix-blend-mode:multiply">
<path d="M543.415 20.3691C544.007 22.311 544.184 24.2174 544.34 25.9183C544.577 28.5015 544.787 30.734 546.261 32.4243C547.334 33.6574 548.419 34.196 549.468 34.7169C550.867 35.415 552.193 36.0741 553.213 38.4341C554.928 42.3922 554.457 49.5431 552.313 53.7811C552.55 53.565 552.781 53.3453 553.004 53.1256C554.861 48.7493 555.18 42.0874 553.539 38.2923C552.465 35.8154 551.083 35.1279 549.624 34.4015C548.606 33.8948 547.558 33.3704 546.526 32.1903C545.127 30.5887 544.925 28.4094 544.694 25.8829C544.56 24.4123 544.407 22.7858 543.989 21.1026C543.784 20.8404 543.592 20.5923 543.415 20.3691Z" fill="#311E2D"/>
</g>
</g>
</g>
<g style="mix-blend-mode:multiply" opacity="0.3">
<g style="mix-blend-mode:multiply">
<g style="mix-blend-mode:multiply">
<path d="M532.465 54.9767L532.513 54.6258C532.425 54.6133 523.644 53.3665 522.459 50.1669C521.115 46.5397 521.666 42.511 524.052 38.5165L524.118 38.4048L524.032 38.3075C522.464 36.5513 521.95 34.1996 522.724 32.316C523.606 30.1685 525.981 28.8677 529.41 28.6535L529.388 28.2998C525.816 28.523 523.333 29.9017 522.396 32.1814C521.586 34.1546 522.091 36.5998 523.681 38.4456C521.295 42.4992 520.757 46.5923 522.127 50.2901C523.385 53.6873 532.094 54.9258 532.465 54.9767Z" fill="#311E2D"/>
</g>
</g>
</g>
<path d="M527.971 45.2861C531.536 51.0691 529.187 55.7218 526.78 56.5049C524.234 52.2917 524.704 46.6574 527.971 45.2861ZM527.111 55.6934C528.893 55.0237 530.584 51.0444 527.853 46.1011C525.435 47.274 525.156 52.0897 527.111 55.6934Z" fill="#A1C5A9"/>
<path d="M542.001 50.4424C542.001 50.7446 541.548 62.1532 541.548 62.1532L534.295 62.0021L535.126 53.6912L542.001 50.4424Z" fill="url(#paint1_radial_1199_87893)"/>
<path d="M525.031 47.0062C526.328 50.4896 532.682 56.0245 532.682 56.0245C532.682 56.0245 540.747 54.2492 543.819 50.1494C546.895 46.0495 546.898 38.9845 546.898 38.9845C545.576 38.8041 540.286 31.6517 541.293 27.0526C538.284 25.0718 533.433 25.21 530.223 25.823C528.515 27.5771 527.214 30.2064 526.3 33.0448C525.439 35.6989 524.915 38.5372 524.702 41.0142C524.472 43.6222 524.592 45.8298 525.031 47.0062Z" fill="#DF7738"/>
<path d="M530.223 25.823C529.041 23.731 528.502 19.8117 528.992 18.293C529.482 16.7743 534.185 17.4112 535.508 18.587C536.83 19.7627 533.499 25.8866 533.352 25.8866C533.205 25.8866 530.223 25.823 530.223 25.823Z" fill="url(#paint2_linear_1199_87893)"/>
<path d="M533.891 20.0072C532.911 21.9179 532.96 25.9841 532.96 25.9841C532.96 25.9841 537.026 26.9149 537.81 25.9841C538.594 25.0532 537.516 19.6153 536.144 19.0274C534.773 18.4395 533.891 20.0072 533.891 20.0072Z" fill="#29132A"/>
<path d="M524.702 41.0139C526.555 41.7155 530.687 41.5419 530.903 41.0245C531.148 40.4362 531.981 38.1358 530.266 33.7737C530.266 33.7737 527.53 32.7007 526.3 33.0445C525.439 35.6986 524.915 38.537 524.702 41.0139Z" fill="url(#paint3_radial_1199_87893)"/>
<path d="M533.205 42.2987C538.104 43.1315 542.856 40.584 542.954 38.6244C543.052 36.6648 541.534 34.2152 540.064 33.7253C538.594 33.2354 535.067 32.8925 533.793 34.3622C532.519 35.8319 532.323 40.9759 532.323 40.9759L533.205 42.2987Z" fill="url(#paint4_radial_1199_87893)"/>
<path d="M541.975 38.2595C542.165 35.5481 536.787 35.4189 535.886 36.5946C534.792 38.0216 535.363 39.9719 535.363 40.4476C536.552 39.2108 540.88 38.2119 541.975 38.2595Z" fill="#311E2D"/>
<path d="M541.975 38.2591C540.167 36.4991 537.002 36.0558 536.076 37.2126C535.505 37.9262 535.363 39.9716 535.363 40.4473C536.552 39.2105 540.881 38.2116 541.975 38.2591Z" fill="white"/>
<path d="M537.98 39.683C537.057 39.3214 536.601 38.2797 536.963 37.3563C537.324 36.4328 538.366 35.9773 539.289 36.3389C540.213 36.7004 540.668 37.7421 540.307 38.6655C539.945 39.589 538.904 40.0445 537.98 39.683Z" fill="url(#paint5_linear_1199_87893)"/>
<path d="M536.521 37.6707C536.521 37.889 536.698 38.066 536.916 38.066C537.135 38.066 537.312 37.889 537.312 37.6707C537.312 37.4524 537.135 37.2754 536.916 37.2754C536.698 37.2754 536.521 37.4524 536.521 37.6707Z" fill="white"/>
<path d="M530.413 40.633C529.139 39.4573 526.689 38.5265 526.102 39.1143C525.955 32.5006 531.441 35.489 530.413 40.633Z" fill="#311E2D"/>
<path d="M530.413 40.6328C529.139 39.457 526.689 38.5262 526.101 39.1141C526.934 34.362 530.364 35.4888 530.413 40.6328Z" fill="white"/>
<path d="M529.697 40.0502C528.848 40.0502 528.159 39.2463 528.159 38.2546C528.159 37.2629 528.848 36.459 529.697 36.459C530.547 36.459 531.236 37.2629 531.236 38.2546C531.236 39.2463 530.547 40.0502 529.697 40.0502Z" fill="url(#paint6_linear_1199_87893)"/>
<path d="M527.881 37.698C527.881 37.9163 528.058 38.0933 528.277 38.0933C528.495 38.0933 528.672 37.9163 528.672 37.698C528.672 37.4797 528.495 37.3027 528.277 37.3027C528.058 37.3027 527.881 37.4797 527.881 37.698Z" fill="white"/>
<path d="M533.842 42.0533C533.842 42.0533 535.508 42.6412 535.557 43.1801C535.606 43.719 533.499 45.0907 531.147 44.9438C528.796 44.7968 528.159 43.915 528.159 43.474C528.159 43.0331 529.825 42.0533 530.217 41.9063C530.608 41.7594 531.245 39.7998 531.049 37.1543C530.853 34.5088 529.923 33.333 529.923 33.333L534.577 33.7249C534.577 33.7249 533.205 36.5174 532.813 38.673C532.421 40.8286 533.842 42.0533 533.842 42.0533Z" fill="url(#paint7_linear_1199_87893)"/>
<path d="M530.707 32.4019C530.658 33.1367 530.266 33.7736 530.266 33.7736C530.266 33.7736 526.248 32.7938 525.661 33.4797C525.465 33.2347 525.661 32.2549 525.905 32.0589C526.15 31.863 530.315 32.5978 530.707 32.4019Z" fill="#311E2D"/>
<path d="M534.283 32.5491C534.087 33.088 534.234 34.2148 534.234 34.2148C534.234 34.2148 536.291 33.8228 537.516 33.8228C538.741 33.8228 541.288 34.1168 542.121 35.0476C540.897 32.941 538.104 32.3531 534.283 32.5491Z" fill="#311E2D"/>
<path d="M539.329 44.7969C535.557 47.1484 530.413 47.6873 530.413 47.6873L533.156 49.5979C533.156 49.5979 537.369 48.5202 539.329 44.7969Z" fill="white"/>
<path d="M547.754 45.2861C551.319 51.0691 548.97 55.7218 546.563 56.5049C544.017 52.2917 544.487 46.6574 547.754 45.2861ZM546.894 55.6934C548.676 55.0237 550.367 51.0444 547.636 46.1011C545.218 47.274 544.94 52.0897 546.894 55.6934Z" fill="#A1C5A9"/>
<path d="M543.613 37.2462C545.904 41.5801 544.98 44.5047 543.613 47.5349C542.245 50.5651 543.251 53.243 544.779 54.1943C543.653 52.6792 543.773 48.0986 544.698 46.0198C545.623 43.9409 546.709 41.5801 545.14 38.3033C544.256 36.4557 543.613 37.2462 543.613 37.2462Z" fill="url(#paint8_linear_1199_87893)"/>
<path d="M521.217 74.4121H554.63C553.282 71.5986 550.405 66.4774 546.106 63.187C545.796 62.9437 545.479 62.7197 545.152 62.502C542.989 61.0649 540.502 60.1143 537.695 60.1143C534.766 60.1143 532.215 61.1481 530.038 62.6973C529.718 62.9213 529.411 63.1582 529.11 63.4014C525.071 66.695 522.453 71.6594 521.217 74.4121Z" fill="#406C6E"/>
<path d="M529.11 63.4027L535.198 67.3243L546.105 63.1865C545.796 62.9455 545.478 62.7188 545.152 62.5026C542.99 61.0639 540.502 60.1143 537.696 60.1143C534.765 60.1143 532.214 61.149 530.038 62.6975C529.719 62.9207 529.411 63.1582 529.11 63.4027Z" fill="#FFA200"/>
<path d="M530.038 62.6975L535.201 66.5351L545.152 62.5026C542.99 61.0639 540.502 60.1143 537.696 60.1143C534.765 60.1143 532.214 61.149 530.038 62.6975Z" fill="#DF7738"/>
<path d="M533.891 20.0081C535.948 18.0485 537.222 20.351 537.173 23.7314C537.124 27.1117 537.222 31.8148 539.182 34.8032C541.141 37.7917 544.914 37.9876 546.971 41.0251C549.029 44.0625 548.49 40.0942 548.49 40.0942C548.49 40.0942 545.061 37.3998 543.346 33.4805C541.631 29.5613 541.729 22.8006 539.868 19.9101C538.006 17.0197 535.116 18.2934 533.891 20.0081Z" fill="url(#paint9_linear_1199_87893)"/>
<path d="M545.572 46.3759C546.869 47.0243 548.794 47.5489 549.935 45.7027C550.237 45.2136 550.446 44.5475 550.517 43.6581C550.63 42.23 550.421 41.1173 549.999 40.398C549.167 38.9806 547.966 39.1936 546.382 41.3232C546.382 41.3232 545.71 44.597 545.572 46.3759Z" fill="#DF7738"/>
<path d="M547.714 44.476C549.174 43.7 549.904 44.6142 549.935 45.7021C550.237 45.2131 550.446 44.5469 550.517 43.6575C550.63 42.2294 550.421 41.1168 549.999 40.3975C548.351 41.255 547.838 43.6149 547.714 44.476Z" fill="url(#paint10_radial_1199_87893)"/>
<path d="M547.164 45.5996C547.2 45.8158 547.242 46.078 547.278 46.319C545.198 47.7718 545.042 52.2792 546.895 55.6951C547.143 55.603 547.388 55.4436 547.621 55.2274L547.639 55.8865C547.295 56.177 546.93 56.3861 546.562 56.5066C544.181 52.5591 544.439 47.3678 547.164 45.5996Z" fill="#A1C5A9"/>
</g>
<defs>
<linearGradient id="paint0_linear_1199_87893" x1="538.519" y1="26.4024" x2="538.086" y2="57.6039" gradientUnits="userSpaceOnUse">
<stop stop-color="#5D324C"/>
<stop offset="1" stop-color="#2D1534"/>
</linearGradient>
<radialGradient id="paint1_radial_1199_87893" cx="0" cy="0" r="1" gradientUnits="userSpaceOnUse" gradientTransform="translate(535.27 50.8572) rotate(180) scale(9.46553 9.46554)">
<stop stop-color="#C24B00"/>
<stop offset="0.14012" stop-color="#C65209"/>
<stop offset="0.6969" stop-color="#D86C2B"/>
<stop offset="1" stop-color="#DF7738"/>
</radialGradient>
<linearGradient id="paint2_linear_1199_87893" x1="531.34" y1="17.8736" x2="534.406" y2="26.6489" gradientUnits="userSpaceOnUse">
<stop stop-color="#5D324C"/>
<stop offset="1" stop-color="#2D1534"/>
</linearGradient>
<radialGradient id="paint3_radial_1199_87893" cx="0" cy="0" r="1" gradientUnits="userSpaceOnUse" gradientTransform="translate(532.835 32.5474) rotate(180) scale(8.20288 8.20292)">
<stop stop-color="#C24B00"/>
<stop offset="0.14012" stop-color="#C65209"/>
<stop offset="0.6969" stop-color="#D86C2B"/>
<stop offset="1" stop-color="#DF7738"/>
</radialGradient>
<radialGradient id="paint4_radial_1199_87893" cx="0" cy="0" r="1" gradientUnits="userSpaceOnUse" gradientTransform="translate(536.008 30.7434) rotate(180) scale(8.854 8.85401)">
<stop stop-color="#C24B00"/>
<stop offset="0.14012" stop-color="#C65209"/>
<stop offset="0.6969" stop-color="#D86C2B"/>
<stop offset="1" stop-color="#DF7738"/>
</radialGradient>
<linearGradient id="paint5_linear_1199_87893" x1="538.717" y1="39.265" x2="538.502" y2="35.9835" gradientUnits="userSpaceOnUse">
<stop offset="0.02128" stop-color="#385966"/>
<stop offset="1" stop-color="#251635"/>
</linearGradient>
<linearGradient id="paint6_linear_1199_87893" x1="529.802" y1="39.8484" x2="529.587" y2="36.5669" gradientUnits="userSpaceOnUse">
<stop offset="0.02128" stop-color="#385966"/>
<stop offset="1" stop-color="#251635"/>
</linearGradient>
<linearGradient id="paint7_linear_1199_87893" x1="530.834" y1="51.6206" x2="532.666" y2="36.8098" gradientUnits="userSpaceOnUse">
<stop offset="0.00313" stop-color="#B52000"/>
<stop offset="1" stop-color="#DF7738"/>
</linearGradient>
<linearGradient id="paint8_linear_1199_87893" x1="544.437" y1="48.5041" x2="544.382" y2="58.2102" gradientUnits="userSpaceOnUse">
<stop stop-color="#5D324C"/>
<stop offset="1" stop-color="#2D1534"/>
</linearGradient>
<linearGradient id="paint9_linear_1199_87893" x1="539.869" y1="16.3981" x2="542.514" y2="43.6857" gradientUnits="userSpaceOnUse">
<stop stop-color="#5D324C"/>
<stop offset="1" stop-color="#2D1534"/>
</linearGradient>
<radialGradient id="paint10_radial_1199_87893" cx="0" cy="0" r="1" gradientUnits="userSpaceOnUse" gradientTransform="translate(546.838 42.9512) rotate(180) scale(4.10174 4.10169)">
<stop stop-color="#C24B00"/>
<stop offset="0.14012" stop-color="#C65209"/>
<stop offset="0.6969" stop-color="#D86C2B"/>
<stop offset="1" stop-color="#DF7738"/>
</radialGradient>
</defs>
</svg>
