<svg xmlns="http://www.w3.org/2000/svg" fill="none" viewBox="0 0 568 60"><g clip-path="url(#a)"><path fill="#F5F3F9" d="M0 30C0 13.431 13.431 0 30 0c16.569 0 30 13.431 30 30 0 16.569-13.431 30-30 30C13.431 60 0 46.569 0 30z"/><mask id="b" width="60" height="60" x="0" y="0" maskUnits="userSpaceOnUse" style="mask-type:alpha"><path fill="#F5F3F9" d="M0 30C0 13.431 13.431 0 30 0c16.569 0 30 13.431 30 30 0 16.569-13.431 30-30 30C13.431 60 0 46.569 0 30z"/></mask><g mask="url(#b)"><path fill="url(#c)" d="M45.079 49.768a8.5 8.5 0 0 1-.804.984c-1.227 1.31-2.87 2.285-4.895 2.771a6.8 6.8 0 0 1-.555.117c-.286.057-.578.103-.875.138-9.3 1.083-13.916-1.359-15.408-2.989-1.493-1.627-5.225-15.202 1.63-21.445 6.854-6.245 19.14 4.884 19.14 4.884 4.264 5.2 4.632 11.502 1.767 15.54z"/><g opacity=".1" style="mix-blend-mode:screen"><path fill="#FDA41C" d="M40.13 42.714c2.243 4.08 1.87 7.406.773 9.159-.621.992-1.505 1.533-2.404 1.489l-.015.285c.04.003.08.003.12.003.97 0 1.891-.587 2.541-1.626 1.14-1.821 1.538-5.26-.763-9.448l-.251.138z" style="mix-blend-mode:screen"/><path fill="#FDA41C" d="M39.594 50.555c1.01-1.22 1.407-3.76-.502-7.232l-.25.138c1.84 3.346 1.481 5.764.532 6.911-.663.803-1.662 1.086-2.67.757l-.089.272c.308.1.614.15.913.15.793 0 1.528-.346 2.066-.996zM45.078 49.768a8.489 8.489 0 0 1-.803.984c1.104-1.853 1.956-5.228 1.19-8.033-.57-2.076-1.902-3.449-3.961-4.078l.083-.272c2.13.65 3.566 2.128 4.152 4.275.65 2.371.166 5.148-.66 7.124zM27.807 46.92c-.796-.228-4.052-2.38-4.24-8.08l-.286.01c.222 6.722 4.406 8.332 4.448 8.344.229.066.553.484.795.869-1.26-.551-5.315-2.777-6.044-8.828l-.284.034c.884 7.337 6.558 9.196 6.615 9.214l.332.104-.163-.308c-.065-.123-.654-1.211-1.173-1.36z" style="mix-blend-mode:screen"/></g><path fill="url(#d)" d="M45.852 60h-28.59l4.844-5.406 3.44-3.837.76-.85 1.014-1.123s.308-5.261.507-8.694c.04-.63.075-1.192.102-1.658.035-.719.062-1.185.062-1.233l.473.37 5.522 4.357.301 2.412.548 4.433 2.015 2.144h.006l1.268 1.343 2.569 2.733L45.852 60z"/><path fill="url(#e)" d="M41.104 5.334c4.588 8.558-.126 21.434-.126 21.434l-3.563-9.083 3.69-12.351z"/><path fill="#FFAE8D" d="M25.803 32.458s.017.137.066.386a19.024 19.024 0 0 0 2.056 5.588 17.272 17.272 0 0 0 2.13 3.051c1.21 1.384 2.737 2.277 4.23 2.854 2.977 1.15 5.834 1.044 5.834 1.044s3.386-5.851 3.677-10.152c.18-2.668-.077-3.918-.869-5.854-.18-.44-.389-.918-.626-1.458-.83-1.879-1.061-3.612-1.659-5.814a28.083 28.083 0 0 0-1.373-3.93 30.677 30.677 0 0 0-.763-1.638L25.803 32.458z"/><path fill="url(#f)" d="M39.492 29.71s1.041-.553 2.265-.184c.384.115.79.026 1.17-.151-.18-.44-.39-.918-.626-1.459-.83-1.878-1.061-3.611-1.659-5.814l-1.986.158c-.834 1.77.836 7.45.836 7.45z"/><path fill="url(#g)" d="M36.354 24.371c1.172 1.266 1.594 3.704 1.5 5.298-.093 1.595-6.517 2.485-7.642.329-1.126-2.157 2.766-5.252 3.235-5.346.469-.093 2.907-.28 2.907-.28z"/><path fill="#FFAE8D" d="M27.758 36.842s-.203.132-.507.263c-.549.24-1.427.48-2.036-.048-.95-.818-1.338-3.492-1.338-3.492l1.993-.72.51-.184 1.378 4.181z"/><path fill="#5D3000" d="m35.949 26.883.036-.448s-2.443.192-3.102.764c-.658.573-1.289 1.883-1.289 1.883l2.96-1.273 1.395-.926z"/><path fill="#B05600" d="M33.866 25.089s1.977.086 2.377-.172c.401-.258.516-1.117.516-1.117s-1.862.343-2.263.343c-.4 0-.63.946-.63.946zM38.22 22.769a6.673 6.673 0 0 1 .888-1.318l2.205-.086-.516 1.003s-1.346-.143-2.577.4z"/><path fill="#fff" d="M31.595 29.082c2.457-.733 4.613-.604 4.613-.604l-.26-1.595s-1.884.145-2.747.533c-.862.388-1.607 1.666-1.607 1.666z"/><path fill="url(#h)" d="M35.04 29.098c.728 0 1.318-.667 1.318-1.49 0-.822-.59-1.489-1.318-1.489-.727 0-1.317.667-1.317 1.49 0 .822.59 1.489 1.317 1.489z"/><path fill="#fff" d="M34.192 27.287a.343.343 0 1 1-.686 0 .343.343 0 0 1 .686 0z"/><path fill="#B74970" d="M39.27 18.174c-2.01 7.578-8.395 12.02-10.806 19.397-.129.39-.246.79-.349 1.195-.112.432-.206.873-.286 1.325.037-.63.072-1.196.097-1.66a18.192 18.192 0 0 1-.675-1.326c-.549.24-1.427.48-2.036-.049-.95-.817-1.338-3.491-1.338-3.491l1.993-.721a6.406 6.406 0 0 1-.066-.386l12.703-15.923c.289.575.54 1.121.764 1.639z" opacity=".2" style="mix-blend-mode:multiply"/><path fill="#5D3000" d="M38.46 25.481c.712-.949 2.076-.949 2.076-.949l.06.623-1.987.86-.149-.534z"/><path fill="#fff" d="M38.493 25.805c1.638-1.078 2.102-.828 2.102-.828s.593 1.601.27 2.811c-.418.066-1.855.56-1.855.56l-.517-2.543z"/><path fill="url(#i)" d="M40.597 27.695c.474 0 .859-.667.859-1.49 0-.822-.385-1.49-.859-1.49s-.858.668-.858 1.49c0 .823.384 1.49.858 1.49z"/><path fill="#fff" d="M40.057 26.155a.343.343 0 1 1-.686 0 .343.343 0 0 1 .686 0z"/><path fill="#FF7B5D" d="M38.775 37.74c-2.734-.378-4.256-2.1-4.256-2.1 1.906-.085 2.894-.738 4.52-.728 1.587.014 1.966.279 1.644.81-.004.011-.014.024-.02.036.015.035.029.074.042.108.24.712-.6 2.059-1.93 1.874z"/><path fill="#EB5000" d="M40.705 35.867c-1.228.63-4.955.44-5.96-.127 1.299.409 5.045.528 5.938-.018-.004.012-.014.025-.02.036l.042.109z" opacity=".3" style="mix-blend-mode:multiply"/><path fill="url(#j)" d="M14.055 40.903c2.15 8.104 10.01 11.496 10.01 11.496l.154-.186.183-.22.489-.586s-1.256-1.85-1.673-4.902a3.687 3.687 0 0 1-.034-.26c-.012-.072-.018-.146-.026-.22a14.34 14.34 0 0 1-.032-.355c-.148-1.902.049-4.192 1.015-6.749v-.003c.055-.143.112-.289.172-.434a17.722 17.722 0 0 1 .764-1.64v-.002c.294-.569.632-1.15 1.012-1.739a36.23 36.23 0 0 1 2.113-2.925c0-.003.003-.003.003-.003.132-.166.263-.329.398-.492 5.808-7.08 12.49-11.047 12.5-26.35 0 0-1.479-.06-4.716.867-.095.026-.189.055-.286.083-1.725.506-3.92 1.284-6.629 2.482-.097.04-.195.083-.292.126a92.82 92.82 0 0 0-3.125 1.473 114.831 114.831 0 0 0-5.214 2.765l-.263.15c-.263.148-.529.302-.798.457a148.759 148.759 0 0 0-4.598 2.76c-.088.056-.177.11-.266.168-.472.295-.952.6-1.438.912.826 5.045-1.573 15.22.577 23.327z"/><path fill="#F48B79" d="M38.46 22.665c-.473 3.585.862 7.38.862 7.38s2.213-.374 2.713.138-.986 2.754-.986 2.754 1.843-2.085 1.371-2.842c-.558-.896-2.826-.413-2.826-.413s-1.08-2.619-1.134-7.017z"/><path fill="#FBC0D7" d="M45.852 60h-28.59l4.844-5.405c6.879 4.254 14.654 2.5 18.587.397L45.852 60z"/><path fill="#FBC0D7" d="m28.25 57.632-.93.246s-.169-4.464-1.776-7.117l.764-.85c2.082 2.302 1.942 7.721 1.942 7.721zM38.121 52.26c-.077 1.572-.66 4.783-.66 4.783l-.833.15s.62-3.473.226-6.275l1.267 1.341z"/><g opacity=".3" style="mix-blend-mode:screen"><path fill="#FFCB3A" d="M29.473 8.766c-.097.04-.194.083-.292.125-.046 5.34-1.24 9.912-2.408 14.35-1.246 4.75-2.427 9.255-1.939 14.079.078-.16.158-.315.244-.475v-.003c-.37-4.607.772-8.953 1.973-13.526 1.178-4.493 2.393-9.123 2.422-14.55z" style="mix-blend-mode:screen"/><path fill="#FFCB3A" d="M24.314 38.483c-.96-3.643-.134-8.533.732-13.67.818-4.843 1.662-9.825 1.287-14.586l-.277.137c.349 4.693-.484 9.617-1.29 14.401-.9 5.34-1.759 10.415-.623 14.153.054-.143.111-.289.171-.435zM23.218 46.505a3.758 3.758 0 0 1-.035-.26c-.011-.072-.017-.146-.025-.22-.012-.118-.023-.235-.032-.355-3.397-4.93-2.88-9.846-2.23-16.012.497-4.736 1.06-10.055-.055-16.53-.085.05-.174.101-.263.15 1.084 6.391.53 11.656.035 16.351-.627 5.951-1.136 10.756 1.844 15.549-3.389-4.542-2.988-11.19-2.574-18.182.26-4.407.532-8.951-.103-13.26a6.46 6.46 0 0 0-.266.154c.61 4.246.344 8.736.083 13.088-.457 7.662-.89 14.92 3.62 19.527z" style="mix-blend-mode:screen"/><path fill="#FFCB3A" d="M17.156 42.733c-2.081-4.587-1.924-8.65-1.727-13.795.137-3.535.289-7.496-.246-12.443l-.266.169c.51 4.864.36 8.77.226 12.265-.2 5.182-.357 9.274 1.753 13.921 2.188 4.825 5.225 7.77 7.324 9.363l.183-.22c-2.068-1.568-5.076-4.476-7.247-9.26zM36.102 6.283c-.066 8.37-2.848 14.098-5.102 18.748-1.258 2.591-2.365 4.876-2.794 7.144.132-.166.263-.329.398-.492.483-2.056 1.507-4.164 2.654-6.529 2.276-4.69 5.081-10.475 5.13-18.954-.095.026-.189.055-.286.083z" style="mix-blend-mode:screen"/></g></g><path fill="#131420" d="M81.356 11.803c0-.176-.028-.332-.083-.469a.914.914 0 0 0-.275-.375 2.269 2.269 0 0 0-.563-.328 7.461 7.461 0 0 0-.913-.334 10.126 10.126 0 0 1-1.126-.416 4.28 4.28 0 0 1-.89-.54 2.305 2.305 0 0 1-.592-.708c-.14-.27-.21-.58-.21-.932 0-.347.071-.664.216-.949.148-.285.357-.531.627-.738.273-.211.596-.373.967-.487a4.071 4.071 0 0 1 1.23-.175c.633 0 1.178.117 1.635.351.46.234.814.549 1.06.943.25.395.376.83.376 1.307h-1.46c0-.281-.06-.53-.181-.744a1.231 1.231 0 0 0-.54-.516c-.237-.125-.54-.187-.907-.187-.348 0-.637.053-.868.158-.23.106-.402.248-.515.428-.113.18-.17.383-.17.61 0 .16.037.306.111.439.074.129.188.25.34.363.152.11.344.213.574.31.23.098.502.192.815.282.472.14.884.297 1.236.468.352.168.644.36.879.575.234.215.41.459.527.732.117.27.176.576.176.92 0 .36-.072.684-.217.973-.144.285-.351.529-.62.732-.267.2-.587.354-.962.463a4.539 4.539 0 0 1-1.242.158c-.41 0-.814-.055-1.213-.164a3.577 3.577 0 0 1-1.078-.498 2.574 2.574 0 0 1-.773-.844c-.192-.34-.288-.736-.288-1.19h1.471c0 .278.047.514.14.71.098.195.233.355.405.48.172.121.371.211.598.27.23.059.476.088.738.088.344 0 .63-.05.861-.147.235-.097.41-.234.528-.41.117-.176.175-.379.175-.61zM85.386 5v9h-1.405V5h1.406zm-.245 5.596-.457-.006c.004-.438.064-.842.181-1.213.121-.371.29-.693.504-.967a2.243 2.243 0 0 1 1.799-.867c.313 0 .594.043.844.129.254.086.472.224.656.416.184.187.322.433.416.738.098.301.147.668.147 1.102V14h-1.418V9.916c0-.305-.045-.547-.135-.727a.781.781 0 0 0-.381-.386 1.393 1.393 0 0 0-.615-.123c-.254 0-.479.05-.674.152-.192.102-.352.24-.48.416a1.918 1.918 0 0 0-.294.61 2.81 2.81 0 0 0-.093.738zm9.093 2.133V9.704c0-.226-.04-.422-.123-.586a.861.861 0 0 0-.375-.38 1.282 1.282 0 0 0-.62-.135c-.231 0-.43.039-.598.117a.966.966 0 0 0-.393.316.763.763 0 0 0-.14.451h-1.407c0-.25.06-.492.182-.726.12-.235.297-.444.527-.627.23-.184.506-.328.826-.434.32-.105.68-.158 1.078-.158.477 0 .899.08 1.266.24.371.16.662.403.873.727.215.32.322.722.322 1.207v2.818c0 .29.02.549.059.78.043.226.103.423.182.591V14h-1.448a2.503 2.503 0 0 1-.158-.58 4.744 4.744 0 0 1-.053-.691zm.206-2.584.011.873h-1.013c-.262 0-.493.025-.692.076-.2.047-.365.117-.498.21a.915.915 0 0 0-.398.792c0 .168.039.322.117.463a.822.822 0 0 0 .34.322c.152.078.336.117.55.117.29 0 .541-.058.756-.176.219-.12.39-.267.516-.44.125-.175.191-.341.2-.497l.456.627c-.047.16-.127.332-.24.515-.113.184-.262.36-.445.528a2.215 2.215 0 0 1-1.518.563c-.414 0-.783-.083-1.107-.247a1.97 1.97 0 0 1-.762-.674 1.747 1.747 0 0 1-.275-.966c0-.336.062-.633.187-.891.129-.262.316-.48.563-.656.25-.176.554-.309.914-.399.359-.094.77-.14 1.23-.14h1.108zm4.107-1.278V14h-1.412V7.66h1.347l.065 1.207zm1.939-1.248-.011 1.313a3.653 3.653 0 0 0-.575-.047 1.78 1.78 0 0 0-.638.105 1.204 1.204 0 0 0-.744.75c-.067.18-.106.381-.118.604l-.322.023c0-.398.04-.767.117-1.107.078-.34.196-.639.352-.897.16-.258.36-.459.597-.603.243-.145.522-.217.838-.217.086 0 .178.008.276.023.101.016.178.034.228.053zm.463 3.281v-.134c0-.457.067-.881.199-1.272.133-.394.325-.736.575-1.025.254-.293.562-.52.925-.68a3.02 3.02 0 0 1 1.243-.246c.464 0 .879.082 1.242.246.367.16.678.387.931.68.254.289.448.63.581 1.025.132.39.199.815.199 1.272v.134c0 .457-.067.881-.199 1.272-.133.39-.327.732-.581 1.025a2.68 2.68 0 0 1-.925.68c-.364.16-.776.24-1.237.24-.464 0-.881-.08-1.248-.24a2.68 2.68 0 0 1-.925-.68 3.046 3.046 0 0 1-.581-1.025 3.949 3.949 0 0 1-.199-1.272zm1.412-.134v.134c0 .285.03.555.088.809.059.254.151.476.276.668.125.191.285.342.48.451.195.11.428.164.697.164.262 0 .489-.055.68-.164.195-.11.356-.26.48-.451.126-.192.217-.414.276-.668a3.4 3.4 0 0 0 .094-.809v-.134a3.3 3.3 0 0 0-.094-.797 2.053 2.053 0 0 0-.281-.674 1.348 1.348 0 0 0-.481-.457 1.32 1.32 0 0 0-.685-.17c-.266 0-.496.057-.692.17-.191.11-.349.262-.474.457s-.217.42-.276.674c-.058.25-.088.515-.088.797zm7.067-1.752V14h-1.412V7.66h1.33l.082 1.354zm-.252 1.582-.457-.006a4.13 4.13 0 0 1 .187-1.236 3.04 3.04 0 0 1 .516-.967c.223-.27.488-.477.797-.621a2.345 2.345 0 0 1 1.031-.223c.305 0 .58.043.826.129.25.082.463.217.639.404.18.188.316.432.41.733.094.296.141.662.141 1.095V14h-1.418V9.898c0-.304-.045-.544-.135-.72a.754.754 0 0 0-.381-.381 1.427 1.427 0 0 0-.615-.117 1.37 1.37 0 0 0-1.137.568 2.03 2.03 0 0 0-.299.61c-.07.23-.105.476-.105.738z"/><path fill="#F0F5F9" d="M266 20H84a8 8 0 0 0-8 8v24a8 8 0 0 0 8 8h182a8 8 0 0 0 8-8V28a8 8 0 0 0-8-8z"/><path fill="#32375E" d="M92.563 39.137v.92h-4.618v-.92h4.618zm-4.442-3.668V44h-1.13v-8.531h1.13zm5.426 0V44h-1.125v-8.531h1.125zm4.476 8.648c-.441 0-.841-.074-1.2-.222a2.724 2.724 0 0 1-.92-.64 2.841 2.841 0 0 1-.587-.972 3.568 3.568 0 0 1-.205-1.23v-.246c0-.516.076-.975.229-1.377.152-.407.36-.75.62-1.032.263-.28.56-.494.892-.638a2.557 2.557 0 0 1 1.03-.217c.454 0 .845.078 1.173.234.332.157.603.375.814.657.211.277.367.605.469.984.101.375.152.785.152 1.23v.487h-4.734v-.885h3.65v-.082a2.704 2.704 0 0 0-.175-.82 1.475 1.475 0 0 0-.47-.657c-.214-.172-.507-.257-.878-.257a1.475 1.475 0 0 0-1.213.615 2.302 2.302 0 0 0-.346.744c-.082.293-.123.63-.123 1.014v.246c0 .3.041.584.123.85.086.261.21.492.37.69.163.2.36.356.591.47.234.113.5.17.797.17.383 0 .707-.079.973-.235a2.41 2.41 0 0 0 .697-.627l.656.522a3.03 3.03 0 0 1-.521.591c-.211.188-.471.34-.78.457a3.017 3.017 0 0 1-1.084.176zM102.934 35v9h-1.09v-9h1.09zm2.918 0v9h-1.09v-9h1.09zm1.453 5.9v-.134c0-.457.066-.881.199-1.272.133-.394.324-.736.574-1.025.25-.293.553-.52.908-.68a2.822 2.822 0 0 1 1.196-.246c.445 0 .845.082 1.201.246.359.16.664.387.914.68.254.289.447.63.58 1.025.133.39.199.815.199 1.272v.134c0 .457-.066.881-.199 1.272-.133.39-.326.732-.58 1.025-.25.29-.553.516-.908.68-.352.16-.75.24-1.196.24-.445 0-.845-.08-1.201-.24a2.725 2.725 0 0 1-.914-.68 3.1 3.1 0 0 1-.574-1.025 3.922 3.922 0 0 1-.199-1.272zm1.084-.134v.134c0 .317.037.616.111.897.074.277.186.523.334.738.152.215.342.385.568.51.227.121.491.182.791.182.297 0 .557-.061.78-.182.226-.125.414-.295.562-.51.149-.215.26-.46.334-.738.078-.281.117-.58.117-.897v-.134c0-.313-.039-.608-.117-.885a2.261 2.261 0 0 0-.34-.744 1.615 1.615 0 0 0-.562-.516 1.58 1.58 0 0 0-.785-.187c-.297 0-.559.062-.786.187-.222.125-.41.297-.562.516-.148.215-.26.463-.334.744a3.419 3.419 0 0 0-.111.885zm7.336-5.297-.077 6.123h-.978l-.082-6.123h1.137zm-1.172 7.986c0-.176.052-.324.158-.445.109-.121.269-.182.48-.182.207 0 .366.06.475.182.113.12.17.27.17.445a.614.614 0 0 1-.17.434c-.109.12-.268.181-.475.181-.211 0-.371-.06-.48-.181a.636.636 0 0 1-.158-.434zm7.33-7.986V44h-1.131v-8.531h1.131zm5.953 3.545V44h-1.084v-6.34h1.025l.059 1.354zm-.258 1.576-.451-.018c.004-.433.068-.834.193-1.2a2.99 2.99 0 0 1 .528-.968 2.347 2.347 0 0 1 1.857-.861c.313 0 .594.043.844.129.25.082.463.215.639.398.179.184.316.422.41.715.093.29.14.643.14 1.06V44h-1.09v-4.166c0-.332-.048-.598-.146-.797a.9.9 0 0 0-.428-.44 1.533 1.533 0 0 0-.691-.14 1.6 1.6 0 0 0-.738.17c-.219.113-.409.27-.569.469-.156.199-.279.427-.369.685a2.504 2.504 0 0 0-.129.809zm8.438 3.527c-.442 0-.842-.074-1.202-.222a2.716 2.716 0 0 1-.919-.64 2.83 2.83 0 0 1-.586-.972 3.56 3.56 0 0 1-.205-1.23v-.246c0-.516.076-.975.228-1.377a3.07 3.07 0 0 1 .621-1.032c.262-.28.559-.494.891-.638a2.557 2.557 0 0 1 1.031-.217c.453 0 .844.078 1.172.234.332.157.603.375.814.657.211.277.368.605.469.984.102.375.152.785.152 1.23v.487h-4.734v-.885h3.65v-.082a2.7 2.7 0 0 0-.175-.82 1.477 1.477 0 0 0-.469-.657c-.215-.172-.508-.257-.879-.257a1.477 1.477 0 0 0-1.213.615 2.31 2.31 0 0 0-.346.744c-.082.293-.123.63-.123 1.014v.246c0 .3.041.584.123.85.086.261.209.492.37.69.164.2.361.356.591.47.235.113.5.17.797.17.383 0 .707-.079.973-.235.265-.156.498-.365.697-.627l.656.522c-.136.207-.31.404-.521.591-.211.188-.471.34-.779.457a3.018 3.018 0 0 1-1.084.176zm6.363 0c-.441 0-.842-.074-1.201-.222a2.72 2.72 0 0 1-.92-.64 2.845 2.845 0 0 1-.586-.972 3.56 3.56 0 0 1-.205-1.23v-.246c0-.516.076-.975.228-1.377.153-.407.36-.75.621-1.032.262-.28.559-.494.891-.638a2.557 2.557 0 0 1 1.031-.217c.453 0 .844.078 1.172.234.332.157.604.375.815.657.211.277.367.605.468.984.102.375.153.785.153 1.23v.487h-4.735v-.885h3.651v-.082a2.701 2.701 0 0 0-.176-.82 1.477 1.477 0 0 0-.469-.657c-.215-.172-.508-.257-.879-.257a1.472 1.472 0 0 0-1.213.615 2.31 2.31 0 0 0-.345.744c-.082.293-.123.63-.123 1.014v.246c0 .3.041.584.123.85.086.261.209.492.369.69.164.2.361.356.592.47.234.113.5.17.797.17.382 0 .707-.079.972-.235a2.4 2.4 0 0 0 .697-.627l.657.522a3.044 3.044 0 0 1-.522.591c-.211.188-.471.34-.779.457a3.018 3.018 0 0 1-1.084.176zm7.728-1.347V35h1.09v9h-.996l-.094-1.23zm-4.265-1.87v-.123c0-.484.058-.924.176-1.318.121-.399.291-.74.509-1.025.223-.286.487-.504.791-.657a2.255 2.255 0 0 1 1.032-.234c.398 0 .746.07 1.043.21.3.138.554.339.761.604.211.262.377.578.498.95.121.37.205.79.252 1.26v.538a5.523 5.523 0 0 1-.252 1.254 2.954 2.954 0 0 1-.498.95 2.088 2.088 0 0 1-.761.603 2.531 2.531 0 0 1-1.055.205c-.371 0-.711-.08-1.02-.24a2.417 2.417 0 0 1-.791-.674 3.296 3.296 0 0 1-.509-1.02 4.46 4.46 0 0 1-.176-1.283zm1.09-.123v.123c0 .317.031.614.093.891.067.277.168.522.305.732.137.211.311.377.522.498.21.118.462.176.755.176.36 0 .655-.076.885-.228.235-.153.422-.354.563-.604.14-.25.25-.521.328-.814v-1.412a3.125 3.125 0 0 0-.205-.621 1.907 1.907 0 0 0-.34-.54 1.474 1.474 0 0 0-.51-.38 1.648 1.648 0 0 0-.709-.141c-.297 0-.553.063-.767.188-.211.12-.385.289-.522.503a2.339 2.339 0 0 0-.305.739 4.076 4.076 0 0 0-.093.89zm12.621 1.541c0-.156-.035-.3-.106-.433-.066-.137-.205-.26-.416-.37-.207-.113-.519-.21-.937-.292a7.422 7.422 0 0 1-.955-.264 2.881 2.881 0 0 1-.721-.37 1.546 1.546 0 0 1-.451-.509 1.416 1.416 0 0 1-.158-.685c0-.25.054-.487.164-.71.113-.222.271-.42.474-.591.207-.172.455-.307.744-.404a3.01 3.01 0 0 1 .967-.147c.508 0 .942.09 1.301.27.359.18.635.42.826.72.192.297.287.627.287.99h-1.084a.925.925 0 0 0-.158-.51 1.164 1.164 0 0 0-.451-.415 1.457 1.457 0 0 0-.721-.164c-.301 0-.545.047-.732.14a.941.941 0 0 0-.405.346.87.87 0 0 0-.064.762c.043.09.117.173.223.252.105.074.254.144.445.21.191.067.436.133.732.2.52.117.948.258 1.284.422.336.164.586.365.75.603.164.238.246.528.246.867a1.683 1.683 0 0 1-.674 1.36 2.476 2.476 0 0 1-.774.386c-.296.09-.63.135-1.001.135-.559 0-1.032-.1-1.418-.299-.387-.199-.68-.457-.879-.773-.2-.317-.299-.65-.299-1.002h1.09c.015.297.101.533.257.709.157.172.348.295.575.37.226.07.451.105.674.105.296 0 .544-.04.744-.118.203-.078.357-.185.463-.322a.75.75 0 0 0 .158-.469zm6.386.217V37.66h1.09V44h-1.037l-.053-1.465zm.206-1.336.451-.011c0 .421-.045.812-.135 1.171a2.524 2.524 0 0 1-.422.926 1.99 1.99 0 0 1-.768.615c-.316.145-.701.217-1.154.217a2.56 2.56 0 0 1-.849-.135 1.702 1.702 0 0 1-.657-.416 1.893 1.893 0 0 1-.427-.732 3.52 3.52 0 0 1-.147-1.084v-4.09h1.084v4.102c0 .285.031.521.094.709.066.183.154.33.264.44.113.105.238.179.375.222.14.043.285.064.433.064.461 0 .826-.088 1.096-.263.269-.18.463-.42.58-.721.121-.305.182-.643.182-1.014zm3.621-2.32v7.559h-1.09V37.66h.996l.094 1.219zm4.271 1.898v.123c0 .461-.055.89-.164 1.284-.109.39-.269.73-.48 1.02-.207.288-.463.513-.768.673-.305.16-.654.24-1.049.24-.402 0-.758-.066-1.066-.199a2.093 2.093 0 0 1-.785-.58 2.962 2.962 0 0 1-.516-.914 5.295 5.295 0 0 1-.258-1.201v-.657c.047-.468.135-.888.264-1.26a3.14 3.14 0 0 1 .51-.949c.214-.265.474-.466.779-.603.305-.14.656-.211 1.055-.211.398 0 .752.078 1.06.234.309.153.569.371.779.657.211.285.37.627.475 1.025.109.394.164.834.164 1.318zm-1.09.123v-.123a3.84 3.84 0 0 0-.099-.89 2.257 2.257 0 0 0-.311-.739 1.48 1.48 0 0 0-.527-.504 1.502 1.502 0 0 0-.768-.187c-.273 0-.512.047-.715.14-.199.094-.369.221-.509.381a2.018 2.018 0 0 0-.346.54 3.03 3.03 0 0 0-.193.62v1.518c.078.274.187.532.328.774.14.238.328.431.562.58.235.144.529.217.885.217.293 0 .545-.061.756-.182a1.53 1.53 0 0 0 .527-.51 2.33 2.33 0 0 0 .311-.738c.066-.281.099-.58.099-.897zm3.557-2.021v7.559h-1.09V37.66h.996l.094 1.219zm4.271 1.898v.123c0 .461-.054.89-.164 1.284-.109.39-.269.73-.48 1.02-.207.288-.463.513-.768.673-.304.16-.654.24-1.049.24-.402 0-.757-.066-1.066-.199a2.1 2.1 0 0 1-.785-.58 2.962 2.962 0 0 1-.516-.914 5.295 5.295 0 0 1-.258-1.201v-.657c.047-.468.135-.888.264-1.26a3.14 3.14 0 0 1 .51-.949c.215-.265.475-.466.779-.603.305-.14.656-.211 1.055-.211.398 0 .752.078 1.06.234.309.153.569.371.78.657.211.285.369.627.474 1.025.11.394.164.834.164 1.318zm-1.089.123v-.123c0-.316-.034-.613-.1-.89a2.236 2.236 0 0 0-.311-.739 1.472 1.472 0 0 0-.527-.504 1.502 1.502 0 0 0-.768-.187c-.273 0-.511.047-.714.14-.2.094-.37.221-.51.381a2.018 2.018 0 0 0-.346.54c-.086.199-.15.406-.193.62v1.518c.078.274.187.532.328.774.141.238.328.431.562.58.235.144.53.217.885.217.293 0 .545-.061.756-.182.215-.125.391-.295.527-.51.141-.215.245-.46.311-.738.066-.281.1-.58.1-.897zm2.185 0v-.134c0-.457.067-.881.199-1.272.133-.394.325-.736.575-1.025.25-.293.552-.52.908-.68a2.817 2.817 0 0 1 1.195-.246c.445 0 .846.082 1.201.246.36.16.664.387.914.68.254.289.448.63.58 1.025.133.39.2.815.2 1.272v.134c0 .457-.067.881-.2 1.272-.132.39-.326.732-.58 1.025-.25.29-.552.516-.908.68-.351.16-.75.24-1.195.24a2.89 2.89 0 0 1-1.201-.24 2.705 2.705 0 0 1-.914-.68 3.103 3.103 0 0 1-.575-1.025 3.949 3.949 0 0 1-.199-1.272zm1.084-.134v.134c0 .317.037.616.111.897.075.277.186.523.334.738.153.215.342.385.569.51.226.121.49.182.791.182.297 0 .556-.061.779-.182.227-.125.414-.295.563-.51a2.39 2.39 0 0 0 .334-.738c.078-.281.117-.58.117-.897v-.134c0-.313-.039-.608-.117-.885a2.302 2.302 0 0 0-.34-.744 1.618 1.618 0 0 0-.563-.516 1.575 1.575 0 0 0-.785-.187c-.297 0-.559.062-.785.187a1.69 1.69 0 0 0-.563.516 2.38 2.38 0 0 0-.334.744 3.419 3.419 0 0 0-.111.885zm7.131-2.11V44h-1.084v-6.34h1.055l.029.996zm1.98-1.031-.005 1.008a1.573 1.573 0 0 0-.258-.035 2.713 2.713 0 0 0-.27-.012c-.25 0-.471.039-.662.117a1.376 1.376 0 0 0-.486.328c-.133.14-.239.309-.317.504a2.412 2.412 0 0 0-.146.633l-.305.176c0-.383.037-.742.112-1.078.078-.336.197-.633.357-.891a1.75 1.75 0 0 1 .609-.61 1.714 1.714 0 0 1 1.16-.193.796.796 0 0 1 .211.053zm3.95.035v.832h-3.428v-.832h3.428zm-2.268-1.54h1.084v6.31c0 .215.033.377.1.486.066.11.152.182.257.217.106.035.219.052.34.052.09 0 .184-.007.282-.023.101-.02.177-.035.228-.047l.006.885a2.541 2.541 0 0 1-.34.076 2.592 2.592 0 0 1-.498.041c-.266 0-.51-.052-.732-.158a1.18 1.18 0 0 1-.534-.527c-.129-.25-.193-.586-.193-1.008v-6.305z"/></g><defs><linearGradient id="c" x1="46.929" x2="20.179" y1="40.744" y2="40.744" gradientUnits="userSpaceOnUse"><stop stop-color="#E4941E"/><stop offset="1" stop-color="#D16234"/></linearGradient><radialGradient id="d" cx="0" cy="0" r="1" gradientTransform="translate(38.408 40.863) scale(10.849)" gradientUnits="userSpaceOnUse"><stop stop-color="#E3745F"/><stop offset="1" stop-color="#FFAE8D"/></radialGradient><linearGradient id="e" x1="43.111" x2="37.415" y1="16.051" y2="16.051" gradientUnits="userSpaceOnUse"><stop stop-color="#E4941E"/><stop offset="1" stop-color="#D16234"/></linearGradient><radialGradient id="f" cx="0" cy="0" r="1" gradientTransform="matrix(-9.50572 0 0 -9.5057 35.977 20.234)" gradientUnits="userSpaceOnUse"><stop stop-color="#E3745F"/><stop offset="1" stop-color="#FFAE8D"/></radialGradient><radialGradient id="g" cx="0" cy="0" r="1" gradientTransform="matrix(-7.29031 0 0 -7.29033 34.47 23.22)" gradientUnits="userSpaceOnUse"><stop stop-color="#E3745F"/><stop offset="1" stop-color="#FFAE8D"/></radialGradient><linearGradient id="h" x1="34.993" x2="35.089" y1="26.907" y2="28.326" gradientUnits="userSpaceOnUse"><stop stop-color="#174B80"/><stop offset="1" stop-color="#00BEDD"/></linearGradient><linearGradient id="i" x1="40.257" x2="40.833" y1="24.97" y2="27.06" gradientUnits="userSpaceOnUse"><stop stop-color="#174B80"/><stop offset="1" stop-color="#00BEDD"/></linearGradient><linearGradient id="j" x1="27.047" x2="29.173" y1="18.897" y2="46.904" gradientUnits="userSpaceOnUse"><stop stop-color="#FFCB3A"/><stop offset="1" stop-color="#FFA23C"/></linearGradient><clipPath id="a"><path fill="#fff" d="M0 0H568V60H0z"/></clipPath></defs></svg>