<svg xmlns="http://www.w3.org/2000/svg" fill="none" viewBox="0 0 568 72"><g clip-path="url(#a)"><path fill="#F5F3F9" d="M0 42c0-16.569 13.431-30 30-30 16.569 0 30 13.431 30 30 0 16.569-13.431 30-30 30C13.431 72 0 58.569 0 42z"/><mask id="b" width="60" height="60" x="0" y="12" maskUnits="userSpaceOnUse" style="mask-type:alpha"><path fill="#F5F3F9" d="M0 42c0-16.569 13.431-30 30-30 16.569 0 30 13.431 30 30 0 16.569-13.431 30-30 30C13.431 72 0 58.569 0 42z"/></mask><g mask="url(#b)"><path fill="url(#c)" d="M45.079 61.768a8.5 8.5 0 0 1-.804.984c-1.227 1.31-2.87 2.285-4.895 2.771a6.8 6.8 0 0 1-.555.117c-.286.057-.578.103-.875.138-9.3 1.083-13.916-1.359-15.408-2.989-1.493-1.627-5.225-15.202 1.63-21.445 6.854-6.245 19.14 4.884 19.14 4.884 4.264 5.2 4.632 11.502 1.767 15.54z"/><g opacity=".1" style="mix-blend-mode:screen"><path fill="#FDA41C" d="M40.13 54.714c2.243 4.08 1.87 7.406.773 9.159-.621.992-1.505 1.533-2.404 1.489l-.015.285.12.003c.97 0 1.891-.587 2.541-1.626 1.14-1.821 1.538-5.26-.763-9.448l-.251.138z" style="mix-blend-mode:screen"/><path fill="#FDA41C" d="M39.594 62.555c1.01-1.22 1.407-3.76-.502-7.232l-.25.138c1.84 3.346 1.481 5.764.532 6.911-.663.803-1.662 1.086-2.67.757l-.089.272c.308.1.614.15.913.15.793 0 1.528-.346 2.066-.996zM45.078 61.768a8.489 8.489 0 0 1-.803.984c1.104-1.853 1.956-5.228 1.19-8.033-.57-2.076-1.902-3.449-3.961-4.078l.083-.272c2.13.65 3.566 2.128 4.152 4.275.65 2.371.166 5.148-.66 7.124zM27.807 58.92c-.796-.228-4.052-2.38-4.24-8.08l-.286.01c.222 6.722 4.406 8.332 4.448 8.344.229.066.553.484.795.869-1.26-.551-5.315-2.777-6.044-8.828l-.284.034c.884 7.337 6.558 9.196 6.615 9.214l.332.104-.163-.308c-.065-.123-.654-1.211-1.173-1.36z" style="mix-blend-mode:screen"/></g><path fill="url(#d)" d="M45.852 72h-28.59l4.844-5.406 3.44-3.836.76-.85 1.014-1.124s.308-5.261.507-8.694c.04-.63.075-1.192.102-1.658.035-.719.062-1.185.062-1.233l.473.37 5.522 4.357.301 2.412.548 4.433 2.015 2.144h.006l1.268 1.343 2.569 2.733L45.852 72z"/><path fill="url(#e)" d="M41.104 17.334c4.588 8.558-.126 21.434-.126 21.434l-3.563-9.083 3.69-12.351z"/><path fill="#FFAE8D" d="M25.803 44.458s.017.137.066.386a19.024 19.024 0 0 0 2.056 5.588 17.272 17.272 0 0 0 2.13 3.051c1.21 1.384 2.737 2.277 4.23 2.854 2.977 1.15 5.834 1.044 5.834 1.044s3.386-5.851 3.677-10.152c.18-2.668-.077-3.918-.869-5.854-.18-.44-.389-.918-.626-1.458-.83-1.879-1.061-3.612-1.659-5.814a28.083 28.083 0 0 0-1.373-3.93 30.677 30.677 0 0 0-.763-1.638L25.803 44.458z"/><path fill="url(#f)" d="M39.492 41.71s1.041-.553 2.265-.184c.384.115.79.026 1.17-.151-.18-.44-.39-.918-.626-1.459-.83-1.878-1.061-3.611-1.659-5.813l-1.986.157c-.834 1.77.836 7.45.836 7.45z"/><path fill="url(#g)" d="M36.354 36.371c1.172 1.266 1.594 3.704 1.5 5.298-.093 1.595-6.517 2.486-7.642.329-1.126-2.157 2.766-5.252 3.235-5.346.469-.093 2.907-.28 2.907-.28z"/><path fill="#FFAE8D" d="M27.758 48.842s-.203.132-.507.263c-.549.24-1.427.48-2.036-.048-.95-.818-1.338-3.492-1.338-3.492l1.993-.72.51-.184 1.378 4.181z"/><path fill="#5D3000" d="m35.949 38.883.036-.448s-2.443.191-3.102.764c-.658.573-1.289 1.883-1.289 1.883l2.96-1.273 1.395-.926z"/><path fill="#B05600" d="M33.866 37.089s1.977.086 2.377-.172c.401-.258.516-1.117.516-1.117s-1.862.344-2.263.344c-.4 0-.63.945-.63.945zM38.22 34.769a6.673 6.673 0 0 1 .888-1.318l2.205-.086-.516 1.003s-1.346-.144-2.577.4z"/><path fill="#fff" d="M31.595 41.082c2.457-.733 4.613-.604 4.613-.604l-.26-1.595s-1.884.145-2.747.533c-.862.388-1.607 1.666-1.607 1.666z"/><path fill="url(#h)" d="M35.04 41.098c.728 0 1.318-.667 1.318-1.49 0-.822-.59-1.489-1.318-1.489-.727 0-1.317.667-1.317 1.49 0 .822.59 1.489 1.317 1.489z"/><path fill="#fff" d="M34.192 39.287a.343.343 0 1 1-.686 0 .343.343 0 0 1 .686 0z"/><path fill="#B74970" d="M39.27 30.174c-2.01 7.578-8.395 12.02-10.806 19.397-.129.39-.246.79-.349 1.195-.112.432-.206.873-.286 1.325.037-.63.072-1.196.097-1.66a18.192 18.192 0 0 1-.675-1.326c-.549.24-1.427.48-2.036-.049-.95-.817-1.338-3.491-1.338-3.491l1.993-.721a6.406 6.406 0 0 1-.066-.386l12.703-15.923c.289.575.54 1.121.764 1.639z" opacity=".2" style="mix-blend-mode:multiply"/><path fill="#5D3000" d="M38.46 37.481c.712-.949 2.076-.949 2.076-.949l.06.623-1.987.86-.149-.534z"/><path fill="#fff" d="M38.493 37.805c1.638-1.078 2.102-.828 2.102-.828s.593 1.602.27 2.811c-.418.066-1.855.56-1.855.56l-.517-2.543z"/><path fill="url(#i)" d="M40.597 39.695c.474 0 .859-.667.859-1.49 0-.822-.385-1.49-.859-1.49s-.858.668-.858 1.49c0 .823.384 1.49.858 1.49z"/><path fill="#fff" d="M40.057 38.156a.343.343 0 1 1-.686 0 .343.343 0 0 1 .686 0z"/><path fill="#FF7B5D" d="M38.775 49.74c-2.734-.378-4.256-2.1-4.256-2.1 1.906-.085 2.894-.738 4.52-.728 1.587.014 1.966.279 1.644.81-.004.011-.014.024-.02.036.015.035.029.074.042.108.24.712-.6 2.059-1.93 1.874z"/><path fill="#EB5000" d="M40.705 47.867c-1.228.63-4.955.44-5.96-.127 1.299.409 5.045.528 5.938-.018-.004.012-.014.025-.02.036l.042.109z" opacity=".3" style="mix-blend-mode:multiply"/><path fill="url(#j)" d="M14.055 52.903c2.15 8.104 10.01 11.496 10.01 11.496l.154-.186.183-.22.489-.586s-1.256-1.85-1.673-4.902a3.687 3.687 0 0 1-.034-.26c-.012-.072-.018-.146-.026-.22a14.34 14.34 0 0 1-.032-.355c-.148-1.902.049-4.192 1.015-6.749v-.003c.055-.143.112-.289.172-.434a17.722 17.722 0 0 1 .764-1.64v-.002c.294-.569.632-1.15 1.012-1.739a36.23 36.23 0 0 1 2.113-2.925c0-.003.003-.003.003-.003.132-.166.263-.329.398-.492 5.808-7.08 12.49-11.047 12.5-26.35 0 0-1.479-.06-4.716.867-.095.026-.189.055-.286.083-1.725.506-3.92 1.284-6.629 2.482-.097.04-.195.083-.292.126-.895.4-1.841.844-2.848 1.336l-.277.137a114.831 114.831 0 0 0-5.214 2.765l-.263.15c-.263.148-.529.302-.798.457a148.759 148.759 0 0 0-4.598 2.76c-.088.056-.177.11-.266.168-.472.295-.952.6-1.438.912.826 5.045-1.573 15.22.577 23.327z"/><path fill="#F48B79" d="M38.46 34.665c-.473 3.585.862 7.38.862 7.38s2.213-.374 2.713.138c.5.513-.986 2.754-.986 2.754s1.843-2.085 1.371-2.842c-.558-.896-2.826-.413-2.826-.413s-1.08-2.619-1.134-7.017z"/><path fill="#FBC0D7" d="M45.852 72h-28.59l4.844-5.405c6.879 4.254 14.654 2.5 18.587.397L45.852 72z"/><path fill="#FBC0D7" d="m28.25 69.632-.93.246s-.169-4.464-1.776-7.117l.764-.85c2.082 2.302 1.942 7.721 1.942 7.721zM38.121 64.26c-.077 1.572-.66 4.783-.66 4.783l-.833.15s.62-3.473.226-6.275l1.267 1.341z"/><g opacity=".3" style="mix-blend-mode:screen"><path fill="#FFCB3A" d="M29.473 20.766c-.097.04-.194.083-.292.125-.046 5.34-1.24 9.912-2.408 14.35-1.246 4.75-2.427 9.255-1.939 14.079.078-.16.158-.315.244-.475v-.003c-.37-4.607.772-8.953 1.973-13.526 1.178-4.493 2.393-9.123 2.422-14.55z" style="mix-blend-mode:screen"/><path fill="#FFCB3A" d="M24.314 50.483c-.96-3.643-.134-8.533.732-13.67.818-4.844 1.662-9.825 1.287-14.586l-.277.137c.349 4.693-.484 9.617-1.29 14.401-.9 5.34-1.759 10.415-.623 14.153.054-.143.111-.289.171-.435zM23.218 58.505a3.758 3.758 0 0 1-.035-.26c-.011-.072-.017-.146-.025-.22-.012-.118-.023-.235-.032-.355-3.397-4.93-2.88-9.846-2.23-16.012.497-4.736 1.06-10.055-.055-16.53-.085.05-.174.101-.263.15 1.084 6.391.53 11.656.035 16.351-.627 5.952-1.136 10.756 1.844 15.549-3.389-4.542-2.988-11.19-2.574-18.182.26-4.407.532-8.951-.103-13.26a6.46 6.46 0 0 0-.266.154c.61 4.246.344 8.736.083 13.088-.457 7.662-.89 14.92 3.62 19.527z" style="mix-blend-mode:screen"/><path fill="#FFCB3A" d="M17.156 54.733c-2.081-4.587-1.924-8.65-1.727-13.795.137-3.535.289-7.496-.246-12.443l-.266.169c.51 4.864.36 8.77.226 12.265-.2 5.182-.357 9.274 1.753 13.921 2.188 4.825 5.225 7.77 7.324 9.363l.183-.22c-2.068-1.568-5.076-4.476-7.247-9.26zM36.102 18.283c-.066 8.37-2.848 14.098-5.102 18.748-1.258 2.591-2.365 4.876-2.794 7.144.132-.166.263-.329.398-.492.483-2.056 1.507-4.164 2.654-6.529 2.276-4.69 5.081-10.475 5.13-18.954-.095.026-.189.055-.286.083z" style="mix-blend-mode:screen"/></g></g><path fill="#131420" d="M81.356 23.803c0-.176-.028-.332-.083-.469a.914.914 0 0 0-.275-.375 2.269 2.269 0 0 0-.563-.328 7.461 7.461 0 0 0-.913-.334 10.134 10.134 0 0 1-1.126-.416 4.282 4.282 0 0 1-.89-.54 2.305 2.305 0 0 1-.592-.708c-.14-.27-.21-.58-.21-.932 0-.348.071-.664.216-.949.148-.285.357-.531.627-.738.273-.211.596-.373.967-.487a4.074 4.074 0 0 1 1.23-.175c.633 0 1.178.117 1.635.351.46.235.814.549 1.06.944.25.394.376.83.376 1.306h-1.46c0-.281-.06-.53-.181-.744a1.23 1.23 0 0 0-.54-.516c-.237-.125-.54-.187-.907-.187-.348 0-.637.053-.868.158-.23.105-.402.248-.515.428-.113.18-.17.383-.17.61 0 .16.037.306.111.439.074.129.188.25.34.363.152.11.344.213.574.31.23.098.502.192.815.282.472.14.884.297 1.236.468.352.168.644.36.879.575.234.215.41.459.527.732.117.27.176.576.176.92 0 .36-.072.684-.217.973-.144.285-.351.529-.62.732-.267.2-.587.354-.962.463a4.539 4.539 0 0 1-1.242.158c-.41 0-.814-.055-1.213-.164a3.577 3.577 0 0 1-1.078-.498 2.574 2.574 0 0 1-.773-.844c-.192-.34-.288-.736-.288-1.19h1.471c0 .278.047.515.14.71.098.195.233.355.405.48.172.121.371.211.598.27.23.058.476.088.738.088.344 0 .63-.05.861-.147.235-.097.41-.234.528-.41.117-.176.175-.379.175-.61zM85.386 17v9h-1.405v-9h1.406zm-.245 5.596-.457-.006c.004-.438.064-.842.181-1.213a3.11 3.11 0 0 1 .504-.967 2.242 2.242 0 0 1 1.799-.867c.313 0 .594.043.844.129.254.086.472.224.656.416.184.187.322.433.416.738.098.301.147.668.147 1.102V26h-1.418v-4.084c0-.305-.045-.547-.135-.727a.782.782 0 0 0-.381-.386 1.394 1.394 0 0 0-.615-.123c-.254 0-.479.05-.674.152-.192.102-.352.24-.48.416a1.92 1.92 0 0 0-.294.61c-.062.23-.093.476-.093.738zm9.093 2.133v-3.024c0-.226-.04-.422-.123-.586a.861.861 0 0 0-.375-.38 1.282 1.282 0 0 0-.62-.136c-.231 0-.43.04-.598.118a.966.966 0 0 0-.393.316.763.763 0 0 0-.14.451h-1.407c0-.25.06-.492.182-.726.12-.235.297-.444.527-.627.23-.184.506-.328.826-.434.32-.105.68-.158 1.078-.158.477 0 .899.08 1.266.24.371.16.662.402.873.727.215.32.322.722.322 1.207v2.818c0 .29.02.549.059.78.043.226.103.423.182.591V26h-1.448a2.503 2.503 0 0 1-.158-.58 4.744 4.744 0 0 1-.053-.692zm.206-2.584.011.873h-1.013c-.262 0-.493.025-.692.076-.2.047-.365.117-.498.21a.915.915 0 0 0-.398.792c0 .168.039.322.117.463a.822.822 0 0 0 .34.322c.152.078.336.117.55.117.29 0 .541-.059.756-.176.219-.12.39-.267.516-.44.125-.175.191-.341.2-.497l.456.627c-.047.16-.127.332-.24.515-.113.184-.262.36-.445.528a2.215 2.215 0 0 1-1.518.563c-.414 0-.783-.083-1.107-.247a1.97 1.97 0 0 1-.762-.674 1.747 1.747 0 0 1-.275-.966c0-.337.062-.633.187-.891.129-.262.316-.48.563-.656.25-.176.554-.309.914-.399.359-.094.77-.14 1.23-.14h1.108zm4.107-1.278V26h-1.412v-6.34h1.347l.065 1.207zm1.939-1.248-.011 1.313a3.658 3.658 0 0 0-.575-.047 1.78 1.78 0 0 0-.638.105 1.204 1.204 0 0 0-.744.75c-.067.18-.106.381-.118.604l-.322.023c0-.398.04-.767.117-1.107.078-.34.196-.639.352-.897.16-.258.36-.459.597-.603.243-.145.522-.217.838-.217a1.76 1.76 0 0 1 .504.076zm.463 3.281v-.134c0-.457.067-.881.199-1.272.133-.394.325-.736.575-1.025.254-.293.562-.52.925-.68a3.02 3.02 0 0 1 1.243-.246c.464 0 .879.082 1.242.246.367.16.678.387.931.68.254.289.448.63.581 1.025.132.39.199.815.199 1.272v.134c0 .457-.067.881-.199 1.272-.133.39-.327.732-.581 1.025a2.68 2.68 0 0 1-.925.68c-.364.16-.776.24-1.237.24-.464 0-.881-.08-1.248-.24a2.68 2.68 0 0 1-.925-.68 3.046 3.046 0 0 1-.581-1.025 3.949 3.949 0 0 1-.199-1.272zm1.412-.134v.134c0 .286.03.555.088.809.059.254.151.477.276.668.125.191.285.342.48.451.195.11.428.164.697.164.262 0 .489-.055.68-.164.195-.11.356-.26.48-.451.126-.191.217-.414.276-.668a3.4 3.4 0 0 0 .094-.809v-.134a3.3 3.3 0 0 0-.094-.797 2.053 2.053 0 0 0-.281-.674 1.349 1.349 0 0 0-.481-.457 1.32 1.32 0 0 0-.685-.17c-.266 0-.496.057-.692.17-.191.11-.349.262-.474.457s-.217.42-.276.674c-.058.25-.088.515-.088.797zm7.067-1.752V26h-1.412v-6.34h1.33l.082 1.354zm-.252 1.582-.457-.006a4.13 4.13 0 0 1 .187-1.236 3.04 3.04 0 0 1 .516-.967c.223-.27.488-.477.797-.621a2.345 2.345 0 0 1 1.031-.223c.305 0 .58.043.826.129.25.082.463.217.639.404.18.188.316.432.41.733.094.296.141.662.141 1.095V26h-1.418v-4.102c0-.304-.045-.544-.135-.72a.754.754 0 0 0-.381-.381 1.428 1.428 0 0 0-.615-.117 1.371 1.371 0 0 0-1.137.568 2.03 2.03 0 0 0-.299.61c-.07.23-.105.476-.105.738z"/><path fill="#F0F5F9" d="M126 32H84a8 8 0 0 0-8 8v24a8 8 0 0 0 8 8h42a8 8 0 0 0 8-8V40a8 8 0 0 0-8-8z"/><path fill="#32375E" d="M91.537 53.844c0-.2-.031-.375-.094-.528a1.005 1.005 0 0 0-.316-.422 2.485 2.485 0 0 0-.621-.357 8.672 8.672 0 0 0-.996-.346 9.165 9.165 0 0 1-1.143-.416 3.994 3.994 0 0 1-.873-.533 2.104 2.104 0 0 1-.556-.685 1.952 1.952 0 0 1-.194-.885 2.076 2.076 0 0 1 .791-1.652 2.84 2.84 0 0 1 .92-.493 3.787 3.787 0 0 1 1.19-.175c.64 0 1.183.123 1.628.369.45.242.791.56 1.026.955.234.39.351.808.351 1.254h-1.125c0-.32-.068-.604-.205-.85a1.413 1.413 0 0 0-.62-.586c-.278-.144-.63-.217-1.056-.217-.402 0-.734.06-.996.182a1.316 1.316 0 0 0-.585.492 1.344 1.344 0 0 0-.188.71c0 .179.037.343.111.491.078.145.198.28.358.405.164.125.37.24.62.345.255.106.558.207.909.305.484.137.902.29 1.254.457.352.168.64.358.867.568.23.208.4.444.51.71.113.261.17.558.17.89 0 .348-.07.662-.211.943-.14.282-.342.522-.604.721-.261.2-.576.354-.943.463-.363.105-.77.158-1.219.158-.394 0-.783-.054-1.166-.164a3.472 3.472 0 0 1-1.037-.492 2.577 2.577 0 0 1-.744-.809 2.244 2.244 0 0 1-.275-1.125H87.6c0 .293.056.545.17.756.113.207.267.38.462.516.2.136.424.238.674.304.254.063.518.094.791.094.395 0 .729-.054 1.002-.164.274-.11.48-.265.621-.468.145-.204.217-.444.217-.721zM95.035 47v9h-1.084v-9h1.084zm-.258 5.59-.45-.018c.003-.433.067-.834.192-1.2.125-.372.301-.694.528-.968a2.349 2.349 0 0 1 1.857-.861c.313 0 .594.043.844.129.25.082.463.215.639.398.18.184.316.422.41.715.094.29.14.643.14 1.06V56h-1.09v-4.166c0-.332-.048-.598-.146-.797a.9.9 0 0 0-.428-.44 1.535 1.535 0 0 0-.691-.14c-.27 0-.516.057-.738.17-.219.113-.408.27-.569.469-.156.199-.279.427-.369.685a2.507 2.507 0 0 0-.129.809zm9.522 2.326v-3.264c0-.25-.051-.467-.153-.65a.994.994 0 0 0-.445-.434c-.199-.101-.445-.152-.738-.152-.274 0-.514.047-.721.14a1.253 1.253 0 0 0-.48.37.804.804 0 0 0-.17.492h-1.084c0-.227.058-.451.176-.674.117-.222.285-.424.504-.603.222-.184.488-.328.796-.434.313-.11.661-.164 1.043-.164.461 0 .868.078 1.219.234.356.157.633.393.832.71.203.312.305.704.305 1.177v2.953c0 .211.017.436.053.674.039.238.095.443.169.615V56h-1.13a2 2 0 0 1-.129-.498 3.917 3.917 0 0 1-.047-.586zm.187-2.76.012.762h-1.096c-.308 0-.584.025-.826.076a1.89 1.89 0 0 0-.609.217.978.978 0 0 0-.504.879c0 .2.045.38.135.545.09.164.224.295.404.392.184.094.408.141.674.141a1.822 1.822 0 0 0 1.482-.727c.153-.203.235-.4.246-.591l.463.521a1.566 1.566 0 0 1-.222.545 2.639 2.639 0 0 1-1.202 1.025 2.326 2.326 0 0 1-.925.176c-.43 0-.807-.084-1.131-.252a1.923 1.923 0 0 1-.75-.674 1.782 1.782 0 0 1-.264-.955c0-.34.066-.638.199-.896.133-.262.324-.479.574-.65.25-.176.551-.31.903-.399.351-.09.744-.135 1.178-.135h1.259zm3.686-1.5V56h-1.084v-6.34h1.055l.029.996zm1.98-1.031-.006 1.008a1.547 1.547 0 0 0-.257-.035 2.713 2.713 0 0 0-.27-.012c-.25 0-.471.039-.662.117a1.376 1.376 0 0 0-.486.328c-.133.14-.239.309-.317.504a2.412 2.412 0 0 0-.146.633l-.305.176c0-.383.037-.742.111-1.078.079-.336.198-.633.358-.891a1.75 1.75 0 0 1 .609-.61 1.714 1.714 0 0 1 1.16-.193.796.796 0 0 1 .211.053zm.598 3.275v-.134c0-.457.066-.881.199-1.272.133-.394.324-.736.574-1.025.25-.293.553-.52.909-.68a2.817 2.817 0 0 1 1.195-.246c.445 0 .846.082 1.201.246.36.16.664.387.914.68.254.289.447.63.58 1.025.133.39.199.815.199 1.272v.134c0 .457-.066.881-.199 1.272-.133.39-.326.732-.58 1.025-.25.29-.553.516-.908.68-.352.16-.75.24-1.195.24a2.89 2.89 0 0 1-1.201-.24 2.719 2.719 0 0 1-.915-.68 3.1 3.1 0 0 1-.574-1.025 3.922 3.922 0 0 1-.199-1.272zm1.084-.134v.134c0 .317.037.616.111.897.075.277.186.523.334.738.153.215.342.385.569.51.226.121.49.182.791.182.297 0 .556-.061.779-.182.227-.125.414-.295.562-.51.149-.215.26-.46.334-.738.079-.281.118-.58.118-.897v-.134c0-.313-.039-.608-.118-.885a2.28 2.28 0 0 0-.339-.744 1.618 1.618 0 0 0-.563-.516 1.578 1.578 0 0 0-.785-.187c-.297 0-.559.062-.785.187a1.69 1.69 0 0 0-.563.516 2.38 2.38 0 0 0-.334.744 3.419 3.419 0 0 0-.111.885zm7.131-1.752V56h-1.084v-6.34h1.025l.059 1.354zm-.258 1.576-.451-.018c.004-.433.068-.834.193-1.2a2.99 2.99 0 0 1 .528-.968 2.347 2.347 0 0 1 1.857-.861c.312 0 .594.043.844.129.25.082.463.215.638.398.18.184.317.422.411.715.093.29.14.643.14 1.06V56h-1.09v-4.166c0-.332-.048-.598-.146-.797a.9.9 0 0 0-.428-.44 1.533 1.533 0 0 0-.691-.14c-.27 0-.516.057-.739.17a1.77 1.77 0 0 0-.568.469c-.156.199-.279.427-.369.685a2.504 2.504 0 0 0-.129.809z"/></g><defs><linearGradient id="c" x1="46.929" x2="20.179" y1="52.744" y2="52.744" gradientUnits="userSpaceOnUse"><stop stop-color="#E4941E"/><stop offset="1" stop-color="#D16234"/></linearGradient><radialGradient id="d" cx="0" cy="0" r="1" gradientTransform="translate(38.408 52.863) scale(10.849)" gradientUnits="userSpaceOnUse"><stop stop-color="#E3745F"/><stop offset="1" stop-color="#FFAE8D"/></radialGradient><linearGradient id="e" x1="43.111" x2="37.415" y1="28.051" y2="28.051" gradientUnits="userSpaceOnUse"><stop stop-color="#E4941E"/><stop offset="1" stop-color="#D16234"/></linearGradient><radialGradient id="f" cx="0" cy="0" r="1" gradientTransform="matrix(-9.50572 0 0 -9.5057 35.977 32.234)" gradientUnits="userSpaceOnUse"><stop stop-color="#E3745F"/><stop offset="1" stop-color="#FFAE8D"/></radialGradient><radialGradient id="g" cx="0" cy="0" r="1" gradientTransform="matrix(-7.29031 0 0 -7.29033 34.47 35.22)" gradientUnits="userSpaceOnUse"><stop stop-color="#E3745F"/><stop offset="1" stop-color="#FFAE8D"/></radialGradient><linearGradient id="h" x1="34.993" x2="35.089" y1="38.907" y2="40.326" gradientUnits="userSpaceOnUse"><stop stop-color="#174B80"/><stop offset="1" stop-color="#00BEDD"/></linearGradient><linearGradient id="i" x1="40.257" x2="40.833" y1="36.97" y2="39.06" gradientUnits="userSpaceOnUse"><stop stop-color="#174B80"/><stop offset="1" stop-color="#00BEDD"/></linearGradient><linearGradient id="j" x1="27.047" x2="29.173" y1="30.897" y2="58.904" gradientUnits="userSpaceOnUse"><stop stop-color="#FFCB3A"/><stop offset="1" stop-color="#FFA23C"/></linearGradient><clipPath id="a"><path fill="#fff" d="M0 0H568V72H0z"/></clipPath></defs></svg>