<svg width="568" height="60" viewBox="0 0 568 60" fill="none" xmlns="http://www.w3.org/2000/svg">
<g clip-path="url(#clip0_1199_87798)">
<path d="M0 30C0 13.4315 13.4315 0 30 0C46.5685 0 60 13.4315 60 30C60 46.5685 46.5685 60 30 60C13.4315 60 0 46.5685 0 30Z" fill="#F5F3F9"/>
<mask id="mask0_1199_87798" style="mask-type:alpha" maskUnits="userSpaceOnUse" x="0" y="0" width="60" height="60">
<path d="M0 30C0 13.4315 13.4315 0 30 0C46.5685 0 60 13.4315 60 30C60 46.5685 46.5685 60 30 60C13.4315 60 0 46.5685 0 30Z" fill="#F5F3F9"/>
</mask>
<g mask="url(#mask0_1199_87798)">
<path d="M45.0788 49.7682C44.8358 50.1142 44.5698 50.4431 44.2754 50.7519C43.0485 52.0617 41.4042 53.0368 39.3795 53.523C39.1994 53.5688 39.0134 53.6088 38.8247 53.6403C38.5388 53.6974 38.2471 53.7432 37.9497 53.7775C28.6499 54.8613 24.0343 52.4192 22.5416 50.7891C21.0488 49.1619 17.3169 35.5869 24.1715 29.3441C31.0263 23.0985 43.3116 34.2285 43.3116 34.2285C47.5755 39.4275 47.9444 45.7303 45.0788 49.7682Z" fill="url(#paint0_linear_1199_87798)"/>
<g style="mix-blend-mode:screen" opacity="0.1">
<g style="mix-blend-mode:screen">
<g style="mix-blend-mode:screen">
<path d="M40.1309 42.7141C42.3726 46.794 41.9998 50.12 40.9031 51.8725C40.282 52.8647 39.3979 53.4056 38.4989 53.3618L38.4844 53.6472C38.5246 53.6495 38.5648 53.6503 38.6047 53.6503C39.5746 53.6503 40.4951 53.0635 41.1455 52.0241C42.2852 50.203 42.6829 46.7646 40.3817 42.5762L40.1309 42.7141Z" fill="#FDA41C"/>
</g>
</g>
<g style="mix-blend-mode:screen">
<g style="mix-blend-mode:screen">
<path d="M39.5945 50.5546C40.6032 49.3348 41.0012 46.7946 39.0921 43.3232L38.8413 43.4612C40.6814 46.8068 40.3231 49.225 39.3739 50.3723C38.7109 51.1746 37.712 51.4575 36.7032 51.1294L36.615 51.4014C36.9227 51.5013 37.2294 51.5502 37.5282 51.5502C38.321 51.5502 39.0561 51.205 39.5945 50.5546Z" fill="#FDA41C"/>
</g>
</g>
<g style="mix-blend-mode:screen">
<g style="mix-blend-mode:screen">
<path d="M45.0785 49.768C44.8356 50.114 44.5696 50.4428 44.2751 50.7517C45.3789 48.8986 46.2311 45.5241 45.4646 42.7187C44.8956 40.6426 43.5629 39.27 41.5039 38.6408L41.5869 38.3691C43.7174 39.0183 45.153 40.4967 45.7391 42.6444C46.3883 45.0151 45.905 47.7919 45.0785 49.768Z" fill="#FDA41C"/>
</g>
</g>
<g style="mix-blend-mode:screen">
<g style="mix-blend-mode:screen">
<path d="M27.8073 46.9196C27.0114 46.692 23.7551 44.5397 23.5672 38.8398L23.2812 38.8493C23.5032 45.5716 27.6867 47.1824 27.7286 47.1944C27.9576 47.2598 28.2815 47.6784 28.5236 48.0627C27.2636 47.512 23.2086 45.2862 22.4803 39.2347L22.1965 39.2688C23.0796 46.606 28.754 48.4648 28.8113 48.483L29.1431 48.5869L28.9805 48.2794C28.9149 48.156 28.3262 47.0676 27.8073 46.9196Z" fill="#FDA41C"/>
</g>
</g>
</g>
<path d="M45.8517 59.9995H17.2625L22.1061 54.594L25.5452 50.7575L26.3057 49.9079L27.3197 48.7843C27.3197 48.7843 27.6281 43.5228 27.8267 40.0904C27.8678 39.46 27.9021 38.8983 27.9295 38.4324C27.9638 37.713 27.9911 37.2472 27.9911 37.1992L28.4639 37.5692L33.9858 41.9265L34.2873 44.338L34.8353 48.7706L36.8496 50.915H36.8563L38.1239 52.2578L40.693 54.9914L45.8517 59.9995Z" fill="url(#paint1_radial_1199_87798)"/>
<path d="M41.1044 5.33398C45.6921 13.8915 40.9785 26.7677 40.9785 26.7677L37.4146 17.6854L41.1044 5.33398Z" fill="url(#paint2_linear_1199_87798)"/>
<path d="M25.803 32.458C25.803 32.458 25.8202 32.5952 25.8688 32.844C26.0032 33.5589 26.3749 35.189 27.25 37.105C27.4473 37.534 27.6705 37.98 27.925 38.4319C27.9821 38.5435 28.0479 38.6549 28.1137 38.7664C28.637 39.6702 29.2775 40.5938 30.0554 41.4832C31.2651 42.8673 32.7921 43.7595 34.2849 44.3372C37.2619 45.4868 40.1187 45.381 40.1187 45.381C40.1187 45.381 43.5045 39.53 43.7964 35.229C43.9765 32.5609 43.719 31.3112 42.927 29.3752C42.7468 28.9348 42.538 28.4573 42.3006 27.9167C41.4713 26.038 41.2397 24.305 40.642 22.1029C40.3304 20.9505 39.9186 19.6722 39.2694 18.1738C39.0463 17.6561 38.7947 17.1099 38.5059 16.5352L25.803 32.458Z" fill="#FFAE8D"/>
<path d="M39.4924 29.7094C39.4924 29.7094 40.5334 29.1575 41.7573 29.5264C42.1405 29.6407 42.5466 29.5521 42.927 29.3748C42.7467 28.9344 42.5379 28.4569 42.3006 27.9163C41.4713 26.0376 41.2396 24.3046 40.642 22.1025L38.6558 22.2602C37.8219 24.0297 39.4924 29.7094 39.4924 29.7094Z" fill="url(#paint3_radial_1199_87798)"/>
<path d="M36.3539 24.3711C37.5261 25.6371 37.9481 28.0752 37.8543 29.6694C37.7605 31.2636 31.3369 32.1545 30.2116 29.9976C29.0863 27.8408 32.978 24.7462 33.4469 24.6524C33.9157 24.5586 36.3539 24.3711 36.3539 24.3711Z" fill="url(#paint4_radial_1199_87798)"/>
<path d="M27.7575 36.842C27.7575 36.842 27.5545 36.9735 27.2514 37.1051C26.7023 37.3453 25.8244 37.5855 25.2152 37.0565C24.2658 36.2386 23.877 33.5648 23.877 33.5648L25.8701 32.8441L26.3792 32.6611L27.7575 36.842Z" fill="#FFAE8D"/>
<path d="M35.9489 26.8829L35.9854 26.4346C35.9854 26.4346 33.5423 26.6265 32.8835 27.1994C32.2247 27.7722 31.5945 29.0817 31.5945 29.0817L34.5533 27.8094L35.9489 26.8829Z" fill="#5D3000"/>
<path d="M33.8662 25.0887C33.8662 25.0887 35.8425 25.1746 36.2435 24.9168C36.6445 24.6591 36.7591 23.7998 36.7591 23.7998C36.7591 23.7998 34.8973 24.1435 34.4963 24.1435C34.0954 24.1435 33.8662 25.0887 33.8662 25.0887Z" fill="#B05600"/>
<path d="M38.2197 22.7687C38.5921 22.024 39.1076 21.4512 39.1076 21.4512L41.313 21.3652L40.7975 22.3677C40.7975 22.3677 39.4513 22.2245 38.2197 22.7687Z" fill="#B05600"/>
<path d="M31.5945 29.0816C34.0519 28.3487 36.2076 28.478 36.2076 28.478L35.9489 26.8828C35.9489 26.8828 34.0636 27.0284 33.2013 27.4164C32.3391 27.8044 31.5945 29.0816 31.5945 29.0816Z" fill="white"/>
<path d="M35.0402 29.0979C35.7679 29.0979 36.3577 28.4311 36.3577 27.6085C36.3577 26.7859 35.7679 26.1191 35.0402 26.1191C34.3125 26.1191 33.7227 26.7859 33.7227 27.6085C33.7227 28.4311 34.3125 29.0979 35.0402 29.0979Z" fill="url(#paint5_linear_1199_87798)"/>
<path d="M34.1916 27.2873C34.1916 27.4767 34.038 27.6303 33.8486 27.6303C33.6592 27.6303 33.5056 27.4767 33.5056 27.2873C33.5056 27.0979 33.6592 26.9443 33.8486 26.9443C34.038 26.9443 34.1916 27.0979 34.1916 27.2873Z" fill="white"/>
<g style="mix-blend-mode:multiply" opacity="0.2">
<g style="mix-blend-mode:multiply">
<path d="M39.2708 18.1738C37.2603 25.752 30.8746 30.1931 28.4639 37.5711C28.3352 37.9601 28.2179 38.3604 28.115 38.7664C28.0034 39.1983 27.909 39.6387 27.829 40.0905C27.8662 39.4614 27.9005 38.8952 27.9263 38.4319C27.6718 37.98 27.4487 37.534 27.2514 37.105C26.7023 37.3452 25.8244 37.5854 25.2152 37.0564C24.2658 36.2385 23.877 33.5647 23.877 33.5647L25.8701 32.844C25.8215 32.5952 25.8043 32.458 25.8043 32.458L38.5073 16.5352C38.796 17.1099 39.0477 17.6561 39.2708 18.1738Z" fill="#B74970"/>
</g>
</g>
<path d="M38.4602 25.4811C39.1719 24.5322 40.5358 24.5322 40.5358 24.5322L40.5952 25.1549L38.6085 26.0148L38.4602 25.4811Z" fill="#5D3000"/>
<path d="M38.4929 25.8049C40.1312 24.7271 40.5952 24.9773 40.5952 24.9773C40.5952 24.9773 41.1883 26.5785 40.8642 27.7881C40.447 27.8535 39.0103 28.3486 39.0103 28.3486L38.4929 25.8049Z" fill="white"/>
<path d="M40.5973 27.6946C41.0713 27.6946 41.4556 27.0278 41.4556 26.2052C41.4556 25.3826 41.0713 24.7158 40.5973 24.7158C40.1233 24.7158 39.739 25.3826 39.739 26.2052C39.739 27.0278 40.1233 27.6946 40.5973 27.6946Z" fill="url(#paint6_linear_1199_87798)"/>
<path d="M40.057 26.1555C40.057 26.3449 39.9035 26.4985 39.7141 26.4985C39.5246 26.4985 39.3711 26.3449 39.3711 26.1555C39.3711 25.9661 39.5246 25.8125 39.7141 25.8125C39.9035 25.8125 40.057 25.9661 40.057 26.1555Z" fill="white"/>
<path d="M38.7751 37.7403C36.0408 37.3617 34.5188 35.6406 34.5188 35.6406C36.4252 35.5553 37.4129 34.9022 39.0382 34.9122C40.6263 34.9259 41.0052 35.1907 40.6834 35.7211C40.6791 35.7334 40.6691 35.7464 40.6623 35.7579C40.6775 35.7935 40.6919 35.8316 40.7046 35.8663C40.9453 36.5782 40.1057 37.9246 38.7751 37.7403Z" fill="#FF7B5D"/>
<g style="mix-blend-mode:multiply" opacity="0.3">
<g style="mix-blend-mode:multiply">
<path d="M40.7045 35.8668C39.4774 36.4965 35.7503 36.3063 34.7454 35.7398C36.044 36.149 39.79 36.2682 40.6833 35.7217C40.679 35.734 40.669 35.747 40.6622 35.7584C40.6774 35.7941 40.6918 35.8321 40.7045 35.8668Z" fill="#EB5000"/>
</g>
</g>
<path d="M14.0554 40.9029C16.2058 49.0073 24.0644 52.3989 24.0644 52.3989L24.2188 52.213L24.4017 51.9928L24.8907 51.4066C24.8907 51.4066 23.6354 49.5563 23.2179 46.505C23.2035 46.4193 23.1921 46.3334 23.1836 46.2448C23.1721 46.1733 23.1664 46.0989 23.1578 46.0246C23.1464 45.9074 23.135 45.7901 23.1263 45.67C22.9776 43.7683 23.1749 41.4776 24.1415 38.9211V38.9182C24.1959 38.7752 24.253 38.6294 24.3131 38.4836C24.4675 38.1004 24.6419 37.7114 24.8336 37.3197C24.9109 37.1595 24.9909 37.0051 25.0767 36.8449V36.8421C25.3712 36.273 25.7087 35.6924 26.089 35.1034C26.7667 34.0538 27.4759 33.0901 28.2023 32.1778C28.2023 32.175 28.2051 32.175 28.2051 32.175C28.3368 32.0092 28.4683 31.8461 28.6026 31.6831C34.4107 24.6026 41.0939 20.6361 41.1024 5.3338C41.1024 5.3338 39.624 5.27375 36.3868 6.20029C36.2924 6.22598 36.198 6.25461 36.1009 6.28324C34.3764 6.78941 32.1802 7.56724 29.472 8.76544C29.3748 8.80545 29.2775 8.84839 29.1803 8.89126C28.2853 9.29166 27.3387 9.73486 26.3321 10.2268C26.2406 10.2725 26.1491 10.3182 26.0547 10.364C24.459 11.1562 22.7231 12.0713 20.8414 13.1294C20.7556 13.178 20.667 13.2295 20.5783 13.2781C20.3152 13.4268 20.0494 13.5812 19.7804 13.7357C19.6919 13.7842 19.6032 13.8357 19.5146 13.8901C18.142 14.6822 16.7006 15.5487 15.1821 16.4953C15.0935 16.5524 15.0048 16.6068 14.9161 16.6639C14.4443 16.9586 13.9638 17.2645 13.4776 17.5762C14.3041 22.6207 11.9048 32.7956 14.0554 40.9029Z" fill="url(#paint7_linear_1199_87798)"/>
<path d="M38.4603 22.665C37.9874 26.2498 39.3218 30.0454 39.3218 30.0454C39.3218 30.0454 41.5346 29.6712 42.0347 30.1834C42.5348 30.6955 41.0486 32.9373 41.0486 32.9373C41.0486 32.9373 42.8917 30.8521 42.4205 30.0953C41.8624 29.1989 39.5943 29.6816 39.5943 29.6816C39.5943 29.6816 38.5148 27.0632 38.4603 22.665Z" fill="#F48B79"/>
<path d="M45.8517 60.0002H17.2625L22.1061 54.5947C28.9846 58.8492 36.7605 57.0954 40.693 54.9921L45.8517 60.0002Z" fill="#FBC0D7"/>
<path d="M28.2495 57.6323L27.32 57.8782C27.32 57.8782 27.1512 53.4143 25.5442 50.7605L26.3077 49.9111C28.3895 52.2131 28.2495 57.6323 28.2495 57.6323Z" fill="#FBC0D7"/>
<path d="M38.1212 52.2592C38.044 53.832 37.4606 57.0434 37.4606 57.0434L36.6284 57.1922C36.6284 57.1922 37.2489 53.7204 36.8543 50.918L38.1212 52.2592Z" fill="#FBC0D7"/>
<g style="mix-blend-mode:screen" opacity="0.3">
<g style="mix-blend-mode:screen">
<g style="mix-blend-mode:screen">
<path d="M29.473 8.76562C29.3758 8.80564 29.2785 8.84858 29.1813 8.89145C29.1355 14.2306 27.9402 18.8032 26.7734 23.2414C25.5266 27.9914 24.3455 32.4955 24.8345 37.3198C24.9118 37.1597 24.9918 37.0052 25.0776 36.8451V36.8422C24.7088 32.2353 25.8497 27.8885 27.0507 23.3159C28.229 18.8233 29.4443 14.1933 29.473 8.76562Z" fill="#FFCB3A"/>
</g>
</g>
<g style="mix-blend-mode:screen">
<g style="mix-blend-mode:screen">
<path d="M24.3141 38.4834C23.3533 34.84 24.1798 29.95 25.0462 24.8139C25.8641 19.9695 26.7077 14.988 26.3331 10.2266C26.2416 10.2723 26.15 10.318 26.0558 10.3638C26.4046 15.0566 25.5724 19.981 24.766 24.7653C23.8652 30.1043 23.0073 35.1803 24.1425 38.918C24.197 38.775 24.2541 38.6291 24.3141 38.4834Z" fill="#FFCB3A"/>
</g>
</g>
<g style="mix-blend-mode:screen">
<g style="mix-blend-mode:screen">
<path d="M23.2178 46.5046C23.2034 46.4188 23.192 46.3329 23.1834 46.2443C23.172 46.1728 23.1663 46.0985 23.1576 46.0241C23.1463 45.9069 23.1348 45.7896 23.1262 45.6695C19.7289 40.7394 20.2465 35.8235 20.8957 29.658C21.3932 24.9223 21.9566 19.6033 20.8412 13.1289C20.7555 13.1775 20.6668 13.229 20.5781 13.2776C21.662 19.6691 21.1072 24.9338 20.6125 29.6294C19.9862 35.5805 19.4773 40.3848 22.4571 45.1777C19.0683 40.6364 19.4686 33.9876 19.8833 26.9956C20.1436 22.5889 20.4152 18.0447 19.7803 13.7352C19.6917 13.7838 19.6031 13.8353 19.5144 13.8896C20.1235 18.1363 19.8576 22.626 19.5973 26.9784C19.1398 34.6396 18.7079 41.8976 23.2178 46.5046Z" fill="#FFCB3A"/>
</g>
</g>
<g style="mix-blend-mode:screen">
<g style="mix-blend-mode:screen">
<path d="M17.1564 42.7329C15.0745 38.146 15.2318 34.0823 15.4291 28.9377C15.5664 25.4031 15.7179 21.4424 15.1831 16.4951C15.0946 16.5523 15.0059 16.6067 14.9172 16.6638C15.4262 21.5282 15.2775 25.4346 15.1432 28.9291C14.9429 34.1109 14.7857 38.2031 16.8961 42.8502C19.0838 47.6745 22.1208 50.62 24.2198 52.2128L24.4029 51.9926C22.3353 50.4255 19.3269 47.5172 17.1564 42.7329Z" fill="#FFCB3A"/>
</g>
</g>
<g style="mix-blend-mode:screen">
<g style="mix-blend-mode:screen">
<path d="M36.1018 6.28314C36.036 14.6535 33.2535 20.3814 31.0001 25.0314C29.7417 27.6222 28.635 29.9071 28.2061 32.1749C28.3376 32.0091 28.4693 31.846 28.6036 31.683C29.0869 29.6269 30.1107 27.5193 31.2575 25.1544C33.5338 20.4644 36.3392 14.6792 36.3878 6.2002C36.2934 6.22589 36.199 6.25451 36.1018 6.28314Z" fill="#FFCB3A"/>
</g>
</g>
</g>
</g>
<path d="M81.3555 11.8027C81.3555 11.627 81.3281 11.4707 81.2734 11.334C81.2227 11.1973 81.1309 11.0723 80.998 10.959C80.8652 10.8457 80.6777 10.7363 80.4355 10.6309C80.1973 10.5215 79.8926 10.4102 79.5215 10.2969C79.1152 10.1719 78.7402 10.0332 78.3965 9.88086C78.0566 9.72461 77.7598 9.54492 77.5059 9.3418C77.252 9.13477 77.0547 8.89844 76.9141 8.63281C76.7734 8.36328 76.7031 8.05273 76.7031 7.70117C76.7031 7.35352 76.7754 7.03711 76.9199 6.75195C77.0684 6.4668 77.2773 6.2207 77.5469 6.01367C77.8203 5.80273 78.1426 5.64062 78.5137 5.52734C78.8848 5.41016 79.2949 5.35156 79.7441 5.35156C80.377 5.35156 80.9219 5.46875 81.3789 5.70312C81.8398 5.9375 82.1934 6.25195 82.4395 6.64648C82.6895 7.04102 82.8145 7.47656 82.8145 7.95312H81.3555C81.3555 7.67188 81.2949 7.42383 81.1738 7.20898C81.0566 6.99023 80.877 6.81836 80.6348 6.69336C80.3965 6.56836 80.0938 6.50586 79.7266 6.50586C79.3789 6.50586 79.0898 6.55859 78.8594 6.66406C78.6289 6.76953 78.457 6.91211 78.3438 7.0918C78.2305 7.27148 78.1738 7.47461 78.1738 7.70117C78.1738 7.86133 78.2109 8.00781 78.2852 8.14062C78.3594 8.26953 78.4727 8.39062 78.625 8.50391C78.7773 8.61328 78.9688 8.7168 79.1992 8.81445C79.4297 8.91211 79.7012 9.00586 80.0137 9.0957C80.4863 9.23633 80.8984 9.39258 81.25 9.56445C81.6016 9.73242 81.8945 9.92383 82.1289 10.1387C82.3633 10.3535 82.5391 10.5977 82.6562 10.8711C82.7734 11.1406 82.832 11.4473 82.832 11.791C82.832 12.1504 82.7598 12.4746 82.6152 12.7637C82.4707 13.0488 82.2637 13.293 81.9941 13.4961C81.7285 13.6953 81.4082 13.8496 81.0332 13.959C80.6621 14.0645 80.248 14.1172 79.791 14.1172C79.3809 14.1172 78.9766 14.0625 78.5781 13.9531C78.1836 13.8438 77.8242 13.6777 77.5 13.4551C77.1758 13.2285 76.918 12.9473 76.7266 12.6113C76.5352 12.2715 76.4395 11.875 76.4395 11.4219H77.9102C77.9102 11.6992 77.957 11.9355 78.0508 12.1309C78.1484 12.3262 78.2832 12.4863 78.4551 12.6113C78.627 12.7324 78.8262 12.8223 79.0527 12.8809C79.2832 12.9395 79.5293 12.9688 79.791 12.9688C80.1348 12.9688 80.4219 12.9199 80.6523 12.8223C80.8867 12.7246 81.0625 12.5879 81.1797 12.4121C81.2969 12.2363 81.3555 12.0332 81.3555 11.8027ZM85.3867 5V14H83.9805V5H85.3867ZM85.1406 10.5957L84.6836 10.5898C84.6875 10.1523 84.748 9.74805 84.8652 9.37695C84.9863 9.00586 85.1543 8.68359 85.3691 8.41016C85.5879 8.13281 85.8496 7.91992 86.1543 7.77148C86.459 7.61914 86.7969 7.54297 87.168 7.54297C87.4805 7.54297 87.7617 7.58594 88.0117 7.67188C88.2656 7.75781 88.4844 7.89648 88.668 8.08789C88.8516 8.27539 88.9902 8.52148 89.084 8.82617C89.1816 9.12695 89.2305 9.49414 89.2305 9.92773V14H87.8125V9.91602C87.8125 9.61133 87.7676 9.36914 87.6777 9.18945C87.5918 9.00977 87.4648 8.88086 87.2969 8.80273C87.1289 8.7207 86.9238 8.67969 86.6816 8.67969C86.4277 8.67969 86.2031 8.73047 86.0078 8.83203C85.8164 8.93359 85.6562 9.07227 85.5273 9.24805C85.3984 9.42383 85.3008 9.62695 85.2344 9.85742C85.1719 10.0879 85.1406 10.334 85.1406 10.5957ZM94.2344 12.7285V9.70508C94.2344 9.47852 94.1934 9.2832 94.1113 9.11914C94.0293 8.95508 93.9043 8.82812 93.7363 8.73828C93.5723 8.64844 93.3652 8.60352 93.1152 8.60352C92.8848 8.60352 92.6855 8.64258 92.5176 8.7207C92.3496 8.79883 92.2188 8.9043 92.125 9.03711C92.0312 9.16992 91.9844 9.32031 91.9844 9.48828H90.5781C90.5781 9.23828 90.6387 8.99609 90.7598 8.76172C90.8809 8.52734 91.0566 8.31836 91.2871 8.13477C91.5176 7.95117 91.793 7.80664 92.1133 7.70117C92.4336 7.5957 92.793 7.54297 93.1914 7.54297C93.668 7.54297 94.0898 7.62305 94.457 7.7832C94.8281 7.94336 95.1191 8.18555 95.3301 8.50977C95.5449 8.83008 95.6523 9.23242 95.6523 9.7168V12.5352C95.6523 12.8242 95.6719 13.084 95.7109 13.3145C95.7539 13.541 95.8145 13.7383 95.8926 13.9062V14H94.4453C94.3789 13.8477 94.3262 13.6543 94.2871 13.4199C94.252 13.1816 94.2344 12.9512 94.2344 12.7285ZM94.4395 10.1445L94.4512 11.0176H93.4375C93.1758 11.0176 92.9453 11.043 92.7461 11.0938C92.5469 11.1406 92.3809 11.2109 92.248 11.3047C92.1152 11.3984 92.0156 11.5117 91.9492 11.6445C91.8828 11.7773 91.8496 11.9277 91.8496 12.0957C91.8496 12.2637 91.8887 12.418 91.9668 12.5586C92.0449 12.6953 92.1582 12.8027 92.3066 12.8809C92.459 12.959 92.6426 12.998 92.8574 12.998C93.1465 12.998 93.3984 12.9395 93.6133 12.8223C93.832 12.7012 94.0039 12.5547 94.1289 12.3828C94.2539 12.207 94.3203 12.041 94.3281 11.8848L94.7852 12.5117C94.7383 12.6719 94.6582 12.8438 94.5449 13.0273C94.4316 13.2109 94.2832 13.3867 94.0996 13.5547C93.9199 13.7188 93.7031 13.8535 93.4492 13.959C93.1992 14.0645 92.9102 14.1172 92.582 14.1172C92.168 14.1172 91.7988 14.0352 91.4746 13.8711C91.1504 13.7031 90.8965 13.4785 90.7129 13.1973C90.5293 12.9121 90.4375 12.5898 90.4375 12.2305C90.4375 11.8945 90.5 11.5977 90.625 11.3398C90.7539 11.0781 90.9414 10.8594 91.1875 10.6836C91.4375 10.5078 91.7422 10.375 92.1016 10.2852C92.4609 10.1914 92.8711 10.1445 93.332 10.1445H94.4395ZM98.5469 8.86719V14H97.1348V7.66016H98.4824L98.5469 8.86719ZM100.486 7.61914L100.475 8.93164C100.389 8.91602 100.295 8.9043 100.193 8.89648C100.096 8.88867 99.998 8.88477 99.9004 8.88477C99.6582 8.88477 99.4453 8.91992 99.2617 8.99023C99.0781 9.05664 98.9238 9.1543 98.7988 9.2832C98.6777 9.4082 98.584 9.56055 98.5176 9.74023C98.4512 9.91992 98.4121 10.1211 98.4004 10.3438L98.0781 10.3672C98.0781 9.96875 98.1172 9.59961 98.1953 9.25977C98.2734 8.91992 98.3906 8.62109 98.5469 8.36328C98.707 8.10547 98.9062 7.9043 99.1445 7.75977C99.3867 7.61523 99.666 7.54297 99.9824 7.54297C100.068 7.54297 100.16 7.55078 100.258 7.56641C100.359 7.58203 100.436 7.59961 100.486 7.61914ZM100.949 10.9004V10.7656C100.949 10.3086 101.016 9.88477 101.148 9.49414C101.281 9.09961 101.473 8.75781 101.723 8.46875C101.977 8.17578 102.285 7.94922 102.648 7.78906C103.016 7.625 103.43 7.54297 103.891 7.54297C104.355 7.54297 104.77 7.625 105.133 7.78906C105.5 7.94922 105.811 8.17578 106.064 8.46875C106.318 8.75781 106.512 9.09961 106.645 9.49414C106.777 9.88477 106.844 10.3086 106.844 10.7656V10.9004C106.844 11.3574 106.777 11.7812 106.645 12.1719C106.512 12.5625 106.318 12.9043 106.064 13.1973C105.811 13.4863 105.502 13.7129 105.139 13.877C104.775 14.0371 104.363 14.1172 103.902 14.1172C103.438 14.1172 103.021 14.0371 102.654 13.877C102.291 13.7129 101.982 13.4863 101.729 13.1973C101.475 12.9043 101.281 12.5625 101.148 12.1719C101.016 11.7812 100.949 11.3574 100.949 10.9004ZM102.361 10.7656V10.9004C102.361 11.1855 102.391 11.4551 102.449 11.709C102.508 11.9629 102.6 12.1855 102.725 12.377C102.85 12.5684 103.01 12.7188 103.205 12.8281C103.4 12.9375 103.633 12.9922 103.902 12.9922C104.164 12.9922 104.391 12.9375 104.582 12.8281C104.777 12.7188 104.938 12.5684 105.062 12.377C105.188 12.1855 105.279 11.9629 105.338 11.709C105.4 11.4551 105.432 11.1855 105.432 10.9004V10.7656C105.432 10.4844 105.4 10.2188 105.338 9.96875C105.279 9.71484 105.186 9.49023 105.057 9.29492C104.932 9.09961 104.771 8.94727 104.576 8.83789C104.385 8.72461 104.156 8.66797 103.891 8.66797C103.625 8.66797 103.395 8.72461 103.199 8.83789C103.008 8.94727 102.85 9.09961 102.725 9.29492C102.6 9.49023 102.508 9.71484 102.449 9.96875C102.391 10.2188 102.361 10.4844 102.361 10.7656ZM109.428 9.01367V14H108.016V7.66016H109.346L109.428 9.01367ZM109.176 10.5957L108.719 10.5898C108.723 10.1406 108.785 9.72852 108.906 9.35352C109.031 8.97852 109.203 8.65625 109.422 8.38672C109.645 8.11719 109.91 7.91016 110.219 7.76562C110.527 7.61719 110.871 7.54297 111.25 7.54297C111.555 7.54297 111.83 7.58594 112.076 7.67188C112.326 7.75391 112.539 7.88867 112.715 8.07617C112.895 8.26367 113.031 8.50781 113.125 8.80859C113.219 9.10547 113.266 9.4707 113.266 9.9043V14H111.848V9.89844C111.848 9.59375 111.803 9.35352 111.713 9.17773C111.627 8.99805 111.5 8.87109 111.332 8.79688C111.168 8.71875 110.963 8.67969 110.717 8.67969C110.475 8.67969 110.258 8.73047 110.066 8.83203C109.875 8.93359 109.713 9.07227 109.58 9.24805C109.451 9.42383 109.352 9.62695 109.281 9.85742C109.211 10.0879 109.176 10.334 109.176 10.5957Z" fill="#131420"/>
<path d="M266 20H84C79.5817 20 76 23.5817 76 28V52C76 56.4183 79.5817 60 84 60H266C270.418 60 274 56.4183 274 52V28C274 23.5817 270.418 20 266 20Z" fill="#F0F5F9"/>
<path d="M92.5625 39.1367V40.0566H87.9453V39.1367H92.5625ZM88.1211 35.4688V44H86.9902V35.4688H88.1211ZM93.5469 35.4688V44H92.4219V35.4688H93.5469ZM98.0234 44.1172C97.582 44.1172 97.1816 44.043 96.8223 43.8945C96.4668 43.7422 96.1602 43.5293 95.9023 43.2559C95.6484 42.9824 95.4531 42.6582 95.3164 42.2832C95.1797 41.9082 95.1113 41.498 95.1113 41.0527V40.8066C95.1113 40.291 95.1875 39.832 95.3398 39.4297C95.4922 39.0234 95.6992 38.6797 95.9609 38.3984C96.2227 38.1172 96.5195 37.9043 96.8516 37.7598C97.1836 37.6152 97.5273 37.543 97.8828 37.543C98.3359 37.543 98.7266 37.6211 99.0547 37.7773C99.3867 37.9336 99.6582 38.1523 99.8691 38.4336C100.08 38.7109 100.236 39.0391 100.338 39.418C100.439 39.793 100.49 40.2031 100.49 40.6484V41.1348H95.7559V40.25H99.4062V40.168C99.3906 39.8867 99.332 39.6133 99.2305 39.3477C99.1328 39.082 98.9766 38.8633 98.7617 38.6914C98.5469 38.5195 98.2539 38.4336 97.8828 38.4336C97.6367 38.4336 97.4102 38.4863 97.2031 38.5918C96.9961 38.6934 96.8184 38.8457 96.6699 39.0488C96.5215 39.252 96.4062 39.5 96.3242 39.793C96.2422 40.0859 96.2012 40.4238 96.2012 40.8066V41.0527C96.2012 41.3535 96.2422 41.6367 96.3242 41.9023C96.4102 42.1641 96.5332 42.3945 96.6934 42.5938C96.8574 42.793 97.0547 42.9492 97.2852 43.0625C97.5195 43.1758 97.7852 43.2324 98.082 43.2324C98.4648 43.2324 98.7891 43.1543 99.0547 42.998C99.3203 42.8418 99.5527 42.6328 99.752 42.3711L100.408 42.8926C100.271 43.0996 100.098 43.2969 99.8867 43.4844C99.6758 43.6719 99.416 43.8242 99.1074 43.9414C98.8027 44.0586 98.4414 44.1172 98.0234 44.1172ZM102.934 35V44H101.844V35H102.934ZM105.852 35V44H104.762V35H105.852ZM107.305 40.9004V40.7656C107.305 40.3086 107.371 39.8848 107.504 39.4941C107.637 39.0996 107.828 38.7578 108.078 38.4688C108.328 38.1758 108.631 37.9492 108.986 37.7891C109.342 37.625 109.74 37.543 110.182 37.543C110.627 37.543 111.027 37.625 111.383 37.7891C111.742 37.9492 112.047 38.1758 112.297 38.4688C112.551 38.7578 112.744 39.0996 112.877 39.4941C113.01 39.8848 113.076 40.3086 113.076 40.7656V40.9004C113.076 41.3574 113.01 41.7812 112.877 42.1719C112.744 42.5625 112.551 42.9043 112.297 43.1973C112.047 43.4863 111.744 43.7129 111.389 43.877C111.037 44.0371 110.639 44.1172 110.193 44.1172C109.748 44.1172 109.348 44.0371 108.992 43.877C108.637 43.7129 108.332 43.4863 108.078 43.1973C107.828 42.9043 107.637 42.5625 107.504 42.1719C107.371 41.7812 107.305 41.3574 107.305 40.9004ZM108.389 40.7656V40.9004C108.389 41.2168 108.426 41.5156 108.5 41.7969C108.574 42.0742 108.686 42.3203 108.834 42.5352C108.986 42.75 109.176 42.9199 109.402 43.0449C109.629 43.166 109.893 43.2266 110.193 43.2266C110.49 43.2266 110.75 43.166 110.973 43.0449C111.199 42.9199 111.387 42.75 111.535 42.5352C111.684 42.3203 111.795 42.0742 111.869 41.7969C111.947 41.5156 111.986 41.2168 111.986 40.9004V40.7656C111.986 40.4531 111.947 40.1582 111.869 39.8809C111.795 39.5996 111.682 39.3516 111.529 39.1367C111.381 38.918 111.193 38.7461 110.967 38.6211C110.744 38.4961 110.482 38.4336 110.182 38.4336C109.885 38.4336 109.623 38.4961 109.396 38.6211C109.174 38.7461 108.986 38.918 108.834 39.1367C108.686 39.3516 108.574 39.5996 108.5 39.8809C108.426 40.1582 108.389 40.4531 108.389 40.7656ZM115.725 35.4688L115.648 41.5918H114.67L114.588 35.4688H115.725ZM114.553 43.4551C114.553 43.2793 114.605 43.1309 114.711 43.0098C114.82 42.8887 114.98 42.8281 115.191 42.8281C115.398 42.8281 115.557 42.8887 115.666 43.0098C115.779 43.1309 115.836 43.2793 115.836 43.4551C115.836 43.623 115.779 43.7676 115.666 43.8887C115.557 44.0098 115.398 44.0703 115.191 44.0703C114.98 44.0703 114.82 44.0098 114.711 43.8887C114.605 43.7676 114.553 43.623 114.553 43.4551ZM121.883 35.4688V44H120.752V35.4688H121.883ZM127.836 39.0137V44H126.752V37.6602H127.777L127.836 39.0137ZM127.578 40.5898L127.127 40.5723C127.131 40.1387 127.195 39.7383 127.32 39.3711C127.445 39 127.621 38.6777 127.848 38.4043C128.074 38.1309 128.344 37.9199 128.656 37.7715C128.973 37.6191 129.322 37.543 129.705 37.543C130.018 37.543 130.299 37.5859 130.549 37.6719C130.799 37.7539 131.012 37.8867 131.188 38.0703C131.367 38.2539 131.504 38.4922 131.598 38.7852C131.691 39.0742 131.738 39.4277 131.738 39.8457V44H130.648V39.834C130.648 39.502 130.6 39.2363 130.502 39.0371C130.404 38.834 130.262 38.6875 130.074 38.5977C129.887 38.5039 129.656 38.457 129.383 38.457C129.113 38.457 128.867 38.5137 128.645 38.627C128.426 38.7402 128.236 38.8965 128.076 39.0957C127.92 39.2949 127.797 39.5234 127.707 39.7812C127.621 40.0352 127.578 40.3047 127.578 40.5898ZM136.016 44.1172C135.574 44.1172 135.174 44.043 134.814 43.8945C134.459 43.7422 134.152 43.5293 133.895 43.2559C133.641 42.9824 133.445 42.6582 133.309 42.2832C133.172 41.9082 133.104 41.498 133.104 41.0527V40.8066C133.104 40.291 133.18 39.832 133.332 39.4297C133.484 39.0234 133.691 38.6797 133.953 38.3984C134.215 38.1172 134.512 37.9043 134.844 37.7598C135.176 37.6152 135.52 37.543 135.875 37.543C136.328 37.543 136.719 37.6211 137.047 37.7773C137.379 37.9336 137.65 38.1523 137.861 38.4336C138.072 38.7109 138.229 39.0391 138.33 39.418C138.432 39.793 138.482 40.2031 138.482 40.6484V41.1348H133.748V40.25H137.398V40.168C137.383 39.8867 137.324 39.6133 137.223 39.3477C137.125 39.082 136.969 38.8633 136.754 38.6914C136.539 38.5195 136.246 38.4336 135.875 38.4336C135.629 38.4336 135.402 38.4863 135.195 38.5918C134.988 38.6934 134.811 38.8457 134.662 39.0488C134.514 39.252 134.398 39.5 134.316 39.793C134.234 40.0859 134.193 40.4238 134.193 40.8066V41.0527C134.193 41.3535 134.234 41.6367 134.316 41.9023C134.402 42.1641 134.525 42.3945 134.686 42.5938C134.85 42.793 135.047 42.9492 135.277 43.0625C135.512 43.1758 135.777 43.2324 136.074 43.2324C136.457 43.2324 136.781 43.1543 137.047 42.998C137.312 42.8418 137.545 42.6328 137.744 42.3711L138.4 42.8926C138.264 43.0996 138.09 43.2969 137.879 43.4844C137.668 43.6719 137.408 43.8242 137.1 43.9414C136.795 44.0586 136.434 44.1172 136.016 44.1172ZM142.379 44.1172C141.938 44.1172 141.537 44.043 141.178 43.8945C140.822 43.7422 140.516 43.5293 140.258 43.2559C140.004 42.9824 139.809 42.6582 139.672 42.2832C139.535 41.9082 139.467 41.498 139.467 41.0527V40.8066C139.467 40.291 139.543 39.832 139.695 39.4297C139.848 39.0234 140.055 38.6797 140.316 38.3984C140.578 38.1172 140.875 37.9043 141.207 37.7598C141.539 37.6152 141.883 37.543 142.238 37.543C142.691 37.543 143.082 37.6211 143.41 37.7773C143.742 37.9336 144.014 38.1523 144.225 38.4336C144.436 38.7109 144.592 39.0391 144.693 39.418C144.795 39.793 144.846 40.2031 144.846 40.6484V41.1348H140.111V40.25H143.762V40.168C143.746 39.8867 143.688 39.6133 143.586 39.3477C143.488 39.082 143.332 38.8633 143.117 38.6914C142.902 38.5195 142.609 38.4336 142.238 38.4336C141.992 38.4336 141.766 38.4863 141.559 38.5918C141.352 38.6934 141.174 38.8457 141.025 39.0488C140.877 39.252 140.762 39.5 140.68 39.793C140.598 40.0859 140.557 40.4238 140.557 40.8066V41.0527C140.557 41.3535 140.598 41.6367 140.68 41.9023C140.766 42.1641 140.889 42.3945 141.049 42.5938C141.213 42.793 141.41 42.9492 141.641 43.0625C141.875 43.1758 142.141 43.2324 142.438 43.2324C142.82 43.2324 143.145 43.1543 143.41 42.998C143.676 42.8418 143.908 42.6328 144.107 42.3711L144.764 42.8926C144.627 43.0996 144.453 43.2969 144.242 43.4844C144.031 43.6719 143.771 43.8242 143.463 43.9414C143.158 44.0586 142.797 44.1172 142.379 44.1172ZM150.107 42.7695V35H151.197V44H150.201L150.107 42.7695ZM145.842 40.9004V40.7773C145.842 40.293 145.9 39.8535 146.018 39.459C146.139 39.0605 146.309 38.7188 146.527 38.4336C146.75 38.1484 147.014 37.9297 147.318 37.7773C147.627 37.6211 147.971 37.543 148.35 37.543C148.748 37.543 149.096 37.6133 149.393 37.7539C149.693 37.8906 149.947 38.0918 150.154 38.3574C150.365 38.6191 150.531 38.9355 150.652 39.3066C150.773 39.6777 150.857 40.0977 150.904 40.5664V41.1055C150.861 41.5703 150.777 41.9883 150.652 42.3594C150.531 42.7305 150.365 43.0469 150.154 43.3086C149.947 43.5703 149.693 43.7715 149.393 43.9121C149.092 44.0488 148.74 44.1172 148.338 44.1172C147.967 44.1172 147.627 44.0371 147.318 43.877C147.014 43.7168 146.75 43.4922 146.527 43.2031C146.309 42.9141 146.139 42.5742 146.018 42.1836C145.9 41.7891 145.842 41.3613 145.842 40.9004ZM146.932 40.7773V40.9004C146.932 41.2168 146.963 41.5137 147.025 41.791C147.092 42.0684 147.193 42.3125 147.33 42.5234C147.467 42.7344 147.641 42.9004 147.852 43.0215C148.062 43.1387 148.314 43.1973 148.607 43.1973C148.967 43.1973 149.262 43.1211 149.492 42.9688C149.727 42.8164 149.914 42.6152 150.055 42.3652C150.195 42.1152 150.305 41.8438 150.383 41.5508V40.1387C150.336 39.9238 150.268 39.7168 150.178 39.5176C150.092 39.3145 149.979 39.1348 149.838 38.9785C149.701 38.8184 149.531 38.6914 149.328 38.5977C149.129 38.5039 148.893 38.457 148.619 38.457C148.322 38.457 148.066 38.5195 147.852 38.6445C147.641 38.7656 147.467 38.9336 147.33 39.1484C147.193 39.3594 147.092 39.6055 147.025 39.8867C146.963 40.1641 146.932 40.4609 146.932 40.7773ZM159.553 42.3184C159.553 42.1621 159.518 42.0176 159.447 41.8848C159.381 41.748 159.242 41.625 159.031 41.5156C158.824 41.4023 158.512 41.3047 158.094 41.2227C157.742 41.1484 157.424 41.0605 157.139 40.959C156.857 40.8574 156.617 40.7344 156.418 40.5898C156.223 40.4453 156.072 40.2754 155.967 40.0801C155.861 39.8848 155.809 39.6562 155.809 39.3945C155.809 39.1445 155.863 38.9082 155.973 38.6855C156.086 38.4629 156.244 38.2656 156.447 38.0938C156.654 37.9219 156.902 37.7871 157.191 37.6895C157.48 37.5918 157.803 37.543 158.158 37.543C158.666 37.543 159.1 37.6328 159.459 37.8125C159.818 37.9922 160.094 38.2324 160.285 38.5332C160.477 38.8301 160.572 39.1602 160.572 39.5234H159.488C159.488 39.3477 159.436 39.1777 159.33 39.0137C159.229 38.8457 159.078 38.707 158.879 38.5977C158.684 38.4883 158.443 38.4336 158.158 38.4336C157.857 38.4336 157.613 38.4805 157.426 38.5742C157.242 38.6641 157.107 38.7793 157.021 38.9199C156.939 39.0605 156.898 39.209 156.898 39.3652C156.898 39.4824 156.918 39.5879 156.957 39.6816C157 39.7715 157.074 39.8555 157.18 39.9336C157.285 40.0078 157.434 40.0781 157.625 40.1445C157.816 40.2109 158.061 40.2773 158.357 40.3438C158.877 40.4609 159.305 40.6016 159.641 40.7656C159.977 40.9297 160.227 41.1309 160.391 41.3691C160.555 41.6074 160.637 41.8965 160.637 42.2363C160.637 42.5137 160.578 42.7676 160.461 42.998C160.348 43.2285 160.182 43.4277 159.963 43.5957C159.748 43.7598 159.49 43.8887 159.189 43.9824C158.893 44.0723 158.559 44.1172 158.188 44.1172C157.629 44.1172 157.156 44.0176 156.77 43.8184C156.383 43.6191 156.09 43.3613 155.891 43.0449C155.691 42.7285 155.592 42.3945 155.592 42.043H156.682C156.697 42.3398 156.783 42.5762 156.939 42.752C157.096 42.9238 157.287 43.0469 157.514 43.1211C157.74 43.1914 157.965 43.2266 158.188 43.2266C158.484 43.2266 158.732 43.1875 158.932 43.1094C159.135 43.0312 159.289 42.9238 159.395 42.7871C159.5 42.6504 159.553 42.4941 159.553 42.3184ZM165.939 42.5352V37.6602H167.029V44H165.992L165.939 42.5352ZM166.145 41.1992L166.596 41.1875C166.596 41.6094 166.551 42 166.461 42.3594C166.375 42.7148 166.234 43.0234 166.039 43.2852C165.844 43.5469 165.588 43.752 165.271 43.9004C164.955 44.0449 164.57 44.1172 164.117 44.1172C163.809 44.1172 163.525 44.0723 163.268 43.9824C163.014 43.8926 162.795 43.7539 162.611 43.5664C162.428 43.3789 162.285 43.1348 162.184 42.834C162.086 42.5332 162.037 42.1719 162.037 41.75V37.6602H163.121V41.7617C163.121 42.0469 163.152 42.2832 163.215 42.4707C163.281 42.6543 163.369 42.8008 163.479 42.9102C163.592 43.0156 163.717 43.0898 163.854 43.1328C163.994 43.1758 164.139 43.1973 164.287 43.1973C164.748 43.1973 165.113 43.1094 165.383 42.9336C165.652 42.7539 165.846 42.5137 165.963 42.2129C166.084 41.9082 166.145 41.5703 166.145 41.1992ZM169.766 38.8789V46.4375H168.676V37.6602H169.672L169.766 38.8789ZM174.037 40.7773V40.9004C174.037 41.3613 173.982 41.7891 173.873 42.1836C173.764 42.5742 173.604 42.9141 173.393 43.2031C173.186 43.4922 172.93 43.7168 172.625 43.877C172.32 44.0371 171.971 44.1172 171.576 44.1172C171.174 44.1172 170.818 44.0508 170.51 43.918C170.201 43.7852 169.939 43.5918 169.725 43.3379C169.51 43.084 169.338 42.7793 169.209 42.4238C169.084 42.0684 168.998 41.668 168.951 41.2227V40.5664C168.998 40.0977 169.086 39.6777 169.215 39.3066C169.344 38.9355 169.514 38.6191 169.725 38.3574C169.939 38.0918 170.199 37.8906 170.504 37.7539C170.809 37.6133 171.16 37.543 171.559 37.543C171.957 37.543 172.311 37.6211 172.619 37.7773C172.928 37.9297 173.188 38.1484 173.398 38.4336C173.609 38.7188 173.768 39.0605 173.873 39.459C173.982 39.8535 174.037 40.293 174.037 40.7773ZM172.947 40.9004V40.7773C172.947 40.4609 172.914 40.1641 172.848 39.8867C172.781 39.6055 172.678 39.3594 172.537 39.1484C172.4 38.9336 172.225 38.7656 172.01 38.6445C171.795 38.5195 171.539 38.457 171.242 38.457C170.969 38.457 170.73 38.5039 170.527 38.5977C170.328 38.6914 170.158 38.8184 170.018 38.9785C169.877 39.1348 169.762 39.3145 169.672 39.5176C169.586 39.7168 169.521 39.9238 169.479 40.1387V41.6562C169.557 41.9297 169.666 42.1875 169.807 42.4297C169.947 42.668 170.135 42.8613 170.369 43.0098C170.604 43.1543 170.898 43.2266 171.254 43.2266C171.547 43.2266 171.799 43.166 172.01 43.0449C172.225 42.9199 172.4 42.75 172.537 42.5352C172.678 42.3203 172.781 42.0742 172.848 41.7969C172.914 41.5156 172.947 41.2168 172.947 40.9004ZM176.504 38.8789V46.4375H175.414V37.6602H176.41L176.504 38.8789ZM180.775 40.7773V40.9004C180.775 41.3613 180.721 41.7891 180.611 42.1836C180.502 42.5742 180.342 42.9141 180.131 43.2031C179.924 43.4922 179.668 43.7168 179.363 43.877C179.059 44.0371 178.709 44.1172 178.314 44.1172C177.912 44.1172 177.557 44.0508 177.248 43.918C176.939 43.7852 176.678 43.5918 176.463 43.3379C176.248 43.084 176.076 42.7793 175.947 42.4238C175.822 42.0684 175.736 41.668 175.689 41.2227V40.5664C175.736 40.0977 175.824 39.6777 175.953 39.3066C176.082 38.9355 176.252 38.6191 176.463 38.3574C176.678 38.0918 176.938 37.8906 177.242 37.7539C177.547 37.6133 177.898 37.543 178.297 37.543C178.695 37.543 179.049 37.6211 179.357 37.7773C179.666 37.9297 179.926 38.1484 180.137 38.4336C180.348 38.7188 180.506 39.0605 180.611 39.459C180.721 39.8535 180.775 40.293 180.775 40.7773ZM179.686 40.9004V40.7773C179.686 40.4609 179.652 40.1641 179.586 39.8867C179.52 39.6055 179.416 39.3594 179.275 39.1484C179.139 38.9336 178.963 38.7656 178.748 38.6445C178.533 38.5195 178.277 38.457 177.98 38.457C177.707 38.457 177.469 38.5039 177.266 38.5977C177.066 38.6914 176.896 38.8184 176.756 38.9785C176.615 39.1348 176.5 39.3145 176.41 39.5176C176.324 39.7168 176.26 39.9238 176.217 40.1387V41.6562C176.295 41.9297 176.404 42.1875 176.545 42.4297C176.686 42.668 176.873 42.8613 177.107 43.0098C177.342 43.1543 177.637 43.2266 177.992 43.2266C178.285 43.2266 178.537 43.166 178.748 43.0449C178.963 42.9199 179.139 42.75 179.275 42.5352C179.416 42.3203 179.52 42.0742 179.586 41.7969C179.652 41.5156 179.686 41.2168 179.686 40.9004ZM181.871 40.9004V40.7656C181.871 40.3086 181.938 39.8848 182.07 39.4941C182.203 39.0996 182.395 38.7578 182.645 38.4688C182.895 38.1758 183.197 37.9492 183.553 37.7891C183.908 37.625 184.307 37.543 184.748 37.543C185.193 37.543 185.594 37.625 185.949 37.7891C186.309 37.9492 186.613 38.1758 186.863 38.4688C187.117 38.7578 187.311 39.0996 187.443 39.4941C187.576 39.8848 187.643 40.3086 187.643 40.7656V40.9004C187.643 41.3574 187.576 41.7812 187.443 42.1719C187.311 42.5625 187.117 42.9043 186.863 43.1973C186.613 43.4863 186.311 43.7129 185.955 43.877C185.604 44.0371 185.205 44.1172 184.76 44.1172C184.314 44.1172 183.914 44.0371 183.559 43.877C183.203 43.7129 182.898 43.4863 182.645 43.1973C182.395 42.9043 182.203 42.5625 182.07 42.1719C181.938 41.7812 181.871 41.3574 181.871 40.9004ZM182.955 40.7656V40.9004C182.955 41.2168 182.992 41.5156 183.066 41.7969C183.141 42.0742 183.252 42.3203 183.4 42.5352C183.553 42.75 183.742 42.9199 183.969 43.0449C184.195 43.166 184.459 43.2266 184.76 43.2266C185.057 43.2266 185.316 43.166 185.539 43.0449C185.766 42.9199 185.953 42.75 186.102 42.5352C186.25 42.3203 186.361 42.0742 186.436 41.7969C186.514 41.5156 186.553 41.2168 186.553 40.9004V40.7656C186.553 40.4531 186.514 40.1582 186.436 39.8809C186.361 39.5996 186.248 39.3516 186.096 39.1367C185.947 38.918 185.76 38.7461 185.533 38.6211C185.311 38.4961 185.049 38.4336 184.748 38.4336C184.451 38.4336 184.189 38.4961 183.963 38.6211C183.74 38.7461 183.553 38.918 183.4 39.1367C183.252 39.3516 183.141 39.5996 183.066 39.8809C182.992 40.1582 182.955 40.4531 182.955 40.7656ZM190.086 38.6562V44H189.002V37.6602H190.057L190.086 38.6562ZM192.066 37.625L192.061 38.6328C191.971 38.6133 191.885 38.6016 191.803 38.5977C191.725 38.5898 191.635 38.5859 191.533 38.5859C191.283 38.5859 191.062 38.625 190.871 38.7031C190.68 38.7812 190.518 38.8906 190.385 39.0312C190.252 39.1719 190.146 39.3398 190.068 39.5352C189.994 39.7266 189.945 39.9375 189.922 40.168L189.617 40.3438C189.617 39.9609 189.654 39.6016 189.729 39.2656C189.807 38.9297 189.926 38.6328 190.086 38.375C190.246 38.1133 190.449 37.9102 190.695 37.7656C190.945 37.6172 191.242 37.543 191.586 37.543C191.664 37.543 191.754 37.5527 191.855 37.5723C191.957 37.5879 192.027 37.6055 192.066 37.625ZM196.016 37.6602V38.4922H192.588V37.6602H196.016ZM193.748 36.1191H194.832V42.4297C194.832 42.6445 194.865 42.8066 194.932 42.916C194.998 43.0254 195.084 43.0977 195.189 43.1328C195.295 43.168 195.408 43.1855 195.529 43.1855C195.619 43.1855 195.713 43.1777 195.811 43.1621C195.912 43.1426 195.988 43.127 196.039 43.1152L196.045 44C195.959 44.0273 195.846 44.0527 195.705 44.0762C195.568 44.1035 195.402 44.1172 195.207 44.1172C194.941 44.1172 194.697 44.0645 194.475 43.959C194.252 43.8535 194.074 43.6777 193.941 43.4316C193.812 43.1816 193.748 42.8457 193.748 42.4238V36.1191Z" fill="#32375E"/>
</g>
<defs>
<linearGradient id="paint0_linear_1199_87798" x1="46.929" y1="40.7437" x2="20.1794" y2="40.7437" gradientUnits="userSpaceOnUse">
<stop stop-color="#E4941E"/>
<stop offset="1" stop-color="#D16234"/>
</linearGradient>
<radialGradient id="paint1_radial_1199_87798" cx="0" cy="0" r="1" gradientUnits="userSpaceOnUse" gradientTransform="translate(38.408 40.8631) scale(10.849 10.849)">
<stop stop-color="#E3745F"/>
<stop offset="1" stop-color="#FFAE8D"/>
</radialGradient>
<linearGradient id="paint2_linear_1199_87798" x1="43.1112" y1="16.0508" x2="37.4146" y2="16.0508" gradientUnits="userSpaceOnUse">
<stop stop-color="#E4941E"/>
<stop offset="1" stop-color="#D16234"/>
</linearGradient>
<radialGradient id="paint3_radial_1199_87798" cx="0" cy="0" r="1" gradientUnits="userSpaceOnUse" gradientTransform="translate(35.977 20.2341) rotate(180) scale(9.50572 9.5057)">
<stop stop-color="#E3745F"/>
<stop offset="1" stop-color="#FFAE8D"/>
</radialGradient>
<radialGradient id="paint4_radial_1199_87798" cx="0" cy="0" r="1" gradientUnits="userSpaceOnUse" gradientTransform="translate(34.4709 23.2199) rotate(180) scale(7.29031 7.29033)">
<stop stop-color="#E3745F"/>
<stop offset="1" stop-color="#FFAE8D"/>
</radialGradient>
<linearGradient id="paint5_linear_1199_87798" x1="34.9928" y1="26.9069" x2="35.0887" y2="28.3258" gradientUnits="userSpaceOnUse">
<stop stop-color="#174B80"/>
<stop offset="1" stop-color="#00BEDD"/>
</linearGradient>
<linearGradient id="paint6_linear_1199_87798" x1="40.2572" y1="24.9696" x2="40.8325" y2="27.0597" gradientUnits="userSpaceOnUse">
<stop stop-color="#174B80"/>
<stop offset="1" stop-color="#00BEDD"/>
</linearGradient>
<linearGradient id="paint7_linear_1199_87798" x1="27.047" y1="18.897" x2="29.1726" y2="46.9039" gradientUnits="userSpaceOnUse">
<stop stop-color="#FFCB3A"/>
<stop offset="1" stop-color="#FFA23C"/>
</linearGradient>
<clipPath id="clip0_1199_87798">
<rect width="568" height="60" fill="white"/>
</clipPath>
</defs>
</svg>
