<svg width="568" height="72" viewBox="0 0 568 72" fill="none" xmlns="http://www.w3.org/2000/svg">
<g clip-path="url(#clip0_1199_87745)">
<path d="M0 42C0 25.4315 13.4315 12 30 12C46.5685 12 60 25.4315 60 42C60 58.5685 46.5685 72 30 72C13.4315 72 0 58.5685 0 42Z" fill="#F5F3F9"/>
<mask id="mask0_1199_87745" style="mask-type:alpha" maskUnits="userSpaceOnUse" x="0" y="12" width="60" height="60">
<path d="M0 42C0 25.4315 13.4315 12 30 12C46.5685 12 60 25.4315 60 42C60 58.5685 46.5685 72 30 72C13.4315 72 0 58.5685 0 42Z" fill="#F5F3F9"/>
</mask>
<g mask="url(#mask0_1199_87745)">
<path d="M45.0788 61.7682C44.8358 62.1142 44.5698 62.4431 44.2754 62.7519C43.0485 64.0617 41.4042 65.0368 39.3795 65.523C39.1994 65.5688 39.0134 65.6088 38.8247 65.6403C38.5388 65.6974 38.2471 65.7432 37.9497 65.7775C28.6499 66.8613 24.0343 64.4192 22.5416 62.7891C21.0488 61.1619 17.3169 47.5869 24.1715 41.3441C31.0263 35.0985 43.3116 46.2285 43.3116 46.2285C47.5755 51.4275 47.9444 57.7303 45.0788 61.7682Z" fill="url(#paint0_linear_1199_87745)"/>
<g style="mix-blend-mode:screen" opacity="0.1">
<g style="mix-blend-mode:screen">
<g style="mix-blend-mode:screen">
<path d="M40.1309 54.7141C42.3726 58.794 41.9998 62.12 40.9031 63.8725C40.282 64.8647 39.3979 65.4056 38.4989 65.3618L38.4844 65.6472C38.5246 65.6495 38.5648 65.6503 38.6047 65.6503C39.5746 65.6503 40.4951 65.0635 41.1455 64.0241C42.2852 62.203 42.6829 58.7646 40.3817 54.5762L40.1309 54.7141Z" fill="#FDA41C"/>
</g>
</g>
<g style="mix-blend-mode:screen">
<g style="mix-blend-mode:screen">
<path d="M39.5945 62.5546C40.6032 61.3348 41.0012 58.7946 39.0921 55.3232L38.8413 55.4612C40.6814 58.8068 40.3231 61.225 39.3739 62.3723C38.7109 63.1746 37.712 63.4575 36.7032 63.1294L36.615 63.4014C36.9227 63.5013 37.2294 63.5502 37.5282 63.5502C38.321 63.5502 39.0561 63.205 39.5945 62.5546Z" fill="#FDA41C"/>
</g>
</g>
<g style="mix-blend-mode:screen">
<g style="mix-blend-mode:screen">
<path d="M45.0785 61.768C44.8356 62.114 44.5696 62.4428 44.2751 62.7517C45.3789 60.8986 46.2311 57.5241 45.4646 54.7187C44.8956 52.6426 43.5629 51.27 41.5039 50.6408L41.5869 50.3691C43.7174 51.0183 45.153 52.4967 45.7391 54.6444C46.3883 57.0151 45.905 59.7919 45.0785 61.768Z" fill="#FDA41C"/>
</g>
</g>
<g style="mix-blend-mode:screen">
<g style="mix-blend-mode:screen">
<path d="M27.8073 58.9196C27.0114 58.692 23.7551 56.5397 23.5672 50.8398L23.2812 50.8493C23.5032 57.5716 27.6867 59.1824 27.7286 59.1944C27.9576 59.2598 28.2815 59.6784 28.5236 60.0627C27.2636 59.512 23.2086 57.2862 22.4803 51.2347L22.1965 51.2688C23.0796 58.606 28.754 60.4648 28.8113 60.483L29.1431 60.5869L28.9805 60.2794C28.9149 60.156 28.3262 59.0676 27.8073 58.9196Z" fill="#FDA41C"/>
</g>
</g>
</g>
<path d="M45.8517 71.9995H17.2625L22.1061 66.594L25.5452 62.7575L26.3057 61.9079L27.3197 60.7843C27.3197 60.7843 27.6281 55.5228 27.8267 52.0904C27.8678 51.46 27.9021 50.8983 27.9295 50.4324C27.9638 49.713 27.9911 49.2472 27.9911 49.1992L28.4639 49.5692L33.9858 53.9265L34.2873 56.338L34.8353 60.7706L36.8496 62.915H36.8563L38.1239 64.2578L40.693 66.9914L45.8517 71.9995Z" fill="url(#paint1_radial_1199_87745)"/>
<path d="M41.1044 17.334C45.6921 25.8915 40.9785 38.7677 40.9785 38.7677L37.4146 29.6854L41.1044 17.334Z" fill="url(#paint2_linear_1199_87745)"/>
<path d="M25.803 44.458C25.803 44.458 25.8202 44.5952 25.8688 44.844C26.0032 45.5589 26.3749 47.189 27.25 49.105C27.4473 49.534 27.6705 49.98 27.925 50.4319C27.9821 50.5435 28.0479 50.6549 28.1137 50.7664C28.637 51.6702 29.2775 52.5938 30.0554 53.4832C31.2651 54.8673 32.7921 55.7595 34.2849 56.3372C37.2619 57.4868 40.1187 57.381 40.1187 57.381C40.1187 57.381 43.5045 51.53 43.7964 47.229C43.9765 44.5609 43.719 43.3112 42.927 41.3752C42.7468 40.9348 42.538 40.4573 42.3006 39.9167C41.4713 38.038 41.2397 36.305 40.642 34.1029C40.3304 32.9505 39.9186 31.6722 39.2694 30.1738C39.0463 29.6561 38.7947 29.1099 38.5059 28.5352L25.803 44.458Z" fill="#FFAE8D"/>
<path d="M39.4924 41.7094C39.4924 41.7094 40.5334 41.1575 41.7573 41.5264C42.1405 41.6407 42.5466 41.5521 42.927 41.3748C42.7467 40.9344 42.5379 40.4569 42.3006 39.9163C41.4713 38.0376 41.2396 36.3046 40.642 34.1025L38.6558 34.2602C37.8219 36.0297 39.4924 41.7094 39.4924 41.7094Z" fill="url(#paint3_radial_1199_87745)"/>
<path d="M36.3539 36.3711C37.5261 37.6371 37.9481 40.0752 37.8543 41.6694C37.7605 43.2636 31.3369 44.1545 30.2116 41.9976C29.0863 39.8408 32.978 36.7462 33.4469 36.6524C33.9157 36.5586 36.3539 36.3711 36.3539 36.3711Z" fill="url(#paint4_radial_1199_87745)"/>
<path d="M27.7575 48.842C27.7575 48.842 27.5545 48.9735 27.2514 49.1051C26.7023 49.3453 25.8244 49.5855 25.2152 49.0565C24.2658 48.2386 23.877 45.5648 23.877 45.5648L25.8701 44.8441L26.3792 44.6611L27.7575 48.842Z" fill="#FFAE8D"/>
<path d="M35.9489 38.8829L35.9854 38.4346C35.9854 38.4346 33.5423 38.6265 32.8835 39.1994C32.2247 39.7722 31.5945 41.0817 31.5945 41.0817L34.5533 39.8094L35.9489 38.8829Z" fill="#5D3000"/>
<path d="M33.8662 37.0887C33.8662 37.0887 35.8425 37.1746 36.2435 36.9168C36.6445 36.6591 36.7591 35.7998 36.7591 35.7998C36.7591 35.7998 34.8973 36.1435 34.4963 36.1435C34.0954 36.1435 33.8662 37.0887 33.8662 37.0887Z" fill="#B05600"/>
<path d="M38.2197 34.7687C38.5921 34.024 39.1076 33.4512 39.1076 33.4512L41.313 33.3652L40.7975 34.3677C40.7975 34.3677 39.4513 34.2245 38.2197 34.7687Z" fill="#B05600"/>
<path d="M31.5945 41.0816C34.0519 40.3487 36.2076 40.478 36.2076 40.478L35.9489 38.8828C35.9489 38.8828 34.0636 39.0284 33.2013 39.4164C32.3391 39.8044 31.5945 41.0816 31.5945 41.0816Z" fill="white"/>
<path d="M35.0402 41.0979C35.7679 41.0979 36.3577 40.4311 36.3577 39.6085C36.3577 38.7859 35.7679 38.1191 35.0402 38.1191C34.3125 38.1191 33.7227 38.7859 33.7227 39.6085C33.7227 40.4311 34.3125 41.0979 35.0402 41.0979Z" fill="url(#paint5_linear_1199_87745)"/>
<path d="M34.1916 39.2873C34.1916 39.4767 34.038 39.6303 33.8486 39.6303C33.6592 39.6303 33.5056 39.4767 33.5056 39.2873C33.5056 39.0979 33.6592 38.9443 33.8486 38.9443C34.038 38.9443 34.1916 39.0979 34.1916 39.2873Z" fill="white"/>
<g style="mix-blend-mode:multiply" opacity="0.2">
<g style="mix-blend-mode:multiply">
<path d="M39.2708 30.1738C37.2603 37.752 30.8746 42.1931 28.4639 49.5711C28.3352 49.9601 28.2179 50.3604 28.115 50.7664C28.0034 51.1983 27.909 51.6387 27.829 52.0905C27.8662 51.4614 27.9005 50.8952 27.9263 50.4319C27.6718 49.98 27.4487 49.534 27.2514 49.105C26.7023 49.3452 25.8244 49.5854 25.2152 49.0564C24.2658 48.2385 23.877 45.5647 23.877 45.5647L25.8701 44.844C25.8215 44.5952 25.8043 44.458 25.8043 44.458L38.5073 28.5352C38.796 29.1099 39.0477 29.6561 39.2708 30.1738Z" fill="#B74970"/>
</g>
</g>
<path d="M38.4602 37.4811C39.1719 36.5322 40.5358 36.5322 40.5358 36.5322L40.5952 37.1549L38.6085 38.0148L38.4602 37.4811Z" fill="#5D3000"/>
<path d="M38.4929 37.8049C40.1312 36.7271 40.5952 36.9773 40.5952 36.9773C40.5952 36.9773 41.1883 38.5785 40.8642 39.7881C40.447 39.8535 39.0103 40.3486 39.0103 40.3486L38.4929 37.8049Z" fill="white"/>
<path d="M40.5973 39.6946C41.0713 39.6946 41.4556 39.0278 41.4556 38.2052C41.4556 37.3826 41.0713 36.7158 40.5973 36.7158C40.1233 36.7158 39.739 37.3826 39.739 38.2052C39.739 39.0278 40.1233 39.6946 40.5973 39.6946Z" fill="url(#paint6_linear_1199_87745)"/>
<path d="M40.057 38.1555C40.057 38.3449 39.9035 38.4985 39.7141 38.4985C39.5246 38.4985 39.3711 38.3449 39.3711 38.1555C39.3711 37.9661 39.5246 37.8125 39.7141 37.8125C39.9035 37.8125 40.057 37.9661 40.057 38.1555Z" fill="white"/>
<path d="M38.7751 49.7403C36.0408 49.3617 34.5188 47.6406 34.5188 47.6406C36.4252 47.5553 37.4129 46.9022 39.0382 46.9122C40.6263 46.9259 41.0052 47.1907 40.6834 47.7211C40.6791 47.7334 40.6691 47.7464 40.6623 47.7579C40.6775 47.7935 40.6919 47.8316 40.7046 47.8663C40.9453 48.5782 40.1057 49.9246 38.7751 49.7403Z" fill="#FF7B5D"/>
<g style="mix-blend-mode:multiply" opacity="0.3">
<g style="mix-blend-mode:multiply">
<path d="M40.7045 47.8668C39.4774 48.4965 35.7503 48.3063 34.7454 47.7398C36.044 48.149 39.79 48.2682 40.6833 47.7217C40.679 47.734 40.669 47.747 40.6622 47.7584C40.6774 47.7941 40.6918 47.8321 40.7045 47.8668Z" fill="#EB5000"/>
</g>
</g>
<path d="M14.0554 52.9029C16.2058 61.0073 24.0644 64.3989 24.0644 64.3989L24.2188 64.213L24.4017 63.9928L24.8907 63.4066C24.8907 63.4066 23.6354 61.5563 23.2179 58.505C23.2035 58.4193 23.1921 58.3334 23.1836 58.2448C23.1721 58.1733 23.1664 58.0989 23.1578 58.0246C23.1464 57.9074 23.135 57.7901 23.1263 57.67C22.9776 55.7683 23.1749 53.4776 24.1415 50.9211V50.9182C24.1959 50.7752 24.253 50.6294 24.3131 50.4836C24.4675 50.1004 24.6419 49.7114 24.8336 49.3197C24.9109 49.1595 24.9909 49.0051 25.0767 48.8449V48.8421C25.3712 48.273 25.7087 47.6924 26.089 47.1034C26.7667 46.0538 27.4759 45.0901 28.2023 44.1778C28.2023 44.175 28.2051 44.175 28.2051 44.175C28.3368 44.0092 28.4683 43.8461 28.6026 43.6831C34.4107 36.6026 41.0939 32.6361 41.1024 17.3338C41.1024 17.3338 39.624 17.2737 36.3868 18.2003C36.2924 18.226 36.198 18.2546 36.1009 18.2832C34.3764 18.7894 32.1802 19.5672 29.472 20.7654C29.3748 20.8054 29.2775 20.8484 29.1803 20.8913C28.2853 21.2917 27.3387 21.7349 26.3321 22.2268C26.2406 22.2725 26.1491 22.3182 26.0547 22.364C24.459 23.1562 22.7231 24.0713 20.8414 25.1294C20.7556 25.178 20.667 25.2295 20.5783 25.2781C20.3152 25.4268 20.0494 25.5812 19.7804 25.7357C19.6919 25.7842 19.6032 25.8357 19.5146 25.8901C18.142 26.6822 16.7006 27.5487 15.1821 28.4953C15.0935 28.5524 15.0048 28.6068 14.9161 28.6639C14.4443 28.9586 13.9638 29.2645 13.4776 29.5762C14.3041 34.6207 11.9048 44.7956 14.0554 52.9029Z" fill="url(#paint7_linear_1199_87745)"/>
<path d="M38.4603 34.665C37.9874 38.2498 39.3218 42.0454 39.3218 42.0454C39.3218 42.0454 41.5346 41.6712 42.0347 42.1834C42.5348 42.6955 41.0486 44.9373 41.0486 44.9373C41.0486 44.9373 42.8917 42.8521 42.4205 42.0953C41.8624 41.1989 39.5943 41.6816 39.5943 41.6816C39.5943 41.6816 38.5148 39.0632 38.4603 34.665Z" fill="#F48B79"/>
<path d="M45.8517 72.0002H17.2625L22.1061 66.5947C28.9846 70.8492 36.7605 69.0954 40.693 66.9921L45.8517 72.0002Z" fill="#FBC0D7"/>
<path d="M28.2495 69.6323L27.32 69.8782C27.32 69.8782 27.1512 65.4143 25.5442 62.7605L26.3077 61.9111C28.3895 64.2131 28.2495 69.6323 28.2495 69.6323Z" fill="#FBC0D7"/>
<path d="M38.1212 64.2592C38.044 65.832 37.4606 69.0434 37.4606 69.0434L36.6284 69.1922C36.6284 69.1922 37.2489 65.7204 36.8543 62.918L38.1212 64.2592Z" fill="#FBC0D7"/>
<g style="mix-blend-mode:screen" opacity="0.3">
<g style="mix-blend-mode:screen">
<g style="mix-blend-mode:screen">
<path d="M29.473 20.7656C29.3758 20.8056 29.2785 20.8486 29.1813 20.8914C29.1355 26.2306 27.9402 30.8032 26.7734 35.2414C25.5266 39.9914 24.3455 44.4955 24.8345 49.3198C24.9118 49.1597 24.9918 49.0052 25.0776 48.8451V48.8422C24.7088 44.2353 25.8497 39.8885 27.0507 35.3159C28.229 30.8233 29.4443 26.1933 29.473 20.7656Z" fill="#FFCB3A"/>
</g>
</g>
<g style="mix-blend-mode:screen">
<g style="mix-blend-mode:screen">
<path d="M24.3141 50.4834C23.3533 46.84 24.1798 41.95 25.0462 36.8139C25.8641 31.9695 26.7077 26.988 26.3331 22.2266C26.2416 22.2723 26.15 22.318 26.0558 22.3638C26.4046 27.0566 25.5724 31.981 24.766 36.7653C23.8652 42.1043 23.0073 47.1803 24.1425 50.918C24.197 50.775 24.2541 50.6291 24.3141 50.4834Z" fill="#FFCB3A"/>
</g>
</g>
<g style="mix-blend-mode:screen">
<g style="mix-blend-mode:screen">
<path d="M23.2178 58.5046C23.2034 58.4188 23.192 58.3329 23.1834 58.2443C23.172 58.1728 23.1663 58.0985 23.1576 58.0241C23.1463 57.9069 23.1348 57.7896 23.1262 57.6695C19.7289 52.7394 20.2465 47.8235 20.8957 41.658C21.3932 36.9223 21.9566 31.6033 20.8412 25.1289C20.7555 25.1775 20.6668 25.229 20.5781 25.2776C21.662 31.6691 21.1072 36.9338 20.6125 41.6294C19.9862 47.5805 19.4773 52.3848 22.4571 57.1777C19.0683 52.6364 19.4686 45.9876 19.8833 38.9956C20.1436 34.5889 20.4152 30.0447 19.7803 25.7352C19.6917 25.7838 19.6031 25.8353 19.5144 25.8896C20.1235 30.1363 19.8576 34.626 19.5973 38.9784C19.1398 46.6396 18.7079 53.8976 23.2178 58.5046Z" fill="#FFCB3A"/>
</g>
</g>
<g style="mix-blend-mode:screen">
<g style="mix-blend-mode:screen">
<path d="M17.1564 54.7329C15.0745 50.146 15.2318 46.0823 15.4291 40.9377C15.5664 37.4031 15.7179 33.4424 15.1831 28.4951C15.0946 28.5523 15.0059 28.6067 14.9172 28.6638C15.4262 33.5282 15.2775 37.4346 15.1432 40.9291C14.9429 46.1109 14.7857 50.2031 16.8961 54.8502C19.0838 59.6745 22.1208 62.62 24.2198 64.2128L24.4029 63.9926C22.3353 62.4255 19.3269 59.5172 17.1564 54.7329Z" fill="#FFCB3A"/>
</g>
</g>
<g style="mix-blend-mode:screen">
<g style="mix-blend-mode:screen">
<path d="M36.1018 18.2831C36.036 26.6535 33.2535 32.3814 31.0001 37.0314C29.7417 39.6222 28.635 41.9071 28.2061 44.1749C28.3376 44.0091 28.4693 43.846 28.6036 43.683C29.0869 41.6269 30.1107 39.5193 31.2575 37.1544C33.5338 32.4644 36.3392 26.6792 36.3878 18.2002C36.2934 18.2259 36.199 18.2545 36.1018 18.2831Z" fill="#FFCB3A"/>
</g>
</g>
</g>
</g>
<path d="M81.3555 23.8027C81.3555 23.627 81.3281 23.4707 81.2734 23.334C81.2227 23.1973 81.1309 23.0723 80.998 22.959C80.8652 22.8457 80.6777 22.7363 80.4355 22.6309C80.1973 22.5215 79.8926 22.4102 79.5215 22.2969C79.1152 22.1719 78.7402 22.0332 78.3965 21.8809C78.0566 21.7246 77.7598 21.5449 77.5059 21.3418C77.252 21.1348 77.0547 20.8984 76.9141 20.6328C76.7734 20.3633 76.7031 20.0527 76.7031 19.7012C76.7031 19.3535 76.7754 19.0371 76.9199 18.752C77.0684 18.4668 77.2773 18.2207 77.5469 18.0137C77.8203 17.8027 78.1426 17.6406 78.5137 17.5273C78.8848 17.4102 79.2949 17.3516 79.7441 17.3516C80.377 17.3516 80.9219 17.4688 81.3789 17.7031C81.8398 17.9375 82.1934 18.252 82.4395 18.6465C82.6895 19.041 82.8145 19.4766 82.8145 19.9531H81.3555C81.3555 19.6719 81.2949 19.4238 81.1738 19.209C81.0566 18.9902 80.877 18.8184 80.6348 18.6934C80.3965 18.5684 80.0938 18.5059 79.7266 18.5059C79.3789 18.5059 79.0898 18.5586 78.8594 18.6641C78.6289 18.7695 78.457 18.9121 78.3438 19.0918C78.2305 19.2715 78.1738 19.4746 78.1738 19.7012C78.1738 19.8613 78.2109 20.0078 78.2852 20.1406C78.3594 20.2695 78.4727 20.3906 78.625 20.5039C78.7773 20.6133 78.9688 20.7168 79.1992 20.8145C79.4297 20.9121 79.7012 21.0059 80.0137 21.0957C80.4863 21.2363 80.8984 21.3926 81.25 21.5645C81.6016 21.7324 81.8945 21.9238 82.1289 22.1387C82.3633 22.3535 82.5391 22.5977 82.6562 22.8711C82.7734 23.1406 82.832 23.4473 82.832 23.791C82.832 24.1504 82.7598 24.4746 82.6152 24.7637C82.4707 25.0488 82.2637 25.293 81.9941 25.4961C81.7285 25.6953 81.4082 25.8496 81.0332 25.959C80.6621 26.0645 80.248 26.1172 79.791 26.1172C79.3809 26.1172 78.9766 26.0625 78.5781 25.9531C78.1836 25.8438 77.8242 25.6777 77.5 25.4551C77.1758 25.2285 76.918 24.9473 76.7266 24.6113C76.5352 24.2715 76.4395 23.875 76.4395 23.4219H77.9102C77.9102 23.6992 77.957 23.9355 78.0508 24.1309C78.1484 24.3262 78.2832 24.4863 78.4551 24.6113C78.627 24.7324 78.8262 24.8223 79.0527 24.8809C79.2832 24.9395 79.5293 24.9688 79.791 24.9688C80.1348 24.9688 80.4219 24.9199 80.6523 24.8223C80.8867 24.7246 81.0625 24.5879 81.1797 24.4121C81.2969 24.2363 81.3555 24.0332 81.3555 23.8027ZM85.3867 17V26H83.9805V17H85.3867ZM85.1406 22.5957L84.6836 22.5898C84.6875 22.1523 84.748 21.748 84.8652 21.377C84.9863 21.0059 85.1543 20.6836 85.3691 20.4102C85.5879 20.1328 85.8496 19.9199 86.1543 19.7715C86.459 19.6191 86.7969 19.543 87.168 19.543C87.4805 19.543 87.7617 19.5859 88.0117 19.6719C88.2656 19.7578 88.4844 19.8965 88.668 20.0879C88.8516 20.2754 88.9902 20.5215 89.084 20.8262C89.1816 21.127 89.2305 21.4941 89.2305 21.9277V26H87.8125V21.916C87.8125 21.6113 87.7676 21.3691 87.6777 21.1895C87.5918 21.0098 87.4648 20.8809 87.2969 20.8027C87.1289 20.7207 86.9238 20.6797 86.6816 20.6797C86.4277 20.6797 86.2031 20.7305 86.0078 20.832C85.8164 20.9336 85.6562 21.0723 85.5273 21.248C85.3984 21.4238 85.3008 21.627 85.2344 21.8574C85.1719 22.0879 85.1406 22.334 85.1406 22.5957ZM94.2344 24.7285V21.7051C94.2344 21.4785 94.1934 21.2832 94.1113 21.1191C94.0293 20.9551 93.9043 20.8281 93.7363 20.7383C93.5723 20.6484 93.3652 20.6035 93.1152 20.6035C92.8848 20.6035 92.6855 20.6426 92.5176 20.7207C92.3496 20.7988 92.2188 20.9043 92.125 21.0371C92.0312 21.1699 91.9844 21.3203 91.9844 21.4883H90.5781C90.5781 21.2383 90.6387 20.9961 90.7598 20.7617C90.8809 20.5273 91.0566 20.3184 91.2871 20.1348C91.5176 19.9512 91.793 19.8066 92.1133 19.7012C92.4336 19.5957 92.793 19.543 93.1914 19.543C93.668 19.543 94.0898 19.623 94.457 19.7832C94.8281 19.9434 95.1191 20.1855 95.3301 20.5098C95.5449 20.8301 95.6523 21.2324 95.6523 21.7168V24.5352C95.6523 24.8242 95.6719 25.084 95.7109 25.3145C95.7539 25.541 95.8145 25.7383 95.8926 25.9062V26H94.4453C94.3789 25.8477 94.3262 25.6543 94.2871 25.4199C94.252 25.1816 94.2344 24.9512 94.2344 24.7285ZM94.4395 22.1445L94.4512 23.0176H93.4375C93.1758 23.0176 92.9453 23.043 92.7461 23.0938C92.5469 23.1406 92.3809 23.2109 92.248 23.3047C92.1152 23.3984 92.0156 23.5117 91.9492 23.6445C91.8828 23.7773 91.8496 23.9277 91.8496 24.0957C91.8496 24.2637 91.8887 24.418 91.9668 24.5586C92.0449 24.6953 92.1582 24.8027 92.3066 24.8809C92.459 24.959 92.6426 24.998 92.8574 24.998C93.1465 24.998 93.3984 24.9395 93.6133 24.8223C93.832 24.7012 94.0039 24.5547 94.1289 24.3828C94.2539 24.207 94.3203 24.041 94.3281 23.8848L94.7852 24.5117C94.7383 24.6719 94.6582 24.8438 94.5449 25.0273C94.4316 25.2109 94.2832 25.3867 94.0996 25.5547C93.9199 25.7188 93.7031 25.8535 93.4492 25.959C93.1992 26.0645 92.9102 26.1172 92.582 26.1172C92.168 26.1172 91.7988 26.0352 91.4746 25.8711C91.1504 25.7031 90.8965 25.4785 90.7129 25.1973C90.5293 24.9121 90.4375 24.5898 90.4375 24.2305C90.4375 23.8945 90.5 23.5977 90.625 23.3398C90.7539 23.0781 90.9414 22.8594 91.1875 22.6836C91.4375 22.5078 91.7422 22.375 92.1016 22.2852C92.4609 22.1914 92.8711 22.1445 93.332 22.1445H94.4395ZM98.5469 20.8672V26H97.1348V19.6602H98.4824L98.5469 20.8672ZM100.486 19.6191L100.475 20.9316C100.389 20.916 100.295 20.9043 100.193 20.8965C100.096 20.8887 99.998 20.8848 99.9004 20.8848C99.6582 20.8848 99.4453 20.9199 99.2617 20.9902C99.0781 21.0566 98.9238 21.1543 98.7988 21.2832C98.6777 21.4082 98.584 21.5605 98.5176 21.7402C98.4512 21.9199 98.4121 22.1211 98.4004 22.3438L98.0781 22.3672C98.0781 21.9688 98.1172 21.5996 98.1953 21.2598C98.2734 20.9199 98.3906 20.6211 98.5469 20.3633C98.707 20.1055 98.9062 19.9043 99.1445 19.7598C99.3867 19.6152 99.666 19.543 99.9824 19.543C100.068 19.543 100.16 19.5508 100.258 19.5664C100.359 19.582 100.436 19.5996 100.486 19.6191ZM100.949 22.9004V22.7656C100.949 22.3086 101.016 21.8848 101.148 21.4941C101.281 21.0996 101.473 20.7578 101.723 20.4688C101.977 20.1758 102.285 19.9492 102.648 19.7891C103.016 19.625 103.43 19.543 103.891 19.543C104.355 19.543 104.77 19.625 105.133 19.7891C105.5 19.9492 105.811 20.1758 106.064 20.4688C106.318 20.7578 106.512 21.0996 106.645 21.4941C106.777 21.8848 106.844 22.3086 106.844 22.7656V22.9004C106.844 23.3574 106.777 23.7812 106.645 24.1719C106.512 24.5625 106.318 24.9043 106.064 25.1973C105.811 25.4863 105.502 25.7129 105.139 25.877C104.775 26.0371 104.363 26.1172 103.902 26.1172C103.438 26.1172 103.021 26.0371 102.654 25.877C102.291 25.7129 101.982 25.4863 101.729 25.1973C101.475 24.9043 101.281 24.5625 101.148 24.1719C101.016 23.7812 100.949 23.3574 100.949 22.9004ZM102.361 22.7656V22.9004C102.361 23.1855 102.391 23.4551 102.449 23.709C102.508 23.9629 102.6 24.1855 102.725 24.377C102.85 24.5684 103.01 24.7188 103.205 24.8281C103.4 24.9375 103.633 24.9922 103.902 24.9922C104.164 24.9922 104.391 24.9375 104.582 24.8281C104.777 24.7188 104.938 24.5684 105.062 24.377C105.188 24.1855 105.279 23.9629 105.338 23.709C105.4 23.4551 105.432 23.1855 105.432 22.9004V22.7656C105.432 22.4844 105.4 22.2188 105.338 21.9688C105.279 21.7148 105.186 21.4902 105.057 21.2949C104.932 21.0996 104.771 20.9473 104.576 20.8379C104.385 20.7246 104.156 20.668 103.891 20.668C103.625 20.668 103.395 20.7246 103.199 20.8379C103.008 20.9473 102.85 21.0996 102.725 21.2949C102.6 21.4902 102.508 21.7148 102.449 21.9688C102.391 22.2188 102.361 22.4844 102.361 22.7656ZM109.428 21.0137V26H108.016V19.6602H109.346L109.428 21.0137ZM109.176 22.5957L108.719 22.5898C108.723 22.1406 108.785 21.7285 108.906 21.3535C109.031 20.9785 109.203 20.6562 109.422 20.3867C109.645 20.1172 109.91 19.9102 110.219 19.7656C110.527 19.6172 110.871 19.543 111.25 19.543C111.555 19.543 111.83 19.5859 112.076 19.6719C112.326 19.7539 112.539 19.8887 112.715 20.0762C112.895 20.2637 113.031 20.5078 113.125 20.8086C113.219 21.1055 113.266 21.4707 113.266 21.9043V26H111.848V21.8984C111.848 21.5938 111.803 21.3535 111.713 21.1777C111.627 20.998 111.5 20.8711 111.332 20.7969C111.168 20.7188 110.963 20.6797 110.717 20.6797C110.475 20.6797 110.258 20.7305 110.066 20.832C109.875 20.9336 109.713 21.0723 109.58 21.248C109.451 21.4238 109.352 21.627 109.281 21.8574C109.211 22.0879 109.176 22.334 109.176 22.5957Z" fill="#131420"/>
<path d="M126 32H84C79.5817 32 76 35.5817 76 40V64C76 68.4183 79.5817 72 84 72H126C130.418 72 134 68.4183 134 64V40C134 35.5817 130.418 32 126 32Z" fill="#F0F5F9"/>
<path d="M91.5371 53.8438C91.5371 53.6445 91.5059 53.4688 91.4434 53.3164C91.3848 53.1602 91.2793 53.0195 91.127 52.8945C90.9785 52.7695 90.7715 52.6504 90.5059 52.5371C90.2441 52.4238 89.9121 52.3086 89.5098 52.1914C89.0879 52.0664 88.707 51.9277 88.3672 51.7754C88.0273 51.6191 87.7363 51.4414 87.4941 51.2422C87.252 51.043 87.0664 50.8145 86.9375 50.5566C86.8086 50.2988 86.7441 50.0039 86.7441 49.6719C86.7441 49.3398 86.8125 49.0332 86.9492 48.752C87.0859 48.4707 87.2812 48.2266 87.5352 48.0195C87.793 47.8086 88.0996 47.6445 88.4551 47.5273C88.8105 47.4102 89.207 47.3516 89.6445 47.3516C90.2852 47.3516 90.8281 47.4746 91.2734 47.7207C91.7227 47.9629 92.0645 48.2812 92.2988 48.6758C92.5332 49.0664 92.6504 49.4844 92.6504 49.9297H91.5254C91.5254 49.6094 91.457 49.3262 91.3203 49.0801C91.1836 48.8301 90.9766 48.6348 90.6992 48.4941C90.4219 48.3496 90.0703 48.2773 89.6445 48.2773C89.2422 48.2773 88.9102 48.3379 88.6484 48.459C88.3867 48.5801 88.1914 48.7441 88.0625 48.9512C87.9375 49.1582 87.875 49.3945 87.875 49.6602C87.875 49.8398 87.9121 50.0039 87.9863 50.1523C88.0645 50.2969 88.1836 50.4316 88.3438 50.5566C88.5078 50.6816 88.7148 50.7969 88.9648 50.9023C89.2188 51.0078 89.5215 51.1094 89.873 51.207C90.3574 51.3438 90.7754 51.4961 91.127 51.6641C91.4785 51.832 91.7676 52.0215 91.9941 52.2324C92.2246 52.4395 92.3945 52.6758 92.5039 52.9414C92.6172 53.2031 92.6738 53.5 92.6738 53.832C92.6738 54.1797 92.6035 54.4941 92.4629 54.7754C92.3223 55.0566 92.1211 55.2969 91.8594 55.4961C91.5977 55.6953 91.2832 55.8496 90.916 55.959C90.5527 56.0645 90.1465 56.1172 89.6973 56.1172C89.3027 56.1172 88.9141 56.0625 88.5312 55.9531C88.1523 55.8438 87.8066 55.6797 87.4941 55.4609C87.1855 55.2422 86.9375 54.9727 86.75 54.6523C86.5664 54.3281 86.4746 53.9531 86.4746 53.5273H87.5996C87.5996 53.8203 87.6562 54.0723 87.7695 54.2832C87.8828 54.4902 88.0371 54.6621 88.2324 54.7988C88.4316 54.9355 88.6562 55.0371 88.9062 55.1035C89.1602 55.166 89.4238 55.1973 89.6973 55.1973C90.0918 55.1973 90.4258 55.1426 90.6992 55.0332C90.9727 54.9238 91.1797 54.7676 91.3203 54.5645C91.4648 54.3613 91.5371 54.1211 91.5371 53.8438ZM95.0352 47V56H93.9512V47H95.0352ZM94.7773 52.5898L94.3262 52.5723C94.3301 52.1387 94.3945 51.7383 94.5195 51.3711C94.6445 51 94.8203 50.6777 95.0469 50.4043C95.2734 50.1309 95.543 49.9199 95.8555 49.7715C96.1719 49.6191 96.5215 49.543 96.9043 49.543C97.2168 49.543 97.498 49.5859 97.748 49.6719C97.998 49.7539 98.2109 49.8867 98.3867 50.0703C98.5664 50.2539 98.7031 50.4922 98.7969 50.7852C98.8906 51.0742 98.9375 51.4277 98.9375 51.8457V56H97.8477V51.834C97.8477 51.502 97.7988 51.2363 97.7012 51.0371C97.6035 50.834 97.4609 50.6875 97.2734 50.5977C97.0859 50.5039 96.8555 50.457 96.582 50.457C96.3125 50.457 96.0664 50.5137 95.8438 50.627C95.625 50.7402 95.4355 50.8965 95.2754 51.0957C95.1191 51.2949 94.9961 51.5234 94.9062 51.7812C94.8203 52.0352 94.7773 52.3047 94.7773 52.5898ZM104.299 54.916V51.6523C104.299 51.4023 104.248 51.1855 104.146 51.002C104.049 50.8145 103.9 50.6699 103.701 50.5684C103.502 50.4668 103.256 50.416 102.963 50.416C102.689 50.416 102.449 50.4629 102.242 50.5566C102.039 50.6504 101.879 50.7734 101.762 50.9258C101.648 51.0781 101.592 51.2422 101.592 51.418H100.508C100.508 51.1914 100.566 50.9668 100.684 50.7441C100.801 50.5215 100.969 50.3203 101.188 50.1406C101.41 49.957 101.676 49.8125 101.984 49.707C102.297 49.5977 102.645 49.543 103.027 49.543C103.488 49.543 103.895 49.6211 104.246 49.7773C104.602 49.9336 104.879 50.1699 105.078 50.4863C105.281 50.7988 105.383 51.1914 105.383 51.6641V54.6172C105.383 54.8281 105.4 55.0527 105.436 55.291C105.475 55.5293 105.531 55.7344 105.605 55.9062V56H104.475C104.42 55.875 104.377 55.709 104.346 55.502C104.314 55.291 104.299 55.0957 104.299 54.916ZM104.486 52.1562L104.498 52.918H103.402C103.094 52.918 102.818 52.9434 102.576 52.9941C102.334 53.041 102.131 53.1133 101.967 53.2109C101.803 53.3086 101.678 53.4316 101.592 53.5801C101.506 53.7246 101.463 53.8945 101.463 54.0898C101.463 54.2891 101.508 54.4707 101.598 54.6348C101.688 54.7988 101.822 54.9297 102.002 55.0273C102.186 55.1211 102.41 55.168 102.676 55.168C103.008 55.168 103.301 55.0977 103.555 54.957C103.809 54.8164 104.01 54.6445 104.158 54.4414C104.311 54.2383 104.393 54.041 104.404 53.8496L104.867 54.3711C104.84 54.5352 104.766 54.7168 104.645 54.916C104.523 55.1152 104.361 55.3066 104.158 55.4902C103.959 55.6699 103.721 55.8203 103.443 55.9414C103.17 56.0586 102.861 56.1172 102.518 56.1172C102.088 56.1172 101.711 56.0332 101.387 55.8652C101.066 55.6973 100.816 55.4727 100.637 55.1914C100.461 54.9062 100.373 54.5879 100.373 54.2363C100.373 53.8965 100.439 53.5977 100.572 53.3398C100.705 53.0781 100.896 52.8613 101.146 52.6895C101.396 52.5137 101.697 52.3809 102.049 52.291C102.4 52.2012 102.793 52.1562 103.227 52.1562H104.486ZM108.172 50.6562V56H107.088V49.6602H108.143L108.172 50.6562ZM110.152 49.625L110.146 50.6328C110.057 50.6133 109.971 50.6016 109.889 50.5977C109.811 50.5898 109.721 50.5859 109.619 50.5859C109.369 50.5859 109.148 50.625 108.957 50.7031C108.766 50.7812 108.604 50.8906 108.471 51.0312C108.338 51.1719 108.232 51.3398 108.154 51.5352C108.08 51.7266 108.031 51.9375 108.008 52.168L107.703 52.3438C107.703 51.9609 107.74 51.6016 107.814 51.2656C107.893 50.9297 108.012 50.6328 108.172 50.375C108.332 50.1133 108.535 49.9102 108.781 49.7656C109.031 49.6172 109.328 49.543 109.672 49.543C109.75 49.543 109.84 49.5527 109.941 49.5723C110.043 49.5879 110.113 49.6055 110.152 49.625ZM110.75 52.9004V52.7656C110.75 52.3086 110.816 51.8848 110.949 51.4941C111.082 51.0996 111.273 50.7578 111.523 50.4688C111.773 50.1758 112.076 49.9492 112.432 49.7891C112.787 49.625 113.186 49.543 113.627 49.543C114.072 49.543 114.473 49.625 114.828 49.7891C115.188 49.9492 115.492 50.1758 115.742 50.4688C115.996 50.7578 116.189 51.0996 116.322 51.4941C116.455 51.8848 116.521 52.3086 116.521 52.7656V52.9004C116.521 53.3574 116.455 53.7812 116.322 54.1719C116.189 54.5625 115.996 54.9043 115.742 55.1973C115.492 55.4863 115.189 55.7129 114.834 55.877C114.482 56.0371 114.084 56.1172 113.639 56.1172C113.193 56.1172 112.793 56.0371 112.438 55.877C112.082 55.7129 111.777 55.4863 111.523 55.1973C111.273 54.9043 111.082 54.5625 110.949 54.1719C110.816 53.7812 110.75 53.3574 110.75 52.9004ZM111.834 52.7656V52.9004C111.834 53.2168 111.871 53.5156 111.945 53.7969C112.02 54.0742 112.131 54.3203 112.279 54.5352C112.432 54.75 112.621 54.9199 112.848 55.0449C113.074 55.166 113.338 55.2266 113.639 55.2266C113.936 55.2266 114.195 55.166 114.418 55.0449C114.645 54.9199 114.832 54.75 114.98 54.5352C115.129 54.3203 115.24 54.0742 115.314 53.7969C115.393 53.5156 115.432 53.2168 115.432 52.9004V52.7656C115.432 52.4531 115.393 52.1582 115.314 51.8809C115.24 51.5996 115.127 51.3516 114.975 51.1367C114.826 50.918 114.639 50.7461 114.412 50.6211C114.189 50.4961 113.928 50.4336 113.627 50.4336C113.33 50.4336 113.068 50.4961 112.842 50.6211C112.619 50.7461 112.432 50.918 112.279 51.1367C112.131 51.3516 112.02 51.5996 111.945 51.8809C111.871 52.1582 111.834 52.4531 111.834 52.7656ZM118.965 51.0137V56H117.881V49.6602H118.906L118.965 51.0137ZM118.707 52.5898L118.256 52.5723C118.26 52.1387 118.324 51.7383 118.449 51.3711C118.574 51 118.75 50.6777 118.977 50.4043C119.203 50.1309 119.473 49.9199 119.785 49.7715C120.102 49.6191 120.451 49.543 120.834 49.543C121.146 49.543 121.428 49.5859 121.678 49.6719C121.928 49.7539 122.141 49.8867 122.316 50.0703C122.496 50.2539 122.633 50.4922 122.727 50.7852C122.82 51.0742 122.867 51.4277 122.867 51.8457V56H121.777V51.834C121.777 51.502 121.729 51.2363 121.631 51.0371C121.533 50.834 121.391 50.6875 121.203 50.5977C121.016 50.5039 120.785 50.457 120.512 50.457C120.242 50.457 119.996 50.5137 119.773 50.627C119.555 50.7402 119.365 50.8965 119.205 51.0957C119.049 51.2949 118.926 51.5234 118.836 51.7812C118.75 52.0352 118.707 52.3047 118.707 52.5898Z" fill="#32375E"/>
</g>
<defs>
<linearGradient id="paint0_linear_1199_87745" x1="46.929" y1="52.7437" x2="20.1794" y2="52.7437" gradientUnits="userSpaceOnUse">
<stop stop-color="#E4941E"/>
<stop offset="1" stop-color="#D16234"/>
</linearGradient>
<radialGradient id="paint1_radial_1199_87745" cx="0" cy="0" r="1" gradientUnits="userSpaceOnUse" gradientTransform="translate(38.408 52.8631) scale(10.849 10.849)">
<stop stop-color="#E3745F"/>
<stop offset="1" stop-color="#FFAE8D"/>
</radialGradient>
<linearGradient id="paint2_linear_1199_87745" x1="43.1112" y1="28.0508" x2="37.4146" y2="28.0508" gradientUnits="userSpaceOnUse">
<stop stop-color="#E4941E"/>
<stop offset="1" stop-color="#D16234"/>
</linearGradient>
<radialGradient id="paint3_radial_1199_87745" cx="0" cy="0" r="1" gradientUnits="userSpaceOnUse" gradientTransform="translate(35.977 32.2341) rotate(180) scale(9.50572 9.5057)">
<stop stop-color="#E3745F"/>
<stop offset="1" stop-color="#FFAE8D"/>
</radialGradient>
<radialGradient id="paint4_radial_1199_87745" cx="0" cy="0" r="1" gradientUnits="userSpaceOnUse" gradientTransform="translate(34.4709 35.2199) rotate(180) scale(7.29031 7.29033)">
<stop stop-color="#E3745F"/>
<stop offset="1" stop-color="#FFAE8D"/>
</radialGradient>
<linearGradient id="paint5_linear_1199_87745" x1="34.9928" y1="38.9069" x2="35.0887" y2="40.3258" gradientUnits="userSpaceOnUse">
<stop stop-color="#174B80"/>
<stop offset="1" stop-color="#00BEDD"/>
</linearGradient>
<linearGradient id="paint6_linear_1199_87745" x1="40.2572" y1="36.9696" x2="40.8325" y2="39.0597" gradientUnits="userSpaceOnUse">
<stop stop-color="#174B80"/>
<stop offset="1" stop-color="#00BEDD"/>
</linearGradient>
<linearGradient id="paint7_linear_1199_87745" x1="27.047" y1="30.897" x2="29.1726" y2="58.9039" gradientUnits="userSpaceOnUse">
<stop stop-color="#FFCB3A"/>
<stop offset="1" stop-color="#FFA23C"/>
</linearGradient>
<clipPath id="clip0_1199_87745">
<rect width="568" height="72" fill="white"/>
</clipPath>
</defs>
</svg>
