<svg width="568" height="112" viewBox="0 0 568 112" fill="none" xmlns="http://www.w3.org/2000/svg">
<path d="M0 42C0 25.4315 13.4315 12 30 12C46.5685 12 60 25.4315 60 42C60 58.5685 46.5685 72 30 72C13.4315 72 0 58.5685 0 42Z" fill="#F5F3F9"/>
<mask id="mask0_1199_87692" style="mask-type:alpha" maskUnits="userSpaceOnUse" x="0" y="12" width="60" height="60">
<path d="M0 42C0 25.4315 13.4315 12 30 12C46.5685 12 60 25.4315 60 42C60 58.5685 46.5685 72 30 72C13.4315 72 0 58.5685 0 42Z" fill="#F5F3F9"/>
</mask>
<g mask="url(#mask0_1199_87692)">
<path d="M45.0788 61.7682C44.8358 62.1142 44.5698 62.4431 44.2754 62.7519C43.0485 64.0617 41.4042 65.0368 39.3795 65.523C39.1994 65.5688 39.0134 65.6088 38.8247 65.6403C38.5388 65.6974 38.2471 65.7432 37.9497 65.7775C28.6499 66.8613 24.0343 64.4192 22.5416 62.7891C21.0488 61.1619 17.3169 47.5869 24.1715 41.3441C31.0263 35.0985 43.3116 46.2285 43.3116 46.2285C47.5755 51.4275 47.9444 57.7303 45.0788 61.7682Z" fill="url(#paint0_linear_1199_87692)"/>
<g style="mix-blend-mode:screen" opacity="0.1">
<g style="mix-blend-mode:screen">
<g style="mix-blend-mode:screen">
<path d="M40.1309 54.7141C42.3726 58.794 41.9998 62.12 40.9031 63.8725C40.282 64.8647 39.3979 65.4056 38.4989 65.3618L38.4844 65.6472C38.5246 65.6495 38.5648 65.6503 38.6047 65.6503C39.5746 65.6503 40.4951 65.0635 41.1455 64.0241C42.2852 62.203 42.6829 58.7646 40.3817 54.5762L40.1309 54.7141Z" fill="#FDA41C"/>
</g>
</g>
<g style="mix-blend-mode:screen">
<g style="mix-blend-mode:screen">
<path d="M39.5945 62.5546C40.6032 61.3348 41.0012 58.7946 39.0921 55.3232L38.8413 55.4612C40.6814 58.8068 40.3231 61.225 39.3739 62.3723C38.7109 63.1746 37.712 63.4575 36.7032 63.1294L36.615 63.4014C36.9227 63.5013 37.2294 63.5502 37.5282 63.5502C38.321 63.5502 39.0561 63.205 39.5945 62.5546Z" fill="#FDA41C"/>
</g>
</g>
<g style="mix-blend-mode:screen">
<g style="mix-blend-mode:screen">
<path d="M45.0785 61.768C44.8356 62.114 44.5696 62.4428 44.2751 62.7517C45.3789 60.8986 46.2311 57.5241 45.4646 54.7187C44.8956 52.6426 43.5629 51.27 41.5039 50.6408L41.5869 50.3691C43.7174 51.0183 45.153 52.4967 45.7391 54.6444C46.3883 57.0151 45.905 59.7919 45.0785 61.768Z" fill="#FDA41C"/>
</g>
</g>
<g style="mix-blend-mode:screen">
<g style="mix-blend-mode:screen">
<path d="M27.8073 58.9196C27.0114 58.692 23.7551 56.5397 23.5672 50.8398L23.2812 50.8493C23.5032 57.5716 27.6867 59.1824 27.7286 59.1944C27.9576 59.2598 28.2815 59.6784 28.5236 60.0627C27.2636 59.512 23.2086 57.2862 22.4803 51.2347L22.1965 51.2688C23.0796 58.606 28.754 60.4648 28.8113 60.483L29.1431 60.5869L28.9805 60.2794C28.9149 60.156 28.3262 59.0676 27.8073 58.9196Z" fill="#FDA41C"/>
</g>
</g>
</g>
<path d="M45.8517 71.9995H17.2625L22.1061 66.594L25.5452 62.7575L26.3057 61.9079L27.3197 60.7843C27.3197 60.7843 27.6281 55.5228 27.8267 52.0904C27.8678 51.46 27.9021 50.8983 27.9295 50.4324C27.9638 49.713 27.9911 49.2472 27.9911 49.1992L28.4639 49.5692L33.9858 53.9265L34.2873 56.338L34.8353 60.7706L36.8496 62.915H36.8563L38.1239 64.2578L40.693 66.9914L45.8517 71.9995Z" fill="url(#paint1_radial_1199_87692)"/>
<path d="M41.1044 17.334C45.6921 25.8915 40.9785 38.7677 40.9785 38.7677L37.4146 29.6854L41.1044 17.334Z" fill="url(#paint2_linear_1199_87692)"/>
<path d="M25.803 44.458C25.803 44.458 25.8202 44.5952 25.8688 44.844C26.0032 45.5589 26.3749 47.189 27.25 49.105C27.4473 49.534 27.6705 49.98 27.925 50.4319C27.9821 50.5435 28.0479 50.6549 28.1137 50.7664C28.637 51.6702 29.2775 52.5938 30.0554 53.4832C31.2651 54.8673 32.7921 55.7595 34.2849 56.3372C37.2619 57.4868 40.1187 57.381 40.1187 57.381C40.1187 57.381 43.5045 51.53 43.7964 47.229C43.9765 44.5609 43.719 43.3112 42.927 41.3752C42.7468 40.9348 42.538 40.4573 42.3006 39.9167C41.4713 38.038 41.2397 36.305 40.642 34.1029C40.3304 32.9505 39.9186 31.6722 39.2694 30.1738C39.0463 29.6561 38.7947 29.1099 38.5059 28.5352L25.803 44.458Z" fill="#FFAE8D"/>
<path d="M39.4924 41.7094C39.4924 41.7094 40.5334 41.1575 41.7573 41.5264C42.1405 41.6407 42.5466 41.5521 42.927 41.3748C42.7467 40.9344 42.5379 40.4569 42.3006 39.9163C41.4713 38.0376 41.2396 36.3046 40.642 34.1025L38.6558 34.2602C37.8219 36.0297 39.4924 41.7094 39.4924 41.7094Z" fill="url(#paint3_radial_1199_87692)"/>
<path d="M36.3539 36.3711C37.5261 37.6371 37.9481 40.0752 37.8543 41.6694C37.7605 43.2636 31.3369 44.1545 30.2116 41.9976C29.0863 39.8408 32.978 36.7462 33.4469 36.6524C33.9157 36.5586 36.3539 36.3711 36.3539 36.3711Z" fill="url(#paint4_radial_1199_87692)"/>
<path d="M27.7575 48.842C27.7575 48.842 27.5545 48.9735 27.2514 49.1051C26.7023 49.3453 25.8244 49.5855 25.2152 49.0565C24.2658 48.2386 23.877 45.5648 23.877 45.5648L25.8701 44.8441L26.3792 44.6611L27.7575 48.842Z" fill="#FFAE8D"/>
<path d="M35.9489 38.8829L35.9854 38.4346C35.9854 38.4346 33.5423 38.6265 32.8835 39.1994C32.2247 39.7722 31.5945 41.0817 31.5945 41.0817L34.5533 39.8094L35.9489 38.8829Z" fill="#5D3000"/>
<path d="M33.8662 37.0887C33.8662 37.0887 35.8425 37.1746 36.2435 36.9168C36.6445 36.6591 36.7591 35.7998 36.7591 35.7998C36.7591 35.7998 34.8973 36.1435 34.4963 36.1435C34.0954 36.1435 33.8662 37.0887 33.8662 37.0887Z" fill="#B05600"/>
<path d="M38.2197 34.7687C38.5921 34.024 39.1076 33.4512 39.1076 33.4512L41.313 33.3652L40.7975 34.3677C40.7975 34.3677 39.4513 34.2245 38.2197 34.7687Z" fill="#B05600"/>
<path d="M31.5945 41.0816C34.0519 40.3487 36.2076 40.478 36.2076 40.478L35.9489 38.8828C35.9489 38.8828 34.0636 39.0284 33.2013 39.4164C32.3391 39.8044 31.5945 41.0816 31.5945 41.0816Z" fill="white"/>
<path d="M35.0402 41.0979C35.7679 41.0979 36.3577 40.4311 36.3577 39.6085C36.3577 38.7859 35.7679 38.1191 35.0402 38.1191C34.3125 38.1191 33.7227 38.7859 33.7227 39.6085C33.7227 40.4311 34.3125 41.0979 35.0402 41.0979Z" fill="url(#paint5_linear_1199_87692)"/>
<path d="M34.1916 39.2873C34.1916 39.4767 34.038 39.6303 33.8486 39.6303C33.6592 39.6303 33.5056 39.4767 33.5056 39.2873C33.5056 39.0979 33.6592 38.9443 33.8486 38.9443C34.038 38.9443 34.1916 39.0979 34.1916 39.2873Z" fill="white"/>
<g style="mix-blend-mode:multiply" opacity="0.2">
<g style="mix-blend-mode:multiply">
<path d="M39.2708 30.1738C37.2603 37.752 30.8746 42.1931 28.4639 49.5711C28.3352 49.9601 28.2179 50.3604 28.115 50.7664C28.0034 51.1983 27.909 51.6387 27.829 52.0905C27.8662 51.4614 27.9005 50.8952 27.9263 50.4319C27.6718 49.98 27.4487 49.534 27.2514 49.105C26.7023 49.3452 25.8244 49.5854 25.2152 49.0564C24.2658 48.2385 23.877 45.5647 23.877 45.5647L25.8701 44.844C25.8215 44.5952 25.8043 44.458 25.8043 44.458L38.5073 28.5352C38.796 29.1099 39.0477 29.6561 39.2708 30.1738Z" fill="#B74970"/>
</g>
</g>
<path d="M38.4602 37.4811C39.1719 36.5322 40.5358 36.5322 40.5358 36.5322L40.5952 37.1549L38.6085 38.0148L38.4602 37.4811Z" fill="#5D3000"/>
<path d="M38.4929 37.8049C40.1312 36.7271 40.5952 36.9773 40.5952 36.9773C40.5952 36.9773 41.1883 38.5785 40.8642 39.7881C40.447 39.8535 39.0103 40.3486 39.0103 40.3486L38.4929 37.8049Z" fill="white"/>
<path d="M40.5973 39.6946C41.0713 39.6946 41.4556 39.0278 41.4556 38.2052C41.4556 37.3826 41.0713 36.7158 40.5973 36.7158C40.1233 36.7158 39.739 37.3826 39.739 38.2052C39.739 39.0278 40.1233 39.6946 40.5973 39.6946Z" fill="url(#paint6_linear_1199_87692)"/>
<path d="M40.057 38.1555C40.057 38.3449 39.9035 38.4985 39.7141 38.4985C39.5246 38.4985 39.3711 38.3449 39.3711 38.1555C39.3711 37.9661 39.5246 37.8125 39.7141 37.8125C39.9035 37.8125 40.057 37.9661 40.057 38.1555Z" fill="white"/>
<path d="M38.7751 49.7403C36.0408 49.3617 34.5188 47.6406 34.5188 47.6406C36.4252 47.5553 37.4129 46.9022 39.0382 46.9122C40.6263 46.9259 41.0052 47.1907 40.6834 47.7211C40.6791 47.7334 40.6691 47.7464 40.6623 47.7579C40.6775 47.7935 40.6919 47.8316 40.7046 47.8663C40.9453 48.5782 40.1057 49.9246 38.7751 49.7403Z" fill="#FF7B5D"/>
<g style="mix-blend-mode:multiply" opacity="0.3">
<g style="mix-blend-mode:multiply">
<path d="M40.7045 47.8668C39.4774 48.4965 35.7503 48.3063 34.7454 47.7398C36.044 48.149 39.79 48.2682 40.6833 47.7217C40.679 47.734 40.669 47.747 40.6622 47.7584C40.6774 47.7941 40.6918 47.8321 40.7045 47.8668Z" fill="#EB5000"/>
</g>
</g>
<path d="M14.0554 52.9029C16.2058 61.0073 24.0644 64.3989 24.0644 64.3989L24.2188 64.213L24.4017 63.9928L24.8907 63.4066C24.8907 63.4066 23.6354 61.5563 23.2179 58.505C23.2035 58.4193 23.1921 58.3334 23.1836 58.2448C23.1721 58.1733 23.1664 58.0989 23.1578 58.0246C23.1464 57.9074 23.135 57.7901 23.1263 57.67C22.9776 55.7683 23.1749 53.4776 24.1415 50.9211V50.9182C24.1959 50.7752 24.253 50.6294 24.3131 50.4836C24.4675 50.1004 24.6419 49.7114 24.8336 49.3197C24.9109 49.1595 24.9909 49.0051 25.0767 48.8449V48.8421C25.3712 48.273 25.7087 47.6924 26.089 47.1034C26.7667 46.0538 27.4759 45.0901 28.2023 44.1778C28.2023 44.175 28.2051 44.175 28.2051 44.175C28.3368 44.0092 28.4683 43.8461 28.6026 43.6831C34.4107 36.6026 41.0939 32.6361 41.1024 17.3338C41.1024 17.3338 39.624 17.2737 36.3868 18.2003C36.2924 18.226 36.198 18.2546 36.1009 18.2832C34.3764 18.7894 32.1802 19.5672 29.472 20.7654C29.3748 20.8054 29.2775 20.8484 29.1803 20.8913C28.2853 21.2917 27.3387 21.7349 26.3321 22.2268C26.2406 22.2725 26.1491 22.3182 26.0547 22.364C24.459 23.1562 22.7231 24.0713 20.8414 25.1294C20.7556 25.178 20.667 25.2295 20.5783 25.2781C20.3152 25.4268 20.0494 25.5812 19.7804 25.7357C19.6919 25.7842 19.6032 25.8357 19.5146 25.8901C18.142 26.6822 16.7006 27.5487 15.1821 28.4953C15.0935 28.5524 15.0048 28.6068 14.9161 28.6639C14.4443 28.9586 13.9638 29.2645 13.4776 29.5762C14.3041 34.6207 11.9048 44.7956 14.0554 52.9029Z" fill="url(#paint7_linear_1199_87692)"/>
<path d="M38.4603 34.665C37.9874 38.2498 39.3218 42.0454 39.3218 42.0454C39.3218 42.0454 41.5346 41.6712 42.0347 42.1834C42.5348 42.6955 41.0486 44.9373 41.0486 44.9373C41.0486 44.9373 42.8917 42.8521 42.4205 42.0953C41.8624 41.1989 39.5943 41.6816 39.5943 41.6816C39.5943 41.6816 38.5148 39.0632 38.4603 34.665Z" fill="#F48B79"/>
<path d="M45.8517 72.0002H17.2625L22.1061 66.5947C28.9846 70.8492 36.7605 69.0954 40.693 66.9921L45.8517 72.0002Z" fill="#FBC0D7"/>
<path d="M28.2495 69.6323L27.32 69.8782C27.32 69.8782 27.1512 65.4143 25.5442 62.7605L26.3077 61.9111C28.3895 64.2131 28.2495 69.6323 28.2495 69.6323Z" fill="#FBC0D7"/>
<path d="M38.1212 64.2592C38.044 65.832 37.4606 69.0434 37.4606 69.0434L36.6284 69.1922C36.6284 69.1922 37.2489 65.7204 36.8543 62.918L38.1212 64.2592Z" fill="#FBC0D7"/>
<g style="mix-blend-mode:screen" opacity="0.3">
<g style="mix-blend-mode:screen">
<g style="mix-blend-mode:screen">
<path d="M29.473 20.7656C29.3758 20.8056 29.2785 20.8486 29.1813 20.8914C29.1355 26.2306 27.9402 30.8032 26.7734 35.2414C25.5266 39.9914 24.3455 44.4955 24.8345 49.3198C24.9118 49.1597 24.9918 49.0052 25.0776 48.8451V48.8422C24.7088 44.2353 25.8497 39.8885 27.0507 35.3159C28.229 30.8233 29.4443 26.1933 29.473 20.7656Z" fill="#FFCB3A"/>
</g>
</g>
<g style="mix-blend-mode:screen">
<g style="mix-blend-mode:screen">
<path d="M24.3141 50.4834C23.3533 46.84 24.1798 41.95 25.0462 36.8139C25.8641 31.9695 26.7077 26.988 26.3331 22.2266C26.2416 22.2723 26.15 22.318 26.0558 22.3638C26.4046 27.0566 25.5724 31.981 24.766 36.7653C23.8652 42.1043 23.0073 47.1803 24.1425 50.918C24.197 50.775 24.2541 50.6291 24.3141 50.4834Z" fill="#FFCB3A"/>
</g>
</g>
<g style="mix-blend-mode:screen">
<g style="mix-blend-mode:screen">
<path d="M23.2178 58.5046C23.2034 58.4188 23.192 58.3329 23.1834 58.2443C23.172 58.1728 23.1663 58.0985 23.1576 58.0241C23.1463 57.9069 23.1348 57.7896 23.1262 57.6695C19.7289 52.7394 20.2465 47.8235 20.8957 41.658C21.3932 36.9223 21.9566 31.6033 20.8412 25.1289C20.7555 25.1775 20.6668 25.229 20.5781 25.2776C21.662 31.6691 21.1072 36.9338 20.6125 41.6294C19.9862 47.5805 19.4773 52.3848 22.4571 57.1777C19.0683 52.6364 19.4686 45.9876 19.8833 38.9956C20.1436 34.5889 20.4152 30.0447 19.7803 25.7352C19.6917 25.7838 19.6031 25.8353 19.5144 25.8896C20.1235 30.1363 19.8576 34.626 19.5973 38.9784C19.1398 46.6396 18.7079 53.8976 23.2178 58.5046Z" fill="#FFCB3A"/>
</g>
</g>
<g style="mix-blend-mode:screen">
<g style="mix-blend-mode:screen">
<path d="M17.1564 54.7329C15.0745 50.146 15.2318 46.0823 15.4291 40.9377C15.5664 37.4031 15.7179 33.4424 15.1831 28.4951C15.0946 28.5523 15.0059 28.6067 14.9172 28.6638C15.4262 33.5282 15.2775 37.4346 15.1432 40.9291C14.9429 46.1109 14.7857 50.2031 16.8961 54.8502C19.0838 59.6745 22.1208 62.62 24.2198 64.2128L24.4029 63.9926C22.3353 62.4255 19.3269 59.5172 17.1564 54.7329Z" fill="#FFCB3A"/>
</g>
</g>
<g style="mix-blend-mode:screen">
<g style="mix-blend-mode:screen">
<path d="M36.1018 18.2831C36.036 26.6535 33.2535 32.3814 31.0001 37.0314C29.7417 39.6222 28.635 41.9071 28.2061 44.1749C28.3376 44.0091 28.4693 43.846 28.6036 43.683C29.0869 41.6269 30.1107 39.5193 31.2575 37.1544C33.5338 32.4644 36.3392 26.6792 36.3878 18.2002C36.2934 18.2259 36.199 18.2545 36.1018 18.2831Z" fill="#FFCB3A"/>
</g>
</g>
</g>
</g>
<path d="M81.3555 23.8027C81.3555 23.627 81.3281 23.4707 81.2734 23.334C81.2227 23.1973 81.1309 23.0723 80.998 22.959C80.8652 22.8457 80.6777 22.7363 80.4355 22.6309C80.1973 22.5215 79.8926 22.4102 79.5215 22.2969C79.1152 22.1719 78.7402 22.0332 78.3965 21.8809C78.0566 21.7246 77.7598 21.5449 77.5059 21.3418C77.252 21.1348 77.0547 20.8984 76.9141 20.6328C76.7734 20.3633 76.7031 20.0527 76.7031 19.7012C76.7031 19.3535 76.7754 19.0371 76.9199 18.752C77.0684 18.4668 77.2773 18.2207 77.5469 18.0137C77.8203 17.8027 78.1426 17.6406 78.5137 17.5273C78.8848 17.4102 79.2949 17.3516 79.7441 17.3516C80.377 17.3516 80.9219 17.4688 81.3789 17.7031C81.8398 17.9375 82.1934 18.252 82.4395 18.6465C82.6895 19.041 82.8145 19.4766 82.8145 19.9531H81.3555C81.3555 19.6719 81.2949 19.4238 81.1738 19.209C81.0566 18.9902 80.877 18.8184 80.6348 18.6934C80.3965 18.5684 80.0938 18.5059 79.7266 18.5059C79.3789 18.5059 79.0898 18.5586 78.8594 18.6641C78.6289 18.7695 78.457 18.9121 78.3438 19.0918C78.2305 19.2715 78.1738 19.4746 78.1738 19.7012C78.1738 19.8613 78.2109 20.0078 78.2852 20.1406C78.3594 20.2695 78.4727 20.3906 78.625 20.5039C78.7773 20.6133 78.9688 20.7168 79.1992 20.8145C79.4297 20.9121 79.7012 21.0059 80.0137 21.0957C80.4863 21.2363 80.8984 21.3926 81.25 21.5645C81.6016 21.7324 81.8945 21.9238 82.1289 22.1387C82.3633 22.3535 82.5391 22.5977 82.6562 22.8711C82.7734 23.1406 82.832 23.4473 82.832 23.791C82.832 24.1504 82.7598 24.4746 82.6152 24.7637C82.4707 25.0488 82.2637 25.293 81.9941 25.4961C81.7285 25.6953 81.4082 25.8496 81.0332 25.959C80.6621 26.0645 80.248 26.1172 79.791 26.1172C79.3809 26.1172 78.9766 26.0625 78.5781 25.9531C78.1836 25.8438 77.8242 25.6777 77.5 25.4551C77.1758 25.2285 76.918 24.9473 76.7266 24.6113C76.5352 24.2715 76.4395 23.875 76.4395 23.4219H77.9102C77.9102 23.6992 77.957 23.9355 78.0508 24.1309C78.1484 24.3262 78.2832 24.4863 78.4551 24.6113C78.627 24.7324 78.8262 24.8223 79.0527 24.8809C79.2832 24.9395 79.5293 24.9688 79.791 24.9688C80.1348 24.9688 80.4219 24.9199 80.6523 24.8223C80.8867 24.7246 81.0625 24.5879 81.1797 24.4121C81.2969 24.2363 81.3555 24.0332 81.3555 23.8027ZM85.3867 17V26H83.9805V17H85.3867ZM85.1406 22.5957L84.6836 22.5898C84.6875 22.1523 84.748 21.748 84.8652 21.377C84.9863 21.0059 85.1543 20.6836 85.3691 20.4102C85.5879 20.1328 85.8496 19.9199 86.1543 19.7715C86.459 19.6191 86.7969 19.543 87.168 19.543C87.4805 19.543 87.7617 19.5859 88.0117 19.6719C88.2656 19.7578 88.4844 19.8965 88.668 20.0879C88.8516 20.2754 88.9902 20.5215 89.084 20.8262C89.1816 21.127 89.2305 21.4941 89.2305 21.9277V26H87.8125V21.916C87.8125 21.6113 87.7676 21.3691 87.6777 21.1895C87.5918 21.0098 87.4648 20.8809 87.2969 20.8027C87.1289 20.7207 86.9238 20.6797 86.6816 20.6797C86.4277 20.6797 86.2031 20.7305 86.0078 20.832C85.8164 20.9336 85.6562 21.0723 85.5273 21.248C85.3984 21.4238 85.3008 21.627 85.2344 21.8574C85.1719 22.0879 85.1406 22.334 85.1406 22.5957ZM94.2344 24.7285V21.7051C94.2344 21.4785 94.1934 21.2832 94.1113 21.1191C94.0293 20.9551 93.9043 20.8281 93.7363 20.7383C93.5723 20.6484 93.3652 20.6035 93.1152 20.6035C92.8848 20.6035 92.6855 20.6426 92.5176 20.7207C92.3496 20.7988 92.2188 20.9043 92.125 21.0371C92.0312 21.1699 91.9844 21.3203 91.9844 21.4883H90.5781C90.5781 21.2383 90.6387 20.9961 90.7598 20.7617C90.8809 20.5273 91.0566 20.3184 91.2871 20.1348C91.5176 19.9512 91.793 19.8066 92.1133 19.7012C92.4336 19.5957 92.793 19.543 93.1914 19.543C93.668 19.543 94.0898 19.623 94.457 19.7832C94.8281 19.9434 95.1191 20.1855 95.3301 20.5098C95.5449 20.8301 95.6523 21.2324 95.6523 21.7168V24.5352C95.6523 24.8242 95.6719 25.084 95.7109 25.3145C95.7539 25.541 95.8145 25.7383 95.8926 25.9062V26H94.4453C94.3789 25.8477 94.3262 25.6543 94.2871 25.4199C94.252 25.1816 94.2344 24.9512 94.2344 24.7285ZM94.4395 22.1445L94.4512 23.0176H93.4375C93.1758 23.0176 92.9453 23.043 92.7461 23.0938C92.5469 23.1406 92.3809 23.2109 92.248 23.3047C92.1152 23.3984 92.0156 23.5117 91.9492 23.6445C91.8828 23.7773 91.8496 23.9277 91.8496 24.0957C91.8496 24.2637 91.8887 24.418 91.9668 24.5586C92.0449 24.6953 92.1582 24.8027 92.3066 24.8809C92.459 24.959 92.6426 24.998 92.8574 24.998C93.1465 24.998 93.3984 24.9395 93.6133 24.8223C93.832 24.7012 94.0039 24.5547 94.1289 24.3828C94.2539 24.207 94.3203 24.041 94.3281 23.8848L94.7852 24.5117C94.7383 24.6719 94.6582 24.8438 94.5449 25.0273C94.4316 25.2109 94.2832 25.3867 94.0996 25.5547C93.9199 25.7188 93.7031 25.8535 93.4492 25.959C93.1992 26.0645 92.9102 26.1172 92.582 26.1172C92.168 26.1172 91.7988 26.0352 91.4746 25.8711C91.1504 25.7031 90.8965 25.4785 90.7129 25.1973C90.5293 24.9121 90.4375 24.5898 90.4375 24.2305C90.4375 23.8945 90.5 23.5977 90.625 23.3398C90.7539 23.0781 90.9414 22.8594 91.1875 22.6836C91.4375 22.5078 91.7422 22.375 92.1016 22.2852C92.4609 22.1914 92.8711 22.1445 93.332 22.1445H94.4395ZM98.5469 20.8672V26H97.1348V19.6602H98.4824L98.5469 20.8672ZM100.486 19.6191L100.475 20.9316C100.389 20.916 100.295 20.9043 100.193 20.8965C100.096 20.8887 99.998 20.8848 99.9004 20.8848C99.6582 20.8848 99.4453 20.9199 99.2617 20.9902C99.0781 21.0566 98.9238 21.1543 98.7988 21.2832C98.6777 21.4082 98.584 21.5605 98.5176 21.7402C98.4512 21.9199 98.4121 22.1211 98.4004 22.3438L98.0781 22.3672C98.0781 21.9688 98.1172 21.5996 98.1953 21.2598C98.2734 20.9199 98.3906 20.6211 98.5469 20.3633C98.707 20.1055 98.9062 19.9043 99.1445 19.7598C99.3867 19.6152 99.666 19.543 99.9824 19.543C100.068 19.543 100.16 19.5508 100.258 19.5664C100.359 19.582 100.436 19.5996 100.486 19.6191ZM100.949 22.9004V22.7656C100.949 22.3086 101.016 21.8848 101.148 21.4941C101.281 21.0996 101.473 20.7578 101.723 20.4688C101.977 20.1758 102.285 19.9492 102.648 19.7891C103.016 19.625 103.43 19.543 103.891 19.543C104.355 19.543 104.77 19.625 105.133 19.7891C105.5 19.9492 105.811 20.1758 106.064 20.4688C106.318 20.7578 106.512 21.0996 106.645 21.4941C106.777 21.8848 106.844 22.3086 106.844 22.7656V22.9004C106.844 23.3574 106.777 23.7812 106.645 24.1719C106.512 24.5625 106.318 24.9043 106.064 25.1973C105.811 25.4863 105.502 25.7129 105.139 25.877C104.775 26.0371 104.363 26.1172 103.902 26.1172C103.438 26.1172 103.021 26.0371 102.654 25.877C102.291 25.7129 101.982 25.4863 101.729 25.1973C101.475 24.9043 101.281 24.5625 101.148 24.1719C101.016 23.7812 100.949 23.3574 100.949 22.9004ZM102.361 22.7656V22.9004C102.361 23.1855 102.391 23.4551 102.449 23.709C102.508 23.9629 102.6 24.1855 102.725 24.377C102.85 24.5684 103.01 24.7188 103.205 24.8281C103.4 24.9375 103.633 24.9922 103.902 24.9922C104.164 24.9922 104.391 24.9375 104.582 24.8281C104.777 24.7188 104.938 24.5684 105.062 24.377C105.188 24.1855 105.279 23.9629 105.338 23.709C105.4 23.4551 105.432 23.1855 105.432 22.9004V22.7656C105.432 22.4844 105.4 22.2188 105.338 21.9688C105.279 21.7148 105.186 21.4902 105.057 21.2949C104.932 21.0996 104.771 20.9473 104.576 20.8379C104.385 20.7246 104.156 20.668 103.891 20.668C103.625 20.668 103.395 20.7246 103.199 20.8379C103.008 20.9473 102.85 21.0996 102.725 21.2949C102.6 21.4902 102.508 21.7148 102.449 21.9688C102.391 22.2188 102.361 22.4844 102.361 22.7656ZM109.428 21.0137V26H108.016V19.6602H109.346L109.428 21.0137ZM109.176 22.5957L108.719 22.5898C108.723 22.1406 108.785 21.7285 108.906 21.3535C109.031 20.9785 109.203 20.6562 109.422 20.3867C109.645 20.1172 109.91 19.9102 110.219 19.7656C110.527 19.6172 110.871 19.543 111.25 19.543C111.555 19.543 111.83 19.5859 112.076 19.6719C112.326 19.7539 112.539 19.8887 112.715 20.0762C112.895 20.2637 113.031 20.5078 113.125 20.8086C113.219 21.1055 113.266 21.4707 113.266 21.9043V26H111.848V21.8984C111.848 21.5938 111.803 21.3535 111.713 21.1777C111.627 20.998 111.5 20.8711 111.332 20.7969C111.168 20.7188 110.963 20.6797 110.717 20.6797C110.475 20.6797 110.258 20.7305 110.066 20.832C109.875 20.9336 109.713 21.0723 109.58 21.248C109.451 21.4238 109.352 21.627 109.281 21.8574C109.211 22.0879 109.176 22.334 109.176 22.5957Z" fill="#131420"/>
<path d="M266 32H84C79.5817 32 76 35.5817 76 40V104C76 108.418 79.5817 112 84 112H266C270.418 112 274 108.418 274 104V40C274 35.5817 270.418 32 266 32Z" fill="#F0F5F9"/>
<path d="M87.3828 47.4688L89.5977 51.752L91.8184 47.4688H93.1016L90.1602 52.8125V56H89.0293V52.8125L86.0879 47.4688H87.3828ZM96.2773 56.1172C95.8359 56.1172 95.4355 56.043 95.0762 55.8945C94.7207 55.7422 94.4141 55.5293 94.1562 55.2559C93.9023 54.9824 93.707 54.6582 93.5703 54.2832C93.4336 53.9082 93.3652 53.498 93.3652 53.0527V52.8066C93.3652 52.291 93.4414 51.832 93.5938 51.4297C93.7461 51.0234 93.9531 50.6797 94.2148 50.3984C94.4766 50.1172 94.7734 49.9043 95.1055 49.7598C95.4375 49.6152 95.7812 49.543 96.1367 49.543C96.5898 49.543 96.9805 49.6211 97.3086 49.7773C97.6406 49.9336 97.9121 50.1523 98.123 50.4336C98.334 50.7109 98.4902 51.0391 98.5918 51.418C98.6934 51.793 98.7441 52.2031 98.7441 52.6484V53.1348H94.0098V52.25H97.6602V52.168C97.6445 51.8867 97.5859 51.6133 97.4844 51.3477C97.3867 51.082 97.2305 50.8633 97.0156 50.6914C96.8008 50.5195 96.5078 50.4336 96.1367 50.4336C95.8906 50.4336 95.6641 50.4863 95.457 50.5918C95.25 50.6934 95.0723 50.8457 94.9238 51.0488C94.7754 51.252 94.6602 51.5 94.5781 51.793C94.4961 52.0859 94.4551 52.4238 94.4551 52.8066V53.0527C94.4551 53.3535 94.4961 53.6367 94.5781 53.9023C94.6641 54.1641 94.7871 54.3945 94.9473 54.5938C95.1113 54.793 95.3086 54.9492 95.5391 55.0625C95.7734 55.1758 96.0391 55.2324 96.3359 55.2324C96.7188 55.2324 97.043 55.1543 97.3086 54.998C97.5742 54.8418 97.8066 54.6328 98.0059 54.3711L98.6621 54.8926C98.5254 55.0996 98.3516 55.2969 98.1406 55.4844C97.9297 55.6719 97.6699 55.8242 97.3613 55.9414C97.0566 56.0586 96.6953 56.1172 96.2773 56.1172ZM103.748 54.916V51.6523C103.748 51.4023 103.697 51.1855 103.596 51.002C103.498 50.8145 103.35 50.6699 103.15 50.5684C102.951 50.4668 102.705 50.416 102.412 50.416C102.139 50.416 101.898 50.4629 101.691 50.5566C101.488 50.6504 101.328 50.7734 101.211 50.9258C101.098 51.0781 101.041 51.2422 101.041 51.418H99.957C99.957 51.1914 100.016 50.9668 100.133 50.7441C100.25 50.5215 100.418 50.3203 100.637 50.1406C100.859 49.957 101.125 49.8125 101.434 49.707C101.746 49.5977 102.094 49.543 102.477 49.543C102.938 49.543 103.344 49.6211 103.695 49.7773C104.051 49.9336 104.328 50.1699 104.527 50.4863C104.73 50.7988 104.832 51.1914 104.832 51.6641V54.6172C104.832 54.8281 104.85 55.0527 104.885 55.291C104.924 55.5293 104.98 55.7344 105.055 55.9062V56H103.924C103.869 55.875 103.826 55.709 103.795 55.502C103.764 55.291 103.748 55.0957 103.748 54.916ZM103.936 52.1562L103.947 52.918H102.852C102.543 52.918 102.268 52.9434 102.025 52.9941C101.783 53.041 101.58 53.1133 101.416 53.2109C101.252 53.3086 101.127 53.4316 101.041 53.5801C100.955 53.7246 100.912 53.8945 100.912 54.0898C100.912 54.2891 100.957 54.4707 101.047 54.6348C101.137 54.7988 101.271 54.9297 101.451 55.0273C101.635 55.1211 101.859 55.168 102.125 55.168C102.457 55.168 102.75 55.0977 103.004 54.957C103.258 54.8164 103.459 54.6445 103.607 54.4414C103.76 54.2383 103.842 54.041 103.854 53.8496L104.316 54.3711C104.289 54.5352 104.215 54.7168 104.094 54.916C103.973 55.1152 103.811 55.3066 103.607 55.4902C103.408 55.6699 103.17 55.8203 102.893 55.9414C102.619 56.0586 102.311 56.1172 101.967 56.1172C101.537 56.1172 101.16 56.0332 100.836 55.8652C100.516 55.6973 100.266 55.4727 100.086 55.1914C99.9102 54.9062 99.8223 54.5879 99.8223 54.2363C99.8223 53.8965 99.8887 53.5977 100.021 53.3398C100.154 53.0781 100.346 52.8613 100.596 52.6895C100.846 52.5137 101.146 52.3809 101.498 52.291C101.85 52.2012 102.242 52.1562 102.676 52.1562H103.936ZM107.621 47V56H106.537V47H107.621ZM107.363 52.5898L106.912 52.5723C106.916 52.1387 106.98 51.7383 107.105 51.3711C107.23 51 107.406 50.6777 107.633 50.4043C107.859 50.1309 108.129 49.9199 108.441 49.7715C108.758 49.6191 109.107 49.543 109.49 49.543C109.803 49.543 110.084 49.5859 110.334 49.6719C110.584 49.7539 110.797 49.8867 110.973 50.0703C111.152 50.2539 111.289 50.4922 111.383 50.7852C111.477 51.0742 111.523 51.4277 111.523 51.8457V56H110.434V51.834C110.434 51.502 110.385 51.2363 110.287 51.0371C110.189 50.834 110.047 50.6875 109.859 50.5977C109.672 50.5039 109.441 50.457 109.168 50.457C108.898 50.457 108.652 50.5137 108.43 50.627C108.211 50.7402 108.021 50.8965 107.861 51.0957C107.705 51.2949 107.582 51.5234 107.492 51.7812C107.406 52.0352 107.363 52.3047 107.363 52.5898ZM114.131 54.7109V55.584C114.131 55.9395 114.041 56.3145 113.861 56.709C113.682 57.1074 113.43 57.4395 113.105 57.7051L112.49 57.2773C112.615 57.1055 112.721 56.9297 112.807 56.75C112.893 56.5742 112.957 56.3906 113 56.1992C113.047 56.0117 113.07 55.8125 113.07 55.6016V54.7109H114.131ZM119.574 47V56H118.49V47H119.574ZM119.316 52.5898L118.865 52.5723C118.869 52.1387 118.934 51.7383 119.059 51.3711C119.184 51 119.359 50.6777 119.586 50.4043C119.812 50.1309 120.082 49.9199 120.395 49.7715C120.711 49.6191 121.061 49.543 121.443 49.543C121.756 49.543 122.037 49.5859 122.287 49.6719C122.537 49.7539 122.75 49.8867 122.926 50.0703C123.105 50.2539 123.242 50.4922 123.336 50.7852C123.43 51.0742 123.477 51.4277 123.477 51.8457V56H122.387V51.834C122.387 51.502 122.338 51.2363 122.24 51.0371C122.143 50.834 122 50.6875 121.812 50.5977C121.625 50.5039 121.395 50.457 121.121 50.457C120.852 50.457 120.605 50.5137 120.383 50.627C120.164 50.7402 119.975 50.8965 119.814 51.0957C119.658 51.2949 119.535 51.5234 119.445 51.7812C119.359 52.0352 119.316 52.3047 119.316 52.5898ZM126.277 49.6602V56H125.188V49.6602H126.277ZM125.105 47.9785C125.105 47.8027 125.158 47.6543 125.264 47.5332C125.373 47.4121 125.533 47.3516 125.744 47.3516C125.951 47.3516 126.109 47.4121 126.219 47.5332C126.332 47.6543 126.389 47.8027 126.389 47.9785C126.389 48.1465 126.332 48.291 126.219 48.4121C126.109 48.5293 125.951 48.5879 125.744 48.5879C125.533 48.5879 125.373 48.5293 125.264 48.4121C125.158 48.291 125.105 48.1465 125.105 47.9785ZM128.035 55.4258C128.035 55.2422 128.092 55.0879 128.205 54.9629C128.322 54.834 128.49 54.7695 128.709 54.7695C128.928 54.7695 129.094 54.834 129.207 54.9629C129.324 55.0879 129.383 55.2422 129.383 55.4258C129.383 55.6055 129.324 55.7578 129.207 55.8828C129.094 56.0078 128.928 56.0703 128.709 56.0703C128.49 56.0703 128.322 56.0078 128.205 55.8828C128.092 55.7578 128.035 55.6055 128.035 55.4258ZM139.203 47.4688H140.328V53.2402C140.328 53.8809 140.186 54.4141 139.9 54.8398C139.615 55.2656 139.236 55.5859 138.764 55.8008C138.295 56.0117 137.785 56.1172 137.234 56.1172C136.656 56.1172 136.133 56.0117 135.664 55.8008C135.199 55.5859 134.83 55.2656 134.557 54.8398C134.287 54.4141 134.152 53.8809 134.152 53.2402V47.4688H135.271V53.2402C135.271 53.6855 135.354 54.0527 135.518 54.3418C135.682 54.6309 135.91 54.8457 136.203 54.9863C136.5 55.127 136.844 55.1973 137.234 55.1973C137.629 55.1973 137.973 55.127 138.266 54.9863C138.562 54.8457 138.793 54.6309 138.957 54.3418C139.121 54.0527 139.203 53.6855 139.203 53.2402V47.4688ZM146 47V56H144.916V47H146ZM145.742 52.5898L145.291 52.5723C145.295 52.1387 145.359 51.7383 145.484 51.3711C145.609 51 145.785 50.6777 146.012 50.4043C146.238 50.1309 146.508 49.9199 146.82 49.7715C147.137 49.6191 147.486 49.543 147.869 49.543C148.182 49.543 148.463 49.5859 148.713 49.6719C148.963 49.7539 149.176 49.8867 149.352 50.0703C149.531 50.2539 149.668 50.4922 149.762 50.7852C149.855 51.0742 149.902 51.4277 149.902 51.8457V56H148.812V51.834C148.812 51.502 148.764 51.2363 148.666 51.0371C148.568 50.834 148.426 50.6875 148.238 50.5977C148.051 50.5039 147.82 50.457 147.547 50.457C147.277 50.457 147.031 50.5137 146.809 50.627C146.59 50.7402 146.4 50.8965 146.24 51.0957C146.084 51.2949 145.961 51.5234 145.871 51.7812C145.785 52.0352 145.742 52.3047 145.742 52.5898ZM155.264 54.916V51.6523C155.264 51.4023 155.213 51.1855 155.111 51.002C155.014 50.8145 154.865 50.6699 154.666 50.5684C154.467 50.4668 154.221 50.416 153.928 50.416C153.654 50.416 153.414 50.4629 153.207 50.5566C153.004 50.6504 152.844 50.7734 152.727 50.9258C152.613 51.0781 152.557 51.2422 152.557 51.418H151.473C151.473 51.1914 151.531 50.9668 151.648 50.7441C151.766 50.5215 151.934 50.3203 152.152 50.1406C152.375 49.957 152.641 49.8125 152.949 49.707C153.262 49.5977 153.609 49.543 153.992 49.543C154.453 49.543 154.859 49.6211 155.211 49.7773C155.566 49.9336 155.844 50.1699 156.043 50.4863C156.246 50.7988 156.348 51.1914 156.348 51.6641V54.6172C156.348 54.8281 156.365 55.0527 156.4 55.291C156.439 55.5293 156.496 55.7344 156.57 55.9062V56H155.439C155.385 55.875 155.342 55.709 155.311 55.502C155.279 55.291 155.264 55.0957 155.264 54.916ZM155.451 52.1562L155.463 52.918H154.367C154.059 52.918 153.783 52.9434 153.541 52.9941C153.299 53.041 153.096 53.1133 152.932 53.2109C152.768 53.3086 152.643 53.4316 152.557 53.5801C152.471 53.7246 152.428 53.8945 152.428 54.0898C152.428 54.2891 152.473 54.4707 152.562 54.6348C152.652 54.7988 152.787 54.9297 152.967 55.0273C153.15 55.1211 153.375 55.168 153.641 55.168C153.973 55.168 154.266 55.0977 154.52 54.957C154.773 54.8164 154.975 54.6445 155.123 54.4414C155.275 54.2383 155.357 54.041 155.369 53.8496L155.832 54.3711C155.805 54.5352 155.73 54.7168 155.609 54.916C155.488 55.1152 155.326 55.3066 155.123 55.4902C154.924 55.6699 154.686 55.8203 154.408 55.9414C154.135 56.0586 153.826 56.1172 153.482 56.1172C153.053 56.1172 152.676 56.0332 152.352 55.8652C152.031 55.6973 151.781 55.4727 151.602 55.1914C151.426 54.9062 151.338 54.5879 151.338 54.2363C151.338 53.8965 151.404 53.5977 151.537 53.3398C151.67 53.0781 151.861 52.8613 152.111 52.6895C152.361 52.5137 152.662 52.3809 153.014 52.291C153.365 52.2012 153.758 52.1562 154.191 52.1562H155.451ZM159.887 55.0215L161.621 49.6602H162.729L160.449 56H159.723L159.887 55.0215ZM158.439 49.6602L160.227 55.0508L160.35 56H159.623L157.326 49.6602H158.439ZM166.32 56.1172C165.879 56.1172 165.479 56.043 165.119 55.8945C164.764 55.7422 164.457 55.5293 164.199 55.2559C163.945 54.9824 163.75 54.6582 163.613 54.2832C163.477 53.9082 163.408 53.498 163.408 53.0527V52.8066C163.408 52.291 163.484 51.832 163.637 51.4297C163.789 51.0234 163.996 50.6797 164.258 50.3984C164.52 50.1172 164.816 49.9043 165.148 49.7598C165.48 49.6152 165.824 49.543 166.18 49.543C166.633 49.543 167.023 49.6211 167.352 49.7773C167.684 49.9336 167.955 50.1523 168.166 50.4336C168.377 50.7109 168.533 51.0391 168.635 51.418C168.736 51.793 168.787 52.2031 168.787 52.6484V53.1348H164.053V52.25H167.703V52.168C167.688 51.8867 167.629 51.6133 167.527 51.3477C167.43 51.082 167.273 50.8633 167.059 50.6914C166.844 50.5195 166.551 50.4336 166.18 50.4336C165.934 50.4336 165.707 50.4863 165.5 50.5918C165.293 50.6934 165.115 50.8457 164.967 51.0488C164.818 51.252 164.703 51.5 164.621 51.793C164.539 52.0859 164.498 52.4238 164.498 52.8066V53.0527C164.498 53.3535 164.539 53.6367 164.621 53.9023C164.707 54.1641 164.83 54.3945 164.99 54.5938C165.154 54.793 165.352 54.9492 165.582 55.0625C165.816 55.1758 166.082 55.2324 166.379 55.2324C166.762 55.2324 167.086 55.1543 167.352 54.998C167.617 54.8418 167.85 54.6328 168.049 54.3711L168.705 54.8926C168.568 55.0996 168.395 55.2969 168.184 55.4844C167.973 55.6719 167.713 55.8242 167.404 55.9414C167.1 56.0586 166.738 56.1172 166.32 56.1172ZM176.721 54.3184C176.721 54.1621 176.686 54.0176 176.615 53.8848C176.549 53.748 176.41 53.625 176.199 53.5156C175.992 53.4023 175.68 53.3047 175.262 53.2227C174.91 53.1484 174.592 53.0605 174.307 52.959C174.025 52.8574 173.785 52.7344 173.586 52.5898C173.391 52.4453 173.24 52.2754 173.135 52.0801C173.029 51.8848 172.977 51.6562 172.977 51.3945C172.977 51.1445 173.031 50.9082 173.141 50.6855C173.254 50.4629 173.412 50.2656 173.615 50.0938C173.822 49.9219 174.07 49.7871 174.359 49.6895C174.648 49.5918 174.971 49.543 175.326 49.543C175.834 49.543 176.268 49.6328 176.627 49.8125C176.986 49.9922 177.262 50.2324 177.453 50.5332C177.645 50.8301 177.74 51.1602 177.74 51.5234H176.656C176.656 51.3477 176.604 51.1777 176.498 51.0137C176.396 50.8457 176.246 50.707 176.047 50.5977C175.852 50.4883 175.611 50.4336 175.326 50.4336C175.025 50.4336 174.781 50.4805 174.594 50.5742C174.41 50.6641 174.275 50.7793 174.189 50.9199C174.107 51.0605 174.066 51.209 174.066 51.3652C174.066 51.4824 174.086 51.5879 174.125 51.6816C174.168 51.7715 174.242 51.8555 174.348 51.9336C174.453 52.0078 174.602 52.0781 174.793 52.1445C174.984 52.2109 175.229 52.2773 175.525 52.3438C176.045 52.4609 176.473 52.6016 176.809 52.7656C177.145 52.9297 177.395 53.1309 177.559 53.3691C177.723 53.6074 177.805 53.8965 177.805 54.2363C177.805 54.5137 177.746 54.7676 177.629 54.998C177.516 55.2285 177.35 55.4277 177.131 55.5957C176.916 55.7598 176.658 55.8887 176.357 55.9824C176.061 56.0723 175.727 56.1172 175.355 56.1172C174.797 56.1172 174.324 56.0176 173.938 55.8184C173.551 55.6191 173.258 55.3613 173.059 55.0449C172.859 54.7285 172.76 54.3945 172.76 54.043H173.85C173.865 54.3398 173.951 54.5762 174.107 54.752C174.264 54.9238 174.455 55.0469 174.682 55.1211C174.908 55.1914 175.133 55.2266 175.355 55.2266C175.652 55.2266 175.9 55.1875 176.1 55.1094C176.303 55.0312 176.457 54.9238 176.562 54.7871C176.668 54.6504 176.721 54.4941 176.721 54.3184ZM178.941 52.9004V52.7656C178.941 52.3086 179.008 51.8848 179.141 51.4941C179.273 51.0996 179.465 50.7578 179.715 50.4688C179.965 50.1758 180.268 49.9492 180.623 49.7891C180.979 49.625 181.377 49.543 181.818 49.543C182.264 49.543 182.664 49.625 183.02 49.7891C183.379 49.9492 183.684 50.1758 183.934 50.4688C184.188 50.7578 184.381 51.0996 184.514 51.4941C184.646 51.8848 184.713 52.3086 184.713 52.7656V52.9004C184.713 53.3574 184.646 53.7812 184.514 54.1719C184.381 54.5625 184.188 54.9043 183.934 55.1973C183.684 55.4863 183.381 55.7129 183.025 55.877C182.674 56.0371 182.275 56.1172 181.83 56.1172C181.385 56.1172 180.984 56.0371 180.629 55.877C180.273 55.7129 179.969 55.4863 179.715 55.1973C179.465 54.9043 179.273 54.5625 179.141 54.1719C179.008 53.7812 178.941 53.3574 178.941 52.9004ZM180.025 52.7656V52.9004C180.025 53.2168 180.062 53.5156 180.137 53.7969C180.211 54.0742 180.322 54.3203 180.471 54.5352C180.623 54.75 180.812 54.9199 181.039 55.0449C181.266 55.166 181.529 55.2266 181.83 55.2266C182.127 55.2266 182.387 55.166 182.609 55.0449C182.836 54.9199 183.023 54.75 183.172 54.5352C183.32 54.3203 183.432 54.0742 183.506 53.7969C183.584 53.5156 183.623 53.2168 183.623 52.9004V52.7656C183.623 52.4531 183.584 52.1582 183.506 51.8809C183.432 51.5996 183.318 51.3516 183.166 51.1367C183.018 50.918 182.83 50.7461 182.604 50.6211C182.381 50.4961 182.119 50.4336 181.818 50.4336C181.521 50.4336 181.26 50.4961 181.033 50.6211C180.811 50.7461 180.623 50.918 180.471 51.1367C180.322 51.3516 180.211 51.5996 180.137 51.8809C180.062 52.1582 180.025 52.4531 180.025 52.7656ZM187.15 50.9199V56H186.061V49.6602H187.092L187.15 50.9199ZM186.928 52.5898L186.424 52.5723C186.428 52.1387 186.484 51.7383 186.594 51.3711C186.703 51 186.865 50.6777 187.08 50.4043C187.295 50.1309 187.562 49.9199 187.883 49.7715C188.203 49.6191 188.574 49.543 188.996 49.543C189.293 49.543 189.566 49.5859 189.816 49.6719C190.066 49.7539 190.283 49.8848 190.467 50.0645C190.65 50.2441 190.793 50.4746 190.895 50.7559C190.996 51.0371 191.047 51.377 191.047 51.7754V56H189.963V51.8281C189.963 51.4961 189.906 51.2305 189.793 51.0312C189.684 50.832 189.527 50.6875 189.324 50.5977C189.121 50.5039 188.883 50.457 188.609 50.457C188.289 50.457 188.021 50.5137 187.807 50.627C187.592 50.7402 187.42 50.8965 187.291 51.0957C187.162 51.2949 187.068 51.5234 187.01 51.7812C186.955 52.0352 186.928 52.3047 186.928 52.5898ZM191.035 51.9922L190.309 52.2148C190.312 51.8672 190.369 51.5332 190.479 51.2129C190.592 50.8926 190.754 50.6074 190.965 50.3574C191.18 50.1074 191.443 49.9102 191.756 49.7656C192.068 49.6172 192.426 49.543 192.828 49.543C193.168 49.543 193.469 49.5879 193.73 49.6777C193.996 49.7676 194.219 49.9062 194.398 50.0938C194.582 50.2773 194.721 50.5137 194.814 50.8027C194.908 51.0918 194.955 51.4355 194.955 51.834V56H193.865V51.8223C193.865 51.4668 193.809 51.1914 193.695 50.9961C193.586 50.7969 193.43 50.6582 193.227 50.5801C193.027 50.498 192.789 50.457 192.512 50.457C192.273 50.457 192.062 50.498 191.879 50.5801C191.695 50.6621 191.541 50.7754 191.416 50.9199C191.291 51.0605 191.195 51.2227 191.129 51.4062C191.066 51.5898 191.035 51.7852 191.035 51.9922ZM199.227 56.1172C198.785 56.1172 198.385 56.043 198.025 55.8945C197.67 55.7422 197.363 55.5293 197.105 55.2559C196.852 54.9824 196.656 54.6582 196.52 54.2832C196.383 53.9082 196.314 53.498 196.314 53.0527V52.8066C196.314 52.291 196.391 51.832 196.543 51.4297C196.695 51.0234 196.902 50.6797 197.164 50.3984C197.426 50.1172 197.723 49.9043 198.055 49.7598C198.387 49.6152 198.73 49.543 199.086 49.543C199.539 49.543 199.93 49.6211 200.258 49.7773C200.59 49.9336 200.861 50.1523 201.072 50.4336C201.283 50.7109 201.439 51.0391 201.541 51.418C201.643 51.793 201.693 52.2031 201.693 52.6484V53.1348H196.959V52.25H200.609V52.168C200.594 51.8867 200.535 51.6133 200.434 51.3477C200.336 51.082 200.18 50.8633 199.965 50.6914C199.75 50.5195 199.457 50.4336 199.086 50.4336C198.84 50.4336 198.613 50.4863 198.406 50.5918C198.199 50.6934 198.021 50.8457 197.873 51.0488C197.725 51.252 197.609 51.5 197.527 51.793C197.445 52.0859 197.404 52.4238 197.404 52.8066V53.0527C197.404 53.3535 197.445 53.6367 197.527 53.9023C197.613 54.1641 197.736 54.3945 197.896 54.5938C198.061 54.793 198.258 54.9492 198.488 55.0625C198.723 55.1758 198.988 55.2324 199.285 55.2324C199.668 55.2324 199.992 55.1543 200.258 54.998C200.523 54.8418 200.756 54.6328 200.955 54.3711L201.611 54.8926C201.475 55.0996 201.301 55.2969 201.09 55.4844C200.879 55.6719 200.619 55.8242 200.311 55.9414C200.006 56.0586 199.645 56.1172 199.227 56.1172ZM207.02 50.8789V58.4375H205.93V49.6602H206.926L207.02 50.8789ZM211.291 52.7773V52.9004C211.291 53.3613 211.236 53.7891 211.127 54.1836C211.018 54.5742 210.857 54.9141 210.646 55.2031C210.439 55.4922 210.184 55.7168 209.879 55.877C209.574 56.0371 209.225 56.1172 208.83 56.1172C208.428 56.1172 208.072 56.0508 207.764 55.918C207.455 55.7852 207.193 55.5918 206.979 55.3379C206.764 55.084 206.592 54.7793 206.463 54.4238C206.338 54.0684 206.252 53.668 206.205 53.2227V52.5664C206.252 52.0977 206.34 51.6777 206.469 51.3066C206.598 50.9355 206.768 50.6191 206.979 50.3574C207.193 50.0918 207.453 49.8906 207.758 49.7539C208.062 49.6133 208.414 49.543 208.812 49.543C209.211 49.543 209.564 49.6211 209.873 49.7773C210.182 49.9297 210.441 50.1484 210.652 50.4336C210.863 50.7188 211.021 51.0605 211.127 51.459C211.236 51.8535 211.291 52.293 211.291 52.7773ZM210.201 52.9004V52.7773C210.201 52.4609 210.168 52.1641 210.102 51.8867C210.035 51.6055 209.932 51.3594 209.791 51.1484C209.654 50.9336 209.479 50.7656 209.264 50.6445C209.049 50.5195 208.793 50.457 208.496 50.457C208.223 50.457 207.984 50.5039 207.781 50.5977C207.582 50.6914 207.412 50.8184 207.271 50.9785C207.131 51.1348 207.016 51.3145 206.926 51.5176C206.84 51.7168 206.775 51.9238 206.732 52.1387V53.6562C206.811 53.9297 206.92 54.1875 207.061 54.4297C207.201 54.668 207.389 54.8613 207.623 55.0098C207.857 55.1543 208.152 55.2266 208.508 55.2266C208.801 55.2266 209.053 55.166 209.264 55.0449C209.479 54.9199 209.654 54.75 209.791 54.5352C209.932 54.3203 210.035 54.0742 210.102 53.7969C210.168 53.5156 210.201 53.2168 210.201 52.9004ZM213.758 50.6562V56H212.674V49.6602H213.729L213.758 50.6562ZM215.738 49.625L215.732 50.6328C215.643 50.6133 215.557 50.6016 215.475 50.5977C215.396 50.5898 215.307 50.5859 215.205 50.5859C214.955 50.5859 214.734 50.625 214.543 50.7031C214.352 50.7812 214.189 50.8906 214.057 51.0312C213.924 51.1719 213.818 51.3398 213.74 51.5352C213.666 51.7266 213.617 51.9375 213.594 52.168L213.289 52.3438C213.289 51.9609 213.326 51.6016 213.4 51.2656C213.479 50.9297 213.598 50.6328 213.758 50.375C213.918 50.1133 214.121 49.9102 214.367 49.7656C214.617 49.6172 214.914 49.543 215.258 49.543C215.336 49.543 215.426 49.5527 215.527 49.5723C215.629 49.5879 215.699 49.6055 215.738 49.625ZM216.336 52.9004V52.7656C216.336 52.3086 216.402 51.8848 216.535 51.4941C216.668 51.0996 216.859 50.7578 217.109 50.4688C217.359 50.1758 217.662 49.9492 218.018 49.7891C218.373 49.625 218.771 49.543 219.213 49.543C219.658 49.543 220.059 49.625 220.414 49.7891C220.773 49.9492 221.078 50.1758 221.328 50.4688C221.582 50.7578 221.775 51.0996 221.908 51.4941C222.041 51.8848 222.107 52.3086 222.107 52.7656V52.9004C222.107 53.3574 222.041 53.7812 221.908 54.1719C221.775 54.5625 221.582 54.9043 221.328 55.1973C221.078 55.4863 220.775 55.7129 220.42 55.877C220.068 56.0371 219.67 56.1172 219.225 56.1172C218.779 56.1172 218.379 56.0371 218.023 55.877C217.668 55.7129 217.363 55.4863 217.109 55.1973C216.859 54.9043 216.668 54.5625 216.535 54.1719C216.402 53.7812 216.336 53.3574 216.336 52.9004ZM217.42 52.7656V52.9004C217.42 53.2168 217.457 53.5156 217.531 53.7969C217.605 54.0742 217.717 54.3203 217.865 54.5352C218.018 54.75 218.207 54.9199 218.434 55.0449C218.66 55.166 218.924 55.2266 219.225 55.2266C219.521 55.2266 219.781 55.166 220.004 55.0449C220.23 54.9199 220.418 54.75 220.566 54.5352C220.715 54.3203 220.826 54.0742 220.9 53.7969C220.979 53.5156 221.018 53.2168 221.018 52.9004V52.7656C221.018 52.4531 220.979 52.1582 220.9 51.8809C220.826 51.5996 220.713 51.3516 220.561 51.1367C220.412 50.918 220.225 50.7461 219.998 50.6211C219.775 50.4961 219.514 50.4336 219.213 50.4336C218.916 50.4336 218.654 50.4961 218.428 50.6211C218.205 50.7461 218.018 50.918 217.865 51.1367C217.717 51.3516 217.605 51.5996 217.531 51.8809C217.457 52.1582 217.42 52.4531 217.42 52.7656ZM223.461 47H224.551V54.7695L224.457 56H223.461V47ZM228.834 52.7773V52.9004C228.834 53.3613 228.779 53.7891 228.67 54.1836C228.561 54.5742 228.4 54.9141 228.189 55.2031C227.979 55.4922 227.721 55.7168 227.416 55.877C227.111 56.0371 226.762 56.1172 226.367 56.1172C225.965 56.1172 225.611 56.0488 225.307 55.9121C225.006 55.7715 224.752 55.5703 224.545 55.3086C224.338 55.0469 224.172 54.7305 224.047 54.3594C223.926 53.9883 223.842 53.5703 223.795 53.1055V52.5664C223.842 52.0977 223.926 51.6777 224.047 51.3066C224.172 50.9355 224.338 50.6191 224.545 50.3574C224.752 50.0918 225.006 49.8906 225.307 49.7539C225.607 49.6133 225.957 49.543 226.355 49.543C226.754 49.543 227.107 49.6211 227.416 49.7773C227.725 49.9297 227.982 50.1484 228.189 50.4336C228.4 50.7188 228.561 51.0605 228.67 51.459C228.779 51.8535 228.834 52.293 228.834 52.7773ZM227.744 52.9004V52.7773C227.744 52.4609 227.715 52.1641 227.656 51.8867C227.598 51.6055 227.504 51.3594 227.375 51.1484C227.246 50.9336 227.076 50.7656 226.865 50.6445C226.654 50.5195 226.395 50.457 226.086 50.457C225.812 50.457 225.574 50.5039 225.371 50.5977C225.172 50.6914 225.002 50.8184 224.861 50.9785C224.721 51.1348 224.605 51.3145 224.516 51.5176C224.43 51.7168 224.365 51.9238 224.322 52.1387V53.5508C224.385 53.8242 224.486 54.0879 224.627 54.3418C224.771 54.5918 224.963 54.7969 225.201 54.957C225.443 55.1172 225.742 55.1973 226.098 55.1973C226.391 55.1973 226.641 55.1387 226.848 55.0215C227.059 54.9004 227.229 54.7344 227.357 54.5234C227.49 54.3125 227.588 54.0684 227.65 53.791C227.713 53.5137 227.744 53.2168 227.744 52.9004ZM231.383 47V56H230.293V47H231.383ZM235.754 56.1172C235.312 56.1172 234.912 56.043 234.553 55.8945C234.197 55.7422 233.891 55.5293 233.633 55.2559C233.379 54.9824 233.184 54.6582 233.047 54.2832C232.91 53.9082 232.842 53.498 232.842 53.0527V52.8066C232.842 52.291 232.918 51.832 233.07 51.4297C233.223 51.0234 233.43 50.6797 233.691 50.3984C233.953 50.1172 234.25 49.9043 234.582 49.7598C234.914 49.6152 235.258 49.543 235.613 49.543C236.066 49.543 236.457 49.6211 236.785 49.7773C237.117 49.9336 237.389 50.1523 237.6 50.4336C237.811 50.7109 237.967 51.0391 238.068 51.418C238.17 51.793 238.221 52.2031 238.221 52.6484V53.1348H233.486V52.25H237.137V52.168C237.121 51.8867 237.062 51.6133 236.961 51.3477C236.863 51.082 236.707 50.8633 236.492 50.6914C236.277 50.5195 235.984 50.4336 235.613 50.4336C235.367 50.4336 235.141 50.4863 234.934 50.5918C234.727 50.6934 234.549 50.8457 234.4 51.0488C234.252 51.252 234.137 51.5 234.055 51.793C233.973 52.0859 233.932 52.4238 233.932 52.8066V53.0527C233.932 53.3535 233.973 53.6367 234.055 53.9023C234.141 54.1641 234.264 54.3945 234.424 54.5938C234.588 54.793 234.785 54.9492 235.016 55.0625C235.25 55.1758 235.516 55.2324 235.812 55.2324C236.195 55.2324 236.52 55.1543 236.785 54.998C237.051 54.8418 237.283 54.6328 237.482 54.3711L238.139 54.8926C238.002 55.0996 237.828 55.2969 237.617 55.4844C237.406 55.6719 237.146 55.8242 236.838 55.9414C236.533 56.0586 236.172 56.1172 235.754 56.1172ZM240.564 50.9199V56H239.475V49.6602H240.506L240.564 50.9199ZM240.342 52.5898L239.838 52.5723C239.842 52.1387 239.898 51.7383 240.008 51.3711C240.117 51 240.279 50.6777 240.494 50.4043C240.709 50.1309 240.977 49.9199 241.297 49.7715C241.617 49.6191 241.988 49.543 242.41 49.543C242.707 49.543 242.98 49.5859 243.23 49.6719C243.48 49.7539 243.697 49.8848 243.881 50.0645C244.064 50.2441 244.207 50.4746 244.309 50.7559C244.41 51.0371 244.461 51.377 244.461 51.7754V56H243.377V51.8281C243.377 51.4961 243.32 51.2305 243.207 51.0312C243.098 50.832 242.941 50.6875 242.738 50.5977C242.535 50.5039 242.297 50.457 242.023 50.457C241.703 50.457 241.436 50.5137 241.221 50.627C241.006 50.7402 240.834 50.8965 240.705 51.0957C240.576 51.2949 240.482 51.5234 240.424 51.7812C240.369 52.0352 240.342 52.3047 240.342 52.5898ZM244.449 51.9922L243.723 52.2148C243.727 51.8672 243.783 51.5332 243.893 51.2129C244.006 50.8926 244.168 50.6074 244.379 50.3574C244.594 50.1074 244.857 49.9102 245.17 49.7656C245.482 49.6172 245.84 49.543 246.242 49.543C246.582 49.543 246.883 49.5879 247.145 49.6777C247.41 49.7676 247.633 49.9062 247.812 50.0938C247.996 50.2773 248.135 50.5137 248.229 50.8027C248.322 51.0918 248.369 51.4355 248.369 51.834V56H247.279V51.8223C247.279 51.4668 247.223 51.1914 247.109 50.9961C247 50.7969 246.844 50.6582 246.641 50.5801C246.441 50.498 246.203 50.457 245.926 50.457C245.688 50.457 245.477 50.498 245.293 50.5801C245.109 50.6621 244.955 50.7754 244.83 50.9199C244.705 51.0605 244.609 51.2227 244.543 51.4062C244.48 51.5898 244.449 51.7852 244.449 51.9922ZM253.701 54.3184C253.701 54.1621 253.666 54.0176 253.596 53.8848C253.529 53.748 253.391 53.625 253.18 53.5156C252.973 53.4023 252.66 53.3047 252.242 53.2227C251.891 53.1484 251.572 53.0605 251.287 52.959C251.006 52.8574 250.766 52.7344 250.566 52.5898C250.371 52.4453 250.221 52.2754 250.115 52.0801C250.01 51.8848 249.957 51.6562 249.957 51.3945C249.957 51.1445 250.012 50.9082 250.121 50.6855C250.234 50.4629 250.393 50.2656 250.596 50.0938C250.803 49.9219 251.051 49.7871 251.34 49.6895C251.629 49.5918 251.951 49.543 252.307 49.543C252.814 49.543 253.248 49.6328 253.607 49.8125C253.967 49.9922 254.242 50.2324 254.434 50.5332C254.625 50.8301 254.721 51.1602 254.721 51.5234H253.637C253.637 51.3477 253.584 51.1777 253.479 51.0137C253.377 50.8457 253.227 50.707 253.027 50.5977C252.832 50.4883 252.592 50.4336 252.307 50.4336C252.006 50.4336 251.762 50.4805 251.574 50.5742C251.391 50.6641 251.256 50.7793 251.17 50.9199C251.088 51.0605 251.047 51.209 251.047 51.3652C251.047 51.4824 251.066 51.5879 251.105 51.6816C251.148 51.7715 251.223 51.8555 251.328 51.9336C251.434 52.0078 251.582 52.0781 251.773 52.1445C251.965 52.2109 252.209 52.2773 252.506 52.3438C253.025 52.4609 253.453 52.6016 253.789 52.7656C254.125 52.9297 254.375 53.1309 254.539 53.3691C254.703 53.6074 254.785 53.8965 254.785 54.2363C254.785 54.5137 254.727 54.7676 254.609 54.998C254.496 55.2285 254.33 55.4277 254.111 55.5957C253.896 55.7598 253.639 55.8887 253.338 55.9824C253.041 56.0723 252.707 56.1172 252.336 56.1172C251.777 56.1172 251.305 56.0176 250.918 55.8184C250.531 55.6191 250.238 55.3613 250.039 55.0449C249.84 54.7285 249.74 54.3945 249.74 54.043H250.83C250.846 54.3398 250.932 54.5762 251.088 54.752C251.244 54.9238 251.436 55.0469 251.662 55.1211C251.889 55.1914 252.113 55.2266 252.336 55.2266C252.633 55.2266 252.881 55.1875 253.08 55.1094C253.283 55.0312 253.438 54.9238 253.543 54.7871C253.648 54.6504 253.701 54.4941 253.701 54.3184ZM88.4316 74.875L90.0605 69.6602H90.7754L90.6348 70.6973L88.9766 76H88.2793L88.4316 74.875ZM87.3359 69.6602L88.7246 74.9336L88.8242 76H88.0918L86.252 69.6602H87.3359ZM92.334 74.8926L93.6582 69.6602H94.7363L92.8965 76H92.1699L92.334 74.8926ZM90.9336 69.6602L92.5273 74.7871L92.709 76H92.0176L90.3125 70.6855L90.1719 69.6602H90.9336ZM97.0273 69.6602V76H95.9375V69.6602H97.0273ZM95.8555 67.9785C95.8555 67.8027 95.9082 67.6543 96.0137 67.5332C96.123 67.4121 96.2832 67.3516 96.4941 67.3516C96.7012 67.3516 96.8594 67.4121 96.9688 67.5332C97.082 67.6543 97.1387 67.8027 97.1387 67.9785C97.1387 68.1465 97.082 68.291 96.9688 68.4121C96.8594 68.5293 96.7012 68.5879 96.4941 68.5879C96.2832 68.5879 96.123 68.5293 96.0137 68.4121C95.9082 68.291 95.8555 68.1465 95.8555 67.9785ZM101.422 69.6602V70.4922H97.9941V69.6602H101.422ZM99.1543 68.1191H100.238V74.4297C100.238 74.6445 100.271 74.8066 100.338 74.916C100.404 75.0254 100.49 75.0977 100.596 75.1328C100.701 75.168 100.814 75.1855 100.936 75.1855C101.025 75.1855 101.119 75.1777 101.217 75.1621C101.318 75.1426 101.395 75.127 101.445 75.1152L101.451 76C101.365 76.0273 101.252 76.0527 101.111 76.0762C100.975 76.1035 100.809 76.1172 100.613 76.1172C100.348 76.1172 100.104 76.0645 99.8809 75.959C99.6582 75.8535 99.4805 75.6777 99.3477 75.4316C99.2188 75.1816 99.1543 74.8457 99.1543 74.4238V68.1191ZM103.777 67V76H102.693V67H103.777ZM103.52 72.5898L103.068 72.5723C103.072 72.1387 103.137 71.7383 103.262 71.3711C103.387 71 103.562 70.6777 103.789 70.4043C104.016 70.1309 104.285 69.9199 104.598 69.7715C104.914 69.6191 105.264 69.543 105.646 69.543C105.959 69.543 106.24 69.5859 106.49 69.6719C106.74 69.7539 106.953 69.8867 107.129 70.0703C107.309 70.2539 107.445 70.4922 107.539 70.7852C107.633 71.0742 107.68 71.4277 107.68 71.8457V76H106.59V71.834C106.59 71.502 106.541 71.2363 106.443 71.0371C106.346 70.834 106.203 70.6875 106.016 70.5977C105.828 70.5039 105.598 70.457 105.324 70.457C105.055 70.457 104.809 70.5137 104.586 70.627C104.367 70.7402 104.178 70.8965 104.018 71.0957C103.861 71.2949 103.738 71.5234 103.648 71.7812C103.562 72.0352 103.52 72.3047 103.52 72.5898ZM114.816 75.2266C115.074 75.2266 115.312 75.1738 115.531 75.0684C115.75 74.9629 115.93 74.8184 116.07 74.6348C116.211 74.4473 116.291 74.2344 116.311 73.9961H117.342C117.322 74.3711 117.195 74.7207 116.961 75.0449C116.73 75.3652 116.428 75.625 116.053 75.8242C115.678 76.0195 115.266 76.1172 114.816 76.1172C114.34 76.1172 113.924 76.0332 113.568 75.8652C113.217 75.6973 112.924 75.4668 112.689 75.1738C112.459 74.8809 112.285 74.5449 112.168 74.166C112.055 73.7832 111.998 73.3789 111.998 72.9531V72.707C111.998 72.2812 112.055 71.8789 112.168 71.5C112.285 71.1172 112.459 70.7793 112.689 70.4863C112.924 70.1934 113.217 69.9629 113.568 69.7949C113.924 69.627 114.34 69.543 114.816 69.543C115.312 69.543 115.746 69.6445 116.117 69.8477C116.488 70.0469 116.779 70.3203 116.99 70.668C117.205 71.0117 117.322 71.4023 117.342 71.8398H116.311C116.291 71.5781 116.217 71.3418 116.088 71.1309C115.963 70.9199 115.791 70.752 115.572 70.627C115.357 70.498 115.105 70.4336 114.816 70.4336C114.484 70.4336 114.205 70.5 113.979 70.6328C113.756 70.7617 113.578 70.9375 113.445 71.1602C113.316 71.3789 113.223 71.623 113.164 71.8926C113.109 72.1582 113.082 72.4297 113.082 72.707V72.9531C113.082 73.2305 113.109 73.5039 113.164 73.7734C113.219 74.043 113.311 74.2871 113.439 74.5059C113.572 74.7246 113.75 74.9004 113.973 75.0332C114.199 75.1621 114.48 75.2266 114.816 75.2266ZM119.645 70.6562V76H118.561V69.6602H119.615L119.645 70.6562ZM121.625 69.625L121.619 70.6328C121.529 70.6133 121.443 70.6016 121.361 70.5977C121.283 70.5898 121.193 70.5859 121.092 70.5859C120.842 70.5859 120.621 70.625 120.43 70.7031C120.238 70.7812 120.076 70.8906 119.943 71.0312C119.811 71.1719 119.705 71.3398 119.627 71.5352C119.553 71.7266 119.504 71.9375 119.48 72.168L119.176 72.3438C119.176 71.9609 119.213 71.6016 119.287 71.2656C119.365 70.9297 119.484 70.6328 119.645 70.375C119.805 70.1133 120.008 69.9102 120.254 69.7656C120.504 69.6172 120.801 69.543 121.145 69.543C121.223 69.543 121.312 69.5527 121.414 69.5723C121.516 69.5879 121.586 69.6055 121.625 69.625ZM125.141 76.1172C124.699 76.1172 124.299 76.043 123.939 75.8945C123.584 75.7422 123.277 75.5293 123.02 75.2559C122.766 74.9824 122.57 74.6582 122.434 74.2832C122.297 73.9082 122.229 73.498 122.229 73.0527V72.8066C122.229 72.291 122.305 71.832 122.457 71.4297C122.609 71.0234 122.816 70.6797 123.078 70.3984C123.34 70.1172 123.637 69.9043 123.969 69.7598C124.301 69.6152 124.645 69.543 125 69.543C125.453 69.543 125.844 69.6211 126.172 69.7773C126.504 69.9336 126.775 70.1523 126.986 70.4336C127.197 70.7109 127.354 71.0391 127.455 71.418C127.557 71.793 127.607 72.2031 127.607 72.6484V73.1348H122.873V72.25H126.523V72.168C126.508 71.8867 126.449 71.6133 126.348 71.3477C126.25 71.082 126.094 70.8633 125.879 70.6914C125.664 70.5195 125.371 70.4336 125 70.4336C124.754 70.4336 124.527 70.4863 124.32 70.5918C124.113 70.6934 123.936 70.8457 123.787 71.0488C123.639 71.252 123.523 71.5 123.441 71.793C123.359 72.0859 123.318 72.4238 123.318 72.8066V73.0527C123.318 73.3535 123.359 73.6367 123.441 73.9023C123.527 74.1641 123.65 74.3945 123.811 74.5938C123.975 74.793 124.172 74.9492 124.402 75.0625C124.637 75.1758 124.902 75.2324 125.199 75.2324C125.582 75.2324 125.906 75.1543 126.172 74.998C126.438 74.8418 126.67 74.6328 126.869 74.3711L127.525 74.8926C127.389 75.0996 127.215 75.2969 127.004 75.4844C126.793 75.6719 126.533 75.8242 126.225 75.9414C125.92 76.0586 125.559 76.1172 125.141 76.1172ZM132.611 74.916V71.6523C132.611 71.4023 132.561 71.1855 132.459 71.002C132.361 70.8145 132.213 70.6699 132.014 70.5684C131.814 70.4668 131.568 70.416 131.275 70.416C131.002 70.416 130.762 70.4629 130.555 70.5566C130.352 70.6504 130.191 70.7734 130.074 70.9258C129.961 71.0781 129.904 71.2422 129.904 71.418H128.82C128.82 71.1914 128.879 70.9668 128.996 70.7441C129.113 70.5215 129.281 70.3203 129.5 70.1406C129.723 69.957 129.988 69.8125 130.297 69.707C130.609 69.5977 130.957 69.543 131.34 69.543C131.801 69.543 132.207 69.6211 132.559 69.7773C132.914 69.9336 133.191 70.1699 133.391 70.4863C133.594 70.7988 133.695 71.1914 133.695 71.6641V74.6172C133.695 74.8281 133.713 75.0527 133.748 75.291C133.787 75.5293 133.844 75.7344 133.918 75.9062V76H132.787C132.732 75.875 132.689 75.709 132.658 75.502C132.627 75.291 132.611 75.0957 132.611 74.916ZM132.799 72.1562L132.811 72.918H131.715C131.406 72.918 131.131 72.9434 130.889 72.9941C130.646 73.041 130.443 73.1133 130.279 73.2109C130.115 73.3086 129.99 73.4316 129.904 73.5801C129.818 73.7246 129.775 73.8945 129.775 74.0898C129.775 74.2891 129.82 74.4707 129.91 74.6348C130 74.7988 130.135 74.9297 130.314 75.0273C130.498 75.1211 130.723 75.168 130.988 75.168C131.32 75.168 131.613 75.0977 131.867 74.957C132.121 74.8164 132.322 74.6445 132.471 74.4414C132.623 74.2383 132.705 74.041 132.717 73.8496L133.18 74.3711C133.152 74.5352 133.078 74.7168 132.957 74.916C132.836 75.1152 132.674 75.3066 132.471 75.4902C132.271 75.6699 132.033 75.8203 131.756 75.9414C131.482 76.0586 131.174 76.1172 130.83 76.1172C130.4 76.1172 130.023 76.0332 129.699 75.8652C129.379 75.6973 129.129 75.4727 128.949 75.1914C128.773 74.9062 128.686 74.5879 128.686 74.2363C128.686 73.8965 128.752 73.5977 128.885 73.3398C129.018 73.0781 129.209 72.8613 129.459 72.6895C129.709 72.5137 130.01 72.3809 130.361 72.291C130.713 72.2012 131.105 72.1562 131.539 72.1562H132.799ZM138.055 69.6602V70.4922H134.627V69.6602H138.055ZM135.787 68.1191H136.871V74.4297C136.871 74.6445 136.904 74.8066 136.971 74.916C137.037 75.0254 137.123 75.0977 137.229 75.1328C137.334 75.168 137.447 75.1855 137.568 75.1855C137.658 75.1855 137.752 75.1777 137.85 75.1621C137.951 75.1426 138.027 75.127 138.078 75.1152L138.084 76C137.998 76.0273 137.885 76.0527 137.744 76.0762C137.607 76.1035 137.441 76.1172 137.246 76.1172C136.98 76.1172 136.736 76.0645 136.514 75.959C136.291 75.8535 136.113 75.6777 135.98 75.4316C135.852 75.1816 135.787 74.8457 135.787 74.4238V68.1191ZM140.504 69.6602V76H139.414V69.6602H140.504ZM139.332 67.9785C139.332 67.8027 139.385 67.6543 139.49 67.5332C139.6 67.4121 139.76 67.3516 139.971 67.3516C140.178 67.3516 140.336 67.4121 140.445 67.5332C140.559 67.6543 140.615 67.8027 140.615 67.9785C140.615 68.1465 140.559 68.291 140.445 68.4121C140.336 68.5293 140.178 68.5879 139.971 68.5879C139.76 68.5879 139.6 68.5293 139.49 68.4121C139.385 68.291 139.332 68.1465 139.332 67.9785ZM143.328 71.0137V76H142.244V69.6602H143.27L143.328 71.0137ZM143.07 72.5898L142.619 72.5723C142.623 72.1387 142.688 71.7383 142.812 71.3711C142.938 71 143.113 70.6777 143.34 70.4043C143.566 70.1309 143.836 69.9199 144.148 69.7715C144.465 69.6191 144.814 69.543 145.197 69.543C145.51 69.543 145.791 69.5859 146.041 69.6719C146.291 69.7539 146.504 69.8867 146.68 70.0703C146.859 70.2539 146.996 70.4922 147.09 70.7852C147.184 71.0742 147.23 71.4277 147.23 71.8457V76H146.141V71.834C146.141 71.502 146.092 71.2363 145.994 71.0371C145.896 70.834 145.754 70.6875 145.566 70.5977C145.379 70.5039 145.148 70.457 144.875 70.457C144.605 70.457 144.359 70.5137 144.137 70.627C143.918 70.7402 143.729 70.8965 143.568 71.0957C143.412 71.2949 143.289 71.5234 143.199 71.7812C143.113 72.0352 143.07 72.3047 143.07 72.5898ZM152.984 69.6602H153.969V75.8652C153.969 76.4238 153.855 76.9004 153.629 77.2949C153.402 77.6895 153.086 77.9883 152.68 78.1914C152.277 78.3984 151.812 78.502 151.285 78.502C151.066 78.502 150.809 78.4668 150.512 78.3965C150.219 78.3301 149.93 78.2148 149.645 78.0508C149.363 77.8906 149.127 77.6738 148.936 77.4004L149.504 76.7559C149.77 77.0762 150.047 77.2988 150.336 77.4238C150.629 77.5488 150.918 77.6113 151.203 77.6113C151.547 77.6113 151.844 77.5469 152.094 77.418C152.344 77.2891 152.537 77.0977 152.674 76.8438C152.814 76.5938 152.885 76.2852 152.885 75.918V71.0547L152.984 69.6602ZM148.619 72.9004V72.7773C148.619 72.293 148.676 71.8535 148.789 71.459C148.906 71.0605 149.072 70.7188 149.287 70.4336C149.506 70.1484 149.77 69.9297 150.078 69.7773C150.387 69.6211 150.734 69.543 151.121 69.543C151.52 69.543 151.867 69.6133 152.164 69.7539C152.465 69.8906 152.719 70.0918 152.926 70.3574C153.137 70.6191 153.303 70.9355 153.424 71.3066C153.545 71.6777 153.629 72.0977 153.676 72.5664V73.1055C153.633 73.5703 153.549 73.9883 153.424 74.3594C153.303 74.7305 153.137 75.0469 152.926 75.3086C152.719 75.5703 152.465 75.7715 152.164 75.9121C151.863 76.0488 151.512 76.1172 151.109 76.1172C150.73 76.1172 150.387 76.0371 150.078 75.877C149.773 75.7168 149.512 75.4922 149.293 75.2031C149.074 74.9141 148.906 74.5742 148.789 74.1836C148.676 73.7891 148.619 73.3613 148.619 72.9004ZM149.703 72.7773V72.9004C149.703 73.2168 149.734 73.5137 149.797 73.791C149.863 74.0684 149.963 74.3125 150.096 74.5234C150.232 74.7344 150.406 74.9004 150.617 75.0215C150.828 75.1387 151.08 75.1973 151.373 75.1973C151.732 75.1973 152.029 75.1211 152.264 74.9688C152.498 74.8164 152.684 74.6152 152.82 74.3652C152.961 74.1152 153.07 73.8438 153.148 73.5508V72.1387C153.105 71.9238 153.039 71.7168 152.949 71.5176C152.863 71.3145 152.75 71.1348 152.609 70.9785C152.473 70.8184 152.303 70.6914 152.1 70.5977C151.896 70.5039 151.658 70.457 151.385 70.457C151.088 70.457 150.832 70.5195 150.617 70.6445C150.406 70.7656 150.232 70.9336 150.096 71.1484C149.963 71.3594 149.863 71.6055 149.797 71.8867C149.734 72.1641 149.703 72.4609 149.703 72.7773ZM158.305 72.9004V72.7656C158.305 72.3086 158.371 71.8848 158.504 71.4941C158.637 71.0996 158.828 70.7578 159.078 70.4688C159.328 70.1758 159.631 69.9492 159.986 69.7891C160.342 69.625 160.74 69.543 161.182 69.543C161.627 69.543 162.027 69.625 162.383 69.7891C162.742 69.9492 163.047 70.1758 163.297 70.4688C163.551 70.7578 163.744 71.0996 163.877 71.4941C164.01 71.8848 164.076 72.3086 164.076 72.7656V72.9004C164.076 73.3574 164.01 73.7812 163.877 74.1719C163.744 74.5625 163.551 74.9043 163.297 75.1973C163.047 75.4863 162.744 75.7129 162.389 75.877C162.037 76.0371 161.639 76.1172 161.193 76.1172C160.748 76.1172 160.348 76.0371 159.992 75.877C159.637 75.7129 159.332 75.4863 159.078 75.1973C158.828 74.9043 158.637 74.5625 158.504 74.1719C158.371 73.7812 158.305 73.3574 158.305 72.9004ZM159.389 72.7656V72.9004C159.389 73.2168 159.426 73.5156 159.5 73.7969C159.574 74.0742 159.686 74.3203 159.834 74.5352C159.986 74.75 160.176 74.9199 160.402 75.0449C160.629 75.166 160.893 75.2266 161.193 75.2266C161.49 75.2266 161.75 75.166 161.973 75.0449C162.199 74.9199 162.387 74.75 162.535 74.5352C162.684 74.3203 162.795 74.0742 162.869 73.7969C162.947 73.5156 162.986 73.2168 162.986 72.9004V72.7656C162.986 72.4531 162.947 72.1582 162.869 71.8809C162.795 71.5996 162.682 71.3516 162.529 71.1367C162.381 70.918 162.193 70.7461 161.967 70.6211C161.744 70.4961 161.482 70.4336 161.182 70.4336C160.885 70.4336 160.623 70.4961 160.396 70.6211C160.174 70.7461 159.986 70.918 159.834 71.1367C159.686 71.3516 159.574 71.5996 159.5 71.8809C159.426 72.1582 159.389 72.4531 159.389 72.7656ZM166.52 70.6562V76H165.436V69.6602H166.49L166.52 70.6562ZM168.5 69.625L168.494 70.6328C168.404 70.6133 168.318 70.6016 168.236 70.5977C168.158 70.5898 168.068 70.5859 167.967 70.5859C167.717 70.5859 167.496 70.625 167.305 70.7031C167.113 70.7812 166.951 70.8906 166.818 71.0312C166.686 71.1719 166.58 71.3398 166.502 71.5352C166.428 71.7266 166.379 71.9375 166.355 72.168L166.051 72.3438C166.051 71.9609 166.088 71.6016 166.162 71.2656C166.24 70.9297 166.359 70.6328 166.52 70.375C166.68 70.1133 166.883 69.9102 167.129 69.7656C167.379 69.6172 167.676 69.543 168.02 69.543C168.098 69.543 168.188 69.5527 168.289 69.5723C168.391 69.5879 168.461 69.6055 168.5 69.625ZM173.381 74.7695V67H174.471V76H173.475L173.381 74.7695ZM169.115 72.9004V72.7773C169.115 72.293 169.174 71.8535 169.291 71.459C169.412 71.0605 169.582 70.7188 169.801 70.4336C170.023 70.1484 170.287 69.9297 170.592 69.7773C170.9 69.6211 171.244 69.543 171.623 69.543C172.021 69.543 172.369 69.6133 172.666 69.7539C172.967 69.8906 173.221 70.0918 173.428 70.3574C173.639 70.6191 173.805 70.9355 173.926 71.3066C174.047 71.6777 174.131 72.0977 174.178 72.5664V73.1055C174.135 73.5703 174.051 73.9883 173.926 74.3594C173.805 74.7305 173.639 75.0469 173.428 75.3086C173.221 75.5703 172.967 75.7715 172.666 75.9121C172.365 76.0488 172.014 76.1172 171.611 76.1172C171.24 76.1172 170.9 76.0371 170.592 75.877C170.287 75.7168 170.023 75.4922 169.801 75.2031C169.582 74.9141 169.412 74.5742 169.291 74.1836C169.174 73.7891 169.115 73.3613 169.115 72.9004ZM170.205 72.7773V72.9004C170.205 73.2168 170.236 73.5137 170.299 73.791C170.365 74.0684 170.467 74.3125 170.604 74.5234C170.74 74.7344 170.914 74.9004 171.125 75.0215C171.336 75.1387 171.588 75.1973 171.881 75.1973C172.24 75.1973 172.535 75.1211 172.766 74.9688C173 74.8164 173.188 74.6152 173.328 74.3652C173.469 74.1152 173.578 73.8438 173.656 73.5508V72.1387C173.609 71.9238 173.541 71.7168 173.451 71.5176C173.365 71.3145 173.252 71.1348 173.111 70.9785C172.975 70.8184 172.805 70.6914 172.602 70.5977C172.402 70.5039 172.166 70.457 171.893 70.457C171.596 70.457 171.34 70.5195 171.125 70.6445C170.914 70.7656 170.74 70.9336 170.604 71.1484C170.467 71.3594 170.365 71.6055 170.299 71.8867C170.236 72.1641 170.205 72.4609 170.205 72.7773ZM178.789 76.1172C178.348 76.1172 177.947 76.043 177.588 75.8945C177.232 75.7422 176.926 75.5293 176.668 75.2559C176.414 74.9824 176.219 74.6582 176.082 74.2832C175.945 73.9082 175.877 73.498 175.877 73.0527V72.8066C175.877 72.291 175.953 71.832 176.105 71.4297C176.258 71.0234 176.465 70.6797 176.727 70.3984C176.988 70.1172 177.285 69.9043 177.617 69.7598C177.949 69.6152 178.293 69.543 178.648 69.543C179.102 69.543 179.492 69.6211 179.82 69.7773C180.152 69.9336 180.424 70.1523 180.635 70.4336C180.846 70.7109 181.002 71.0391 181.104 71.418C181.205 71.793 181.256 72.2031 181.256 72.6484V73.1348H176.521V72.25H180.172V72.168C180.156 71.8867 180.098 71.6133 179.996 71.3477C179.898 71.082 179.742 70.8633 179.527 70.6914C179.312 70.5195 179.02 70.4336 178.648 70.4336C178.402 70.4336 178.176 70.4863 177.969 70.5918C177.762 70.6934 177.584 70.8457 177.436 71.0488C177.287 71.252 177.172 71.5 177.09 71.793C177.008 72.0859 176.967 72.4238 176.967 72.8066V73.0527C176.967 73.3535 177.008 73.6367 177.09 73.9023C177.176 74.1641 177.299 74.3945 177.459 74.5938C177.623 74.793 177.82 74.9492 178.051 75.0625C178.285 75.1758 178.551 75.2324 178.848 75.2324C179.23 75.2324 179.555 75.1543 179.82 74.998C180.086 74.8418 180.318 74.6328 180.518 74.3711L181.174 74.8926C181.037 75.0996 180.863 75.2969 180.652 75.4844C180.441 75.6719 180.182 75.8242 179.873 75.9414C179.568 76.0586 179.207 76.1172 178.789 76.1172ZM183.605 70.6562V76H182.521V69.6602H183.576L183.605 70.6562ZM185.586 69.625L185.58 70.6328C185.49 70.6133 185.404 70.6016 185.322 70.5977C185.244 70.5898 185.154 70.5859 185.053 70.5859C184.803 70.5859 184.582 70.625 184.391 70.7031C184.199 70.7812 184.037 70.8906 183.904 71.0312C183.771 71.1719 183.666 71.3398 183.588 71.5352C183.514 71.7266 183.465 71.9375 183.441 72.168L183.137 72.3438C183.137 71.9609 183.174 71.6016 183.248 71.2656C183.326 70.9297 183.445 70.6328 183.605 70.375C183.766 70.1133 183.969 69.9102 184.215 69.7656C184.465 69.6172 184.762 69.543 185.105 69.543C185.184 69.543 185.273 69.5527 185.375 69.5723C185.477 69.5879 185.547 69.6055 185.586 69.625ZM186.846 74.7109V75.584C186.846 75.9395 186.756 76.3145 186.576 76.709C186.396 77.1074 186.145 77.4395 185.82 77.7051L185.205 77.2773C185.33 77.1055 185.436 76.9297 185.521 76.75C185.607 76.5742 185.672 76.3906 185.715 76.1992C185.762 76.0117 185.785 75.8125 185.785 75.6016V74.7109H186.846ZM193.742 75.2266C194 75.2266 194.238 75.1738 194.457 75.0684C194.676 74.9629 194.855 74.8184 194.996 74.6348C195.137 74.4473 195.217 74.2344 195.236 73.9961H196.268C196.248 74.3711 196.121 74.7207 195.887 75.0449C195.656 75.3652 195.354 75.625 194.979 75.8242C194.604 76.0195 194.191 76.1172 193.742 76.1172C193.266 76.1172 192.85 76.0332 192.494 75.8652C192.143 75.6973 191.85 75.4668 191.615 75.1738C191.385 74.8809 191.211 74.5449 191.094 74.166C190.98 73.7832 190.924 73.3789 190.924 72.9531V72.707C190.924 72.2812 190.98 71.8789 191.094 71.5C191.211 71.1172 191.385 70.7793 191.615 70.4863C191.85 70.1934 192.143 69.9629 192.494 69.7949C192.85 69.627 193.266 69.543 193.742 69.543C194.238 69.543 194.672 69.6445 195.043 69.8477C195.414 70.0469 195.705 70.3203 195.916 70.668C196.131 71.0117 196.248 71.4023 196.268 71.8398H195.236C195.217 71.5781 195.143 71.3418 195.014 71.1309C194.889 70.9199 194.717 70.752 194.498 70.627C194.283 70.498 194.031 70.4336 193.742 70.4336C193.41 70.4336 193.131 70.5 192.904 70.6328C192.682 70.7617 192.504 70.9375 192.371 71.1602C192.242 71.3789 192.148 71.623 192.09 71.8926C192.035 72.1582 192.008 72.4297 192.008 72.707V72.9531C192.008 73.2305 192.035 73.5039 192.09 73.7734C192.145 74.043 192.236 74.2871 192.365 74.5059C192.498 74.7246 192.676 74.9004 192.898 75.0332C193.125 75.1621 193.406 75.2266 193.742 75.2266ZM201.225 74.916V71.6523C201.225 71.4023 201.174 71.1855 201.072 71.002C200.975 70.8145 200.826 70.6699 200.627 70.5684C200.428 70.4668 200.182 70.416 199.889 70.416C199.615 70.416 199.375 70.4629 199.168 70.5566C198.965 70.6504 198.805 70.7734 198.688 70.9258C198.574 71.0781 198.518 71.2422 198.518 71.418H197.434C197.434 71.1914 197.492 70.9668 197.609 70.7441C197.727 70.5215 197.895 70.3203 198.113 70.1406C198.336 69.957 198.602 69.8125 198.91 69.707C199.223 69.5977 199.57 69.543 199.953 69.543C200.414 69.543 200.82 69.6211 201.172 69.7773C201.527 69.9336 201.805 70.1699 202.004 70.4863C202.207 70.7988 202.309 71.1914 202.309 71.6641V74.6172C202.309 74.8281 202.326 75.0527 202.361 75.291C202.4 75.5293 202.457 75.7344 202.531 75.9062V76H201.4C201.346 75.875 201.303 75.709 201.271 75.502C201.24 75.291 201.225 75.0957 201.225 74.916ZM201.412 72.1562L201.424 72.918H200.328C200.02 72.918 199.744 72.9434 199.502 72.9941C199.26 73.041 199.057 73.1133 198.893 73.2109C198.729 73.3086 198.604 73.4316 198.518 73.5801C198.432 73.7246 198.389 73.8945 198.389 74.0898C198.389 74.2891 198.434 74.4707 198.523 74.6348C198.613 74.7988 198.748 74.9297 198.928 75.0273C199.111 75.1211 199.336 75.168 199.602 75.168C199.934 75.168 200.227 75.0977 200.48 74.957C200.734 74.8164 200.936 74.6445 201.084 74.4414C201.236 74.2383 201.318 74.041 201.33 73.8496L201.793 74.3711C201.766 74.5352 201.691 74.7168 201.57 74.916C201.449 75.1152 201.287 75.3066 201.084 75.4902C200.885 75.6699 200.646 75.8203 200.369 75.9414C200.096 76.0586 199.787 76.1172 199.443 76.1172C199.014 76.1172 198.637 76.0332 198.312 75.8652C197.992 75.6973 197.742 75.4727 197.562 75.1914C197.387 74.9062 197.299 74.5879 197.299 74.2363C197.299 73.8965 197.365 73.5977 197.498 73.3398C197.631 73.0781 197.822 72.8613 198.072 72.6895C198.322 72.5137 198.623 72.3809 198.975 72.291C199.326 72.2012 199.719 72.1562 200.152 72.1562H201.412ZM205.098 71.0137V76H204.014V69.6602H205.039L205.098 71.0137ZM204.84 72.5898L204.389 72.5723C204.393 72.1387 204.457 71.7383 204.582 71.3711C204.707 71 204.883 70.6777 205.109 70.4043C205.336 70.1309 205.605 69.9199 205.918 69.7715C206.234 69.6191 206.584 69.543 206.967 69.543C207.279 69.543 207.561 69.5859 207.811 69.6719C208.061 69.7539 208.273 69.8867 208.449 70.0703C208.629 70.2539 208.766 70.4922 208.859 70.7852C208.953 71.0742 209 71.4277 209 71.8457V76H207.91V71.834C207.91 71.502 207.861 71.2363 207.764 71.0371C207.666 70.834 207.523 70.6875 207.336 70.5977C207.148 70.5039 206.918 70.457 206.645 70.457C206.375 70.457 206.129 70.5137 205.906 70.627C205.688 70.7402 205.498 70.8965 205.338 71.0957C205.182 71.2949 205.059 71.5234 204.969 71.7812C204.883 72.0352 204.84 72.3047 204.84 72.5898ZM215.404 75.3438L217.168 69.6602H218.328L215.785 76.9785C215.727 77.1348 215.648 77.3027 215.551 77.4824C215.457 77.666 215.336 77.8398 215.188 78.0039C215.039 78.168 214.859 78.3008 214.648 78.4023C214.441 78.5078 214.193 78.5605 213.904 78.5605C213.818 78.5605 213.709 78.5488 213.576 78.5254C213.443 78.502 213.35 78.4824 213.295 78.4668L213.289 77.5879C213.32 77.5918 213.369 77.5957 213.436 77.5996C213.506 77.6074 213.555 77.6113 213.582 77.6113C213.828 77.6113 214.037 77.5781 214.209 77.5117C214.381 77.4492 214.525 77.3418 214.643 77.1895C214.764 77.041 214.867 76.8359 214.953 76.5742L215.404 75.3438ZM214.109 69.6602L215.756 74.582L216.037 75.7246L215.258 76.123L212.926 69.6602H214.109ZM218.926 72.9004V72.7656C218.926 72.3086 218.992 71.8848 219.125 71.4941C219.258 71.0996 219.449 70.7578 219.699 70.4688C219.949 70.1758 220.252 69.9492 220.607 69.7891C220.963 69.625 221.361 69.543 221.803 69.543C222.248 69.543 222.648 69.625 223.004 69.7891C223.363 69.9492 223.668 70.1758 223.918 70.4688C224.172 70.7578 224.365 71.0996 224.498 71.4941C224.631 71.8848 224.697 72.3086 224.697 72.7656V72.9004C224.697 73.3574 224.631 73.7812 224.498 74.1719C224.365 74.5625 224.172 74.9043 223.918 75.1973C223.668 75.4863 223.365 75.7129 223.01 75.877C222.658 76.0371 222.26 76.1172 221.814 76.1172C221.369 76.1172 220.969 76.0371 220.613 75.877C220.258 75.7129 219.953 75.4863 219.699 75.1973C219.449 74.9043 219.258 74.5625 219.125 74.1719C218.992 73.7812 218.926 73.3574 218.926 72.9004ZM220.01 72.7656V72.9004C220.01 73.2168 220.047 73.5156 220.121 73.7969C220.195 74.0742 220.307 74.3203 220.455 74.5352C220.607 74.75 220.797 74.9199 221.023 75.0449C221.25 75.166 221.514 75.2266 221.814 75.2266C222.111 75.2266 222.371 75.166 222.594 75.0449C222.82 74.9199 223.008 74.75 223.156 74.5352C223.305 74.3203 223.416 74.0742 223.49 73.7969C223.568 73.5156 223.607 73.2168 223.607 72.9004V72.7656C223.607 72.4531 223.568 72.1582 223.49 71.8809C223.416 71.5996 223.303 71.3516 223.15 71.1367C223.002 70.918 222.814 70.7461 222.588 70.6211C222.365 70.4961 222.104 70.4336 221.803 70.4336C221.506 70.4336 221.244 70.4961 221.018 70.6211C220.795 70.7461 220.607 70.918 220.455 71.1367C220.307 71.3516 220.195 71.5996 220.121 71.8809C220.047 72.1582 220.01 72.4531 220.01 72.7656ZM229.936 74.5352V69.6602H231.025V76H229.988L229.936 74.5352ZM230.141 73.1992L230.592 73.1875C230.592 73.6094 230.547 74 230.457 74.3594C230.371 74.7148 230.23 75.0234 230.035 75.2852C229.84 75.5469 229.584 75.752 229.268 75.9004C228.951 76.0449 228.566 76.1172 228.113 76.1172C227.805 76.1172 227.521 76.0723 227.264 75.9824C227.01 75.8926 226.791 75.7539 226.607 75.5664C226.424 75.3789 226.281 75.1348 226.18 74.834C226.082 74.5332 226.033 74.1719 226.033 73.75V69.6602H227.117V73.7617C227.117 74.0469 227.148 74.2832 227.211 74.4707C227.277 74.6543 227.365 74.8008 227.475 74.9102C227.588 75.0156 227.713 75.0898 227.85 75.1328C227.99 75.1758 228.135 75.1973 228.283 75.1973C228.744 75.1973 229.109 75.1094 229.379 74.9336C229.648 74.7539 229.842 74.5137 229.959 74.2129C230.08 73.9082 230.141 73.5703 230.141 73.1992ZM236.738 67V76H235.654V67H236.738ZM236.48 72.5898L236.029 72.5723C236.033 72.1387 236.098 71.7383 236.223 71.3711C236.348 71 236.523 70.6777 236.75 70.4043C236.977 70.1309 237.246 69.9199 237.559 69.7715C237.875 69.6191 238.225 69.543 238.607 69.543C238.92 69.543 239.201 69.5859 239.451 69.6719C239.701 69.7539 239.914 69.8867 240.09 70.0703C240.27 70.2539 240.406 70.4922 240.5 70.7852C240.594 71.0742 240.641 71.4277 240.641 71.8457V76H239.551V71.834C239.551 71.502 239.502 71.2363 239.404 71.0371C239.307 70.834 239.164 70.6875 238.977 70.5977C238.789 70.5039 238.559 70.457 238.285 70.457C238.016 70.457 237.77 70.5137 237.547 70.627C237.328 70.7402 237.139 70.8965 236.979 71.0957C236.822 71.2949 236.699 71.5234 236.609 71.7812C236.523 72.0352 236.48 72.3047 236.48 72.5898ZM244.895 76.1172C244.453 76.1172 244.053 76.043 243.693 75.8945C243.338 75.7422 243.031 75.5293 242.773 75.2559C242.52 74.9824 242.324 74.6582 242.188 74.2832C242.051 73.9082 241.982 73.498 241.982 73.0527V72.8066C241.982 72.291 242.059 71.832 242.211 71.4297C242.363 71.0234 242.57 70.6797 242.832 70.3984C243.094 70.1172 243.391 69.9043 243.723 69.7598C244.055 69.6152 244.398 69.543 244.754 69.543C245.207 69.543 245.598 69.6211 245.926 69.7773C246.258 69.9336 246.529 70.1523 246.74 70.4336C246.951 70.7109 247.107 71.0391 247.209 71.418C247.311 71.793 247.361 72.2031 247.361 72.6484V73.1348H242.627V72.25H246.277V72.168C246.262 71.8867 246.203 71.6133 246.102 71.3477C246.004 71.082 245.848 70.8633 245.633 70.6914C245.418 70.5195 245.125 70.4336 244.754 70.4336C244.508 70.4336 244.281 70.4863 244.074 70.5918C243.867 70.6934 243.689 70.8457 243.541 71.0488C243.393 71.252 243.277 71.5 243.195 71.793C243.113 72.0859 243.072 72.4238 243.072 72.8066V73.0527C243.072 73.3535 243.113 73.6367 243.195 73.9023C243.281 74.1641 243.404 74.3945 243.564 74.5938C243.729 74.793 243.926 74.9492 244.156 75.0625C244.391 75.1758 244.656 75.2324 244.953 75.2324C245.336 75.2324 245.66 75.1543 245.926 74.998C246.191 74.8418 246.424 74.6328 246.623 74.3711L247.279 74.8926C247.143 75.0996 246.969 75.2969 246.758 75.4844C246.547 75.6719 246.287 75.8242 245.979 75.9414C245.674 76.0586 245.312 76.1172 244.895 76.1172ZM249.805 67V76H248.715V67H249.805ZM252.629 70.8789V78.4375H251.539V69.6602H252.535L252.629 70.8789ZM256.9 72.7773V72.9004C256.9 73.3613 256.846 73.7891 256.736 74.1836C256.627 74.5742 256.467 74.9141 256.256 75.2031C256.049 75.4922 255.793 75.7168 255.488 75.877C255.184 76.0371 254.834 76.1172 254.439 76.1172C254.037 76.1172 253.682 76.0508 253.373 75.918C253.064 75.7852 252.803 75.5918 252.588 75.3379C252.373 75.084 252.201 74.7793 252.072 74.4238C251.947 74.0684 251.861 73.668 251.814 73.2227V72.5664C251.861 72.0977 251.949 71.6777 252.078 71.3066C252.207 70.9355 252.377 70.6191 252.588 70.3574C252.803 70.0918 253.062 69.8906 253.367 69.7539C253.672 69.6133 254.023 69.543 254.422 69.543C254.82 69.543 255.174 69.6211 255.482 69.7773C255.791 69.9297 256.051 70.1484 256.262 70.4336C256.473 70.7188 256.631 71.0605 256.736 71.459C256.846 71.8535 256.9 72.293 256.9 72.7773ZM255.811 72.9004V72.7773C255.811 72.4609 255.777 72.1641 255.711 71.8867C255.645 71.6055 255.541 71.3594 255.4 71.1484C255.264 70.9336 255.088 70.7656 254.873 70.6445C254.658 70.5195 254.402 70.457 254.105 70.457C253.832 70.457 253.594 70.5039 253.391 70.5977C253.191 70.6914 253.021 70.8184 252.881 70.9785C252.74 71.1348 252.625 71.3145 252.535 71.5176C252.449 71.7168 252.385 71.9238 252.342 72.1387V73.6562C252.42 73.9297 252.529 74.1875 252.67 74.4297C252.811 74.668 252.998 74.8613 253.232 75.0098C253.467 75.1543 253.762 75.2266 254.117 75.2266C254.41 75.2266 254.662 75.166 254.873 75.0449C255.088 74.9199 255.264 74.75 255.4 74.5352C255.541 74.3203 255.645 74.0742 255.711 73.7969C255.777 73.5156 255.811 73.2168 255.811 72.9004ZM87.9043 90.9199V96H86.8145V89.6602H87.8457L87.9043 90.9199ZM87.6816 92.5898L87.1777 92.5723C87.1816 92.1387 87.2383 91.7383 87.3477 91.3711C87.457 91 87.6191 90.6777 87.834 90.4043C88.0488 90.1309 88.3164 89.9199 88.6367 89.7715C88.957 89.6191 89.3281 89.543 89.75 89.543C90.0469 89.543 90.3203 89.5859 90.5703 89.6719C90.8203 89.7539 91.0371 89.8848 91.2207 90.0645C91.4043 90.2441 91.5469 90.4746 91.6484 90.7559C91.75 91.0371 91.8008 91.377 91.8008 91.7754V96H90.7168V91.8281C90.7168 91.4961 90.6602 91.2305 90.5469 91.0312C90.4375 90.832 90.2812 90.6875 90.0781 90.5977C89.875 90.5039 89.6367 90.457 89.3633 90.457C89.043 90.457 88.7754 90.5137 88.5605 90.627C88.3457 90.7402 88.1738 90.8965 88.0449 91.0957C87.916 91.2949 87.8223 91.5234 87.7637 91.7812C87.709 92.0352 87.6816 92.3047 87.6816 92.5898ZM91.7891 91.9922L91.0625 92.2148C91.0664 91.8672 91.123 91.5332 91.2324 91.2129C91.3457 90.8926 91.5078 90.6074 91.7188 90.3574C91.9336 90.1074 92.1973 89.9102 92.5098 89.7656C92.8223 89.6172 93.1797 89.543 93.582 89.543C93.9219 89.543 94.2227 89.5879 94.4844 89.6777C94.75 89.7676 94.9727 89.9062 95.1523 90.0938C95.3359 90.2773 95.4746 90.5137 95.5684 90.8027C95.6621 91.0918 95.709 91.4355 95.709 91.834V96H94.6191V91.8223C94.6191 91.4668 94.5625 91.1914 94.4492 90.9961C94.3398 90.7969 94.1836 90.6582 93.9805 90.5801C93.7812 90.498 93.543 90.457 93.2656 90.457C93.0273 90.457 92.8164 90.498 92.6328 90.5801C92.4492 90.6621 92.2949 90.7754 92.1699 90.9199C92.0449 91.0605 91.9492 91.2227 91.8828 91.4062C91.8203 91.5898 91.7891 91.7852 91.7891 91.9922ZM99.9805 96.1172C99.5391 96.1172 99.1387 96.043 98.7793 95.8945C98.4238 95.7422 98.1172 95.5293 97.8594 95.2559C97.6055 94.9824 97.4102 94.6582 97.2734 94.2832C97.1367 93.9082 97.0684 93.498 97.0684 93.0527V92.8066C97.0684 92.291 97.1445 91.832 97.2969 91.4297C97.4492 91.0234 97.6562 90.6797 97.918 90.3984C98.1797 90.1172 98.4766 89.9043 98.8086 89.7598C99.1406 89.6152 99.4844 89.543 99.8398 89.543C100.293 89.543 100.684 89.6211 101.012 89.7773C101.344 89.9336 101.615 90.1523 101.826 90.4336C102.037 90.7109 102.193 91.0391 102.295 91.418C102.396 91.793 102.447 92.2031 102.447 92.6484V93.1348H97.7129V92.25H101.363V92.168C101.348 91.8867 101.289 91.6133 101.188 91.3477C101.09 91.082 100.934 90.8633 100.719 90.6914C100.504 90.5195 100.211 90.4336 99.8398 90.4336C99.5938 90.4336 99.3672 90.4863 99.1602 90.5918C98.9531 90.6934 98.7754 90.8457 98.627 91.0488C98.4785 91.252 98.3633 91.5 98.2812 91.793C98.1992 92.0859 98.1582 92.4238 98.1582 92.8066V93.0527C98.1582 93.3535 98.1992 93.6367 98.2812 93.9023C98.3672 94.1641 98.4902 94.3945 98.6504 94.5938C98.8145 94.793 99.0117 94.9492 99.2422 95.0625C99.4766 95.1758 99.7422 95.2324 100.039 95.2324C100.422 95.2324 100.746 95.1543 101.012 94.998C101.277 94.8418 101.51 94.6328 101.709 94.3711L102.365 94.8926C102.229 95.0996 102.055 95.2969 101.844 95.4844C101.633 95.6719 101.373 95.8242 101.064 95.9414C100.76 96.0586 100.398 96.1172 99.9805 96.1172ZM106.068 93.5977H104.979C104.982 93.2227 105.016 92.916 105.078 92.6777C105.145 92.4355 105.252 92.2148 105.4 92.0156C105.549 91.8164 105.746 91.5898 105.992 91.3359C106.172 91.1523 106.336 90.9805 106.484 90.8203C106.637 90.6562 106.76 90.4805 106.854 90.293C106.947 90.1016 106.994 89.873 106.994 89.6074C106.994 89.3379 106.945 89.1055 106.848 88.9102C106.754 88.7148 106.613 88.5645 106.426 88.459C106.242 88.3535 106.014 88.3008 105.74 88.3008C105.514 88.3008 105.299 88.3418 105.096 88.4238C104.893 88.5059 104.729 88.6328 104.604 88.8047C104.479 88.9727 104.414 89.1934 104.41 89.4668H103.326C103.334 89.0254 103.443 88.6465 103.654 88.3301C103.869 88.0137 104.158 87.7715 104.521 87.6035C104.885 87.4355 105.291 87.3516 105.74 87.3516C106.236 87.3516 106.658 87.4414 107.006 87.6211C107.357 87.8008 107.625 88.0586 107.809 88.3945C107.992 88.7266 108.084 89.1211 108.084 89.5781C108.084 89.9297 108.012 90.2539 107.867 90.5508C107.727 90.8438 107.545 91.1191 107.322 91.377C107.1 91.6348 106.863 91.8809 106.613 92.1152C106.398 92.3145 106.254 92.5391 106.18 92.7891C106.105 93.0391 106.068 93.3086 106.068 93.5977ZM104.932 95.4551C104.932 95.2793 104.986 95.1309 105.096 95.0098C105.205 94.8887 105.363 94.8281 105.57 94.8281C105.781 94.8281 105.941 94.8887 106.051 95.0098C106.16 95.1309 106.215 95.2793 106.215 95.4551C106.215 95.623 106.16 95.7676 106.051 95.8887C105.941 96.0098 105.781 96.0703 105.57 96.0703C105.363 96.0703 105.205 96.0098 105.096 95.8887C104.986 95.7676 104.932 95.623 104.932 95.4551Z" fill="#32375E"/>
<defs>
<linearGradient id="paint0_linear_1199_87692" x1="46.929" y1="52.7437" x2="20.1794" y2="52.7437" gradientUnits="userSpaceOnUse">
<stop stop-color="#E4941E"/>
<stop offset="1" stop-color="#D16234"/>
</linearGradient>
<radialGradient id="paint1_radial_1199_87692" cx="0" cy="0" r="1" gradientUnits="userSpaceOnUse" gradientTransform="translate(38.408 52.8631) scale(10.849 10.849)">
<stop stop-color="#E3745F"/>
<stop offset="1" stop-color="#FFAE8D"/>
</radialGradient>
<linearGradient id="paint2_linear_1199_87692" x1="43.1112" y1="28.0508" x2="37.4146" y2="28.0508" gradientUnits="userSpaceOnUse">
<stop stop-color="#E4941E"/>
<stop offset="1" stop-color="#D16234"/>
</linearGradient>
<radialGradient id="paint3_radial_1199_87692" cx="0" cy="0" r="1" gradientUnits="userSpaceOnUse" gradientTransform="translate(35.977 32.2341) rotate(180) scale(9.50572 9.5057)">
<stop stop-color="#E3745F"/>
<stop offset="1" stop-color="#FFAE8D"/>
</radialGradient>
<radialGradient id="paint4_radial_1199_87692" cx="0" cy="0" r="1" gradientUnits="userSpaceOnUse" gradientTransform="translate(34.4709 35.2199) rotate(180) scale(7.29031 7.29033)">
<stop stop-color="#E3745F"/>
<stop offset="1" stop-color="#FFAE8D"/>
</radialGradient>
<linearGradient id="paint5_linear_1199_87692" x1="34.9928" y1="38.9069" x2="35.0887" y2="40.3258" gradientUnits="userSpaceOnUse">
<stop stop-color="#174B80"/>
<stop offset="1" stop-color="#00BEDD"/>
</linearGradient>
<linearGradient id="paint6_linear_1199_87692" x1="40.2572" y1="36.9696" x2="40.8325" y2="39.0597" gradientUnits="userSpaceOnUse">
<stop stop-color="#174B80"/>
<stop offset="1" stop-color="#00BEDD"/>
</linearGradient>
<linearGradient id="paint7_linear_1199_87692" x1="27.047" y1="30.897" x2="29.1726" y2="58.9039" gradientUnits="userSpaceOnUse">
<stop stop-color="#FFCB3A"/>
<stop offset="1" stop-color="#FFA23C"/>
</linearGradient>
</defs>
</svg>
