<svg xmlns="http://www.w3.org/2000/svg" fill="none" viewBox="0 0 934 41"><rect width="934" height="40" y=".29" fill="#fff" rx="12"/><path fill="#414144" d="M20 26.956a6.667 6.667 0 1 1 0-13.333 6.667 6.667 0 0 1 0 13.333zm0-1.333a5.333 5.333 0 1 0 0-10.666 5.333 5.333 0 0 0 0 10.666zm-2-7.333h1.334v4H18v-4zm2.667 0H22v4h-1.333v-4z"/><path fill="#32375E" d="M45.054 19.169v1.084c0 .582-.052 1.074-.157 1.474-.104.4-.253.723-.449.967a1.71 1.71 0 0 1-.708.532 2.52 2.52 0 0 1-.928.162c-.273 0-.525-.035-.756-.103a1.795 1.795 0 0 1-.625-.327 1.984 1.984 0 0 1-.47-.596c-.13-.244-.229-.54-.297-.889a6.4 6.4 0 0 1-.102-1.22v-1.084c0-.583.052-1.071.156-1.465.107-.394.259-.71.454-.947.195-.241.43-.414.703-.518.277-.104.586-.156.928-.156.276 0 .53.034.762.102.234.065.442.171.625.318.182.143.336.335.463.576.13.238.23.529.298.874.069.345.103.75.103 1.216zm-.909 1.23v-1.382a5.3 5.3 0 0 0-.058-.84 2.639 2.639 0 0 0-.161-.625 1.236 1.236 0 0 0-.274-.42.964.964 0 0 0-.376-.234 1.35 1.35 0 0 0-.473-.078c-.215 0-.405.04-.572.122a1.028 1.028 0 0 0-.42.376c-.11.173-.195.399-.253.679-.059.28-.088.62-.088 1.02V20.4c0 .32.018.6.053.845.04.244.096.456.171.635.075.175.166.32.274.434.107.114.23.199.37.254.144.052.302.078.474.078.222 0 .416-.042.582-.127.166-.084.304-.216.415-.395a2.06 2.06 0 0 0 .254-.698c.055-.287.082-.629.082-1.026zm5.538-4.228h.078v.766h-.078c-.479 0-.88.078-1.202.235-.322.153-.577.36-.766.62a2.546 2.546 0 0 0-.41.869c-.082.322-.122.65-.122.981v1.045c0 .316.037.596.112.84.075.241.177.444.307.61.13.166.277.292.44.376.166.085.338.127.518.127.208 0 .393-.039.556-.117.163-.081.3-.194.41-.337.114-.146.2-.319.26-.517.058-.199.087-.417.087-.655 0-.211-.026-.415-.078-.61a1.628 1.628 0 0 0-.24-.527 1.15 1.15 0 0 0-.976-.503c-.25 0-.485.062-.703.185-.215.12-.392.28-.532.479a1.287 1.287 0 0 0-.235.64l-.478-.005c.045-.365.13-.676.254-.933a1.99 1.99 0 0 1 .468-.635c.19-.166.4-.286.63-.361.235-.078.482-.117.743-.117.354 0 .66.066.918.2.257.133.468.312.634.537.166.221.288.472.367.752.08.277.122.561.122.855 0 .335-.048.649-.142.942-.094.293-.236.55-.425.771a1.914 1.914 0 0 1-.688.518 2.29 2.29 0 0 1-.952.185 2.07 2.07 0 0 1-1.006-.234 2.155 2.155 0 0 1-.713-.635 2.895 2.895 0 0 1-.425-.879 3.474 3.474 0 0 1-.142-.981v-.425c0-.501.05-.993.152-1.474.1-.482.275-.918.522-1.309a2.68 2.68 0 0 1 1.04-.933c.443-.23 1.008-.346 1.695-.346zm4.135 3.725v.742h-2.383v-.742h2.383zm3.653-3.086-2.354 6.48h-.962l2.71-7.11h.62l-.014.63zm1.972 6.48-2.358-6.48-.015-.63h.62l2.72 7.11h-.967zm-.122-2.632v.771h-3.994v-.771h3.994zm2.808-1.636v6.299h-.908v-7.314h.83l.078 1.015zm3.56 1.582v.103c0 .384-.046.74-.137 1.07a2.632 2.632 0 0 1-.4.849c-.173.24-.386.428-.64.561-.254.134-.545.2-.874.2a2.23 2.23 0 0 1-.889-.166 1.753 1.753 0 0 1-.654-.483 2.472 2.472 0 0 1-.43-.762 4.414 4.414 0 0 1-.215-1v-.547c.04-.391.112-.741.22-1.05.107-.31.249-.573.425-.791.179-.222.395-.39.65-.503.253-.117.546-.176.878-.176.332 0 .627.065.884.195.257.127.474.31.65.547.175.238.307.523.395.855.09.328.136.695.136 1.098zm-.909.103v-.103c0-.263-.027-.51-.083-.742a1.877 1.877 0 0 0-.258-.615 1.233 1.233 0 0 0-.44-.42 1.25 1.25 0 0 0-.64-.156 1.41 1.41 0 0 0-.595.117 1.29 1.29 0 0 0-.425.317c-.117.13-.213.28-.288.45a2.59 2.59 0 0 0-.161.517v1.265c.065.227.156.442.273.644.117.199.274.36.469.484.195.12.44.18.737.18.244 0 .454-.05.63-.151.18-.104.325-.246.44-.425.117-.179.203-.384.258-.615.056-.235.083-.483.083-.747zm2.964-1.87v4.453h-.903v-5.283h.879l.024.83zm1.65-.86-.004.84a2.289 2.289 0 0 0-.44-.039c-.208 0-.392.033-.552.098-.16.065-.294.156-.405.273-.11.117-.198.257-.263.42-.062.16-.103.335-.123.527l-.254.147c0-.32.031-.619.093-.898.065-.28.165-.528.298-.743.134-.218.303-.387.508-.508a1.427 1.427 0 0 1 .967-.16.668.668 0 0 1 .175.043zm2.715 1.92v.741h-2.382v-.742h2.382zm5.445 2.65v.743H72.9v-.65l2.33-2.592c.286-.32.507-.59.664-.81.16-.226.27-.426.332-.601a1.59 1.59 0 0 0 .097-.547c0-.235-.049-.446-.146-.635a1.098 1.098 0 0 0-.42-.46 1.264 1.264 0 0 0-.674-.17c-.316 0-.58.062-.791.186-.208.12-.365.29-.469.507a1.726 1.726 0 0 0-.156.752h-.903c0-.4.088-.766.263-1.098.176-.332.436-.596.782-.791.345-.199.77-.298 1.274-.298.45 0 .833.08 1.152.239.32.156.564.378.733.664.172.283.259.615.259.996 0 .209-.036.42-.108.635a3.218 3.218 0 0 1-.288.635c-.12.211-.262.42-.425.625a9.75 9.75 0 0 1-.512.605l-1.905 2.066h3.565zm5.625 0v.743h-4.654v-.65l2.33-2.592c.286-.32.507-.59.664-.81.16-.226.27-.426.332-.601a1.59 1.59 0 0 0 .097-.547c0-.235-.049-.446-.146-.635a1.098 1.098 0 0 0-.42-.46 1.264 1.264 0 0 0-.674-.17c-.316 0-.58.062-.791.186-.208.12-.365.29-.469.507a1.726 1.726 0 0 0-.156.752h-.903c0-.4.088-.766.263-1.098.176-.332.436-.596.782-.791.345-.199.77-.298 1.274-.298.45 0 .833.08 1.152.239.32.156.564.378.733.664.172.283.259.615.259.996 0 .209-.036.42-.108.635a3.218 3.218 0 0 1-.288.635c-.12.211-.262.42-.425.625a9.75 9.75 0 0 1-.512.605l-1.905 2.066h3.565zm6.416-6.406v7.149h-.904v-6.02l-1.82.663v-.815l2.582-.977h.142zm7.314 6.407v.742h-4.653v-.65l2.329-2.592c.286-.32.508-.59.664-.81.16-.226.27-.426.332-.601a1.59 1.59 0 0 0 .098-.547 1.36 1.36 0 0 0-.147-.635 1.098 1.098 0 0 0-.42-.46 1.264 1.264 0 0 0-.673-.17c-.316 0-.58.062-.791.186-.209.12-.365.29-.47.507a1.725 1.725 0 0 0-.156.752h-.903c0-.4.088-.766.264-1.098.176-.332.436-.596.781-.791.345-.199.77-.298 1.275-.298.449 0 .833.08 1.152.239.319.156.563.378.732.664.173.283.259.615.259.996a2 2 0 0 1-.107.635 3.224 3.224 0 0 1-.288.635c-.12.211-.263.42-.425.625-.16.205-.33.407-.513.605l-1.904 2.066h3.564zm1.026.263c0-.153.047-.281.141-.386.098-.107.238-.16.42-.16s.32.053.415.16a.543.543 0 0 1 .147.386c0 .15-.05.277-.147.381-.094.104-.233.156-.415.156-.182 0-.322-.052-.42-.156a.547.547 0 0 1-.141-.38zm.004-4.311c0-.153.048-.282.142-.386.098-.107.238-.161.42-.161s.32.054.415.161a.543.543 0 0 1 .147.386c0 .15-.05.276-.147.38-.094.105-.233.157-.415.157-.182 0-.322-.052-.42-.156a.547.547 0 0 1-.142-.381zm5.328-2.359v7.149h-.904v-6.02l-1.821.663v-.815l2.583-.977h.142zm7.461 4.756v.742h-5.137v-.532l3.183-4.927h.738l-.791 1.426-2.105 3.291h4.112zm-.992-4.717v7.11h-.903v-7.11h.903z" opacity=".9"/><path fill="#3F7BDA" d="M192.909 19.29h.645c.315 0 .576-.051.781-.155.208-.108.363-.253.464-.435.104-.186.156-.394.156-.625 0-.273-.045-.503-.137-.688a.915.915 0 0 0-.41-.42c-.182-.095-.413-.142-.693-.142-.254 0-.479.05-.674.151a1.11 1.11 0 0 0-.454.42 1.241 1.241 0 0 0-.161.645h-.904c0-.362.092-.69.274-.987.182-.296.438-.532.766-.708a2.434 2.434 0 0 1 1.153-.263c.43 0 .806.076 1.128.23.322.149.573.374.752.673.179.296.268.666.268 1.108 0 .18-.042.372-.127.577-.081.201-.21.39-.385.566-.173.176-.398.32-.674.435-.277.11-.609.166-.996.166h-.772v-.547zm0 .743v-.542h.772c.452 0 .826.054 1.123.161.296.107.529.25.698.43.172.179.293.376.361.59a2.161 2.161 0 0 1-.063 1.519 1.808 1.808 0 0 1-.474.655 2.022 2.022 0 0 1-.713.405 2.804 2.804 0 0 1-.893.136c-.31 0-.601-.044-.874-.131a2.263 2.263 0 0 1-.718-.381 1.784 1.784 0 0 1-.488-.62 1.938 1.938 0 0 1-.176-.845h.903c0 .247.054.464.161.65.111.185.267.33.469.434.205.1.446.151.723.151.276 0 .514-.047.713-.141.201-.098.356-.245.463-.44.111-.195.166-.44.166-.737 0-.296-.061-.539-.185-.728a1.092 1.092 0 0 0-.527-.424 2.047 2.047 0 0 0-.796-.142h-.645zm8.789 1.333c0 .433-.101.8-.302 1.104-.199.299-.469.527-.811.683a2.709 2.709 0 0 1-1.147.235c-.427 0-.811-.079-1.153-.235a1.889 1.889 0 0 1-.81-.683c-.199-.303-.298-.671-.298-1.104 0-.283.053-.542.161-.776a1.88 1.88 0 0 1 .464-.62c.202-.176.439-.311.713-.406.276-.097.581-.146.913-.146.436 0 .825.084 1.167.254.342.166.61.395.805.688.199.293.298.628.298 1.006zm-.908-.02c0-.263-.057-.496-.171-.698a1.208 1.208 0 0 0-.478-.478 1.444 1.444 0 0 0-.713-.171c-.277 0-.516.057-.718.17a1.193 1.193 0 0 0-.464.48 1.425 1.425 0 0 0-.166.697c0 .274.054.508.161.704.111.192.267.34.469.444.205.1.448.151.728.151.279 0 .52-.05.722-.151a1.09 1.09 0 0 0 .464-.444c.111-.196.166-.43.166-.704zm.742-3.315c0 .345-.091.656-.273.933a1.91 1.91 0 0 1-.747.654 2.35 2.35 0 0 1-1.074.24c-.407 0-.77-.08-1.089-.24a1.863 1.863 0 0 1-.743-.654 1.68 1.68 0 0 1-.268-.933c0-.413.089-.765.268-1.055.183-.29.432-.51.748-.664a2.44 2.44 0 0 1 1.079-.23c.407 0 .768.077 1.084.23.315.153.563.375.742.664.182.29.273.642.273 1.055zm-.903.015c0-.238-.051-.448-.151-.63a1.111 1.111 0 0 0-.42-.43 1.193 1.193 0 0 0-.625-.161c-.238 0-.446.05-.625.151a1.045 1.045 0 0 0-.415.42 1.353 1.353 0 0 0-.147.65c0 .244.049.457.147.64.1.182.24.323.419.424.18.101.388.152.626.152.237 0 .444-.051.62-.152.179-.1.319-.242.42-.425.1-.182.151-.395.151-.64zm5.181-1.905v7.149h-.904v-6.02l-1.821.663v-.815l2.583-.977h.142zm5.625 0v7.149h-.904v-6.02l-1.821.663v-.815l2.583-.977h.142z" opacity=".9"/><path fill="#32375E" d="M230.825 16.18h2.354c.534 0 .984.082 1.352.245.371.162.653.403.845.722.195.316.293.705.293 1.167 0 .326-.067.624-.2.894-.13.267-.319.495-.567.683a2.496 2.496 0 0 1-.879.415l-.263.103h-2.212l-.01-.767h1.67c.339 0 .62-.058.845-.175.224-.12.394-.282.508-.484.113-.202.17-.425.17-.669 0-.273-.053-.512-.161-.718a1.07 1.07 0 0 0-.508-.473c-.227-.114-.522-.171-.883-.171h-1.411v6.338h-.943v-7.11zm4.155 7.11-1.728-3.223.981-.005 1.753 3.17v.058h-1.006zm6.524-.767v.767h-3.765v-.767h3.765zm-3.574-6.343v7.11h-.943v-7.11h.943zm3.076 3.057v.767h-3.267v-.767h3.267zm.449-3.057v.772h-3.716v-.772h3.716zm5.508 4.85h.937c-.048.448-.177.85-.385 1.205a2.259 2.259 0 0 1-.884.845c-.381.205-.856.308-1.426.308-.417 0-.796-.079-1.138-.235a2.541 2.541 0 0 1-.874-.664 3.101 3.101 0 0 1-.566-1.04 4.446 4.446 0 0 1-.195-1.357v-.708c0-.498.065-.95.195-1.353.133-.407.324-.755.571-1.045.251-.29.552-.513.904-.669a2.89 2.89 0 0 1 1.186-.234c.537 0 .991.1 1.362.303.371.201.66.481.865.84.208.354.337.766.385 1.235h-.937a2.616 2.616 0 0 0-.254-.855 1.32 1.32 0 0 0-.527-.556c-.228-.13-.526-.196-.894-.196-.316 0-.594.06-.835.18-.238.121-.438.292-.6.514a2.39 2.39 0 0 0-.362.796c-.081.309-.122.652-.122 1.03v.718c0 .348.036.675.108.981.074.306.187.575.336.806.15.23.341.413.572.546.231.13.504.196.82.196.4 0 .719-.064.957-.19a1.24 1.24 0 0 0 .537-.547c.124-.238.212-.523.264-.855zm6.289-4.85h.937v4.81c0 .534-.118.978-.356 1.333a2.227 2.227 0 0 1-.947.8 3.073 3.073 0 0 1-1.275.264c-.481 0-.918-.087-1.308-.263a2.14 2.14 0 0 1-.923-.801c-.225-.355-.337-.8-.337-1.333v-4.81h.933v4.81c0 .371.068.677.205.918.136.24.327.42.571.537.247.117.534.176.859.176.329 0 .616-.059.86-.176a1.28 1.28 0 0 0 .576-.537c.137-.24.205-.547.205-.918v-4.81zm7.886 0v7.11h-.948l-3.579-5.484v5.484h-.942v-7.11h.942l3.594 5.498V16.18h.933zm5.459 5.313c0-.166-.026-.313-.078-.44a.84.84 0 0 0-.264-.351 2.065 2.065 0 0 0-.518-.298 7.153 7.153 0 0 0-.83-.288 7.667 7.667 0 0 1-.952-.347 3.308 3.308 0 0 1-.727-.444 1.747 1.747 0 0 1-.464-.571 1.62 1.62 0 0 1-.161-.738c0-.276.057-.532.17-.766.114-.235.277-.438.489-.61.215-.176.47-.313.766-.41.297-.098.627-.147.992-.147.533 0 .986.102 1.357.307.374.202.659.468.854.796.196.326.293.674.293 1.045h-.937c0-.267-.057-.503-.171-.708a1.174 1.174 0 0 0-.518-.488c-.231-.12-.524-.18-.878-.18-.336 0-.612.05-.831.15a1.1 1.1 0 0 0-.488.41c-.104.173-.156.37-.156.592 0 .15.031.286.093.41.065.12.164.232.298.337.136.104.309.2.517.288.212.088.464.172.757.254.404.114.752.24 1.045.38.293.14.534.298.723.474.192.173.333.37.424.591.095.218.142.465.142.742 0 .29-.059.552-.176.786a1.708 1.708 0 0 1-.503.6c-.218.167-.48.296-.786.387a3.64 3.64 0 0 1-1.016.131c-.328 0-.652-.045-.971-.136a2.885 2.885 0 0 1-.864-.41 2.15 2.15 0 0 1-.621-.674 1.869 1.869 0 0 1-.229-.938h.937c0 .244.048.454.142.63.094.173.223.316.386.43.166.114.353.198.561.254.212.052.432.078.659.078.329 0 .608-.046.835-.137.228-.091.401-.221.518-.39.12-.17.181-.37.181-.601zm3.891-1.597v.742h-2.383v-.742h2.383zm1.685 2.637h.093c.52 0 .944-.073 1.269-.22.326-.146.576-.343.752-.59.176-.248.296-.526.361-.835.066-.313.098-.634.098-.963v-1.088a3 3 0 0 0-.112-.86 1.872 1.872 0 0 0-.303-.63 1.343 1.343 0 0 0-.435-.385 1.07 1.07 0 0 0-.517-.132 1.186 1.186 0 0 0-.977.474c-.11.15-.195.325-.254.527a2.38 2.38 0 0 0-.087.659c0 .212.026.417.078.615.052.199.132.378.239.537.107.16.241.287.4.381.163.091.354.137.572.137.201 0 .39-.04.566-.117.179-.082.337-.19.474-.327a1.652 1.652 0 0 0 .478-1.026h.43c0 .27-.054.537-.161.801a2.45 2.45 0 0 1-.44.713c-.189.215-.41.387-.664.517-.254.127-.53.19-.83.19a1.92 1.92 0 0 1-.913-.204 1.846 1.846 0 0 1-.635-.547 2.51 2.51 0 0 1-.366-.762 3.223 3.223 0 0 1-.117-.86c0-.338.047-.655.141-.951.095-.297.235-.557.42-.782.186-.227.415-.405.689-.532.277-.127.596-.19.957-.19.407 0 .753.081 1.04.244.286.163.519.38.698.654.182.274.316.581.401.923.084.342.127.693.127 1.055v.327c0 .368-.025.742-.074 1.123a4.474 4.474 0 0 1-.268 1.084c-.13.345-.321.654-.572.928-.25.27-.577.485-.981.644-.4.156-.895.235-1.484.235h-.093v-.767zm9.531-1.636v.742h-5.137v-.532l3.184-4.927h.737l-.791 1.426-2.104 3.291h4.111zm-.991-4.717v7.11h-.903v-7.11h.903z" opacity=".9"/><path fill="#F0F5F9" d="M327 14.29a6 6 0 0 1 6-6h12a6 6 0 0 1 6 6v12a6 6 0 0 1-6 6h-12a6 6 0 0 1-6-6v-12z"/><path fill="#32375E" d="M332.914 17.102h.731l1.863 4.637 1.859-4.637h.735l-2.313 5.688h-.57l-2.305-5.688zm-.238 0h.644l.106 3.469v2.219h-.75v-5.688zm5.015 0h.645v5.688h-.75V20.57l.105-3.469zm2.207 0h.731l1.863 4.637 1.86-4.637h.734l-2.313 5.688h-.57l-2.305-5.688zm-.238 0h.645l.105 3.469v2.219h-.75v-5.688zm5.016 0h.644v5.688h-.75V20.57l.106-3.469zM362.457 16.81l-2.353 6.48h-.962l2.71-7.11h.62l-.015.63zm1.973 6.48-2.359-6.48-.014-.63h.62l2.719 7.11h-.966zm-.122-2.632v.771h-3.995v-.771h3.995zm2.885-4.868v7.5h-.908v-7.5h.908zm2.798 7.5h-.903v-5.84c0-.38.068-.701.205-.962.14-.264.34-.462.601-.596.26-.136.569-.205.927-.205a2.53 2.53 0 0 1 .625.078l-.049.738a1.478 1.478 0 0 0-.234-.035 3.317 3.317 0 0 0-.254-.01c-.192 0-.358.04-.498.118a.73.73 0 0 0-.312.332 1.222 1.222 0 0 0-.108.542v5.84zm1.123-5.283v.693h-2.861v-.693h2.861zm1.909.83v4.453h-.903v-5.283h.879l.024.83zm1.651-.86-.005.84a2.29 2.29 0 0 0-.44-.039c-.208 0-.392.033-.551.098-.16.065-.295.156-.406.273-.11.117-.198.257-.263.42-.062.16-.103.335-.122.527l-.254.147c0-.32.031-.619.093-.898.065-.28.164-.528.297-.743.134-.218.303-.387.508-.508a1.43 1.43 0 0 1 .967-.16.672.672 0 0 1 .176.043zm2.93 5.41c-.368 0-.702-.061-1.001-.185a2.265 2.265 0 0 1-.767-.532 2.362 2.362 0 0 1-.488-.81 2.971 2.971 0 0 1-.171-1.026v-.205c0-.43.063-.813.19-1.148.127-.338.3-.625.518-.86.218-.233.465-.411.742-.531.277-.12.563-.181.859-.181.378 0 .703.065.977.195.277.13.503.313.679.547.175.231.306.505.39.82a3.9 3.9 0 0 1 .127 1.026v.405h-3.945v-.737h3.042v-.069a2.243 2.243 0 0 0-.147-.683 1.225 1.225 0 0 0-.39-.547c-.179-.143-.423-.215-.733-.215a1.227 1.227 0 0 0-1.01.513c-.124.17-.22.376-.288.62a3.118 3.118 0 0 0-.103.845v.205c0 .25.034.486.103.708.071.218.174.41.307.576.137.166.301.296.493.39.196.095.417.142.664.142.319 0 .59-.065.811-.195a2.01 2.01 0 0 0 .581-.523l.547.435a2.522 2.522 0 0 1-.435.493 2.076 2.076 0 0 1-.649.381 2.515 2.515 0 0 1-.903.146zm6.44-1.123V15.79h.908v7.5h-.83l-.078-1.026zm-3.555-1.557v-.103c0-.403.049-.77.147-1.098.101-.332.242-.617.425-.855a1.872 1.872 0 0 1 1.518-.742c.332 0 .622.059.869.176.251.114.462.281.635.503.176.218.314.481.415.79.101.31.171.66.21 1.05v.45a4.62 4.62 0 0 1-.21 1.045c-.101.309-.239.573-.415.79a1.74 1.74 0 0 1-.635.504c-.25.114-.543.17-.879.17-.309 0-.592-.066-.849-.2a1.999 1.999 0 0 1-.659-.561 2.724 2.724 0 0 1-.425-.85 3.729 3.729 0 0 1-.147-1.07zm.908-.103v.103c0 .264.027.51.079.742.055.231.14.434.253.61.114.176.259.314.435.415.176.098.386.147.63.147.299 0 .545-.064.737-.19.196-.128.352-.295.469-.504.117-.208.208-.434.273-.678v-1.177a2.661 2.661 0 0 0-.17-.518 1.587 1.587 0 0 0-.284-.449 1.226 1.226 0 0 0-.424-.317 1.377 1.377 0 0 0-.591-.117 1.25 1.25 0 0 0-.64.156c-.176.1-.321.24-.435.42-.113.176-.198.38-.253.615a3.374 3.374 0 0 0-.079.742zm10.201-.102h-1.9v-.767h1.9c.367 0 .665-.058.893-.176.228-.117.394-.28.498-.488.108-.208.161-.446.161-.713a1.51 1.51 0 0 0-.161-.688 1.188 1.188 0 0 0-.498-.518c-.228-.133-.526-.2-.893-.2h-1.68v6.338h-.942v-7.11h2.622c.537 0 .991.093 1.362.279.371.185.653.442.845.771.192.326.288.698.288 1.118 0 .456-.096.845-.288 1.167a1.843 1.843 0 0 1-.845.738c-.371.166-.825.249-1.362.249zm6.606 1.885v-2.72c0-.209-.042-.39-.127-.542a.829.829 0 0 0-.371-.362 1.345 1.345 0 0 0-.615-.127c-.228 0-.428.04-.601.118-.169.078-.302.18-.4.307a.67.67 0 0 0-.142.41h-.903c0-.188.049-.375.146-.561.098-.186.238-.353.42-.503.186-.153.407-.273.664-.361.261-.091.551-.137.87-.137.384 0 .722.065 1.015.195.296.13.528.327.694.591.169.26.253.588.253.982v2.46c0 .176.015.363.044.562.033.198.08.37.142.513v.078h-.942a1.665 1.665 0 0 1-.108-.415 3.353 3.353 0 0 1-.039-.488zm.156-2.3.01.634h-.913c-.257 0-.487.022-.688.064-.202.039-.372.1-.508.18a.861.861 0 0 0-.313.308.821.821 0 0 0-.107.425c0 .166.037.317.112.454a.816.816 0 0 0 .337.327c.153.078.34.117.562.117.276 0 .52-.058.732-.175.212-.117.379-.26.503-.43a.926.926 0 0 0 .205-.493l.386.434a1.316 1.316 0 0 1-.186.455 2.18 2.18 0 0 1-1.001.854 1.941 1.941 0 0 1-.771.146c-.358 0-.672-.07-.943-.21a1.613 1.613 0 0 1-.625-.561 1.49 1.49 0 0 1-.219-.796c0-.283.055-.532.166-.747.11-.218.27-.399.478-.542.208-.146.459-.257.752-.332.293-.075.62-.112.982-.112h1.049zm3.15-4.297v7.5h-.908v-7.5h.908zm2.348 3.266v4.234h-.908v-5.283h.86l.048 1.05zm-.185 1.392-.42-.015c.003-.361.05-.695.142-1 .091-.31.226-.578.405-.806a1.8 1.8 0 0 1 .669-.528c.267-.127.576-.19.927-.19.248 0 .476.036.684.107.208.069.389.178.542.328.153.15.272.341.357.576.084.234.126.517.126.85v3.52h-.903v-3.477c0-.276-.047-.498-.141-.664a.815.815 0 0 0-.391-.361 1.41 1.41 0 0 0-.596-.117c-.267 0-.49.047-.669.141a1.125 1.125 0 0 0-.429.39 1.751 1.751 0 0 0-.235.572 3.233 3.233 0 0 0-.068.674zm3.423-.498-.606.186c.003-.29.051-.569.142-.835.094-.267.229-.505.405-.713.179-.209.399-.373.659-.494.261-.123.559-.185.894-.185.283 0 .534.037.752.112.221.075.407.19.556.347.153.153.269.35.347.59.078.242.117.528.117.86v3.472h-.908v-3.482c0-.296-.047-.525-.142-.688a.737.737 0 0 0-.39-.347 1.563 1.563 0 0 0-.596-.102 1.28 1.28 0 0 0-.527.102 1.09 1.09 0 0 0-.386.283 1.233 1.233 0 0 0-.239.406 1.507 1.507 0 0 0-.078.488zm6.826 3.438c-.368 0-.702-.062-1.001-.186a2.275 2.275 0 0 1-.767-.532 2.378 2.378 0 0 1-.488-.81 2.971 2.971 0 0 1-.171-1.026v-.205c0-.43.064-.813.191-1.148.126-.338.299-.625.517-.86.218-.233.466-.411.742-.531.277-.12.563-.181.86-.181.377 0 .703.065.976.195.277.13.503.313.679.547.176.231.306.505.391.82.084.313.127.655.127 1.026v.405h-3.946v-.737h3.042v-.069a2.272 2.272 0 0 0-.146-.683 1.235 1.235 0 0 0-.391-.547c-.179-.143-.423-.215-.732-.215a1.234 1.234 0 0 0-1.011.513c-.124.17-.22.376-.288.62a3.158 3.158 0 0 0-.103.845v.205c0 .25.035.486.103.708.071.218.174.41.307.576.137.166.302.296.494.39.195.095.416.142.664.142.319 0 .589-.065.81-.195.222-.13.415-.304.581-.523l.547.435a2.549 2.549 0 0 1-.434.493 2.081 2.081 0 0 1-.65.381 2.515 2.515 0 0 1-.903.146zm4.014-4.551v4.453h-.904v-5.283h.879l.025.83zm1.65-.86-.005.84a2.283 2.283 0 0 0-.439-.039c-.209 0-.393.033-.552.098-.16.065-.295.156-.405.273a1.309 1.309 0 0 0-.264.42c-.062.16-.103.335-.122.527l-.254.147c0-.32.031-.619.093-.898.065-.28.164-.528.298-.743.133-.218.302-.387.507-.508a1.43 1.43 0 0 1 .967-.16.672.672 0 0 1 .176.043z"/><path fill="#32375E" d="M515.614 21.493c0-.166-.026-.313-.078-.44a.84.84 0 0 0-.264-.351 2.057 2.057 0 0 0-.517-.298 7.22 7.22 0 0 0-.83-.288 7.609 7.609 0 0 1-.952-.347 3.316 3.316 0 0 1-.728-.444 1.76 1.76 0 0 1-.464-.571 1.633 1.633 0 0 1-.161-.738 1.729 1.729 0 0 1 .659-1.377c.215-.175.471-.312.767-.41.296-.097.627-.146.991-.146.534 0 .986.102 1.358.307.374.202.659.468.854.796a2 2 0 0 1 .293 1.045h-.938c0-.267-.056-.503-.17-.708a1.18 1.18 0 0 0-.518-.488c-.231-.12-.524-.18-.879-.18-.335 0-.612.05-.83.15-.218.102-.381.238-.488.41-.104.173-.157.37-.157.592 0 .15.031.286.093.41.065.12.165.232.298.337.137.104.309.2.518.288.211.088.464.172.757.254.403.114.751.24 1.044.38.293.14.534.298.723.474.192.173.334.37.425.591.094.218.142.465.142.742 0 .29-.059.552-.176.786a1.708 1.708 0 0 1-.503.6c-.218.167-.48.296-.786.387a3.644 3.644 0 0 1-1.016.131 3.52 3.52 0 0 1-.972-.136 2.908 2.908 0 0 1-.864-.41 2.147 2.147 0 0 1-.62-.674 1.869 1.869 0 0 1-.229-.938h.937c0 .244.047.454.142.63.094.173.223.316.385.43.166.114.354.198.562.254.211.052.431.078.659.078.329 0 .607-.046.835-.137.228-.091.4-.221.518-.39.12-.17.18-.37.18-.601zm2.993-3.486v5.283h-.908v-5.283h.908zm-.976-1.402c0-.146.044-.27.132-.37.091-.102.224-.152.4-.152.173 0 .304.05.396.151.094.101.141.225.141.371 0 .14-.047.26-.141.362-.092.097-.223.146-.396.146-.176 0-.309-.049-.4-.146a.532.532 0 0 1-.132-.362zm3.33 2.53v4.155h-.903v-5.283h.854l.049 1.127zm-.215 1.313-.376-.015c.003-.361.057-.695.161-1 .104-.31.251-.578.44-.806a1.954 1.954 0 0 1 1.548-.718c.26 0 .494.036.703.107.208.069.385.18.532.332.15.153.264.352.342.596.078.241.117.536.117.884v3.462h-.908v-3.472c0-.277-.041-.498-.122-.664a.755.755 0 0 0-.357-.366 1.278 1.278 0 0 0-.576-.117c-.225 0-.43.047-.615.141-.183.095-.34.225-.474.39-.13.167-.233.357-.307.572a2.078 2.078 0 0 0-.108.674zm8.262-2.441h.82v5.17c0 .466-.094.863-.283 1.192a1.849 1.849 0 0 1-.791.747 2.505 2.505 0 0 1-1.162.259c-.182 0-.397-.03-.645-.088a2.592 2.592 0 0 1-.722-.288 1.795 1.795 0 0 1-.591-.542l.473-.537c.222.267.453.452.694.556.244.105.485.157.722.157.287 0 .534-.054.743-.162.208-.107.369-.267.483-.478.117-.208.176-.466.176-.772V19.17l.083-1.162zm-3.638 2.7v-.103c0-.403.047-.77.142-1.098.097-.332.236-.617.415-.855a1.863 1.863 0 0 1 1.528-.742c.332 0 .622.059.869.176.251.114.462.281.635.503.176.218.314.481.415.79.101.31.171.66.21 1.05v.45a4.62 4.62 0 0 1-.21 1.045c-.101.309-.239.573-.415.79a1.74 1.74 0 0 1-.635.504c-.25.114-.543.17-.879.17-.315 0-.602-.066-.859-.2a1.953 1.953 0 0 1-.654-.561 2.632 2.632 0 0 1-.42-.85 3.839 3.839 0 0 1-.142-1.07zm.903-.103v.103c0 .264.026.51.079.742.055.231.138.434.249.61.114.176.258.314.434.415.176.098.386.147.63.147.3 0 .547-.064.742-.19.196-.128.35-.295.464-.504.117-.208.208-.434.274-.678v-1.177a2.462 2.462 0 0 0-.166-.518 1.61 1.61 0 0 0-.284-.449 1.226 1.226 0 0 0-.424-.317 1.413 1.413 0 0 0-.596-.117 1.25 1.25 0 0 0-.64.156c-.176.1-.32.24-.434.42-.111.176-.194.38-.249.615a3.315 3.315 0 0 0-.079.742zm5.909-4.814v7.5h-.909v-7.5h.909zm3.642 7.598a2.6 2.6 0 0 1-1.001-.186 2.26 2.26 0 0 1-.766-.532 2.364 2.364 0 0 1-.489-.81 2.971 2.971 0 0 1-.171-1.026v-.205c0-.43.064-.813.191-1.148a2.57 2.57 0 0 1 .517-.86c.219-.233.466-.411.743-.531.276-.12.563-.181.859-.181.378 0 .703.065.977.195.276.13.503.313.678.547.176.231.306.505.391.82a3.9 3.9 0 0 1 .127 1.026v.405h-3.945v-.737h3.042v-.069a2.243 2.243 0 0 0-.147-.683 1.227 1.227 0 0 0-.391-.547c-.179-.143-.423-.215-.732-.215a1.227 1.227 0 0 0-1.011.513c-.123.17-.219.376-.288.62a3.16 3.16 0 0 0-.102.845v.205c0 .25.034.486.102.708.072.218.174.41.308.576.137.166.301.296.493.39.195.095.417.142.664.142.319 0 .589-.065.811-.195a2.01 2.01 0 0 0 .581-.523l.547.435a2.522 2.522 0 0 1-.435.493 2.076 2.076 0 0 1-.649.381 2.517 2.517 0 0 1-.904.146zm6.494-4.366v6.299h-.908v-7.314h.83l.078 1.015zm3.56 1.582v.103c0 .384-.046.74-.137 1.07a2.621 2.621 0 0 1-.4.849c-.173.24-.386.428-.64.561-.254.134-.545.2-.874.2-.335 0-.631-.055-.889-.166a1.752 1.752 0 0 1-.654-.483 2.483 2.483 0 0 1-.43-.762 4.415 4.415 0 0 1-.214-1v-.547c.039-.391.112-.741.219-1.05.108-.31.249-.573.425-.791.179-.222.396-.39.65-.503.254-.117.546-.176.878-.176.333 0 .627.065.884.195.257.127.474.31.65.547.175.238.307.523.395.855.091.328.137.695.137 1.098zm-.908.103v-.103c0-.263-.028-.51-.083-.742a1.894 1.894 0 0 0-.259-.615 1.227 1.227 0 0 0-.44-.42 1.248 1.248 0 0 0-.639-.156 1.41 1.41 0 0 0-.596.117 1.3 1.3 0 0 0-.425.317c-.117.13-.213.28-.288.45a2.636 2.636 0 0 0-.161.517v1.265c.065.227.156.442.274.644.117.199.273.36.468.484.196.12.441.18.738.18.244 0 .454-.05.629-.151a1.27 1.27 0 0 0 .44-.425c.117-.179.203-.384.259-.615.055-.235.083-.483.083-.747zm5.176 1.68v-2.72a1.11 1.11 0 0 0-.127-.542.836.836 0 0 0-.372-.362 1.345 1.345 0 0 0-.615-.127c-.228 0-.428.04-.6.118-.17.078-.303.18-.401.307a.676.676 0 0 0-.141.41h-.904c0-.188.049-.375.147-.561.097-.186.237-.353.42-.503.185-.153.407-.273.664-.361.26-.091.55-.137.869-.137.384 0 .723.065 1.016.195.296.13.527.327.693.591.169.26.254.588.254.982v2.46c0 .176.014.363.044.562.032.198.08.37.141.513v.078h-.942a1.669 1.669 0 0 1-.107-.415 3.353 3.353 0 0 1-.039-.488zm.156-2.3.01.634h-.914c-.257 0-.486.022-.688.064-.202.039-.371.1-.508.18a.812.812 0 0 0-.42.732c0 .167.038.318.113.455a.813.813 0 0 0 .336.327c.153.078.341.117.562.117a1.515 1.515 0 0 0 1.235-.605c.127-.17.196-.334.205-.493l.386.434a1.312 1.312 0 0 1-.185.455 2.186 2.186 0 0 1-1.001.854 1.943 1.943 0 0 1-.772.146c-.358 0-.672-.07-.942-.21a1.606 1.606 0 0 1-.625-.561 1.482 1.482 0 0 1-.22-.796c0-.283.055-.532.166-.747a1.44 1.44 0 0 1 .479-.542c.208-.146.459-.257.752-.332.292-.075.62-.112.981-.112h1.05zm3.574 2.656 1.47-4.736h.966l-2.119 6.098c-.048.13-.114.27-.195.42a1.996 1.996 0 0 1-.303.435 1.43 1.43 0 0 1-.449.332 1.35 1.35 0 0 1-.62.132c-.072 0-.163-.01-.273-.03a2.688 2.688 0 0 1-.235-.048l-.005-.733.122.01a1.457 1.457 0 0 0 .645-.073.787.787 0 0 0 .361-.269c.101-.124.187-.295.259-.513l.376-1.025zm-1.079-4.736 1.372 4.101.234.952-.649.332-1.943-5.385h.986zm5.229 1.05v4.233h-.908v-5.283h.86l.048 1.05zm-.185 1.391-.42-.015c.003-.361.05-.695.141-1 .092-.31.227-.578.406-.806a1.8 1.8 0 0 1 .669-.528c.267-.127.576-.19.927-.19.248 0 .476.036.684.107.208.069.389.178.542.328.153.15.272.341.356.576.085.234.127.517.127.85v3.52h-.903v-3.477c0-.276-.047-.498-.141-.664a.815.815 0 0 0-.391-.361 1.41 1.41 0 0 0-.596-.117c-.267 0-.49.047-.669.141a1.125 1.125 0 0 0-.429.39 1.751 1.751 0 0 0-.235.572 3.233 3.233 0 0 0-.068.674zm3.423-.498-.606.186c.003-.29.051-.569.142-.835.094-.267.229-.505.405-.713.179-.209.399-.373.659-.494.261-.123.559-.185.894-.185.283 0 .534.037.752.112.221.075.407.19.556.347.153.153.269.35.347.59.078.242.117.528.117.86v3.472h-.908v-3.482c0-.296-.047-.525-.142-.688a.737.737 0 0 0-.39-.347 1.563 1.563 0 0 0-.596-.102 1.28 1.28 0 0 0-.527.102 1.09 1.09 0 0 0-.386.283 1.233 1.233 0 0 0-.239.406 1.507 1.507 0 0 0-.078.488zm6.826 3.438c-.368 0-.702-.062-1.001-.186a2.275 2.275 0 0 1-.767-.532 2.378 2.378 0 0 1-.488-.81 2.971 2.971 0 0 1-.171-1.026v-.205c0-.43.064-.813.191-1.148.126-.338.299-.625.517-.86.218-.233.466-.411.742-.531.277-.12.563-.181.86-.181.377 0 .703.065.976.195.277.13.503.313.679.547.176.231.306.505.391.82.084.313.127.655.127 1.026v.405H566.2v-.737h3.042v-.069a2.272 2.272 0 0 0-.146-.683 1.235 1.235 0 0 0-.391-.547c-.179-.143-.423-.215-.732-.215a1.234 1.234 0 0 0-1.011.513c-.124.17-.22.376-.288.62a3.118 3.118 0 0 0-.103.845v.205c0 .25.034.486.103.708.071.218.174.41.307.576.137.166.302.296.494.39.195.095.416.142.664.142.319 0 .589-.065.81-.195.222-.13.415-.304.581-.523l.547.435a2.549 2.549 0 0 1-.434.493 2.081 2.081 0 0 1-.65.381 2.515 2.515 0 0 1-.903.146zm4.014-4.254v4.156h-.904v-5.283h.855l.049 1.127zm-.215 1.314-.376-.015c.003-.361.057-.695.161-1 .104-.31.25-.578.439-.806a1.964 1.964 0 0 1 1.548-.718c.261 0 .495.036.703.107.209.069.386.18.532.332.15.153.264.352.342.596.078.241.117.536.117.884v3.462h-.908v-3.472c0-.277-.04-.498-.122-.664a.75.75 0 0 0-.356-.366 1.284 1.284 0 0 0-.576-.117c-.225 0-.43.047-.616.141-.182.095-.34.225-.473.39a1.973 1.973 0 0 0-.415 1.246zm7.05-2.441v.693h-2.856v-.693h2.856zm-1.889-1.285h.903v5.26c0 .178.028.313.083.405a.396.396 0 0 0 .215.18c.088.03.182.044.283.044.075 0 .153-.006.235-.02.084-.016.148-.029.19-.039l.005.738a2.137 2.137 0 0 1-.283.063 2.158 2.158 0 0 1-.415.034 1.41 1.41 0 0 1-.611-.131.986.986 0 0 1-.444-.44c-.107-.208-.161-.488-.161-.84v-5.254zM669.56 16.141v7.149h-.904v-6.02l-1.821.663v-.815l2.583-.977h.142zm3.574 6.075v.727c0 .296-.075.609-.225.938-.15.332-.36.608-.63.83l-.512-.357c.104-.143.192-.29.263-.44.072-.146.126-.299.161-.458a2.05 2.05 0 0 0 .059-.498v-.742h.884zm2.197-2.31-.723-.185.357-3.54h3.647v.834h-2.881l-.214 1.934c.13-.075.294-.145.493-.21.202-.065.433-.098.693-.098.329 0 .623.057.884.171.26.11.482.27.664.479.186.208.327.459.425.752.097.293.146.62.146.981 0 .342-.047.656-.141.943-.091.286-.23.537-.415.752-.186.211-.42.375-.704.493a2.55 2.55 0 0 1-.991.175 2.79 2.79 0 0 1-.815-.117 2.103 2.103 0 0 1-.684-.366 1.993 1.993 0 0 1-.488-.615 2.452 2.452 0 0 1-.234-.87h.859c.039.268.117.492.234.674.118.183.271.321.459.416.192.09.415.136.669.136.215 0 .406-.037.572-.112.166-.075.306-.182.419-.322.114-.14.201-.31.259-.508a2.24 2.24 0 0 0 .093-.67c0-.224-.031-.432-.093-.624a1.428 1.428 0 0 0-.278-.503 1.22 1.22 0 0 0-.444-.332 1.429 1.429 0 0 0-.606-.122c-.303 0-.532.04-.688.122a2.642 2.642 0 0 0-.474.332zm7.451-3.765v7.149h-.903v-6.02l-1.821.663v-.815l2.583-.977h.141zm3.799 3.765-.723-.185.357-3.54h3.647v.834h-2.881l-.214 1.934c.13-.075.294-.145.493-.21.202-.065.433-.098.693-.098.329 0 .623.057.884.171.26.11.482.27.664.479.186.208.327.459.425.752.097.293.146.62.146.981 0 .342-.047.656-.141.943-.091.286-.23.537-.415.752-.186.211-.42.375-.704.493a2.55 2.55 0 0 1-.991.175 2.79 2.79 0 0 1-.815-.117 2.103 2.103 0 0 1-.684-.366 1.993 1.993 0 0 1-.488-.615 2.452 2.452 0 0 1-.234-.87h.859c.039.268.117.492.234.674.118.183.271.321.459.416.192.09.415.136.669.136.215 0 .406-.037.572-.112.166-.075.306-.182.419-.322.114-.14.201-.31.259-.508a2.24 2.24 0 0 0 .093-.67c0-.224-.031-.432-.093-.624a1.428 1.428 0 0 0-.278-.503 1.22 1.22 0 0 0-.444-.332 1.429 1.429 0 0 0-.606-.122c-.303 0-.532.04-.688.122a2.642 2.642 0 0 0-.474.332zm4.595 2.905c0-.153.047-.281.141-.386.098-.107.238-.16.42-.16.183 0 .321.053.415.16a.542.542 0 0 1 .147.386c0 .15-.049.277-.147.381-.094.104-.232.156-.415.156-.182 0-.322-.052-.42-.156a.548.548 0 0 1-.141-.38zm6.987-3.642v1.084c0 .582-.052 1.074-.156 1.474-.104.4-.254.723-.449.967a1.719 1.719 0 0 1-.708.532 2.525 2.525 0 0 1-.928.162c-.274 0-.526-.035-.757-.103a1.801 1.801 0 0 1-.625-.327 1.986 1.986 0 0 1-.469-.596 3.225 3.225 0 0 1-.298-.889 6.437 6.437 0 0 1-.102-1.22v-1.084c0-.583.052-1.071.156-1.465.108-.394.259-.71.454-.947.196-.241.43-.414.703-.518.277-.104.586-.156.928-.156.277 0 .531.034.762.102.234.065.443.171.625.318.182.143.337.335.464.576.13.238.229.529.298.874.068.345.102.75.102 1.216zm-.908 1.23v-1.382c0-.319-.02-.599-.059-.84a2.63 2.63 0 0 0-.161-.625 1.236 1.236 0 0 0-.273-.42.97.97 0 0 0-.376-.234 1.352 1.352 0 0 0-.474-.078c-.215 0-.405.04-.571.122a1.028 1.028 0 0 0-.42.376 2.029 2.029 0 0 0-.254.679c-.059.28-.088.62-.088 1.02V20.4c0 .32.018.6.054.845.039.244.096.456.171.635.075.175.166.32.273.434.108.114.231.199.371.254.143.052.301.078.474.078.221 0 .415-.042.581-.127a1.05 1.05 0 0 0 .415-.395c.114-.183.199-.415.254-.698.055-.287.083-.629.083-1.026zm6.533-1.23v1.084c0 .582-.052 1.074-.156 1.474-.104.4-.254.723-.449.967a1.719 1.719 0 0 1-.708.532 2.525 2.525 0 0 1-.928.162c-.274 0-.526-.035-.757-.103a1.801 1.801 0 0 1-.625-.327 1.986 1.986 0 0 1-.469-.596 3.225 3.225 0 0 1-.298-.889 6.437 6.437 0 0 1-.102-1.22v-1.084c0-.583.052-1.071.156-1.465.108-.394.259-.71.454-.947.196-.241.43-.414.703-.518.277-.104.586-.156.928-.156.277 0 .531.034.762.102.234.065.443.171.625.318.182.143.337.335.464.576.13.238.229.529.298.874.068.345.102.75.102 1.216zm-.908 1.23v-1.382c0-.319-.02-.599-.059-.84a2.63 2.63 0 0 0-.161-.625 1.236 1.236 0 0 0-.273-.42.97.97 0 0 0-.376-.234 1.352 1.352 0 0 0-.474-.078c-.215 0-.405.04-.571.122a1.028 1.028 0 0 0-.42.376 2.029 2.029 0 0 0-.254.679c-.059.28-.088.62-.088 1.02V20.4c0 .32.018.6.054.845.039.244.096.456.171.635.075.175.166.32.273.434.108.114.231.199.371.254.143.052.301.078.474.078.221 0 .415-.042.581-.127a1.05 1.05 0 0 0 .415-.395c.114-.183.199-.415.254-.698.055-.287.083-.629.083-1.026zM725.893 16.18h.937v4.81c0 .534-.119.978-.356 1.333a2.23 2.23 0 0 1-.948.8c-.39.177-.815.264-1.274.264-.482 0-.918-.087-1.309-.263a2.137 2.137 0 0 1-.922-.801c-.225-.355-.337-.8-.337-1.333v-4.81h.932v4.81c0 .371.069.677.205.918.137.24.327.42.572.537.247.117.533.176.859.176.329 0 .615-.059.859-.176.248-.117.44-.296.577-.537.136-.24.205-.547.205-.918v-4.81zm6.206 5.313c0-.166-.026-.313-.078-.44a.84.84 0 0 0-.264-.351 2.065 2.065 0 0 0-.518-.298 7.22 7.22 0 0 0-.83-.288 7.667 7.667 0 0 1-.952-.347 3.34 3.34 0 0 1-.728-.444 1.757 1.757 0 0 1-.463-.571 1.62 1.62 0 0 1-.162-.738 1.729 1.729 0 0 1 .66-1.377c.215-.175.47-.312.766-.41.296-.097.627-.146.991-.146.534 0 .987.102 1.358.307.374.202.659.468.854.796.196.326.293.674.293 1.045h-.937c0-.267-.057-.503-.171-.708a1.174 1.174 0 0 0-.518-.488c-.231-.12-.524-.18-.879-.18-.335 0-.611.05-.83.15a1.1 1.1 0 0 0-.488.41c-.104.173-.156.37-.156.592 0 .15.031.286.093.41.065.12.164.232.298.337.136.104.309.2.517.288.212.088.464.172.757.254.404.114.752.24 1.045.38.293.14.534.298.722.474.193.173.334.37.425.591.095.218.142.465.142.742 0 .29-.059.552-.176.786a1.708 1.708 0 0 1-.503.6c-.218.167-.48.296-.786.387a3.64 3.64 0 0 1-1.016.131c-.328 0-.652-.045-.971-.136a2.902 2.902 0 0 1-.865-.41 2.16 2.16 0 0 1-.62-.674 1.869 1.869 0 0 1-.229-.938h.937c0 .244.048.454.142.63.094.173.223.316.386.43.166.114.353.198.561.254.212.052.432.078.659.078.329 0 .608-.046.835-.137.228-.091.401-.221.518-.39.12-.17.181-.37.181-.601zm4.072 1.797h-1.484l.009-.767h1.475c.508 0 .931-.106 1.269-.317.339-.215.593-.514.762-.899.173-.387.259-.84.259-1.357v-.435c0-.407-.049-.768-.147-1.084a2.18 2.18 0 0 0-.429-.805 1.815 1.815 0 0 0-.694-.503 2.382 2.382 0 0 0-.932-.171h-1.602v-.772h1.602c.465 0 .89.079 1.274.235.384.153.715.376.991.669.28.29.495.641.645 1.054.15.41.225.873.225 1.387v.425c0 .514-.075.978-.225 1.392a2.837 2.837 0 0 1-1.665 1.719c-.394.152-.838.229-1.333.229zm-.982-7.11v7.11h-.942v-7.11h.942zM817.054 19.169v1.084c0 .582-.052 1.074-.157 1.474-.104.4-.253.723-.449.967a1.706 1.706 0 0 1-.708.532 2.517 2.517 0 0 1-.928.162c-.273 0-.525-.035-.756-.103a1.792 1.792 0 0 1-.625-.327 1.97 1.97 0 0 1-.469-.596c-.13-.244-.23-.54-.298-.889a6.437 6.437 0 0 1-.102-1.22v-1.084c0-.583.052-1.071.156-1.465.107-.394.259-.71.454-.947.195-.241.43-.414.703-.518.277-.104.586-.156.928-.156.276 0 .53.034.761.102a1.714 1.714 0 0 1 1.089.894c.131.238.23.529.298.874.069.345.103.75.103 1.216zm-.908 1.23v-1.382c0-.319-.02-.599-.059-.84a2.678 2.678 0 0 0-.161-.625 1.238 1.238 0 0 0-.274-.42.956.956 0 0 0-.376-.234 1.346 1.346 0 0 0-.473-.078c-.215 0-.406.04-.572.122a1.02 1.02 0 0 0-.419.376 2.008 2.008 0 0 0-.254.679c-.059.28-.088.62-.088 1.02V20.4c0 .32.018.6.053.845.039.244.096.456.171.635.075.175.166.32.274.434.107.114.231.199.371.254.143.052.301.078.473.078.222 0 .416-.042.582-.127a1.05 1.05 0 0 0 .415-.395c.114-.183.198-.415.253-.698.056-.287.084-.629.084-1.026zm5.312-4.219-2.964 7.72h-.776l2.969-7.72h.771zm3.857-.039v7.149h-.903v-6.02l-1.821.663v-.815l2.583-.977h.141zM903.054 19.169v1.084c0 .582-.052 1.074-.157 1.474-.104.4-.253.723-.449.967a1.706 1.706 0 0 1-.708.532 2.517 2.517 0 0 1-.928.162c-.273 0-.525-.035-.756-.103a1.792 1.792 0 0 1-.625-.327 1.97 1.97 0 0 1-.469-.596c-.13-.244-.23-.54-.298-.889a6.437 6.437 0 0 1-.102-1.22v-1.084c0-.583.052-1.071.156-1.465.107-.394.259-.71.454-.947.195-.241.43-.414.703-.518.277-.104.586-.156.928-.156.276 0 .53.034.761.102a1.714 1.714 0 0 1 1.089.894c.131.238.23.529.298.874.069.345.103.75.103 1.216zm-.908 1.23v-1.382c0-.319-.02-.599-.059-.84a2.678 2.678 0 0 0-.161-.625 1.238 1.238 0 0 0-.274-.42.956.956 0 0 0-.376-.234 1.346 1.346 0 0 0-.473-.078c-.215 0-.406.04-.572.122a1.02 1.02 0 0 0-.419.376 2.008 2.008 0 0 0-.254.679c-.059.28-.088.62-.088 1.02V20.4c0 .32.018.6.053.845.039.244.096.456.171.635.075.175.166.32.274.434.107.114.231.199.371.254.143.052.301.078.473.078.222 0 .416-.042.582-.127a1.05 1.05 0 0 0 .415-.395c.114-.183.198-.415.253-.698.056-.287.084-.629.084-1.026zm2.182 2.412c0-.153.047-.281.142-.386.097-.107.237-.16.42-.16.182 0 .32.053.415.16a.545.545 0 0 1 .146.386c0 .15-.049.277-.146.381-.095.104-.233.156-.415.156-.183 0-.323-.052-.42-.156a.544.544 0 0 1-.142-.38zm6.987-3.642v1.084c0 .582-.052 1.074-.156 1.474-.104.4-.254.723-.449.967a1.706 1.706 0 0 1-.708.532 2.521 2.521 0 0 1-.928.162c-.273 0-.525-.035-.757-.103a1.801 1.801 0 0 1-.625-.327 1.984 1.984 0 0 1-.468-.596 3.16 3.16 0 0 1-.298-.889 6.35 6.35 0 0 1-.103-1.22v-1.084c0-.583.052-1.071.156-1.465.108-.394.259-.71.455-.947.195-.241.429-.414.703-.518.276-.104.586-.156.927-.156.277 0 .531.034.762.102a1.714 1.714 0 0 1 1.089.894c.13.238.23.529.298.874.068.345.102.75.102 1.216zm-.908 1.23v-1.382c0-.319-.019-.599-.058-.84a2.678 2.678 0 0 0-.161-.625 1.238 1.238 0 0 0-.274-.42.963.963 0 0 0-.376-.234 1.352 1.352 0 0 0-.474-.078c-.214 0-.405.04-.571.122a1.028 1.028 0 0 0-.42.376 2.05 2.05 0 0 0-.254.679 5.11 5.11 0 0 0-.088 1.02V20.4c0 .32.018.6.054.845.039.244.096.456.171.635.075.175.166.32.273.434.108.114.232.199.372.254.143.052.301.078.473.078.222 0 .415-.042.581-.127.166-.084.305-.216.415-.395.114-.183.199-.415.254-.698.056-.287.083-.629.083-1.026zm6.533-1.23v1.084c0 .582-.052 1.074-.156 1.474-.104.4-.254.723-.449.967a1.706 1.706 0 0 1-.708.532 2.521 2.521 0 0 1-.928.162c-.273 0-.525-.035-.757-.103a1.801 1.801 0 0 1-.625-.327 1.984 1.984 0 0 1-.468-.596 3.16 3.16 0 0 1-.298-.889 6.35 6.35 0 0 1-.103-1.22v-1.084c0-.583.052-1.071.156-1.465.108-.394.259-.71.455-.947.195-.241.429-.414.703-.518.276-.104.586-.156.927-.156.277 0 .531.034.762.102a1.714 1.714 0 0 1 1.089.894c.13.238.23.529.298.874.068.345.102.75.102 1.216zm-.908 1.23v-1.382c0-.319-.019-.599-.058-.84a2.627 2.627 0 0 0-.162-.625 1.222 1.222 0 0 0-.273-.42.963.963 0 0 0-.376-.234 1.352 1.352 0 0 0-.474-.078c-.214 0-.405.04-.571.122a1.028 1.028 0 0 0-.42.376 2.05 2.05 0 0 0-.254.679 5.11 5.11 0 0 0-.088 1.02V20.4c0 .32.018.6.054.845.039.244.096.456.171.635.075.175.166.32.273.434.108.114.232.199.372.254.143.052.301.078.473.078.222 0 .415-.042.581-.127.166-.084.305-.216.415-.395.114-.183.199-.415.254-.698.056-.287.083-.629.083-1.026z" opacity=".9"/></svg>