<svg width="934" height="41" viewBox="0 0 934 41" fill="none" xmlns="http://www.w3.org/2000/svg">
<rect y="0.289795" width="934" height="40" rx="12" fill="white"/>
<path d="M19.9998 14.2898C23.5944 14.2898 26.5851 16.8765 27.2124 20.2898C26.5858 23.7031 23.5944 26.2898 19.9998 26.2898C16.4051 26.2898 13.4144 23.7031 12.7871 20.2898C13.4138 16.8765 16.4051 14.2898 19.9998 14.2898ZM19.9998 24.9565C21.3594 24.9562 22.6787 24.4943 23.7417 23.6466C24.8047 22.7988 25.5484 21.6153 25.8511 20.2898C25.5473 18.9653 24.8031 17.7831 23.7402 16.9365C22.6773 16.0898 21.3586 15.6288 19.9998 15.6288C18.6409 15.6288 17.3222 16.0898 16.2594 16.9365C15.1965 17.7831 14.4523 18.9653 14.1484 20.2898C14.4512 21.6153 15.1949 22.7988 16.2579 23.6466C17.3209 24.4943 18.6401 24.9562 19.9998 24.9565ZM19.9998 23.2898C19.2041 23.2898 18.4411 22.9737 17.8785 22.4111C17.3158 21.8485 16.9998 21.0854 16.9998 20.2898C16.9998 19.4941 17.3158 18.7311 17.8785 18.1685C18.4411 17.6059 19.2041 17.2898 19.9998 17.2898C20.7954 17.2898 21.5585 17.6059 22.1211 18.1685C22.6837 18.7311 22.9998 19.4941 22.9998 20.2898C22.9998 21.0854 22.6837 21.8485 22.1211 22.4111C21.5585 22.9737 20.7954 23.2898 19.9998 23.2898ZM19.9998 21.9565C20.4418 21.9565 20.8657 21.7809 21.1783 21.4683C21.4908 21.1557 21.6664 20.7318 21.6664 20.2898C21.6664 19.8478 21.4908 19.4238 21.1783 19.1113C20.8657 18.7987 20.4418 18.6231 19.9998 18.6231C19.5577 18.6231 19.1338 18.7987 18.8213 19.1113C18.5087 19.4238 18.3331 19.8478 18.3331 20.2898C18.3331 20.7318 18.5087 21.1557 18.8213 21.4683C19.1338 21.7809 19.5577 21.9565 19.9998 21.9565Z" fill="#FD802B"/>
<g opacity="0.9">
<path d="M45.0537 19.1687V20.2527C45.0537 20.8354 45.0016 21.3269 44.8975 21.7273C44.7933 22.1277 44.6436 22.45 44.4482 22.6941C44.2529 22.9382 44.0169 23.1156 43.7402 23.2263C43.4668 23.3337 43.1576 23.3875 42.8125 23.3875C42.5391 23.3875 42.2868 23.3533 42.0557 23.2849C41.8245 23.2166 41.6162 23.1075 41.4307 22.9578C41.2484 22.8048 41.0921 22.6062 40.9619 22.3621C40.8317 22.1179 40.7324 21.8217 40.6641 21.4734C40.5957 21.1251 40.5615 20.7182 40.5615 20.2527V19.1687C40.5615 18.586 40.6136 18.0977 40.7178 17.7039C40.8252 17.31 40.9766 16.9942 41.1719 16.7566C41.3672 16.5157 41.6016 16.3432 41.875 16.239C42.1517 16.1348 42.4609 16.0828 42.8027 16.0828C43.0794 16.0828 43.3333 16.1169 43.5645 16.1853C43.7988 16.2504 44.0072 16.3562 44.1895 16.5027C44.3717 16.6459 44.5264 16.838 44.6533 17.0789C44.7835 17.3165 44.8828 17.6078 44.9512 17.9529C45.0195 18.2979 45.0537 18.7032 45.0537 19.1687ZM44.1455 20.3992V19.0173C44.1455 18.6983 44.126 18.4184 44.0869 18.1775C44.0511 17.9333 43.9974 17.725 43.9258 17.5525C43.8542 17.38 43.763 17.24 43.6523 17.1326C43.5449 17.0251 43.4196 16.947 43.2764 16.8982C43.1364 16.8461 42.9785 16.8201 42.8027 16.8201C42.5879 16.8201 42.3975 16.8608 42.2314 16.9421C42.0654 17.0203 41.9255 17.1456 41.8115 17.3181C41.7008 17.4906 41.6162 17.7169 41.5576 17.9968C41.499 18.2768 41.4697 18.6169 41.4697 19.0173V20.3992C41.4697 20.7182 41.4876 20.9998 41.5234 21.2439C41.5625 21.488 41.6195 21.6996 41.6943 21.8787C41.7692 22.0544 41.8604 22.1993 41.9678 22.3132C42.0752 22.4272 42.1989 22.5118 42.3389 22.5671C42.4821 22.6192 42.64 22.6453 42.8125 22.6453C43.0339 22.6453 43.2275 22.6029 43.3936 22.5183C43.5596 22.4337 43.6979 22.3018 43.8086 22.1228C43.9225 21.9405 44.0072 21.7078 44.0625 21.4246C44.1178 21.1381 44.1455 20.7963 44.1455 20.3992ZM47.1143 22.533H47.207C47.7279 22.533 48.151 22.4597 48.4766 22.3132C48.8021 22.1667 49.0527 21.9698 49.2285 21.7224C49.4043 21.475 49.5247 21.1967 49.5898 20.8875C49.6549 20.575 49.6875 20.2543 49.6875 19.9255V18.8367C49.6875 18.5144 49.6501 18.2279 49.5752 17.9773C49.5036 17.7266 49.4027 17.5167 49.2725 17.3474C49.1455 17.1781 49.0007 17.0496 48.8379 16.9617C48.6751 16.8738 48.5026 16.8298 48.3203 16.8298C48.112 16.8298 47.9248 16.8722 47.7588 16.9568C47.596 17.0382 47.4577 17.1537 47.3438 17.3035C47.2331 17.4532 47.1484 17.629 47.0898 17.8308C47.0312 18.0326 47.002 18.2524 47.002 18.49C47.002 18.7016 47.028 18.9067 47.0801 19.1052C47.1322 19.3038 47.2119 19.4828 47.3193 19.6423C47.4268 19.8018 47.5602 19.9288 47.7197 20.0232C47.8825 20.1143 48.0729 20.1599 48.291 20.1599C48.4928 20.1599 48.6816 20.1208 48.8574 20.0427C49.0365 19.9613 49.1943 19.8523 49.3311 19.7156C49.471 19.5756 49.5817 19.4177 49.6631 19.2419C49.7477 19.0662 49.7965 18.8822 49.8096 18.6902H50.2393C50.2393 18.9604 50.1855 19.2273 50.0781 19.491C49.974 19.7514 49.8275 19.989 49.6387 20.2039C49.4499 20.4187 49.2285 20.5912 48.9746 20.7214C48.7207 20.8484 48.444 20.9119 48.1445 20.9119C47.793 20.9119 47.4886 20.8435 47.2314 20.7068C46.9743 20.5701 46.7627 20.3878 46.5967 20.1599C46.4339 19.932 46.3118 19.6781 46.2305 19.3982C46.1523 19.115 46.1133 18.8285 46.1133 18.5388C46.1133 18.2003 46.1605 17.8829 46.2549 17.5867C46.3493 17.2904 46.4893 17.03 46.6748 16.8054C46.8604 16.5776 47.0898 16.4001 47.3633 16.2732C47.64 16.1462 47.959 16.0828 48.3203 16.0828C48.7272 16.0828 49.0739 16.1641 49.3604 16.3269C49.6468 16.4897 49.8796 16.7078 50.0586 16.9812C50.2409 17.2546 50.3743 17.5623 50.459 17.9041C50.5436 18.2458 50.5859 18.5974 50.5859 18.9587V19.2859C50.5859 19.6537 50.5615 20.0281 50.5127 20.4089C50.4671 20.7865 50.3776 21.1479 50.2441 21.4929C50.1139 21.838 49.9235 22.1472 49.6729 22.4207C49.4222 22.6908 49.0951 22.9057 48.6914 23.0652C48.291 23.2214 47.7962 23.2996 47.207 23.2996H47.1143V22.533ZM53.8184 19.8962V20.6384H51.4355V19.8962H53.8184ZM57.4707 16.8103L55.1172 23.2898H54.1553L56.8652 16.1804H57.4854L57.4707 16.8103ZM59.4434 23.2898L57.085 16.8103L57.0703 16.1804H57.6904L60.4102 23.2898H59.4434ZM59.3213 20.658V21.4294H55.3271V20.658H59.3213ZM62.1289 19.0222V25.321H61.2207V18.0066H62.0508L62.1289 19.0222ZM65.6885 20.6042V20.7068C65.6885 21.0909 65.6429 21.4473 65.5518 21.7761C65.4606 22.1016 65.3271 22.3848 65.1514 22.6257C64.9788 22.8666 64.7656 23.0538 64.5117 23.1873C64.2578 23.3207 63.9665 23.3875 63.6377 23.3875C63.3024 23.3875 63.0062 23.3321 62.749 23.2214C62.4919 23.1108 62.2738 22.9496 62.0947 22.738C61.9157 22.5264 61.7725 22.2725 61.665 21.9763C61.5609 21.6801 61.4893 21.3464 61.4502 20.9753V20.4285C61.4893 20.0378 61.5625 19.6879 61.6699 19.3787C61.7773 19.0694 61.9189 18.8057 62.0947 18.5876C62.2738 18.3663 62.4902 18.1986 62.7441 18.0847C62.998 17.9675 63.291 17.9089 63.623 17.9089C63.9551 17.9089 64.2497 17.974 64.5068 18.1042C64.764 18.2312 64.9805 18.4135 65.1562 18.6511C65.332 18.8888 65.4639 19.1736 65.5518 19.5056C65.6429 19.8344 65.6885 20.2006 65.6885 20.6042ZM64.7803 20.7068V20.6042C64.7803 20.3406 64.7526 20.0932 64.6973 19.8621C64.6419 19.6277 64.5557 19.4226 64.4385 19.2468C64.3245 19.0678 64.1781 18.9278 63.999 18.8269C63.82 18.7227 63.6068 18.6707 63.3594 18.6707C63.1315 18.6707 62.9329 18.7097 62.7637 18.7878C62.5977 18.866 62.4561 18.9718 62.3389 19.1052C62.2217 19.2354 62.1257 19.3852 62.0508 19.5544C61.9792 19.7205 61.9255 19.893 61.8896 20.072V21.3367C61.9548 21.5645 62.0459 21.7794 62.1631 21.9812C62.2803 22.1798 62.4365 22.3409 62.6318 22.4646C62.8271 22.585 63.0729 22.6453 63.3691 22.6453C63.6133 22.6453 63.8232 22.5948 63.999 22.4939C64.1781 22.3897 64.3245 22.2481 64.4385 22.0691C64.5557 21.8901 64.6419 21.685 64.6973 21.4539C64.7526 21.2195 64.7803 20.9705 64.7803 20.7068ZM67.7441 18.8367V23.2898H66.8408V18.0066H67.7197L67.7441 18.8367ZM69.3945 17.9773L69.3896 18.8171C69.3148 18.8009 69.2432 18.7911 69.1748 18.7878C69.1097 18.7813 69.0348 18.7781 68.9502 18.7781C68.7419 18.7781 68.5579 18.8106 68.3984 18.8757C68.2389 18.9408 68.1038 19.032 67.9932 19.1492C67.8825 19.2664 67.7946 19.4063 67.7295 19.5691C67.6676 19.7286 67.627 19.9044 67.6074 20.0964L67.3535 20.2429C67.3535 19.9239 67.3844 19.6244 67.4463 19.3445C67.5114 19.0645 67.6107 18.8171 67.7441 18.6023C67.8776 18.3842 68.0469 18.2149 68.252 18.0945C68.4603 17.9708 68.7077 17.9089 68.9941 17.9089C69.0592 17.9089 69.1341 17.9171 69.2188 17.9333C69.3034 17.9464 69.362 17.961 69.3945 17.9773ZM72.1094 19.8962V20.6384H69.7266V19.8962H72.1094ZM77.5537 22.5476V23.2898H72.9004V22.6404L75.2295 20.0476C75.516 19.7286 75.7373 19.4584 75.8936 19.2371C76.0531 19.0125 76.1637 18.8123 76.2256 18.6365C76.2907 18.4574 76.3232 18.2751 76.3232 18.0896C76.3232 17.8552 76.2744 17.6436 76.1768 17.4548C76.0824 17.2628 75.9424 17.1098 75.7568 16.9958C75.5713 16.8819 75.3467 16.825 75.083 16.825C74.7673 16.825 74.5036 16.8868 74.292 17.0105C74.0837 17.1309 73.9274 17.3002 73.8232 17.5183C73.7191 17.7364 73.667 17.9871 73.667 18.2703H72.7637C72.7637 17.8699 72.8516 17.5037 73.0273 17.1716C73.2031 16.8396 73.4635 16.5759 73.8086 16.3806C74.1536 16.182 74.5785 16.0828 75.083 16.0828C75.5322 16.0828 75.9163 16.1625 76.2354 16.322C76.5544 16.4783 76.7985 16.6996 76.9678 16.9861C77.1403 17.2693 77.2266 17.6013 77.2266 17.9822C77.2266 18.1905 77.1908 18.4021 77.1191 18.6169C77.0508 18.8285 76.9548 19.0401 76.8311 19.2517C76.7106 19.4633 76.569 19.6716 76.4062 19.8767C76.2467 20.0818 76.0758 20.2836 75.8936 20.4822L73.9893 22.5476H77.5537ZM83.1787 22.5476V23.2898H78.5254V22.6404L80.8545 20.0476C81.141 19.7286 81.3623 19.4584 81.5186 19.2371C81.6781 19.0125 81.7887 18.8123 81.8506 18.6365C81.9157 18.4574 81.9482 18.2751 81.9482 18.0896C81.9482 17.8552 81.8994 17.6436 81.8018 17.4548C81.7074 17.2628 81.5674 17.1098 81.3818 16.9958C81.1963 16.8819 80.9717 16.825 80.708 16.825C80.3923 16.825 80.1286 16.8868 79.917 17.0105C79.7087 17.1309 79.5524 17.3002 79.4482 17.5183C79.3441 17.7364 79.292 17.9871 79.292 18.2703H78.3887C78.3887 17.8699 78.4766 17.5037 78.6523 17.1716C78.8281 16.8396 79.0885 16.5759 79.4336 16.3806C79.7786 16.182 80.2035 16.0828 80.708 16.0828C81.1572 16.0828 81.5413 16.1625 81.8604 16.322C82.1794 16.4783 82.4235 16.6996 82.5928 16.9861C82.7653 17.2693 82.8516 17.6013 82.8516 17.9822C82.8516 18.1905 82.8158 18.4021 82.7441 18.6169C82.6758 18.8285 82.5798 19.0401 82.4561 19.2517C82.3356 19.4633 82.194 19.6716 82.0312 19.8767C81.8717 20.0818 81.7008 20.2836 81.5186 20.4822L79.6143 22.5476H83.1787ZM91.0889 19.1687V20.2527C91.0889 20.8354 91.0368 21.3269 90.9326 21.7273C90.8285 22.1277 90.6787 22.45 90.4834 22.6941C90.2881 22.9382 90.0521 23.1156 89.7754 23.2263C89.502 23.3337 89.1927 23.3875 88.8477 23.3875C88.5742 23.3875 88.3219 23.3533 88.0908 23.2849C87.8597 23.2166 87.6514 23.1075 87.4658 22.9578C87.2835 22.8048 87.1273 22.6062 86.9971 22.3621C86.8669 22.1179 86.7676 21.8217 86.6992 21.4734C86.6309 21.1251 86.5967 20.7182 86.5967 20.2527V19.1687C86.5967 18.586 86.6488 18.0977 86.7529 17.7039C86.8604 17.31 87.0117 16.9942 87.207 16.7566C87.4023 16.5157 87.6367 16.3432 87.9102 16.239C88.1868 16.1348 88.4961 16.0828 88.8379 16.0828C89.1146 16.0828 89.3685 16.1169 89.5996 16.1853C89.834 16.2504 90.0423 16.3562 90.2246 16.5027C90.4069 16.6459 90.5615 16.838 90.6885 17.0789C90.8187 17.3165 90.918 17.6078 90.9863 17.9529C91.0547 18.2979 91.0889 18.7032 91.0889 19.1687ZM90.1807 20.3992V19.0173C90.1807 18.6983 90.1611 18.4184 90.1221 18.1775C90.0863 17.9333 90.0326 17.725 89.9609 17.5525C89.8893 17.38 89.7982 17.24 89.6875 17.1326C89.5801 17.0251 89.4548 16.947 89.3115 16.8982C89.1715 16.8461 89.0137 16.8201 88.8379 16.8201C88.623 16.8201 88.4326 16.8608 88.2666 16.9421C88.1006 17.0203 87.9606 17.1456 87.8467 17.3181C87.736 17.4906 87.6514 17.7169 87.5928 17.9968C87.5342 18.2768 87.5049 18.6169 87.5049 19.0173V20.3992C87.5049 20.7182 87.5228 20.9998 87.5586 21.2439C87.5977 21.488 87.6546 21.6996 87.7295 21.8787C87.8044 22.0544 87.8955 22.1993 88.0029 22.3132C88.1104 22.4272 88.234 22.5118 88.374 22.5671C88.5173 22.6192 88.6751 22.6453 88.8477 22.6453C89.069 22.6453 89.2627 22.6029 89.4287 22.5183C89.5947 22.4337 89.7331 22.3018 89.8438 22.1228C89.9577 21.9405 90.0423 21.7078 90.0977 21.4246C90.153 21.1381 90.1807 20.7963 90.1807 20.3992ZM96.7334 21.366C96.7334 21.7989 96.6325 22.1667 96.4307 22.4695C96.2321 22.769 95.9619 22.9968 95.6201 23.1531C95.2816 23.3093 94.8991 23.3875 94.4727 23.3875C94.0462 23.3875 93.6621 23.3093 93.3203 23.1531C92.9785 22.9968 92.7083 22.769 92.5098 22.4695C92.3112 22.1667 92.2119 21.7989 92.2119 21.366C92.2119 21.0828 92.2656 20.824 92.373 20.5896C92.4837 20.352 92.6383 20.1453 92.8369 19.9695C93.0387 19.7937 93.2764 19.6586 93.5498 19.5642C93.8265 19.4666 94.1309 19.4177 94.4629 19.4177C94.8991 19.4177 95.2881 19.5024 95.6299 19.6716C95.9717 19.8376 96.2402 20.0671 96.4355 20.3601C96.6341 20.6531 96.7334 20.9884 96.7334 21.366ZM95.8252 21.3464C95.8252 21.0828 95.7682 20.85 95.6543 20.6482C95.5404 20.4431 95.3809 20.2836 95.1758 20.1697C94.9707 20.0557 94.7331 19.9988 94.4629 19.9988C94.1862 19.9988 93.9469 20.0557 93.7451 20.1697C93.5465 20.2836 93.3919 20.4431 93.2812 20.6482C93.1706 20.85 93.1152 21.0828 93.1152 21.3464C93.1152 21.6199 93.1689 21.8542 93.2764 22.0496C93.387 22.2416 93.5433 22.3897 93.7451 22.4939C93.9502 22.5948 94.1927 22.6453 94.4727 22.6453C94.7526 22.6453 94.9935 22.5948 95.1953 22.4939C95.3971 22.3897 95.5518 22.2416 95.6592 22.0496C95.7699 21.8542 95.8252 21.6199 95.8252 21.3464ZM96.5674 18.031C96.5674 18.3761 96.4762 18.6869 96.2939 18.9636C96.1117 19.2403 95.8626 19.4584 95.5469 19.6179C95.2311 19.7774 94.873 19.8572 94.4727 19.8572C94.0658 19.8572 93.7028 19.7774 93.3838 19.6179C93.068 19.4584 92.8206 19.2403 92.6416 18.9636C92.4626 18.6869 92.373 18.3761 92.373 18.031C92.373 17.6176 92.4626 17.266 92.6416 16.9763C92.8239 16.6866 93.0729 16.4653 93.3887 16.3123C93.7044 16.1593 94.0641 16.0828 94.4678 16.0828C94.8747 16.0828 95.236 16.1593 95.5518 16.3123C95.8675 16.4653 96.1149 16.6866 96.2939 16.9763C96.4762 17.266 96.5674 17.6176 96.5674 18.031ZM95.6641 18.0457C95.6641 17.808 95.6136 17.5981 95.5127 17.4158C95.4118 17.2335 95.2718 17.0903 95.0928 16.9861C94.9137 16.8787 94.7054 16.825 94.4678 16.825C94.2301 16.825 94.0218 16.8754 93.8428 16.9763C93.667 17.074 93.5286 17.2139 93.4277 17.3962C93.3301 17.5785 93.2812 17.795 93.2812 18.0457C93.2812 18.2898 93.3301 18.503 93.4277 18.6853C93.5286 18.8676 93.6686 19.0092 93.8477 19.1101C94.0267 19.211 94.235 19.2615 94.4727 19.2615C94.7103 19.2615 94.917 19.211 95.0928 19.1101C95.2718 19.0092 95.4118 18.8676 95.5127 18.6853C95.6136 18.503 95.6641 18.2898 95.6641 18.0457ZM97.9346 22.8113C97.9346 22.6583 97.9818 22.5297 98.0762 22.4255C98.1738 22.3181 98.3138 22.2644 98.4961 22.2644C98.6784 22.2644 98.8167 22.3181 98.9111 22.4255C99.0088 22.5297 99.0576 22.6583 99.0576 22.8113C99.0576 22.961 99.0088 23.088 98.9111 23.1921C98.8167 23.2963 98.6784 23.3484 98.4961 23.3484C98.3138 23.3484 98.1738 23.2963 98.0762 23.1921C97.9818 23.088 97.9346 22.961 97.9346 22.8113ZM97.9395 18.4998C97.9395 18.3468 97.9867 18.2182 98.0811 18.114C98.1787 18.0066 98.3187 17.9529 98.501 17.9529C98.6833 17.9529 98.8216 18.0066 98.916 18.114C99.0137 18.2182 99.0625 18.3468 99.0625 18.4998C99.0625 18.6495 99.0137 18.7764 98.916 18.8806C98.8216 18.9848 98.6833 19.0369 98.501 19.0369C98.3187 19.0369 98.1787 18.9848 98.0811 18.8806C97.9867 18.7764 97.9395 18.6495 97.9395 18.4998ZM105.103 20.8972V21.6394H99.9658V21.1072L103.149 16.1804H103.887L103.096 17.6062L100.991 20.8972H105.103ZM104.111 16.1804V23.2898H103.208V16.1804H104.111ZM110.728 20.8972V21.6394H105.591V21.1072L108.774 16.1804H109.512L108.721 17.6062L106.616 20.8972H110.728ZM109.736 16.1804V23.2898H108.833V16.1804H109.736Z" fill="#32375E"/>
</g>
<g opacity="0.9">
<path d="M192.733 19.906L192.011 19.7205L192.367 16.1804H196.015V17.0154H193.134L192.919 18.949C193.049 18.8741 193.214 18.8041 193.412 18.739C193.614 18.6739 193.845 18.6414 194.105 18.6414C194.434 18.6414 194.729 18.6983 194.989 18.8123C195.25 18.9229 195.471 19.0824 195.653 19.2908C195.839 19.4991 195.98 19.7498 196.078 20.0427C196.176 20.3357 196.225 20.6628 196.225 21.0242C196.225 21.366 196.177 21.6801 196.083 21.9666C195.992 22.253 195.854 22.5037 195.668 22.7185C195.482 22.9301 195.248 23.0945 194.965 23.2117C194.685 23.3289 194.354 23.3875 193.974 23.3875C193.687 23.3875 193.415 23.3484 193.158 23.2703C192.904 23.1889 192.676 23.0668 192.475 22.9041C192.276 22.738 192.113 22.533 191.986 22.2888C191.863 22.0414 191.785 21.7517 191.752 21.4197H192.611C192.65 21.6866 192.729 21.9112 192.846 22.0935C192.963 22.2758 193.116 22.4141 193.305 22.5085C193.497 22.5997 193.72 22.6453 193.974 22.6453C194.188 22.6453 194.379 22.6078 194.545 22.533C194.711 22.4581 194.851 22.3507 194.965 22.2107C195.079 22.0707 195.165 21.9014 195.224 21.7029C195.285 21.5043 195.316 21.2813 195.316 21.0339C195.316 20.8093 195.285 20.601 195.224 20.4089C195.162 20.2169 195.069 20.0492 194.945 19.906C194.825 19.7628 194.677 19.6521 194.501 19.574C194.325 19.4926 194.123 19.4519 193.896 19.4519C193.593 19.4519 193.363 19.4926 193.207 19.574C193.054 19.6554 192.896 19.766 192.733 19.906ZM198.534 19.2908H199.179C199.494 19.2908 199.755 19.2387 199.96 19.1345C200.168 19.0271 200.323 18.8822 200.424 18.7C200.528 18.5144 200.58 18.3061 200.58 18.075C200.58 17.8015 200.535 17.572 200.443 17.3865C200.352 17.2009 200.215 17.061 200.033 16.9666C199.851 16.8722 199.62 16.825 199.34 16.825C199.086 16.825 198.861 16.8754 198.666 16.9763C198.474 17.074 198.323 17.2139 198.212 17.3962C198.104 17.5785 198.051 17.7934 198.051 18.0408H197.147C197.147 17.6794 197.239 17.3507 197.421 17.0544C197.603 16.7582 197.859 16.5222 198.188 16.3464C198.52 16.1707 198.904 16.0828 199.34 16.0828C199.77 16.0828 200.146 16.1593 200.468 16.3123C200.79 16.462 201.041 16.6866 201.22 16.9861C201.399 17.2823 201.488 17.6518 201.488 18.0945C201.488 18.2735 201.446 18.4656 201.361 18.6707C201.28 18.8725 201.151 19.0613 200.976 19.2371C200.803 19.4128 200.578 19.5577 200.302 19.6716C200.025 19.7823 199.693 19.8376 199.306 19.8376H198.534V19.2908ZM198.534 20.033V19.491H199.306C199.758 19.491 200.132 19.5447 200.429 19.6521C200.725 19.7595 200.958 19.9028 201.127 20.0818C201.299 20.2608 201.42 20.4578 201.488 20.6726C201.56 20.8842 201.596 21.0958 201.596 21.3074C201.596 21.6394 201.539 21.934 201.425 22.1912C201.314 22.4483 201.156 22.6664 200.951 22.8455C200.749 23.0245 200.512 23.1596 200.238 23.2507C199.965 23.3419 199.667 23.3875 199.345 23.3875C199.035 23.3875 198.744 23.3435 198.471 23.2556C198.201 23.1677 197.961 23.0408 197.753 22.8748C197.545 22.7055 197.382 22.4988 197.265 22.2546C197.147 22.0072 197.089 21.7257 197.089 21.4099H197.992C197.992 21.6573 198.046 21.8738 198.153 22.0593C198.264 22.2449 198.42 22.3897 198.622 22.4939C198.827 22.5948 199.068 22.6453 199.345 22.6453C199.621 22.6453 199.859 22.5981 200.058 22.5037C200.259 22.406 200.414 22.2595 200.521 22.0642C200.632 21.8689 200.688 21.6231 200.688 21.3269C200.688 21.0307 200.626 20.7882 200.502 20.5994C200.378 20.4073 200.202 20.2657 199.975 20.1746C199.75 20.0802 199.485 20.033 199.179 20.033H198.534ZM203.739 22.533H203.832C204.353 22.533 204.776 22.4597 205.102 22.3132C205.427 22.1667 205.678 21.9698 205.854 21.7224C206.029 21.475 206.15 21.1967 206.215 20.8875C206.28 20.575 206.312 20.2543 206.312 19.9255V18.8367C206.312 18.5144 206.275 18.2279 206.2 17.9773C206.129 17.7266 206.028 17.5167 205.897 17.3474C205.771 17.1781 205.626 17.0496 205.463 16.9617C205.3 16.8738 205.128 16.8298 204.945 16.8298C204.737 16.8298 204.55 16.8722 204.384 16.9568C204.221 17.0382 204.083 17.1537 203.969 17.3035C203.858 17.4532 203.773 17.629 203.715 17.8308C203.656 18.0326 203.627 18.2524 203.627 18.49C203.627 18.7016 203.653 18.9067 203.705 19.1052C203.757 19.3038 203.837 19.4828 203.944 19.6423C204.052 19.8018 204.185 19.9288 204.345 20.0232C204.507 20.1143 204.698 20.1599 204.916 20.1599C205.118 20.1599 205.307 20.1208 205.482 20.0427C205.661 19.9613 205.819 19.8523 205.956 19.7156C206.096 19.5756 206.207 19.4177 206.288 19.2419C206.373 19.0662 206.422 18.8822 206.435 18.6902H206.864C206.864 18.9604 206.811 19.2273 206.703 19.491C206.599 19.7514 206.452 19.989 206.264 20.2039C206.075 20.4187 205.854 20.5912 205.6 20.7214C205.346 20.8484 205.069 20.9119 204.77 20.9119C204.418 20.9119 204.114 20.8435 203.856 20.7068C203.599 20.5701 203.388 20.3878 203.222 20.1599C203.059 19.932 202.937 19.6781 202.855 19.3982C202.777 19.115 202.738 18.8285 202.738 18.5388C202.738 18.2003 202.785 17.8829 202.88 17.5867C202.974 17.2904 203.114 17.03 203.3 16.8054C203.485 16.5776 203.715 16.4001 203.988 16.2732C204.265 16.1462 204.584 16.0828 204.945 16.0828C205.352 16.0828 205.699 16.1641 205.985 16.3269C206.272 16.4897 206.505 16.7078 206.684 16.9812C206.866 17.2546 206.999 17.5623 207.084 17.9041C207.169 18.2458 207.211 18.5974 207.211 18.9587V19.2859C207.211 19.6537 207.187 20.0281 207.138 20.4089C207.092 20.7865 207.003 21.1479 206.869 21.4929C206.739 21.838 206.549 22.1472 206.298 22.4207C206.047 22.6908 205.72 22.9057 205.316 23.0652C204.916 23.2214 204.421 23.2996 203.832 23.2996H203.739V22.533ZM209.784 19.2908H210.429C210.744 19.2908 211.005 19.2387 211.21 19.1345C211.418 19.0271 211.573 18.8822 211.674 18.7C211.778 18.5144 211.83 18.3061 211.83 18.075C211.83 17.8015 211.785 17.572 211.693 17.3865C211.602 17.2009 211.465 17.061 211.283 16.9666C211.101 16.8722 210.87 16.825 210.59 16.825C210.336 16.825 210.111 16.8754 209.916 16.9763C209.724 17.074 209.573 17.2139 209.462 17.3962C209.354 17.5785 209.301 17.7934 209.301 18.0408H208.397C208.397 17.6794 208.489 17.3507 208.671 17.0544C208.853 16.7582 209.109 16.5222 209.438 16.3464C209.77 16.1707 210.154 16.0828 210.59 16.0828C211.02 16.0828 211.396 16.1593 211.718 16.3123C212.04 16.462 212.291 16.6866 212.47 16.9861C212.649 17.2823 212.738 17.6518 212.738 18.0945C212.738 18.2735 212.696 18.4656 212.611 18.6707C212.53 18.8725 212.401 19.0613 212.226 19.2371C212.053 19.4128 211.828 19.5577 211.552 19.6716C211.275 19.7823 210.943 19.8376 210.556 19.8376H209.784V19.2908ZM209.784 20.033V19.491H210.556C211.008 19.491 211.382 19.5447 211.679 19.6521C211.975 19.7595 212.208 19.9028 212.377 20.0818C212.549 20.2608 212.67 20.4578 212.738 20.6726C212.81 20.8842 212.846 21.0958 212.846 21.3074C212.846 21.6394 212.789 21.934 212.675 22.1912C212.564 22.4483 212.406 22.6664 212.201 22.8455C211.999 23.0245 211.762 23.1596 211.488 23.2507C211.215 23.3419 210.917 23.3875 210.595 23.3875C210.285 23.3875 209.994 23.3435 209.721 23.2556C209.451 23.1677 209.211 23.0408 209.003 22.8748C208.795 22.7055 208.632 22.4988 208.515 22.2546C208.397 22.0072 208.339 21.7257 208.339 21.4099H209.242C209.242 21.6573 209.296 21.8738 209.403 22.0593C209.514 22.2449 209.67 22.3897 209.872 22.4939C210.077 22.5948 210.318 22.6453 210.595 22.6453C210.871 22.6453 211.109 22.5981 211.308 22.5037C211.509 22.406 211.664 22.2595 211.771 22.0642C211.882 21.8689 211.938 21.6231 211.938 21.3269C211.938 21.0307 211.876 20.7882 211.752 20.5994C211.628 20.4073 211.452 20.2657 211.225 20.1746C211 20.0802 210.735 20.033 210.429 20.033H209.784Z" fill="#3F7BDA"/>
</g>
<g opacity="0.9">
<path d="M230.825 16.1804H233.179C233.713 16.1804 234.163 16.2618 234.531 16.4246C234.902 16.5873 235.184 16.8282 235.376 17.1472C235.571 17.463 235.669 17.852 235.669 18.3142C235.669 18.6397 235.602 18.9376 235.469 19.2078C235.339 19.4747 235.15 19.7026 234.902 19.8914C234.658 20.0769 234.365 20.2153 234.023 20.3064L233.76 20.4089H231.548L231.538 19.6423H233.208C233.547 19.6423 233.828 19.5837 234.053 19.4666C234.277 19.3461 234.447 19.185 234.561 18.9832C234.674 18.7813 234.731 18.5583 234.731 18.3142C234.731 18.0408 234.678 17.8015 234.57 17.5964C234.463 17.3914 234.294 17.2335 234.062 17.1228C233.835 17.0089 233.54 16.9519 233.179 16.9519H231.768V23.2898H230.825V16.1804ZM234.98 23.2898L233.252 20.0671L234.233 20.0623L235.986 23.2312V23.2898H234.98ZM241.504 22.5232V23.2898H237.739V22.5232H241.504ZM237.93 16.1804V23.2898H236.987V16.1804H237.93ZM241.006 19.2371V20.0037H237.739V19.2371H241.006ZM241.455 16.1804V16.9519H237.739V16.1804H241.455ZM246.963 21.0291H247.9C247.852 21.4783 247.723 21.8803 247.515 22.2351C247.306 22.5899 247.012 22.8715 246.631 23.0798C246.25 23.2849 245.775 23.3875 245.205 23.3875C244.788 23.3875 244.409 23.3093 244.067 23.1531C243.729 22.9968 243.438 22.7755 243.193 22.489C242.949 22.1993 242.76 21.8526 242.627 21.449C242.497 21.0421 242.432 20.5896 242.432 20.0916V19.3835C242.432 18.8855 242.497 18.4347 242.627 18.031C242.76 17.6241 242.951 17.2758 243.198 16.9861C243.449 16.6964 243.75 16.4734 244.102 16.3171C244.453 16.1609 244.849 16.0828 245.288 16.0828C245.825 16.0828 246.279 16.1837 246.65 16.3855C247.021 16.5873 247.31 16.8673 247.515 17.2253C247.723 17.5802 247.852 17.9919 247.9 18.4607H246.963C246.917 18.1287 246.833 17.8438 246.709 17.6062C246.585 17.3653 246.41 17.1798 246.182 17.0496C245.954 16.9194 245.656 16.8542 245.288 16.8542C244.972 16.8542 244.694 16.9145 244.453 17.0349C244.215 17.1554 244.015 17.3263 243.853 17.5476C243.693 17.769 243.573 18.0343 243.491 18.3435C243.41 18.6528 243.369 18.9962 243.369 19.3738V20.0916C243.369 20.4399 243.405 20.767 243.477 21.073C243.551 21.379 243.664 21.6475 243.813 21.8787C243.963 22.1098 244.154 22.2921 244.385 22.4255C244.616 22.5557 244.889 22.6208 245.205 22.6208C245.605 22.6208 245.924 22.5574 246.162 22.4304C246.4 22.3035 246.579 22.1212 246.699 21.8835C246.823 21.6459 246.911 21.3611 246.963 21.0291ZM253.252 16.1804H254.189V20.99C254.189 21.5238 254.071 21.9682 253.833 22.323C253.595 22.6778 253.28 22.9447 252.886 23.1238C252.495 23.2996 252.07 23.3875 251.611 23.3875C251.13 23.3875 250.693 23.2996 250.303 23.1238C249.915 22.9447 249.608 22.6778 249.38 22.323C249.155 21.9682 249.043 21.5238 249.043 20.99V16.1804H249.976V20.99C249.976 21.3611 250.044 21.6671 250.181 21.908C250.317 22.1488 250.508 22.3279 250.752 22.4451C250.999 22.5623 251.286 22.6208 251.611 22.6208C251.94 22.6208 252.227 22.5623 252.471 22.4451C252.718 22.3279 252.91 22.1488 253.047 21.908C253.184 21.6671 253.252 21.3611 253.252 20.99V16.1804ZM261.138 16.1804V23.2898H260.19L256.611 17.8064V23.2898H255.669V16.1804H256.611L260.205 21.6785V16.1804H261.138ZM266.597 21.4929C266.597 21.3269 266.571 21.1804 266.519 21.0535C266.47 20.9233 266.382 20.8061 266.255 20.7019C266.131 20.5977 265.959 20.4985 265.737 20.4041C265.519 20.3097 265.243 20.2136 264.907 20.116C264.556 20.0118 264.238 19.8962 263.955 19.7693C263.672 19.6391 263.429 19.491 263.228 19.325C263.026 19.1589 262.871 18.9685 262.764 18.7537C262.656 18.5388 262.603 18.2931 262.603 18.0164C262.603 17.7397 262.66 17.4841 262.773 17.2498C262.887 17.0154 263.05 16.8119 263.262 16.6394C263.477 16.4636 263.732 16.3269 264.028 16.2292C264.325 16.1316 264.655 16.0828 265.02 16.0828C265.553 16.0828 266.006 16.1853 266.377 16.3904C266.751 16.5922 267.036 16.8575 267.231 17.1863C267.427 17.5118 267.524 17.8601 267.524 18.2312H266.587C266.587 17.9643 266.53 17.7283 266.416 17.5232C266.302 17.3149 266.13 17.1521 265.898 17.0349C265.667 16.9145 265.374 16.8542 265.02 16.8542C264.684 16.8542 264.408 16.9047 264.189 17.0056C263.971 17.1065 263.809 17.2432 263.701 17.4158C263.597 17.5883 263.545 17.7852 263.545 18.0066C263.545 18.1563 263.576 18.2931 263.638 18.4167C263.703 18.5372 263.802 18.6495 263.936 18.7537C264.072 18.8578 264.245 18.9539 264.453 19.0417C264.665 19.1296 264.917 19.2143 265.21 19.2957C265.614 19.4096 265.962 19.5365 266.255 19.6765C266.548 19.8165 266.789 19.9744 266.978 20.1501C267.17 20.3227 267.311 20.5196 267.402 20.741C267.497 20.9591 267.544 21.2065 267.544 21.4832C267.544 21.7729 267.485 22.0349 267.368 22.2693C267.251 22.5037 267.083 22.7039 266.865 22.8699C266.647 23.0359 266.385 23.1645 266.079 23.2556C265.776 23.3435 265.438 23.3875 265.063 23.3875C264.735 23.3875 264.411 23.3419 264.092 23.2507C263.776 23.1596 263.488 23.0229 263.228 22.8406C262.97 22.6583 262.764 22.4337 262.607 22.1667C262.454 21.8966 262.378 21.5841 262.378 21.2292H263.315C263.315 21.4734 263.363 21.6833 263.457 21.8591C263.551 22.0317 263.68 22.1749 263.843 22.2888C264.009 22.4028 264.196 22.4874 264.404 22.5427C264.616 22.5948 264.836 22.6208 265.063 22.6208C265.392 22.6208 265.671 22.5753 265.898 22.4841C266.126 22.393 266.299 22.2628 266.416 22.0935C266.536 21.9242 266.597 21.724 266.597 21.4929ZM270.488 19.8962V20.6384H268.105V19.8962H270.488ZM275.757 21.366C275.757 21.7989 275.656 22.1667 275.454 22.4695C275.256 22.769 274.985 22.9968 274.644 23.1531C274.305 23.3093 273.923 23.3875 273.496 23.3875C273.07 23.3875 272.686 23.3093 272.344 23.1531C272.002 22.9968 271.732 22.769 271.533 22.4695C271.335 22.1667 271.235 21.7989 271.235 21.366C271.235 21.0828 271.289 20.824 271.396 20.5896C271.507 20.352 271.662 20.1453 271.86 19.9695C272.062 19.7937 272.3 19.6586 272.573 19.5642C272.85 19.4666 273.154 19.4177 273.486 19.4177C273.923 19.4177 274.312 19.5024 274.653 19.6716C274.995 19.8376 275.264 20.0671 275.459 20.3601C275.658 20.6531 275.757 20.9884 275.757 21.366ZM274.849 21.3464C274.849 21.0828 274.792 20.85 274.678 20.6482C274.564 20.4431 274.404 20.2836 274.199 20.1697C273.994 20.0557 273.757 19.9988 273.486 19.9988C273.21 19.9988 272.97 20.0557 272.769 20.1697C272.57 20.2836 272.415 20.4431 272.305 20.6482C272.194 20.85 272.139 21.0828 272.139 21.3464C272.139 21.6199 272.192 21.8542 272.3 22.0496C272.41 22.2416 272.567 22.3897 272.769 22.4939C272.974 22.5948 273.216 22.6453 273.496 22.6453C273.776 22.6453 274.017 22.5948 274.219 22.4939C274.421 22.3897 274.575 22.2416 274.683 22.0496C274.793 21.8542 274.849 21.6199 274.849 21.3464ZM275.591 18.031C275.591 18.3761 275.5 18.6869 275.317 18.9636C275.135 19.2403 274.886 19.4584 274.57 19.6179C274.255 19.7774 273.896 19.8572 273.496 19.8572C273.089 19.8572 272.726 19.7774 272.407 19.6179C272.091 19.4584 271.844 19.2403 271.665 18.9636C271.486 18.6869 271.396 18.3761 271.396 18.031C271.396 17.6176 271.486 17.266 271.665 16.9763C271.847 16.6866 272.096 16.4653 272.412 16.3123C272.728 16.1593 273.088 16.0828 273.491 16.0828C273.898 16.0828 274.259 16.1593 274.575 16.3123C274.891 16.4653 275.138 16.6866 275.317 16.9763C275.5 17.266 275.591 17.6176 275.591 18.031ZM274.688 18.0457C274.688 17.808 274.637 17.5981 274.536 17.4158C274.435 17.2335 274.295 17.0903 274.116 16.9861C273.937 16.8787 273.729 16.825 273.491 16.825C273.254 16.825 273.045 16.8754 272.866 16.9763C272.69 17.074 272.552 17.2139 272.451 17.3962C272.354 17.5785 272.305 17.795 272.305 18.0457C272.305 18.2898 272.354 18.503 272.451 18.6853C272.552 18.8676 272.692 19.0092 272.871 19.1101C273.05 19.211 273.258 19.2615 273.496 19.2615C273.734 19.2615 273.94 19.211 274.116 19.1101C274.295 19.0092 274.435 18.8676 274.536 18.6853C274.637 18.503 274.688 18.2898 274.688 18.0457ZM279.868 16.1414V23.2898H278.965V17.2693L277.144 17.9333V17.1179L279.727 16.1414H279.868Z" fill="#32375E"/>
</g>
<path d="M327 14.2898C327 10.9761 329.686 8.28979 333 8.28979H345C348.314 8.28979 351 10.9761 351 14.2898V26.2898C351 29.6035 348.314 32.2898 345 32.2898H333C329.686 32.2898 327 29.6035 327 26.2898V14.2898Z" fill="#F0F5F9"/>
<path d="M335.719 22.7898H334.531L334.539 22.1765H335.719C336.125 22.1765 336.464 22.0919 336.734 21.9226C337.005 21.7507 337.208 21.5111 337.344 21.2039C337.482 20.894 337.551 20.532 337.551 20.1179V19.7703C337.551 19.4447 337.512 19.1557 337.434 18.9031C337.355 18.6479 337.241 18.433 337.09 18.2585C336.939 18.0815 336.754 17.9473 336.535 17.8562C336.319 17.7651 336.07 17.7195 335.789 17.7195H334.508V17.1023H335.789C336.161 17.1023 336.501 17.1648 336.809 17.2898C337.116 17.4122 337.38 17.5906 337.602 17.825C337.826 18.0567 337.997 18.338 338.117 18.6687C338.237 18.9968 338.297 19.3666 338.297 19.7781V20.1179C338.297 20.5294 338.237 20.9005 338.117 21.2312C337.997 21.5593 337.824 21.8393 337.598 22.071C337.374 22.3028 337.103 22.4812 336.785 22.6062C336.47 22.7286 336.115 22.7898 335.719 22.7898ZM334.934 17.1023V22.7898H334.18V17.1023H334.934ZM343.145 19.5476V20.1609H340.066V19.5476H343.145ZM340.184 17.1023V22.7898H339.43V17.1023H340.184ZM343.801 17.1023V22.7898H343.051V17.1023H343.801Z" fill="#32375E"/>
<path d="M362.457 16.8103L360.104 23.2898H359.142L361.852 16.1804H362.472L362.457 16.8103ZM364.43 23.2898L362.071 16.8103L362.057 16.1804H362.677L365.396 23.2898H364.43ZM364.308 20.658V21.4294H360.313V20.658H364.308ZM367.193 15.7898V23.2898H366.285V15.7898H367.193ZM369.991 23.2898H369.088V17.45C369.088 17.0691 369.156 16.7485 369.293 16.488C369.433 16.2244 369.633 16.0258 369.894 15.8923C370.154 15.7556 370.463 15.6873 370.821 15.6873C370.925 15.6873 371.03 15.6938 371.134 15.7068C371.241 15.7198 371.345 15.7393 371.446 15.7654L371.397 16.5027C371.329 16.4864 371.251 16.475 371.163 16.4685C371.078 16.462 370.994 16.4587 370.909 16.4587C370.717 16.4587 370.551 16.4978 370.411 16.5759C370.274 16.6508 370.17 16.7615 370.099 16.908C370.027 17.0544 369.991 17.2351 369.991 17.45V23.2898ZM371.114 18.0066V18.7H368.253V18.0066H371.114ZM373.023 18.8367V23.2898H372.12V18.0066H372.999L373.023 18.8367ZM374.674 17.9773L374.669 18.8171C374.594 18.8009 374.522 18.7911 374.454 18.7878C374.389 18.7813 374.314 18.7781 374.229 18.7781C374.021 18.7781 373.837 18.8106 373.678 18.8757C373.518 18.9408 373.383 19.032 373.272 19.1492C373.162 19.2664 373.074 19.4063 373.009 19.5691C372.947 19.7286 372.906 19.9044 372.887 20.0964L372.633 20.2429C372.633 19.9239 372.664 19.6244 372.726 19.3445C372.791 19.0645 372.89 18.8171 373.023 18.6023C373.157 18.3842 373.326 18.2149 373.531 18.0945C373.74 17.9708 373.987 17.9089 374.273 17.9089C374.339 17.9089 374.413 17.9171 374.498 17.9333C374.583 17.9464 374.641 17.961 374.674 17.9773ZM377.604 23.3875C377.236 23.3875 376.902 23.3256 376.603 23.2019C376.306 23.075 376.051 22.8975 375.836 22.6697C375.624 22.4418 375.462 22.1716 375.348 21.8591C375.234 21.5466 375.177 21.2048 375.177 20.8337V20.6287C375.177 20.199 375.24 19.8165 375.367 19.4812C375.494 19.1427 375.667 18.8562 375.885 18.6218C376.103 18.3875 376.35 18.21 376.627 18.0896C376.904 17.9692 377.19 17.9089 377.486 17.9089C377.864 17.9089 378.189 17.974 378.463 18.1042C378.74 18.2345 378.966 18.4167 379.142 18.6511C379.317 18.8822 379.448 19.1557 379.532 19.4714C379.617 19.7839 379.659 20.1257 379.659 20.4968V20.9021H375.714V20.1648H378.756V20.0964C378.743 19.8621 378.694 19.6342 378.609 19.4128C378.528 19.1915 378.398 19.0092 378.219 18.866C378.04 18.7227 377.796 18.6511 377.486 18.6511C377.281 18.6511 377.092 18.6951 376.92 18.783C376.747 18.8676 376.599 18.9945 376.476 19.1638C376.352 19.3331 376.256 19.5398 376.188 19.7839C376.119 20.0281 376.085 20.3097 376.085 20.6287V20.8337C376.085 21.0844 376.119 21.3204 376.188 21.5417C376.259 21.7598 376.362 21.9519 376.495 22.1179C376.632 22.2839 376.796 22.4141 376.988 22.5085C377.184 22.6029 377.405 22.6501 377.652 22.6501C377.971 22.6501 378.242 22.585 378.463 22.4548C378.684 22.3246 378.878 22.1505 379.044 21.9324L379.591 22.3669C379.477 22.5395 379.332 22.7039 379.156 22.8601C378.98 23.0164 378.764 23.1433 378.507 23.241C378.253 23.3386 377.952 23.3875 377.604 23.3875ZM384.044 22.2644V15.7898H384.952V23.2898H384.122L384.044 22.2644ZM380.489 20.7068V20.6042C380.489 20.2006 380.538 19.8344 380.636 19.5056C380.737 19.1736 380.878 18.8888 381.061 18.6511C381.246 18.4135 381.466 18.2312 381.72 18.1042C381.977 17.974 382.263 17.9089 382.579 17.9089C382.911 17.9089 383.201 17.9675 383.448 18.0847C383.699 18.1986 383.91 18.3663 384.083 18.5876C384.259 18.8057 384.397 19.0694 384.498 19.3787C384.599 19.6879 384.669 20.0378 384.708 20.4285V20.8777C384.672 21.2651 384.602 21.6134 384.498 21.9226C384.397 22.2319 384.259 22.4955 384.083 22.7136C383.91 22.9317 383.699 23.0994 383.448 23.2166C383.198 23.3305 382.905 23.3875 382.569 23.3875C382.26 23.3875 381.977 23.3207 381.72 23.1873C381.466 23.0538 381.246 22.8666 381.061 22.6257C380.878 22.3848 380.737 22.1016 380.636 21.7761C380.538 21.4473 380.489 21.0909 380.489 20.7068ZM381.397 20.6042V20.7068C381.397 20.9705 381.424 21.2179 381.476 21.449C381.531 21.6801 381.616 21.8835 381.729 22.0593C381.843 22.2351 381.988 22.3735 382.164 22.4744C382.34 22.572 382.55 22.6208 382.794 22.6208C383.093 22.6208 383.339 22.5574 383.531 22.4304C383.727 22.3035 383.883 22.1358 384 21.9275C384.117 21.7192 384.208 21.4929 384.273 21.2488V20.072C384.234 19.893 384.177 19.7205 384.103 19.5544C384.031 19.3852 383.937 19.2354 383.819 19.1052C383.705 18.9718 383.564 18.866 383.395 18.7878C383.229 18.7097 383.032 18.6707 382.804 18.6707C382.556 18.6707 382.343 18.7227 382.164 18.8269C381.988 18.9278 381.843 19.0678 381.729 19.2468C381.616 19.4226 381.531 19.6277 381.476 19.8621C381.424 20.0932 381.397 20.3406 381.397 20.6042ZM391.598 20.5017H389.698V19.7351H391.598C391.965 19.7351 392.263 19.6765 392.491 19.5593C392.719 19.4421 392.885 19.2794 392.989 19.071C393.097 18.8627 393.15 18.6251 393.15 18.3582C393.15 18.114 393.097 17.8845 392.989 17.6697C392.885 17.4548 392.719 17.2823 392.491 17.1521C392.263 17.0186 391.965 16.9519 391.598 16.9519H389.918V23.2898H388.976V16.1804H391.598C392.135 16.1804 392.589 16.2732 392.96 16.4587C393.331 16.6443 393.613 16.9014 393.805 17.2302C393.997 17.5557 394.093 17.9285 394.093 18.3484C394.093 18.8041 393.997 19.1931 393.805 19.5154C393.613 19.8376 393.331 20.0834 392.96 20.2527C392.589 20.4187 392.135 20.5017 391.598 20.5017ZM398.204 22.3865V19.6667C398.204 19.4584 398.162 19.2778 398.077 19.1248C397.996 18.9685 397.872 18.8481 397.706 18.7634C397.54 18.6788 397.335 18.6365 397.091 18.6365C396.863 18.6365 396.663 18.6755 396.49 18.7537C396.321 18.8318 396.188 18.9343 396.09 19.0613C395.995 19.1882 395.948 19.325 395.948 19.4714H395.045C395.045 19.2826 395.094 19.0955 395.191 18.9099C395.289 18.7244 395.429 18.5567 395.611 18.407C395.797 18.254 396.018 18.1335 396.275 18.0457C396.536 17.9545 396.826 17.9089 397.145 17.9089C397.529 17.9089 397.867 17.974 398.16 18.1042C398.456 18.2345 398.688 18.4314 398.854 18.6951C399.023 18.9555 399.107 19.2826 399.107 19.6765V22.1375C399.107 22.3132 399.122 22.5004 399.151 22.699C399.184 22.8975 399.231 23.0684 399.293 23.2117V23.2898H398.351C398.305 23.1856 398.269 23.0473 398.243 22.8748C398.217 22.699 398.204 22.5362 398.204 22.3865ZM398.36 20.0867L398.37 20.7214H397.457C397.2 20.7214 396.97 20.7426 396.769 20.7849C396.567 20.824 396.397 20.8842 396.261 20.9656C396.124 21.047 396.02 21.1495 395.948 21.2732C395.877 21.3936 395.841 21.5352 395.841 21.698C395.841 21.864 395.878 22.0154 395.953 22.1521C396.028 22.2888 396.14 22.3979 396.29 22.4792C396.443 22.5574 396.63 22.5964 396.852 22.5964C397.128 22.5964 397.372 22.5378 397.584 22.4207C397.796 22.3035 397.963 22.1602 398.087 21.991C398.214 21.8217 398.282 21.6573 398.292 21.4978L398.678 21.9324C398.655 22.0691 398.593 22.2205 398.492 22.3865C398.391 22.5525 398.256 22.712 398.087 22.865C397.921 23.0147 397.722 23.1401 397.491 23.241C397.263 23.3386 397.006 23.3875 396.72 23.3875C396.362 23.3875 396.048 23.3175 395.777 23.1775C395.51 23.0375 395.302 22.8503 395.152 22.616C395.006 22.3783 394.933 22.113 394.933 21.8201C394.933 21.5369 394.988 21.2878 395.099 21.073C395.209 20.8549 395.369 20.6742 395.577 20.531C395.785 20.3845 396.036 20.2738 396.329 20.199C396.622 20.1241 396.949 20.0867 397.311 20.0867H398.36ZM401.51 15.7898V23.2898H400.602V15.7898H401.51ZM403.858 19.0564V23.2898H402.95V18.0066H403.81L403.858 19.0564ZM403.673 20.448L403.253 20.4333C403.256 20.072 403.303 19.7384 403.395 19.4324C403.486 19.1231 403.621 18.8546 403.8 18.6267C403.979 18.3988 404.202 18.2231 404.469 18.0994C404.736 17.9724 405.045 17.9089 405.396 17.9089C405.644 17.9089 405.872 17.9447 406.08 18.0164C406.288 18.0847 406.469 18.1938 406.622 18.3435C406.775 18.4932 406.894 18.6853 406.979 18.9197C407.063 19.1541 407.105 19.4373 407.105 19.7693V23.2898H406.202V19.8132C406.202 19.5365 406.155 19.3152 406.061 19.1492C405.969 18.9832 405.839 18.8627 405.67 18.7878C405.501 18.7097 405.302 18.6707 405.074 18.6707C404.807 18.6707 404.584 18.7179 404.405 18.8123C404.226 18.9067 404.083 19.0369 403.976 19.2029C403.868 19.3689 403.79 19.5593 403.741 19.7742C403.696 19.9858 403.673 20.2104 403.673 20.448ZM407.096 19.95L406.49 20.1355C406.493 19.8458 406.541 19.5675 406.632 19.3005C406.726 19.0336 406.861 18.796 407.037 18.5876C407.216 18.3793 407.436 18.2149 407.696 18.0945C407.957 17.9708 408.255 17.9089 408.59 17.9089C408.873 17.9089 409.124 17.9464 409.342 18.0212C409.563 18.0961 409.749 18.2117 409.898 18.3679C410.051 18.5209 410.167 18.7179 410.245 18.9587C410.323 19.1996 410.362 19.4861 410.362 19.8181V23.2898H409.454V19.8083C409.454 19.5121 409.407 19.2826 409.312 19.1199C409.221 18.9539 409.091 18.8383 408.922 18.7732C408.756 18.7048 408.557 18.6707 408.326 18.6707C408.128 18.6707 407.952 18.7048 407.799 18.7732C407.646 18.8416 407.517 18.936 407.413 19.0564C407.309 19.1736 407.229 19.3087 407.174 19.4617C407.122 19.6147 407.096 19.7774 407.096 19.95ZM413.922 23.3875C413.554 23.3875 413.22 23.3256 412.921 23.2019C412.625 23.075 412.369 22.8975 412.154 22.6697C411.943 22.4418 411.78 22.1716 411.666 21.8591C411.552 21.5466 411.495 21.2048 411.495 20.8337V20.6287C411.495 20.199 411.559 19.8165 411.686 19.4812C411.812 19.1427 411.985 18.8562 412.203 18.6218C412.421 18.3875 412.669 18.21 412.945 18.0896C413.222 17.9692 413.508 17.9089 413.805 17.9089C414.182 17.9089 414.508 17.974 414.781 18.1042C415.058 18.2345 415.284 18.4167 415.46 18.6511C415.636 18.8822 415.766 19.1557 415.851 19.4714C415.935 19.7839 415.978 20.1257 415.978 20.4968V20.9021H412.032V20.1648H415.074V20.0964C415.061 19.8621 415.012 19.6342 414.928 19.4128C414.846 19.1915 414.716 19.0092 414.537 18.866C414.358 18.7227 414.114 18.6511 413.805 18.6511C413.6 18.6511 413.411 18.6951 413.238 18.783C413.066 18.8676 412.918 18.9945 412.794 19.1638C412.67 19.3331 412.574 19.5398 412.506 19.7839C412.438 20.0281 412.403 20.3097 412.403 20.6287V20.8337C412.403 21.0844 412.438 21.3204 412.506 21.5417C412.577 21.7598 412.68 21.9519 412.813 22.1179C412.95 22.2839 413.115 22.4141 413.307 22.5085C413.502 22.6029 413.723 22.6501 413.971 22.6501C414.29 22.6501 414.56 22.585 414.781 22.4548C415.003 22.3246 415.196 22.1505 415.362 21.9324L415.909 22.3669C415.795 22.5395 415.65 22.7039 415.475 22.8601C415.299 23.0164 415.082 23.1433 414.825 23.241C414.571 23.3386 414.27 23.3875 413.922 23.3875ZM417.936 18.8367V23.2898H417.032V18.0066H417.911L417.936 18.8367ZM419.586 17.9773L419.581 18.8171C419.506 18.8009 419.435 18.7911 419.366 18.7878C419.301 18.7813 419.226 18.7781 419.142 18.7781C418.933 18.7781 418.749 18.8106 418.59 18.8757C418.43 18.9408 418.295 19.032 418.185 19.1492C418.074 19.2664 417.986 19.4063 417.921 19.5691C417.859 19.7286 417.818 19.9044 417.799 20.0964L417.545 20.2429C417.545 19.9239 417.576 19.6244 417.638 19.3445C417.703 19.0645 417.802 18.8171 417.936 18.6023C418.069 18.3842 418.238 18.2149 418.443 18.0945C418.652 17.9708 418.899 17.9089 419.186 17.9089C419.251 17.9089 419.326 17.9171 419.41 17.9333C419.495 17.9464 419.553 17.961 419.586 17.9773Z" fill="#32375E"/>
<g opacity="0.9">
<path d="M512.123 16.1804H513.036L515.365 21.9763L517.689 16.1804H518.607L515.717 23.2898H515.004L512.123 16.1804ZM511.825 16.1804H512.631L512.763 20.5164V23.2898H511.825V16.1804ZM518.095 16.1804H518.9V23.2898H517.963V20.5164L518.095 16.1804ZM522.611 23.3875C522.243 23.3875 521.91 23.3256 521.61 23.2019C521.314 23.075 521.059 22.8975 520.844 22.6697C520.632 22.4418 520.469 22.1716 520.355 21.8591C520.242 21.5466 520.185 21.2048 520.185 20.8337V20.6287C520.185 20.199 520.248 19.8165 520.375 19.4812C520.502 19.1427 520.674 18.8562 520.893 18.6218C521.111 18.3875 521.358 18.21 521.635 18.0896C521.911 17.9692 522.198 17.9089 522.494 17.9089C522.872 17.9089 523.197 17.974 523.471 18.1042C523.747 18.2345 523.974 18.4167 524.149 18.6511C524.325 18.8822 524.455 19.1557 524.54 19.4714C524.625 19.7839 524.667 20.1257 524.667 20.4968V20.9021H520.722V20.1648H523.764V20.0964C523.751 19.8621 523.702 19.6342 523.617 19.4128C523.536 19.1915 523.406 19.0092 523.227 18.866C523.048 18.7227 522.803 18.6511 522.494 18.6511C522.289 18.6511 522.1 18.6951 521.928 18.783C521.755 18.8676 521.607 18.9945 521.483 19.1638C521.36 19.3331 521.264 19.5398 521.195 19.7839C521.127 20.0281 521.093 20.3097 521.093 20.6287V20.8337C521.093 21.0844 521.127 21.3204 521.195 21.5417C521.267 21.7598 521.369 21.9519 521.503 22.1179C521.64 22.2839 521.804 22.4141 521.996 22.5085C522.191 22.6029 522.413 22.6501 522.66 22.6501C522.979 22.6501 523.249 22.585 523.471 22.4548C523.692 22.3246 523.886 22.1505 524.052 21.9324L524.599 22.3669C524.485 22.5395 524.34 22.7039 524.164 22.8601C523.988 23.0164 523.772 23.1433 523.515 23.241C523.261 23.3386 522.96 23.3875 522.611 23.3875ZM527.934 18.0066V18.7H525.077V18.0066H527.934ZM526.044 16.7224H526.947V21.9812C526.947 22.1602 526.975 22.2953 527.03 22.3865C527.086 22.4776 527.157 22.5378 527.245 22.5671C527.333 22.5964 527.427 22.6111 527.528 22.6111C527.603 22.6111 527.681 22.6046 527.763 22.5916C527.847 22.5753 527.911 22.5623 527.953 22.5525L527.958 23.2898C527.886 23.3126 527.792 23.3337 527.675 23.3533C527.561 23.3761 527.423 23.3875 527.26 23.3875C527.038 23.3875 526.835 23.3435 526.649 23.2556C526.464 23.1677 526.316 23.0212 526.205 22.8162C526.098 22.6078 526.044 22.3279 526.044 21.9763V16.7224ZM531.186 23.3875C530.818 23.3875 530.484 23.3256 530.185 23.2019C529.888 23.075 529.633 22.8975 529.418 22.6697C529.206 22.4418 529.044 22.1716 528.93 21.8591C528.816 21.5466 528.759 21.2048 528.759 20.8337V20.6287C528.759 20.199 528.822 19.8165 528.949 19.4812C529.076 19.1427 529.249 18.8562 529.467 18.6218C529.685 18.3875 529.932 18.21 530.209 18.0896C530.486 17.9692 530.772 17.9089 531.068 17.9089C531.446 17.9089 531.771 17.974 532.045 18.1042C532.322 18.2345 532.548 18.4167 532.724 18.6511C532.899 18.8822 533.03 19.1557 533.114 19.4714C533.199 19.7839 533.241 20.1257 533.241 20.4968V20.9021H529.296V20.1648H532.338V20.0964C532.325 19.8621 532.276 19.6342 532.191 19.4128C532.11 19.1915 531.98 19.0092 531.801 18.866C531.622 18.7227 531.378 18.6511 531.068 18.6511C530.863 18.6511 530.674 18.6951 530.502 18.783C530.329 18.8676 530.181 18.9945 530.058 19.1638C529.934 19.3331 529.838 19.5398 529.77 19.7839C529.701 20.0281 529.667 20.3097 529.667 20.6287V20.8337C529.667 21.0844 529.701 21.3204 529.77 21.5417C529.841 21.7598 529.944 21.9519 530.077 22.1179C530.214 22.2839 530.378 22.4141 530.57 22.5085C530.766 22.6029 530.987 22.6501 531.234 22.6501C531.553 22.6501 531.824 22.585 532.045 22.4548C532.266 22.3246 532.46 22.1505 532.626 21.9324L533.173 22.3669C533.059 22.5395 532.914 22.7039 532.738 22.8601C532.562 23.0164 532.346 23.1433 532.089 23.241C531.835 23.3386 531.534 23.3875 531.186 23.3875ZM535.199 18.8367V23.2898H534.296V18.0066H535.175L535.199 18.8367ZM536.85 17.9773L536.845 18.8171C536.77 18.8009 536.698 18.7911 536.63 18.7878C536.565 18.7813 536.49 18.7781 536.405 18.7781C536.197 18.7781 536.013 18.8106 535.854 18.8757C535.694 18.9408 535.559 19.032 535.448 19.1492C535.338 19.2664 535.25 19.4063 535.185 19.5691C535.123 19.7286 535.082 19.9044 535.062 20.0964L534.809 20.2429C534.809 19.9239 534.84 19.6244 534.901 19.3445C534.966 19.0645 535.066 18.8171 535.199 18.6023C535.333 18.3842 535.502 18.2149 535.707 18.0945C535.915 17.9708 536.163 17.9089 536.449 17.9089C536.514 17.9089 536.589 17.9171 536.674 17.9333C536.758 17.9464 536.817 17.961 536.85 17.9773ZM539.779 23.3875C539.411 23.3875 539.078 23.3256 538.778 23.2019C538.482 23.075 538.227 22.8975 538.012 22.6697C537.8 22.4418 537.637 22.1716 537.523 21.8591C537.41 21.5466 537.353 21.2048 537.353 20.8337V20.6287C537.353 20.199 537.416 19.8165 537.543 19.4812C537.67 19.1427 537.842 18.8562 538.061 18.6218C538.279 18.3875 538.526 18.21 538.803 18.0896C539.079 17.9692 539.366 17.9089 539.662 17.9089C540.04 17.9089 540.365 17.974 540.639 18.1042C540.915 18.2345 541.142 18.4167 541.317 18.6511C541.493 18.8822 541.623 19.1557 541.708 19.4714C541.793 19.7839 541.835 20.1257 541.835 20.4968V20.9021H537.89V20.1648H540.932V20.0964C540.919 19.8621 540.87 19.6342 540.785 19.4128C540.704 19.1915 540.574 19.0092 540.395 18.866C540.215 18.7227 539.971 18.6511 539.662 18.6511C539.457 18.6511 539.268 18.6951 539.096 18.783C538.923 18.8676 538.775 18.9945 538.651 19.1638C538.528 19.3331 538.432 19.5398 538.363 19.7839C538.295 20.0281 538.261 20.3097 538.261 20.6287V20.8337C538.261 21.0844 538.295 21.3204 538.363 21.5417C538.435 21.7598 538.537 21.9519 538.671 22.1179C538.808 22.2839 538.972 22.4141 539.164 22.5085C539.359 22.6029 539.581 22.6501 539.828 22.6501C540.147 22.6501 540.417 22.585 540.639 22.4548C540.86 22.3246 541.054 22.1505 541.22 21.9324L541.767 22.3669C541.653 22.5395 541.508 22.7039 541.332 22.8601C541.156 23.0164 540.94 23.1433 540.683 23.241C540.429 23.3386 540.128 23.3875 539.779 23.3875ZM546.22 22.2644V15.7898H547.128V23.2898H546.298L546.22 22.2644ZM542.665 20.7068V20.6042C542.665 20.2006 542.714 19.8344 542.812 19.5056C542.912 19.1736 543.054 18.8888 543.236 18.6511C543.422 18.4135 543.642 18.2312 543.896 18.1042C544.153 17.974 544.439 17.9089 544.755 17.9089C545.087 17.9089 545.377 17.9675 545.624 18.0847C545.875 18.1986 546.086 18.3663 546.259 18.5876C546.435 18.8057 546.573 19.0694 546.674 19.3787C546.775 19.6879 546.845 20.0378 546.884 20.4285V20.8777C546.848 21.2651 546.778 21.6134 546.674 21.9226C546.573 22.2319 546.435 22.4955 546.259 22.7136C546.086 22.9317 545.875 23.0994 545.624 23.2166C545.373 23.3305 545.08 23.3875 544.745 23.3875C544.436 23.3875 544.153 23.3207 543.896 23.1873C543.642 23.0538 543.422 22.8666 543.236 22.6257C543.054 22.3848 542.912 22.1016 542.812 21.7761C542.714 21.4473 542.665 21.0909 542.665 20.7068ZM543.573 20.6042V20.7068C543.573 20.9705 543.599 21.2179 543.651 21.449C543.707 21.6801 543.791 21.8835 543.905 22.0593C544.019 22.2351 544.164 22.3735 544.34 22.4744C544.516 22.572 544.726 22.6208 544.97 22.6208C545.269 22.6208 545.515 22.5574 545.707 22.4304C545.902 22.3035 546.059 22.1358 546.176 21.9275C546.293 21.7192 546.384 21.4929 546.449 21.2488V20.072C546.41 19.893 546.353 19.7205 546.278 19.5544C546.207 19.3852 546.112 19.2354 545.995 19.1052C545.881 18.9718 545.74 18.866 545.57 18.7878C545.404 18.7097 545.207 18.6707 544.979 18.6707C544.732 18.6707 544.519 18.7227 544.34 18.8269C544.164 18.9278 544.019 19.0678 543.905 19.2468C543.791 19.4226 543.707 19.6277 543.651 19.8621C543.599 20.0932 543.573 20.3406 543.573 20.6042Z" fill="#32375E"/>
</g>
<g opacity="0.9">
<path d="M684.249 22.5476V23.2898H679.596V22.6404L681.925 20.0476C682.211 19.7286 682.433 19.4584 682.589 19.2371C682.748 19.0125 682.859 18.8123 682.921 18.6365C682.986 18.4574 683.019 18.2751 683.019 18.0896C683.019 17.8552 682.97 17.6436 682.872 17.4548C682.778 17.2628 682.638 17.1098 682.452 16.9958C682.267 16.8819 682.042 16.825 681.778 16.825C681.463 16.825 681.199 16.8868 680.987 17.0105C680.779 17.1309 680.623 17.3002 680.519 17.5183C680.414 17.7364 680.362 17.9871 680.362 18.2703H679.459C679.459 17.8699 679.547 17.5037 679.723 17.1716C679.898 16.8396 680.159 16.5759 680.504 16.3806C680.849 16.182 681.274 16.0828 681.778 16.0828C682.228 16.0828 682.612 16.1625 682.931 16.322C683.25 16.4783 683.494 16.6996 683.663 16.9861C683.836 17.2693 683.922 17.6013 683.922 17.9822C683.922 18.1905 683.886 18.4021 683.814 18.6169C683.746 18.8285 683.65 19.0401 683.526 19.2517C683.406 19.4633 683.264 19.6716 683.102 19.8767C682.942 20.0818 682.771 20.2836 682.589 20.4822L680.685 22.5476H684.249ZM686.358 19.906L685.636 19.7205L685.992 16.1804H689.64V17.0154H686.759L686.544 18.949C686.674 18.8741 686.839 18.8041 687.037 18.739C687.239 18.6739 687.47 18.6414 687.73 18.6414C688.059 18.6414 688.354 18.6983 688.614 18.8123C688.875 18.9229 689.096 19.0824 689.278 19.2908C689.464 19.4991 689.605 19.7498 689.703 20.0427C689.801 20.3357 689.85 20.6628 689.85 21.0242C689.85 21.366 689.802 21.6801 689.708 21.9666C689.617 22.253 689.479 22.5037 689.293 22.7185C689.107 22.9301 688.873 23.0945 688.59 23.2117C688.31 23.3289 687.979 23.3875 687.599 23.3875C687.312 23.3875 687.04 23.3484 686.783 23.2703C686.529 23.1889 686.301 23.0668 686.1 22.9041C685.901 22.738 685.738 22.533 685.611 22.2888C685.488 22.0414 685.41 21.7517 685.377 21.4197H686.236C686.275 21.6866 686.354 21.9112 686.471 22.0935C686.588 22.2758 686.741 22.4141 686.93 22.5085C687.122 22.5997 687.345 22.6453 687.599 22.6453C687.813 22.6453 688.004 22.6078 688.17 22.533C688.336 22.4581 688.476 22.3507 688.59 22.2107C688.704 22.0707 688.79 21.9014 688.849 21.7029C688.91 21.5043 688.941 21.2813 688.941 21.0339C688.941 20.8093 688.91 20.601 688.849 20.4089C688.787 20.2169 688.694 20.0492 688.57 19.906C688.45 19.7628 688.302 19.6521 688.126 19.574C687.95 19.4926 687.748 19.4519 687.521 19.4519C687.218 19.4519 686.988 19.4926 686.832 19.574C686.679 19.6554 686.521 19.766 686.358 19.906ZM690.953 22.8113C690.953 22.6583 691 22.5297 691.095 22.4255C691.192 22.3181 691.332 22.2644 691.515 22.2644C691.697 22.2644 691.835 22.3181 691.93 22.4255C692.027 22.5297 692.076 22.6583 692.076 22.8113C692.076 22.961 692.027 23.088 691.93 23.1921C691.835 23.2963 691.697 23.3484 691.515 23.3484C691.332 23.3484 691.192 23.2963 691.095 23.1921C691 23.088 690.953 22.961 690.953 22.8113ZM697.94 19.1687V20.2527C697.94 20.8354 697.888 21.3269 697.784 21.7273C697.68 22.1277 697.53 22.45 697.335 22.6941C697.14 22.9382 696.904 23.1156 696.627 23.2263C696.354 23.3337 696.044 23.3875 695.699 23.3875C695.426 23.3875 695.174 23.3533 694.942 23.2849C694.711 23.2166 694.503 23.1075 694.317 22.9578C694.135 22.8048 693.979 22.6062 693.849 22.3621C693.718 22.1179 693.619 21.8217 693.551 21.4734C693.482 21.1251 693.448 20.7182 693.448 20.2527V19.1687C693.448 18.586 693.5 18.0977 693.604 17.7039C693.712 17.31 693.863 16.9942 694.059 16.7566C694.254 16.5157 694.488 16.3432 694.762 16.239C695.038 16.1348 695.348 16.0828 695.689 16.0828C695.966 16.0828 696.22 16.1169 696.451 16.1853C696.686 16.2504 696.894 16.3562 697.076 16.5027C697.258 16.6459 697.413 16.838 697.54 17.0789C697.67 17.3165 697.77 17.6078 697.838 17.9529C697.906 18.2979 697.94 18.7032 697.94 19.1687ZM697.032 20.3992V19.0173C697.032 18.6983 697.013 18.4184 696.974 18.1775C696.938 17.9333 696.884 17.725 696.812 17.5525C696.741 17.38 696.65 17.24 696.539 17.1326C696.432 17.0251 696.306 16.947 696.163 16.8982C696.023 16.8461 695.865 16.8201 695.689 16.8201C695.475 16.8201 695.284 16.8608 695.118 16.9421C694.952 17.0203 694.812 17.1456 694.698 17.3181C694.588 17.4906 694.503 17.7169 694.444 17.9968C694.386 18.2768 694.356 18.6169 694.356 19.0173V20.3992C694.356 20.7182 694.374 20.9998 694.41 21.2439C694.449 21.488 694.506 21.6996 694.581 21.8787C694.656 22.0544 694.747 22.1993 694.854 22.3132C694.962 22.4272 695.086 22.5118 695.226 22.5671C695.369 22.6192 695.527 22.6453 695.699 22.6453C695.921 22.6453 696.114 22.6029 696.28 22.5183C696.446 22.4337 696.585 22.3018 696.695 22.1228C696.809 21.9405 696.894 21.7078 696.949 21.4246C697.005 21.1381 697.032 20.7963 697.032 20.3992ZM703.565 19.1687V20.2527C703.565 20.8354 703.513 21.3269 703.409 21.7273C703.305 22.1277 703.155 22.45 702.96 22.6941C702.765 22.9382 702.529 23.1156 702.252 23.2263C701.979 23.3337 701.669 23.3875 701.324 23.3875C701.051 23.3875 700.799 23.3533 700.567 23.2849C700.336 23.2166 700.128 23.1075 699.942 22.9578C699.76 22.8048 699.604 22.6062 699.474 22.3621C699.343 22.1179 699.244 21.8217 699.176 21.4734C699.107 21.1251 699.073 20.7182 699.073 20.2527V19.1687C699.073 18.586 699.125 18.0977 699.229 17.7039C699.337 17.31 699.488 16.9942 699.684 16.7566C699.879 16.5157 700.113 16.3432 700.387 16.239C700.663 16.1348 700.973 16.0828 701.314 16.0828C701.591 16.0828 701.845 16.1169 702.076 16.1853C702.311 16.2504 702.519 16.3562 702.701 16.5027C702.883 16.6459 703.038 16.838 703.165 17.0789C703.295 17.3165 703.395 17.6078 703.463 17.9529C703.531 18.2979 703.565 18.7032 703.565 19.1687ZM702.657 20.3992V19.0173C702.657 18.6983 702.638 18.4184 702.599 18.1775C702.563 17.9333 702.509 17.725 702.438 17.5525C702.366 17.38 702.275 17.24 702.164 17.1326C702.057 17.0251 701.931 16.947 701.788 16.8982C701.648 16.8461 701.49 16.8201 701.314 16.8201C701.1 16.8201 700.909 16.8608 700.743 16.9421C700.577 17.0203 700.437 17.1456 700.323 17.3181C700.213 17.4906 700.128 17.7169 700.069 17.9968C700.011 18.2768 699.981 18.6169 699.981 19.0173V20.3992C699.981 20.7182 699.999 20.9998 700.035 21.2439C700.074 21.488 700.131 21.6996 700.206 21.8787C700.281 22.0544 700.372 22.1993 700.479 22.3132C700.587 22.4272 700.711 22.5118 700.851 22.5671C700.994 22.6192 701.152 22.6453 701.324 22.6453C701.546 22.6453 701.739 22.6029 701.905 22.5183C702.071 22.4337 702.21 22.3018 702.32 22.1228C702.434 21.9405 702.519 21.7078 702.574 21.4246C702.63 21.1381 702.657 20.7963 702.657 20.3992Z" fill="#32375E"/>
</g>
<g opacity="0.9">
<path d="M725.893 16.1804H726.83V20.99C726.83 21.5238 726.711 21.9682 726.474 22.323C726.236 22.6778 725.92 22.9447 725.526 23.1238C725.136 23.2996 724.711 23.3875 724.252 23.3875C723.77 23.3875 723.334 23.2996 722.943 23.1238C722.556 22.9447 722.248 22.6778 722.021 22.323C721.796 21.9682 721.684 21.5238 721.684 20.99V16.1804H722.616V20.99C722.616 21.3611 722.685 21.6671 722.821 21.908C722.958 22.1488 723.148 22.3279 723.393 22.4451C723.64 22.5623 723.926 22.6208 724.252 22.6208C724.581 22.6208 724.867 22.5623 725.111 22.4451C725.359 22.3279 725.551 22.1488 725.688 21.908C725.824 21.6671 725.893 21.3611 725.893 20.99V16.1804ZM732.099 21.4929C732.099 21.3269 732.073 21.1804 732.021 21.0535C731.972 20.9233 731.884 20.8061 731.757 20.7019C731.633 20.5977 731.461 20.4985 731.239 20.4041C731.021 20.3097 730.744 20.2136 730.409 20.116C730.058 20.0118 729.74 19.8962 729.457 19.7693C729.174 19.6391 728.931 19.491 728.729 19.325C728.528 19.1589 728.373 18.9685 728.266 18.7537C728.158 18.5388 728.104 18.2931 728.104 18.0164C728.104 17.7397 728.161 17.4841 728.275 17.2498C728.389 17.0154 728.552 16.8119 728.764 16.6394C728.979 16.4636 729.234 16.3269 729.53 16.2292C729.826 16.1316 730.157 16.0828 730.521 16.0828C731.055 16.0828 731.508 16.1853 731.879 16.3904C732.253 16.5922 732.538 16.8575 732.733 17.1863C732.929 17.5118 733.026 17.8601 733.026 18.2312H732.089C732.089 17.9643 732.032 17.7283 731.918 17.5232C731.804 17.3149 731.632 17.1521 731.4 17.0349C731.169 16.9145 730.876 16.8542 730.521 16.8542C730.186 16.8542 729.91 16.9047 729.691 17.0056C729.473 17.1065 729.311 17.2432 729.203 17.4158C729.099 17.5883 729.047 17.7852 729.047 18.0066C729.047 18.1563 729.078 18.2931 729.14 18.4167C729.205 18.5372 729.304 18.6495 729.438 18.7537C729.574 18.8578 729.747 18.9539 729.955 19.0417C730.167 19.1296 730.419 19.2143 730.712 19.2957C731.116 19.4096 731.464 19.5365 731.757 19.6765C732.05 19.8165 732.291 19.9744 732.479 20.1501C732.672 20.3227 732.813 20.5196 732.904 20.741C732.999 20.9591 733.046 21.2065 733.046 21.4832C733.046 21.7729 732.987 22.0349 732.87 22.2693C732.753 22.5037 732.585 22.7039 732.367 22.8699C732.149 23.0359 731.887 23.1645 731.581 23.2556C731.278 23.3435 730.94 23.3875 730.565 23.3875C730.237 23.3875 729.913 23.3419 729.594 23.2507C729.278 23.1596 728.99 23.0229 728.729 22.8406C728.472 22.6583 728.266 22.4337 728.109 22.1667C727.956 21.8966 727.88 21.5841 727.88 21.2292H728.817C728.817 21.4734 728.865 21.6833 728.959 21.8591C729.053 22.0317 729.182 22.1749 729.345 22.2888C729.511 22.4028 729.698 22.4874 729.906 22.5427C730.118 22.5948 730.338 22.6208 730.565 22.6208C730.894 22.6208 731.173 22.5753 731.4 22.4841C731.628 22.393 731.801 22.2628 731.918 22.0935C732.038 21.9242 732.099 21.724 732.099 21.4929ZM736.171 23.2898H734.687L734.696 22.5232H736.171C736.679 22.5232 737.102 22.4174 737.44 22.2058C737.779 21.991 738.033 21.6915 738.202 21.3074C738.375 20.92 738.461 20.4675 738.461 19.95V19.5154C738.461 19.1085 738.412 18.7472 738.314 18.4314C738.217 18.1124 738.074 17.8438 737.885 17.6257C737.696 17.4044 737.465 17.2367 737.191 17.1228C736.921 17.0089 736.61 16.9519 736.259 16.9519H734.657V16.1804H736.259C736.724 16.1804 737.149 16.2585 737.533 16.4148C737.917 16.5678 738.248 16.7908 738.524 17.0837C738.804 17.3735 739.019 17.725 739.169 18.1384C739.319 18.5486 739.394 19.0108 739.394 19.5251V19.95C739.394 20.4643 739.319 20.9281 739.169 21.3416C739.019 21.7517 738.803 22.1016 738.52 22.3914C738.24 22.6811 737.901 22.9041 737.504 23.0603C737.11 23.2133 736.666 23.2898 736.171 23.2898ZM735.189 16.1804V23.2898H734.247V16.1804H735.189Z" fill="#32375E"/>
</g>
<g opacity="0.9">
<path d="M815.56 16.1414V23.2898H814.656V17.2693L812.835 17.9333V17.1179L815.418 16.1414H815.56ZM821.458 16.1804L818.494 23.9001H817.718L820.687 16.1804H821.458ZM824.324 19.8962V20.6384H821.941V19.8962H824.324ZM827.088 19.8962V20.6384H824.705V19.8962H827.088Z" fill="#32375E"/>
</g>
<g opacity="0.9">
<path d="M897.249 22.5476V23.2898H892.596V22.6404L894.925 20.0476C895.211 19.7286 895.433 19.4584 895.589 19.2371C895.748 19.0125 895.859 18.8123 895.921 18.6365C895.986 18.4574 896.019 18.2751 896.019 18.0896C896.019 17.8552 895.97 17.6436 895.872 17.4548C895.778 17.2628 895.638 17.1098 895.452 16.9958C895.267 16.8819 895.042 16.825 894.778 16.825C894.463 16.825 894.199 16.8868 893.987 17.0105C893.779 17.1309 893.623 17.3002 893.519 17.5183C893.414 17.7364 893.362 17.9871 893.362 18.2703H892.459C892.459 17.8699 892.547 17.5037 892.723 17.1716C892.898 16.8396 893.159 16.5759 893.504 16.3806C893.849 16.182 894.274 16.0828 894.778 16.0828C895.228 16.0828 895.612 16.1625 895.931 16.322C896.25 16.4783 896.494 16.6996 896.663 16.9861C896.836 17.2693 896.922 17.6013 896.922 17.9822C896.922 18.1905 896.886 18.4021 896.814 18.6169C896.746 18.8285 896.65 19.0401 896.526 19.2517C896.406 19.4633 896.264 19.6716 896.102 19.8767C895.942 20.0818 895.771 20.2836 895.589 20.4822L893.685 22.5476H897.249ZM899.358 19.906L898.636 19.7205L898.992 16.1804H902.64V17.0154H899.759L899.544 18.949C899.674 18.8741 899.839 18.8041 900.037 18.739C900.239 18.6739 900.47 18.6414 900.73 18.6414C901.059 18.6414 901.354 18.6983 901.614 18.8123C901.875 18.9229 902.096 19.0824 902.278 19.2908C902.464 19.4991 902.605 19.7498 902.703 20.0427C902.801 20.3357 902.85 20.6628 902.85 21.0242C902.85 21.366 902.802 21.6801 902.708 21.9666C902.617 22.253 902.479 22.5037 902.293 22.7185C902.107 22.9301 901.873 23.0945 901.59 23.2117C901.31 23.3289 900.979 23.3875 900.599 23.3875C900.312 23.3875 900.04 23.3484 899.783 23.2703C899.529 23.1889 899.301 23.0668 899.1 22.9041C898.901 22.738 898.738 22.533 898.611 22.2888C898.488 22.0414 898.41 21.7517 898.377 21.4197H899.236C899.275 21.6866 899.354 21.9112 899.471 22.0935C899.588 22.2758 899.741 22.4141 899.93 22.5085C900.122 22.5997 900.345 22.6453 900.599 22.6453C900.813 22.6453 901.004 22.6078 901.17 22.533C901.336 22.4581 901.476 22.3507 901.59 22.2107C901.704 22.0707 901.79 21.9014 901.849 21.7029C901.91 21.5043 901.941 21.2813 901.941 21.0339C901.941 20.8093 901.91 20.601 901.849 20.4089C901.787 20.2169 901.694 20.0492 901.57 19.906C901.45 19.7628 901.302 19.6521 901.126 19.574C900.95 19.4926 900.748 19.4519 900.521 19.4519C900.218 19.4519 899.988 19.4926 899.832 19.574C899.679 19.6554 899.521 19.766 899.358 19.906ZM903.953 22.8113C903.953 22.6583 904 22.5297 904.095 22.4255C904.192 22.3181 904.332 22.2644 904.515 22.2644C904.697 22.2644 904.835 22.3181 904.93 22.4255C905.027 22.5297 905.076 22.6583 905.076 22.8113C905.076 22.961 905.027 23.088 904.93 23.1921C904.835 23.2963 904.697 23.3484 904.515 23.3484C904.332 23.3484 904.192 23.2963 904.095 23.1921C904 23.088 903.953 22.961 903.953 22.8113ZM910.94 19.1687V20.2527C910.94 20.8354 910.888 21.3269 910.784 21.7273C910.68 22.1277 910.53 22.45 910.335 22.6941C910.14 22.9382 909.904 23.1156 909.627 23.2263C909.354 23.3337 909.044 23.3875 908.699 23.3875C908.426 23.3875 908.174 23.3533 907.942 23.2849C907.711 23.2166 907.503 23.1075 907.317 22.9578C907.135 22.8048 906.979 22.6062 906.849 22.3621C906.718 22.1179 906.619 21.8217 906.551 21.4734C906.482 21.1251 906.448 20.7182 906.448 20.2527V19.1687C906.448 18.586 906.5 18.0977 906.604 17.7039C906.712 17.31 906.863 16.9942 907.059 16.7566C907.254 16.5157 907.488 16.3432 907.762 16.239C908.038 16.1348 908.348 16.0828 908.689 16.0828C908.966 16.0828 909.22 16.1169 909.451 16.1853C909.686 16.2504 909.894 16.3562 910.076 16.5027C910.258 16.6459 910.413 16.838 910.54 17.0789C910.67 17.3165 910.77 17.6078 910.838 17.9529C910.906 18.2979 910.94 18.7032 910.94 19.1687ZM910.032 20.3992V19.0173C910.032 18.6983 910.013 18.4184 909.974 18.1775C909.938 17.9333 909.884 17.725 909.812 17.5525C909.741 17.38 909.65 17.24 909.539 17.1326C909.432 17.0251 909.306 16.947 909.163 16.8982C909.023 16.8461 908.865 16.8201 908.689 16.8201C908.475 16.8201 908.284 16.8608 908.118 16.9421C907.952 17.0203 907.812 17.1456 907.698 17.3181C907.588 17.4906 907.503 17.7169 907.444 17.9968C907.386 18.2768 907.356 18.6169 907.356 19.0173V20.3992C907.356 20.7182 907.374 20.9998 907.41 21.2439C907.449 21.488 907.506 21.6996 907.581 21.8787C907.656 22.0544 907.747 22.1993 907.854 22.3132C907.962 22.4272 908.086 22.5118 908.226 22.5671C908.369 22.6192 908.527 22.6453 908.699 22.6453C908.921 22.6453 909.114 22.6029 909.28 22.5183C909.446 22.4337 909.585 22.3018 909.695 22.1228C909.809 21.9405 909.894 21.7078 909.949 21.4246C910.005 21.1381 910.032 20.7963 910.032 20.3992ZM916.565 19.1687V20.2527C916.565 20.8354 916.513 21.3269 916.409 21.7273C916.305 22.1277 916.155 22.45 915.96 22.6941C915.765 22.9382 915.529 23.1156 915.252 23.2263C914.979 23.3337 914.669 23.3875 914.324 23.3875C914.051 23.3875 913.799 23.3533 913.567 23.2849C913.336 23.2166 913.128 23.1075 912.942 22.9578C912.76 22.8048 912.604 22.6062 912.474 22.3621C912.343 22.1179 912.244 21.8217 912.176 21.4734C912.107 21.1251 912.073 20.7182 912.073 20.2527V19.1687C912.073 18.586 912.125 18.0977 912.229 17.7039C912.337 17.31 912.488 16.9942 912.684 16.7566C912.879 16.5157 913.113 16.3432 913.387 16.239C913.663 16.1348 913.973 16.0828 914.314 16.0828C914.591 16.0828 914.845 16.1169 915.076 16.1853C915.311 16.2504 915.519 16.3562 915.701 16.5027C915.883 16.6459 916.038 16.838 916.165 17.0789C916.295 17.3165 916.395 17.6078 916.463 17.9529C916.531 18.2979 916.565 18.7032 916.565 19.1687ZM915.657 20.3992V19.0173C915.657 18.6983 915.638 18.4184 915.599 18.1775C915.563 17.9333 915.509 17.725 915.438 17.5525C915.366 17.38 915.275 17.24 915.164 17.1326C915.057 17.0251 914.931 16.947 914.788 16.8982C914.648 16.8461 914.49 16.8201 914.314 16.8201C914.1 16.8201 913.909 16.8608 913.743 16.9421C913.577 17.0203 913.437 17.1456 913.323 17.3181C913.213 17.4906 913.128 17.7169 913.069 17.9968C913.011 18.2768 912.981 18.6169 912.981 19.0173V20.3992C912.981 20.7182 912.999 20.9998 913.035 21.2439C913.074 21.488 913.131 21.6996 913.206 21.8787C913.281 22.0544 913.372 22.1993 913.479 22.3132C913.587 22.4272 913.711 22.5118 913.851 22.5671C913.994 22.6192 914.152 22.6453 914.324 22.6453C914.546 22.6453 914.739 22.6029 914.905 22.5183C915.071 22.4337 915.21 22.3018 915.32 22.1228C915.434 21.9405 915.519 21.7078 915.574 21.4246C915.63 21.1381 915.657 20.7963 915.657 20.3992Z" fill="#32375E"/>
</g>
</svg>
