<svg width="934" height="41" viewBox="0 0 934 41" fill="none" xmlns="http://www.w3.org/2000/svg">
<rect y="0.289795" width="934" height="40" rx="12" fill="white"/>
<path d="M18.6665 22.4045L24.7945 16.2758L25.7378 17.2185L18.6665 24.2898L14.4238 20.0472L15.3665 19.1045L18.6665 22.4045Z" fill="#86B869"/>
<g opacity="0.9">
<path d="M43.5596 16.1414V23.2898H42.6562V17.2693L40.835 17.9333V17.1179L43.418 16.1414H43.5596ZM49.1846 16.1414V23.2898H48.2812V17.2693L46.46 17.9333V17.1179L49.043 16.1414H49.1846ZM53.8184 19.8962V20.6384H51.4355V19.8962H53.8184ZM57.4707 16.8103L55.1172 23.2898H54.1553L56.8652 16.1804H57.4854L57.4707 16.8103ZM59.4434 23.2898L57.085 16.8103L57.0703 16.1804H57.6904L60.4102 23.2898H59.4434ZM59.3213 20.658V21.4294H55.3271V20.658H59.3213ZM62.1289 19.0222V25.321H61.2207V18.0066H62.0508L62.1289 19.0222ZM65.6885 20.6042V20.7068C65.6885 21.0909 65.6429 21.4473 65.5518 21.7761C65.4606 22.1016 65.3271 22.3848 65.1514 22.6257C64.9788 22.8666 64.7656 23.0538 64.5117 23.1873C64.2578 23.3207 63.9665 23.3875 63.6377 23.3875C63.3024 23.3875 63.0062 23.3321 62.749 23.2214C62.4919 23.1108 62.2738 22.9496 62.0947 22.738C61.9157 22.5264 61.7725 22.2725 61.665 21.9763C61.5609 21.6801 61.4893 21.3464 61.4502 20.9753V20.4285C61.4893 20.0378 61.5625 19.6879 61.6699 19.3787C61.7773 19.0694 61.9189 18.8057 62.0947 18.5876C62.2738 18.3663 62.4902 18.1986 62.7441 18.0847C62.998 17.9675 63.291 17.9089 63.623 17.9089C63.9551 17.9089 64.2497 17.974 64.5068 18.1042C64.764 18.2312 64.9805 18.4135 65.1562 18.6511C65.332 18.8888 65.4639 19.1736 65.5518 19.5056C65.6429 19.8344 65.6885 20.2006 65.6885 20.6042ZM64.7803 20.7068V20.6042C64.7803 20.3406 64.7526 20.0932 64.6973 19.8621C64.6419 19.6277 64.5557 19.4226 64.4385 19.2468C64.3245 19.0678 64.1781 18.9278 63.999 18.8269C63.82 18.7227 63.6068 18.6707 63.3594 18.6707C63.1315 18.6707 62.9329 18.7097 62.7637 18.7878C62.5977 18.866 62.4561 18.9718 62.3389 19.1052C62.2217 19.2354 62.1257 19.3852 62.0508 19.5544C61.9792 19.7205 61.9255 19.893 61.8896 20.072V21.3367C61.9548 21.5645 62.0459 21.7794 62.1631 21.9812C62.2803 22.1798 62.4365 22.3409 62.6318 22.4646C62.8271 22.585 63.0729 22.6453 63.3691 22.6453C63.6133 22.6453 63.8232 22.5948 63.999 22.4939C64.1781 22.3897 64.3245 22.2481 64.4385 22.0691C64.5557 21.8901 64.6419 21.685 64.6973 21.4539C64.7526 21.2195 64.7803 20.9705 64.7803 20.7068ZM67.7441 18.8367V23.2898H66.8408V18.0066H67.7197L67.7441 18.8367ZM69.3945 17.9773L69.3896 18.8171C69.3148 18.8009 69.2432 18.7911 69.1748 18.7878C69.1097 18.7813 69.0348 18.7781 68.9502 18.7781C68.7419 18.7781 68.5579 18.8106 68.3984 18.8757C68.2389 18.9408 68.1038 19.032 67.9932 19.1492C67.8825 19.2664 67.7946 19.4063 67.7295 19.5691C67.6676 19.7286 67.627 19.9044 67.6074 20.0964L67.3535 20.2429C67.3535 19.9239 67.3844 19.6244 67.4463 19.3445C67.5114 19.0645 67.6107 18.8171 67.7441 18.6023C67.8776 18.3842 68.0469 18.2149 68.252 18.0945C68.4603 17.9708 68.7077 17.9089 68.9941 17.9089C69.0592 17.9089 69.1341 17.9171 69.2188 17.9333C69.3034 17.9464 69.362 17.961 69.3945 17.9773ZM72.1094 19.8962V20.6384H69.7266V19.8962H72.1094ZM77.5537 22.5476V23.2898H72.9004V22.6404L75.2295 20.0476C75.516 19.7286 75.7373 19.4584 75.8936 19.2371C76.0531 19.0125 76.1637 18.8123 76.2256 18.6365C76.2907 18.4574 76.3232 18.2751 76.3232 18.0896C76.3232 17.8552 76.2744 17.6436 76.1768 17.4548C76.0824 17.2628 75.9424 17.1098 75.7568 16.9958C75.5713 16.8819 75.3467 16.825 75.083 16.825C74.7673 16.825 74.5036 16.8868 74.292 17.0105C74.0837 17.1309 73.9274 17.3002 73.8232 17.5183C73.7191 17.7364 73.667 17.9871 73.667 18.2703H72.7637C72.7637 17.8699 72.8516 17.5037 73.0273 17.1716C73.2031 16.8396 73.4635 16.5759 73.8086 16.3806C74.1536 16.182 74.5785 16.0828 75.083 16.0828C75.5322 16.0828 75.9163 16.1625 76.2354 16.322C76.5544 16.4783 76.7985 16.6996 76.9678 16.9861C77.1403 17.2693 77.2266 17.6013 77.2266 17.9822C77.2266 18.1905 77.1908 18.4021 77.1191 18.6169C77.0508 18.8285 76.9548 19.0401 76.8311 19.2517C76.7106 19.4633 76.569 19.6716 76.4062 19.8767C76.2467 20.0818 76.0758 20.2836 75.8936 20.4822L73.9893 22.5476H77.5537ZM83.1787 22.5476V23.2898H78.5254V22.6404L80.8545 20.0476C81.141 19.7286 81.3623 19.4584 81.5186 19.2371C81.6781 19.0125 81.7887 18.8123 81.8506 18.6365C81.9157 18.4574 81.9482 18.2751 81.9482 18.0896C81.9482 17.8552 81.8994 17.6436 81.8018 17.4548C81.7074 17.2628 81.5674 17.1098 81.3818 16.9958C81.1963 16.8819 80.9717 16.825 80.708 16.825C80.3923 16.825 80.1286 16.8868 79.917 17.0105C79.7087 17.1309 79.5524 17.3002 79.4482 17.5183C79.3441 17.7364 79.292 17.9871 79.292 18.2703H78.3887C78.3887 17.8699 78.4766 17.5037 78.6523 17.1716C78.8281 16.8396 79.0885 16.5759 79.4336 16.3806C79.7786 16.182 80.2035 16.0828 80.708 16.0828C81.1572 16.0828 81.5413 16.1625 81.8604 16.322C82.1794 16.4783 82.4235 16.6996 82.5928 16.9861C82.7653 17.2693 82.8516 17.6013 82.8516 17.9822C82.8516 18.1905 82.8158 18.4021 82.7441 18.6169C82.6758 18.8285 82.5798 19.0401 82.4561 19.2517C82.3356 19.4633 82.194 19.6716 82.0312 19.8767C81.8717 20.0818 81.7008 20.2836 81.5186 20.4822L79.6143 22.5476H83.1787ZM89.5947 16.1414V23.2898H88.6914V17.2693L86.8701 17.9333V17.1179L89.4531 16.1414H89.5947ZM96.7139 19.1687V20.2527C96.7139 20.8354 96.6618 21.3269 96.5576 21.7273C96.4535 22.1277 96.3037 22.45 96.1084 22.6941C95.9131 22.9382 95.6771 23.1156 95.4004 23.2263C95.127 23.3337 94.8177 23.3875 94.4727 23.3875C94.1992 23.3875 93.9469 23.3533 93.7158 23.2849C93.4847 23.2166 93.2764 23.1075 93.0908 22.9578C92.9085 22.8048 92.7523 22.6062 92.6221 22.3621C92.4919 22.1179 92.3926 21.8217 92.3242 21.4734C92.2559 21.1251 92.2217 20.7182 92.2217 20.2527V19.1687C92.2217 18.586 92.2738 18.0977 92.3779 17.7039C92.4854 17.31 92.6367 16.9942 92.832 16.7566C93.0273 16.5157 93.2617 16.3432 93.5352 16.239C93.8118 16.1348 94.1211 16.0828 94.4629 16.0828C94.7396 16.0828 94.9935 16.1169 95.2246 16.1853C95.459 16.2504 95.6673 16.3562 95.8496 16.5027C96.0319 16.6459 96.1865 16.838 96.3135 17.0789C96.4437 17.3165 96.543 17.6078 96.6113 17.9529C96.6797 18.2979 96.7139 18.7032 96.7139 19.1687ZM95.8057 20.3992V19.0173C95.8057 18.6983 95.7861 18.4184 95.7471 18.1775C95.7113 17.9333 95.6576 17.725 95.5859 17.5525C95.5143 17.38 95.4232 17.24 95.3125 17.1326C95.2051 17.0251 95.0798 16.947 94.9365 16.8982C94.7965 16.8461 94.6387 16.8201 94.4629 16.8201C94.248 16.8201 94.0576 16.8608 93.8916 16.9421C93.7256 17.0203 93.5856 17.1456 93.4717 17.3181C93.361 17.4906 93.2764 17.7169 93.2178 17.9968C93.1592 18.2768 93.1299 18.6169 93.1299 19.0173V20.3992C93.1299 20.7182 93.1478 20.9998 93.1836 21.2439C93.2227 21.488 93.2796 21.6996 93.3545 21.8787C93.4294 22.0544 93.5205 22.1993 93.6279 22.3132C93.7354 22.4272 93.859 22.5118 93.999 22.5671C94.1423 22.6192 94.3001 22.6453 94.4727 22.6453C94.694 22.6453 94.8877 22.6029 95.0537 22.5183C95.2197 22.4337 95.3581 22.3018 95.4688 22.1228C95.5827 21.9405 95.6673 21.7078 95.7227 21.4246C95.778 21.1381 95.8057 20.7963 95.8057 20.3992ZM97.9346 22.8113C97.9346 22.6583 97.9818 22.5297 98.0762 22.4255C98.1738 22.3181 98.3138 22.2644 98.4961 22.2644C98.6784 22.2644 98.8167 22.3181 98.9111 22.4255C99.0088 22.5297 99.0576 22.6583 99.0576 22.8113C99.0576 22.961 99.0088 23.088 98.9111 23.1921C98.8167 23.2963 98.6784 23.3484 98.4961 23.3484C98.3138 23.3484 98.1738 23.2963 98.0762 23.1921C97.9818 23.088 97.9346 22.961 97.9346 22.8113ZM97.9395 18.4998C97.9395 18.3468 97.9867 18.2182 98.0811 18.114C98.1787 18.0066 98.3187 17.9529 98.501 17.9529C98.6833 17.9529 98.8216 18.0066 98.916 18.114C99.0137 18.2182 99.0625 18.3468 99.0625 18.4998C99.0625 18.6495 99.0137 18.7764 98.916 18.8806C98.8216 18.9848 98.6833 19.0369 98.501 19.0369C98.3187 19.0369 98.1787 18.9848 98.0811 18.8806C97.9867 18.7764 97.9395 18.6495 97.9395 18.4998ZM104.761 19.1687V20.2527C104.761 20.8354 104.709 21.3269 104.604 21.7273C104.5 22.1277 104.351 22.45 104.155 22.6941C103.96 22.9382 103.724 23.1156 103.447 23.2263C103.174 23.3337 102.865 23.3875 102.52 23.3875C102.246 23.3875 101.994 23.3533 101.763 23.2849C101.532 23.2166 101.323 23.1075 101.138 22.9578C100.955 22.8048 100.799 22.6062 100.669 22.3621C100.539 22.1179 100.439 21.8217 100.371 21.4734C100.303 21.1251 100.269 20.7182 100.269 20.2527V19.1687C100.269 18.586 100.321 18.0977 100.425 17.7039C100.532 17.31 100.684 16.9942 100.879 16.7566C101.074 16.5157 101.309 16.3432 101.582 16.239C101.859 16.1348 102.168 16.0828 102.51 16.0828C102.786 16.0828 103.04 16.1169 103.271 16.1853C103.506 16.2504 103.714 16.3562 103.896 16.5027C104.079 16.6459 104.233 16.838 104.36 17.0789C104.491 17.3165 104.59 17.6078 104.658 17.9529C104.727 18.2979 104.761 18.7032 104.761 19.1687ZM103.853 20.3992V19.0173C103.853 18.6983 103.833 18.4184 103.794 18.1775C103.758 17.9333 103.704 17.725 103.633 17.5525C103.561 17.38 103.47 17.24 103.359 17.1326C103.252 17.0251 103.127 16.947 102.983 16.8982C102.843 16.8461 102.686 16.8201 102.51 16.8201C102.295 16.8201 102.104 16.8608 101.938 16.9421C101.772 17.0203 101.632 17.1456 101.519 17.3181C101.408 17.4906 101.323 17.7169 101.265 17.9968C101.206 18.2768 101.177 18.6169 101.177 19.0173V20.3992C101.177 20.7182 101.195 20.9998 101.23 21.2439C101.27 21.488 101.326 21.6996 101.401 21.8787C101.476 22.0544 101.567 22.1993 101.675 22.3132C101.782 22.4272 101.906 22.5118 102.046 22.5671C102.189 22.6192 102.347 22.6453 102.52 22.6453C102.741 22.6453 102.935 22.6029 103.101 22.5183C103.267 22.4337 103.405 22.3018 103.516 22.1228C103.63 21.9405 103.714 21.7078 103.77 21.4246C103.825 21.1381 103.853 20.7963 103.853 20.3992ZM110.386 19.1687V20.2527C110.386 20.8354 110.334 21.3269 110.229 21.7273C110.125 22.1277 109.976 22.45 109.78 22.6941C109.585 22.9382 109.349 23.1156 109.072 23.2263C108.799 23.3337 108.49 23.3875 108.145 23.3875C107.871 23.3875 107.619 23.3533 107.388 23.2849C107.157 23.2166 106.948 23.1075 106.763 22.9578C106.58 22.8048 106.424 22.6062 106.294 22.3621C106.164 22.1179 106.064 21.8217 105.996 21.4734C105.928 21.1251 105.894 20.7182 105.894 20.2527V19.1687C105.894 18.586 105.946 18.0977 106.05 17.7039C106.157 17.31 106.309 16.9942 106.504 16.7566C106.699 16.5157 106.934 16.3432 107.207 16.239C107.484 16.1348 107.793 16.0828 108.135 16.0828C108.411 16.0828 108.665 16.1169 108.896 16.1853C109.131 16.2504 109.339 16.3562 109.521 16.5027C109.704 16.6459 109.858 16.838 109.985 17.0789C110.116 17.3165 110.215 17.6078 110.283 17.9529C110.352 18.2979 110.386 18.7032 110.386 19.1687ZM109.478 20.3992V19.0173C109.478 18.6983 109.458 18.4184 109.419 18.1775C109.383 17.9333 109.329 17.725 109.258 17.5525C109.186 17.38 109.095 17.24 108.984 17.1326C108.877 17.0251 108.752 16.947 108.608 16.8982C108.468 16.8461 108.311 16.8201 108.135 16.8201C107.92 16.8201 107.729 16.8608 107.563 16.9421C107.397 17.0203 107.257 17.1456 107.144 17.3181C107.033 17.4906 106.948 17.7169 106.89 17.9968C106.831 18.2768 106.802 18.6169 106.802 19.0173V20.3992C106.802 20.7182 106.82 20.9998 106.855 21.2439C106.895 21.488 106.951 21.6996 107.026 21.8787C107.101 22.0544 107.192 22.1993 107.3 22.3132C107.407 22.4272 107.531 22.5118 107.671 22.5671C107.814 22.6192 107.972 22.6453 108.145 22.6453C108.366 22.6453 108.56 22.6029 108.726 22.5183C108.892 22.4337 109.03 22.3018 109.141 22.1228C109.255 21.9405 109.339 21.7078 109.395 21.4246C109.45 21.1381 109.478 20.7963 109.478 20.3992Z" fill="#32375E"/>
</g>
<g opacity="0.9">
<path d="M196.249 22.5476V23.2898H191.596V22.6404L193.925 20.0476C194.211 19.7286 194.433 19.4584 194.589 19.2371C194.748 19.0125 194.859 18.8123 194.921 18.6365C194.986 18.4574 195.019 18.2751 195.019 18.0896C195.019 17.8552 194.97 17.6436 194.872 17.4548C194.778 17.2628 194.638 17.1098 194.452 16.9958C194.267 16.8819 194.042 16.825 193.778 16.825C193.463 16.825 193.199 16.8868 192.987 17.0105C192.779 17.1309 192.623 17.3002 192.519 17.5183C192.414 17.7364 192.362 17.9871 192.362 18.2703H191.459C191.459 17.8699 191.547 17.5037 191.723 17.1716C191.898 16.8396 192.159 16.5759 192.504 16.3806C192.849 16.182 193.274 16.0828 193.778 16.0828C194.228 16.0828 194.612 16.1625 194.931 16.322C195.25 16.4783 195.494 16.6996 195.663 16.9861C195.836 17.2693 195.922 17.6013 195.922 17.9822C195.922 18.1905 195.886 18.4021 195.814 18.6169C195.746 18.8285 195.65 19.0401 195.526 19.2517C195.406 19.4633 195.264 19.6716 195.102 19.8767C194.942 20.0818 194.771 20.2836 194.589 20.4822L192.685 22.5476H196.249ZM200.683 16.1707H200.761V16.9373H200.683C200.204 16.9373 199.804 17.0154 199.481 17.1716C199.159 17.3246 198.904 17.5313 198.715 17.7917C198.526 18.0489 198.389 18.3386 198.305 18.6609C198.223 18.9832 198.183 19.3103 198.183 19.6423V20.6873C198.183 21.003 198.22 21.283 198.295 21.5271C198.37 21.768 198.472 21.9714 198.603 22.1375C198.733 22.3035 198.879 22.4288 199.042 22.5134C199.208 22.5981 199.381 22.6404 199.56 22.6404C199.768 22.6404 199.953 22.6013 200.116 22.5232C200.279 22.4418 200.416 22.3295 200.526 22.1863C200.64 22.0398 200.727 21.8673 200.785 21.6687C200.844 21.4701 200.873 21.252 200.873 21.0144C200.873 20.8028 200.847 20.5994 200.795 20.4041C200.743 20.2055 200.663 20.0297 200.556 19.8767C200.448 19.7205 200.313 19.5984 200.15 19.5105C199.991 19.4194 199.8 19.3738 199.579 19.3738C199.328 19.3738 199.094 19.4356 198.876 19.5593C198.661 19.6798 198.484 19.8393 198.344 20.0378C198.207 20.2332 198.129 20.4464 198.109 20.6775L197.631 20.6726C197.676 20.308 197.761 19.9972 197.885 19.74C198.012 19.4796 198.168 19.268 198.354 19.1052C198.542 18.9392 198.752 18.8188 198.983 18.7439C199.218 18.6658 199.465 18.6267 199.726 18.6267C200.08 18.6267 200.386 18.6934 200.644 18.8269C200.901 18.9604 201.112 19.1394 201.278 19.364C201.444 19.5854 201.566 19.836 201.645 20.116C201.726 20.3927 201.767 20.6775 201.767 20.9705C201.767 21.3057 201.719 21.6199 201.625 21.9128C201.531 22.2058 201.389 22.463 201.2 22.6843C201.015 22.9057 200.785 23.0782 200.512 23.2019C200.238 23.3256 199.921 23.3875 199.56 23.3875C199.175 23.3875 198.84 23.3093 198.554 23.1531C198.267 22.9936 198.03 22.782 197.841 22.5183C197.652 22.2546 197.51 21.9617 197.416 21.6394C197.322 21.3171 197.274 20.99 197.274 20.658V20.2332C197.274 19.7319 197.325 19.2403 197.426 18.7585C197.527 18.2768 197.701 17.8406 197.948 17.45C198.199 17.0593 198.546 16.7485 198.988 16.5173C199.431 16.2862 199.996 16.1707 200.683 16.1707ZM207.646 20.8972V21.6394H202.509V21.1072L205.692 16.1804H206.43L205.639 17.6062L203.534 20.8972H207.646ZM206.654 16.1804V23.2898H205.751V16.1804H206.654ZM212.929 19.1687V20.2527C212.929 20.8354 212.877 21.3269 212.772 21.7273C212.668 22.1277 212.519 22.45 212.323 22.6941C212.128 22.9382 211.892 23.1156 211.615 23.2263C211.342 23.3337 211.033 23.3875 210.688 23.3875C210.414 23.3875 210.162 23.3533 209.931 23.2849C209.7 23.2166 209.491 23.1075 209.306 22.9578C209.123 22.8048 208.967 22.6062 208.837 22.3621C208.707 22.1179 208.607 21.8217 208.539 21.4734C208.471 21.1251 208.437 20.7182 208.437 20.2527V19.1687C208.437 18.586 208.489 18.0977 208.593 17.7039C208.7 17.31 208.852 16.9942 209.047 16.7566C209.242 16.5157 209.477 16.3432 209.75 16.239C210.027 16.1348 210.336 16.0828 210.678 16.0828C210.954 16.0828 211.208 16.1169 211.439 16.1853C211.674 16.2504 211.882 16.3562 212.064 16.5027C212.247 16.6459 212.401 16.838 212.528 17.0789C212.659 17.3165 212.758 17.6078 212.826 17.9529C212.895 18.2979 212.929 18.7032 212.929 19.1687ZM212.021 20.3992V19.0173C212.021 18.6983 212.001 18.4184 211.962 18.1775C211.926 17.9333 211.872 17.725 211.801 17.5525C211.729 17.38 211.638 17.24 211.527 17.1326C211.42 17.0251 211.295 16.947 211.151 16.8982C211.011 16.8461 210.854 16.8201 210.678 16.8201C210.463 16.8201 210.272 16.8608 210.106 16.9421C209.94 17.0203 209.8 17.1456 209.687 17.3181C209.576 17.4906 209.491 17.7169 209.433 17.9968C209.374 18.2768 209.345 18.6169 209.345 19.0173V20.3992C209.345 20.7182 209.363 20.9998 209.398 21.2439C209.438 21.488 209.494 21.6996 209.569 21.8787C209.644 22.0544 209.735 22.1993 209.843 22.3132C209.95 22.4272 210.074 22.5118 210.214 22.5671C210.357 22.6192 210.515 22.6453 210.688 22.6453C210.909 22.6453 211.103 22.6029 211.269 22.5183C211.435 22.4337 211.573 22.3018 211.684 22.1228C211.798 21.9405 211.882 21.7078 211.938 21.4246C211.993 21.1381 212.021 20.7963 212.021 20.3992Z" fill="#3F7BDA"/>
</g>
<g opacity="0.9">
<path d="M230.825 16.1804H233.179C233.713 16.1804 234.163 16.2618 234.531 16.4246C234.902 16.5873 235.184 16.8282 235.376 17.1472C235.571 17.463 235.669 17.852 235.669 18.3142C235.669 18.6397 235.602 18.9376 235.469 19.2078C235.339 19.4747 235.15 19.7026 234.902 19.8914C234.658 20.0769 234.365 20.2153 234.023 20.3064L233.76 20.4089H231.548L231.538 19.6423H233.208C233.547 19.6423 233.828 19.5837 234.053 19.4666C234.277 19.3461 234.447 19.185 234.561 18.9832C234.674 18.7813 234.731 18.5583 234.731 18.3142C234.731 18.0408 234.678 17.8015 234.57 17.5964C234.463 17.3914 234.294 17.2335 234.062 17.1228C233.835 17.0089 233.54 16.9519 233.179 16.9519H231.768V23.2898H230.825V16.1804ZM234.98 23.2898L233.252 20.0671L234.233 20.0623L235.986 23.2312V23.2898H234.98ZM241.504 22.5232V23.2898H237.739V22.5232H241.504ZM237.93 16.1804V23.2898H236.987V16.1804H237.93ZM241.006 19.2371V20.0037H237.739V19.2371H241.006ZM241.455 16.1804V16.9519H237.739V16.1804H241.455ZM246.963 21.0291H247.9C247.852 21.4783 247.723 21.8803 247.515 22.2351C247.306 22.5899 247.012 22.8715 246.631 23.0798C246.25 23.2849 245.775 23.3875 245.205 23.3875C244.788 23.3875 244.409 23.3093 244.067 23.1531C243.729 22.9968 243.438 22.7755 243.193 22.489C242.949 22.1993 242.76 21.8526 242.627 21.449C242.497 21.0421 242.432 20.5896 242.432 20.0916V19.3835C242.432 18.8855 242.497 18.4347 242.627 18.031C242.76 17.6241 242.951 17.2758 243.198 16.9861C243.449 16.6964 243.75 16.4734 244.102 16.3171C244.453 16.1609 244.849 16.0828 245.288 16.0828C245.825 16.0828 246.279 16.1837 246.65 16.3855C247.021 16.5873 247.31 16.8673 247.515 17.2253C247.723 17.5802 247.852 17.9919 247.9 18.4607H246.963C246.917 18.1287 246.833 17.8438 246.709 17.6062C246.585 17.3653 246.41 17.1798 246.182 17.0496C245.954 16.9194 245.656 16.8542 245.288 16.8542C244.972 16.8542 244.694 16.9145 244.453 17.0349C244.215 17.1554 244.015 17.3263 243.853 17.5476C243.693 17.769 243.573 18.0343 243.491 18.3435C243.41 18.6528 243.369 18.9962 243.369 19.3738V20.0916C243.369 20.4399 243.405 20.767 243.477 21.073C243.551 21.379 243.664 21.6475 243.813 21.8787C243.963 22.1098 244.154 22.2921 244.385 22.4255C244.616 22.5557 244.889 22.6208 245.205 22.6208C245.605 22.6208 245.924 22.5574 246.162 22.4304C246.4 22.3035 246.579 22.1212 246.699 21.8835C246.823 21.6459 246.911 21.3611 246.963 21.0291ZM253.252 16.1804H254.189V20.99C254.189 21.5238 254.071 21.9682 253.833 22.323C253.595 22.6778 253.28 22.9447 252.886 23.1238C252.495 23.2996 252.07 23.3875 251.611 23.3875C251.13 23.3875 250.693 23.2996 250.303 23.1238C249.915 22.9447 249.608 22.6778 249.38 22.323C249.155 21.9682 249.043 21.5238 249.043 20.99V16.1804H249.976V20.99C249.976 21.3611 250.044 21.6671 250.181 21.908C250.317 22.1488 250.508 22.3279 250.752 22.4451C250.999 22.5623 251.286 22.6208 251.611 22.6208C251.94 22.6208 252.227 22.5623 252.471 22.4451C252.718 22.3279 252.91 22.1488 253.047 21.908C253.184 21.6671 253.252 21.3611 253.252 20.99V16.1804ZM261.138 16.1804V23.2898H260.19L256.611 17.8064V23.2898H255.669V16.1804H256.611L260.205 21.6785V16.1804H261.138ZM266.597 21.4929C266.597 21.3269 266.571 21.1804 266.519 21.0535C266.47 20.9233 266.382 20.8061 266.255 20.7019C266.131 20.5977 265.959 20.4985 265.737 20.4041C265.519 20.3097 265.243 20.2136 264.907 20.116C264.556 20.0118 264.238 19.8962 263.955 19.7693C263.672 19.6391 263.429 19.491 263.228 19.325C263.026 19.1589 262.871 18.9685 262.764 18.7537C262.656 18.5388 262.603 18.2931 262.603 18.0164C262.603 17.7397 262.66 17.4841 262.773 17.2498C262.887 17.0154 263.05 16.8119 263.262 16.6394C263.477 16.4636 263.732 16.3269 264.028 16.2292C264.325 16.1316 264.655 16.0828 265.02 16.0828C265.553 16.0828 266.006 16.1853 266.377 16.3904C266.751 16.5922 267.036 16.8575 267.231 17.1863C267.427 17.5118 267.524 17.8601 267.524 18.2312H266.587C266.587 17.9643 266.53 17.7283 266.416 17.5232C266.302 17.3149 266.13 17.1521 265.898 17.0349C265.667 16.9145 265.374 16.8542 265.02 16.8542C264.684 16.8542 264.408 16.9047 264.189 17.0056C263.971 17.1065 263.809 17.2432 263.701 17.4158C263.597 17.5883 263.545 17.7852 263.545 18.0066C263.545 18.1563 263.576 18.2931 263.638 18.4167C263.703 18.5372 263.802 18.6495 263.936 18.7537C264.072 18.8578 264.245 18.9539 264.453 19.0417C264.665 19.1296 264.917 19.2143 265.21 19.2957C265.614 19.4096 265.962 19.5365 266.255 19.6765C266.548 19.8165 266.789 19.9744 266.978 20.1501C267.17 20.3227 267.311 20.5196 267.402 20.741C267.497 20.9591 267.544 21.2065 267.544 21.4832C267.544 21.7729 267.485 22.0349 267.368 22.2693C267.251 22.5037 267.083 22.7039 266.865 22.8699C266.647 23.0359 266.385 23.1645 266.079 23.2556C265.776 23.3435 265.438 23.3875 265.063 23.3875C264.735 23.3875 264.411 23.3419 264.092 23.2507C263.776 23.1596 263.488 23.0229 263.228 22.8406C262.97 22.6583 262.764 22.4337 262.607 22.1667C262.454 21.8966 262.378 21.5841 262.378 21.2292H263.315C263.315 21.4734 263.363 21.6833 263.457 21.8591C263.551 22.0317 263.68 22.1749 263.843 22.2888C264.009 22.4028 264.196 22.4874 264.404 22.5427C264.616 22.5948 264.836 22.6208 265.063 22.6208C265.392 22.6208 265.671 22.5753 265.898 22.4841C266.126 22.393 266.299 22.2628 266.416 22.0935C266.536 21.9242 266.597 21.724 266.597 21.4929ZM270.488 19.8962V20.6384H268.105V19.8962H270.488ZM272.417 19.906L271.694 19.7205L272.051 16.1804H275.698V17.0154H272.817L272.603 18.949C272.733 18.8741 272.897 18.8041 273.096 18.739C273.298 18.6739 273.529 18.6414 273.789 18.6414C274.118 18.6414 274.412 18.6983 274.673 18.8123C274.933 18.9229 275.155 19.0824 275.337 19.2908C275.522 19.4991 275.664 19.7498 275.762 20.0427C275.859 20.3357 275.908 20.6628 275.908 21.0242C275.908 21.366 275.861 21.6801 275.767 21.9666C275.675 22.253 275.537 22.5037 275.352 22.7185C275.166 22.9301 274.932 23.0945 274.648 23.2117C274.368 23.3289 274.038 23.3875 273.657 23.3875C273.371 23.3875 273.099 23.3484 272.842 23.2703C272.588 23.1889 272.36 23.0668 272.158 22.9041C271.96 22.738 271.797 22.533 271.67 22.2888C271.546 22.0414 271.468 21.7517 271.436 21.4197H272.295C272.334 21.6866 272.412 21.9112 272.529 22.0935C272.646 22.2758 272.799 22.4141 272.988 22.5085C273.18 22.5997 273.403 22.6453 273.657 22.6453C273.872 22.6453 274.062 22.6078 274.229 22.533C274.395 22.4581 274.535 22.3507 274.648 22.2107C274.762 22.0707 274.849 21.9014 274.907 21.7029C274.969 21.5043 275 21.2813 275 21.0339C275 20.8093 274.969 20.601 274.907 20.4089C274.845 20.2169 274.753 20.0492 274.629 19.906C274.508 19.7628 274.36 19.6521 274.185 19.574C274.009 19.4926 273.807 19.4519 273.579 19.4519C273.276 19.4519 273.047 19.4926 272.891 19.574C272.738 19.6554 272.58 19.766 272.417 19.906ZM278.042 19.906L277.319 19.7205L277.676 16.1804H281.323V17.0154H278.442L278.228 18.949C278.358 18.8741 278.522 18.8041 278.721 18.739C278.923 18.6739 279.154 18.6414 279.414 18.6414C279.743 18.6414 280.037 18.6983 280.298 18.8123C280.558 18.9229 280.78 19.0824 280.962 19.2908C281.147 19.4991 281.289 19.7498 281.387 20.0427C281.484 20.3357 281.533 20.6628 281.533 21.0242C281.533 21.366 281.486 21.6801 281.392 21.9666C281.3 22.253 281.162 22.5037 280.977 22.7185C280.791 22.9301 280.557 23.0945 280.273 23.2117C279.993 23.3289 279.663 23.3875 279.282 23.3875C278.996 23.3875 278.724 23.3484 278.467 23.2703C278.213 23.1889 277.985 23.0668 277.783 22.9041C277.585 22.738 277.422 22.533 277.295 22.2888C277.171 22.0414 277.093 21.7517 277.061 21.4197H277.92C277.959 21.6866 278.037 21.9112 278.154 22.0935C278.271 22.2758 278.424 22.4141 278.613 22.5085C278.805 22.5997 279.028 22.6453 279.282 22.6453C279.497 22.6453 279.688 22.6078 279.854 22.533C280.02 22.4581 280.16 22.3507 280.273 22.2107C280.387 22.0707 280.474 21.9014 280.532 21.7029C280.594 21.5043 280.625 21.2813 280.625 21.0339C280.625 20.8093 280.594 20.601 280.532 20.4089C280.47 20.2169 280.378 20.0492 280.254 19.906C280.133 19.7628 279.985 19.6521 279.81 19.574C279.634 19.4926 279.432 19.4519 279.204 19.4519C278.901 19.4519 278.672 19.4926 278.516 19.574C278.363 19.6554 278.205 19.766 278.042 19.906Z" fill="#32375E"/>
</g>
<path d="M327 14.2898C327 10.9761 329.686 8.28979 333 8.28979H345C348.314 8.28979 351 10.9761 351 14.2898V26.2898C351 29.6035 348.314 32.2898 345 32.2898H333C329.686 32.2898 327 29.6035 327 26.2898V14.2898Z" fill="#F0F5F9"/>
<path d="M332.855 17.1023H333.586L335.449 21.739L337.309 17.1023H338.043L335.73 22.7898H335.16L332.855 17.1023ZM332.617 17.1023H333.262L333.367 20.571V22.7898H332.617V17.1023ZM337.633 17.1023H338.277V22.7898H337.527V20.571L337.633 17.1023ZM341.098 21.071L342.227 17.1023H342.773L342.457 18.6453L341.242 22.7898H340.699L341.098 21.071ZM339.93 17.1023L340.828 20.9929L341.098 22.7898H340.559L339.18 17.1023H339.93ZM344.234 20.989L345.113 17.1023H345.867L344.492 22.7898H343.953L344.234 20.989ZM342.855 17.1023L343.953 21.071L344.352 22.7898H343.809L342.637 18.6453L342.316 17.1023H342.855Z" fill="#32375E"/>
<path d="M361.156 14.071L362.285 10.1023H362.832L362.516 11.6453L361.301 15.7898H360.758L361.156 14.071ZM359.988 10.1023L360.887 13.9929L361.156 15.7898H360.617L359.238 10.1023H359.988ZM364.293 13.989L365.172 10.1023H365.926L364.551 15.7898H364.012L364.293 13.989ZM362.914 10.1023L364.012 14.071L364.41 15.7898H363.867L362.695 11.6453L362.375 10.1023H362.914ZM369.012 15.0671V12.8914C369.012 12.7247 368.978 12.5802 368.91 12.4578C368.845 12.3328 368.746 12.2364 368.613 12.1687C368.48 12.101 368.316 12.0671 368.121 12.0671C367.939 12.0671 367.779 12.0984 367.641 12.1609C367.505 12.2234 367.398 12.3054 367.32 12.407C367.245 12.5085 367.207 12.6179 367.207 12.7351H366.484C366.484 12.5841 366.523 12.4343 366.602 12.2859C366.68 12.1375 366.792 12.0033 366.938 11.8835C367.086 11.7611 367.263 11.6648 367.469 11.5945C367.677 11.5216 367.909 11.4851 368.164 11.4851C368.471 11.4851 368.742 11.5372 368.977 11.6414C369.214 11.7455 369.398 11.9031 369.531 12.114C369.667 12.3223 369.734 12.5841 369.734 12.8992V14.8679C369.734 15.0085 369.746 15.1583 369.77 15.3171C369.796 15.476 369.833 15.6127 369.883 15.7273V15.7898H369.129C369.092 15.7065 369.064 15.5958 369.043 15.4578C369.022 15.3171 369.012 15.1869 369.012 15.0671ZM369.137 13.2273L369.145 13.7351H368.414C368.208 13.7351 368.025 13.752 367.863 13.7859C367.702 13.8171 367.566 13.8653 367.457 13.9304C367.348 13.9955 367.264 14.0776 367.207 14.1765C367.15 14.2729 367.121 14.3861 367.121 14.5164C367.121 14.6492 367.151 14.7703 367.211 14.8796C367.271 14.989 367.361 15.0763 367.48 15.1414C367.603 15.2039 367.753 15.2351 367.93 15.2351C368.151 15.2351 368.346 15.1882 368.516 15.0945C368.685 15.0007 368.819 14.8861 368.918 14.7507C369.02 14.6153 369.074 14.4838 369.082 14.3562L369.391 14.7039C369.372 14.8132 369.323 14.9343 369.242 15.0671C369.161 15.2 369.053 15.3276 368.918 15.45C368.785 15.5697 368.626 15.67 368.441 15.7507C368.259 15.8289 368.053 15.8679 367.824 15.8679C367.538 15.8679 367.286 15.8119 367.07 15.7C366.857 15.588 366.69 15.4382 366.57 15.2507C366.453 15.0606 366.395 14.8484 366.395 14.614C366.395 14.3875 366.439 14.1882 366.527 14.0164C366.616 13.8419 366.743 13.6973 366.91 13.5828C367.077 13.4656 367.277 13.377 367.512 13.3171C367.746 13.2572 368.008 13.2273 368.297 13.2273H369.137ZM371.996 15.3523L373.172 11.5632H373.945L372.25 16.4421C372.211 16.5463 372.159 16.6583 372.094 16.7781C372.031 16.9005 371.951 17.0164 371.852 17.1257C371.753 17.2351 371.633 17.3236 371.492 17.3914C371.354 17.4617 371.189 17.4968 370.996 17.4968C370.939 17.4968 370.866 17.489 370.777 17.4734C370.689 17.4578 370.626 17.4447 370.59 17.4343L370.586 16.8484C370.607 16.851 370.639 16.8536 370.684 16.8562C370.73 16.8614 370.763 16.864 370.781 16.864C370.945 16.864 371.085 16.8419 371.199 16.7976C371.314 16.7559 371.41 16.6843 371.488 16.5828C371.569 16.4838 371.638 16.3471 371.695 16.1726L371.996 15.3523ZM371.133 11.5632L372.23 14.8445L372.418 15.6062L371.898 15.8718L370.344 11.5632H371.133ZM375.32 12.4656V15.7898H374.598V11.5632H375.281L375.32 12.4656ZM375.148 13.5164L374.848 13.5046C374.85 13.2156 374.893 12.9486 374.977 12.7039C375.06 12.4565 375.177 12.2416 375.328 12.0593C375.479 11.877 375.659 11.7364 375.867 11.6375C376.078 11.5359 376.311 11.4851 376.566 11.4851C376.775 11.4851 376.962 11.5138 377.129 11.571C377.296 11.6257 377.438 11.7143 377.555 11.8367C377.674 11.9591 377.766 12.1179 377.828 12.3132C377.891 12.5059 377.922 12.7416 377.922 13.0203V15.7898H377.195V13.0125C377.195 12.7911 377.163 12.614 377.098 12.4812C377.033 12.3458 376.938 12.2481 376.812 12.1882C376.688 12.1257 376.534 12.0945 376.352 12.0945C376.172 12.0945 376.008 12.1322 375.859 12.2078C375.714 12.2833 375.587 12.3875 375.48 12.5203C375.376 12.6531 375.294 12.8054 375.234 12.9773C375.177 13.1466 375.148 13.3263 375.148 13.5164ZM380.773 15.8679C380.479 15.8679 380.212 15.8184 379.973 15.7195C379.736 15.6179 379.531 15.476 379.359 15.2937C379.19 15.1114 379.06 14.8953 378.969 14.6453C378.878 14.3953 378.832 14.1218 378.832 13.825V13.6609C378.832 13.3171 378.883 13.0111 378.984 12.7429C379.086 12.4721 379.224 12.2429 379.398 12.0554C379.573 11.8679 379.771 11.726 379.992 11.6296C380.214 11.5333 380.443 11.4851 380.68 11.4851C380.982 11.4851 381.242 11.5372 381.461 11.6414C381.682 11.7455 381.863 11.8914 382.004 12.0789C382.145 12.2638 382.249 12.4825 382.316 12.7351C382.384 12.9851 382.418 13.2585 382.418 13.5554V13.8796H379.262V13.2898H381.695V13.2351C381.685 13.0476 381.646 12.8653 381.578 12.6882C381.513 12.5111 381.409 12.3653 381.266 12.2507C381.122 12.1361 380.927 12.0789 380.68 12.0789C380.516 12.0789 380.365 12.114 380.227 12.1843C380.089 12.252 379.97 12.3536 379.871 12.489C379.772 12.6244 379.695 12.7898 379.641 12.9851C379.586 13.1804 379.559 13.4057 379.559 13.6609V13.825C379.559 14.0255 379.586 14.2143 379.641 14.3914C379.698 14.5658 379.78 14.7195 379.887 14.8523C379.996 14.9851 380.128 15.0893 380.281 15.1648C380.438 15.2403 380.615 15.2781 380.812 15.2781C381.068 15.2781 381.284 15.226 381.461 15.1218C381.638 15.0177 381.793 14.8783 381.926 14.7039L382.363 15.0515C382.272 15.1895 382.156 15.321 382.016 15.446C381.875 15.571 381.702 15.6726 381.496 15.7507C381.293 15.8289 381.052 15.8679 380.773 15.8679ZM388.969 15.1765V15.7898H385.957V15.1765H388.969ZM386.109 10.1023V15.7898H385.355V10.1023H386.109ZM388.57 12.5476V13.1609H385.957V12.5476H388.57ZM388.93 10.1023V10.7195H385.957V10.1023H388.93ZM390.516 12.4656V15.7898H389.793V11.5632H390.477L390.516 12.4656ZM390.344 13.5164L390.043 13.5046C390.046 13.2156 390.089 12.9486 390.172 12.7039C390.255 12.4565 390.372 12.2416 390.523 12.0593C390.674 11.877 390.854 11.7364 391.062 11.6375C391.273 11.5359 391.507 11.4851 391.762 11.4851C391.97 11.4851 392.158 11.5138 392.324 11.571C392.491 11.6257 392.633 11.7143 392.75 11.8367C392.87 11.9591 392.961 12.1179 393.023 12.3132C393.086 12.5059 393.117 12.7416 393.117 13.0203V15.7898H392.391V13.0125C392.391 12.7911 392.358 12.614 392.293 12.4812C392.228 12.3458 392.133 12.2481 392.008 12.1882C391.883 12.1257 391.729 12.0945 391.547 12.0945C391.367 12.0945 391.203 12.1322 391.055 12.2078C390.909 12.2833 390.783 12.3875 390.676 12.5203C390.572 12.6531 390.49 12.8054 390.43 12.9773C390.372 13.1466 390.344 13.3263 390.344 13.5164ZM395.984 11.5632V12.1179H393.699V11.5632H395.984ZM394.473 10.5359H395.195V14.7429C395.195 14.8861 395.217 14.9942 395.262 15.0671C395.306 15.1401 395.363 15.1882 395.434 15.2117C395.504 15.2351 395.579 15.2468 395.66 15.2468C395.72 15.2468 395.783 15.2416 395.848 15.2312C395.915 15.2182 395.966 15.2078 396 15.2L396.004 15.7898C395.947 15.808 395.871 15.825 395.777 15.8406C395.686 15.8588 395.576 15.8679 395.445 15.8679C395.268 15.8679 395.105 15.8328 394.957 15.7625C394.809 15.6921 394.69 15.575 394.602 15.4109C394.516 15.2442 394.473 15.0203 394.473 14.739V10.5359ZM398.586 15.8679C398.292 15.8679 398.025 15.8184 397.785 15.7195C397.548 15.6179 397.344 15.476 397.172 15.2937C397.003 15.1114 396.872 14.8953 396.781 14.6453C396.69 14.3953 396.645 14.1218 396.645 13.825V13.6609C396.645 13.3171 396.695 13.0111 396.797 12.7429C396.898 12.4721 397.036 12.2429 397.211 12.0554C397.385 11.8679 397.583 11.726 397.805 11.6296C398.026 11.5333 398.255 11.4851 398.492 11.4851C398.794 11.4851 399.055 11.5372 399.273 11.6414C399.495 11.7455 399.676 11.8914 399.816 12.0789C399.957 12.2638 400.061 12.4825 400.129 12.7351C400.197 12.9851 400.23 13.2585 400.23 13.5554V13.8796H397.074V13.2898H399.508V13.2351C399.497 13.0476 399.458 12.8653 399.391 12.6882C399.326 12.5111 399.221 12.3653 399.078 12.2507C398.935 12.1361 398.74 12.0789 398.492 12.0789C398.328 12.0789 398.177 12.114 398.039 12.1843C397.901 12.252 397.783 12.3536 397.684 12.489C397.585 12.6244 397.508 12.7898 397.453 12.9851C397.398 13.1804 397.371 13.4057 397.371 13.6609V13.825C397.371 14.0255 397.398 14.2143 397.453 14.3914C397.51 14.5658 397.592 14.7195 397.699 14.8523C397.809 14.9851 397.94 15.0893 398.094 15.1648C398.25 15.2403 398.427 15.2781 398.625 15.2781C398.88 15.2781 399.096 15.226 399.273 15.1218C399.451 15.0177 399.605 14.8783 399.738 14.7039L400.176 15.0515C400.085 15.1895 399.969 15.321 399.828 15.446C399.688 15.571 399.514 15.6726 399.309 15.7507C399.105 15.8289 398.865 15.8679 398.586 15.8679ZM401.797 12.2273V15.7898H401.074V11.5632H401.777L401.797 12.2273ZM403.117 11.5398L403.113 12.2117C403.053 12.1986 402.996 12.1908 402.941 12.1882C402.889 12.183 402.829 12.1804 402.762 12.1804C402.595 12.1804 402.448 12.2065 402.32 12.2585C402.193 12.3106 402.085 12.3835 401.996 12.4773C401.908 12.571 401.837 12.683 401.785 12.8132C401.736 12.9408 401.703 13.0815 401.688 13.2351L401.484 13.3523C401.484 13.0971 401.509 12.8575 401.559 12.6335C401.611 12.4096 401.69 12.2117 401.797 12.0398C401.904 11.8653 402.039 11.7299 402.203 11.6335C402.37 11.5346 402.568 11.4851 402.797 11.4851C402.849 11.4851 402.909 11.4916 402.977 11.5046C403.044 11.5151 403.091 11.5268 403.117 11.5398ZM404.508 12.3757V17.4148H403.781V11.5632H404.445L404.508 12.3757ZM407.355 13.6414V13.7234C407.355 14.0307 407.319 14.3158 407.246 14.5789C407.173 14.8393 407.066 15.0658 406.926 15.2585C406.788 15.4513 406.617 15.601 406.414 15.7078C406.211 15.8145 405.978 15.8679 405.715 15.8679C405.447 15.8679 405.21 15.8236 405.004 15.7351C404.798 15.6466 404.624 15.5177 404.48 15.3484C404.337 15.1791 404.223 14.976 404.137 14.739C404.053 14.502 403.996 14.2351 403.965 13.9382V13.5007C403.996 13.1882 404.055 12.9083 404.141 12.6609C404.227 12.4135 404.34 12.2026 404.48 12.0281C404.624 11.851 404.797 11.7169 405 11.6257C405.203 11.532 405.438 11.4851 405.703 11.4851C405.969 11.4851 406.204 11.5372 406.41 11.6414C406.616 11.7429 406.789 11.8888 406.93 12.0789C407.07 12.269 407.176 12.4968 407.246 12.7625C407.319 13.0255 407.355 13.3184 407.355 13.6414ZM406.629 13.7234V13.6414C406.629 13.4304 406.607 13.2325 406.562 13.0476C406.518 12.8601 406.449 12.696 406.355 12.5554C406.264 12.4122 406.147 12.3002 406.004 12.2195C405.861 12.1361 405.69 12.0945 405.492 12.0945C405.31 12.0945 405.151 12.1257 405.016 12.1882C404.883 12.2507 404.77 12.3354 404.676 12.4421C404.582 12.5463 404.505 12.6661 404.445 12.8015C404.388 12.9343 404.345 13.0723 404.316 13.2156V14.2273C404.368 14.4096 404.441 14.5815 404.535 14.7429C404.629 14.9018 404.754 15.0307 404.91 15.1296C405.066 15.226 405.263 15.2742 405.5 15.2742C405.695 15.2742 405.863 15.2338 406.004 15.1531C406.147 15.0697 406.264 14.9565 406.355 14.8132C406.449 14.67 406.518 14.5059 406.562 14.321C406.607 14.1335 406.629 13.9343 406.629 13.7234ZM409 12.2273V15.7898H408.277V11.5632H408.98L409 12.2273ZM410.32 11.5398L410.316 12.2117C410.257 12.1986 410.199 12.1908 410.145 12.1882C410.092 12.183 410.033 12.1804 409.965 12.1804C409.798 12.1804 409.651 12.2065 409.523 12.2585C409.396 12.3106 409.288 12.3835 409.199 12.4773C409.111 12.571 409.04 12.683 408.988 12.8132C408.939 12.9408 408.906 13.0815 408.891 13.2351L408.688 13.3523C408.688 13.0971 408.712 12.8575 408.762 12.6335C408.814 12.4096 408.893 12.2117 409 12.0398C409.107 11.8653 409.242 11.7299 409.406 11.6335C409.573 11.5346 409.771 11.4851 410 11.4851C410.052 11.4851 410.112 11.4916 410.18 11.5046C410.247 11.5151 410.294 11.5268 410.32 11.5398ZM411.773 11.5632V15.7898H411.047V11.5632H411.773ZM410.992 10.4421C410.992 10.325 411.027 10.226 411.098 10.1453C411.171 10.0645 411.277 10.0242 411.418 10.0242C411.556 10.0242 411.661 10.0645 411.734 10.1453C411.81 10.226 411.848 10.325 411.848 10.4421C411.848 10.5541 411.81 10.6505 411.734 10.7312C411.661 10.8093 411.556 10.8484 411.418 10.8484C411.277 10.8484 411.171 10.8093 411.098 10.7312C411.027 10.6505 410.992 10.5541 410.992 10.4421ZM415.395 14.6687C415.395 14.5645 415.371 14.4682 415.324 14.3796C415.28 14.2885 415.188 14.2065 415.047 14.1335C414.909 14.058 414.701 13.9929 414.422 13.9382C414.188 13.8888 413.975 13.8302 413.785 13.7625C413.598 13.6947 413.438 13.6127 413.305 13.5164C413.174 13.42 413.074 13.3067 413.004 13.1765C412.934 13.0463 412.898 12.894 412.898 12.7195C412.898 12.5528 412.935 12.3953 413.008 12.2468C413.083 12.0984 413.189 11.9669 413.324 11.8523C413.462 11.7377 413.628 11.6479 413.82 11.5828C414.013 11.5177 414.228 11.4851 414.465 11.4851C414.803 11.4851 415.092 11.545 415.332 11.6648C415.572 11.7846 415.755 11.9447 415.883 12.1453C416.01 12.3432 416.074 12.5632 416.074 12.8054H415.352C415.352 12.6882 415.316 12.575 415.246 12.4656C415.178 12.3536 415.078 12.2611 414.945 12.1882C414.815 12.1153 414.655 12.0789 414.465 12.0789C414.264 12.0789 414.102 12.1101 413.977 12.1726C413.854 12.2325 413.764 12.3093 413.707 12.4031C413.652 12.4968 413.625 12.5958 413.625 12.7C413.625 12.7781 413.638 12.8484 413.664 12.9109C413.693 12.9708 413.742 13.0268 413.812 13.0789C413.883 13.1283 413.982 13.1752 414.109 13.2195C414.237 13.2638 414.4 13.308 414.598 13.3523C414.944 13.4304 415.229 13.5242 415.453 13.6335C415.677 13.7429 415.844 13.877 415.953 14.0359C416.062 14.1947 416.117 14.3875 416.117 14.614C416.117 14.7989 416.078 14.9682 416 15.1218C415.924 15.2755 415.814 15.4083 415.668 15.5203C415.525 15.6296 415.353 15.7156 415.152 15.7781C414.954 15.838 414.732 15.8679 414.484 15.8679C414.112 15.8679 413.797 15.8015 413.539 15.6687C413.281 15.5359 413.086 15.364 412.953 15.1531C412.82 14.9421 412.754 14.7195 412.754 14.4851H413.48C413.491 14.683 413.548 14.8406 413.652 14.9578C413.757 15.0723 413.884 15.1544 414.035 15.2039C414.186 15.2507 414.336 15.2742 414.484 15.2742C414.682 15.2742 414.848 15.2481 414.98 15.196C415.116 15.144 415.219 15.0723 415.289 14.9812C415.359 14.8901 415.395 14.7859 415.395 14.6687ZM418.82 15.8679C418.526 15.8679 418.259 15.8184 418.02 15.7195C417.783 15.6179 417.578 15.476 417.406 15.2937C417.237 15.1114 417.107 14.8953 417.016 14.6453C416.924 14.3953 416.879 14.1218 416.879 13.825V13.6609C416.879 13.3171 416.93 13.0111 417.031 12.7429C417.133 12.4721 417.271 12.2429 417.445 12.0554C417.62 11.8679 417.818 11.726 418.039 11.6296C418.26 11.5333 418.49 11.4851 418.727 11.4851C419.029 11.4851 419.289 11.5372 419.508 11.6414C419.729 11.7455 419.91 11.8914 420.051 12.0789C420.191 12.2638 420.296 12.4825 420.363 12.7351C420.431 12.9851 420.465 13.2585 420.465 13.5554V13.8796H417.309V13.2898H419.742V13.2351C419.732 13.0476 419.693 12.8653 419.625 12.6882C419.56 12.5111 419.456 12.3653 419.312 12.2507C419.169 12.1361 418.974 12.0789 418.727 12.0789C418.562 12.0789 418.411 12.114 418.273 12.1843C418.135 12.252 418.017 12.3536 417.918 12.489C417.819 12.6244 417.742 12.7898 417.688 12.9851C417.633 13.1804 417.605 13.4057 417.605 13.6609V13.825C417.605 14.0255 417.633 14.2143 417.688 14.3914C417.745 14.5658 417.827 14.7195 417.934 14.8523C418.043 14.9851 418.174 15.0893 418.328 15.1648C418.484 15.2403 418.661 15.2781 418.859 15.2781C419.115 15.2781 419.331 15.226 419.508 15.1218C419.685 15.0177 419.84 14.8783 419.973 14.7039L420.41 15.0515C420.319 15.1895 420.203 15.321 420.062 15.446C419.922 15.571 419.749 15.6726 419.543 15.7507C419.34 15.8289 419.099 15.8679 418.82 15.8679ZM423.77 14.6687C423.77 14.5645 423.746 14.4682 423.699 14.3796C423.655 14.2885 423.562 14.2065 423.422 14.1335C423.284 14.058 423.076 13.9929 422.797 13.9382C422.562 13.8888 422.35 13.8302 422.16 13.7625C421.973 13.6947 421.812 13.6127 421.68 13.5164C421.549 13.42 421.449 13.3067 421.379 13.1765C421.309 13.0463 421.273 12.894 421.273 12.7195C421.273 12.5528 421.31 12.3953 421.383 12.2468C421.458 12.0984 421.564 11.9669 421.699 11.8523C421.837 11.7377 422.003 11.6479 422.195 11.5828C422.388 11.5177 422.603 11.4851 422.84 11.4851C423.178 11.4851 423.467 11.545 423.707 11.6648C423.947 11.7846 424.13 11.9447 424.258 12.1453C424.385 12.3432 424.449 12.5632 424.449 12.8054H423.727C423.727 12.6882 423.691 12.575 423.621 12.4656C423.553 12.3536 423.453 12.2611 423.32 12.1882C423.19 12.1153 423.03 12.0789 422.84 12.0789C422.639 12.0789 422.477 12.1101 422.352 12.1726C422.229 12.2325 422.139 12.3093 422.082 12.4031C422.027 12.4968 422 12.5958 422 12.7C422 12.7781 422.013 12.8484 422.039 12.9109C422.068 12.9708 422.117 13.0268 422.188 13.0789C422.258 13.1283 422.357 13.1752 422.484 13.2195C422.612 13.2638 422.775 13.308 422.973 13.3523C423.319 13.4304 423.604 13.5242 423.828 13.6335C424.052 13.7429 424.219 13.877 424.328 14.0359C424.438 14.1947 424.492 14.3875 424.492 14.614C424.492 14.7989 424.453 14.9682 424.375 15.1218C424.299 15.2755 424.189 15.4083 424.043 15.5203C423.9 15.6296 423.728 15.7156 423.527 15.7781C423.329 15.838 423.107 15.8679 422.859 15.8679C422.487 15.8679 422.172 15.8015 421.914 15.6687C421.656 15.5359 421.461 15.364 421.328 15.1531C421.195 14.9421 421.129 14.7195 421.129 14.4851H421.855C421.866 14.683 421.923 14.8406 422.027 14.9578C422.132 15.0723 422.259 15.1544 422.41 15.2039C422.561 15.2507 422.711 15.2742 422.859 15.2742C423.057 15.2742 423.223 15.2481 423.355 15.196C423.491 15.144 423.594 15.0723 423.664 14.9812C423.734 14.8901 423.77 14.7859 423.77 14.6687Z" fill="#656A91"/>
<path d="M362.457 22.3103L360.104 28.7898H359.142L361.852 21.6804H362.472L362.457 22.3103ZM364.43 28.7898L362.071 22.3103L362.057 21.6804H362.677L365.396 28.7898H364.43ZM364.308 26.158V26.9294H360.313V26.158H364.308ZM367.115 24.6345V28.7898H366.212V23.5066H367.066L367.115 24.6345ZM366.9 25.948L366.524 25.9333C366.528 25.572 366.581 25.2384 366.686 24.9324C366.79 24.6231 366.936 24.3546 367.125 24.1267C367.314 23.8988 367.538 23.7231 367.799 23.5994C368.062 23.4724 368.354 23.4089 368.673 23.4089C368.933 23.4089 369.168 23.4447 369.376 23.5164C369.584 23.5847 369.762 23.6954 369.908 23.8484C370.058 24.0014 370.172 24.2 370.25 24.4441C370.328 24.685 370.367 24.9796 370.367 25.3279V28.7898H369.459V25.3181C369.459 25.0414 369.418 24.8201 369.337 24.6541C369.256 24.4848 369.137 24.3627 368.98 24.2878C368.824 24.2097 368.632 24.1707 368.404 24.1707C368.18 24.1707 367.975 24.2179 367.789 24.3123C367.607 24.4067 367.449 24.5369 367.315 24.7029C367.185 24.8689 367.083 25.0593 367.008 25.2742C366.936 25.4858 366.9 25.7104 366.9 25.948ZM373.951 23.5066V24.2H371.095V23.5066H373.951ZM372.062 22.2224H372.965V27.4812C372.965 27.6602 372.993 27.7953 373.048 27.8865C373.103 27.9776 373.175 28.0378 373.263 28.0671C373.351 28.0964 373.445 28.1111 373.546 28.1111C373.621 28.1111 373.699 28.1046 373.78 28.0916C373.865 28.0753 373.928 28.0623 373.971 28.0525L373.976 28.7898C373.904 28.8126 373.81 28.8337 373.692 28.8533C373.578 28.8761 373.44 28.8875 373.277 28.8875C373.056 28.8875 372.853 28.8435 372.667 28.7556C372.481 28.6677 372.333 28.5212 372.223 28.3162C372.115 28.1078 372.062 27.8279 372.062 27.4763V22.2224ZM375.914 21.2898V28.7898H375.011V21.2898H375.914ZM375.699 25.948L375.323 25.9333C375.326 25.572 375.38 25.2384 375.484 24.9324C375.589 24.6231 375.735 24.3546 375.924 24.1267C376.113 23.8988 376.337 23.7231 376.598 23.5994C376.861 23.4724 377.153 23.4089 377.472 23.4089C377.732 23.4089 377.966 23.4447 378.175 23.5164C378.383 23.5847 378.561 23.6954 378.707 23.8484C378.857 24.0014 378.971 24.2 379.049 24.4441C379.127 24.685 379.166 24.9796 379.166 25.3279V28.7898H378.258V25.3181C378.258 25.0414 378.217 24.8201 378.136 24.6541C378.054 24.4848 377.936 24.3627 377.779 24.2878C377.623 24.2097 377.431 24.1707 377.203 24.1707C376.979 24.1707 376.773 24.2179 376.588 24.3123C376.406 24.4067 376.248 24.5369 376.114 24.7029C375.984 24.8689 375.882 25.0593 375.807 25.2742C375.735 25.4858 375.699 25.7104 375.699 25.948ZM380.279 26.2068V26.0945C380.279 25.7136 380.335 25.3604 380.445 25.0349C380.556 24.7061 380.715 24.4213 380.924 24.1804C381.132 23.9363 381.384 23.7475 381.681 23.614C381.977 23.4773 382.309 23.4089 382.677 23.4089C383.048 23.4089 383.382 23.4773 383.678 23.614C383.977 23.7475 384.231 23.9363 384.439 24.1804C384.651 24.4213 384.812 24.7061 384.923 25.0349C385.034 25.3604 385.089 25.7136 385.089 26.0945V26.2068C385.089 26.5876 385.034 26.9408 384.923 27.2664C384.812 27.5919 384.651 27.8767 384.439 28.1208C384.231 28.3617 383.979 28.5505 383.683 28.6873C383.39 28.8207 383.058 28.8875 382.687 28.8875C382.315 28.8875 381.982 28.8207 381.686 28.6873C381.389 28.5505 381.135 28.3617 380.924 28.1208C380.715 27.8767 380.556 27.5919 380.445 27.2664C380.335 26.9408 380.279 26.5876 380.279 26.2068ZM381.183 26.0945V26.2068C381.183 26.4705 381.214 26.7195 381.275 26.9539C381.337 27.185 381.43 27.3901 381.554 27.5691C381.681 27.7481 381.839 27.8897 382.027 27.9939C382.216 28.0948 382.436 28.1453 382.687 28.1453C382.934 28.1453 383.15 28.0948 383.336 27.9939C383.525 27.8897 383.681 27.7481 383.805 27.5691C383.928 27.3901 384.021 27.185 384.083 26.9539C384.148 26.7195 384.181 26.4705 384.181 26.2068V26.0945C384.181 25.8341 384.148 25.5883 384.083 25.3572C384.021 25.1228 383.927 24.9161 383.8 24.7371C383.676 24.5548 383.52 24.4115 383.331 24.3074C383.146 24.2032 382.927 24.1511 382.677 24.1511C382.429 24.1511 382.211 24.2032 382.022 24.3074C381.837 24.4115 381.681 24.5548 381.554 24.7371C381.43 24.9161 381.337 25.1228 381.275 25.3572C381.214 25.5883 381.183 25.8341 381.183 26.0945ZM387.125 24.6345V28.7898H386.222V23.5066H387.076L387.125 24.6345ZM386.91 25.948L386.534 25.9333C386.537 25.572 386.591 25.2384 386.695 24.9324C386.799 24.6231 386.946 24.3546 387.135 24.1267C387.324 23.8988 387.548 23.7231 387.809 23.5994C388.072 23.4724 388.364 23.4089 388.683 23.4089C388.943 23.4089 389.177 23.4447 389.386 23.5164C389.594 23.5847 389.771 23.6954 389.918 23.8484C390.068 24.0014 390.182 24.2 390.26 24.4441C390.338 24.685 390.377 24.9796 390.377 25.3279V28.7898H389.469V25.3181C389.469 25.0414 389.428 24.8201 389.347 24.6541C389.265 24.4848 389.146 24.3627 388.99 24.2878C388.834 24.2097 388.642 24.1707 388.414 24.1707C388.189 24.1707 387.984 24.2179 387.799 24.3123C387.617 24.4067 387.459 24.5369 387.325 24.7029C387.195 24.8689 387.092 25.0593 387.018 25.2742C386.946 25.4858 386.91 25.7104 386.91 25.948ZM393.233 28.2429L394.703 23.5066H395.67L393.551 29.6052C393.502 29.7354 393.437 29.8754 393.355 30.0251C393.277 30.1781 393.176 30.323 393.053 30.4597C392.929 30.5964 392.779 30.7071 392.604 30.7917C392.431 30.8796 392.224 30.9236 391.983 30.9236C391.912 30.9236 391.821 30.9138 391.71 30.8943C391.599 30.8748 391.521 30.8585 391.476 30.8455L391.471 30.113C391.497 30.1163 391.537 30.1195 391.593 30.1228C391.651 30.1293 391.692 30.1326 391.715 30.1326C391.92 30.1326 392.094 30.1049 392.237 30.0496C392.381 29.9975 392.501 29.908 392.599 29.781C392.7 29.6573 392.786 29.4864 392.857 29.2683L393.233 28.2429ZM392.154 23.5066L393.526 27.6082L393.761 28.5603L393.111 28.8923L391.168 23.5066H392.154ZM402.75 27.9744L404.557 29.405L403.922 29.991L402.145 28.5798L402.75 27.9744ZM404.532 25.0105V25.4597C404.532 25.9936 404.465 26.4721 404.332 26.8953C404.199 27.3184 404.007 27.6781 403.756 27.9744C403.505 28.2706 403.204 28.4968 402.853 28.6531C402.504 28.8093 402.114 28.8875 401.681 28.8875C401.261 28.8875 400.875 28.8093 400.523 28.6531C400.175 28.4968 399.872 28.2706 399.615 27.9744C399.361 27.6781 399.164 27.3184 399.024 26.8953C398.884 26.4721 398.814 25.9936 398.814 25.4597V25.0105C398.814 24.4766 398.883 23.9998 399.02 23.5798C399.16 23.1567 399.356 22.797 399.61 22.5007C399.864 22.2013 400.165 21.9734 400.514 21.8171C400.865 21.6609 401.251 21.5828 401.671 21.5828C402.104 21.5828 402.496 21.6609 402.848 21.8171C403.199 21.9734 403.5 22.2013 403.751 22.5007C404.002 22.797 404.194 23.1567 404.327 23.5798C404.464 23.9998 404.532 24.4766 404.532 25.0105ZM403.6 25.4597V25.0007C403.6 24.5776 403.556 24.2032 403.468 23.8777C403.383 23.5522 403.258 23.2787 403.092 23.0574C402.926 22.836 402.724 22.6684 402.486 22.5544C402.249 22.4405 401.977 22.3835 401.671 22.3835C401.381 22.3835 401.118 22.4405 400.88 22.5544C400.646 22.6684 400.444 22.836 400.274 23.0574C400.105 23.2787 399.975 23.5522 399.884 23.8777C399.793 24.2032 399.747 24.5776 399.747 25.0007V25.4597C399.747 25.8861 399.793 26.2638 399.884 26.5925C399.975 26.9181 400.105 27.1931 400.274 27.4177C400.447 27.6391 400.652 27.8067 400.89 27.9207C401.127 28.0346 401.391 28.0916 401.681 28.0916C401.987 28.0916 402.258 28.0346 402.496 27.9207C402.734 27.8067 402.934 27.6391 403.097 27.4177C403.263 27.1931 403.388 26.9181 403.473 26.5925C403.557 26.2638 403.6 25.8861 403.6 25.4597ZM409.083 27.5691V23.5066H409.991V28.7898H409.127L409.083 27.5691ZM409.254 26.4558L409.63 26.446C409.63 26.7976 409.592 27.1231 409.518 27.4226C409.446 27.7188 409.329 27.976 409.166 28.1941C409.003 28.4122 408.79 28.5831 408.526 28.7068C408.263 28.8272 407.942 28.8875 407.564 28.8875C407.307 28.8875 407.071 28.85 406.856 28.7751C406.645 28.7003 406.463 28.5847 406.31 28.4285C406.157 28.2722 406.038 28.0688 405.953 27.8181C405.872 27.5675 405.831 27.2664 405.831 26.9148V23.5066H406.734V26.9246C406.734 27.1622 406.76 27.3591 406.812 27.5154C406.868 27.6684 406.941 27.7904 407.032 27.8816C407.127 27.9695 407.231 28.0313 407.345 28.0671C407.462 28.1029 407.582 28.1208 407.706 28.1208C408.09 28.1208 408.395 28.0476 408.619 27.9011C408.844 27.7514 409.005 27.5512 409.103 27.3005C409.203 27.0466 409.254 26.7651 409.254 26.4558ZM412.35 23.5066V28.7898H411.441V23.5066H412.35ZM411.373 22.1052C411.373 21.9587 411.417 21.835 411.505 21.7341C411.596 21.6332 411.729 21.5828 411.905 21.5828C412.078 21.5828 412.21 21.6332 412.301 21.7341C412.395 21.835 412.442 21.9587 412.442 22.1052C412.442 22.2452 412.395 22.3656 412.301 22.4666C412.21 22.5642 412.078 22.613 411.905 22.613C411.729 22.613 411.596 22.5642 411.505 22.4666C411.417 22.3656 411.373 22.2452 411.373 22.1052ZM414.703 24.6345V28.7898H413.8V23.5066H414.654L414.703 24.6345ZM414.488 25.948L414.112 25.9333C414.116 25.572 414.169 25.2384 414.273 24.9324C414.378 24.6231 414.524 24.3546 414.713 24.1267C414.902 23.8988 415.126 23.7231 415.387 23.5994C415.65 23.4724 415.942 23.4089 416.261 23.4089C416.521 23.4089 416.756 23.4447 416.964 23.5164C417.172 23.5847 417.35 23.6954 417.496 23.8484C417.646 24.0014 417.76 24.2 417.838 24.4441C417.916 24.685 417.955 24.9796 417.955 25.3279V28.7898H417.047V25.3181C417.047 25.0414 417.006 24.8201 416.925 24.6541C416.843 24.4848 416.725 24.3627 416.568 24.2878C416.412 24.2097 416.22 24.1707 415.992 24.1707C415.768 24.1707 415.562 24.2179 415.377 24.3123C415.195 24.4067 415.037 24.5369 414.903 24.7029C414.773 24.8689 414.671 25.0593 414.596 25.2742C414.524 25.4858 414.488 25.7104 414.488 25.948ZM420.23 24.6345V28.7898H419.327V23.5066H420.182L420.23 24.6345ZM420.016 25.948L419.64 25.9333C419.643 25.572 419.697 25.2384 419.801 24.9324C419.905 24.6231 420.051 24.3546 420.24 24.1267C420.429 23.8988 420.654 23.7231 420.914 23.5994C421.178 23.4724 421.469 23.4089 421.788 23.4089C422.049 23.4089 422.283 23.4447 422.491 23.5164C422.7 23.5847 422.877 23.6954 423.023 23.8484C423.173 24.0014 423.287 24.2 423.365 24.4441C423.443 24.685 423.482 24.9796 423.482 25.3279V28.7898H422.574V25.3181C422.574 25.0414 422.534 24.8201 422.452 24.6541C422.371 24.4848 422.252 24.3627 422.096 24.2878C421.939 24.2097 421.747 24.1707 421.52 24.1707C421.295 24.1707 421.09 24.2179 420.904 24.3123C420.722 24.4067 420.564 24.5369 420.431 24.7029C420.3 24.8689 420.198 25.0593 420.123 25.2742C420.051 25.4858 420.016 25.7104 420.016 25.948Z" fill="#32375E"/>
<g opacity="0.9">
<path d="M515.614 21.4929C515.614 21.3269 515.588 21.1804 515.536 21.0535C515.487 20.9233 515.399 20.8061 515.272 20.7019C515.149 20.5977 514.976 20.4985 514.755 20.4041C514.537 20.3097 514.26 20.2136 513.925 20.116C513.573 20.0118 513.256 19.8962 512.973 19.7693C512.689 19.6391 512.447 19.491 512.245 19.325C512.043 19.1589 511.889 18.9685 511.781 18.7537C511.674 18.5388 511.62 18.2931 511.62 18.0164C511.62 17.7397 511.677 17.4841 511.791 17.2498C511.905 17.0154 512.068 16.8119 512.279 16.6394C512.494 16.4636 512.75 16.3269 513.046 16.2292C513.342 16.1316 513.673 16.0828 514.037 16.0828C514.571 16.0828 515.023 16.1853 515.395 16.3904C515.769 16.5922 516.054 16.8575 516.249 17.1863C516.444 17.5118 516.542 17.8601 516.542 18.2312H515.604C515.604 17.9643 515.548 17.7283 515.434 17.5232C515.32 17.3149 515.147 17.1521 514.916 17.0349C514.685 16.9145 514.392 16.8542 514.037 16.8542C513.702 16.8542 513.425 16.9047 513.207 17.0056C512.989 17.1065 512.826 17.2432 512.719 17.4158C512.615 17.5883 512.562 17.7852 512.562 18.0066C512.562 18.1563 512.593 18.2931 512.655 18.4167C512.72 18.5372 512.82 18.6495 512.953 18.7537C513.09 18.8578 513.262 18.9539 513.471 19.0417C513.682 19.1296 513.935 19.2143 514.228 19.2957C514.631 19.4096 514.979 19.5365 515.272 19.6765C515.565 19.8165 515.806 19.9744 515.995 20.1501C516.187 20.3227 516.329 20.5196 516.42 20.741C516.514 20.9591 516.562 21.2065 516.562 21.4832C516.562 21.7729 516.503 22.0349 516.386 22.2693C516.269 22.5037 516.101 22.7039 515.883 22.8699C515.665 23.0359 515.403 23.1645 515.097 23.2556C514.794 23.3435 514.455 23.3875 514.081 23.3875C513.752 23.3875 513.428 23.3419 513.109 23.2507C512.794 23.1596 512.506 23.0229 512.245 22.8406C511.988 22.6583 511.781 22.4337 511.625 22.1667C511.472 21.8966 511.396 21.5841 511.396 21.2292H512.333C512.333 21.4734 512.38 21.6833 512.475 21.8591C512.569 22.0317 512.698 22.1749 512.86 22.2888C513.026 22.4028 513.214 22.4874 513.422 22.5427C513.633 22.5948 513.853 22.6208 514.081 22.6208C514.41 22.6208 514.688 22.5753 514.916 22.4841C515.144 22.393 515.316 22.2628 515.434 22.0935C515.554 21.9242 515.614 21.724 515.614 21.4929ZM520.858 22.0691V18.0066H521.767V23.2898H520.902L520.858 22.0691ZM521.029 20.9558L521.405 20.946C521.405 21.2976 521.368 21.6231 521.293 21.9226C521.221 22.2188 521.104 22.476 520.941 22.6941C520.779 22.9122 520.565 23.0831 520.302 23.2068C520.038 23.3272 519.717 23.3875 519.34 23.3875C519.083 23.3875 518.847 23.35 518.632 23.2751C518.42 23.2003 518.238 23.0847 518.085 22.9285C517.932 22.7722 517.813 22.5688 517.729 22.3181C517.647 22.0675 517.606 21.7664 517.606 21.4148V18.0066H518.51V21.4246C518.51 21.6622 518.536 21.8591 518.588 22.0154C518.643 22.1684 518.716 22.2904 518.808 22.3816C518.902 22.4695 519.006 22.5313 519.12 22.5671C519.237 22.6029 519.358 22.6208 519.481 22.6208C519.866 22.6208 520.17 22.5476 520.395 22.4011C520.619 22.2514 520.78 22.0512 520.878 21.8005C520.979 21.5466 521.029 21.2651 521.029 20.9558ZM523.139 15.7898H524.047V22.2644L523.969 23.2898H523.139V15.7898ZM527.616 20.6042V20.7068C527.616 21.0909 527.571 21.4473 527.479 21.7761C527.388 22.1016 527.255 22.3848 527.079 22.6257C526.903 22.8666 526.688 23.0538 526.435 23.1873C526.181 23.3207 525.889 23.3875 525.561 23.3875C525.225 23.3875 524.931 23.3305 524.677 23.2166C524.426 23.0994 524.215 22.9317 524.042 22.7136C523.869 22.4955 523.731 22.2319 523.627 21.9226C523.526 21.6134 523.456 21.2651 523.417 20.8777V20.4285C523.456 20.0378 523.526 19.6879 523.627 19.3787C523.731 19.0694 523.869 18.8057 524.042 18.5876C524.215 18.3663 524.426 18.1986 524.677 18.0847C524.927 17.9675 525.219 17.9089 525.551 17.9089C525.883 17.9089 526.177 17.974 526.435 18.1042C526.692 18.2312 526.907 18.4135 527.079 18.6511C527.255 18.8888 527.388 19.1736 527.479 19.5056C527.571 19.8344 527.616 20.2006 527.616 20.6042ZM526.708 20.7068V20.6042C526.708 20.3406 526.684 20.0932 526.635 19.8621C526.586 19.6277 526.508 19.4226 526.4 19.2468C526.293 19.0678 526.151 18.9278 525.976 18.8269C525.8 18.7227 525.583 18.6707 525.326 18.6707C525.098 18.6707 524.9 18.7097 524.73 18.7878C524.564 18.866 524.423 18.9718 524.306 19.1052C524.188 19.2354 524.092 19.3852 524.018 19.5544C523.946 19.7205 523.892 19.893 523.856 20.072V21.2488C523.909 21.4766 523.993 21.6964 524.11 21.908C524.231 22.1163 524.39 22.2872 524.589 22.4207C524.791 22.5541 525.04 22.6208 525.336 22.6208C525.58 22.6208 525.788 22.572 525.961 22.4744C526.137 22.3735 526.278 22.2351 526.386 22.0593C526.496 21.8835 526.578 21.6801 526.63 21.449C526.682 21.2179 526.708 20.9705 526.708 20.7068ZM531.835 21.8884C531.835 21.7582 531.806 21.6378 531.747 21.5271C531.692 21.4132 531.576 21.3106 531.4 21.2195C531.228 21.1251 530.967 21.0437 530.619 20.9753C530.326 20.9135 530.061 20.8403 529.823 20.7556C529.589 20.671 529.389 20.5684 529.223 20.448C529.06 20.3276 528.935 20.186 528.847 20.0232C528.759 19.8604 528.715 19.67 528.715 19.4519C528.715 19.2436 528.76 19.0466 528.852 18.8611C528.946 18.6755 529.078 18.5111 529.247 18.3679C529.42 18.2247 529.626 18.1124 529.867 18.031C530.108 17.9496 530.377 17.9089 530.673 17.9089C531.096 17.9089 531.457 17.9838 531.757 18.1335C532.056 18.2833 532.286 18.4835 532.445 18.7341C532.605 18.9815 532.685 19.2566 532.685 19.5593H531.781C531.781 19.4128 531.737 19.2712 531.649 19.1345C531.565 18.9945 531.439 18.879 531.273 18.7878C531.111 18.6967 530.91 18.6511 530.673 18.6511C530.422 18.6511 530.219 18.6902 530.062 18.7683C529.91 18.8432 529.797 18.9392 529.726 19.0564C529.657 19.1736 529.623 19.2973 529.623 19.4275C529.623 19.5251 529.639 19.613 529.672 19.6912C529.708 19.766 529.77 19.836 529.857 19.9011C529.945 19.963 530.069 20.0216 530.229 20.0769C530.388 20.1322 530.591 20.1876 530.839 20.2429C531.272 20.3406 531.628 20.4578 531.908 20.5945C532.188 20.7312 532.396 20.8988 532.533 21.0974C532.67 21.296 532.738 21.5369 532.738 21.8201C532.738 22.0512 532.689 22.2628 532.592 22.4548C532.497 22.6469 532.359 22.8129 532.177 22.9529C531.998 23.0896 531.783 23.197 531.532 23.2751C531.285 23.35 531.007 23.3875 530.697 23.3875C530.232 23.3875 529.838 23.3044 529.516 23.1384C529.193 22.9724 528.949 22.7576 528.783 22.4939C528.617 22.2302 528.534 21.9519 528.534 21.6589H529.442C529.455 21.9063 529.527 22.1033 529.657 22.2498C529.787 22.393 529.947 22.4955 530.136 22.5574C530.325 22.616 530.512 22.6453 530.697 22.6453C530.945 22.6453 531.151 22.6127 531.317 22.5476C531.487 22.4825 531.615 22.393 531.703 22.2791C531.791 22.1651 531.835 22.0349 531.835 21.8884ZM536.039 22.6453C536.254 22.6453 536.452 22.6013 536.635 22.5134C536.817 22.4255 536.967 22.3051 537.084 22.1521C537.201 21.9958 537.268 21.8184 537.284 21.6199H538.144C538.127 21.9324 538.021 22.2237 537.826 22.4939C537.634 22.7608 537.382 22.9773 537.069 23.1433C536.757 23.3061 536.413 23.3875 536.039 23.3875C535.642 23.3875 535.295 23.3175 534.999 23.1775C534.706 23.0375 534.462 22.8455 534.267 22.6013C534.075 22.3572 533.93 22.0772 533.832 21.7615C533.738 21.4425 533.69 21.1056 533.69 20.7507V20.5457C533.69 20.1908 533.738 19.8556 533.832 19.5398C533.93 19.2208 534.075 18.9392 534.267 18.6951C534.462 18.4509 534.706 18.2589 534.999 18.1189C535.295 17.9789 535.642 17.9089 536.039 17.9089C536.452 17.9089 536.814 17.9936 537.123 18.1628C537.432 18.3289 537.675 18.5567 537.851 18.8464C538.03 19.1329 538.127 19.4584 538.144 19.823H537.284C537.268 19.6049 537.206 19.408 537.099 19.2322C536.994 19.0564 536.851 18.9164 536.669 18.8123C536.49 18.7048 536.28 18.6511 536.039 18.6511C535.762 18.6511 535.53 18.7065 535.341 18.8171C535.155 18.9246 535.007 19.071 534.896 19.2566C534.789 19.4389 534.711 19.6423 534.662 19.8669C534.617 20.0883 534.594 20.3145 534.594 20.5457V20.7507C534.594 20.9819 534.617 21.2097 534.662 21.4343C534.708 21.6589 534.784 21.8624 534.892 22.0447C535.002 22.227 535.15 22.3735 535.336 22.4841C535.525 22.5916 535.759 22.6453 536.039 22.6453ZM540.062 18.8367V23.2898H539.159V18.0066H540.038L540.062 18.8367ZM541.713 17.9773L541.708 18.8171C541.633 18.8009 541.562 18.7911 541.493 18.7878C541.428 18.7813 541.353 18.7781 541.269 18.7781C541.06 18.7781 540.876 18.8106 540.717 18.8757C540.557 18.9408 540.422 19.032 540.312 19.1492C540.201 19.2664 540.113 19.4063 540.048 19.5691C539.986 19.7286 539.945 19.9044 539.926 20.0964L539.672 20.2429C539.672 19.9239 539.703 19.6244 539.765 19.3445C539.83 19.0645 539.929 18.8171 540.062 18.6023C540.196 18.3842 540.365 18.2149 540.57 18.0945C540.779 17.9708 541.026 17.9089 541.312 17.9089C541.378 17.9089 541.452 17.9171 541.537 17.9333C541.622 17.9464 541.68 17.961 541.713 17.9773ZM543.529 18.0066V23.2898H542.621V18.0066H543.529ZM542.553 16.6052C542.553 16.4587 542.597 16.335 542.685 16.2341C542.776 16.1332 542.909 16.0828 543.085 16.0828C543.257 16.0828 543.389 16.1332 543.48 16.2341C543.575 16.335 543.622 16.4587 543.622 16.6052C543.622 16.7452 543.575 16.8656 543.48 16.9666C543.389 17.0642 543.257 17.113 543.085 17.113C542.909 17.113 542.776 17.0642 542.685 16.9666C542.597 16.8656 542.553 16.7452 542.553 16.6052ZM545.883 19.0222V25.321H544.975V18.0066H545.805L545.883 19.0222ZM549.442 20.6042V20.7068C549.442 21.0909 549.397 21.4473 549.306 21.7761C549.215 22.1016 549.081 22.3848 548.905 22.6257C548.733 22.8666 548.52 23.0538 548.266 23.1873C548.012 23.3207 547.72 23.3875 547.392 23.3875C547.056 23.3875 546.76 23.3321 546.503 23.2214C546.246 23.1108 546.028 22.9496 545.849 22.738C545.67 22.5264 545.526 22.2725 545.419 21.9763C545.315 21.6801 545.243 21.3464 545.204 20.9753V20.4285C545.243 20.0378 545.316 19.6879 545.424 19.3787C545.531 19.0694 545.673 18.8057 545.849 18.5876C546.028 18.3663 546.244 18.1986 546.498 18.0847C546.752 17.9675 547.045 17.9089 547.377 17.9089C547.709 17.9089 548.004 17.974 548.261 18.1042C548.518 18.2312 548.734 18.4135 548.91 18.6511C549.086 18.8888 549.218 19.1736 549.306 19.5056C549.397 19.8344 549.442 20.2006 549.442 20.6042ZM548.534 20.7068V20.6042C548.534 20.3406 548.507 20.0932 548.451 19.8621C548.396 19.6277 548.31 19.4226 548.192 19.2468C548.078 19.0678 547.932 18.9278 547.753 18.8269C547.574 18.7227 547.361 18.6707 547.113 18.6707C546.885 18.6707 546.687 18.7097 546.518 18.7878C546.352 18.866 546.21 18.9718 546.093 19.1052C545.976 19.2354 545.88 19.3852 545.805 19.5544C545.733 19.7205 545.679 19.893 545.644 20.072V21.3367C545.709 21.5645 545.8 21.7794 545.917 21.9812C546.034 22.1798 546.19 22.3409 546.386 22.4646C546.581 22.585 546.827 22.6453 547.123 22.6453C547.367 22.6453 547.577 22.5948 547.753 22.4939C547.932 22.3897 548.078 22.2481 548.192 22.0691C548.31 21.8901 548.396 21.685 548.451 21.4539C548.507 21.2195 548.534 20.9705 548.534 20.7068ZM552.807 18.0066V18.7H549.95V18.0066H552.807ZM550.917 16.7224H551.82V21.9812C551.82 22.1602 551.848 22.2953 551.903 22.3865C551.959 22.4776 552.03 22.5378 552.118 22.5671C552.206 22.5964 552.3 22.6111 552.401 22.6111C552.476 22.6111 552.554 22.6046 552.636 22.5916C552.72 22.5753 552.784 22.5623 552.826 22.5525L552.831 23.2898C552.759 23.3126 552.665 23.3337 552.548 23.3533C552.434 23.3761 552.296 23.3875 552.133 23.3875C551.911 23.3875 551.708 23.3435 551.522 23.2556C551.337 23.1677 551.189 23.0212 551.078 22.8162C550.971 22.6078 550.917 22.3279 550.917 21.9763V16.7224ZM554.848 18.0066V23.2898H553.939V18.0066H554.848ZM553.871 16.6052C553.871 16.4587 553.915 16.335 554.003 16.2341C554.094 16.1332 554.228 16.0828 554.403 16.0828C554.576 16.0828 554.708 16.1332 554.799 16.2341C554.893 16.335 554.94 16.4587 554.94 16.6052C554.94 16.7452 554.893 16.8656 554.799 16.9666C554.708 17.0642 554.576 17.113 554.403 17.113C554.228 17.113 554.094 17.0642 554.003 16.9666C553.915 16.8656 553.871 16.7452 553.871 16.6052ZM556.059 20.7068V20.5945C556.059 20.2136 556.114 19.8604 556.225 19.5349C556.335 19.2061 556.495 18.9213 556.703 18.6804C556.911 18.4363 557.164 18.2475 557.46 18.114C557.756 17.9773 558.088 17.9089 558.456 17.9089C558.827 17.9089 559.161 17.9773 559.457 18.114C559.757 18.2475 560.01 18.4363 560.219 18.6804C560.43 18.9213 560.591 19.2061 560.702 19.5349C560.813 19.8604 560.868 20.2136 560.868 20.5945V20.7068C560.868 21.0876 560.813 21.4408 560.702 21.7664C560.591 22.0919 560.43 22.3767 560.219 22.6208C560.01 22.8617 559.758 23.0505 559.462 23.1873C559.169 23.3207 558.837 23.3875 558.466 23.3875C558.095 23.3875 557.761 23.3207 557.465 23.1873C557.169 23.0505 556.915 22.8617 556.703 22.6208C556.495 22.3767 556.335 22.0919 556.225 21.7664C556.114 21.4408 556.059 21.0876 556.059 20.7068ZM556.962 20.5945V20.7068C556.962 20.9705 556.993 21.2195 557.055 21.4539C557.117 21.685 557.209 21.8901 557.333 22.0691C557.46 22.2481 557.618 22.3897 557.807 22.4939C557.995 22.5948 558.215 22.6453 558.466 22.6453C558.713 22.6453 558.93 22.5948 559.115 22.4939C559.304 22.3897 559.46 22.2481 559.584 22.0691C559.708 21.8901 559.8 21.685 559.862 21.4539C559.927 21.2195 559.96 20.9705 559.96 20.7068V20.5945C559.96 20.3341 559.927 20.0883 559.862 19.8572C559.8 19.6228 559.706 19.4161 559.579 19.2371C559.455 19.0548 559.299 18.9115 559.11 18.8074C558.925 18.7032 558.707 18.6511 558.456 18.6511C558.209 18.6511 557.991 18.7032 557.802 18.8074C557.616 18.9115 557.46 19.0548 557.333 19.2371C557.209 19.4161 557.117 19.6228 557.055 19.8572C556.993 20.0883 556.962 20.3341 556.962 20.5945ZM562.904 19.1345V23.2898H562.001V18.0066H562.855L562.904 19.1345ZM562.689 20.448L562.313 20.4333C562.317 20.072 562.37 19.7384 562.475 19.4324C562.579 19.1231 562.725 18.8546 562.914 18.6267C563.103 18.3988 563.327 18.2231 563.588 18.0994C563.852 17.9724 564.143 17.9089 564.462 17.9089C564.722 17.9089 564.957 17.9447 565.165 18.0164C565.373 18.0847 565.551 18.1954 565.697 18.3484C565.847 18.5014 565.961 18.7 566.039 18.9441C566.117 19.185 566.156 19.4796 566.156 19.8279V23.2898H565.248V19.8181C565.248 19.5414 565.207 19.3201 565.126 19.1541C565.045 18.9848 564.926 18.8627 564.77 18.7878C564.613 18.7097 564.421 18.6707 564.193 18.6707C563.969 18.6707 563.764 18.7179 563.578 18.8123C563.396 18.9067 563.238 19.0369 563.104 19.2029C562.974 19.3689 562.872 19.5593 562.797 19.7742C562.725 19.9858 562.689 20.2104 562.689 20.448Z" fill="#32375E"/>
</g>
<g opacity="0.9">
<path d="M679.249 22.5476V23.2898H674.596V22.6404L676.925 20.0476C677.211 19.7286 677.433 19.4584 677.589 19.2371C677.748 19.0125 677.859 18.8123 677.921 18.6365C677.986 18.4574 678.019 18.2751 678.019 18.0896C678.019 17.8552 677.97 17.6436 677.872 17.4548C677.778 17.2628 677.638 17.1098 677.452 16.9958C677.267 16.8819 677.042 16.825 676.778 16.825C676.463 16.825 676.199 16.8868 675.987 17.0105C675.779 17.1309 675.623 17.3002 675.519 17.5183C675.414 17.7364 675.362 17.9871 675.362 18.2703H674.459C674.459 17.8699 674.547 17.5037 674.723 17.1716C674.898 16.8396 675.159 16.5759 675.504 16.3806C675.849 16.182 676.274 16.0828 676.778 16.0828C677.228 16.0828 677.612 16.1625 677.931 16.322C678.25 16.4783 678.494 16.6996 678.663 16.9861C678.836 17.2693 678.922 17.6013 678.922 17.9822C678.922 18.1905 678.886 18.4021 678.814 18.6169C678.746 18.8285 678.65 19.0401 678.526 19.2517C678.406 19.4633 678.264 19.6716 678.102 19.8767C677.942 20.0818 677.771 20.2836 677.589 20.4822L675.685 22.5476H679.249ZM681.534 19.2908H682.179C682.494 19.2908 682.755 19.2387 682.96 19.1345C683.168 19.0271 683.323 18.8822 683.424 18.7C683.528 18.5144 683.58 18.3061 683.58 18.075C683.58 17.8015 683.535 17.572 683.443 17.3865C683.352 17.2009 683.215 17.061 683.033 16.9666C682.851 16.8722 682.62 16.825 682.34 16.825C682.086 16.825 681.861 16.8754 681.666 16.9763C681.474 17.074 681.323 17.2139 681.212 17.3962C681.104 17.5785 681.051 17.7934 681.051 18.0408H680.147C680.147 17.6794 680.239 17.3507 680.421 17.0544C680.603 16.7582 680.859 16.5222 681.188 16.3464C681.52 16.1707 681.904 16.0828 682.34 16.0828C682.77 16.0828 683.146 16.1593 683.468 16.3123C683.79 16.462 684.041 16.6866 684.22 16.9861C684.399 17.2823 684.488 17.6518 684.488 18.0945C684.488 18.2735 684.446 18.4656 684.361 18.6707C684.28 18.8725 684.151 19.0613 683.976 19.2371C683.803 19.4128 683.578 19.5577 683.302 19.6716C683.025 19.7823 682.693 19.8376 682.306 19.8376H681.534V19.2908ZM681.534 20.033V19.491H682.306C682.758 19.491 683.132 19.5447 683.429 19.6521C683.725 19.7595 683.958 19.9028 684.127 20.0818C684.299 20.2608 684.42 20.4578 684.488 20.6726C684.56 20.8842 684.596 21.0958 684.596 21.3074C684.596 21.6394 684.539 21.934 684.425 22.1912C684.314 22.4483 684.156 22.6664 683.951 22.8455C683.749 23.0245 683.512 23.1596 683.238 23.2507C682.965 23.3419 682.667 23.3875 682.345 23.3875C682.035 23.3875 681.744 23.3435 681.471 23.2556C681.201 23.1677 680.961 23.0408 680.753 22.8748C680.545 22.7055 680.382 22.4988 680.265 22.2546C680.147 22.0072 680.089 21.7257 680.089 21.4099H680.992C680.992 21.6573 681.046 21.8738 681.153 22.0593C681.264 22.2449 681.42 22.3897 681.622 22.4939C681.827 22.5948 682.068 22.6453 682.345 22.6453C682.621 22.6453 682.859 22.5981 683.058 22.5037C683.259 22.406 683.414 22.2595 683.521 22.0642C683.632 21.8689 683.688 21.6231 683.688 21.3269C683.688 21.0307 683.626 20.7882 683.502 20.5994C683.378 20.4073 683.202 20.2657 682.975 20.1746C682.75 20.0802 682.485 20.033 682.179 20.033H681.534ZM690.436 16.1804V16.6882L687.491 23.2898H686.539L689.479 16.9226H685.631V16.1804H690.436ZM691.578 22.8113C691.578 22.6583 691.625 22.5297 691.72 22.4255C691.817 22.3181 691.957 22.2644 692.14 22.2644C692.322 22.2644 692.46 22.3181 692.555 22.4255C692.652 22.5297 692.701 22.6583 692.701 22.8113C692.701 22.961 692.652 23.088 692.555 23.1921C692.46 23.2963 692.322 23.3484 692.14 23.3484C691.957 23.3484 691.817 23.2963 691.72 23.1921C691.625 23.088 691.578 22.961 691.578 22.8113ZM695.245 19.906L694.522 19.7205L694.879 16.1804H698.526V17.0154H695.646L695.431 18.949C695.561 18.8741 695.725 18.8041 695.924 18.739C696.126 18.6739 696.357 18.6414 696.617 18.6414C696.946 18.6414 697.241 18.6983 697.501 18.8123C697.761 18.9229 697.983 19.0824 698.165 19.2908C698.351 19.4991 698.492 19.7498 698.59 20.0427C698.688 20.3357 698.736 20.6628 698.736 21.0242C698.736 21.366 698.689 21.6801 698.595 21.9666C698.504 22.253 698.365 22.5037 698.18 22.7185C697.994 22.9301 697.76 23.0945 697.477 23.2117C697.197 23.3289 696.866 23.3875 696.485 23.3875C696.199 23.3875 695.927 23.3484 695.67 23.2703C695.416 23.1889 695.188 23.0668 694.986 22.9041C694.788 22.738 694.625 22.533 694.498 22.2888C694.374 22.0414 694.296 21.7517 694.264 21.4197H695.123C695.162 21.6866 695.24 21.9112 695.357 22.0935C695.475 22.2758 695.628 22.4141 695.816 22.5085C696.008 22.5997 696.231 22.6453 696.485 22.6453C696.7 22.6453 696.891 22.6078 697.057 22.533C697.223 22.4581 697.363 22.3507 697.477 22.2107C697.59 22.0707 697.677 21.9014 697.735 21.7029C697.797 21.5043 697.828 21.2813 697.828 21.0339C697.828 20.8093 697.797 20.601 697.735 20.4089C697.674 20.2169 697.581 20.0492 697.457 19.906C697.337 19.7628 697.188 19.6521 697.013 19.574C696.837 19.4926 696.635 19.4519 696.407 19.4519C696.104 19.4519 695.875 19.4926 695.719 19.574C695.566 19.6554 695.408 19.766 695.245 19.906ZM704.19 19.1687V20.2527C704.19 20.8354 704.138 21.3269 704.034 21.7273C703.93 22.1277 703.78 22.45 703.585 22.6941C703.39 22.9382 703.154 23.1156 702.877 23.2263C702.604 23.3337 702.294 23.3875 701.949 23.3875C701.676 23.3875 701.424 23.3533 701.192 23.2849C700.961 23.2166 700.753 23.1075 700.567 22.9578C700.385 22.8048 700.229 22.6062 700.099 22.3621C699.968 22.1179 699.869 21.8217 699.801 21.4734C699.732 21.1251 699.698 20.7182 699.698 20.2527V19.1687C699.698 18.586 699.75 18.0977 699.854 17.7039C699.962 17.31 700.113 16.9942 700.309 16.7566C700.504 16.5157 700.738 16.3432 701.012 16.239C701.288 16.1348 701.598 16.0828 701.939 16.0828C702.216 16.0828 702.47 16.1169 702.701 16.1853C702.936 16.2504 703.144 16.3562 703.326 16.5027C703.508 16.6459 703.663 16.838 703.79 17.0789C703.92 17.3165 704.02 17.6078 704.088 17.9529C704.156 18.2979 704.19 18.7032 704.19 19.1687ZM703.282 20.3992V19.0173C703.282 18.6983 703.263 18.4184 703.224 18.1775C703.188 17.9333 703.134 17.725 703.062 17.5525C702.991 17.38 702.9 17.24 702.789 17.1326C702.682 17.0251 702.556 16.947 702.413 16.8982C702.273 16.8461 702.115 16.8201 701.939 16.8201C701.725 16.8201 701.534 16.8608 701.368 16.9421C701.202 17.0203 701.062 17.1456 700.948 17.3181C700.838 17.4906 700.753 17.7169 700.694 17.9968C700.636 18.2768 700.606 18.6169 700.606 19.0173V20.3992C700.606 20.7182 700.624 20.9998 700.66 21.2439C700.699 21.488 700.756 21.6996 700.831 21.8787C700.906 22.0544 700.997 22.1993 701.104 22.3132C701.212 22.4272 701.336 22.5118 701.476 22.5671C701.619 22.6192 701.777 22.6453 701.949 22.6453C702.171 22.6453 702.364 22.6029 702.53 22.5183C702.696 22.4337 702.835 22.3018 702.945 22.1228C703.059 21.9405 703.144 21.7078 703.199 21.4246C703.255 21.1381 703.282 20.7963 703.282 20.3992Z" fill="#32375E"/>
</g>
<g opacity="0.9">
<path d="M726.342 22.5232V23.2898H722.577V22.5232H726.342ZM722.768 16.1804V23.2898H721.825V16.1804H722.768ZM725.844 19.2371V20.0037H722.577V19.2371H725.844ZM726.293 16.1804V16.9519H722.577V16.1804H726.293ZM731.576 16.1804H732.514V20.99C732.514 21.5238 732.395 21.9682 732.157 22.323C731.92 22.6778 731.604 22.9447 731.21 23.1238C730.819 23.2996 730.395 23.3875 729.936 23.3875C729.454 23.3875 729.018 23.2996 728.627 23.1238C728.24 22.9447 727.932 22.6778 727.704 22.323C727.479 21.9682 727.367 21.5238 727.367 20.99V16.1804H728.3V20.99C728.3 21.3611 728.368 21.6671 728.505 21.908C728.642 22.1488 728.832 22.3279 729.076 22.4451C729.324 22.5623 729.61 22.6208 729.936 22.6208C730.264 22.6208 730.551 22.5623 730.795 22.4451C731.042 22.3279 731.234 22.1488 731.371 21.908C731.508 21.6671 731.576 21.3611 731.576 20.99V16.1804ZM733.993 16.1804H736.347C736.881 16.1804 737.331 16.2618 737.699 16.4246C738.07 16.5873 738.352 16.8282 738.544 17.1472C738.739 17.463 738.837 17.852 738.837 18.3142C738.837 18.6397 738.77 18.9376 738.637 19.2078C738.507 19.4747 738.318 19.7026 738.07 19.8914C737.826 20.0769 737.533 20.2153 737.191 20.3064L736.928 20.4089H734.716L734.706 19.6423H736.376C736.715 19.6423 736.996 19.5837 737.221 19.4666C737.445 19.3461 737.615 19.185 737.729 18.9832C737.842 18.7813 737.899 18.5583 737.899 18.3142C737.899 18.0408 737.846 17.8015 737.738 17.5964C737.631 17.3914 737.462 17.2335 737.23 17.1228C737.003 17.0089 736.708 16.9519 736.347 16.9519H734.936V23.2898H733.993V16.1804ZM738.148 23.2898L736.42 20.0671L737.401 20.0623L739.154 23.2312V23.2898H738.148Z" fill="#32375E"/>
</g>
<g opacity="0.9">
<path d="M813.733 19.906L813.011 19.7205L813.367 16.1804H817.015V17.0154H814.134L813.919 18.949C814.049 18.8741 814.214 18.8041 814.412 18.739C814.614 18.6739 814.845 18.6414 815.105 18.6414C815.434 18.6414 815.729 18.6983 815.989 18.8123C816.25 18.9229 816.471 19.0824 816.653 19.2908C816.839 19.4991 816.98 19.7498 817.078 20.0427C817.176 20.3357 817.225 20.6628 817.225 21.0242C817.225 21.366 817.177 21.6801 817.083 21.9666C816.992 22.253 816.854 22.5037 816.668 22.7185C816.482 22.9301 816.248 23.0945 815.965 23.2117C815.685 23.3289 815.354 23.3875 814.974 23.3875C814.687 23.3875 814.415 23.3484 814.158 23.2703C813.904 23.1889 813.676 23.0668 813.475 22.9041C813.276 22.738 813.113 22.533 812.986 22.2888C812.863 22.0414 812.785 21.7517 812.752 21.4197H813.611C813.65 21.6866 813.729 21.9112 813.846 22.0935C813.963 22.2758 814.116 22.4141 814.305 22.5085C814.497 22.5997 814.72 22.6453 814.974 22.6453C815.188 22.6453 815.379 22.6078 815.545 22.533C815.711 22.4581 815.851 22.3507 815.965 22.2107C816.079 22.0707 816.165 21.9014 816.224 21.7029C816.285 21.5043 816.316 21.2813 816.316 21.0339C816.316 20.8093 816.285 20.601 816.224 20.4089C816.162 20.2169 816.069 20.0492 815.945 19.906C815.825 19.7628 815.677 19.6521 815.501 19.574C815.325 19.4926 815.123 19.4519 814.896 19.4519C814.593 19.4519 814.363 19.4926 814.207 19.574C814.054 19.6554 813.896 19.766 813.733 19.906ZM821.458 16.1804L818.494 23.9001H817.718L820.687 16.1804H821.458ZM824.324 19.8962V20.6384H821.941V19.8962H824.324ZM827.088 19.8962V20.6384H824.705V19.8962H827.088Z" fill="#32375E"/>
</g>
<g opacity="0.9">
<path d="M882.56 16.1414V23.2898H881.656V17.2693L879.835 17.9333V17.1179L882.418 16.1414H882.56ZM886.134 22.2156V22.9431C886.134 23.2393 886.059 23.5518 885.909 23.8806C885.759 24.2126 885.549 24.4893 885.279 24.7107L884.767 24.3542C884.871 24.211 884.959 24.0645 885.03 23.9148C885.102 23.7683 885.156 23.6153 885.191 23.4558C885.23 23.2996 885.25 23.1335 885.25 22.9578V22.2156H886.134ZM891.847 22.5476V23.2898H887.193V22.6404L889.522 20.0476C889.809 19.7286 890.03 19.4584 890.187 19.2371C890.346 19.0125 890.457 18.8123 890.519 18.6365C890.584 18.4574 890.616 18.2751 890.616 18.0896C890.616 17.8552 890.567 17.6436 890.47 17.4548C890.375 17.2628 890.235 17.1098 890.05 16.9958C889.864 16.8819 889.64 16.825 889.376 16.825C889.06 16.825 888.797 16.8868 888.585 17.0105C888.377 17.1309 888.22 17.3002 888.116 17.5183C888.012 17.7364 887.96 17.9871 887.96 18.2703H887.057C887.057 17.8699 887.145 17.5037 887.32 17.1716C887.496 16.8396 887.757 16.5759 888.102 16.3806C888.447 16.182 888.871 16.0828 889.376 16.0828C889.825 16.0828 890.209 16.1625 890.528 16.322C890.847 16.4783 891.091 16.6996 891.261 16.9861C891.433 17.2693 891.52 17.6013 891.52 17.9822C891.52 18.1905 891.484 18.4021 891.412 18.6169C891.344 18.8285 891.248 19.0401 891.124 19.2517C891.004 19.4633 890.862 19.6716 890.699 19.8767C890.54 20.0818 890.369 20.2836 890.187 20.4822L888.282 22.5476H891.847ZM897.276 19.1687V20.2527C897.276 20.8354 897.224 21.3269 897.12 21.7273C897.016 22.1277 896.866 22.45 896.671 22.6941C896.476 22.9382 896.24 23.1156 895.963 23.2263C895.689 23.3337 895.38 23.3875 895.035 23.3875C894.762 23.3875 894.509 23.3533 894.278 23.2849C894.047 23.2166 893.839 23.1075 893.653 22.9578C893.471 22.8048 893.315 22.6062 893.185 22.3621C893.054 22.1179 892.955 21.8217 892.887 21.4734C892.818 21.1251 892.784 20.7182 892.784 20.2527V19.1687C892.784 18.586 892.836 18.0977 892.94 17.7039C893.048 17.31 893.199 16.9942 893.395 16.7566C893.59 16.5157 893.824 16.3432 894.098 16.239C894.374 16.1348 894.684 16.0828 895.025 16.0828C895.302 16.0828 895.556 16.1169 895.787 16.1853C896.021 16.2504 896.23 16.3562 896.412 16.5027C896.594 16.6459 896.749 16.838 896.876 17.0789C897.006 17.3165 897.105 17.6078 897.174 17.9529C897.242 18.2979 897.276 18.7032 897.276 19.1687ZM896.368 20.3992V19.0173C896.368 18.6983 896.349 18.4184 896.31 18.1775C896.274 17.9333 896.22 17.725 896.148 17.5525C896.077 17.38 895.986 17.24 895.875 17.1326C895.768 17.0251 895.642 16.947 895.499 16.8982C895.359 16.8461 895.201 16.8201 895.025 16.8201C894.811 16.8201 894.62 16.8608 894.454 16.9421C894.288 17.0203 894.148 17.1456 894.034 17.3181C893.924 17.4906 893.839 17.7169 893.78 17.9968C893.722 18.2768 893.692 18.6169 893.692 19.0173V20.3992C893.692 20.7182 893.71 20.9998 893.746 21.2439C893.785 21.488 893.842 21.6996 893.917 21.8787C893.992 22.0544 894.083 22.1993 894.19 22.3132C894.298 22.4272 894.422 22.5118 894.562 22.5671C894.705 22.6192 894.863 22.6453 895.035 22.6453C895.257 22.6453 895.45 22.6029 895.616 22.5183C895.782 22.4337 895.921 22.3018 896.031 22.1228C896.145 21.9405 896.23 21.7078 896.285 21.4246C896.34 21.1381 896.368 20.7963 896.368 20.3992ZM903.097 22.5476V23.2898H898.443V22.6404L900.772 20.0476C901.059 19.7286 901.28 19.4584 901.437 19.2371C901.596 19.0125 901.707 18.8123 901.769 18.6365C901.834 18.4574 901.866 18.2751 901.866 18.0896C901.866 17.8552 901.817 17.6436 901.72 17.4548C901.625 17.2628 901.485 17.1098 901.3 16.9958C901.114 16.8819 900.89 16.825 900.626 16.825C900.31 16.825 900.047 16.8868 899.835 17.0105C899.627 17.1309 899.47 17.3002 899.366 17.5183C899.262 17.7364 899.21 17.9871 899.21 18.2703H898.307C898.307 17.8699 898.395 17.5037 898.57 17.1716C898.746 16.8396 899.007 16.5759 899.352 16.3806C899.697 16.182 900.121 16.0828 900.626 16.0828C901.075 16.0828 901.459 16.1625 901.778 16.322C902.097 16.4783 902.341 16.6996 902.511 16.9861C902.683 17.2693 902.77 17.6013 902.77 17.9822C902.77 18.1905 902.734 18.4021 902.662 18.6169C902.594 18.8285 902.498 19.0401 902.374 19.2517C902.254 19.4633 902.112 19.6716 901.949 19.8767C901.79 20.0818 901.619 20.2836 901.437 20.4822L899.532 22.5476H903.097ZM904.176 22.8113C904.176 22.6583 904.223 22.5297 904.317 22.4255C904.415 22.3181 904.555 22.2644 904.737 22.2644C904.92 22.2644 905.058 22.3181 905.152 22.4255C905.25 22.5297 905.299 22.6583 905.299 22.8113C905.299 22.961 905.25 23.088 905.152 23.1921C905.058 23.2963 904.92 23.3484 904.737 23.3484C904.555 23.3484 904.415 23.2963 904.317 23.1921C904.223 23.088 904.176 22.961 904.176 22.8113ZM907.843 19.906L907.12 19.7205L907.477 16.1804H911.124V17.0154H908.243L908.028 18.949C908.159 18.8741 908.323 18.8041 908.521 18.739C908.723 18.6739 908.954 18.6414 909.215 18.6414C909.544 18.6414 909.838 18.6983 910.099 18.8123C910.359 18.9229 910.58 19.0824 910.763 19.2908C910.948 19.4991 911.09 19.7498 911.188 20.0427C911.285 20.3357 911.334 20.6628 911.334 21.0242C911.334 21.366 911.287 21.6801 911.192 21.9666C911.101 22.253 910.963 22.5037 910.777 22.7185C910.592 22.9301 910.357 23.0945 910.074 23.2117C909.794 23.3289 909.464 23.3875 909.083 23.3875C908.797 23.3875 908.525 23.3484 908.268 23.2703C908.014 23.1889 907.786 23.0668 907.584 22.9041C907.385 22.738 907.223 22.533 907.096 22.2888C906.972 22.0414 906.894 21.7517 906.861 21.4197H907.721C907.76 21.6866 907.838 21.9112 907.955 22.0935C908.072 22.2758 908.225 22.4141 908.414 22.5085C908.606 22.5997 908.829 22.6453 909.083 22.6453C909.298 22.6453 909.488 22.6078 909.654 22.533C909.82 22.4581 909.96 22.3507 910.074 22.2107C910.188 22.0707 910.274 21.9014 910.333 21.7029C910.395 21.5043 910.426 21.2813 910.426 21.0339C910.426 20.8093 910.395 20.601 910.333 20.4089C910.271 20.2169 910.178 20.0492 910.055 19.906C909.934 19.7628 909.786 19.6521 909.61 19.574C909.435 19.4926 909.233 19.4519 909.005 19.4519C908.702 19.4519 908.473 19.4926 908.316 19.574C908.163 19.6554 908.006 19.766 907.843 19.906ZM916.788 19.1687V20.2527C916.788 20.8354 916.736 21.3269 916.632 21.7273C916.528 22.1277 916.378 22.45 916.183 22.6941C915.987 22.9382 915.751 23.1156 915.475 23.2263C915.201 23.3337 914.892 23.3875 914.547 23.3875C914.273 23.3875 914.021 23.3533 913.79 23.2849C913.559 23.2166 913.351 23.1075 913.165 22.9578C912.983 22.8048 912.826 22.6062 912.696 22.3621C912.566 22.1179 912.467 21.8217 912.398 21.4734C912.33 21.1251 912.296 20.7182 912.296 20.2527V19.1687C912.296 18.586 912.348 18.0977 912.452 17.7039C912.56 17.31 912.711 16.9942 912.906 16.7566C913.102 16.5157 913.336 16.3432 913.609 16.239C913.886 16.1348 914.195 16.0828 914.537 16.0828C914.814 16.0828 915.068 16.1169 915.299 16.1853C915.533 16.2504 915.742 16.3562 915.924 16.5027C916.106 16.6459 916.261 16.838 916.388 17.0789C916.518 17.3165 916.617 17.6078 916.686 17.9529C916.754 18.2979 916.788 18.7032 916.788 19.1687ZM915.88 20.3992V19.0173C915.88 18.6983 915.86 18.4184 915.821 18.1775C915.785 17.9333 915.732 17.725 915.66 17.5525C915.589 17.38 915.497 17.24 915.387 17.1326C915.279 17.0251 915.154 16.947 915.011 16.8982C914.871 16.8461 914.713 16.8201 914.537 16.8201C914.322 16.8201 914.132 16.8608 913.966 16.9421C913.8 17.0203 913.66 17.1456 913.546 17.3181C913.435 17.4906 913.351 17.7169 913.292 17.9968C913.233 18.2768 913.204 18.6169 913.204 19.0173V20.3992C913.204 20.7182 913.222 20.9998 913.258 21.2439C913.297 21.488 913.354 21.6996 913.429 21.8787C913.504 22.0544 913.595 22.1993 913.702 22.3132C913.81 22.4272 913.933 22.5118 914.073 22.5671C914.216 22.6192 914.374 22.6453 914.547 22.6453C914.768 22.6453 914.962 22.6029 915.128 22.5183C915.294 22.4337 915.432 22.3018 915.543 22.1228C915.657 21.9405 915.742 21.7078 915.797 21.4246C915.852 21.1381 915.88 20.7963 915.88 20.3992Z" fill="#32375E"/>
</g>
</svg>
