<svg xmlns="http://www.w3.org/2000/svg" fill="none" viewBox="0 0 934 41"><rect width="934" height="40" y=".29" fill="#fff" rx="12"/><path fill="#E7428C" d="m23.666 13.957 3.667 6.333-3.666 6.333h-7.334l-3.666-6.333 3.666-6.333h7.334zm-.768 1.333h-5.796l-2.895 5 2.895 5h5.796l2.895-5-2.895-5zm-3.565 7h1.334v1.333h-1.334V22.29zm0-5.334h1.334v4h-1.334v-4z"/><path fill="#32375E" d="M43.56 16.141v7.149h-.904v-6.02l-1.821.663v-.815l2.583-.977h.142zm7.25.04v.507l-2.944 6.602h-.952l2.94-6.367h-3.848v-.743h4.804zm3.008 3.715v.742h-2.383v-.742h2.383zm3.653-3.086-2.354 6.48h-.962l2.71-7.11h.62l-.014.63zm1.972 6.48-2.358-6.48-.015-.63h.62l2.72 7.11h-.967zm-.122-2.632v.771h-3.994v-.771h3.994zm2.808-1.636v6.299h-.908v-7.314h.83l.078 1.015zm3.56 1.582v.103c0 .384-.046.74-.137 1.07a2.632 2.632 0 0 1-.4.849c-.173.24-.386.428-.64.561-.254.134-.545.2-.874.2a2.23 2.23 0 0 1-.889-.166 1.753 1.753 0 0 1-.654-.483 2.472 2.472 0 0 1-.43-.762 4.414 4.414 0 0 1-.215-1v-.547c.04-.391.112-.741.22-1.05.107-.31.249-.573.425-.791.179-.222.395-.39.65-.503.253-.117.546-.176.878-.176.332 0 .627.065.884.195.257.127.474.31.65.547.175.238.307.523.395.855.09.328.136.695.136 1.098zm-.909.103v-.103c0-.263-.027-.51-.083-.742a1.877 1.877 0 0 0-.258-.615 1.233 1.233 0 0 0-.44-.42 1.25 1.25 0 0 0-.64-.156 1.41 1.41 0 0 0-.595.117 1.29 1.29 0 0 0-.425.317c-.117.13-.213.28-.288.45a2.59 2.59 0 0 0-.161.517v1.265c.065.227.156.442.273.644.117.199.274.36.469.484.195.12.44.18.737.18.244 0 .454-.05.63-.151.18-.104.325-.246.44-.425.117-.179.203-.384.258-.615.056-.235.083-.483.083-.747zm2.964-1.87v4.453h-.903v-5.283h.879l.024.83zm1.65-.86-.004.84a2.289 2.289 0 0 0-.44-.039c-.208 0-.392.033-.552.098-.16.065-.294.156-.405.273-.11.117-.198.257-.263.42-.062.16-.103.335-.123.527l-.254.147c0-.32.031-.619.093-.898.065-.28.165-.528.298-.743.134-.218.303-.387.508-.508a1.427 1.427 0 0 1 .967-.16.668.668 0 0 1 .175.043zm2.715 1.92v.741h-2.382v-.742h2.382zm5.445 2.65v.743H72.9v-.65l2.33-2.592c.286-.32.507-.59.664-.81.16-.226.27-.426.332-.601a1.59 1.59 0 0 0 .097-.547c0-.235-.049-.446-.146-.635a1.098 1.098 0 0 0-.42-.46 1.264 1.264 0 0 0-.674-.17c-.316 0-.58.062-.791.186-.208.12-.365.29-.469.507a1.726 1.726 0 0 0-.156.752h-.903c0-.4.088-.766.263-1.098.176-.332.436-.596.782-.791.345-.199.77-.298 1.274-.298.45 0 .833.08 1.152.239.32.156.564.378.733.664.172.283.259.615.259.996 0 .209-.036.42-.108.635a3.218 3.218 0 0 1-.288.635c-.12.211-.262.42-.425.625a9.75 9.75 0 0 1-.512.605l-1.905 2.066h3.565zm5.625 0v.743h-4.654v-.65l2.33-2.592c.286-.32.507-.59.664-.81.16-.226.27-.426.332-.601a1.59 1.59 0 0 0 .097-.547c0-.235-.049-.446-.146-.635a1.098 1.098 0 0 0-.42-.46 1.264 1.264 0 0 0-.674-.17c-.316 0-.58.062-.791.186-.208.12-.365.29-.469.507a1.726 1.726 0 0 0-.156.752h-.903c0-.4.088-.766.263-1.098.176-.332.436-.596.782-.791.345-.199.77-.298 1.274-.298.45 0 .833.08 1.152.239.32.156.564.378.733.664.172.283.259.615.259.996 0 .209-.036.42-.108.635a3.218 3.218 0 0 1-.288.635c-.12.211-.262.42-.425.625a9.75 9.75 0 0 1-.512.605l-1.905 2.066h3.565zm6.416-6.406v7.149h-.904v-6.02l-1.82.663v-.815l2.582-.977h.142zm5.625 0v7.149h-.904v-6.02l-1.82.663v-.815l2.582-.977h.142zm2.715 6.67c0-.153.047-.281.141-.386.098-.107.238-.16.42-.16s.32.053.415.16a.543.543 0 0 1 .147.386c0 .15-.05.277-.147.381-.094.104-.233.156-.415.156-.182 0-.322-.052-.42-.156a.547.547 0 0 1-.141-.38zm.004-4.311c0-.153.048-.282.142-.386.098-.107.238-.161.42-.161s.32.054.415.161a.543.543 0 0 1 .147.386c0 .15-.05.276-.147.38-.094.105-.233.157-.415.157-.182 0-.322-.052-.42-.156a.547.547 0 0 1-.142-.381zm6.822.669v1.084c0 .582-.052 1.074-.157 1.474-.104.4-.253.723-.449.967a1.706 1.706 0 0 1-.708.532 2.516 2.516 0 0 1-.927.162c-.274 0-.526-.035-.757-.103a1.792 1.792 0 0 1-.625-.327 1.97 1.97 0 0 1-.469-.596c-.13-.244-.23-.54-.298-.889a6.437 6.437 0 0 1-.102-1.22v-1.084c0-.583.052-1.071.156-1.465.107-.394.259-.71.454-.947.195-.241.43-.414.703-.518.277-.104.586-.156.928-.156.276 0 .53.034.761.102a1.714 1.714 0 0 1 1.089.894c.131.238.23.529.298.874.069.345.103.75.103 1.216zm-.908 1.23v-1.382c0-.319-.02-.599-.059-.84a2.678 2.678 0 0 0-.161-.625 1.238 1.238 0 0 0-.274-.42.956.956 0 0 0-.376-.234 1.346 1.346 0 0 0-.473-.078c-.215 0-.406.04-.572.122a1.02 1.02 0 0 0-.419.376 2.008 2.008 0 0 0-.254.679c-.059.28-.088.62-.088 1.02V20.4c0 .32.018.6.053.845.04.244.096.456.171.635.075.175.166.32.274.434.107.114.231.199.371.254.143.052.301.078.474.078.221 0 .415-.042.581-.127a1.05 1.05 0 0 0 .415-.395c.114-.183.198-.415.254-.698.055-.287.083-.629.083-1.026zm3.212-.493-.722-.185.356-3.54h3.648v.834h-2.881l-.215 1.934c.13-.075.295-.145.493-.21a2.26 2.26 0 0 1 .694-.098c.328 0 .623.057.883.171.261.11.482.27.664.479.186.208.327.459.425.752.098.293.147.62.147.981 0 .342-.048.656-.142.943a2.11 2.11 0 0 1-.415.752c-.186.211-.42.375-.703.493-.28.117-.61.175-.991.175-.287 0-.559-.039-.816-.117a2.088 2.088 0 0 1-.683-.366 1.981 1.981 0 0 1-.489-.615 2.494 2.494 0 0 1-.234-.87h.859c.039.268.118.492.235.674.117.183.27.321.459.416.192.09.415.136.669.136.215 0 .405-.037.571-.112.166-.075.306-.182.42-.322.114-.14.2-.31.259-.508.062-.199.092-.422.092-.67 0-.224-.03-.432-.092-.624a1.43 1.43 0 0 0-.279-.503 1.212 1.212 0 0 0-.444-.332 1.427 1.427 0 0 0-.605-.122c-.303 0-.533.04-.689.122a2.642 2.642 0 0 0-.474.332z" opacity=".9"/><path fill="#3F7BDA" d="M195.058 16.17h.078v.767h-.078c-.479 0-.879.078-1.202.235-.322.153-.577.36-.766.62a2.531 2.531 0 0 0-.41.869c-.082.322-.122.65-.122.981v1.045c0 .316.037.596.112.84.075.241.177.444.308.61.13.166.276.292.439.376.166.085.339.127.518.127.208 0 .393-.039.556-.117.163-.081.3-.194.41-.337.114-.146.201-.319.259-.517a2.29 2.29 0 0 0 .088-.655c0-.211-.026-.415-.078-.61a1.634 1.634 0 0 0-.239-.527 1.154 1.154 0 0 0-.977-.503 1.4 1.4 0 0 0-.703.185c-.215.12-.392.28-.532.479a1.29 1.29 0 0 0-.235.64l-.478-.005c.045-.365.13-.676.254-.933.127-.26.283-.472.469-.635.188-.166.398-.286.629-.361.235-.078.482-.117.743-.117.354 0 .66.066.918.2.257.133.468.312.634.537.166.221.288.472.367.752.081.277.122.561.122.855 0 .335-.048.649-.142.942-.094.293-.236.55-.425.771a1.91 1.91 0 0 1-.688.518 2.292 2.292 0 0 1-.952.185c-.385 0-.72-.078-1.006-.234a2.151 2.151 0 0 1-.713-.635 2.882 2.882 0 0 1-.425-.879 3.49 3.49 0 0 1-.142-.981v-.425c0-.501.051-.993.152-1.474.101-.482.275-.918.522-1.309.251-.39.598-.701 1.04-.933.443-.23 1.008-.346 1.695-.346zm3.056 6.363h.093c.521 0 .944-.073 1.27-.22.325-.146.576-.343.752-.59.175-.248.296-.526.361-.835.065-.313.098-.634.098-.963v-1.088a3 3 0 0 0-.113-.86 1.835 1.835 0 0 0-.303-.63 1.33 1.33 0 0 0-.434-.385 1.074 1.074 0 0 0-.518-.132c-.208 0-.395.042-.561.127a1.177 1.177 0 0 0-.415.346c-.111.15-.196.326-.254.528a2.342 2.342 0 0 0-.088.659c0 .212.026.417.078.615.052.199.132.378.239.537.108.16.241.287.401.381.162.091.353.137.571.137.202 0 .391-.04.566-.117a1.633 1.633 0 0 0 .806-.8c.085-.177.134-.36.147-.553h.429c0 .27-.053.537-.161.801-.104.26-.251.498-.439.713-.189.215-.41.387-.664.517a1.83 1.83 0 0 1-.83.19c-.352 0-.656-.068-.914-.204a1.843 1.843 0 0 1-.634-.547 2.512 2.512 0 0 1-.367-.762 3.223 3.223 0 0 1-.117-.86 3.1 3.1 0 0 1 .142-.951c.094-.297.234-.557.42-.782.185-.227.415-.405.688-.532.277-.127.596-.19.957-.19.407 0 .754.081 1.04.244.287.163.52.38.699.654.182.274.315.581.4.923.085.342.127.693.127 1.055v.327c0 .368-.024.742-.073 1.123a4.476 4.476 0 0 1-.269 1.084 2.84 2.84 0 0 1-.571.928c-.251.27-.578.485-.982.644-.4.156-.895.235-1.484.235h-.093v-.767zm6.045-3.242h.645c.315 0 .576-.052.781-.157.208-.107.363-.252.464-.434.104-.186.156-.394.156-.625 0-.273-.045-.503-.137-.688a.915.915 0 0 0-.41-.42c-.182-.095-.413-.142-.693-.142-.254 0-.479.05-.674.151a1.11 1.11 0 0 0-.454.42 1.241 1.241 0 0 0-.161.645h-.904c0-.362.092-.69.274-.987.182-.296.438-.532.766-.708a2.434 2.434 0 0 1 1.153-.263c.43 0 .806.076 1.128.23.322.149.573.374.752.673.179.296.268.666.268 1.108 0 .18-.042.372-.127.577-.081.201-.21.39-.385.566-.173.176-.398.32-.674.435-.277.11-.609.166-.996.166h-.772v-.547zm0 .742v-.542h.772c.452 0 .826.054 1.123.161.296.107.529.25.698.43.172.179.293.376.361.59a2.161 2.161 0 0 1-.063 1.519 1.808 1.808 0 0 1-.474.655 2.022 2.022 0 0 1-.713.405 2.804 2.804 0 0 1-.893.136c-.31 0-.601-.044-.874-.131a2.263 2.263 0 0 1-.718-.381 1.784 1.784 0 0 1-.488-.62 1.938 1.938 0 0 1-.176-.845h.903c0 .247.054.464.161.65.111.185.267.33.469.434.205.1.446.151.723.151.276 0 .514-.047.713-.141.201-.098.356-.245.463-.44.111-.195.166-.44.166-.737 0-.296-.061-.539-.185-.728a1.092 1.092 0 0 0-.527-.424 2.047 2.047 0 0 0-.796-.142h-.645zm5.449-.127-.722-.185.356-3.54h3.648v.834h-2.881l-.215 1.934c.13-.075.295-.145.493-.21.202-.065.433-.098.693-.098.329 0 .624.057.884.171.261.11.482.27.664.479.186.208.327.459.425.752.098.293.147.62.147.981 0 .342-.048.656-.142.943a2.11 2.11 0 0 1-.415.752c-.186.211-.42.375-.703.493-.28.117-.611.175-.991.175-.287 0-.559-.039-.816-.117a2.088 2.088 0 0 1-.683-.366 1.981 1.981 0 0 1-.489-.615 2.494 2.494 0 0 1-.234-.87h.859c.039.268.118.492.235.674.117.183.27.321.459.416.192.09.415.136.669.136.214 0 .405-.037.571-.112.166-.075.306-.182.42-.322.114-.14.2-.31.259-.508.061-.199.092-.422.092-.67 0-.224-.031-.432-.092-.624a1.43 1.43 0 0 0-.279-.503 1.212 1.212 0 0 0-.444-.332 1.427 1.427 0 0 0-.605-.122c-.303 0-.533.04-.689.122a2.642 2.642 0 0 0-.474.332z" opacity=".9"/><path fill="#32375E" d="M230.825 16.18h2.354c.534 0 .984.082 1.352.245.371.162.653.403.845.722.195.316.293.705.293 1.167 0 .326-.067.624-.2.894-.13.267-.319.495-.567.683a2.496 2.496 0 0 1-.879.415l-.263.103h-2.212l-.01-.767h1.67c.339 0 .62-.058.845-.175.224-.12.394-.282.508-.484.113-.202.17-.425.17-.669 0-.273-.053-.512-.161-.718a1.07 1.07 0 0 0-.508-.473c-.227-.114-.522-.171-.883-.171h-1.411v6.338h-.943v-7.11zm4.155 7.11-1.728-3.223.981-.005 1.753 3.17v.058h-1.006zm6.524-.767v.767h-3.765v-.767h3.765zm-3.574-6.343v7.11h-.943v-7.11h.943zm3.076 3.057v.767h-3.267v-.767h3.267zm.449-3.057v.772h-3.716v-.772h3.716zm5.508 4.85h.937c-.048.448-.177.85-.385 1.205a2.259 2.259 0 0 1-.884.845c-.381.205-.856.308-1.426.308-.417 0-.796-.079-1.138-.235a2.541 2.541 0 0 1-.874-.664 3.101 3.101 0 0 1-.566-1.04 4.446 4.446 0 0 1-.195-1.357v-.708c0-.498.065-.95.195-1.353.133-.407.324-.755.571-1.045.251-.29.552-.513.904-.669a2.89 2.89 0 0 1 1.186-.234c.537 0 .991.1 1.362.303.371.201.66.481.865.84.208.354.337.766.385 1.235h-.937a2.616 2.616 0 0 0-.254-.855 1.32 1.32 0 0 0-.527-.556c-.228-.13-.526-.196-.894-.196-.316 0-.594.06-.835.18-.238.121-.438.292-.6.514a2.39 2.39 0 0 0-.362.796c-.081.309-.122.652-.122 1.03v.718c0 .348.036.675.108.981.074.306.187.575.336.806.15.23.341.413.572.546.231.13.504.196.82.196.4 0 .719-.064.957-.19a1.24 1.24 0 0 0 .537-.547c.124-.238.212-.523.264-.855zm6.289-4.85h.937v4.81c0 .534-.118.978-.356 1.333a2.227 2.227 0 0 1-.947.8 3.073 3.073 0 0 1-1.275.264c-.481 0-.918-.087-1.308-.263a2.14 2.14 0 0 1-.923-.801c-.225-.355-.337-.8-.337-1.333v-4.81h.933v4.81c0 .371.068.677.205.918.136.24.327.42.571.537.247.117.534.176.859.176.329 0 .616-.059.86-.176a1.28 1.28 0 0 0 .576-.537c.137-.24.205-.547.205-.918v-4.81zm7.886 0v7.11h-.948l-3.579-5.484v5.484h-.942v-7.11h.942l3.594 5.498V16.18h.933zm5.459 5.313c0-.166-.026-.313-.078-.44a.84.84 0 0 0-.264-.351 2.065 2.065 0 0 0-.518-.298 7.153 7.153 0 0 0-.83-.288 7.667 7.667 0 0 1-.952-.347 3.308 3.308 0 0 1-.727-.444 1.747 1.747 0 0 1-.464-.571 1.62 1.62 0 0 1-.161-.738c0-.276.057-.532.17-.766.114-.235.277-.438.489-.61.215-.176.47-.313.766-.41.297-.098.627-.147.992-.147.533 0 .986.102 1.357.307.374.202.659.468.854.796.196.326.293.674.293 1.045h-.937c0-.267-.057-.503-.171-.708a1.174 1.174 0 0 0-.518-.488c-.231-.12-.524-.18-.878-.18-.336 0-.612.05-.831.15a1.1 1.1 0 0 0-.488.41c-.104.173-.156.37-.156.592 0 .15.031.286.093.41.065.12.164.232.298.337.136.104.309.2.517.288.212.088.464.172.757.254.404.114.752.24 1.045.38.293.14.534.298.723.474.192.173.333.37.424.591.095.218.142.465.142.742 0 .29-.059.552-.176.786a1.708 1.708 0 0 1-.503.6c-.218.167-.48.296-.786.387a3.64 3.64 0 0 1-1.016.131c-.328 0-.652-.045-.971-.136a2.885 2.885 0 0 1-.864-.41 2.15 2.15 0 0 1-.621-.674 1.869 1.869 0 0 1-.229-.938h.937c0 .244.048.454.142.63.094.173.223.316.386.43.166.114.353.198.561.254.212.052.432.078.659.078.329 0 .608-.046.835-.137.228-.091.401-.221.518-.39.12-.17.181-.37.181-.601zm3.891-1.597v.742h-2.383v-.742h2.383zm1.685 2.637h.093c.52 0 .944-.073 1.269-.22.326-.146.576-.343.752-.59.176-.248.296-.526.361-.835.066-.313.098-.634.098-.963v-1.088a3 3 0 0 0-.112-.86 1.872 1.872 0 0 0-.303-.63 1.343 1.343 0 0 0-.435-.385 1.07 1.07 0 0 0-.517-.132 1.186 1.186 0 0 0-.977.474c-.11.15-.195.325-.254.527a2.38 2.38 0 0 0-.087.659c0 .212.026.417.078.615.052.199.132.378.239.537.107.16.241.287.4.381.163.091.354.137.572.137.201 0 .39-.04.566-.117.179-.082.337-.19.474-.327a1.652 1.652 0 0 0 .478-1.026h.43c0 .27-.054.537-.161.801a2.45 2.45 0 0 1-.44.713c-.189.215-.41.387-.664.517-.254.127-.53.19-.83.19a1.92 1.92 0 0 1-.913-.204 1.846 1.846 0 0 1-.635-.547 2.51 2.51 0 0 1-.366-.762 3.223 3.223 0 0 1-.117-.86c0-.338.047-.655.141-.951.095-.297.235-.557.42-.782.186-.227.415-.405.689-.532.277-.127.596-.19.957-.19.407 0 .753.081 1.04.244.286.163.519.38.698.654.182.274.316.581.401.923.084.342.127.693.127 1.055v.327c0 .368-.025.742-.074 1.123a4.474 4.474 0 0 1-.268 1.084c-.13.345-.321.654-.572.928-.25.27-.577.485-.981.644-.4.156-.895.235-1.484.235h-.093v-.767zm9.209-1.167c0 .433-.101.8-.303 1.104-.198.299-.469.527-.81.683a2.71 2.71 0 0 1-1.148.235c-.426 0-.81-.079-1.152-.235a1.897 1.897 0 0 1-.811-.683c-.198-.303-.298-.671-.298-1.104 0-.283.054-.542.161-.776.111-.238.266-.445.464-.62.202-.176.44-.311.713-.406a2.73 2.73 0 0 1 .913-.146c.437 0 .826.084 1.167.254.342.166.611.395.806.688.199.293.298.628.298 1.006zm-.908-.02c0-.263-.057-.496-.171-.698a1.21 1.21 0 0 0-.479-.478 1.441 1.441 0 0 0-.713-.171c-.276 0-.516.057-.717.17a1.186 1.186 0 0 0-.464.48 1.425 1.425 0 0 0-.166.697c0 .274.053.508.161.704.11.192.267.34.469.444.205.1.447.151.727.151.28 0 .521-.05.723-.151.202-.104.356-.252.464-.444.11-.196.166-.43.166-.704zm.742-3.315c0 .345-.091.656-.274.933a1.895 1.895 0 0 1-.747.654c-.315.16-.674.24-1.074.24-.407 0-.77-.08-1.089-.24a1.86 1.86 0 0 1-.742-.654 1.68 1.68 0 0 1-.269-.933c0-.413.09-.765.269-1.055.182-.29.431-.51.747-.664.316-.153.676-.23 1.079-.23.407 0 .768.077 1.084.23.316.153.563.375.742.664.183.29.274.642.274 1.055zm-.904.015c0-.238-.05-.448-.151-.63a1.111 1.111 0 0 0-.42-.43 1.19 1.19 0 0 0-.625-.161c-.237 0-.446.05-.625.151a1.05 1.05 0 0 0-.415.42 1.364 1.364 0 0 0-.146.65c0 .244.049.457.146.64.101.182.241.323.42.424.179.101.387.152.625.152s.444-.051.62-.152c.179-.1.319-.242.42-.425.101-.182.151-.395.151-.64z" opacity=".9"/><path fill="#F0F5F9" d="M327 14.29a6 6 0 0 1 6-6h12a6 6 0 0 1 6 6v12a6 6 0 0 1-6 6h-12a6 6 0 0 1-6-6v-12z"/><path fill="#32375E" d="m336.426 17.606-1.883 5.184h-.77l2.168-5.688h.497l-.012.504zm1.578 5.184-1.887-5.184-.012-.504h.497l2.175 5.688h-.773zm-.098-2.106v.617h-3.195v-.617h3.195zm4.504 1.453 1.445 1.145-.507.469-1.422-1.13.484-.483zm1.426-2.37v.359c0 .427-.053.81-.16 1.148a2.48 2.48 0 0 1-.461.863 2.007 2.007 0 0 1-.723.543 2.263 2.263 0 0 1-.937.188c-.336 0-.645-.063-.926-.188a2.083 2.083 0 0 1-.727-.543 2.532 2.532 0 0 1-.472-.863 3.648 3.648 0 0 1-.168-1.148v-.36c0-.427.054-.808.164-1.144.112-.339.269-.627.472-.863.204-.24.444-.422.723-.547.281-.125.59-.188.926-.188.346 0 .66.063.941.188.282.125.522.307.723.547.2.236.354.524.461.863.109.336.164.717.164 1.144zm-.746.359v-.367c0-.339-.035-.639-.106-.899a1.863 1.863 0 0 0-.3-.656 1.31 1.31 0 0 0-.485-.402 1.49 1.49 0 0 0-.652-.137c-.232 0-.443.045-.633.137a1.348 1.348 0 0 0-.484.402c-.136.177-.24.396-.313.656-.073.26-.109.56-.109.899v.367c0 .34.036.643.109.906.073.26.177.48.313.66.138.177.302.311.492.402.19.092.401.137.633.137.244 0 .462-.045.652-.137.19-.09.35-.225.481-.402.132-.18.233-.4.3-.66.068-.263.102-.565.102-.906z"/><path fill="#656A91" d="m361.156 14.071 1.129-3.969h.547l-.316 1.543-1.215 4.145h-.543l.398-1.719zm-1.168-3.969.899 3.89.269 1.798h-.539l-1.379-5.688h.75zm4.305 3.887.879-3.887h.754l-1.375 5.688h-.539l.281-1.801zm-1.379-3.887 1.098 3.969.398 1.719h-.543l-1.172-4.145-.32-1.543h.539zm6.098 4.965v-2.176a.879.879 0 0 0-.102-.433.664.664 0 0 0-.297-.29 1.077 1.077 0 0 0-.492-.1c-.182 0-.342.03-.48.093a.833.833 0 0 0-.321.246.542.542 0 0 0-.113.328h-.723c0-.15.039-.3.118-.45a1.31 1.31 0 0 1 .336-.402 1.67 1.67 0 0 1 .531-.288c.208-.073.44-.11.695-.11.307 0 .578.052.813.156.237.104.421.262.554.473.136.208.203.47.203.785v1.969c0 .14.012.29.036.45.026.158.063.295.113.41v.062h-.754a1.333 1.333 0 0 1-.086-.332 2.654 2.654 0 0 1-.031-.39zm.125-1.84.008.508h-.731a2.7 2.7 0 0 0-.551.05c-.161.032-.297.08-.406.145a.655.655 0 0 0-.336.586c0 .133.03.254.09.364.06.109.15.196.269.261a.985.985 0 0 0 .45.094c.221 0 .416-.047.586-.14.169-.094.303-.209.402-.344a.738.738 0 0 0 .164-.395l.309.348c-.019.11-.068.23-.149.363a1.753 1.753 0 0 1-.801.684 1.55 1.55 0 0 1-.617.117c-.286 0-.538-.056-.754-.168a1.295 1.295 0 0 1-.5-.45 1.19 1.19 0 0 1-.175-.636c0-.227.044-.426.132-.598.089-.174.216-.319.383-.433.167-.117.367-.206.602-.266.234-.06.496-.09.785-.09h.84zm2.859 2.125 1.176-3.789h.773l-1.695 4.88a2.685 2.685 0 0 1-.156.335 1.621 1.621 0 0 1-.242.348c-.099.11-.219.198-.36.265a1.08 1.08 0 0 1-.496.106 2.101 2.101 0 0 1-.406-.063l-.004-.586c.021.003.053.006.098.008a1.16 1.16 0 0 0 .515-.059.63.63 0 0 0 .289-.214c.081-.1.15-.236.207-.41l.301-.82zm-.863-3.789 1.097 3.281.188.762-.52.266-1.554-4.309h.789zm4.187.903v3.324h-.722v-4.227h.683l.039.903zm-.172 1.05-.3-.011c.002-.29.045-.556.129-.801.083-.248.2-.462.351-.645a1.568 1.568 0 0 1 1.238-.574c.209 0 .396.029.563.086.167.055.309.143.426.266.119.122.211.28.273.476.063.193.094.429.094.707v2.77h-.727v-2.777c0-.222-.032-.399-.097-.532a.598.598 0 0 0-.286-.293 1.018 1.018 0 0 0-.46-.094c-.18 0-.344.038-.493.114-.145.075-.272.18-.379.312a1.578 1.578 0 0 0-.332.996zm5.625 2.352c-.294 0-.561-.05-.8-.149a1.82 1.82 0 0 1-.614-.425 1.894 1.894 0 0 1-.39-.649 2.382 2.382 0 0 1-.137-.82v-.164c0-.344.051-.65.152-.918.102-.27.24-.5.414-.688.175-.187.373-.329.594-.425a1.71 1.71 0 0 1 .688-.145c.302 0 .562.052.781.156.221.104.402.25.543.438.141.185.245.403.312.656.068.25.102.524.102.82v.325h-3.156v-.59h2.433v-.055a1.781 1.781 0 0 0-.117-.547.983.983 0 0 0-.312-.437c-.144-.115-.339-.172-.586-.172a.983.983 0 0 0-.809.41c-.099.135-.176.3-.23.496-.055.195-.082.42-.082.676v.164c0 .2.027.39.082.566.057.175.139.329.246.461.109.133.241.237.394.313.157.075.334.113.531.113.256 0 .472-.052.649-.156a1.61 1.61 0 0 0 .465-.418l.437.348c-.091.138-.207.269-.347.394a1.662 1.662 0 0 1-.52.305 2.01 2.01 0 0 1-.723.117zm8.196-.691v.613h-3.012v-.613h3.012zm-2.86-5.075v5.688h-.754v-5.688h.754zm2.461 2.446v.613h-2.613v-.613h2.613zm.36-2.446v.617h-2.973v-.617h2.973zm1.586 2.364v3.324h-.723v-4.227h.684l.039.903zm-.172 1.05-.301-.011c.003-.29.046-.556.129-.801.083-.248.2-.462.351-.645a1.568 1.568 0 0 1 1.239-.574c.208 0 .396.029.562.086.167.055.309.143.426.266.12.122.211.28.273.476.063.193.094.429.094.707v2.77h-.726v-2.777c0-.222-.033-.399-.098-.532a.6.6 0 0 0-.285-.293 1.025 1.025 0 0 0-.461-.094c-.18 0-.344.038-.492.114-.146.075-.272.18-.379.312a1.578 1.578 0 0 0-.332.996zm5.64-1.953v.555h-2.285v-.555h2.285zm-1.511-1.027h.722v4.207c0 .143.022.251.067.324a.315.315 0 0 0 .172.145c.07.023.145.035.226.035.06 0 .123-.005.188-.016.067-.013.118-.023.152-.031l.004.59a1.678 1.678 0 0 1-.227.05 1.718 1.718 0 0 1-.332.028c-.177 0-.34-.035-.488-.106a.784.784 0 0 1-.355-.351c-.086-.167-.129-.39-.129-.672v-4.203zm4.113 5.332c-.294 0-.561-.05-.801-.149a1.816 1.816 0 0 1-.613-.425 1.897 1.897 0 0 1-.391-.649 2.382 2.382 0 0 1-.136-.82v-.164c0-.344.05-.65.152-.918.101-.27.239-.5.414-.688.174-.187.372-.329.594-.425.221-.097.45-.145.687-.145.302 0 .563.052.781.156.222.104.403.25.543.438.141.185.245.403.313.656.068.25.101.524.101.82v.325h-3.156v-.59h2.434v-.055a1.842 1.842 0 0 0-.117-.547.985.985 0 0 0-.313-.437c-.143-.115-.338-.172-.586-.172a.983.983 0 0 0-.808.41 1.54 1.54 0 0 0-.231.496c-.055.195-.082.42-.082.676v.164c0 .2.027.39.082.566.057.175.139.329.246.461.11.133.241.237.395.313.156.075.333.113.531.113.255 0 .471-.052.648-.156.178-.104.332-.244.465-.418l.438.348c-.091.138-.207.269-.348.394-.14.125-.314.227-.519.305a2.014 2.014 0 0 1-.723.117zm3.211-3.64v3.562h-.723v-4.227h.703l.02.664zm1.32-.688-.004.672a1.824 1.824 0 0 0-.351-.031c-.167 0-.314.025-.442.077a.923.923 0 0 0-.324.22 1.06 1.06 0 0 0-.211.335 1.61 1.61 0 0 0-.097.422l-.204.117c0-.255.025-.495.075-.719.052-.223.131-.421.238-.593.107-.175.242-.31.406-.406a1.145 1.145 0 0 1 .914-.094zm1.391.836v5.039h-.727v-5.852h.664l.063.813zm2.847 1.265v.082c0 .308-.036.593-.109.856-.073.26-.18.487-.32.68a1.459 1.459 0 0 1-.512.449 1.48 1.48 0 0 1-.699.16c-.268 0-.505-.044-.711-.133a1.407 1.407 0 0 1-.524-.387 1.98 1.98 0 0 1-.343-.609 3.478 3.478 0 0 1-.172-.8V13.5c.031-.313.09-.593.176-.84s.199-.458.339-.633c.144-.177.317-.311.52-.402.203-.094.438-.14.703-.14.266 0 .501.051.707.155.206.102.379.248.52.438a2 2 0 0 1 .316.683c.073.263.109.556.109.88zm-.726.082v-.082c0-.21-.022-.409-.067-.593a1.49 1.49 0 0 0-.207-.493.985.985 0 0 0-.351-.335 1 1 0 0 0-.512-.126c-.182 0-.341.032-.476.094a1.033 1.033 0 0 0-.34.254 1.346 1.346 0 0 0-.231.36c-.057.132-.1.27-.129.414v1.011c.052.183.125.354.219.516.094.159.219.288.375.387.156.096.353.144.59.144.195 0 .363-.04.504-.12a1.02 1.02 0 0 0 .351-.34c.094-.144.163-.308.207-.493.045-.188.067-.387.067-.598zM409 12.227v3.563h-.723v-4.227h.703l.02.664zm1.32-.687-.004.672a1.845 1.845 0 0 0-.351-.031c-.167 0-.314.025-.442.077a.923.923 0 0 0-.324.22 1.06 1.06 0 0 0-.211.335 1.61 1.61 0 0 0-.097.422l-.203.117c0-.255.024-.495.074-.719.052-.223.131-.421.238-.593.107-.175.242-.31.406-.406a1.145 1.145 0 0 1 .914-.094zm1.453.023v4.227h-.726v-4.227h.726zm-.781-1.12c0-.118.035-.217.106-.298.073-.08.179-.12.32-.12.138 0 .243.04.316.12.076.081.114.18.114.297a.407.407 0 0 1-.114.29c-.073.077-.178.116-.316.116-.141 0-.247-.039-.32-.117a.423.423 0 0 1-.106-.289zm4.403 4.226c0-.104-.024-.2-.071-.29-.044-.09-.136-.172-.277-.245-.138-.076-.346-.141-.625-.196a4.957 4.957 0 0 1-.637-.176 1.945 1.945 0 0 1-.48-.246 1.021 1.021 0 0 1-.301-.34.951.951 0 0 1-.106-.457c0-.166.037-.324.11-.472.075-.149.181-.28.316-.395.138-.114.304-.204.496-.27a2.01 2.01 0 0 1 .645-.097c.338 0 .627.06.867.18s.423.28.551.48c.127.198.191.418.191.66h-.722a.623.623 0 0 0-.106-.34.78.78 0 0 0-.301-.277.97.97 0 0 0-.48-.11c-.201 0-.363.032-.488.095a.623.623 0 0 0-.27.23.577.577 0 0 0-.043.508.47.47 0 0 0 .148.168c.071.05.17.096.297.14.128.045.291.089.489.133.346.078.631.172.855.281.224.11.391.244.5.403a.997.997 0 0 1 .164.578 1.13 1.13 0 0 1-.449.906c-.143.11-.315.196-.516.258a2.3 2.3 0 0 1-.668.09c-.372 0-.687-.066-.945-.2a1.462 1.462 0 0 1-.586-.515 1.232 1.232 0 0 1-.199-.668h.726a.752.752 0 0 0 .172.473.883.883 0 0 0 .383.246c.151.047.301.07.449.07.198 0 .364-.026.496-.078a.687.687 0 0 0 .309-.215.5.5 0 0 0 .106-.312zm3.425 1.199c-.294 0-.561-.05-.8-.149a1.82 1.82 0 0 1-.614-.425 1.894 1.894 0 0 1-.39-.649 2.358 2.358 0 0 1-.137-.82v-.164c0-.344.051-.65.152-.918.102-.27.24-.5.414-.688.175-.187.373-.329.594-.425.221-.097.451-.145.688-.145.302 0 .562.052.781.156.221.104.402.25.543.438.14.185.245.403.312.656.068.25.102.524.102.82v.325h-3.156v-.59h2.433v-.055a1.781 1.781 0 0 0-.117-.547.978.978 0 0 0-.313-.437c-.143-.115-.338-.172-.585-.172a.985.985 0 0 0-.809.41c-.099.135-.176.3-.23.496a2.5 2.5 0 0 0-.083.676v.164c0 .2.028.39.083.566.057.175.139.329.246.461.109.133.24.237.394.313.156.075.333.113.531.113.256 0 .472-.052.649-.156a1.61 1.61 0 0 0 .465-.418l.437.348c-.091.138-.207.269-.348.394-.14.125-.313.227-.519.305a2.01 2.01 0 0 1-.723.117zm4.95-1.2c0-.103-.024-.2-.071-.288-.044-.091-.137-.174-.277-.247-.138-.075-.346-.14-.625-.195a4.912 4.912 0 0 1-.637-.176 1.927 1.927 0 0 1-.48-.246 1.021 1.021 0 0 1-.301-.34.951.951 0 0 1-.106-.457c0-.166.037-.324.11-.472.075-.149.181-.28.316-.395.138-.114.304-.204.496-.27a2.01 2.01 0 0 1 .645-.097c.338 0 .627.06.867.18s.423.28.551.48c.127.198.191.418.191.66h-.722a.623.623 0 0 0-.106-.34.78.78 0 0 0-.301-.277.97.97 0 0 0-.48-.11c-.201 0-.363.032-.488.095a.623.623 0 0 0-.27.23.577.577 0 0 0-.043.508c.029.06.078.116.149.168.07.05.169.096.296.14.128.045.291.089.489.133.346.078.631.172.855.281.224.11.391.244.5.403a.99.99 0 0 1 .164.578 1.13 1.13 0 0 1-.449.906c-.143.11-.315.196-.516.258a2.3 2.3 0 0 1-.668.09c-.372 0-.687-.066-.945-.2a1.462 1.462 0 0 1-.586-.515 1.232 1.232 0 0 1-.199-.668h.726a.752.752 0 0 0 .172.473.883.883 0 0 0 .383.246c.151.047.301.07.449.07.198 0 .364-.026.496-.078a.687.687 0 0 0 .309-.215.5.5 0 0 0 .106-.312z"/><path fill="#32375E" d="m362.457 22.31-2.353 6.48h-.962l2.71-7.11h.62l-.015.63zm1.973 6.48-2.359-6.48-.014-.63h.62l2.719 7.11h-.966zm-.122-2.632v.771h-3.995v-.771h3.995zm2.807-1.524v4.156h-.903v-5.283h.854l.049 1.127zm-.215 1.314-.376-.015c.004-.361.057-.695.162-1 .104-.31.25-.578.439-.806a1.954 1.954 0 0 1 1.548-.718c.26 0 .495.036.703.107.208.069.386.18.532.332.15.153.264.352.342.596.078.241.117.536.117.884v3.462h-.908v-3.472c0-.277-.041-.498-.122-.664a.747.747 0 0 0-.357-.366 1.278 1.278 0 0 0-.576-.117 1.34 1.34 0 0 0-.615.141c-.182.095-.34.225-.474.39-.13.167-.232.357-.307.572a2.078 2.078 0 0 0-.108.674zm7.051-2.441v.693h-2.856v-.693h2.856zm-1.889-1.285h.903v5.26c0 .178.028.313.083.405a.396.396 0 0 0 .215.18c.088.03.182.044.283.044.075 0 .153-.006.234-.02a6 6 0 0 0 .191-.039l.005.738a2.12 2.12 0 0 1-.284.063 2.15 2.15 0 0 1-.415.034c-.221 0-.424-.044-.61-.131a.976.976 0 0 1-.444-.44c-.108-.208-.161-.488-.161-.84v-5.254zm3.852-.932v7.5h-.903v-7.5h.903zm-.215 4.658-.376-.015c.003-.361.057-.695.161-1 .105-.31.251-.578.44-.806a1.954 1.954 0 0 1 1.548-.718c.26 0 .494.036.703.107.208.069.386.18.532.332.15.153.264.352.342.596.078.241.117.536.117.884v3.462h-.908v-3.472c0-.277-.041-.498-.122-.664a.751.751 0 0 0-.357-.366 1.278 1.278 0 0 0-.576-.117c-.224 0-.43.047-.615.141-.182.095-.34.225-.474.39-.13.167-.232.357-.307.572a2.078 2.078 0 0 0-.108.674zm4.58.259v-.113c0-.38.056-.734.166-1.06.111-.328.27-.613.479-.854.208-.244.46-.433.757-.566.296-.137.628-.205.996-.205.371 0 .705.068 1.001.205.299.133.553.322.761.566.212.241.373.526.484.855.111.325.166.679.166 1.06v.112c0 .38-.055.734-.166 1.06-.111.325-.272.61-.484.854-.208.24-.46.43-.756.566-.293.134-.625.2-.996.2-.372 0-.705-.066-1.001-.2a2.254 2.254 0 0 1-.762-.566 2.575 2.575 0 0 1-.479-.855 3.29 3.29 0 0 1-.166-1.06zm.904-.113v.113c0 .264.031.512.092.747.062.231.155.436.279.615.127.18.285.32.473.425.189.1.409.151.66.151.247 0 .463-.05.649-.151.189-.104.345-.246.469-.425.123-.179.216-.384.278-.615.065-.235.098-.483.098-.747v-.113c0-.26-.033-.506-.098-.737a1.9 1.9 0 0 0-.283-.62 1.347 1.347 0 0 0-.469-.43 1.314 1.314 0 0 0-.654-.156c-.248 0-.466.052-.655.156a1.408 1.408 0 0 0-.468.43 1.958 1.958 0 0 0-.279.62 2.879 2.879 0 0 0-.092.738zm5.942-1.46v4.156h-.903v-5.283h.854l.049 1.127zm-.215 1.314-.376-.015c.003-.361.057-.695.161-1 .104-.31.251-.578.44-.806a1.954 1.954 0 0 1 1.548-.718c.26 0 .494.036.703.107.208.069.385.18.532.332.15.153.264.352.342.596.078.241.117.536.117.884v3.462h-.908v-3.472c0-.277-.041-.498-.122-.664a.755.755 0 0 0-.357-.366 1.278 1.278 0 0 0-.576-.117c-.225 0-.43.047-.615.141-.182.095-.34.225-.474.39-.13.167-.233.357-.307.572a2.078 2.078 0 0 0-.108.674zm6.323 2.295 1.47-4.736h.967l-2.119 6.098a3.3 3.3 0 0 1-.196.42 2.026 2.026 0 0 1-.302.435 1.453 1.453 0 0 1-.449.332c-.173.088-.38.132-.621.132-.071 0-.162-.01-.273-.03a2.565 2.565 0 0 1-.234-.048l-.005-.733.122.01a1.451 1.451 0 0 0 .644-.073.79.79 0 0 0 .362-.269c.101-.124.187-.295.258-.513l.376-1.025zm-1.079-4.736 1.372 4.101.235.952-.65.332-1.943-5.385h.986zm10.596 4.467 1.807 1.431-.635.586-1.777-1.411.605-.606zm1.782-2.963v.449c0 .534-.067 1.012-.2 1.435a3.072 3.072 0 0 1-.576 1.08 2.506 2.506 0 0 1-.903.678 2.836 2.836 0 0 1-1.172.235c-.42 0-.806-.079-1.158-.235a2.603 2.603 0 0 1-.908-.679 3.163 3.163 0 0 1-.591-1.079 4.56 4.56 0 0 1-.21-1.435v-.45c0-.533.069-1.01.206-1.43a3.16 3.16 0 0 1 .59-1.08c.254-.299.555-.527.904-.683a2.815 2.815 0 0 1 1.157-.234c.433 0 .825.078 1.177.234.351.156.652.384.903.684.251.296.443.656.576 1.079.137.42.205.897.205 1.43zm-.932.449V25c0-.422-.044-.797-.132-1.122a2.335 2.335 0 0 0-.376-.82 1.631 1.631 0 0 0-.606-.504 1.86 1.86 0 0 0-.815-.17c-.29 0-.553.056-.791.17a1.696 1.696 0 0 0-.606.503 2.403 2.403 0 0 0-.39.82c-.091.326-.137.7-.137 1.124v.459c0 .426.046.804.137 1.133.091.325.221.6.39.825.173.221.378.389.616.503.237.114.501.17.791.17.306 0 .577-.056.815-.17.238-.114.438-.282.601-.503.166-.225.291-.5.376-.825.084-.33.127-.707.127-1.133zm5.483 2.11v-4.063h.908v5.283h-.864l-.044-1.22zm.171-1.114.376-.01c0 .352-.038.677-.112.977a2.1 2.1 0 0 1-.352.771 1.663 1.663 0 0 1-.64.513c-.263.12-.584.18-.962.18a2.14 2.14 0 0 1-.708-.112 1.416 1.416 0 0 1-.546-.346 1.583 1.583 0 0 1-.357-.61 2.955 2.955 0 0 1-.122-.904v-3.408h.903v3.418c0 .237.026.434.078.59a.992.992 0 0 0 .22.367.82.82 0 0 0 .313.185c.117.036.237.054.361.054.384 0 .689-.073.913-.22.225-.15.386-.35.484-.6.1-.254.151-.536.151-.845zm3.096-2.95v5.284h-.909v-5.283h.909zm-.977-1.4c0-.147.044-.271.132-.372.091-.1.224-.151.4-.151.173 0 .305.05.396.151.094.101.141.225.141.371 0 .14-.047.26-.141.362-.091.097-.223.146-.396.146-.176 0-.309-.049-.4-.146a.532.532 0 0 1-.132-.362zm3.33 2.528v4.156h-.903v-5.283h.854l.049 1.127zm-.215 1.314-.376-.015c.004-.361.057-.695.161-1 .105-.31.251-.578.44-.806a1.954 1.954 0 0 1 1.548-.718c.26 0 .495.036.703.107.208.069.386.18.532.332.15.153.264.352.342.596.078.241.117.536.117.884v3.462h-.908v-3.472c0-.277-.041-.498-.122-.664a.751.751 0 0 0-.357-.366 1.278 1.278 0 0 0-.576-.117c-.224 0-.43.047-.615.141-.182.095-.34.225-.474.39-.13.167-.232.357-.307.572a2.078 2.078 0 0 0-.108.674zm5.742-1.314v4.156h-.903v-5.283h.855l.048 1.127zm-.214 1.314-.376-.015c.003-.361.057-.695.161-1 .104-.31.25-.578.439-.806a1.964 1.964 0 0 1 1.548-.718c.261 0 .495.036.703.107.209.069.386.18.532.332.15.153.264.352.342.596.078.241.117.536.117.884v3.462h-.908v-3.472c0-.277-.04-.498-.122-.664a.75.75 0 0 0-.356-.366 1.284 1.284 0 0 0-.576-.117c-.225 0-.43.047-.616.141-.182.095-.34.225-.473.39a1.95 1.95 0 0 0-.308.572 2.077 2.077 0 0 0-.107.674z"/><path fill="#32375E" d="M512.123 16.18h.913l2.329 5.796 2.324-5.796h.918l-2.89 7.11h-.713l-2.881-7.11zm-.298 0h.806l.132 4.336v2.774h-.938v-7.11zm6.27 0h.805v7.11h-.937v-2.774l.132-4.336zm4.516 7.207a2.6 2.6 0 0 1-1.001-.185 2.27 2.27 0 0 1-.766-.532 2.364 2.364 0 0 1-.489-.81 2.995 2.995 0 0 1-.17-1.026v-.205c0-.43.063-.813.19-1.148.127-.338.299-.625.518-.86.218-.233.465-.411.742-.531.276-.12.563-.181.859-.181.378 0 .703.065.977.195.276.13.503.313.678.547.176.231.306.505.391.82a3.9 3.9 0 0 1 .127 1.026v.405h-3.945v-.737h3.042v-.069a2.243 2.243 0 0 0-.147-.683 1.225 1.225 0 0 0-.39-.547c-.179-.143-.424-.215-.733-.215a1.227 1.227 0 0 0-1.011.513c-.123.17-.219.376-.288.62a3.16 3.16 0 0 0-.102.845v.205c0 .25.034.486.102.708.072.218.174.41.308.576.137.166.301.296.493.39.195.095.417.142.664.142.319 0 .589-.065.811-.195a2.01 2.01 0 0 0 .581-.523l.547.435a2.522 2.522 0 0 1-.435.493 2.076 2.076 0 0 1-.649.381 2.517 2.517 0 0 1-.904.146zm5.323-5.38v.693h-2.857v-.693h2.857zm-1.89-1.285h.903v5.26c0 .178.028.313.083.405a.4.4 0 0 0 .215.18c.088.03.182.044.283.044.075 0 .153-.006.235-.02.084-.016.148-.029.19-.039l.005.738a2.137 2.137 0 0 1-.283.063 2.15 2.15 0 0 1-.415.034 1.41 1.41 0 0 1-.611-.131.986.986 0 0 1-.444-.44c-.107-.208-.161-.488-.161-.84v-5.254zm5.142 6.665c-.368 0-.702-.061-1.001-.185a2.265 2.265 0 0 1-.767-.532 2.362 2.362 0 0 1-.488-.81 2.971 2.971 0 0 1-.171-1.026v-.205c0-.43.063-.813.19-1.148.127-.338.3-.625.518-.86.218-.233.465-.411.742-.531.277-.12.563-.181.859-.181.378 0 .703.065.977.195.277.13.503.313.679.547.175.231.306.505.39.82a3.9 3.9 0 0 1 .127 1.026v.405h-3.945v-.737h3.042v-.069a2.243 2.243 0 0 0-.147-.683 1.225 1.225 0 0 0-.39-.547c-.179-.143-.423-.215-.733-.215a1.227 1.227 0 0 0-1.01.513c-.124.17-.22.376-.288.62a3.118 3.118 0 0 0-.103.845v.205c0 .25.034.486.103.708.071.218.174.41.307.576.137.166.301.296.493.39.196.095.417.142.664.142.319 0 .59-.065.811-.195a2.01 2.01 0 0 0 .581-.523l.547.435a2.522 2.522 0 0 1-.435.493 2.076 2.076 0 0 1-.649.381 2.515 2.515 0 0 1-.903.146zm4.013-4.55v4.453h-.903v-5.283h.879l.024.83zm1.651-.86-.005.84a2.29 2.29 0 0 0-.44-.039c-.208 0-.392.033-.551.098-.16.065-.295.156-.406.273-.11.117-.198.257-.263.42-.062.16-.103.335-.123.527l-.253.147c0-.32.031-.619.092-.898.065-.28.165-.528.298-.743.134-.218.303-.387.508-.508a1.427 1.427 0 0 1 .967-.16.683.683 0 0 1 .176.043zm2.929 5.41a2.6 2.6 0 0 1-1.001-.185 2.27 2.27 0 0 1-.766-.532 2.364 2.364 0 0 1-.489-.81 2.995 2.995 0 0 1-.17-1.026v-.205c0-.43.063-.813.19-1.148.127-.338.299-.625.518-.86.218-.233.465-.411.742-.531.276-.12.563-.181.859-.181.378 0 .703.065.977.195.276.13.503.313.678.547.176.231.306.505.391.82a3.9 3.9 0 0 1 .127 1.026v.405h-3.945v-.737h3.042v-.069a2.243 2.243 0 0 0-.147-.683 1.225 1.225 0 0 0-.39-.547c-.18-.143-.424-.215-.733-.215a1.227 1.227 0 0 0-1.011.513c-.123.17-.219.376-.288.62a3.16 3.16 0 0 0-.102.845v.205c0 .25.034.486.102.708.072.218.174.41.308.576.137.166.301.296.493.39.195.095.417.142.664.142.319 0 .589-.065.811-.195a2.01 2.01 0 0 0 .581-.523l.547.435a2.522 2.522 0 0 1-.435.493 2.076 2.076 0 0 1-.649.381 2.517 2.517 0 0 1-.904.146zm6.441-1.123V15.79h.908v7.5h-.83l-.078-1.026zm-3.555-1.557v-.103c0-.403.049-.77.147-1.098.1-.332.242-.617.424-.855a1.872 1.872 0 0 1 1.519-.742c.332 0 .622.059.869.176.251.114.462.281.635.503.176.218.314.481.415.79.101.31.171.66.21 1.05v.45a4.62 4.62 0 0 1-.21 1.045c-.101.309-.239.573-.415.79a1.74 1.74 0 0 1-.635.504 2.11 2.11 0 0 1-.879.17c-.309 0-.592-.066-.849-.2a2.012 2.012 0 0 1-.66-.561 2.722 2.722 0 0 1-.424-.85 3.729 3.729 0 0 1-.147-1.07zm.908-.103v.103c0 .264.026.51.078.742.056.231.14.434.254.61.114.176.259.314.435.415.176.098.386.147.63.147.299 0 .545-.064.737-.19.195-.128.352-.295.469-.504.117-.208.208-.434.273-.678v-1.177a2.598 2.598 0 0 0-.171-.518 1.585 1.585 0 0 0-.283-.449 1.22 1.22 0 0 0-.425-.317 1.377 1.377 0 0 0-.591-.117c-.247 0-.46.052-.639.156-.176.1-.321.24-.435.42-.114.176-.198.38-.254.615a3.376 3.376 0 0 0-.078.742zM684.186 16.18v.508l-2.945 6.602h-.952l2.94-6.367h-3.848v-.743h4.805zm2.172 3.726-.722-.185.356-3.54h3.648v.834h-2.881l-.215 1.934c.13-.075.295-.145.493-.21.202-.065.433-.098.693-.098.329 0 .624.057.884.171.261.11.482.27.664.479.186.208.327.459.425.752.098.293.147.62.147.981 0 .342-.048.656-.142.943a2.11 2.11 0 0 1-.415.752c-.186.211-.42.375-.703.493-.28.117-.611.175-.991.175-.287 0-.559-.039-.816-.117a2.088 2.088 0 0 1-.683-.366 1.981 1.981 0 0 1-.489-.615 2.494 2.494 0 0 1-.234-.87h.859c.039.268.118.492.235.674.117.183.27.321.459.416.192.09.415.136.669.136.214 0 .405-.037.571-.112.166-.075.306-.182.42-.322.114-.14.2-.31.259-.508.061-.199.092-.422.092-.67 0-.224-.031-.432-.092-.624a1.43 1.43 0 0 0-.279-.503 1.212 1.212 0 0 0-.444-.332 1.427 1.427 0 0 0-.605-.122c-.303 0-.533.04-.689.122a2.642 2.642 0 0 0-.474.332zm4.595 2.905c0-.153.047-.281.142-.386.097-.107.237-.16.42-.16.182 0 .32.053.415.16a.545.545 0 0 1 .146.386c0 .15-.049.277-.146.381-.095.104-.233.156-.415.156-.183 0-.323-.052-.42-.156a.544.544 0 0 1-.142-.38zm6.987-3.642v1.084c0 .582-.052 1.074-.156 1.474-.104.4-.254.723-.449.967a1.706 1.706 0 0 1-.708.532 2.521 2.521 0 0 1-.928.162c-.273 0-.525-.035-.757-.103a1.801 1.801 0 0 1-.625-.327 1.984 1.984 0 0 1-.468-.596 3.16 3.16 0 0 1-.298-.889 6.35 6.35 0 0 1-.103-1.22v-1.084c0-.583.052-1.071.156-1.465.108-.394.259-.71.455-.947.195-.241.429-.414.703-.518.276-.104.586-.156.927-.156.277 0 .531.034.762.102a1.714 1.714 0 0 1 1.089.894c.13.238.23.529.298.874.068.345.102.75.102 1.216zm-.908 1.23v-1.382c0-.319-.019-.599-.058-.84a2.627 2.627 0 0 0-.162-.625 1.222 1.222 0 0 0-.273-.42.963.963 0 0 0-.376-.234 1.352 1.352 0 0 0-.474-.078c-.214 0-.405.04-.571.122a1.028 1.028 0 0 0-.42.376 2.05 2.05 0 0 0-.254.679 5.11 5.11 0 0 0-.088 1.02V20.4c0 .32.018.6.054.845.039.244.096.456.171.635.075.175.166.32.273.434.108.114.232.199.372.254.143.052.301.078.473.078.222 0 .415-.042.581-.127.166-.084.305-.216.415-.395.114-.183.199-.415.254-.698.056-.287.083-.629.083-1.026zm6.533-1.23v1.084c0 .582-.052 1.074-.156 1.474-.104.4-.254.723-.449.967a1.706 1.706 0 0 1-.708.532 2.521 2.521 0 0 1-.928.162c-.273 0-.525-.035-.757-.103a1.801 1.801 0 0 1-.625-.327 1.984 1.984 0 0 1-.468-.596 3.16 3.16 0 0 1-.298-.889 6.35 6.35 0 0 1-.103-1.22v-1.084c0-.583.052-1.071.156-1.465.108-.394.259-.71.455-.947.195-.241.429-.414.703-.518.276-.104.586-.156.927-.156.277 0 .531.034.762.102a1.714 1.714 0 0 1 1.089.894c.13.238.23.529.298.874.068.345.102.75.102 1.216zm-.908 1.23v-1.382c0-.319-.019-.599-.058-.84a2.678 2.678 0 0 0-.161-.625 1.238 1.238 0 0 0-.274-.42.963.963 0 0 0-.376-.234 1.352 1.352 0 0 0-.474-.078c-.214 0-.405.04-.571.122a1.028 1.028 0 0 0-.42.376 2.05 2.05 0 0 0-.254.679 5.11 5.11 0 0 0-.088 1.02V20.4c0 .32.018.6.054.845.039.244.096.456.171.635.075.175.166.32.273.434.108.114.232.199.372.254.143.052.301.078.473.078.222 0 .415-.042.581-.127.166-.084.305-.216.415-.395.114-.183.199-.415.254-.698.056-.287.083-.629.083-1.026zM726.342 22.523v.767h-3.765v-.767h3.765zm-3.574-6.343v7.11h-.943v-7.11h.943zm3.076 3.057v.767h-3.267v-.767h3.267zm.449-3.057v.772h-3.716v-.772h3.716zm5.283 0h.938v4.81c0 .534-.119.978-.357 1.333a2.22 2.22 0 0 1-.947.8 3.068 3.068 0 0 1-1.274.264c-.482 0-.918-.087-1.309-.263a2.145 2.145 0 0 1-.923-.801c-.225-.355-.337-.8-.337-1.333v-4.81h.933v4.81c0 .371.068.677.205.918.137.24.327.42.571.537.248.117.534.176.86.176.328 0 .615-.059.859-.176a1.28 1.28 0 0 0 .576-.537c.137-.24.205-.547.205-.918v-4.81zm2.417 0h2.354c.534 0 .984.082 1.352.245.371.162.653.403.845.722.195.316.293.705.293 1.167 0 .326-.067.624-.2.894-.13.267-.319.495-.567.683a2.496 2.496 0 0 1-.879.415l-.263.103h-2.212l-.01-.767h1.67c.339 0 .62-.058.845-.175.224-.12.394-.282.508-.484.113-.202.17-.425.17-.669 0-.273-.053-.512-.161-.718a1.07 1.07 0 0 0-.508-.473c-.227-.114-.522-.171-.883-.171h-1.411v6.338h-.943v-7.11zm4.155 7.11-1.728-3.223.981-.005 1.753 3.17v.058h-1.006zM815.56 16.141v7.149h-.904v-6.02l-1.821.663v-.815l2.583-.977h.142zm5.898.04-2.964 7.72h-.776l2.969-7.72h.771zm2.866 3.715v.742h-2.383v-.742h2.383zm2.764 0v.742h-2.383v-.742h2.383zM897.186 16.18v.508l-2.945 6.602h-.952l2.94-6.367h-3.848v-.743h4.805zm2.172 3.726-.722-.185.356-3.54h3.648v.834h-2.881l-.215 1.934c.13-.075.295-.145.493-.21.202-.065.433-.098.693-.098.329 0 .624.057.884.171.261.11.482.27.664.479.186.208.327.459.425.752.098.293.147.62.147.981 0 .342-.048.656-.142.943a2.11 2.11 0 0 1-.415.752c-.186.211-.42.375-.703.493-.28.117-.611.175-.991.175-.287 0-.559-.039-.816-.117a2.088 2.088 0 0 1-.683-.366 1.981 1.981 0 0 1-.489-.615 2.494 2.494 0 0 1-.234-.87h.859c.039.268.118.492.235.674.117.183.27.321.459.416.192.09.415.136.669.136.214 0 .405-.037.571-.112.166-.075.306-.182.42-.322.114-.14.2-.31.259-.508.061-.199.092-.422.092-.67 0-.224-.031-.432-.092-.624a1.43 1.43 0 0 0-.279-.503 1.212 1.212 0 0 0-.444-.332 1.427 1.427 0 0 0-.605-.122c-.303 0-.533.04-.689.122a2.642 2.642 0 0 0-.474.332zm4.595 2.905c0-.153.047-.281.142-.386.097-.107.237-.16.42-.16.182 0 .32.053.415.16a.545.545 0 0 1 .146.386c0 .15-.049.277-.146.381-.095.104-.233.156-.415.156-.183 0-.323-.052-.42-.156a.544.544 0 0 1-.142-.38zm6.987-3.642v1.084c0 .582-.052 1.074-.156 1.474-.104.4-.254.723-.449.967a1.706 1.706 0 0 1-.708.532 2.521 2.521 0 0 1-.928.162c-.273 0-.525-.035-.757-.103a1.801 1.801 0 0 1-.625-.327 1.984 1.984 0 0 1-.468-.596 3.16 3.16 0 0 1-.298-.889 6.35 6.35 0 0 1-.103-1.22v-1.084c0-.583.052-1.071.156-1.465.108-.394.259-.71.455-.947.195-.241.429-.414.703-.518.276-.104.586-.156.927-.156.277 0 .531.034.762.102a1.714 1.714 0 0 1 1.089.894c.13.238.23.529.298.874.068.345.102.75.102 1.216zm-.908 1.23v-1.382c0-.319-.019-.599-.058-.84a2.627 2.627 0 0 0-.162-.625 1.222 1.222 0 0 0-.273-.42.963.963 0 0 0-.376-.234 1.352 1.352 0 0 0-.474-.078c-.214 0-.405.04-.571.122a1.028 1.028 0 0 0-.42.376 2.05 2.05 0 0 0-.254.679 5.11 5.11 0 0 0-.088 1.02V20.4c0 .32.018.6.054.845.039.244.096.456.171.635.075.175.166.32.273.434.108.114.232.199.372.254.143.052.301.078.473.078.222 0 .415-.042.581-.127.166-.084.305-.216.415-.395.114-.183.199-.415.254-.698.056-.287.083-.629.083-1.026zm6.533-1.23v1.084c0 .582-.052 1.074-.156 1.474-.104.4-.254.723-.449.967a1.706 1.706 0 0 1-.708.532 2.521 2.521 0 0 1-.928.162c-.273 0-.525-.035-.757-.103a1.801 1.801 0 0 1-.625-.327 1.984 1.984 0 0 1-.468-.596 3.16 3.16 0 0 1-.298-.889 6.35 6.35 0 0 1-.103-1.22v-1.084c0-.583.052-1.071.156-1.465.108-.394.259-.71.455-.947.195-.241.429-.414.703-.518.276-.104.586-.156.927-.156.277 0 .531.034.762.102a1.714 1.714 0 0 1 1.089.894c.13.238.23.529.298.874.068.345.102.75.102 1.216zm-.908 1.23v-1.382c0-.319-.019-.599-.058-.84a2.678 2.678 0 0 0-.161-.625 1.238 1.238 0 0 0-.274-.42.963.963 0 0 0-.376-.234 1.352 1.352 0 0 0-.474-.078c-.214 0-.405.04-.571.122a1.028 1.028 0 0 0-.42.376 2.05 2.05 0 0 0-.254.679 5.11 5.11 0 0 0-.088 1.02V20.4c0 .32.018.6.054.845.039.244.096.456.171.635.075.175.166.32.273.434.108.114.232.199.372.254.143.052.301.078.473.078.222 0 .415-.042.581-.127.166-.084.305-.216.415-.395.114-.183.199-.415.254-.698.056-.287.083-.629.083-1.026z" opacity=".9"/></svg>