<svg width="934" height="41" viewBox="0 0 934 41" fill="none" xmlns="http://www.w3.org/2000/svg">
<rect y="0.289795" width="934" height="40" rx="12" fill="white"/>
<path d="M25.3333 13.6231C25.7013 13.6231 26 13.9218 26 14.2898V16.7944L24.6667 18.1278V14.9564H15.3333V25.6231H24.6667V23.7844L26 22.4511V26.2898C26 26.6578 25.7013 26.9564 25.3333 26.9564H14.6667C14.2987 26.9564 14 26.6578 14 26.2898V14.2898C14 13.9218 14.2987 13.6231 14.6667 13.6231H25.3333ZM26.5187 18.1618L27.4613 19.1044L22.276 24.2898L21.332 24.2884L21.3333 23.3471L26.5187 18.1618ZM20.6667 20.2898V21.6231H17.3333V20.2898H20.6667ZM22.6667 17.6231V18.9564H17.3333V17.6231H22.6667Z" fill="#6595E1"/>
<g opacity="0.9">
<path d="M43.5596 16.1414V23.2898H42.6562V17.2693L40.835 17.9333V17.1179L43.418 16.1414H43.5596ZM50.8105 16.1804V16.6882L47.8662 23.2898H46.9141L49.8535 16.9226H46.0059V16.1804H50.8105ZM53.8184 19.8962V20.6384H51.4355V19.8962H53.8184ZM57.4707 16.8103L55.1172 23.2898H54.1553L56.8652 16.1804H57.4854L57.4707 16.8103ZM59.4434 23.2898L57.085 16.8103L57.0703 16.1804H57.6904L60.4102 23.2898H59.4434ZM59.3213 20.658V21.4294H55.3271V20.658H59.3213ZM62.1289 19.0222V25.321H61.2207V18.0066H62.0508L62.1289 19.0222ZM65.6885 20.6042V20.7068C65.6885 21.0909 65.6429 21.4473 65.5518 21.7761C65.4606 22.1016 65.3271 22.3848 65.1514 22.6257C64.9788 22.8666 64.7656 23.0538 64.5117 23.1873C64.2578 23.3207 63.9665 23.3875 63.6377 23.3875C63.3024 23.3875 63.0062 23.3321 62.749 23.2214C62.4919 23.1108 62.2738 22.9496 62.0947 22.738C61.9157 22.5264 61.7725 22.2725 61.665 21.9763C61.5609 21.6801 61.4893 21.3464 61.4502 20.9753V20.4285C61.4893 20.0378 61.5625 19.6879 61.6699 19.3787C61.7773 19.0694 61.9189 18.8057 62.0947 18.5876C62.2738 18.3663 62.4902 18.1986 62.7441 18.0847C62.998 17.9675 63.291 17.9089 63.623 17.9089C63.9551 17.9089 64.2497 17.974 64.5068 18.1042C64.764 18.2312 64.9805 18.4135 65.1562 18.6511C65.332 18.8888 65.4639 19.1736 65.5518 19.5056C65.6429 19.8344 65.6885 20.2006 65.6885 20.6042ZM64.7803 20.7068V20.6042C64.7803 20.3406 64.7526 20.0932 64.6973 19.8621C64.6419 19.6277 64.5557 19.4226 64.4385 19.2468C64.3245 19.0678 64.1781 18.9278 63.999 18.8269C63.82 18.7227 63.6068 18.6707 63.3594 18.6707C63.1315 18.6707 62.9329 18.7097 62.7637 18.7878C62.5977 18.866 62.4561 18.9718 62.3389 19.1052C62.2217 19.2354 62.1257 19.3852 62.0508 19.5544C61.9792 19.7205 61.9255 19.893 61.8896 20.072V21.3367C61.9548 21.5645 62.0459 21.7794 62.1631 21.9812C62.2803 22.1798 62.4365 22.3409 62.6318 22.4646C62.8271 22.585 63.0729 22.6453 63.3691 22.6453C63.6133 22.6453 63.8232 22.5948 63.999 22.4939C64.1781 22.3897 64.3245 22.2481 64.4385 22.0691C64.5557 21.8901 64.6419 21.685 64.6973 21.4539C64.7526 21.2195 64.7803 20.9705 64.7803 20.7068ZM67.7441 18.8367V23.2898H66.8408V18.0066H67.7197L67.7441 18.8367ZM69.3945 17.9773L69.3896 18.8171C69.3148 18.8009 69.2432 18.7911 69.1748 18.7878C69.1097 18.7813 69.0348 18.7781 68.9502 18.7781C68.7419 18.7781 68.5579 18.8106 68.3984 18.8757C68.2389 18.9408 68.1038 19.032 67.9932 19.1492C67.8825 19.2664 67.7946 19.4063 67.7295 19.5691C67.6676 19.7286 67.627 19.9044 67.6074 20.0964L67.3535 20.2429C67.3535 19.9239 67.3844 19.6244 67.4463 19.3445C67.5114 19.0645 67.6107 18.8171 67.7441 18.6023C67.8776 18.3842 68.0469 18.2149 68.252 18.0945C68.4603 17.9708 68.7077 17.9089 68.9941 17.9089C69.0592 17.9089 69.1341 17.9171 69.2188 17.9333C69.3034 17.9464 69.362 17.961 69.3945 17.9773ZM72.1094 19.8962V20.6384H69.7266V19.8962H72.1094ZM77.5537 22.5476V23.2898H72.9004V22.6404L75.2295 20.0476C75.516 19.7286 75.7373 19.4584 75.8936 19.2371C76.0531 19.0125 76.1637 18.8123 76.2256 18.6365C76.2907 18.4574 76.3232 18.2751 76.3232 18.0896C76.3232 17.8552 76.2744 17.6436 76.1768 17.4548C76.0824 17.2628 75.9424 17.1098 75.7568 16.9958C75.5713 16.8819 75.3467 16.825 75.083 16.825C74.7673 16.825 74.5036 16.8868 74.292 17.0105C74.0837 17.1309 73.9274 17.3002 73.8232 17.5183C73.7191 17.7364 73.667 17.9871 73.667 18.2703H72.7637C72.7637 17.8699 72.8516 17.5037 73.0273 17.1716C73.2031 16.8396 73.4635 16.5759 73.8086 16.3806C74.1536 16.182 74.5785 16.0828 75.083 16.0828C75.5322 16.0828 75.9163 16.1625 76.2354 16.322C76.5544 16.4783 76.7985 16.6996 76.9678 16.9861C77.1403 17.2693 77.2266 17.6013 77.2266 17.9822C77.2266 18.1905 77.1908 18.4021 77.1191 18.6169C77.0508 18.8285 76.9548 19.0401 76.8311 19.2517C76.7106 19.4633 76.569 19.6716 76.4062 19.8767C76.2467 20.0818 76.0758 20.2836 75.8936 20.4822L73.9893 22.5476H77.5537ZM83.1787 22.5476V23.2898H78.5254V22.6404L80.8545 20.0476C81.141 19.7286 81.3623 19.4584 81.5186 19.2371C81.6781 19.0125 81.7887 18.8123 81.8506 18.6365C81.9157 18.4574 81.9482 18.2751 81.9482 18.0896C81.9482 17.8552 81.8994 17.6436 81.8018 17.4548C81.7074 17.2628 81.5674 17.1098 81.3818 16.9958C81.1963 16.8819 80.9717 16.825 80.708 16.825C80.3923 16.825 80.1286 16.8868 79.917 17.0105C79.7087 17.1309 79.5524 17.3002 79.4482 17.5183C79.3441 17.7364 79.292 17.9871 79.292 18.2703H78.3887C78.3887 17.8699 78.4766 17.5037 78.6523 17.1716C78.8281 16.8396 79.0885 16.5759 79.4336 16.3806C79.7786 16.182 80.2035 16.0828 80.708 16.0828C81.1572 16.0828 81.5413 16.1625 81.8604 16.322C82.1794 16.4783 82.4235 16.6996 82.5928 16.9861C82.7653 17.2693 82.8516 17.6013 82.8516 17.9822C82.8516 18.1905 82.8158 18.4021 82.7441 18.6169C82.6758 18.8285 82.5798 19.0401 82.4561 19.2517C82.3356 19.4633 82.194 19.6716 82.0312 19.8767C81.8717 20.0818 81.7008 20.2836 81.5186 20.4822L79.6143 22.5476H83.1787ZM89.5947 16.1414V23.2898H88.6914V17.2693L86.8701 17.9333V17.1179L89.4531 16.1414H89.5947ZM96.9092 22.5476V23.2898H92.2559V22.6404L94.585 20.0476C94.8714 19.7286 95.0928 19.4584 95.249 19.2371C95.4085 19.0125 95.5192 18.8123 95.5811 18.6365C95.6462 18.4574 95.6787 18.2751 95.6787 18.0896C95.6787 17.8552 95.6299 17.6436 95.5322 17.4548C95.4378 17.2628 95.2979 17.1098 95.1123 16.9958C94.9268 16.8819 94.7021 16.825 94.4385 16.825C94.1227 16.825 93.859 16.8868 93.6475 17.0105C93.4391 17.1309 93.2829 17.3002 93.1787 17.5183C93.0745 17.7364 93.0225 17.9871 93.0225 18.2703H92.1191C92.1191 17.8699 92.207 17.5037 92.3828 17.1716C92.5586 16.8396 92.819 16.5759 93.1641 16.3806C93.5091 16.182 93.9339 16.0828 94.4385 16.0828C94.8877 16.0828 95.2718 16.1625 95.5908 16.322C95.9098 16.4783 96.154 16.6996 96.3232 16.9861C96.4958 17.2693 96.582 17.6013 96.582 17.9822C96.582 18.1905 96.5462 18.4021 96.4746 18.6169C96.4062 18.8285 96.3102 19.0401 96.1865 19.2517C96.0661 19.4633 95.9245 19.6716 95.7617 19.8767C95.6022 20.0818 95.4313 20.2836 95.249 20.4822L93.3447 22.5476H96.9092ZM97.9346 22.8113C97.9346 22.6583 97.9818 22.5297 98.0762 22.4255C98.1738 22.3181 98.3138 22.2644 98.4961 22.2644C98.6784 22.2644 98.8167 22.3181 98.9111 22.4255C99.0088 22.5297 99.0576 22.6583 99.0576 22.8113C99.0576 22.961 99.0088 23.088 98.9111 23.1921C98.8167 23.2963 98.6784 23.3484 98.4961 23.3484C98.3138 23.3484 98.1738 23.2963 98.0762 23.1921C97.9818 23.088 97.9346 22.961 97.9346 22.8113ZM97.9395 18.4998C97.9395 18.3468 97.9867 18.2182 98.0811 18.114C98.1787 18.0066 98.3187 17.9529 98.501 17.9529C98.6833 17.9529 98.8216 18.0066 98.916 18.114C99.0137 18.2182 99.0625 18.3468 99.0625 18.4998C99.0625 18.6495 99.0137 18.7764 98.916 18.8806C98.8216 18.9848 98.6833 19.0369 98.501 19.0369C98.3187 19.0369 98.1787 18.9848 98.0811 18.8806C97.9867 18.7764 97.9395 18.6495 97.9395 18.4998ZM104.761 19.1687V20.2527C104.761 20.8354 104.709 21.3269 104.604 21.7273C104.5 22.1277 104.351 22.45 104.155 22.6941C103.96 22.9382 103.724 23.1156 103.447 23.2263C103.174 23.3337 102.865 23.3875 102.52 23.3875C102.246 23.3875 101.994 23.3533 101.763 23.2849C101.532 23.2166 101.323 23.1075 101.138 22.9578C100.955 22.8048 100.799 22.6062 100.669 22.3621C100.539 22.1179 100.439 21.8217 100.371 21.4734C100.303 21.1251 100.269 20.7182 100.269 20.2527V19.1687C100.269 18.586 100.321 18.0977 100.425 17.7039C100.532 17.31 100.684 16.9942 100.879 16.7566C101.074 16.5157 101.309 16.3432 101.582 16.239C101.859 16.1348 102.168 16.0828 102.51 16.0828C102.786 16.0828 103.04 16.1169 103.271 16.1853C103.506 16.2504 103.714 16.3562 103.896 16.5027C104.079 16.6459 104.233 16.838 104.36 17.0789C104.491 17.3165 104.59 17.6078 104.658 17.9529C104.727 18.2979 104.761 18.7032 104.761 19.1687ZM103.853 20.3992V19.0173C103.853 18.6983 103.833 18.4184 103.794 18.1775C103.758 17.9333 103.704 17.725 103.633 17.5525C103.561 17.38 103.47 17.24 103.359 17.1326C103.252 17.0251 103.127 16.947 102.983 16.8982C102.843 16.8461 102.686 16.8201 102.51 16.8201C102.295 16.8201 102.104 16.8608 101.938 16.9421C101.772 17.0203 101.632 17.1456 101.519 17.3181C101.408 17.4906 101.323 17.7169 101.265 17.9968C101.206 18.2768 101.177 18.6169 101.177 19.0173V20.3992C101.177 20.7182 101.195 20.9998 101.23 21.2439C101.27 21.488 101.326 21.6996 101.401 21.8787C101.476 22.0544 101.567 22.1993 101.675 22.3132C101.782 22.4272 101.906 22.5118 102.046 22.5671C102.189 22.6192 102.347 22.6453 102.52 22.6453C102.741 22.6453 102.935 22.6029 103.101 22.5183C103.267 22.4337 103.405 22.3018 103.516 22.1228C103.63 21.9405 103.714 21.7078 103.77 21.4246C103.825 21.1381 103.853 20.7963 103.853 20.3992ZM110.728 20.8972V21.6394H105.591V21.1072L108.774 16.1804H109.512L108.721 17.6062L106.616 20.8972H110.728ZM109.736 16.1804V23.2898H108.833V16.1804H109.736Z" fill="#32375E"/>
</g>
<g opacity="0.9">
<path d="M196.186 16.1804V16.6882L193.241 23.2898H192.289L195.229 16.9226H191.381V16.1804H196.186ZM201.811 16.1804V16.6882L198.866 23.2898H197.914L200.854 16.9226H197.006V16.1804H201.811ZM203.983 19.906L203.261 19.7205L203.617 16.1804H207.265V17.0154H204.384L204.169 18.949C204.299 18.8741 204.464 18.8041 204.662 18.739C204.864 18.6739 205.095 18.6414 205.355 18.6414C205.684 18.6414 205.979 18.6983 206.239 18.8123C206.5 18.9229 206.721 19.0824 206.903 19.2908C207.089 19.4991 207.23 19.7498 207.328 20.0427C207.426 20.3357 207.475 20.6628 207.475 21.0242C207.475 21.366 207.427 21.6801 207.333 21.9666C207.242 22.253 207.104 22.5037 206.918 22.7185C206.732 22.9301 206.498 23.0945 206.215 23.2117C205.935 23.3289 205.604 23.3875 205.224 23.3875C204.937 23.3875 204.665 23.3484 204.408 23.2703C204.154 23.1889 203.926 23.0668 203.725 22.9041C203.526 22.738 203.363 22.533 203.236 22.2888C203.113 22.0414 203.035 21.7517 203.002 21.4197H203.861C203.9 21.6866 203.979 21.9112 204.096 22.0935C204.213 22.2758 204.366 22.4141 204.555 22.5085C204.747 22.5997 204.97 22.6453 205.224 22.6453C205.438 22.6453 205.629 22.6078 205.795 22.533C205.961 22.4581 206.101 22.3507 206.215 22.2107C206.329 22.0707 206.415 21.9014 206.474 21.7029C206.535 21.5043 206.566 21.2813 206.566 21.0339C206.566 20.8093 206.535 20.601 206.474 20.4089C206.412 20.2169 206.319 20.0492 206.195 19.906C206.075 19.7628 205.927 19.6521 205.751 19.574C205.575 19.4926 205.373 19.4519 205.146 19.4519C204.843 19.4519 204.613 19.4926 204.457 19.574C204.304 19.6554 204.146 19.766 203.983 19.906ZM209.608 19.906L208.886 19.7205L209.242 16.1804H212.89V17.0154H210.009L209.794 18.949C209.924 18.8741 210.089 18.8041 210.287 18.739C210.489 18.6739 210.72 18.6414 210.98 18.6414C211.309 18.6414 211.604 18.6983 211.864 18.8123C212.125 18.9229 212.346 19.0824 212.528 19.2908C212.714 19.4991 212.855 19.7498 212.953 20.0427C213.051 20.3357 213.1 20.6628 213.1 21.0242C213.1 21.366 213.052 21.6801 212.958 21.9666C212.867 22.253 212.729 22.5037 212.543 22.7185C212.357 22.9301 212.123 23.0945 211.84 23.2117C211.56 23.3289 211.229 23.3875 210.849 23.3875C210.562 23.3875 210.29 23.3484 210.033 23.2703C209.779 23.1889 209.551 23.0668 209.35 22.9041C209.151 22.738 208.988 22.533 208.861 22.2888C208.738 22.0414 208.66 21.7517 208.627 21.4197H209.486C209.525 21.6866 209.604 21.9112 209.721 22.0935C209.838 22.2758 209.991 22.4141 210.18 22.5085C210.372 22.5997 210.595 22.6453 210.849 22.6453C211.063 22.6453 211.254 22.6078 211.42 22.533C211.586 22.4581 211.726 22.3507 211.84 22.2107C211.954 22.0707 212.04 21.9014 212.099 21.7029C212.16 21.5043 212.191 21.2813 212.191 21.0339C212.191 20.8093 212.16 20.601 212.099 20.4089C212.037 20.2169 211.944 20.0492 211.82 19.906C211.7 19.7628 211.552 19.6521 211.376 19.574C211.2 19.4926 210.998 19.4519 210.771 19.4519C210.468 19.4519 210.238 19.4926 210.082 19.574C209.929 19.6554 209.771 19.766 209.608 19.906Z" fill="#3F7BDA"/>
</g>
<g opacity="0.9">
<path d="M230.825 16.1804H233.179C233.713 16.1804 234.163 16.2618 234.531 16.4246C234.902 16.5873 235.184 16.8282 235.376 17.1472C235.571 17.463 235.669 17.852 235.669 18.3142C235.669 18.6397 235.602 18.9376 235.469 19.2078C235.339 19.4747 235.15 19.7026 234.902 19.8914C234.658 20.0769 234.365 20.2153 234.023 20.3064L233.76 20.4089H231.548L231.538 19.6423H233.208C233.547 19.6423 233.828 19.5837 234.053 19.4666C234.277 19.3461 234.447 19.185 234.561 18.9832C234.674 18.7813 234.731 18.5583 234.731 18.3142C234.731 18.0408 234.678 17.8015 234.57 17.5964C234.463 17.3914 234.294 17.2335 234.062 17.1228C233.835 17.0089 233.54 16.9519 233.179 16.9519H231.768V23.2898H230.825V16.1804ZM234.98 23.2898L233.252 20.0671L234.233 20.0623L235.986 23.2312V23.2898H234.98ZM241.504 22.5232V23.2898H237.739V22.5232H241.504ZM237.93 16.1804V23.2898H236.987V16.1804H237.93ZM241.006 19.2371V20.0037H237.739V19.2371H241.006ZM241.455 16.1804V16.9519H237.739V16.1804H241.455ZM246.963 21.0291H247.9C247.852 21.4783 247.723 21.8803 247.515 22.2351C247.306 22.5899 247.012 22.8715 246.631 23.0798C246.25 23.2849 245.775 23.3875 245.205 23.3875C244.788 23.3875 244.409 23.3093 244.067 23.1531C243.729 22.9968 243.438 22.7755 243.193 22.489C242.949 22.1993 242.76 21.8526 242.627 21.449C242.497 21.0421 242.432 20.5896 242.432 20.0916V19.3835C242.432 18.8855 242.497 18.4347 242.627 18.031C242.76 17.6241 242.951 17.2758 243.198 16.9861C243.449 16.6964 243.75 16.4734 244.102 16.3171C244.453 16.1609 244.849 16.0828 245.288 16.0828C245.825 16.0828 246.279 16.1837 246.65 16.3855C247.021 16.5873 247.31 16.8673 247.515 17.2253C247.723 17.5802 247.852 17.9919 247.9 18.4607H246.963C246.917 18.1287 246.833 17.8438 246.709 17.6062C246.585 17.3653 246.41 17.1798 246.182 17.0496C245.954 16.9194 245.656 16.8542 245.288 16.8542C244.972 16.8542 244.694 16.9145 244.453 17.0349C244.215 17.1554 244.015 17.3263 243.853 17.5476C243.693 17.769 243.573 18.0343 243.491 18.3435C243.41 18.6528 243.369 18.9962 243.369 19.3738V20.0916C243.369 20.4399 243.405 20.767 243.477 21.073C243.551 21.379 243.664 21.6475 243.813 21.8787C243.963 22.1098 244.154 22.2921 244.385 22.4255C244.616 22.5557 244.889 22.6208 245.205 22.6208C245.605 22.6208 245.924 22.5574 246.162 22.4304C246.4 22.3035 246.579 22.1212 246.699 21.8835C246.823 21.6459 246.911 21.3611 246.963 21.0291ZM253.252 16.1804H254.189V20.99C254.189 21.5238 254.071 21.9682 253.833 22.323C253.595 22.6778 253.28 22.9447 252.886 23.1238C252.495 23.2996 252.07 23.3875 251.611 23.3875C251.13 23.3875 250.693 23.2996 250.303 23.1238C249.915 22.9447 249.608 22.6778 249.38 22.323C249.155 21.9682 249.043 21.5238 249.043 20.99V16.1804H249.976V20.99C249.976 21.3611 250.044 21.6671 250.181 21.908C250.317 22.1488 250.508 22.3279 250.752 22.4451C250.999 22.5623 251.286 22.6208 251.611 22.6208C251.94 22.6208 252.227 22.5623 252.471 22.4451C252.718 22.3279 252.91 22.1488 253.047 21.908C253.184 21.6671 253.252 21.3611 253.252 20.99V16.1804ZM261.138 16.1804V23.2898H260.19L256.611 17.8064V23.2898H255.669V16.1804H256.611L260.205 21.6785V16.1804H261.138ZM266.597 21.4929C266.597 21.3269 266.571 21.1804 266.519 21.0535C266.47 20.9233 266.382 20.8061 266.255 20.7019C266.131 20.5977 265.959 20.4985 265.737 20.4041C265.519 20.3097 265.243 20.2136 264.907 20.116C264.556 20.0118 264.238 19.8962 263.955 19.7693C263.672 19.6391 263.429 19.491 263.228 19.325C263.026 19.1589 262.871 18.9685 262.764 18.7537C262.656 18.5388 262.603 18.2931 262.603 18.0164C262.603 17.7397 262.66 17.4841 262.773 17.2498C262.887 17.0154 263.05 16.8119 263.262 16.6394C263.477 16.4636 263.732 16.3269 264.028 16.2292C264.325 16.1316 264.655 16.0828 265.02 16.0828C265.553 16.0828 266.006 16.1853 266.377 16.3904C266.751 16.5922 267.036 16.8575 267.231 17.1863C267.427 17.5118 267.524 17.8601 267.524 18.2312H266.587C266.587 17.9643 266.53 17.7283 266.416 17.5232C266.302 17.3149 266.13 17.1521 265.898 17.0349C265.667 16.9145 265.374 16.8542 265.02 16.8542C264.684 16.8542 264.408 16.9047 264.189 17.0056C263.971 17.1065 263.809 17.2432 263.701 17.4158C263.597 17.5883 263.545 17.7852 263.545 18.0066C263.545 18.1563 263.576 18.2931 263.638 18.4167C263.703 18.5372 263.802 18.6495 263.936 18.7537C264.072 18.8578 264.245 18.9539 264.453 19.0417C264.665 19.1296 264.917 19.2143 265.21 19.2957C265.614 19.4096 265.962 19.5365 266.255 19.6765C266.548 19.8165 266.789 19.9744 266.978 20.1501C267.17 20.3227 267.311 20.5196 267.402 20.741C267.497 20.9591 267.544 21.2065 267.544 21.4832C267.544 21.7729 267.485 22.0349 267.368 22.2693C267.251 22.5037 267.083 22.7039 266.865 22.8699C266.647 23.0359 266.385 23.1645 266.079 23.2556C265.776 23.3435 265.438 23.3875 265.063 23.3875C264.735 23.3875 264.411 23.3419 264.092 23.2507C263.776 23.1596 263.488 23.0229 263.228 22.8406C262.97 22.6583 262.764 22.4337 262.607 22.1667C262.454 21.8966 262.378 21.5841 262.378 21.2292H263.315C263.315 21.4734 263.363 21.6833 263.457 21.8591C263.551 22.0317 263.68 22.1749 263.843 22.2888C264.009 22.4028 264.196 22.4874 264.404 22.5427C264.616 22.5948 264.836 22.6208 265.063 22.6208C265.392 22.6208 265.671 22.5753 265.898 22.4841C266.126 22.393 266.299 22.2628 266.416 22.0935C266.536 21.9242 266.597 21.724 266.597 21.4929ZM270.488 19.8962V20.6384H268.105V19.8962H270.488ZM275.869 16.1804V16.6882L272.925 23.2898H271.973L274.912 16.9226H271.064V16.1804H275.869ZM281.382 21.366C281.382 21.7989 281.281 22.1667 281.079 22.4695C280.881 22.769 280.61 22.9968 280.269 23.1531C279.93 23.3093 279.548 23.3875 279.121 23.3875C278.695 23.3875 278.311 23.3093 277.969 23.1531C277.627 22.9968 277.357 22.769 277.158 22.4695C276.96 22.1667 276.86 21.7989 276.86 21.366C276.86 21.0828 276.914 20.824 277.021 20.5896C277.132 20.352 277.287 20.1453 277.485 19.9695C277.687 19.7937 277.925 19.6586 278.198 19.5642C278.475 19.4666 278.779 19.4177 279.111 19.4177C279.548 19.4177 279.937 19.5024 280.278 19.6716C280.62 19.8376 280.889 20.0671 281.084 20.3601C281.283 20.6531 281.382 20.9884 281.382 21.366ZM280.474 21.3464C280.474 21.0828 280.417 20.85 280.303 20.6482C280.189 20.4431 280.029 20.2836 279.824 20.1697C279.619 20.0557 279.382 19.9988 279.111 19.9988C278.835 19.9988 278.595 20.0557 278.394 20.1697C278.195 20.2836 278.04 20.4431 277.93 20.6482C277.819 20.85 277.764 21.0828 277.764 21.3464C277.764 21.6199 277.817 21.8542 277.925 22.0496C278.035 22.2416 278.192 22.3897 278.394 22.4939C278.599 22.5948 278.841 22.6453 279.121 22.6453C279.401 22.6453 279.642 22.5948 279.844 22.4939C280.046 22.3897 280.2 22.2416 280.308 22.0496C280.418 21.8542 280.474 21.6199 280.474 21.3464ZM281.216 18.031C281.216 18.3761 281.125 18.6869 280.942 18.9636C280.76 19.2403 280.511 19.4584 280.195 19.6179C279.88 19.7774 279.521 19.8572 279.121 19.8572C278.714 19.8572 278.351 19.7774 278.032 19.6179C277.716 19.4584 277.469 19.2403 277.29 18.9636C277.111 18.6869 277.021 18.3761 277.021 18.031C277.021 17.6176 277.111 17.266 277.29 16.9763C277.472 16.6866 277.721 16.4653 278.037 16.3123C278.353 16.1593 278.713 16.0828 279.116 16.0828C279.523 16.0828 279.884 16.1593 280.2 16.3123C280.516 16.4653 280.763 16.6866 280.942 16.9763C281.125 17.266 281.216 17.6176 281.216 18.031ZM280.312 18.0457C280.312 17.808 280.262 17.5981 280.161 17.4158C280.06 17.2335 279.92 17.0903 279.741 16.9861C279.562 16.8787 279.354 16.825 279.116 16.825C278.879 16.825 278.67 16.8754 278.491 16.9763C278.315 17.074 278.177 17.2139 278.076 17.3962C277.979 17.5785 277.93 17.795 277.93 18.0457C277.93 18.2898 277.979 18.503 278.076 18.6853C278.177 18.8676 278.317 19.0092 278.496 19.1101C278.675 19.211 278.883 19.2615 279.121 19.2615C279.359 19.2615 279.565 19.211 279.741 19.1101C279.92 19.0092 280.06 18.8676 280.161 18.6853C280.262 18.503 280.312 18.2898 280.312 18.0457Z" fill="#32375E"/>
</g>
<path d="M327 14.2898C327 10.9761 329.686 8.28979 333 8.28979H345C348.314 8.28979 351 10.9761 351 14.2898V26.2898C351 29.6035 348.314 32.2898 345 32.2898H333C329.686 32.2898 327 29.6035 327 26.2898V14.2898Z" fill="#F0F5F9"/>
<path d="M336.633 17.6062L334.75 22.7898H333.98L336.148 17.1023H336.645L336.633 17.6062ZM338.211 22.7898L336.324 17.6062L336.312 17.1023H336.809L338.984 22.7898H338.211ZM338.113 20.6843V21.3015H334.918V20.6843H338.113ZM341.844 20.5593H340.324V19.946H341.844C342.138 19.946 342.376 19.8992 342.559 19.8054C342.741 19.7117 342.874 19.5815 342.957 19.4148C343.043 19.2481 343.086 19.058 343.086 18.8445C343.086 18.6492 343.043 18.4656 342.957 18.2937C342.874 18.1218 342.741 17.9838 342.559 17.8796C342.376 17.7729 342.138 17.7195 341.844 17.7195H340.5V22.7898H339.746V17.1023H341.844C342.273 17.1023 342.637 17.1765 342.934 17.325C343.23 17.4734 343.456 17.6791 343.609 17.9421C343.763 18.2026 343.84 18.5007 343.84 18.8367C343.84 19.2013 343.763 19.5125 343.609 19.7703C343.456 20.0281 343.23 20.2247 342.934 20.3601C342.637 20.4929 342.273 20.5593 341.844 20.5593Z" fill="#32375E"/>
<path d="M362.457 16.8103L360.104 23.2898H359.142L361.852 16.1804H362.472L362.457 16.8103ZM364.43 23.2898L362.071 16.8103L362.057 16.1804H362.677L365.396 23.2898H364.43ZM364.308 20.658V21.4294H360.313V20.658H364.308ZM367.193 15.7898V23.2898H366.285V15.7898H367.193ZM369.991 23.2898H369.088V17.45C369.088 17.0691 369.156 16.7485 369.293 16.488C369.433 16.2244 369.633 16.0258 369.894 15.8923C370.154 15.7556 370.463 15.6873 370.821 15.6873C370.925 15.6873 371.03 15.6938 371.134 15.7068C371.241 15.7198 371.345 15.7393 371.446 15.7654L371.397 16.5027C371.329 16.4864 371.251 16.475 371.163 16.4685C371.078 16.462 370.994 16.4587 370.909 16.4587C370.717 16.4587 370.551 16.4978 370.411 16.5759C370.274 16.6508 370.17 16.7615 370.099 16.908C370.027 17.0544 369.991 17.2351 369.991 17.45V23.2898ZM371.114 18.0066V18.7H368.253V18.0066H371.114ZM373.023 18.8367V23.2898H372.12V18.0066H372.999L373.023 18.8367ZM374.674 17.9773L374.669 18.8171C374.594 18.8009 374.522 18.7911 374.454 18.7878C374.389 18.7813 374.314 18.7781 374.229 18.7781C374.021 18.7781 373.837 18.8106 373.678 18.8757C373.518 18.9408 373.383 19.032 373.272 19.1492C373.162 19.2664 373.074 19.4063 373.009 19.5691C372.947 19.7286 372.906 19.9044 372.887 20.0964L372.633 20.2429C372.633 19.9239 372.664 19.6244 372.726 19.3445C372.791 19.0645 372.89 18.8171 373.023 18.6023C373.157 18.3842 373.326 18.2149 373.531 18.0945C373.74 17.9708 373.987 17.9089 374.273 17.9089C374.339 17.9089 374.413 17.9171 374.498 17.9333C374.583 17.9464 374.641 17.961 374.674 17.9773ZM377.604 23.3875C377.236 23.3875 376.902 23.3256 376.603 23.2019C376.306 23.075 376.051 22.8975 375.836 22.6697C375.624 22.4418 375.462 22.1716 375.348 21.8591C375.234 21.5466 375.177 21.2048 375.177 20.8337V20.6287C375.177 20.199 375.24 19.8165 375.367 19.4812C375.494 19.1427 375.667 18.8562 375.885 18.6218C376.103 18.3875 376.35 18.21 376.627 18.0896C376.904 17.9692 377.19 17.9089 377.486 17.9089C377.864 17.9089 378.189 17.974 378.463 18.1042C378.74 18.2345 378.966 18.4167 379.142 18.6511C379.317 18.8822 379.448 19.1557 379.532 19.4714C379.617 19.7839 379.659 20.1257 379.659 20.4968V20.9021H375.714V20.1648H378.756V20.0964C378.743 19.8621 378.694 19.6342 378.609 19.4128C378.528 19.1915 378.398 19.0092 378.219 18.866C378.04 18.7227 377.796 18.6511 377.486 18.6511C377.281 18.6511 377.092 18.6951 376.92 18.783C376.747 18.8676 376.599 18.9945 376.476 19.1638C376.352 19.3331 376.256 19.5398 376.188 19.7839C376.119 20.0281 376.085 20.3097 376.085 20.6287V20.8337C376.085 21.0844 376.119 21.3204 376.188 21.5417C376.259 21.7598 376.362 21.9519 376.495 22.1179C376.632 22.2839 376.796 22.4141 376.988 22.5085C377.184 22.6029 377.405 22.6501 377.652 22.6501C377.971 22.6501 378.242 22.585 378.463 22.4548C378.684 22.3246 378.878 22.1505 379.044 21.9324L379.591 22.3669C379.477 22.5395 379.332 22.7039 379.156 22.8601C378.98 23.0164 378.764 23.1433 378.507 23.241C378.253 23.3386 377.952 23.3875 377.604 23.3875ZM384.044 22.2644V15.7898H384.952V23.2898H384.122L384.044 22.2644ZM380.489 20.7068V20.6042C380.489 20.2006 380.538 19.8344 380.636 19.5056C380.737 19.1736 380.878 18.8888 381.061 18.6511C381.246 18.4135 381.466 18.2312 381.72 18.1042C381.977 17.974 382.263 17.9089 382.579 17.9089C382.911 17.9089 383.201 17.9675 383.448 18.0847C383.699 18.1986 383.91 18.3663 384.083 18.5876C384.259 18.8057 384.397 19.0694 384.498 19.3787C384.599 19.6879 384.669 20.0378 384.708 20.4285V20.8777C384.672 21.2651 384.602 21.6134 384.498 21.9226C384.397 22.2319 384.259 22.4955 384.083 22.7136C383.91 22.9317 383.699 23.0994 383.448 23.2166C383.198 23.3305 382.905 23.3875 382.569 23.3875C382.26 23.3875 381.977 23.3207 381.72 23.1873C381.466 23.0538 381.246 22.8666 381.061 22.6257C380.878 22.3848 380.737 22.1016 380.636 21.7761C380.538 21.4473 380.489 21.0909 380.489 20.7068ZM381.397 20.6042V20.7068C381.397 20.9705 381.424 21.2179 381.476 21.449C381.531 21.6801 381.616 21.8835 381.729 22.0593C381.843 22.2351 381.988 22.3735 382.164 22.4744C382.34 22.572 382.55 22.6208 382.794 22.6208C383.093 22.6208 383.339 22.5574 383.531 22.4304C383.727 22.3035 383.883 22.1358 384 21.9275C384.117 21.7192 384.208 21.4929 384.273 21.2488V20.072C384.234 19.893 384.177 19.7205 384.103 19.5544C384.031 19.3852 383.937 19.2354 383.819 19.1052C383.705 18.9718 383.564 18.866 383.395 18.7878C383.229 18.7097 383.032 18.6707 382.804 18.6707C382.556 18.6707 382.343 18.7227 382.164 18.8269C381.988 18.9278 381.843 19.0678 381.729 19.2468C381.616 19.4226 381.531 19.6277 381.476 19.8621C381.424 20.0932 381.397 20.3406 381.397 20.6042ZM391.598 20.5017H389.698V19.7351H391.598C391.965 19.7351 392.263 19.6765 392.491 19.5593C392.719 19.4421 392.885 19.2794 392.989 19.071C393.097 18.8627 393.15 18.6251 393.15 18.3582C393.15 18.114 393.097 17.8845 392.989 17.6697C392.885 17.4548 392.719 17.2823 392.491 17.1521C392.263 17.0186 391.965 16.9519 391.598 16.9519H389.918V23.2898H388.976V16.1804H391.598C392.135 16.1804 392.589 16.2732 392.96 16.4587C393.331 16.6443 393.613 16.9014 393.805 17.2302C393.997 17.5557 394.093 17.9285 394.093 18.3484C394.093 18.8041 393.997 19.1931 393.805 19.5154C393.613 19.8376 393.331 20.0834 392.96 20.2527C392.589 20.4187 392.135 20.5017 391.598 20.5017ZM398.204 22.3865V19.6667C398.204 19.4584 398.162 19.2778 398.077 19.1248C397.996 18.9685 397.872 18.8481 397.706 18.7634C397.54 18.6788 397.335 18.6365 397.091 18.6365C396.863 18.6365 396.663 18.6755 396.49 18.7537C396.321 18.8318 396.188 18.9343 396.09 19.0613C395.995 19.1882 395.948 19.325 395.948 19.4714H395.045C395.045 19.2826 395.094 19.0955 395.191 18.9099C395.289 18.7244 395.429 18.5567 395.611 18.407C395.797 18.254 396.018 18.1335 396.275 18.0457C396.536 17.9545 396.826 17.9089 397.145 17.9089C397.529 17.9089 397.867 17.974 398.16 18.1042C398.456 18.2345 398.688 18.4314 398.854 18.6951C399.023 18.9555 399.107 19.2826 399.107 19.6765V22.1375C399.107 22.3132 399.122 22.5004 399.151 22.699C399.184 22.8975 399.231 23.0684 399.293 23.2117V23.2898H398.351C398.305 23.1856 398.269 23.0473 398.243 22.8748C398.217 22.699 398.204 22.5362 398.204 22.3865ZM398.36 20.0867L398.37 20.7214H397.457C397.2 20.7214 396.97 20.7426 396.769 20.7849C396.567 20.824 396.397 20.8842 396.261 20.9656C396.124 21.047 396.02 21.1495 395.948 21.2732C395.877 21.3936 395.841 21.5352 395.841 21.698C395.841 21.864 395.878 22.0154 395.953 22.1521C396.028 22.2888 396.14 22.3979 396.29 22.4792C396.443 22.5574 396.63 22.5964 396.852 22.5964C397.128 22.5964 397.372 22.5378 397.584 22.4207C397.796 22.3035 397.963 22.1602 398.087 21.991C398.214 21.8217 398.282 21.6573 398.292 21.4978L398.678 21.9324C398.655 22.0691 398.593 22.2205 398.492 22.3865C398.391 22.5525 398.256 22.712 398.087 22.865C397.921 23.0147 397.722 23.1401 397.491 23.241C397.263 23.3386 397.006 23.3875 396.72 23.3875C396.362 23.3875 396.048 23.3175 395.777 23.1775C395.51 23.0375 395.302 22.8503 395.152 22.616C395.006 22.3783 394.933 22.113 394.933 21.8201C394.933 21.5369 394.988 21.2878 395.099 21.073C395.209 20.8549 395.369 20.6742 395.577 20.531C395.785 20.3845 396.036 20.2738 396.329 20.199C396.622 20.1241 396.949 20.0867 397.311 20.0867H398.36ZM401.51 15.7898V23.2898H400.602V15.7898H401.51ZM403.858 19.0564V23.2898H402.95V18.0066H403.81L403.858 19.0564ZM403.673 20.448L403.253 20.4333C403.256 20.072 403.303 19.7384 403.395 19.4324C403.486 19.1231 403.621 18.8546 403.8 18.6267C403.979 18.3988 404.202 18.2231 404.469 18.0994C404.736 17.9724 405.045 17.9089 405.396 17.9089C405.644 17.9089 405.872 17.9447 406.08 18.0164C406.288 18.0847 406.469 18.1938 406.622 18.3435C406.775 18.4932 406.894 18.6853 406.979 18.9197C407.063 19.1541 407.105 19.4373 407.105 19.7693V23.2898H406.202V19.8132C406.202 19.5365 406.155 19.3152 406.061 19.1492C405.969 18.9832 405.839 18.8627 405.67 18.7878C405.501 18.7097 405.302 18.6707 405.074 18.6707C404.807 18.6707 404.584 18.7179 404.405 18.8123C404.226 18.9067 404.083 19.0369 403.976 19.2029C403.868 19.3689 403.79 19.5593 403.741 19.7742C403.696 19.9858 403.673 20.2104 403.673 20.448ZM407.096 19.95L406.49 20.1355C406.493 19.8458 406.541 19.5675 406.632 19.3005C406.726 19.0336 406.861 18.796 407.037 18.5876C407.216 18.3793 407.436 18.2149 407.696 18.0945C407.957 17.9708 408.255 17.9089 408.59 17.9089C408.873 17.9089 409.124 17.9464 409.342 18.0212C409.563 18.0961 409.749 18.2117 409.898 18.3679C410.051 18.5209 410.167 18.7179 410.245 18.9587C410.323 19.1996 410.362 19.4861 410.362 19.8181V23.2898H409.454V19.8083C409.454 19.5121 409.407 19.2826 409.312 19.1199C409.221 18.9539 409.091 18.8383 408.922 18.7732C408.756 18.7048 408.557 18.6707 408.326 18.6707C408.128 18.6707 407.952 18.7048 407.799 18.7732C407.646 18.8416 407.517 18.936 407.413 19.0564C407.309 19.1736 407.229 19.3087 407.174 19.4617C407.122 19.6147 407.096 19.7774 407.096 19.95ZM413.922 23.3875C413.554 23.3875 413.22 23.3256 412.921 23.2019C412.625 23.075 412.369 22.8975 412.154 22.6697C411.943 22.4418 411.78 22.1716 411.666 21.8591C411.552 21.5466 411.495 21.2048 411.495 20.8337V20.6287C411.495 20.199 411.559 19.8165 411.686 19.4812C411.812 19.1427 411.985 18.8562 412.203 18.6218C412.421 18.3875 412.669 18.21 412.945 18.0896C413.222 17.9692 413.508 17.9089 413.805 17.9089C414.182 17.9089 414.508 17.974 414.781 18.1042C415.058 18.2345 415.284 18.4167 415.46 18.6511C415.636 18.8822 415.766 19.1557 415.851 19.4714C415.935 19.7839 415.978 20.1257 415.978 20.4968V20.9021H412.032V20.1648H415.074V20.0964C415.061 19.8621 415.012 19.6342 414.928 19.4128C414.846 19.1915 414.716 19.0092 414.537 18.866C414.358 18.7227 414.114 18.6511 413.805 18.6511C413.6 18.6511 413.411 18.6951 413.238 18.783C413.066 18.8676 412.918 18.9945 412.794 19.1638C412.67 19.3331 412.574 19.5398 412.506 19.7839C412.438 20.0281 412.403 20.3097 412.403 20.6287V20.8337C412.403 21.0844 412.438 21.3204 412.506 21.5417C412.577 21.7598 412.68 21.9519 412.813 22.1179C412.95 22.2839 413.115 22.4141 413.307 22.5085C413.502 22.6029 413.723 22.6501 413.971 22.6501C414.29 22.6501 414.56 22.585 414.781 22.4548C415.003 22.3246 415.196 22.1505 415.362 21.9324L415.909 22.3669C415.795 22.5395 415.65 22.7039 415.475 22.8601C415.299 23.0164 415.082 23.1433 414.825 23.241C414.571 23.3386 414.27 23.3875 413.922 23.3875ZM417.936 18.8367V23.2898H417.032V18.0066H417.911L417.936 18.8367ZM419.586 17.9773L419.581 18.8171C419.506 18.8009 419.435 18.7911 419.366 18.7878C419.301 18.7813 419.226 18.7781 419.142 18.7781C418.933 18.7781 418.749 18.8106 418.59 18.8757C418.43 18.9408 418.295 19.032 418.185 19.1492C418.074 19.2664 417.986 19.4063 417.921 19.5691C417.859 19.7286 417.818 19.9044 417.799 20.0964L417.545 20.2429C417.545 19.9239 417.576 19.6244 417.638 19.3445C417.703 19.0645 417.802 18.8171 417.936 18.6023C418.069 18.3842 418.238 18.2149 418.443 18.0945C418.652 17.9708 418.899 17.9089 419.186 17.9089C419.251 17.9089 419.326 17.9171 419.41 17.9333C419.495 17.9464 419.553 17.961 419.586 17.9773Z" fill="#32375E"/>
<g opacity="0.9">
<path d="M515.614 21.4929C515.614 21.3269 515.588 21.1804 515.536 21.0535C515.487 20.9233 515.399 20.8061 515.272 20.7019C515.149 20.5977 514.976 20.4985 514.755 20.4041C514.537 20.3097 514.26 20.2136 513.925 20.116C513.573 20.0118 513.256 19.8962 512.973 19.7693C512.689 19.6391 512.447 19.491 512.245 19.325C512.043 19.1589 511.889 18.9685 511.781 18.7537C511.674 18.5388 511.62 18.2931 511.62 18.0164C511.62 17.7397 511.677 17.4841 511.791 17.2498C511.905 17.0154 512.068 16.8119 512.279 16.6394C512.494 16.4636 512.75 16.3269 513.046 16.2292C513.342 16.1316 513.673 16.0828 514.037 16.0828C514.571 16.0828 515.023 16.1853 515.395 16.3904C515.769 16.5922 516.054 16.8575 516.249 17.1863C516.444 17.5118 516.542 17.8601 516.542 18.2312H515.604C515.604 17.9643 515.548 17.7283 515.434 17.5232C515.32 17.3149 515.147 17.1521 514.916 17.0349C514.685 16.9145 514.392 16.8542 514.037 16.8542C513.702 16.8542 513.425 16.9047 513.207 17.0056C512.989 17.1065 512.826 17.2432 512.719 17.4158C512.615 17.5883 512.562 17.7852 512.562 18.0066C512.562 18.1563 512.593 18.2931 512.655 18.4167C512.72 18.5372 512.82 18.6495 512.953 18.7537C513.09 18.8578 513.262 18.9539 513.471 19.0417C513.682 19.1296 513.935 19.2143 514.228 19.2957C514.631 19.4096 514.979 19.5365 515.272 19.6765C515.565 19.8165 515.806 19.9744 515.995 20.1501C516.187 20.3227 516.329 20.5196 516.42 20.741C516.514 20.9591 516.562 21.2065 516.562 21.4832C516.562 21.7729 516.503 22.0349 516.386 22.2693C516.269 22.5037 516.101 22.7039 515.883 22.8699C515.665 23.0359 515.403 23.1645 515.097 23.2556C514.794 23.3435 514.455 23.3875 514.081 23.3875C513.752 23.3875 513.428 23.3419 513.109 23.2507C512.794 23.1596 512.506 23.0229 512.245 22.8406C511.988 22.6583 511.781 22.4337 511.625 22.1667C511.472 21.8966 511.396 21.5841 511.396 21.2292H512.333C512.333 21.4734 512.38 21.6833 512.475 21.8591C512.569 22.0317 512.698 22.1749 512.86 22.2888C513.026 22.4028 513.214 22.4874 513.422 22.5427C513.633 22.5948 513.853 22.6208 514.081 22.6208C514.41 22.6208 514.688 22.5753 514.916 22.4841C515.144 22.393 515.316 22.2628 515.434 22.0935C515.554 21.9242 515.614 21.724 515.614 21.4929ZM518.607 18.0066V23.2898H517.699V18.0066H518.607ZM517.631 16.6052C517.631 16.4587 517.675 16.335 517.763 16.2341C517.854 16.1332 517.987 16.0828 518.163 16.0828C518.336 16.0828 518.467 16.1332 518.559 16.2341C518.653 16.335 518.7 16.4587 518.7 16.6052C518.7 16.7452 518.653 16.8656 518.559 16.9666C518.467 17.0642 518.336 17.113 518.163 17.113C517.987 17.113 517.854 17.0642 517.763 16.9666C517.675 16.8656 517.631 16.7452 517.631 16.6052ZM520.961 19.1345V23.2898H520.058V18.0066H520.912L520.961 19.1345ZM520.746 20.448L520.37 20.4333C520.373 20.072 520.427 19.7384 520.531 19.4324C520.635 19.1231 520.782 18.8546 520.971 18.6267C521.16 18.3988 521.384 18.2231 521.645 18.0994C521.908 17.9724 522.2 17.9089 522.519 17.9089C522.779 17.9089 523.013 17.9447 523.222 18.0164C523.43 18.0847 523.607 18.1954 523.754 18.3484C523.904 18.5014 524.018 18.7 524.096 18.9441C524.174 19.185 524.213 19.4796 524.213 19.8279V23.2898H523.305V19.8181C523.305 19.5414 523.264 19.3201 523.183 19.1541C523.101 18.9848 522.982 18.8627 522.826 18.7878C522.67 18.7097 522.478 18.6707 522.25 18.6707C522.025 18.6707 521.82 18.7179 521.635 18.8123C521.452 18.9067 521.295 19.0369 521.161 19.2029C521.031 19.3689 520.928 19.5593 520.854 19.7742C520.782 19.9858 520.746 20.2104 520.746 20.448ZM529.008 18.0066H529.828V23.1775C529.828 23.643 529.734 24.0401 529.545 24.3689C529.356 24.6977 529.092 24.9467 528.754 25.116C528.419 25.2885 528.031 25.3748 527.592 25.3748C527.41 25.3748 527.195 25.3455 526.947 25.2869C526.703 25.2315 526.462 25.1355 526.225 24.9988C525.99 24.8653 525.793 24.6847 525.634 24.4568L526.107 23.9197C526.329 24.1866 526.56 24.3722 526.801 24.4763C527.045 24.5805 527.286 24.6326 527.523 24.6326C527.81 24.6326 528.057 24.5789 528.266 24.4714C528.474 24.364 528.635 24.2045 528.749 23.9929C528.866 23.7846 528.925 23.5274 528.925 23.2214V19.1687L529.008 18.0066ZM525.37 20.7068V20.6042C525.37 20.2006 525.417 19.8344 525.512 19.5056C525.609 19.1736 525.748 18.8888 525.927 18.6511C526.109 18.4135 526.329 18.2312 526.586 18.1042C526.843 17.974 527.133 17.9089 527.455 17.9089C527.787 17.9089 528.077 17.9675 528.324 18.0847C528.575 18.1986 528.786 18.3663 528.959 18.5876C529.135 18.8057 529.273 19.0694 529.374 19.3787C529.475 19.6879 529.545 20.0378 529.584 20.4285V20.8777C529.548 21.2651 529.478 21.6134 529.374 21.9226C529.273 22.2319 529.135 22.4955 528.959 22.7136C528.786 22.9317 528.575 23.0994 528.324 23.2166C528.074 23.3305 527.781 23.3875 527.445 23.3875C527.13 23.3875 526.843 23.3207 526.586 23.1873C526.332 23.0538 526.114 22.8666 525.932 22.6257C525.749 22.3848 525.609 22.1016 525.512 21.7761C525.417 21.4473 525.37 21.0909 525.37 20.7068ZM526.273 20.6042V20.7068C526.273 20.9705 526.299 21.2179 526.352 21.449C526.407 21.6801 526.49 21.8835 526.601 22.0593C526.715 22.2351 526.859 22.3735 527.035 22.4744C527.211 22.572 527.421 22.6208 527.665 22.6208C527.965 22.6208 528.212 22.5574 528.407 22.4304C528.603 22.3035 528.757 22.1358 528.871 21.9275C528.988 21.7192 529.079 21.4929 529.145 21.2488V20.072C529.109 19.893 529.053 19.7205 528.979 19.5544C528.907 19.3852 528.812 19.2354 528.695 19.1052C528.581 18.9718 528.44 18.866 528.271 18.7878C528.101 18.7097 527.903 18.6707 527.675 18.6707C527.427 18.6707 527.214 18.7227 527.035 18.8269C526.859 18.9278 526.715 19.0678 526.601 19.2468C526.49 19.4226 526.407 19.6277 526.352 19.8621C526.299 20.0932 526.273 20.3406 526.273 20.6042ZM532.182 15.7898V23.2898H531.273V15.7898H532.182ZM535.824 23.3875C535.456 23.3875 535.123 23.3256 534.823 23.2019C534.527 23.075 534.271 22.8975 534.057 22.6697C533.845 22.4418 533.682 22.1716 533.568 21.8591C533.454 21.5466 533.397 21.2048 533.397 20.8337V20.6287C533.397 20.199 533.461 19.8165 533.588 19.4812C533.715 19.1427 533.887 18.8562 534.105 18.6218C534.324 18.3875 534.571 18.21 534.848 18.0896C535.124 17.9692 535.411 17.9089 535.707 17.9089C536.085 17.9089 536.41 17.974 536.684 18.1042C536.96 18.2345 537.187 18.4167 537.362 18.6511C537.538 18.8822 537.668 19.1557 537.753 19.4714C537.838 19.7839 537.88 20.1257 537.88 20.4968V20.9021H533.935V20.1648H536.977V20.0964C536.964 19.8621 536.915 19.6342 536.83 19.4128C536.749 19.1915 536.618 19.0092 536.439 18.866C536.26 18.7227 536.016 18.6511 535.707 18.6511C535.502 18.6511 535.313 18.6951 535.141 18.783C534.968 18.8676 534.82 18.9945 534.696 19.1638C534.573 19.3331 534.477 19.5398 534.408 19.7839C534.34 20.0281 534.306 20.3097 534.306 20.6287V20.8337C534.306 21.0844 534.34 21.3204 534.408 21.5417C534.48 21.7598 534.582 21.9519 534.716 22.1179C534.853 22.2839 535.017 22.4141 535.209 22.5085C535.404 22.6029 535.626 22.6501 535.873 22.6501C536.192 22.6501 536.462 22.585 536.684 22.4548C536.905 22.3246 537.099 22.1505 537.265 21.9324L537.812 22.3669C537.698 22.5395 537.553 22.7039 537.377 22.8601C537.201 23.0164 536.985 23.1433 536.728 23.241C536.474 23.3386 536.173 23.3875 535.824 23.3875ZM542.318 19.0222V25.321H541.41V18.0066H542.24L542.318 19.0222ZM545.878 20.6042V20.7068C545.878 21.0909 545.832 21.4473 545.741 21.7761C545.65 22.1016 545.517 22.3848 545.341 22.6257C545.168 22.8666 544.955 23.0538 544.701 23.1873C544.447 23.3207 544.156 23.3875 543.827 23.3875C543.492 23.3875 543.196 23.3321 542.938 23.2214C542.681 23.1108 542.463 22.9496 542.284 22.738C542.105 22.5264 541.962 22.2725 541.854 21.9763C541.75 21.6801 541.679 21.3464 541.64 20.9753V20.4285C541.679 20.0378 541.752 19.6879 541.859 19.3787C541.967 19.0694 542.108 18.8057 542.284 18.5876C542.463 18.3663 542.68 18.1986 542.934 18.0847C543.188 17.9675 543.48 17.9089 543.812 17.9089C544.145 17.9089 544.439 17.974 544.696 18.1042C544.953 18.2312 545.17 18.4135 545.346 18.6511C545.521 18.8888 545.653 19.1736 545.741 19.5056C545.832 19.8344 545.878 20.2006 545.878 20.6042ZM544.97 20.7068V20.6042C544.97 20.3406 544.942 20.0932 544.887 19.8621C544.831 19.6277 544.745 19.4226 544.628 19.2468C544.514 19.0678 544.368 18.9278 544.188 18.8269C544.009 18.7227 543.796 18.6707 543.549 18.6707C543.321 18.6707 543.122 18.7097 542.953 18.7878C542.787 18.866 542.646 18.9718 542.528 19.1052C542.411 19.2354 542.315 19.3852 542.24 19.5544C542.169 19.7205 542.115 19.893 542.079 20.072V21.3367C542.144 21.5645 542.235 21.7794 542.353 21.9812C542.47 22.1798 542.626 22.3409 542.821 22.4646C543.017 22.585 543.262 22.6453 543.559 22.6453C543.803 22.6453 544.013 22.5948 544.188 22.4939C544.368 22.3897 544.514 22.2481 544.628 22.0691C544.745 21.8901 544.831 21.685 544.887 21.4539C544.942 21.2195 544.97 20.9705 544.97 20.7068ZM550.146 22.3865V19.6667C550.146 19.4584 550.103 19.2778 550.019 19.1248C549.937 18.9685 549.813 18.8481 549.647 18.7634C549.481 18.6788 549.276 18.6365 549.032 18.6365C548.804 18.6365 548.604 18.6755 548.432 18.7537C548.262 18.8318 548.129 18.9343 548.031 19.0613C547.937 19.1882 547.89 19.325 547.89 19.4714H546.986C546.986 19.2826 547.035 19.0955 547.133 18.9099C547.23 18.7244 547.37 18.5567 547.553 18.407C547.738 18.254 547.96 18.1335 548.217 18.0457C548.477 17.9545 548.767 17.9089 549.086 17.9089C549.47 17.9089 549.809 17.974 550.102 18.1042C550.398 18.2345 550.629 18.4314 550.795 18.6951C550.964 18.9555 551.049 19.2826 551.049 19.6765V22.1375C551.049 22.3132 551.063 22.5004 551.093 22.699C551.125 22.8975 551.173 23.0684 551.234 23.2117V23.2898H550.292C550.246 23.1856 550.211 23.0473 550.185 22.8748C550.159 22.699 550.146 22.5362 550.146 22.3865ZM550.302 20.0867L550.312 20.7214H549.398C549.141 20.7214 548.912 20.7426 548.71 20.7849C548.508 20.824 548.339 20.8842 548.202 20.9656C548.065 21.047 547.961 21.1495 547.89 21.2732C547.818 21.3936 547.782 21.5352 547.782 21.698C547.782 21.864 547.82 22.0154 547.895 22.1521C547.969 22.2888 548.082 22.3979 548.231 22.4792C548.384 22.5574 548.572 22.5964 548.793 22.5964C549.07 22.5964 549.314 22.5378 549.525 22.4207C549.737 22.3035 549.905 22.1602 550.028 21.991C550.155 21.8217 550.224 21.6573 550.233 21.4978L550.619 21.9324C550.596 22.0691 550.535 22.2205 550.434 22.3865C550.333 22.5525 550.198 22.712 550.028 22.865C549.862 23.0147 549.664 23.1401 549.433 23.241C549.205 23.3386 548.948 23.3875 548.661 23.3875C548.303 23.3875 547.989 23.3175 547.719 23.1775C547.452 23.0375 547.243 22.8503 547.094 22.616C546.947 22.3783 546.874 22.113 546.874 21.8201C546.874 21.5369 546.929 21.2878 547.04 21.073C547.151 20.8549 547.31 20.6742 547.519 20.531C547.727 20.3845 547.978 20.2738 548.271 20.199C548.563 20.1241 548.891 20.0867 549.252 20.0867H550.302ZM553.876 22.7429L555.346 18.0066H556.312L554.193 24.1052C554.145 24.2354 554.079 24.3754 553.998 24.5251C553.92 24.6781 553.819 24.823 553.695 24.9597C553.572 25.0964 553.422 25.2071 553.246 25.2917C553.074 25.3796 552.867 25.4236 552.626 25.4236C552.554 25.4236 552.463 25.4138 552.353 25.3943C552.242 25.3748 552.164 25.3585 552.118 25.3455L552.113 24.613C552.139 24.6163 552.18 24.6195 552.235 24.6228C552.294 24.6293 552.335 24.6326 552.357 24.6326C552.562 24.6326 552.737 24.6049 552.88 24.5496C553.023 24.4975 553.144 24.408 553.241 24.281C553.342 24.1573 553.428 23.9864 553.5 23.7683L553.876 22.7429ZM552.797 18.0066L554.169 22.1082L554.403 23.0603L553.754 23.3923L551.811 18.0066H552.797ZM558.026 19.0564V23.2898H557.118V18.0066H557.978L558.026 19.0564ZM557.841 20.448L557.421 20.4333C557.424 20.072 557.471 19.7384 557.562 19.4324C557.654 19.1231 557.789 18.8546 557.968 18.6267C558.147 18.3988 558.37 18.2231 558.637 18.0994C558.904 17.9724 559.213 17.9089 559.564 17.9089C559.812 17.9089 560.04 17.9447 560.248 18.0164C560.456 18.0847 560.637 18.1938 560.79 18.3435C560.943 18.4932 561.062 18.6853 561.146 18.9197C561.231 19.1541 561.273 19.4373 561.273 19.7693V23.2898H560.37V19.8132C560.37 19.5365 560.323 19.3152 560.229 19.1492C560.137 18.9832 560.007 18.8627 559.838 18.7878C559.669 18.7097 559.47 18.6707 559.242 18.6707C558.975 18.6707 558.752 18.7179 558.573 18.8123C558.394 18.9067 558.251 19.0369 558.144 19.2029C558.036 19.3689 557.958 19.5593 557.909 19.7742C557.864 19.9858 557.841 20.2104 557.841 20.448ZM561.264 19.95L560.658 20.1355C560.661 19.8458 560.709 19.5675 560.8 19.3005C560.894 19.0336 561.029 18.796 561.205 18.5876C561.384 18.3793 561.604 18.2149 561.864 18.0945C562.125 17.9708 562.423 17.9089 562.758 17.9089C563.041 17.9089 563.292 17.9464 563.51 18.0212C563.731 18.0961 563.917 18.2117 564.066 18.3679C564.219 18.5209 564.335 18.7179 564.413 18.9587C564.491 19.1996 564.53 19.4861 564.53 19.8181V23.2898H563.622V19.8083C563.622 19.5121 563.575 19.2826 563.48 19.1199C563.389 18.9539 563.259 18.8383 563.09 18.7732C562.924 18.7048 562.725 18.6707 562.494 18.6707C562.296 18.6707 562.12 18.7048 561.967 18.7732C561.814 18.8416 561.685 18.936 561.581 19.0564C561.477 19.1736 561.397 19.3087 561.342 19.4617C561.29 19.6147 561.264 19.7774 561.264 19.95ZM568.09 23.3875C567.722 23.3875 567.388 23.3256 567.089 23.2019C566.793 23.075 566.537 22.8975 566.322 22.6697C566.111 22.4418 565.948 22.1716 565.834 21.8591C565.72 21.5466 565.663 21.2048 565.663 20.8337V20.6287C565.663 20.199 565.727 19.8165 565.854 19.4812C565.98 19.1427 566.153 18.8562 566.371 18.6218C566.589 18.3875 566.837 18.21 567.113 18.0896C567.39 17.9692 567.676 17.9089 567.973 17.9089C568.35 17.9089 568.676 17.974 568.949 18.1042C569.226 18.2345 569.452 18.4167 569.628 18.6511C569.804 18.8822 569.934 19.1557 570.019 19.4714C570.103 19.7839 570.146 20.1257 570.146 20.4968V20.9021H566.2V20.1648H569.242V20.0964C569.229 19.8621 569.18 19.6342 569.096 19.4128C569.014 19.1915 568.884 19.0092 568.705 18.866C568.526 18.7227 568.282 18.6511 567.973 18.6511C567.768 18.6511 567.579 18.6951 567.406 18.783C567.234 18.8676 567.086 18.9945 566.962 19.1638C566.838 19.3331 566.742 19.5398 566.674 19.7839C566.605 20.0281 566.571 20.3097 566.571 20.6287V20.8337C566.571 21.0844 566.605 21.3204 566.674 21.5417C566.745 21.7598 566.848 21.9519 566.981 22.1179C567.118 22.2839 567.283 22.4141 567.475 22.5085C567.67 22.6029 567.891 22.6501 568.139 22.6501C568.458 22.6501 568.728 22.585 568.949 22.4548C569.171 22.3246 569.364 22.1505 569.53 21.9324L570.077 22.3669C569.963 22.5395 569.818 22.7039 569.643 22.8601C569.467 23.0164 569.25 23.1433 568.993 23.241C568.739 23.3386 568.438 23.3875 568.09 23.3875ZM572.104 19.1345V23.2898H571.2V18.0066H572.055L572.104 19.1345ZM571.889 20.448L571.513 20.4333C571.516 20.072 571.57 19.7384 571.674 19.4324C571.778 19.1231 571.924 18.8546 572.113 18.6267C572.302 18.3988 572.527 18.2231 572.787 18.0994C573.051 17.9724 573.342 17.9089 573.661 17.9089C573.922 17.9089 574.156 17.9447 574.364 18.0164C574.573 18.0847 574.75 18.1954 574.896 18.3484C575.046 18.5014 575.16 18.7 575.238 18.9441C575.316 19.185 575.355 19.4796 575.355 19.8279V23.2898H574.447V19.8181C574.447 19.5414 574.407 19.3201 574.325 19.1541C574.244 18.9848 574.125 18.8627 573.969 18.7878C573.812 18.7097 573.62 18.6707 573.393 18.6707C573.168 18.6707 572.963 18.7179 572.777 18.8123C572.595 18.9067 572.437 19.0369 572.304 19.2029C572.174 19.3689 572.071 19.5593 571.996 19.7742C571.924 19.9858 571.889 20.2104 571.889 20.448ZM578.939 18.0066V18.7H576.083V18.0066H578.939ZM577.05 16.7224H577.953V21.9812C577.953 22.1602 577.981 22.2953 578.036 22.3865C578.091 22.4776 578.163 22.5378 578.251 22.5671C578.339 22.5964 578.433 22.6111 578.534 22.6111C578.609 22.6111 578.687 22.6046 578.769 22.5916C578.853 22.5753 578.917 22.5623 578.959 22.5525L578.964 23.2898C578.892 23.3126 578.798 23.3337 578.681 23.3533C578.567 23.3761 578.428 23.3875 578.266 23.3875C578.044 23.3875 577.841 23.3435 577.655 23.2556C577.47 23.1677 577.322 23.0212 577.211 22.8162C577.104 22.6078 577.05 22.3279 577.05 21.9763V16.7224Z" fill="#32375E"/>
</g>
<g opacity="0.9">
<path d="M675.733 19.906L675.011 19.7205L675.367 16.1804H679.015V17.0154H676.134L675.919 18.949C676.049 18.8741 676.214 18.8041 676.412 18.739C676.614 18.6739 676.845 18.6414 677.105 18.6414C677.434 18.6414 677.729 18.6983 677.989 18.8123C678.25 18.9229 678.471 19.0824 678.653 19.2908C678.839 19.4991 678.98 19.7498 679.078 20.0427C679.176 20.3357 679.225 20.6628 679.225 21.0242C679.225 21.366 679.177 21.6801 679.083 21.9666C678.992 22.253 678.854 22.5037 678.668 22.7185C678.482 22.9301 678.248 23.0945 677.965 23.2117C677.685 23.3289 677.354 23.3875 676.974 23.3875C676.687 23.3875 676.415 23.3484 676.158 23.2703C675.904 23.1889 675.676 23.0668 675.475 22.9041C675.276 22.738 675.113 22.533 674.986 22.2888C674.863 22.0414 674.785 21.7517 674.752 21.4197H675.611C675.65 21.6866 675.729 21.9112 675.846 22.0935C675.963 22.2758 676.116 22.4141 676.305 22.5085C676.497 22.5997 676.72 22.6453 676.974 22.6453C677.188 22.6453 677.379 22.6078 677.545 22.533C677.711 22.4581 677.851 22.3507 677.965 22.2107C678.079 22.0707 678.165 21.9014 678.224 21.7029C678.285 21.5043 678.316 21.2813 678.316 21.0339C678.316 20.8093 678.285 20.601 678.224 20.4089C678.162 20.2169 678.069 20.0492 677.945 19.906C677.825 19.7628 677.677 19.6521 677.501 19.574C677.325 19.4926 677.123 19.4519 676.896 19.4519C676.593 19.4519 676.363 19.4926 676.207 19.574C676.054 19.6554 675.896 19.766 675.733 19.906ZM684.874 22.5476V23.2898H680.221V22.6404L682.55 20.0476C682.836 19.7286 683.058 19.4584 683.214 19.2371C683.373 19.0125 683.484 18.8123 683.546 18.6365C683.611 18.4574 683.644 18.2751 683.644 18.0896C683.644 17.8552 683.595 17.6436 683.497 17.4548C683.403 17.2628 683.263 17.1098 683.077 16.9958C682.892 16.8819 682.667 16.825 682.403 16.825C682.088 16.825 681.824 16.8868 681.612 17.0105C681.404 17.1309 681.248 17.3002 681.144 17.5183C681.039 17.7364 680.987 17.9871 680.987 18.2703H680.084C680.084 17.8699 680.172 17.5037 680.348 17.1716C680.523 16.8396 680.784 16.5759 681.129 16.3806C681.474 16.182 681.899 16.0828 682.403 16.0828C682.853 16.0828 683.237 16.1625 683.556 16.322C683.875 16.4783 684.119 16.6996 684.288 16.9861C684.461 17.2693 684.547 17.6013 684.547 17.9822C684.547 18.1905 684.511 18.4021 684.439 18.6169C684.371 18.8285 684.275 19.0401 684.151 19.2517C684.031 19.4633 683.889 19.6716 683.727 19.8767C683.567 20.0818 683.396 20.2836 683.214 20.4822L681.31 22.5476H684.874ZM686.739 22.533H686.832C687.353 22.533 687.776 22.4597 688.102 22.3132C688.427 22.1667 688.678 21.9698 688.854 21.7224C689.029 21.475 689.15 21.1967 689.215 20.8875C689.28 20.575 689.312 20.2543 689.312 19.9255V18.8367C689.312 18.5144 689.275 18.2279 689.2 17.9773C689.129 17.7266 689.028 17.5167 688.897 17.3474C688.771 17.1781 688.626 17.0496 688.463 16.9617C688.3 16.8738 688.128 16.8298 687.945 16.8298C687.737 16.8298 687.55 16.8722 687.384 16.9568C687.221 17.0382 687.083 17.1537 686.969 17.3035C686.858 17.4532 686.773 17.629 686.715 17.8308C686.656 18.0326 686.627 18.2524 686.627 18.49C686.627 18.7016 686.653 18.9067 686.705 19.1052C686.757 19.3038 686.837 19.4828 686.944 19.6423C687.052 19.8018 687.185 19.9288 687.345 20.0232C687.507 20.1143 687.698 20.1599 687.916 20.1599C688.118 20.1599 688.307 20.1208 688.482 20.0427C688.661 19.9613 688.819 19.8523 688.956 19.7156C689.096 19.5756 689.207 19.4177 689.288 19.2419C689.373 19.0662 689.422 18.8822 689.435 18.6902H689.864C689.864 18.9604 689.811 19.2273 689.703 19.491C689.599 19.7514 689.452 19.989 689.264 20.2039C689.075 20.4187 688.854 20.5912 688.6 20.7214C688.346 20.8484 688.069 20.9119 687.77 20.9119C687.418 20.9119 687.114 20.8435 686.856 20.7068C686.599 20.5701 686.388 20.3878 686.222 20.1599C686.059 19.932 685.937 19.6781 685.855 19.3982C685.777 19.115 685.738 18.8285 685.738 18.5388C685.738 18.2003 685.785 17.8829 685.88 17.5867C685.974 17.2904 686.114 17.03 686.3 16.8054C686.485 16.5776 686.715 16.4001 686.988 16.2732C687.265 16.1462 687.584 16.0828 687.945 16.0828C688.352 16.0828 688.699 16.1641 688.985 16.3269C689.272 16.4897 689.505 16.7078 689.684 16.9812C689.866 17.2546 689.999 17.5623 690.084 17.9041C690.169 18.2458 690.211 18.5974 690.211 18.9587V19.2859C690.211 19.6537 690.187 20.0281 690.138 20.4089C690.092 20.7865 690.003 21.1479 689.869 21.4929C689.739 21.838 689.549 22.1472 689.298 22.4207C689.047 22.6908 688.72 22.9057 688.316 23.0652C687.916 23.2214 687.421 23.2996 686.832 23.2996H686.739V22.533ZM691.578 22.8113C691.578 22.6583 691.625 22.5297 691.72 22.4255C691.817 22.3181 691.957 22.2644 692.14 22.2644C692.322 22.2644 692.46 22.3181 692.555 22.4255C692.652 22.5297 692.701 22.6583 692.701 22.8113C692.701 22.961 692.652 23.088 692.555 23.1921C692.46 23.2963 692.322 23.3484 692.14 23.3484C691.957 23.3484 691.817 23.2963 691.72 23.1921C691.625 23.088 691.578 22.961 691.578 22.8113ZM698.565 19.1687V20.2527C698.565 20.8354 698.513 21.3269 698.409 21.7273C698.305 22.1277 698.155 22.45 697.96 22.6941C697.765 22.9382 697.529 23.1156 697.252 23.2263C696.979 23.3337 696.669 23.3875 696.324 23.3875C696.051 23.3875 695.799 23.3533 695.567 23.2849C695.336 23.2166 695.128 23.1075 694.942 22.9578C694.76 22.8048 694.604 22.6062 694.474 22.3621C694.343 22.1179 694.244 21.8217 694.176 21.4734C694.107 21.1251 694.073 20.7182 694.073 20.2527V19.1687C694.073 18.586 694.125 18.0977 694.229 17.7039C694.337 17.31 694.488 16.9942 694.684 16.7566C694.879 16.5157 695.113 16.3432 695.387 16.239C695.663 16.1348 695.973 16.0828 696.314 16.0828C696.591 16.0828 696.845 16.1169 697.076 16.1853C697.311 16.2504 697.519 16.3562 697.701 16.5027C697.883 16.6459 698.038 16.838 698.165 17.0789C698.295 17.3165 698.395 17.6078 698.463 17.9529C698.531 18.2979 698.565 18.7032 698.565 19.1687ZM697.657 20.3992V19.0173C697.657 18.6983 697.638 18.4184 697.599 18.1775C697.563 17.9333 697.509 17.725 697.438 17.5525C697.366 17.38 697.275 17.24 697.164 17.1326C697.057 17.0251 696.931 16.947 696.788 16.8982C696.648 16.8461 696.49 16.8201 696.314 16.8201C696.1 16.8201 695.909 16.8608 695.743 16.9421C695.577 17.0203 695.437 17.1456 695.323 17.3181C695.213 17.4906 695.128 17.7169 695.069 17.9968C695.011 18.2768 694.981 18.6169 694.981 19.0173V20.3992C694.981 20.7182 694.999 20.9998 695.035 21.2439C695.074 21.488 695.131 21.6996 695.206 21.8787C695.281 22.0544 695.372 22.1993 695.479 22.3132C695.587 22.4272 695.711 22.5118 695.851 22.5671C695.994 22.6192 696.152 22.6453 696.324 22.6453C696.546 22.6453 696.739 22.6029 696.905 22.5183C697.071 22.4337 697.21 22.3018 697.32 22.1228C697.434 21.9405 697.519 21.7078 697.574 21.4246C697.63 21.1381 697.657 20.7963 697.657 20.3992ZM704.19 19.1687V20.2527C704.19 20.8354 704.138 21.3269 704.034 21.7273C703.93 22.1277 703.78 22.45 703.585 22.6941C703.39 22.9382 703.154 23.1156 702.877 23.2263C702.604 23.3337 702.294 23.3875 701.949 23.3875C701.676 23.3875 701.424 23.3533 701.192 23.2849C700.961 23.2166 700.753 23.1075 700.567 22.9578C700.385 22.8048 700.229 22.6062 700.099 22.3621C699.968 22.1179 699.869 21.8217 699.801 21.4734C699.732 21.1251 699.698 20.7182 699.698 20.2527V19.1687C699.698 18.586 699.75 18.0977 699.854 17.7039C699.962 17.31 700.113 16.9942 700.309 16.7566C700.504 16.5157 700.738 16.3432 701.012 16.239C701.288 16.1348 701.598 16.0828 701.939 16.0828C702.216 16.0828 702.47 16.1169 702.701 16.1853C702.936 16.2504 703.144 16.3562 703.326 16.5027C703.508 16.6459 703.663 16.838 703.79 17.0789C703.92 17.3165 704.02 17.6078 704.088 17.9529C704.156 18.2979 704.19 18.7032 704.19 19.1687ZM703.282 20.3992V19.0173C703.282 18.6983 703.263 18.4184 703.224 18.1775C703.188 17.9333 703.134 17.725 703.062 17.5525C702.991 17.38 702.9 17.24 702.789 17.1326C702.682 17.0251 702.556 16.947 702.413 16.8982C702.273 16.8461 702.115 16.8201 701.939 16.8201C701.725 16.8201 701.534 16.8608 701.368 16.9421C701.202 17.0203 701.062 17.1456 700.948 17.3181C700.838 17.4906 700.753 17.7169 700.694 17.9968C700.636 18.2768 700.606 18.6169 700.606 19.0173V20.3992C700.606 20.7182 700.624 20.9998 700.66 21.2439C700.699 21.488 700.756 21.6996 700.831 21.8787C700.906 22.0544 700.997 22.1993 701.104 22.3132C701.212 22.4272 701.336 22.5118 701.476 22.5671C701.619 22.6192 701.777 22.6453 701.949 22.6453C702.171 22.6453 702.364 22.6029 702.53 22.5183C702.696 22.4337 702.835 22.3018 702.945 22.1228C703.059 21.9405 703.144 21.7078 703.199 21.4246C703.255 21.1381 703.282 20.7963 703.282 20.3992Z" fill="#32375E"/>
</g>
<g opacity="0.9">
<path d="M725.893 16.1804H726.83V20.99C726.83 21.5238 726.711 21.9682 726.474 22.323C726.236 22.6778 725.92 22.9447 725.526 23.1238C725.136 23.2996 724.711 23.3875 724.252 23.3875C723.77 23.3875 723.334 23.2996 722.943 23.1238C722.556 22.9447 722.248 22.6778 722.021 22.323C721.796 21.9682 721.684 21.5238 721.684 20.99V16.1804H722.616V20.99C722.616 21.3611 722.685 21.6671 722.821 21.908C722.958 22.1488 723.148 22.3279 723.393 22.4451C723.64 22.5623 723.926 22.6208 724.252 22.6208C724.581 22.6208 724.867 22.5623 725.111 22.4451C725.359 22.3279 725.551 22.1488 725.688 21.908C725.824 21.6671 725.893 21.3611 725.893 20.99V16.1804ZM732.099 21.4929C732.099 21.3269 732.073 21.1804 732.021 21.0535C731.972 20.9233 731.884 20.8061 731.757 20.7019C731.633 20.5977 731.461 20.4985 731.239 20.4041C731.021 20.3097 730.744 20.2136 730.409 20.116C730.058 20.0118 729.74 19.8962 729.457 19.7693C729.174 19.6391 728.931 19.491 728.729 19.325C728.528 19.1589 728.373 18.9685 728.266 18.7537C728.158 18.5388 728.104 18.2931 728.104 18.0164C728.104 17.7397 728.161 17.4841 728.275 17.2498C728.389 17.0154 728.552 16.8119 728.764 16.6394C728.979 16.4636 729.234 16.3269 729.53 16.2292C729.826 16.1316 730.157 16.0828 730.521 16.0828C731.055 16.0828 731.508 16.1853 731.879 16.3904C732.253 16.5922 732.538 16.8575 732.733 17.1863C732.929 17.5118 733.026 17.8601 733.026 18.2312H732.089C732.089 17.9643 732.032 17.7283 731.918 17.5232C731.804 17.3149 731.632 17.1521 731.4 17.0349C731.169 16.9145 730.876 16.8542 730.521 16.8542C730.186 16.8542 729.91 16.9047 729.691 17.0056C729.473 17.1065 729.311 17.2432 729.203 17.4158C729.099 17.5883 729.047 17.7852 729.047 18.0066C729.047 18.1563 729.078 18.2931 729.14 18.4167C729.205 18.5372 729.304 18.6495 729.438 18.7537C729.574 18.8578 729.747 18.9539 729.955 19.0417C730.167 19.1296 730.419 19.2143 730.712 19.2957C731.116 19.4096 731.464 19.5365 731.757 19.6765C732.05 19.8165 732.291 19.9744 732.479 20.1501C732.672 20.3227 732.813 20.5196 732.904 20.741C732.999 20.9591 733.046 21.2065 733.046 21.4832C733.046 21.7729 732.987 22.0349 732.87 22.2693C732.753 22.5037 732.585 22.7039 732.367 22.8699C732.149 23.0359 731.887 23.1645 731.581 23.2556C731.278 23.3435 730.94 23.3875 730.565 23.3875C730.237 23.3875 729.913 23.3419 729.594 23.2507C729.278 23.1596 728.99 23.0229 728.729 22.8406C728.472 22.6583 728.266 22.4337 728.109 22.1667C727.956 21.8966 727.88 21.5841 727.88 21.2292H728.817C728.817 21.4734 728.865 21.6833 728.959 21.8591C729.053 22.0317 729.182 22.1749 729.345 22.2888C729.511 22.4028 729.698 22.4874 729.906 22.5427C730.118 22.5948 730.338 22.6208 730.565 22.6208C730.894 22.6208 731.173 22.5753 731.4 22.4841C731.628 22.393 731.801 22.2628 731.918 22.0935C732.038 21.9242 732.099 21.724 732.099 21.4929ZM736.171 23.2898H734.687L734.696 22.5232H736.171C736.679 22.5232 737.102 22.4174 737.44 22.2058C737.779 21.991 738.033 21.6915 738.202 21.3074C738.375 20.92 738.461 20.4675 738.461 19.95V19.5154C738.461 19.1085 738.412 18.7472 738.314 18.4314C738.217 18.1124 738.074 17.8438 737.885 17.6257C737.696 17.4044 737.465 17.2367 737.191 17.1228C736.921 17.0089 736.61 16.9519 736.259 16.9519H734.657V16.1804H736.259C736.724 16.1804 737.149 16.2585 737.533 16.4148C737.917 16.5678 738.248 16.7908 738.524 17.0837C738.804 17.3735 739.019 17.725 739.169 18.1384C739.319 18.5486 739.394 19.0108 739.394 19.5251V19.95C739.394 20.4643 739.319 20.9281 739.169 21.3416C739.019 21.7517 738.803 22.1016 738.52 22.3914C738.24 22.6811 737.901 22.9041 737.504 23.0603C737.11 23.2133 736.666 23.2898 736.171 23.2898ZM735.189 16.1804V23.2898H734.247V16.1804H735.189Z" fill="#32375E"/>
</g>
<g opacity="0.9">
<path d="M817.054 19.1687V20.2527C817.054 20.8354 817.002 21.3269 816.897 21.7273C816.793 22.1277 816.644 22.45 816.448 22.6941C816.253 22.9382 816.017 23.1156 815.74 23.2263C815.467 23.3337 815.158 23.3875 814.812 23.3875C814.539 23.3875 814.287 23.3533 814.056 23.2849C813.825 23.2166 813.616 23.1075 813.431 22.9578C813.248 22.8048 813.092 22.6062 812.962 22.3621C812.832 22.1179 812.732 21.8217 812.664 21.4734C812.596 21.1251 812.562 20.7182 812.562 20.2527V19.1687C812.562 18.586 812.614 18.0977 812.718 17.7039C812.825 17.31 812.977 16.9942 813.172 16.7566C813.367 16.5157 813.602 16.3432 813.875 16.239C814.152 16.1348 814.461 16.0828 814.803 16.0828C815.079 16.0828 815.333 16.1169 815.564 16.1853C815.799 16.2504 816.007 16.3562 816.189 16.5027C816.372 16.6459 816.526 16.838 816.653 17.0789C816.784 17.3165 816.883 17.6078 816.951 17.9529C817.02 18.2979 817.054 18.7032 817.054 19.1687ZM816.146 20.3992V19.0173C816.146 18.6983 816.126 18.4184 816.087 18.1775C816.051 17.9333 815.997 17.725 815.926 17.5525C815.854 17.38 815.763 17.24 815.652 17.1326C815.545 17.0251 815.42 16.947 815.276 16.8982C815.136 16.8461 814.979 16.8201 814.803 16.8201C814.588 16.8201 814.397 16.8608 814.231 16.9421C814.065 17.0203 813.925 17.1456 813.812 17.3181C813.701 17.4906 813.616 17.7169 813.558 17.9968C813.499 18.2768 813.47 18.6169 813.47 19.0173V20.3992C813.47 20.7182 813.488 20.9998 813.523 21.2439C813.562 21.488 813.619 21.6996 813.694 21.8787C813.769 22.0544 813.86 22.1993 813.968 22.3132C814.075 22.4272 814.199 22.5118 814.339 22.5671C814.482 22.6192 814.64 22.6453 814.812 22.6453C815.034 22.6453 815.228 22.6029 815.394 22.5183C815.56 22.4337 815.698 22.3018 815.809 22.1228C815.923 21.9405 816.007 21.7078 816.062 21.4246C816.118 21.1381 816.146 20.7963 816.146 20.3992ZM821.458 16.1804L818.494 23.9001H817.718L820.687 16.1804H821.458ZM825.315 16.1414V23.2898H824.412V17.2693L822.591 17.9333V17.1179L825.174 16.1414H825.315Z" fill="#32375E"/>
</g>
<g opacity="0.9">
<path d="M903.054 19.1687V20.2527C903.054 20.8354 903.002 21.3269 902.897 21.7273C902.793 22.1277 902.644 22.45 902.448 22.6941C902.253 22.9382 902.017 23.1156 901.74 23.2263C901.467 23.3337 901.158 23.3875 900.812 23.3875C900.539 23.3875 900.287 23.3533 900.056 23.2849C899.825 23.2166 899.616 23.1075 899.431 22.9578C899.248 22.8048 899.092 22.6062 898.962 22.3621C898.832 22.1179 898.732 21.8217 898.664 21.4734C898.596 21.1251 898.562 20.7182 898.562 20.2527V19.1687C898.562 18.586 898.614 18.0977 898.718 17.7039C898.825 17.31 898.977 16.9942 899.172 16.7566C899.367 16.5157 899.602 16.3432 899.875 16.239C900.152 16.1348 900.461 16.0828 900.803 16.0828C901.079 16.0828 901.333 16.1169 901.564 16.1853C901.799 16.2504 902.007 16.3562 902.189 16.5027C902.372 16.6459 902.526 16.838 902.653 17.0789C902.784 17.3165 902.883 17.6078 902.951 17.9529C903.02 18.2979 903.054 18.7032 903.054 19.1687ZM902.146 20.3992V19.0173C902.146 18.6983 902.126 18.4184 902.087 18.1775C902.051 17.9333 901.997 17.725 901.926 17.5525C901.854 17.38 901.763 17.24 901.652 17.1326C901.545 17.0251 901.42 16.947 901.276 16.8982C901.136 16.8461 900.979 16.8201 900.803 16.8201C900.588 16.8201 900.397 16.8608 900.231 16.9421C900.065 17.0203 899.925 17.1456 899.812 17.3181C899.701 17.4906 899.616 17.7169 899.558 17.9968C899.499 18.2768 899.47 18.6169 899.47 19.0173V20.3992C899.47 20.7182 899.488 20.9998 899.523 21.2439C899.562 21.488 899.619 21.6996 899.694 21.8787C899.769 22.0544 899.86 22.1993 899.968 22.3132C900.075 22.4272 900.199 22.5118 900.339 22.5671C900.482 22.6192 900.64 22.6453 900.812 22.6453C901.034 22.6453 901.228 22.6029 901.394 22.5183C901.56 22.4337 901.698 22.3018 901.809 22.1228C901.923 21.9405 902.007 21.7078 902.062 21.4246C902.118 21.1381 902.146 20.7963 902.146 20.3992ZM904.328 22.8113C904.328 22.6583 904.375 22.5297 904.47 22.4255C904.567 22.3181 904.707 22.2644 904.89 22.2644C905.072 22.2644 905.21 22.3181 905.305 22.4255C905.402 22.5297 905.451 22.6583 905.451 22.8113C905.451 22.961 905.402 23.088 905.305 23.1921C905.21 23.2963 905.072 23.3484 904.89 23.3484C904.707 23.3484 904.567 23.2963 904.47 23.1921C904.375 23.088 904.328 22.961 904.328 22.8113ZM911.315 19.1687V20.2527C911.315 20.8354 911.263 21.3269 911.159 21.7273C911.055 22.1277 910.905 22.45 910.71 22.6941C910.515 22.9382 910.279 23.1156 910.002 23.2263C909.729 23.3337 909.419 23.3875 909.074 23.3875C908.801 23.3875 908.549 23.3533 908.317 23.2849C908.086 23.2166 907.878 23.1075 907.692 22.9578C907.51 22.8048 907.354 22.6062 907.224 22.3621C907.093 22.1179 906.994 21.8217 906.926 21.4734C906.857 21.1251 906.823 20.7182 906.823 20.2527V19.1687C906.823 18.586 906.875 18.0977 906.979 17.7039C907.087 17.31 907.238 16.9942 907.434 16.7566C907.629 16.5157 907.863 16.3432 908.137 16.239C908.413 16.1348 908.723 16.0828 909.064 16.0828C909.341 16.0828 909.595 16.1169 909.826 16.1853C910.061 16.2504 910.269 16.3562 910.451 16.5027C910.633 16.6459 910.788 16.838 910.915 17.0789C911.045 17.3165 911.145 17.6078 911.213 17.9529C911.281 18.2979 911.315 18.7032 911.315 19.1687ZM910.407 20.3992V19.0173C910.407 18.6983 910.388 18.4184 910.349 18.1775C910.313 17.9333 910.259 17.725 910.188 17.5525C910.116 17.38 910.025 17.24 909.914 17.1326C909.807 17.0251 909.681 16.947 909.538 16.8982C909.398 16.8461 909.24 16.8201 909.064 16.8201C908.85 16.8201 908.659 16.8608 908.493 16.9421C908.327 17.0203 908.187 17.1456 908.073 17.3181C907.963 17.4906 907.878 17.7169 907.819 17.9968C907.761 18.2768 907.731 18.6169 907.731 19.0173V20.3992C907.731 20.7182 907.749 20.9998 907.785 21.2439C907.824 21.488 907.881 21.6996 907.956 21.8787C908.031 22.0544 908.122 22.1993 908.229 22.3132C908.337 22.4272 908.461 22.5118 908.601 22.5671C908.744 22.6192 908.902 22.6453 909.074 22.6453C909.296 22.6453 909.489 22.6029 909.655 22.5183C909.821 22.4337 909.96 22.3018 910.07 22.1228C910.184 21.9405 910.269 21.7078 910.324 21.4246C910.38 21.1381 910.407 20.7963 910.407 20.3992ZM916.94 19.1687V20.2527C916.94 20.8354 916.888 21.3269 916.784 21.7273C916.68 22.1277 916.53 22.45 916.335 22.6941C916.14 22.9382 915.904 23.1156 915.627 23.2263C915.354 23.3337 915.044 23.3875 914.699 23.3875C914.426 23.3875 914.174 23.3533 913.942 23.2849C913.711 23.2166 913.503 23.1075 913.317 22.9578C913.135 22.8048 912.979 22.6062 912.849 22.3621C912.718 22.1179 912.619 21.8217 912.551 21.4734C912.482 21.1251 912.448 20.7182 912.448 20.2527V19.1687C912.448 18.586 912.5 18.0977 912.604 17.7039C912.712 17.31 912.863 16.9942 913.059 16.7566C913.254 16.5157 913.488 16.3432 913.762 16.239C914.038 16.1348 914.348 16.0828 914.689 16.0828C914.966 16.0828 915.22 16.1169 915.451 16.1853C915.686 16.2504 915.894 16.3562 916.076 16.5027C916.258 16.6459 916.413 16.838 916.54 17.0789C916.67 17.3165 916.77 17.6078 916.838 17.9529C916.906 18.2979 916.94 18.7032 916.94 19.1687ZM916.032 20.3992V19.0173C916.032 18.6983 916.013 18.4184 915.974 18.1775C915.938 17.9333 915.884 17.725 915.812 17.5525C915.741 17.38 915.65 17.24 915.539 17.1326C915.432 17.0251 915.306 16.947 915.163 16.8982C915.023 16.8461 914.865 16.8201 914.689 16.8201C914.475 16.8201 914.284 16.8608 914.118 16.9421C913.952 17.0203 913.812 17.1456 913.698 17.3181C913.588 17.4906 913.503 17.7169 913.444 17.9968C913.386 18.2768 913.356 18.6169 913.356 19.0173V20.3992C913.356 20.7182 913.374 20.9998 913.41 21.2439C913.449 21.488 913.506 21.6996 913.581 21.8787C913.656 22.0544 913.747 22.1993 913.854 22.3132C913.962 22.4272 914.086 22.5118 914.226 22.5671C914.369 22.6192 914.527 22.6453 914.699 22.6453C914.921 22.6453 915.114 22.6029 915.28 22.5183C915.446 22.4337 915.585 22.3018 915.695 22.1228C915.809 21.9405 915.894 21.7078 915.949 21.4246C916.005 21.1381 916.032 20.7963 916.032 20.3992Z" fill="#32375E"/>
</g>
</svg>
