<svg xmlns="http://www.w3.org/2000/svg" fill="none" viewBox="0 0 934 41"><rect width="934" height="40" y=".29" fill="#fff" rx="12"/><path fill="#FD802B" d="M20 14.29a7.336 7.336 0 0 1 7.212 6 7.336 7.336 0 0 1-14.425 0 7.336 7.336 0 0 1 7.213-6zm0 10.666a6.004 6.004 0 0 0 5.851-4.666 6.003 6.003 0 0 0-11.703 0A6.004 6.004 0 0 0 20 24.956zm0-1.666a3 3 0 1 1 0-6 3 3 0 0 1 0 6zm0-1.334a1.667 1.667 0 1 0 0-3.333 1.667 1.667 0 0 0 0 3.333z"/><path fill="#32375E" d="M45.054 19.169v1.084c0 .582-.052 1.074-.157 1.474-.104.4-.253.723-.449.967a1.71 1.71 0 0 1-.708.532 2.52 2.52 0 0 1-.928.162c-.273 0-.525-.035-.756-.103a1.795 1.795 0 0 1-.625-.327 1.984 1.984 0 0 1-.47-.596c-.13-.244-.229-.54-.297-.889a6.4 6.4 0 0 1-.102-1.22v-1.084c0-.583.052-1.071.156-1.465.107-.394.259-.71.454-.947.195-.241.43-.414.703-.518.277-.104.586-.156.928-.156.276 0 .53.034.762.102.234.065.442.171.625.318.182.143.336.335.463.576.13.238.23.529.298.874.069.345.103.75.103 1.216zm-.909 1.23v-1.382a5.3 5.3 0 0 0-.058-.84 2.639 2.639 0 0 0-.161-.625 1.236 1.236 0 0 0-.274-.42.964.964 0 0 0-.376-.234 1.35 1.35 0 0 0-.473-.078c-.215 0-.405.04-.572.122a1.028 1.028 0 0 0-.42.376c-.11.173-.195.399-.253.679-.059.28-.088.62-.088 1.02V20.4c0 .32.018.6.053.845.04.244.096.456.171.635.075.175.166.32.274.434.107.114.23.199.37.254.144.052.302.078.474.078.222 0 .416-.042.582-.127.166-.084.304-.216.415-.395a2.06 2.06 0 0 0 .254-.698c.055-.287.082-.629.082-1.026zm2.97 2.134h.092c.52 0 .944-.073 1.27-.22.325-.146.576-.343.752-.59a2.21 2.21 0 0 0 .36-.835c.066-.313.099-.634.099-.963v-1.088c0-.323-.038-.61-.113-.86a1.86 1.86 0 0 0-.303-.63 1.344 1.344 0 0 0-.434-.385 1.074 1.074 0 0 0-.518-.132c-.208 0-.395.042-.561.127a1.178 1.178 0 0 0-.415.346c-.11.15-.196.326-.254.528a2.356 2.356 0 0 0-.088.659c0 .212.026.417.078.615.052.199.132.378.24.537.107.16.24.287.4.381.163.091.353.137.571.137.202 0 .39-.04.566-.117a1.642 1.642 0 0 0 .952-1.352h.43c0 .27-.053.536-.16.8-.105.26-.252.498-.44.713-.19.215-.41.387-.664.517a1.83 1.83 0 0 1-.83.19 1.92 1.92 0 0 1-.914-.204 1.844 1.844 0 0 1-.634-.547 2.498 2.498 0 0 1-.367-.762 3.215 3.215 0 0 1-.117-.86c0-.338.047-.655.142-.951.094-.297.234-.557.42-.782.185-.227.415-.405.688-.532.277-.127.596-.19.957-.19.407 0 .754.081 1.04.244.287.163.52.38.699.654.182.274.315.581.4.923.085.342.127.693.127 1.055v.327c0 .368-.024.742-.073 1.123a4.48 4.48 0 0 1-.269 1.084c-.13.345-.32.654-.571.928-.25.27-.578.485-.982.644-.4.156-.895.235-1.484.235h-.093v-.767zm6.703-2.637v.742h-2.383v-.742h2.383zm3.653-3.086-2.354 6.48h-.962l2.71-7.11h.62l-.014.63zm1.972 6.48-2.358-6.48-.015-.63h.62l2.72 7.11h-.967zm-.122-2.632v.771h-3.994v-.771h3.994zm2.808-1.636v6.299h-.908v-7.314h.83l.078 1.015zm3.56 1.582v.103c0 .384-.046.74-.137 1.07a2.632 2.632 0 0 1-.4.849c-.173.24-.386.428-.64.561-.254.134-.545.2-.874.2a2.23 2.23 0 0 1-.889-.166 1.753 1.753 0 0 1-.654-.483 2.472 2.472 0 0 1-.43-.762 4.414 4.414 0 0 1-.215-1v-.547c.04-.391.112-.741.22-1.05.107-.31.249-.573.425-.791.179-.222.395-.39.65-.503.253-.117.546-.176.878-.176.332 0 .627.065.884.195.257.127.474.31.65.547.175.238.307.523.395.855.09.328.136.695.136 1.098zm-.909.103v-.103c0-.263-.027-.51-.083-.742a1.877 1.877 0 0 0-.258-.615 1.233 1.233 0 0 0-.44-.42 1.25 1.25 0 0 0-.64-.156 1.41 1.41 0 0 0-.595.117 1.29 1.29 0 0 0-.425.317c-.117.13-.213.28-.288.45a2.59 2.59 0 0 0-.161.517v1.265c.065.227.156.442.273.644.117.199.274.36.469.484.195.12.44.18.737.18.244 0 .454-.05.63-.151.18-.104.325-.246.44-.425.117-.179.203-.384.258-.615.056-.235.083-.483.083-.747zm2.964-1.87v4.453h-.903v-5.283h.879l.024.83zm1.65-.86-.004.84a2.289 2.289 0 0 0-.44-.039c-.208 0-.392.033-.552.098-.16.065-.294.156-.405.273-.11.117-.198.257-.263.42-.062.16-.103.335-.123.527l-.254.147c0-.32.031-.619.093-.898.065-.28.165-.528.298-.743.134-.218.303-.387.508-.508a1.427 1.427 0 0 1 .967-.16.668.668 0 0 1 .175.043zm2.715 1.92v.741h-2.382v-.742h2.382zm5.445 2.65v.743H72.9v-.65l2.33-2.592c.286-.32.507-.59.664-.81.16-.226.27-.426.332-.601a1.59 1.59 0 0 0 .097-.547c0-.235-.049-.446-.146-.635a1.098 1.098 0 0 0-.42-.46 1.264 1.264 0 0 0-.674-.17c-.316 0-.58.062-.791.186-.208.12-.365.29-.469.507a1.726 1.726 0 0 0-.156.752h-.903c0-.4.088-.766.263-1.098.176-.332.436-.596.782-.791.345-.199.77-.298 1.274-.298.45 0 .833.08 1.152.239.32.156.564.378.733.664.172.283.259.615.259.996 0 .209-.036.42-.108.635a3.218 3.218 0 0 1-.288.635c-.12.211-.262.42-.425.625a9.75 9.75 0 0 1-.512.605l-1.905 2.066h3.565zm5.625 0v.743h-4.654v-.65l2.33-2.592c.286-.32.507-.59.664-.81.16-.226.27-.426.332-.601a1.59 1.59 0 0 0 .097-.547c0-.235-.049-.446-.146-.635a1.098 1.098 0 0 0-.42-.46 1.264 1.264 0 0 0-.674-.17c-.316 0-.58.062-.791.186-.208.12-.365.29-.469.507a1.726 1.726 0 0 0-.156.752h-.903c0-.4.088-.766.263-1.098.176-.332.436-.596.782-.791.345-.199.77-.298 1.274-.298.45 0 .833.08 1.152.239.32.156.564.378.733.664.172.283.259.615.259.996 0 .209-.036.42-.108.635a3.218 3.218 0 0 1-.288.635c-.12.211-.262.42-.425.625a9.75 9.75 0 0 1-.512.605l-1.905 2.066h3.565zm7.91-3.378v1.084c0 .582-.052 1.074-.156 1.474-.105.4-.254.723-.45.967a1.71 1.71 0 0 1-.708.532 2.52 2.52 0 0 1-.927.162c-.274 0-.526-.035-.757-.103a1.797 1.797 0 0 1-.625-.327 1.984 1.984 0 0 1-.469-.596c-.13-.244-.23-.54-.298-.889a6.409 6.409 0 0 1-.102-1.22v-1.084c0-.583.052-1.071.156-1.465.107-.394.259-.71.454-.947.195-.241.43-.414.703-.518.277-.104.586-.156.928-.156.277 0 .53.034.762.102.234.065.442.171.625.318.182.143.337.335.464.576.13.238.229.529.297.874.069.345.103.75.103 1.216zm-.908 1.23v-1.382c0-.319-.02-.599-.059-.84a2.634 2.634 0 0 0-.161-.625 1.235 1.235 0 0 0-.273-.42.964.964 0 0 0-.377-.234 1.35 1.35 0 0 0-.473-.078c-.215 0-.405.04-.571.122a1.027 1.027 0 0 0-.42.376c-.111.173-.196.399-.254.679-.059.28-.088.62-.088 1.02V20.4c0 .32.018.6.054.845.039.244.096.456.17.635.075.175.166.32.274.434.107.114.231.199.371.254.143.052.301.078.474.078.221 0 .415-.042.58-.127.167-.084.305-.216.416-.395.114-.183.198-.415.254-.698.055-.287.083-.629.083-1.026zm6.552.967c0 .433-.1.8-.302 1.104-.199.299-.47.527-.81.683a2.708 2.708 0 0 1-1.148.235c-.427 0-.81-.079-1.153-.235a1.894 1.894 0 0 1-.81-.683c-.199-.303-.298-.671-.298-1.104 0-.283.054-.542.161-.776.11-.238.265-.445.464-.62.202-.176.44-.311.713-.406.276-.097.58-.146.913-.146.436 0 .825.084 1.167.254.342.166.61.395.806.688.198.293.297.628.297 1.006zm-.908-.02c0-.263-.057-.496-.17-.698a1.208 1.208 0 0 0-.48-.478 1.443 1.443 0 0 0-.712-.171c-.277 0-.516.057-.718.17a1.193 1.193 0 0 0-.464.48 1.43 1.43 0 0 0-.166.697c0 .274.054.508.161.704.111.192.267.34.47.444.204.1.447.151.727.151.28 0 .52-.05.722-.151.202-.104.357-.252.464-.444.11-.196.166-.43.166-.704zm.742-3.315c0 .345-.09.656-.273.933a1.899 1.899 0 0 1-.747.654 2.35 2.35 0 0 1-1.074.24c-.407 0-.77-.08-1.09-.24a1.862 1.862 0 0 1-.741-.654 1.68 1.68 0 0 1-.269-.933c0-.413.09-.765.269-1.055a1.78 1.78 0 0 1 .747-.664c.315-.153.675-.23 1.079-.23.407 0 .768.077 1.084.23.316.153.563.375.742.664.182.29.273.642.273 1.055zm-.903.015c0-.238-.05-.448-.151-.63a1.11 1.11 0 0 0-.42-.43 1.192 1.192 0 0 0-.625-.161c-.238 0-.446.05-.625.151a1.052 1.052 0 0 0-.415.42 1.358 1.358 0 0 0-.147.65c0 .244.05.457.147.64.1.182.24.323.42.424.179.101.387.152.625.152.237 0 .444-.051.62-.152.179-.1.319-.242.42-.425a1.3 1.3 0 0 0 .151-.64zm2.27 4.765c0-.153.048-.281.142-.386.098-.107.238-.16.42-.16s.32.053.415.16a.543.543 0 0 1 .147.386c0 .15-.05.277-.147.381-.094.104-.233.156-.415.156-.182 0-.322-.052-.42-.156a.547.547 0 0 1-.141-.38zm.005-4.311c0-.153.048-.282.142-.386.098-.107.238-.161.42-.161s.32.054.415.161a.543.543 0 0 1 .147.386c0 .15-.05.276-.147.38-.094.105-.233.157-.415.157-.182 0-.322-.052-.42-.156a.547.547 0 0 1-.142-.381zm7.164 2.397v.742h-5.137v-.532l3.183-4.927h.738l-.791 1.426-2.105 3.291h4.112zm-.992-4.717v7.11h-.903v-7.11h.903zm6.617 4.717v.742h-5.137v-.532l3.183-4.927h.738l-.791 1.426-2.105 3.291h4.112zm-.992-4.717v7.11h-.903v-7.11h.903z" opacity=".9"/><path fill="#3F7BDA" d="m192.733 19.906-.722-.185.356-3.54h3.648v.834h-2.881l-.215 1.934c.13-.075.295-.145.493-.21.202-.065.433-.098.693-.098.329 0 .624.057.884.171.261.11.482.27.664.479.186.208.327.459.425.752.098.293.147.62.147.981 0 .342-.048.656-.142.943a2.11 2.11 0 0 1-.415.752c-.186.211-.42.375-.703.493-.28.117-.611.175-.991.175-.287 0-.559-.039-.816-.117a2.088 2.088 0 0 1-.683-.366 1.981 1.981 0 0 1-.489-.615 2.494 2.494 0 0 1-.234-.87h.859c.039.268.118.492.235.674.117.183.27.321.459.416.192.09.415.136.669.136.214 0 .405-.037.571-.112.166-.075.306-.182.42-.322.114-.14.2-.31.259-.508.061-.199.092-.422.092-.67 0-.224-.031-.432-.092-.624a1.43 1.43 0 0 0-.279-.503 1.212 1.212 0 0 0-.444-.332 1.427 1.427 0 0 0-.605-.122c-.303 0-.533.04-.689.122a2.642 2.642 0 0 0-.474.332zm5.801-.615h.645c.315 0 .576-.052.781-.157.208-.107.363-.252.464-.434.104-.186.156-.394.156-.625 0-.273-.045-.503-.137-.688a.915.915 0 0 0-.41-.42c-.182-.095-.413-.142-.693-.142-.254 0-.479.05-.674.151a1.11 1.11 0 0 0-.454.42 1.241 1.241 0 0 0-.161.645h-.904c0-.362.092-.69.274-.987.182-.296.438-.532.767-.708a2.427 2.427 0 0 1 1.152-.263c.43 0 .806.076 1.128.23.322.149.573.374.752.673.179.296.268.666.268 1.108 0 .18-.042.372-.127.577-.081.201-.21.39-.385.566-.173.176-.398.32-.674.435-.277.11-.609.166-.996.166h-.772v-.547zm0 .742v-.542h.772c.452 0 .826.054 1.123.161.296.107.529.25.698.43.172.179.293.376.361.59a2.161 2.161 0 0 1-.063 1.519 1.808 1.808 0 0 1-.474.655 2.022 2.022 0 0 1-.713.405 2.804 2.804 0 0 1-.893.136c-.31 0-.601-.044-.874-.131a2.263 2.263 0 0 1-.718-.381 1.784 1.784 0 0 1-.488-.62 1.938 1.938 0 0 1-.176-.845h.903c0 .247.054.464.161.65.111.185.267.33.469.434.205.1.446.151.723.151.276 0 .514-.047.713-.141.201-.098.356-.245.463-.44.111-.195.167-.44.167-.737 0-.296-.062-.539-.186-.728a1.092 1.092 0 0 0-.527-.424 2.047 2.047 0 0 0-.796-.142h-.645zm5.205 2.5h.093c.521 0 .944-.073 1.27-.22.325-.146.576-.343.752-.59.175-.248.296-.526.361-.835.065-.313.097-.634.097-.963v-1.088a3 3 0 0 0-.112-.86 1.835 1.835 0 0 0-.303-.63 1.33 1.33 0 0 0-.434-.385 1.074 1.074 0 0 0-.518-.132c-.208 0-.395.042-.561.127a1.177 1.177 0 0 0-.415.346c-.111.15-.196.326-.254.528a2.342 2.342 0 0 0-.088.659c0 .212.026.417.078.615.052.199.132.378.239.537.108.16.241.287.401.381.162.091.353.137.571.137.202 0 .391-.04.566-.117a1.633 1.633 0 0 0 .806-.8c.085-.177.134-.36.147-.553h.429c0 .27-.053.537-.161.801-.104.26-.251.498-.439.713-.189.215-.41.387-.664.517a1.83 1.83 0 0 1-.83.19c-.352 0-.656-.068-.914-.204a1.843 1.843 0 0 1-.634-.547 2.512 2.512 0 0 1-.367-.762 3.223 3.223 0 0 1-.117-.86 3.1 3.1 0 0 1 .142-.951c.094-.297.234-.557.42-.782.185-.227.415-.405.688-.532.277-.127.596-.19.957-.19.407 0 .754.081 1.04.244.287.163.52.38.699.654.182.274.315.581.4.923.085.342.127.693.127 1.055v.327c0 .368-.024.742-.073 1.123a4.476 4.476 0 0 1-.269 1.084 2.84 2.84 0 0 1-.571.928c-.251.27-.578.485-.982.644-.4.156-.895.235-1.484.235h-.093v-.767zm6.045-3.242h.645c.315 0 .576-.052.781-.157.208-.107.363-.252.464-.434.104-.186.156-.394.156-.625 0-.273-.045-.503-.137-.688a.915.915 0 0 0-.41-.42c-.182-.095-.413-.142-.693-.142-.254 0-.479.05-.674.151a1.11 1.11 0 0 0-.454.42 1.241 1.241 0 0 0-.161.645h-.904c0-.362.092-.69.274-.987.182-.296.438-.532.767-.708a2.427 2.427 0 0 1 1.152-.263c.43 0 .806.076 1.128.23.322.149.573.374.752.673.179.296.268.666.268 1.108 0 .18-.042.372-.127.577-.081.201-.21.39-.385.566-.173.176-.398.32-.674.435-.277.11-.609.166-.996.166h-.772v-.547zm0 .742v-.542h.772c.452 0 .826.054 1.123.161.296.107.529.25.698.43.172.179.293.376.361.59a2.161 2.161 0 0 1-.063 1.519 1.808 1.808 0 0 1-.474.655 2.022 2.022 0 0 1-.713.405 2.804 2.804 0 0 1-.893.136c-.31 0-.601-.044-.874-.131a2.263 2.263 0 0 1-.718-.381 1.784 1.784 0 0 1-.488-.62 1.938 1.938 0 0 1-.176-.845h.903c0 .247.054.464.161.65.111.185.267.33.469.434.205.1.446.151.723.151.276 0 .514-.047.713-.141.201-.098.356-.245.463-.44.111-.195.167-.44.167-.737 0-.296-.062-.539-.186-.728a1.092 1.092 0 0 0-.527-.424 2.047 2.047 0 0 0-.796-.142h-.645z" opacity=".9"/><path fill="#32375E" d="M230.825 16.18h2.354c.534 0 .984.082 1.352.245.371.162.653.403.845.722.195.316.293.705.293 1.167 0 .326-.067.624-.2.894-.13.267-.319.495-.567.683a2.496 2.496 0 0 1-.879.415l-.263.103h-2.212l-.01-.767h1.67c.339 0 .62-.058.845-.175.224-.12.394-.282.508-.484.113-.202.17-.425.17-.669 0-.273-.053-.512-.161-.718a1.07 1.07 0 0 0-.508-.473c-.227-.114-.522-.171-.883-.171h-1.411v6.338h-.943v-7.11zm4.155 7.11-1.728-3.223.981-.005 1.753 3.17v.058h-1.006zm6.524-.767v.767h-3.765v-.767h3.765zm-3.574-6.343v7.11h-.943v-7.11h.943zm3.076 3.057v.767h-3.267v-.767h3.267zm.449-3.057v.772h-3.716v-.772h3.716zm5.508 4.85h.937c-.048.448-.177.85-.385 1.205a2.259 2.259 0 0 1-.884.845c-.381.205-.856.308-1.426.308-.417 0-.796-.079-1.138-.235a2.541 2.541 0 0 1-.874-.664 3.101 3.101 0 0 1-.566-1.04 4.446 4.446 0 0 1-.195-1.357v-.708c0-.498.065-.95.195-1.353.133-.407.324-.755.571-1.045.251-.29.552-.513.904-.669a2.89 2.89 0 0 1 1.186-.234c.537 0 .991.1 1.362.303.371.201.66.481.865.84.208.354.337.766.385 1.235h-.937a2.616 2.616 0 0 0-.254-.855 1.32 1.32 0 0 0-.527-.556c-.228-.13-.526-.196-.894-.196-.316 0-.594.06-.835.18-.238.121-.438.292-.6.514a2.39 2.39 0 0 0-.362.796c-.081.309-.122.652-.122 1.03v.718c0 .348.036.675.108.981.074.306.187.575.336.806.15.23.341.413.572.546.231.13.504.196.82.196.4 0 .719-.064.957-.19a1.24 1.24 0 0 0 .537-.547c.124-.238.212-.523.264-.855zm6.289-4.85h.937v4.81c0 .534-.118.978-.356 1.333a2.227 2.227 0 0 1-.947.8 3.073 3.073 0 0 1-1.275.264c-.481 0-.918-.087-1.308-.263a2.14 2.14 0 0 1-.923-.801c-.225-.355-.337-.8-.337-1.333v-4.81h.933v4.81c0 .371.068.677.205.918.136.24.327.42.571.537.247.117.534.176.859.176.329 0 .616-.059.86-.176a1.28 1.28 0 0 0 .576-.537c.137-.24.205-.547.205-.918v-4.81zm7.886 0v7.11h-.948l-3.579-5.484v5.484h-.942v-7.11h.942l3.594 5.498V16.18h.933zm5.459 5.313c0-.166-.026-.313-.078-.44a.84.84 0 0 0-.264-.351 2.065 2.065 0 0 0-.518-.298 7.153 7.153 0 0 0-.83-.288 7.667 7.667 0 0 1-.952-.347 3.308 3.308 0 0 1-.727-.444 1.747 1.747 0 0 1-.464-.571 1.62 1.62 0 0 1-.161-.738c0-.276.057-.532.17-.766.114-.235.277-.438.489-.61.215-.176.47-.313.766-.41.297-.098.627-.147.992-.147.533 0 .986.102 1.357.307.374.202.659.468.854.796.196.326.293.674.293 1.045h-.937c0-.267-.057-.503-.171-.708a1.174 1.174 0 0 0-.518-.488c-.231-.12-.524-.18-.878-.18-.336 0-.612.05-.831.15a1.1 1.1 0 0 0-.488.41c-.104.173-.156.37-.156.592 0 .15.031.286.093.41.065.12.164.232.298.337.136.104.309.2.517.288.212.088.464.172.757.254.404.114.752.24 1.045.38.293.14.534.298.723.474.192.173.333.37.424.591.095.218.142.465.142.742 0 .29-.059.552-.176.786a1.708 1.708 0 0 1-.503.6c-.218.167-.48.296-.786.387a3.64 3.64 0 0 1-1.016.131c-.328 0-.652-.045-.971-.136a2.885 2.885 0 0 1-.864-.41 2.15 2.15 0 0 1-.621-.674 1.869 1.869 0 0 1-.229-.938h.937c0 .244.048.454.142.63.094.173.223.316.386.43.166.114.353.198.561.254.212.052.432.078.659.078.329 0 .608-.046.835-.137.228-.091.401-.221.518-.39.12-.17.181-.37.181-.601zm3.891-1.597v.742h-2.383v-.742h2.383zm5.269 1.47c0 .433-.101.8-.303 1.104-.198.299-.469.527-.81.683a2.71 2.71 0 0 1-1.148.235c-.426 0-.81-.079-1.152-.235a1.897 1.897 0 0 1-.811-.683c-.198-.303-.298-.671-.298-1.104 0-.283.054-.542.161-.776.111-.238.266-.445.464-.62.202-.176.44-.311.713-.406a2.73 2.73 0 0 1 .913-.146c.437 0 .826.084 1.167.254.342.166.611.395.806.688.199.293.298.628.298 1.006zm-.908-.02c0-.263-.057-.496-.171-.698a1.21 1.21 0 0 0-.479-.478 1.441 1.441 0 0 0-.713-.171c-.276 0-.516.057-.717.17a1.186 1.186 0 0 0-.464.48 1.425 1.425 0 0 0-.166.697c0 .274.053.508.161.704.11.192.267.34.469.444.205.1.447.151.727.151.28 0 .521-.05.723-.151.202-.104.356-.252.464-.444.11-.196.166-.43.166-.704zm.742-3.315c0 .345-.091.656-.274.933a1.895 1.895 0 0 1-.747.654c-.315.16-.674.24-1.074.24-.407 0-.77-.08-1.089-.24a1.86 1.86 0 0 1-.742-.654 1.68 1.68 0 0 1-.269-.933c0-.413.09-.765.269-1.055.182-.29.431-.51.747-.664.316-.153.676-.23 1.079-.23.407 0 .768.077 1.084.23.316.153.563.375.742.664.183.29.274.642.274 1.055zm-.903.015c0-.238-.051-.448-.152-.63a1.111 1.111 0 0 0-.42-.43 1.19 1.19 0 0 0-.625-.161c-.237 0-.446.05-.625.151a1.05 1.05 0 0 0-.415.42 1.364 1.364 0 0 0-.146.65c0 .244.049.457.146.64.101.182.241.323.42.424.179.101.387.152.625.152s.444-.051.62-.152c.179-.1.319-.242.42-.425.101-.182.152-.395.152-.64zm5.18-1.905v7.149h-.903v-6.02l-1.821.663v-.815l2.583-.977h.141z" opacity=".9"/><path fill="#F0F5F9" d="M327 14.29a6 6 0 0 1 6-6h12a6 6 0 0 1 6 6v12a6 6 0 0 1-6 6h-12a6 6 0 0 1-6-6v-12z"/><path fill="#32375E" d="M335.719 22.79h-1.188l.008-.613h1.18c.406 0 .745-.085 1.015-.254a1.59 1.59 0 0 0 .61-.72 2.65 2.65 0 0 0 .207-1.085v-.348a2.94 2.94 0 0 0-.117-.867 1.77 1.77 0 0 0-.344-.644 1.451 1.451 0 0 0-.555-.403 1.907 1.907 0 0 0-.746-.137h-1.281v-.617h1.281c.372 0 .712.063 1.02.188.307.122.571.3.793.535.224.232.395.513.515.844.12.328.18.698.18 1.11v.339c0 .411-.06.783-.18 1.113a2.267 2.267 0 0 1-1.332 1.375c-.315.123-.67.184-1.066.184zm-.785-5.688v5.688h-.754v-5.688h.754zm8.211 2.446v.613h-3.079v-.613h3.079zm-2.961-2.446v5.688h-.754v-5.688h.754zm3.617 0v5.688h-.75v-5.688h.75zM362.457 16.81l-2.353 6.48h-.962l2.71-7.11h.62l-.015.63zm1.973 6.48-2.359-6.48-.014-.63h.62l2.719 7.11h-.966zm-.122-2.632v.771h-3.995v-.771h3.995zm2.885-4.868v7.5h-.908v-7.5h.908zm2.798 7.5h-.903v-5.84c0-.38.068-.701.205-.962.14-.264.34-.462.601-.596.26-.136.569-.205.927-.205a2.53 2.53 0 0 1 .625.078l-.049.738a1.478 1.478 0 0 0-.234-.035 3.317 3.317 0 0 0-.254-.01c-.192 0-.358.04-.498.118a.73.73 0 0 0-.312.332 1.222 1.222 0 0 0-.108.542v5.84zm1.123-5.283v.693h-2.861v-.693h2.861zm1.909.83v4.453h-.903v-5.283h.879l.024.83zm1.651-.86-.005.84a2.29 2.29 0 0 0-.44-.039c-.208 0-.392.033-.551.098-.16.065-.295.156-.406.273-.11.117-.198.257-.263.42-.062.16-.103.335-.122.527l-.254.147c0-.32.031-.619.093-.898.065-.28.164-.528.297-.743.134-.218.303-.387.508-.508a1.43 1.43 0 0 1 .967-.16.672.672 0 0 1 .176.043zm2.93 5.41c-.368 0-.702-.061-1.001-.185a2.265 2.265 0 0 1-.767-.532 2.362 2.362 0 0 1-.488-.81 2.971 2.971 0 0 1-.171-1.026v-.205c0-.43.063-.813.19-1.148.127-.338.3-.625.518-.86.218-.233.465-.411.742-.531.277-.12.563-.181.859-.181.378 0 .703.065.977.195.277.13.503.313.679.547.175.231.306.505.39.82a3.9 3.9 0 0 1 .127 1.026v.405h-3.945v-.737h3.042v-.069a2.243 2.243 0 0 0-.147-.683 1.225 1.225 0 0 0-.39-.547c-.179-.143-.423-.215-.733-.215a1.227 1.227 0 0 0-1.01.513c-.124.17-.22.376-.288.62a3.118 3.118 0 0 0-.103.845v.205c0 .25.034.486.103.708.071.218.174.41.307.576.137.166.301.296.493.39.196.095.417.142.664.142.319 0 .59-.065.811-.195a2.01 2.01 0 0 0 .581-.523l.547.435a2.522 2.522 0 0 1-.435.493 2.076 2.076 0 0 1-.649.381 2.515 2.515 0 0 1-.903.146zm6.44-1.123V15.79h.908v7.5h-.83l-.078-1.026zm-3.555-1.557v-.103c0-.403.049-.77.147-1.098.101-.332.242-.617.425-.855a1.872 1.872 0 0 1 1.518-.742c.332 0 .622.059.869.176.251.114.462.281.635.503.176.218.314.481.415.79.101.31.171.66.21 1.05v.45a4.62 4.62 0 0 1-.21 1.045c-.101.309-.239.573-.415.79a1.74 1.74 0 0 1-.635.504c-.25.114-.543.17-.879.17-.309 0-.592-.066-.849-.2a1.999 1.999 0 0 1-.659-.561 2.724 2.724 0 0 1-.425-.85 3.729 3.729 0 0 1-.147-1.07zm.908-.103v.103c0 .264.027.51.079.742.055.231.14.434.253.61.114.176.259.314.435.415.176.098.386.147.63.147.299 0 .545-.064.737-.19.196-.128.352-.295.469-.504.117-.208.208-.434.273-.678v-1.177a2.661 2.661 0 0 0-.17-.518 1.587 1.587 0 0 0-.284-.449 1.226 1.226 0 0 0-.424-.317 1.377 1.377 0 0 0-.591-.117 1.25 1.25 0 0 0-.64.156c-.176.1-.321.24-.435.42-.113.176-.198.38-.253.615a3.374 3.374 0 0 0-.079.742zm10.201-.102h-1.9v-.767h1.9c.367 0 .665-.058.893-.176.228-.117.394-.28.498-.488.108-.208.161-.446.161-.713a1.51 1.51 0 0 0-.161-.688 1.188 1.188 0 0 0-.498-.518c-.228-.133-.526-.2-.893-.2h-1.68v6.338h-.942v-7.11h2.622c.537 0 .991.093 1.362.279.371.185.653.442.845.771.192.326.288.698.288 1.118 0 .456-.096.845-.288 1.167a1.843 1.843 0 0 1-.845.738c-.371.166-.825.249-1.362.249zm6.606 1.885v-2.72c0-.209-.042-.39-.127-.542a.829.829 0 0 0-.371-.362 1.345 1.345 0 0 0-.615-.127c-.228 0-.428.04-.601.118-.169.078-.302.18-.4.307a.67.67 0 0 0-.142.41h-.903c0-.188.049-.375.146-.561.098-.186.238-.353.42-.503.186-.153.407-.273.664-.361.261-.091.551-.137.87-.137.384 0 .722.065 1.015.195.296.13.528.327.694.591.169.26.253.588.253.982v2.46c0 .176.015.363.044.562.033.198.08.37.142.513v.078h-.942a1.665 1.665 0 0 1-.108-.415 3.353 3.353 0 0 1-.039-.488zm.156-2.3.01.634h-.913c-.257 0-.487.022-.688.064-.202.039-.372.1-.508.18a.861.861 0 0 0-.313.308.821.821 0 0 0-.107.425c0 .166.037.317.112.454a.816.816 0 0 0 .337.327c.153.078.34.117.562.117.276 0 .52-.058.732-.175.212-.117.379-.26.503-.43a.926.926 0 0 0 .205-.493l.386.434a1.316 1.316 0 0 1-.186.455 2.18 2.18 0 0 1-1.001.854 1.941 1.941 0 0 1-.771.146c-.358 0-.672-.07-.943-.21a1.613 1.613 0 0 1-.625-.561 1.49 1.49 0 0 1-.219-.796c0-.283.055-.532.166-.747.11-.218.27-.399.478-.542.208-.146.459-.257.752-.332.293-.075.62-.112.982-.112h1.049zm3.15-4.297v7.5h-.908v-7.5h.908zm2.348 3.266v4.234h-.908v-5.283h.86l.048 1.05zm-.185 1.392-.42-.015c.003-.361.05-.695.142-1 .091-.31.226-.578.405-.806a1.8 1.8 0 0 1 .669-.528c.267-.127.576-.19.927-.19.248 0 .476.036.684.107.208.069.389.178.542.328.153.15.272.341.357.576.084.234.126.517.126.85v3.52h-.903v-3.477c0-.276-.047-.498-.141-.664a.815.815 0 0 0-.391-.361 1.41 1.41 0 0 0-.596-.117c-.267 0-.49.047-.669.141a1.125 1.125 0 0 0-.429.39 1.751 1.751 0 0 0-.235.572 3.233 3.233 0 0 0-.068.674zm3.423-.498-.606.186c.003-.29.051-.569.142-.835.094-.267.229-.505.405-.713.179-.209.399-.373.659-.494.261-.123.559-.185.894-.185.283 0 .534.037.752.112.221.075.407.19.556.347.153.153.269.35.347.59.078.242.117.528.117.86v3.472h-.908v-3.482c0-.296-.047-.525-.142-.688a.737.737 0 0 0-.39-.347 1.563 1.563 0 0 0-.596-.102 1.28 1.28 0 0 0-.527.102 1.09 1.09 0 0 0-.386.283 1.233 1.233 0 0 0-.239.406 1.507 1.507 0 0 0-.078.488zm6.826 3.438c-.368 0-.702-.062-1.001-.186a2.275 2.275 0 0 1-.767-.532 2.378 2.378 0 0 1-.488-.81 2.971 2.971 0 0 1-.171-1.026v-.205c0-.43.064-.813.191-1.148.126-.338.299-.625.517-.86.218-.233.466-.411.742-.531.277-.12.563-.181.86-.181.377 0 .703.065.976.195.277.13.503.313.679.547.176.231.306.505.391.82.084.313.127.655.127 1.026v.405h-3.946v-.737h3.042v-.069a2.272 2.272 0 0 0-.146-.683 1.235 1.235 0 0 0-.391-.547c-.179-.143-.423-.215-.732-.215a1.234 1.234 0 0 0-1.011.513c-.124.17-.22.376-.288.62a3.158 3.158 0 0 0-.103.845v.205c0 .25.035.486.103.708.071.218.174.41.307.576.137.166.302.296.494.39.195.095.416.142.664.142.319 0 .589-.065.81-.195.222-.13.415-.304.581-.523l.547.435a2.549 2.549 0 0 1-.434.493 2.081 2.081 0 0 1-.65.381 2.515 2.515 0 0 1-.903.146zm4.014-4.551v4.453h-.904v-5.283h.879l.025.83zm1.65-.86-.005.84a2.283 2.283 0 0 0-.439-.039c-.209 0-.393.033-.552.098-.16.065-.295.156-.405.273a1.309 1.309 0 0 0-.264.42c-.062.16-.103.335-.122.527l-.254.147c0-.32.031-.619.093-.898.065-.28.164-.528.298-.743.133-.218.302-.387.507-.508a1.43 1.43 0 0 1 .967-.16.672.672 0 0 1 .176.043z"/><path fill="#32375E" d="M512.123 16.18h.913l2.329 5.796 2.324-5.796h.918l-2.89 7.11h-.713l-2.881-7.11zm-.298 0h.806l.132 4.336v2.774h-.938v-7.11zm6.27 0h.805v7.11h-.937v-2.774l.132-4.336zm4.516 7.207a2.6 2.6 0 0 1-1.001-.185 2.27 2.27 0 0 1-.766-.532 2.364 2.364 0 0 1-.489-.81 2.995 2.995 0 0 1-.17-1.026v-.205c0-.43.063-.813.19-1.148.127-.338.299-.625.518-.86.218-.233.465-.411.742-.531.276-.12.563-.181.859-.181.378 0 .703.065.977.195.276.13.503.313.678.547.176.231.306.505.391.82a3.9 3.9 0 0 1 .127 1.026v.405h-3.945v-.737h3.042v-.069a2.243 2.243 0 0 0-.147-.683 1.225 1.225 0 0 0-.39-.547c-.179-.143-.424-.215-.733-.215a1.227 1.227 0 0 0-1.011.513c-.123.17-.219.376-.288.62a3.16 3.16 0 0 0-.102.845v.205c0 .25.034.486.102.708.072.218.174.41.308.576.137.166.301.296.493.39.195.095.417.142.664.142.319 0 .589-.065.811-.195a2.01 2.01 0 0 0 .581-.523l.547.435a2.522 2.522 0 0 1-.435.493 2.076 2.076 0 0 1-.649.381 2.517 2.517 0 0 1-.904.146zm5.323-5.38v.693h-2.857v-.693h2.857zm-1.89-1.285h.903v5.26c0 .178.028.313.083.405a.4.4 0 0 0 .215.18c.088.03.182.044.283.044.075 0 .153-.006.235-.02.084-.016.148-.029.19-.039l.005.738a2.137 2.137 0 0 1-.283.063 2.15 2.15 0 0 1-.415.034 1.41 1.41 0 0 1-.611-.131.986.986 0 0 1-.444-.44c-.107-.208-.161-.488-.161-.84v-5.254zm5.142 6.665c-.368 0-.702-.061-1.001-.185a2.265 2.265 0 0 1-.767-.532 2.362 2.362 0 0 1-.488-.81 2.971 2.971 0 0 1-.171-1.026v-.205c0-.43.063-.813.19-1.148.127-.338.3-.625.518-.86.218-.233.465-.411.742-.531.277-.12.563-.181.859-.181.378 0 .703.065.977.195.277.13.503.313.679.547.175.231.306.505.39.82a3.9 3.9 0 0 1 .127 1.026v.405h-3.945v-.737h3.042v-.069a2.243 2.243 0 0 0-.147-.683 1.225 1.225 0 0 0-.39-.547c-.179-.143-.423-.215-.733-.215a1.227 1.227 0 0 0-1.01.513c-.124.17-.22.376-.288.62a3.118 3.118 0 0 0-.103.845v.205c0 .25.034.486.103.708.071.218.174.41.307.576.137.166.301.296.493.39.196.095.417.142.664.142.319 0 .59-.065.811-.195a2.01 2.01 0 0 0 .581-.523l.547.435a2.522 2.522 0 0 1-.435.493 2.076 2.076 0 0 1-.649.381 2.515 2.515 0 0 1-.903.146zm4.013-4.55v4.453h-.903v-5.283h.879l.024.83zm1.651-.86-.005.84a2.29 2.29 0 0 0-.44-.039c-.208 0-.392.033-.551.098-.16.065-.295.156-.406.273-.11.117-.198.257-.263.42-.062.16-.103.335-.123.527l-.253.147c0-.32.031-.619.092-.898.065-.28.165-.528.298-.743.134-.218.303-.387.508-.508a1.427 1.427 0 0 1 .967-.16.683.683 0 0 1 .176.043zm2.929 5.41a2.6 2.6 0 0 1-1.001-.185 2.27 2.27 0 0 1-.766-.532 2.364 2.364 0 0 1-.489-.81 2.995 2.995 0 0 1-.17-1.026v-.205c0-.43.063-.813.19-1.148.127-.338.299-.625.518-.86.218-.233.465-.411.742-.531.276-.12.563-.181.859-.181.378 0 .703.065.977.195.276.13.503.313.678.547.176.231.306.505.391.82a3.9 3.9 0 0 1 .127 1.026v.405h-3.945v-.737h3.042v-.069a2.243 2.243 0 0 0-.147-.683 1.225 1.225 0 0 0-.39-.547c-.18-.143-.424-.215-.733-.215a1.227 1.227 0 0 0-1.011.513c-.123.17-.219.376-.288.62a3.16 3.16 0 0 0-.102.845v.205c0 .25.034.486.102.708.072.218.174.41.308.576.137.166.301.296.493.39.195.095.417.142.664.142.319 0 .589-.065.811-.195a2.01 2.01 0 0 0 .581-.523l.547.435a2.522 2.522 0 0 1-.435.493 2.076 2.076 0 0 1-.649.381 2.517 2.517 0 0 1-.904.146zm6.441-1.123V15.79h.908v7.5h-.83l-.078-1.026zm-3.555-1.557v-.103c0-.403.049-.77.147-1.098.1-.332.242-.617.424-.855a1.872 1.872 0 0 1 1.519-.742c.332 0 .622.059.869.176.251.114.462.281.635.503.176.218.314.481.415.79.101.31.171.66.21 1.05v.45a4.62 4.62 0 0 1-.21 1.045c-.101.309-.239.573-.415.79a1.74 1.74 0 0 1-.635.504 2.11 2.11 0 0 1-.879.17c-.309 0-.592-.066-.849-.2a2.012 2.012 0 0 1-.66-.561 2.722 2.722 0 0 1-.424-.85 3.729 3.729 0 0 1-.147-1.07zm.908-.103v.103c0 .264.026.51.078.742.056.231.14.434.254.61.114.176.259.314.435.415.176.098.386.147.63.147.299 0 .545-.064.737-.19.195-.128.352-.295.469-.504.117-.208.208-.434.273-.678v-1.177a2.598 2.598 0 0 0-.171-.518 1.585 1.585 0 0 0-.283-.449 1.22 1.22 0 0 0-.425-.317 1.377 1.377 0 0 0-.591-.117c-.247 0-.46.052-.639.156-.176.1-.321.24-.435.42-.114.176-.198.38-.254.615a3.376 3.376 0 0 0-.078.742zM684.249 22.548v.742h-4.653v-.65l2.329-2.592c.286-.32.508-.59.664-.81.159-.226.27-.426.332-.601.065-.18.098-.362.098-.547 0-.235-.049-.446-.147-.635a1.093 1.093 0 0 0-.42-.46 1.262 1.262 0 0 0-.674-.17c-.315 0-.579.062-.791.186a1.14 1.14 0 0 0-.468.507 1.714 1.714 0 0 0-.157.752h-.903c0-.4.088-.766.264-1.098.175-.332.436-.596.781-.791.345-.199.77-.298 1.274-.298.45 0 .834.08 1.153.239.319.156.563.378.732.664.173.283.259.615.259.996 0 .209-.036.42-.108.635a3.184 3.184 0 0 1-.288.635c-.12.211-.262.42-.424.625-.16.205-.331.407-.513.605l-1.904 2.066h3.564zm2.109-2.642-.722-.185.356-3.54h3.648v.834h-2.881l-.215 1.934c.13-.075.295-.145.493-.21.202-.065.433-.098.693-.098.329 0 .624.057.884.171.261.11.482.27.664.479.186.208.327.459.425.752.098.293.147.62.147.981 0 .342-.048.656-.142.943a2.11 2.11 0 0 1-.415.752c-.186.211-.42.375-.703.493-.28.117-.611.175-.991.175-.287 0-.559-.039-.816-.117a2.088 2.088 0 0 1-.683-.366 1.981 1.981 0 0 1-.489-.615 2.494 2.494 0 0 1-.234-.87h.859c.039.268.118.492.235.674.117.183.27.321.459.416.192.09.415.136.669.136.214 0 .405-.037.571-.112.166-.075.306-.182.42-.322.114-.14.2-.31.259-.508.061-.199.092-.422.092-.67 0-.224-.031-.432-.092-.624a1.43 1.43 0 0 0-.279-.503 1.212 1.212 0 0 0-.444-.332 1.427 1.427 0 0 0-.605-.122c-.303 0-.533.04-.689.122a2.642 2.642 0 0 0-.474.332zm4.595 2.905c0-.153.047-.281.142-.386.097-.107.237-.16.42-.16.182 0 .32.053.415.16a.545.545 0 0 1 .146.386c0 .15-.049.277-.146.381-.095.104-.233.156-.415.156-.183 0-.323-.052-.42-.156a.544.544 0 0 1-.142-.38zm6.987-3.642v1.084c0 .582-.052 1.074-.156 1.474-.104.4-.254.723-.449.967a1.706 1.706 0 0 1-.708.532 2.521 2.521 0 0 1-.928.162c-.273 0-.525-.035-.757-.103a1.801 1.801 0 0 1-.625-.327 1.984 1.984 0 0 1-.468-.596 3.16 3.16 0 0 1-.298-.889 6.35 6.35 0 0 1-.103-1.22v-1.084c0-.583.052-1.071.156-1.465.108-.394.259-.71.455-.947.195-.241.429-.414.703-.518.276-.104.586-.156.927-.156.277 0 .531.034.762.102a1.714 1.714 0 0 1 1.089.894c.13.238.23.529.298.874.068.345.102.75.102 1.216zm-.908 1.23v-1.382c0-.319-.019-.599-.058-.84a2.627 2.627 0 0 0-.162-.625 1.222 1.222 0 0 0-.273-.42.963.963 0 0 0-.376-.234 1.352 1.352 0 0 0-.474-.078c-.214 0-.405.04-.571.122a1.028 1.028 0 0 0-.42.376 2.05 2.05 0 0 0-.254.679 5.11 5.11 0 0 0-.088 1.02V20.4c0 .32.018.6.054.845.039.244.096.456.171.635.075.175.166.32.273.434.108.114.232.199.372.254.143.052.301.078.473.078.222 0 .415-.042.581-.127.166-.084.305-.216.415-.395.114-.183.199-.415.254-.698.056-.287.083-.629.083-1.026zm6.533-1.23v1.084c0 .582-.052 1.074-.156 1.474-.104.4-.254.723-.449.967a1.706 1.706 0 0 1-.708.532 2.521 2.521 0 0 1-.928.162c-.273 0-.525-.035-.757-.103a1.801 1.801 0 0 1-.625-.327 1.984 1.984 0 0 1-.468-.596 3.16 3.16 0 0 1-.298-.889 6.35 6.35 0 0 1-.103-1.22v-1.084c0-.583.052-1.071.156-1.465.108-.394.259-.71.455-.947.195-.241.429-.414.703-.518.276-.104.586-.156.927-.156.277 0 .531.034.762.102a1.714 1.714 0 0 1 1.089.894c.13.238.23.529.298.874.068.345.102.75.102 1.216zm-.908 1.23v-1.382c0-.319-.019-.599-.058-.84a2.678 2.678 0 0 0-.161-.625 1.238 1.238 0 0 0-.274-.42.963.963 0 0 0-.376-.234 1.352 1.352 0 0 0-.474-.078c-.214 0-.405.04-.571.122a1.028 1.028 0 0 0-.42.376 2.05 2.05 0 0 0-.254.679 5.11 5.11 0 0 0-.088 1.02V20.4c0 .32.018.6.054.845.039.244.096.456.171.635.075.175.166.32.273.434.108.114.232.199.372.254.143.052.301.078.473.078.222 0 .415-.042.581-.127.166-.084.305-.216.415-.395.114-.183.199-.415.254-.698.056-.287.083-.629.083-1.026zM725.893 16.18h.937v4.81c0 .534-.119.978-.356 1.333a2.23 2.23 0 0 1-.948.8c-.39.177-.815.264-1.274.264-.482 0-.918-.087-1.309-.263a2.137 2.137 0 0 1-.922-.801c-.225-.355-.337-.8-.337-1.333v-4.81h.932v4.81c0 .371.069.677.205.918.137.24.327.42.572.537.247.117.533.176.859.176.329 0 .615-.059.859-.176.248-.117.44-.296.577-.537.136-.24.205-.547.205-.918v-4.81zm6.206 5.313c0-.166-.026-.313-.078-.44a.84.84 0 0 0-.264-.351 2.065 2.065 0 0 0-.518-.298 7.22 7.22 0 0 0-.83-.288 7.667 7.667 0 0 1-.952-.347 3.34 3.34 0 0 1-.728-.444 1.757 1.757 0 0 1-.463-.571 1.62 1.62 0 0 1-.162-.738 1.729 1.729 0 0 1 .66-1.377c.215-.175.47-.312.766-.41.296-.097.627-.146.991-.146.534 0 .987.102 1.358.307.374.202.659.468.854.796.196.326.293.674.293 1.045h-.937c0-.267-.057-.503-.171-.708a1.174 1.174 0 0 0-.518-.488c-.231-.12-.524-.18-.879-.18-.335 0-.611.05-.83.15a1.1 1.1 0 0 0-.488.41c-.104.173-.156.37-.156.592 0 .15.031.286.093.41.065.12.164.232.298.337.136.104.309.2.517.288.212.088.464.172.757.254.404.114.752.24 1.045.38.293.14.534.298.722.474.193.173.334.37.425.591.095.218.142.465.142.742 0 .29-.059.552-.176.786a1.708 1.708 0 0 1-.503.6c-.218.167-.48.296-.786.387a3.64 3.64 0 0 1-1.016.131c-.328 0-.652-.045-.971-.136a2.902 2.902 0 0 1-.865-.41 2.16 2.16 0 0 1-.62-.674 1.869 1.869 0 0 1-.229-.938h.937c0 .244.048.454.142.63.094.173.223.316.386.43.166.114.353.198.561.254.212.052.432.078.659.078.329 0 .608-.046.835-.137.228-.091.401-.221.518-.39.12-.17.181-.37.181-.601zm4.072 1.797h-1.484l.009-.767h1.475c.508 0 .931-.106 1.269-.317.339-.215.593-.514.762-.899.173-.387.259-.84.259-1.357v-.435c0-.407-.049-.768-.147-1.084a2.18 2.18 0 0 0-.429-.805 1.815 1.815 0 0 0-.694-.503 2.382 2.382 0 0 0-.932-.171h-1.602v-.772h1.602c.465 0 .89.079 1.274.235.384.153.715.376.991.669.28.29.495.641.645 1.054.15.41.225.873.225 1.387v.425c0 .514-.075.978-.225 1.392a2.837 2.837 0 0 1-1.665 1.719c-.394.152-.838.229-1.333.229zm-.982-7.11v7.11h-.942v-7.11h.942zM815.56 16.141v7.149h-.904v-6.02l-1.821.663v-.815l2.583-.977h.142zm5.898.04-2.964 7.72h-.776l2.969-7.72h.771zm2.866 3.715v.742h-2.383v-.742h2.383zm2.764 0v.742h-2.383v-.742h2.383zM897.249 22.548v.742h-4.653v-.65l2.329-2.592c.286-.32.508-.59.664-.81.159-.226.27-.426.332-.601.065-.18.098-.362.098-.547 0-.235-.049-.446-.147-.635a1.093 1.093 0 0 0-.42-.46 1.262 1.262 0 0 0-.674-.17c-.315 0-.579.062-.791.186a1.14 1.14 0 0 0-.468.507 1.714 1.714 0 0 0-.157.752h-.903c0-.4.088-.766.264-1.098.175-.332.436-.596.781-.791.345-.199.77-.298 1.274-.298.45 0 .834.08 1.153.239.319.156.563.378.732.664.173.283.259.615.259.996 0 .209-.036.42-.108.635a3.184 3.184 0 0 1-.288.635c-.12.211-.262.42-.424.625-.16.205-.331.407-.513.605l-1.904 2.066h3.564zm2.109-2.642-.722-.185.356-3.54h3.648v.834h-2.881l-.215 1.934c.13-.075.295-.145.493-.21.202-.065.433-.098.693-.098.329 0 .624.057.884.171.261.11.482.27.664.479.186.208.327.459.425.752.098.293.147.62.147.981 0 .342-.048.656-.142.943a2.11 2.11 0 0 1-.415.752c-.186.211-.42.375-.703.493-.28.117-.611.175-.991.175-.287 0-.559-.039-.816-.117a2.088 2.088 0 0 1-.683-.366 1.981 1.981 0 0 1-.489-.615 2.494 2.494 0 0 1-.234-.87h.859c.039.268.118.492.235.674.117.183.27.321.459.416.192.09.415.136.669.136.214 0 .405-.037.571-.112.166-.075.306-.182.42-.322.114-.14.2-.31.259-.508.061-.199.092-.422.092-.67 0-.224-.031-.432-.092-.624a1.43 1.43 0 0 0-.279-.503 1.212 1.212 0 0 0-.444-.332 1.427 1.427 0 0 0-.605-.122c-.303 0-.533.04-.689.122a2.642 2.642 0 0 0-.474.332zm4.595 2.905c0-.153.047-.281.142-.386.097-.107.237-.16.42-.16.182 0 .32.053.415.16a.545.545 0 0 1 .146.386c0 .15-.049.277-.146.381-.095.104-.233.156-.415.156-.183 0-.323-.052-.42-.156a.544.544 0 0 1-.142-.38zm6.987-3.642v1.084c0 .582-.052 1.074-.156 1.474-.104.4-.254.723-.449.967a1.706 1.706 0 0 1-.708.532 2.521 2.521 0 0 1-.928.162c-.273 0-.525-.035-.757-.103a1.801 1.801 0 0 1-.625-.327 1.984 1.984 0 0 1-.468-.596 3.16 3.16 0 0 1-.298-.889 6.35 6.35 0 0 1-.103-1.22v-1.084c0-.583.052-1.071.156-1.465.108-.394.259-.71.455-.947.195-.241.429-.414.703-.518.276-.104.586-.156.927-.156.277 0 .531.034.762.102a1.714 1.714 0 0 1 1.089.894c.13.238.23.529.298.874.068.345.102.75.102 1.216zm-.908 1.23v-1.382c0-.319-.019-.599-.058-.84a2.627 2.627 0 0 0-.162-.625 1.222 1.222 0 0 0-.273-.42.963.963 0 0 0-.376-.234 1.352 1.352 0 0 0-.474-.078c-.214 0-.405.04-.571.122a1.028 1.028 0 0 0-.42.376 2.05 2.05 0 0 0-.254.679 5.11 5.11 0 0 0-.088 1.02V20.4c0 .32.018.6.054.845.039.244.096.456.171.635.075.175.166.32.273.434.108.114.232.199.372.254.143.052.301.078.473.078.222 0 .415-.042.581-.127.166-.084.305-.216.415-.395.114-.183.199-.415.254-.698.056-.287.083-.629.083-1.026zm6.533-1.23v1.084c0 .582-.052 1.074-.156 1.474-.104.4-.254.723-.449.967a1.706 1.706 0 0 1-.708.532 2.521 2.521 0 0 1-.928.162c-.273 0-.525-.035-.757-.103a1.801 1.801 0 0 1-.625-.327 1.984 1.984 0 0 1-.468-.596 3.16 3.16 0 0 1-.298-.889 6.35 6.35 0 0 1-.103-1.22v-1.084c0-.583.052-1.071.156-1.465.108-.394.259-.71.455-.947.195-.241.429-.414.703-.518.276-.104.586-.156.927-.156.277 0 .531.034.762.102a1.714 1.714 0 0 1 1.089.894c.13.238.23.529.298.874.068.345.102.75.102 1.216zm-.908 1.23v-1.382c0-.319-.019-.599-.058-.84a2.678 2.678 0 0 0-.161-.625 1.238 1.238 0 0 0-.274-.42.963.963 0 0 0-.376-.234 1.352 1.352 0 0 0-.474-.078c-.214 0-.405.04-.571.122a1.028 1.028 0 0 0-.42.376 2.05 2.05 0 0 0-.254.679 5.11 5.11 0 0 0-.088 1.02V20.4c0 .32.018.6.054.845.039.244.096.456.171.635.075.175.166.32.273.434.108.114.232.199.372.254.143.052.301.078.473.078.222 0 .415-.042.581-.127.166-.084.305-.216.415-.395.114-.183.199-.415.254-.698.056-.287.083-.629.083-1.026z" opacity=".9"/></svg>