<svg width="934" height="41" viewBox="0 0 934 41" fill="none" xmlns="http://www.w3.org/2000/svg">
<rect y="0.289795" width="934" height="40" rx="12" fill="white"/>
<path d="M20.0002 26.9565C16.3182 26.9565 13.3335 23.9718 13.3335 20.2898C13.3335 16.6078 16.3182 13.6232 20.0002 13.6232C23.6822 13.6232 26.6668 16.6078 26.6668 20.2898C26.6668 23.9718 23.6822 26.9565 20.0002 26.9565ZM20.0002 25.6232C21.4147 25.6232 22.7712 25.0613 23.7714 24.0611C24.7716 23.0609 25.3335 21.7043 25.3335 20.2898C25.3335 18.8753 24.7716 17.5188 23.7714 16.5186C22.7712 15.5184 21.4147 14.9565 20.0002 14.9565C18.5857 14.9565 17.2291 15.5184 16.2289 16.5186C15.2287 17.5188 14.6668 18.8753 14.6668 20.2898C14.6668 21.7043 15.2287 23.0609 16.2289 24.0611C17.2291 25.0613 18.5857 25.6232 20.0002 25.6232ZM18.0002 18.2898H19.3335V22.2898H18.0002V18.2898ZM20.6668 18.2898H22.0002V22.2898H20.6668V18.2898Z" fill="#414144"/>
<g opacity="0.9">
<path d="M45.0537 19.1687V20.2527C45.0537 20.8354 45.0016 21.3269 44.8975 21.7273C44.7933 22.1277 44.6436 22.45 44.4482 22.6941C44.2529 22.9382 44.0169 23.1156 43.7402 23.2263C43.4668 23.3337 43.1576 23.3875 42.8125 23.3875C42.5391 23.3875 42.2868 23.3533 42.0557 23.2849C41.8245 23.2166 41.6162 23.1075 41.4307 22.9578C41.2484 22.8048 41.0921 22.6062 40.9619 22.3621C40.8317 22.1179 40.7324 21.8217 40.6641 21.4734C40.5957 21.1251 40.5615 20.7182 40.5615 20.2527V19.1687C40.5615 18.586 40.6136 18.0977 40.7178 17.7039C40.8252 17.31 40.9766 16.9942 41.1719 16.7566C41.3672 16.5157 41.6016 16.3432 41.875 16.239C42.1517 16.1348 42.4609 16.0828 42.8027 16.0828C43.0794 16.0828 43.3333 16.1169 43.5645 16.1853C43.7988 16.2504 44.0072 16.3562 44.1895 16.5027C44.3717 16.6459 44.5264 16.838 44.6533 17.0789C44.7835 17.3165 44.8828 17.6078 44.9512 17.9529C45.0195 18.2979 45.0537 18.7032 45.0537 19.1687ZM44.1455 20.3992V19.0173C44.1455 18.6983 44.126 18.4184 44.0869 18.1775C44.0511 17.9333 43.9974 17.725 43.9258 17.5525C43.8542 17.38 43.763 17.24 43.6523 17.1326C43.5449 17.0251 43.4196 16.947 43.2764 16.8982C43.1364 16.8461 42.9785 16.8201 42.8027 16.8201C42.5879 16.8201 42.3975 16.8608 42.2314 16.9421C42.0654 17.0203 41.9255 17.1456 41.8115 17.3181C41.7008 17.4906 41.6162 17.7169 41.5576 17.9968C41.499 18.2768 41.4697 18.6169 41.4697 19.0173V20.3992C41.4697 20.7182 41.4876 20.9998 41.5234 21.2439C41.5625 21.488 41.6195 21.6996 41.6943 21.8787C41.7692 22.0544 41.8604 22.1993 41.9678 22.3132C42.0752 22.4272 42.1989 22.5118 42.3389 22.5671C42.4821 22.6192 42.64 22.6453 42.8125 22.6453C43.0339 22.6453 43.2275 22.6029 43.3936 22.5183C43.5596 22.4337 43.6979 22.3018 43.8086 22.1228C43.9225 21.9405 44.0072 21.7078 44.0625 21.4246C44.1178 21.1381 44.1455 20.7963 44.1455 20.3992ZM49.6826 16.1707H49.7607V16.9373H49.6826C49.2041 16.9373 48.8037 17.0154 48.4814 17.1716C48.1592 17.3246 47.9036 17.5313 47.7148 17.7917C47.526 18.0489 47.3893 18.3386 47.3047 18.6609C47.2233 18.9832 47.1826 19.3103 47.1826 19.6423V20.6873C47.1826 21.003 47.2201 21.283 47.2949 21.5271C47.3698 21.768 47.4723 21.9714 47.6025 22.1375C47.7327 22.3035 47.8792 22.4288 48.042 22.5134C48.208 22.5981 48.3805 22.6404 48.5596 22.6404C48.7679 22.6404 48.9535 22.6013 49.1162 22.5232C49.279 22.4418 49.4157 22.3295 49.5264 22.1863C49.6403 22.0398 49.7266 21.8673 49.7852 21.6687C49.8438 21.4701 49.873 21.252 49.873 21.0144C49.873 20.8028 49.847 20.5994 49.7949 20.4041C49.7428 20.2055 49.6631 20.0297 49.5557 19.8767C49.4482 19.7205 49.3132 19.5984 49.1504 19.5105C48.9909 19.4194 48.8005 19.3738 48.5791 19.3738C48.3285 19.3738 48.0941 19.4356 47.876 19.5593C47.6611 19.6798 47.4837 19.8393 47.3438 20.0378C47.207 20.2332 47.1289 20.4464 47.1094 20.6775L46.6309 20.6726C46.6764 20.308 46.7611 19.9972 46.8848 19.74C47.0117 19.4796 47.168 19.268 47.3535 19.1052C47.5423 18.9392 47.7523 18.8188 47.9834 18.7439C48.2178 18.6658 48.4652 18.6267 48.7256 18.6267C49.0804 18.6267 49.3864 18.6934 49.6436 18.8269C49.9007 18.9604 50.1123 19.1394 50.2783 19.364C50.4443 19.5854 50.5664 19.836 50.6445 20.116C50.7259 20.3927 50.7666 20.6775 50.7666 20.9705C50.7666 21.3057 50.7194 21.6199 50.625 21.9128C50.5306 22.2058 50.389 22.463 50.2002 22.6843C50.0146 22.9057 49.7852 23.0782 49.5117 23.2019C49.2383 23.3256 48.9209 23.3875 48.5596 23.3875C48.1755 23.3875 47.8402 23.3093 47.5537 23.1531C47.2673 22.9936 47.0296 22.782 46.8408 22.5183C46.652 22.2546 46.5104 21.9617 46.416 21.6394C46.3216 21.3171 46.2744 20.99 46.2744 20.658V20.2332C46.2744 19.7319 46.3249 19.2403 46.4258 18.7585C46.5267 18.2768 46.7008 17.8406 46.9482 17.45C47.1989 17.0593 47.5456 16.7485 47.9883 16.5173C48.431 16.2862 48.9958 16.1707 49.6826 16.1707ZM53.8184 19.8962V20.6384H51.4355V19.8962H53.8184ZM57.4707 16.8103L55.1172 23.2898H54.1553L56.8652 16.1804H57.4854L57.4707 16.8103ZM59.4434 23.2898L57.085 16.8103L57.0703 16.1804H57.6904L60.4102 23.2898H59.4434ZM59.3213 20.658V21.4294H55.3271V20.658H59.3213ZM62.1289 19.0222V25.321H61.2207V18.0066H62.0508L62.1289 19.0222ZM65.6885 20.6042V20.7068C65.6885 21.0909 65.6429 21.4473 65.5518 21.7761C65.4606 22.1016 65.3271 22.3848 65.1514 22.6257C64.9788 22.8666 64.7656 23.0538 64.5117 23.1873C64.2578 23.3207 63.9665 23.3875 63.6377 23.3875C63.3024 23.3875 63.0062 23.3321 62.749 23.2214C62.4919 23.1108 62.2738 22.9496 62.0947 22.738C61.9157 22.5264 61.7725 22.2725 61.665 21.9763C61.5609 21.6801 61.4893 21.3464 61.4502 20.9753V20.4285C61.4893 20.0378 61.5625 19.6879 61.6699 19.3787C61.7773 19.0694 61.9189 18.8057 62.0947 18.5876C62.2738 18.3663 62.4902 18.1986 62.7441 18.0847C62.998 17.9675 63.291 17.9089 63.623 17.9089C63.9551 17.9089 64.2497 17.974 64.5068 18.1042C64.764 18.2312 64.9805 18.4135 65.1562 18.6511C65.332 18.8888 65.4639 19.1736 65.5518 19.5056C65.6429 19.8344 65.6885 20.2006 65.6885 20.6042ZM64.7803 20.7068V20.6042C64.7803 20.3406 64.7526 20.0932 64.6973 19.8621C64.6419 19.6277 64.5557 19.4226 64.4385 19.2468C64.3245 19.0678 64.1781 18.9278 63.999 18.8269C63.82 18.7227 63.6068 18.6707 63.3594 18.6707C63.1315 18.6707 62.9329 18.7097 62.7637 18.7878C62.5977 18.866 62.4561 18.9718 62.3389 19.1052C62.2217 19.2354 62.1257 19.3852 62.0508 19.5544C61.9792 19.7205 61.9255 19.893 61.8896 20.072V21.3367C61.9548 21.5645 62.0459 21.7794 62.1631 21.9812C62.2803 22.1798 62.4365 22.3409 62.6318 22.4646C62.8271 22.585 63.0729 22.6453 63.3691 22.6453C63.6133 22.6453 63.8232 22.5948 63.999 22.4939C64.1781 22.3897 64.3245 22.2481 64.4385 22.0691C64.5557 21.8901 64.6419 21.685 64.6973 21.4539C64.7526 21.2195 64.7803 20.9705 64.7803 20.7068ZM67.7441 18.8367V23.2898H66.8408V18.0066H67.7197L67.7441 18.8367ZM69.3945 17.9773L69.3896 18.8171C69.3148 18.8009 69.2432 18.7911 69.1748 18.7878C69.1097 18.7813 69.0348 18.7781 68.9502 18.7781C68.7419 18.7781 68.5579 18.8106 68.3984 18.8757C68.2389 18.9408 68.1038 19.032 67.9932 19.1492C67.8825 19.2664 67.7946 19.4063 67.7295 19.5691C67.6676 19.7286 67.627 19.9044 67.6074 20.0964L67.3535 20.2429C67.3535 19.9239 67.3844 19.6244 67.4463 19.3445C67.5114 19.0645 67.6107 18.8171 67.7441 18.6023C67.8776 18.3842 68.0469 18.2149 68.252 18.0945C68.4603 17.9708 68.7077 17.9089 68.9941 17.9089C69.0592 17.9089 69.1341 17.9171 69.2188 17.9333C69.3034 17.9464 69.362 17.961 69.3945 17.9773ZM72.1094 19.8962V20.6384H69.7266V19.8962H72.1094ZM77.5537 22.5476V23.2898H72.9004V22.6404L75.2295 20.0476C75.516 19.7286 75.7373 19.4584 75.8936 19.2371C76.0531 19.0125 76.1637 18.8123 76.2256 18.6365C76.2907 18.4574 76.3232 18.2751 76.3232 18.0896C76.3232 17.8552 76.2744 17.6436 76.1768 17.4548C76.0824 17.2628 75.9424 17.1098 75.7568 16.9958C75.5713 16.8819 75.3467 16.825 75.083 16.825C74.7673 16.825 74.5036 16.8868 74.292 17.0105C74.0837 17.1309 73.9274 17.3002 73.8232 17.5183C73.7191 17.7364 73.667 17.9871 73.667 18.2703H72.7637C72.7637 17.8699 72.8516 17.5037 73.0273 17.1716C73.2031 16.8396 73.4635 16.5759 73.8086 16.3806C74.1536 16.182 74.5785 16.0828 75.083 16.0828C75.5322 16.0828 75.9163 16.1625 76.2354 16.322C76.5544 16.4783 76.7985 16.6996 76.9678 16.9861C77.1403 17.2693 77.2266 17.6013 77.2266 17.9822C77.2266 18.1905 77.1908 18.4021 77.1191 18.6169C77.0508 18.8285 76.9548 19.0401 76.8311 19.2517C76.7106 19.4633 76.569 19.6716 76.4062 19.8767C76.2467 20.0818 76.0758 20.2836 75.8936 20.4822L73.9893 22.5476H77.5537ZM83.1787 22.5476V23.2898H78.5254V22.6404L80.8545 20.0476C81.141 19.7286 81.3623 19.4584 81.5186 19.2371C81.6781 19.0125 81.7887 18.8123 81.8506 18.6365C81.9157 18.4574 81.9482 18.2751 81.9482 18.0896C81.9482 17.8552 81.8994 17.6436 81.8018 17.4548C81.7074 17.2628 81.5674 17.1098 81.3818 16.9958C81.1963 16.8819 80.9717 16.825 80.708 16.825C80.3923 16.825 80.1286 16.8868 79.917 17.0105C79.7087 17.1309 79.5524 17.3002 79.4482 17.5183C79.3441 17.7364 79.292 17.9871 79.292 18.2703H78.3887C78.3887 17.8699 78.4766 17.5037 78.6523 17.1716C78.8281 16.8396 79.0885 16.5759 79.4336 16.3806C79.7786 16.182 80.2035 16.0828 80.708 16.0828C81.1572 16.0828 81.5413 16.1625 81.8604 16.322C82.1794 16.4783 82.4235 16.6996 82.5928 16.9861C82.7653 17.2693 82.8516 17.6013 82.8516 17.9822C82.8516 18.1905 82.8158 18.4021 82.7441 18.6169C82.6758 18.8285 82.5798 19.0401 82.4561 19.2517C82.3356 19.4633 82.194 19.6716 82.0312 19.8767C81.8717 20.0818 81.7008 20.2836 81.5186 20.4822L79.6143 22.5476H83.1787ZM89.5947 16.1414V23.2898H88.6914V17.2693L86.8701 17.9333V17.1179L89.4531 16.1414H89.5947ZM96.9092 22.5476V23.2898H92.2559V22.6404L94.585 20.0476C94.8714 19.7286 95.0928 19.4584 95.249 19.2371C95.4085 19.0125 95.5192 18.8123 95.5811 18.6365C95.6462 18.4574 95.6787 18.2751 95.6787 18.0896C95.6787 17.8552 95.6299 17.6436 95.5322 17.4548C95.4378 17.2628 95.2979 17.1098 95.1123 16.9958C94.9268 16.8819 94.7021 16.825 94.4385 16.825C94.1227 16.825 93.859 16.8868 93.6475 17.0105C93.4391 17.1309 93.2829 17.3002 93.1787 17.5183C93.0745 17.7364 93.0225 17.9871 93.0225 18.2703H92.1191C92.1191 17.8699 92.207 17.5037 92.3828 17.1716C92.5586 16.8396 92.819 16.5759 93.1641 16.3806C93.5091 16.182 93.9339 16.0828 94.4385 16.0828C94.8877 16.0828 95.2718 16.1625 95.5908 16.322C95.9098 16.4783 96.154 16.6996 96.3232 16.9861C96.4958 17.2693 96.582 17.6013 96.582 17.9822C96.582 18.1905 96.5462 18.4021 96.4746 18.6169C96.4062 18.8285 96.3102 19.0401 96.1865 19.2517C96.0661 19.4633 95.9245 19.6716 95.7617 19.8767C95.6022 20.0818 95.4313 20.2836 95.249 20.4822L93.3447 22.5476H96.9092ZM97.9346 22.8113C97.9346 22.6583 97.9818 22.5297 98.0762 22.4255C98.1738 22.3181 98.3138 22.2644 98.4961 22.2644C98.6784 22.2644 98.8167 22.3181 98.9111 22.4255C99.0088 22.5297 99.0576 22.6583 99.0576 22.8113C99.0576 22.961 99.0088 23.088 98.9111 23.1921C98.8167 23.2963 98.6784 23.3484 98.4961 23.3484C98.3138 23.3484 98.1738 23.2963 98.0762 23.1921C97.9818 23.088 97.9346 22.961 97.9346 22.8113ZM97.9395 18.4998C97.9395 18.3468 97.9867 18.2182 98.0811 18.114C98.1787 18.0066 98.3187 17.9529 98.501 17.9529C98.6833 17.9529 98.8216 18.0066 98.916 18.114C99.0137 18.2182 99.0625 18.3468 99.0625 18.4998C99.0625 18.6495 99.0137 18.7764 98.916 18.8806C98.8216 18.9848 98.6833 19.0369 98.501 19.0369C98.3187 19.0369 98.1787 18.9848 98.0811 18.8806C97.9867 18.7764 97.9395 18.6495 97.9395 18.4998ZM103.267 16.1414V23.2898H102.363V17.2693L100.542 17.9333V17.1179L103.125 16.1414H103.267ZM110.728 20.8972V21.6394H105.591V21.1072L108.774 16.1804H109.512L108.721 17.6062L106.616 20.8972H110.728ZM109.736 16.1804V23.2898H108.833V16.1804H109.736Z" fill="#32375E"/>
</g>
<g opacity="0.9">
<path d="M192.909 19.2908H193.554C193.869 19.2908 194.13 19.2387 194.335 19.1345C194.543 19.0271 194.698 18.8822 194.799 18.7C194.903 18.5144 194.955 18.3061 194.955 18.075C194.955 17.8015 194.91 17.572 194.818 17.3865C194.727 17.2009 194.59 17.061 194.408 16.9666C194.226 16.8722 193.995 16.825 193.715 16.825C193.461 16.825 193.236 16.8754 193.041 16.9763C192.849 17.074 192.698 17.2139 192.587 17.3962C192.479 17.5785 192.426 17.7934 192.426 18.0408H191.522C191.522 17.6794 191.614 17.3507 191.796 17.0544C191.978 16.7582 192.234 16.5222 192.562 16.3464C192.895 16.1707 193.279 16.0828 193.715 16.0828C194.145 16.0828 194.521 16.1593 194.843 16.3123C195.165 16.462 195.416 16.6866 195.595 16.9861C195.774 17.2823 195.863 17.6518 195.863 18.0945C195.863 18.2735 195.821 18.4656 195.736 18.6707C195.655 18.8725 195.526 19.0613 195.351 19.2371C195.178 19.4128 194.953 19.5577 194.677 19.6716C194.4 19.7823 194.068 19.8376 193.681 19.8376H192.909V19.2908ZM192.909 20.033V19.491H193.681C194.133 19.491 194.507 19.5447 194.804 19.6521C195.1 19.7595 195.333 19.9028 195.502 20.0818C195.674 20.2608 195.795 20.4578 195.863 20.6726C195.935 20.8842 195.971 21.0958 195.971 21.3074C195.971 21.6394 195.914 21.934 195.8 22.1912C195.689 22.4483 195.531 22.6664 195.326 22.8455C195.124 23.0245 194.887 23.1596 194.613 23.2507C194.34 23.3419 194.042 23.3875 193.72 23.3875C193.41 23.3875 193.119 23.3435 192.846 23.2556C192.576 23.1677 192.336 23.0408 192.128 22.8748C191.92 22.7055 191.757 22.4988 191.64 22.2546C191.522 22.0072 191.464 21.7257 191.464 21.4099H192.367C192.367 21.6573 192.421 21.8738 192.528 22.0593C192.639 22.2449 192.795 22.3897 192.997 22.4939C193.202 22.5948 193.443 22.6453 193.72 22.6453C193.996 22.6453 194.234 22.5981 194.433 22.5037C194.634 22.406 194.789 22.2595 194.896 22.0642C195.007 21.8689 195.062 21.6231 195.062 21.3269C195.062 21.0307 195.001 20.7882 194.877 20.5994C194.753 20.4073 194.577 20.2657 194.35 20.1746C194.125 20.0802 193.86 20.033 193.554 20.033H192.909ZM201.698 21.366C201.698 21.7989 201.597 22.1667 201.396 22.4695C201.197 22.769 200.927 22.9968 200.585 23.1531C200.246 23.3093 199.864 23.3875 199.438 23.3875C199.011 23.3875 198.627 23.3093 198.285 23.1531C197.943 22.9968 197.673 22.769 197.475 22.4695C197.276 22.1667 197.177 21.7989 197.177 21.366C197.177 21.0828 197.23 20.824 197.338 20.5896C197.449 20.352 197.603 20.1453 197.802 19.9695C198.004 19.7937 198.241 19.6586 198.515 19.5642C198.791 19.4666 199.096 19.4177 199.428 19.4177C199.864 19.4177 200.253 19.5024 200.595 19.6716C200.937 19.8376 201.205 20.0671 201.4 20.3601C201.599 20.6531 201.698 20.9884 201.698 21.366ZM200.79 21.3464C200.79 21.0828 200.733 20.85 200.619 20.6482C200.505 20.4431 200.346 20.2836 200.141 20.1697C199.936 20.0557 199.698 19.9988 199.428 19.9988C199.151 19.9988 198.912 20.0557 198.71 20.1697C198.511 20.2836 198.357 20.4431 198.246 20.6482C198.135 20.85 198.08 21.0828 198.08 21.3464C198.08 21.6199 198.134 21.8542 198.241 22.0496C198.352 22.2416 198.508 22.3897 198.71 22.4939C198.915 22.5948 199.158 22.6453 199.438 22.6453C199.717 22.6453 199.958 22.5948 200.16 22.4939C200.362 22.3897 200.517 22.2416 200.624 22.0496C200.735 21.8542 200.79 21.6199 200.79 21.3464ZM201.532 18.031C201.532 18.3761 201.441 18.6869 201.259 18.9636C201.076 19.2403 200.827 19.4584 200.512 19.6179C200.196 19.7774 199.838 19.8572 199.438 19.8572C199.031 19.8572 198.668 19.7774 198.349 19.6179C198.033 19.4584 197.785 19.2403 197.606 18.9636C197.427 18.6869 197.338 18.3761 197.338 18.031C197.338 17.6176 197.427 17.266 197.606 16.9763C197.789 16.6866 198.038 16.4653 198.354 16.3123C198.669 16.1593 199.029 16.0828 199.433 16.0828C199.84 16.0828 200.201 16.1593 200.517 16.3123C200.832 16.4653 201.08 16.6866 201.259 16.9763C201.441 17.266 201.532 17.6176 201.532 18.031ZM200.629 18.0457C200.629 17.808 200.578 17.5981 200.478 17.4158C200.377 17.2335 200.237 17.0903 200.058 16.9861C199.879 16.8787 199.67 16.825 199.433 16.825C199.195 16.825 198.987 16.8754 198.808 16.9763C198.632 17.074 198.493 17.2139 198.393 17.3962C198.295 17.5785 198.246 17.795 198.246 18.0457C198.246 18.2898 198.295 18.503 198.393 18.6853C198.493 18.8676 198.633 19.0092 198.812 19.1101C198.992 19.211 199.2 19.2615 199.438 19.2615C199.675 19.2615 199.882 19.211 200.058 19.1101C200.237 19.0092 200.377 18.8676 200.478 18.6853C200.578 18.503 200.629 18.2898 200.629 18.0457ZM205.81 16.1414V23.2898H204.906V17.2693L203.085 17.9333V17.1179L205.668 16.1414H205.81ZM211.435 16.1414V23.2898H210.531V17.2693L208.71 17.9333V17.1179L211.293 16.1414H211.435Z" fill="#3F7BDA"/>
</g>
<g opacity="0.9">
<path d="M230.825 16.1804H233.179C233.713 16.1804 234.163 16.2618 234.531 16.4246C234.902 16.5873 235.184 16.8282 235.376 17.1472C235.571 17.463 235.669 17.852 235.669 18.3142C235.669 18.6397 235.602 18.9376 235.469 19.2078C235.339 19.4747 235.15 19.7026 234.902 19.8914C234.658 20.0769 234.365 20.2153 234.023 20.3064L233.76 20.4089H231.548L231.538 19.6423H233.208C233.547 19.6423 233.828 19.5837 234.053 19.4666C234.277 19.3461 234.447 19.185 234.561 18.9832C234.674 18.7813 234.731 18.5583 234.731 18.3142C234.731 18.0408 234.678 17.8015 234.57 17.5964C234.463 17.3914 234.294 17.2335 234.062 17.1228C233.835 17.0089 233.54 16.9519 233.179 16.9519H231.768V23.2898H230.825V16.1804ZM234.98 23.2898L233.252 20.0671L234.233 20.0623L235.986 23.2312V23.2898H234.98ZM241.504 22.5232V23.2898H237.739V22.5232H241.504ZM237.93 16.1804V23.2898H236.987V16.1804H237.93ZM241.006 19.2371V20.0037H237.739V19.2371H241.006ZM241.455 16.1804V16.9519H237.739V16.1804H241.455ZM246.963 21.0291H247.9C247.852 21.4783 247.723 21.8803 247.515 22.2351C247.306 22.5899 247.012 22.8715 246.631 23.0798C246.25 23.2849 245.775 23.3875 245.205 23.3875C244.788 23.3875 244.409 23.3093 244.067 23.1531C243.729 22.9968 243.438 22.7755 243.193 22.489C242.949 22.1993 242.76 21.8526 242.627 21.449C242.497 21.0421 242.432 20.5896 242.432 20.0916V19.3835C242.432 18.8855 242.497 18.4347 242.627 18.031C242.76 17.6241 242.951 17.2758 243.198 16.9861C243.449 16.6964 243.75 16.4734 244.102 16.3171C244.453 16.1609 244.849 16.0828 245.288 16.0828C245.825 16.0828 246.279 16.1837 246.65 16.3855C247.021 16.5873 247.31 16.8673 247.515 17.2253C247.723 17.5802 247.852 17.9919 247.9 18.4607H246.963C246.917 18.1287 246.833 17.8438 246.709 17.6062C246.585 17.3653 246.41 17.1798 246.182 17.0496C245.954 16.9194 245.656 16.8542 245.288 16.8542C244.972 16.8542 244.694 16.9145 244.453 17.0349C244.215 17.1554 244.015 17.3263 243.853 17.5476C243.693 17.769 243.573 18.0343 243.491 18.3435C243.41 18.6528 243.369 18.9962 243.369 19.3738V20.0916C243.369 20.4399 243.405 20.767 243.477 21.073C243.551 21.379 243.664 21.6475 243.813 21.8787C243.963 22.1098 244.154 22.2921 244.385 22.4255C244.616 22.5557 244.889 22.6208 245.205 22.6208C245.605 22.6208 245.924 22.5574 246.162 22.4304C246.4 22.3035 246.579 22.1212 246.699 21.8835C246.823 21.6459 246.911 21.3611 246.963 21.0291ZM253.252 16.1804H254.189V20.99C254.189 21.5238 254.071 21.9682 253.833 22.323C253.595 22.6778 253.28 22.9447 252.886 23.1238C252.495 23.2996 252.07 23.3875 251.611 23.3875C251.13 23.3875 250.693 23.2996 250.303 23.1238C249.915 22.9447 249.608 22.6778 249.38 22.323C249.155 21.9682 249.043 21.5238 249.043 20.99V16.1804H249.976V20.99C249.976 21.3611 250.044 21.6671 250.181 21.908C250.317 22.1488 250.508 22.3279 250.752 22.4451C250.999 22.5623 251.286 22.6208 251.611 22.6208C251.94 22.6208 252.227 22.5623 252.471 22.4451C252.718 22.3279 252.91 22.1488 253.047 21.908C253.184 21.6671 253.252 21.3611 253.252 20.99V16.1804ZM261.138 16.1804V23.2898H260.19L256.611 17.8064V23.2898H255.669V16.1804H256.611L260.205 21.6785V16.1804H261.138ZM266.597 21.4929C266.597 21.3269 266.571 21.1804 266.519 21.0535C266.47 20.9233 266.382 20.8061 266.255 20.7019C266.131 20.5977 265.959 20.4985 265.737 20.4041C265.519 20.3097 265.243 20.2136 264.907 20.116C264.556 20.0118 264.238 19.8962 263.955 19.7693C263.672 19.6391 263.429 19.491 263.228 19.325C263.026 19.1589 262.871 18.9685 262.764 18.7537C262.656 18.5388 262.603 18.2931 262.603 18.0164C262.603 17.7397 262.66 17.4841 262.773 17.2498C262.887 17.0154 263.05 16.8119 263.262 16.6394C263.477 16.4636 263.732 16.3269 264.028 16.2292C264.325 16.1316 264.655 16.0828 265.02 16.0828C265.553 16.0828 266.006 16.1853 266.377 16.3904C266.751 16.5922 267.036 16.8575 267.231 17.1863C267.427 17.5118 267.524 17.8601 267.524 18.2312H266.587C266.587 17.9643 266.53 17.7283 266.416 17.5232C266.302 17.3149 266.13 17.1521 265.898 17.0349C265.667 16.9145 265.374 16.8542 265.02 16.8542C264.684 16.8542 264.408 16.9047 264.189 17.0056C263.971 17.1065 263.809 17.2432 263.701 17.4158C263.597 17.5883 263.545 17.7852 263.545 18.0066C263.545 18.1563 263.576 18.2931 263.638 18.4167C263.703 18.5372 263.802 18.6495 263.936 18.7537C264.072 18.8578 264.245 18.9539 264.453 19.0417C264.665 19.1296 264.917 19.2143 265.21 19.2957C265.614 19.4096 265.962 19.5365 266.255 19.6765C266.548 19.8165 266.789 19.9744 266.978 20.1501C267.17 20.3227 267.311 20.5196 267.402 20.741C267.497 20.9591 267.544 21.2065 267.544 21.4832C267.544 21.7729 267.485 22.0349 267.368 22.2693C267.251 22.5037 267.083 22.7039 266.865 22.8699C266.647 23.0359 266.385 23.1645 266.079 23.2556C265.776 23.3435 265.438 23.3875 265.063 23.3875C264.735 23.3875 264.411 23.3419 264.092 23.2507C263.776 23.1596 263.488 23.0229 263.228 22.8406C262.97 22.6583 262.764 22.4337 262.607 22.1667C262.454 21.8966 262.378 21.5841 262.378 21.2292H263.315C263.315 21.4734 263.363 21.6833 263.457 21.8591C263.551 22.0317 263.68 22.1749 263.843 22.2888C264.009 22.4028 264.196 22.4874 264.404 22.5427C264.616 22.5948 264.836 22.6208 265.063 22.6208C265.392 22.6208 265.671 22.5753 265.898 22.4841C266.126 22.393 266.299 22.2628 266.416 22.0935C266.536 21.9242 266.597 21.724 266.597 21.4929ZM270.488 19.8962V20.6384H268.105V19.8962H270.488ZM272.173 22.533H272.266C272.786 22.533 273.21 22.4597 273.535 22.3132C273.861 22.1667 274.111 21.9698 274.287 21.7224C274.463 21.475 274.583 21.1967 274.648 20.8875C274.714 20.575 274.746 20.2543 274.746 19.9255V18.8367C274.746 18.5144 274.709 18.2279 274.634 17.9773C274.562 17.7266 274.461 17.5167 274.331 17.3474C274.204 17.1781 274.059 17.0496 273.896 16.9617C273.734 16.8738 273.561 16.8298 273.379 16.8298C273.171 16.8298 272.983 16.8722 272.817 16.9568C272.655 17.0382 272.516 17.1537 272.402 17.3035C272.292 17.4532 272.207 17.629 272.148 17.8308C272.09 18.0326 272.061 18.2524 272.061 18.49C272.061 18.7016 272.087 18.9067 272.139 19.1052C272.191 19.3038 272.271 19.4828 272.378 19.6423C272.485 19.8018 272.619 19.9288 272.778 20.0232C272.941 20.1143 273.132 20.1599 273.35 20.1599C273.551 20.1599 273.74 20.1208 273.916 20.0427C274.095 19.9613 274.253 19.8523 274.39 19.7156C274.53 19.5756 274.64 19.4177 274.722 19.2419C274.806 19.0662 274.855 18.8822 274.868 18.6902H275.298C275.298 18.9604 275.244 19.2273 275.137 19.491C275.033 19.7514 274.886 19.989 274.697 20.2039C274.508 20.4187 274.287 20.5912 274.033 20.7214C273.779 20.8484 273.503 20.9119 273.203 20.9119C272.852 20.9119 272.547 20.8435 272.29 20.7068C272.033 20.5701 271.821 20.3878 271.655 20.1599C271.493 19.932 271.37 19.6781 271.289 19.3982C271.211 19.115 271.172 18.8285 271.172 18.5388C271.172 18.2003 271.219 17.8829 271.313 17.5867C271.408 17.2904 271.548 17.03 271.733 16.8054C271.919 16.5776 272.148 16.4001 272.422 16.2732C272.699 16.1462 273.018 16.0828 273.379 16.0828C273.786 16.0828 274.132 16.1641 274.419 16.3269C274.705 16.4897 274.938 16.7078 275.117 16.9812C275.299 17.2546 275.433 17.5623 275.518 17.9041C275.602 18.2458 275.645 18.5974 275.645 18.9587V19.2859C275.645 19.6537 275.62 20.0281 275.571 20.4089C275.526 20.7865 275.436 21.1479 275.303 21.4929C275.173 21.838 274.982 22.1472 274.731 22.4207C274.481 22.6908 274.154 22.9057 273.75 23.0652C273.35 23.2214 272.855 23.2996 272.266 23.2996H272.173V22.533ZM281.704 20.8972V21.6394H276.567V21.1072L279.751 16.1804H280.488L279.697 17.6062L277.593 20.8972H281.704ZM280.713 16.1804V23.2898H279.81V16.1804H280.713Z" fill="#32375E"/>
</g>
<path d="M327 14.2898C327 10.9761 329.686 8.28979 333 8.28979H345C348.314 8.28979 351 10.9761 351 14.2898V26.2898C351 29.6035 348.314 32.2898 345 32.2898H333C329.686 32.2898 327 29.6035 327 26.2898V14.2898Z" fill="#F0F5F9"/>
<path d="M332.914 17.1023H333.645L335.508 21.739L337.367 17.1023H338.102L335.789 22.7898H335.219L332.914 17.1023ZM332.676 17.1023H333.32L333.426 20.571V22.7898H332.676V17.1023ZM337.691 17.1023H338.336V22.7898H337.586V20.571L337.691 17.1023ZM339.898 17.1023H340.629L342.492 21.739L344.352 17.1023H345.086L342.773 22.7898H342.203L339.898 17.1023ZM339.66 17.1023H340.305L340.41 20.571V22.7898H339.66V17.1023ZM344.676 17.1023H345.32V22.7898H344.57V20.571L344.676 17.1023Z" fill="#32375E"/>
<path d="M362.457 16.8103L360.104 23.2898H359.142L361.852 16.1804H362.472L362.457 16.8103ZM364.43 23.2898L362.071 16.8103L362.057 16.1804H362.677L365.396 23.2898H364.43ZM364.308 20.658V21.4294H360.313V20.658H364.308ZM367.193 15.7898V23.2898H366.285V15.7898H367.193ZM369.991 23.2898H369.088V17.45C369.088 17.0691 369.156 16.7485 369.293 16.488C369.433 16.2244 369.633 16.0258 369.894 15.8923C370.154 15.7556 370.463 15.6873 370.821 15.6873C370.925 15.6873 371.03 15.6938 371.134 15.7068C371.241 15.7198 371.345 15.7393 371.446 15.7654L371.397 16.5027C371.329 16.4864 371.251 16.475 371.163 16.4685C371.078 16.462 370.994 16.4587 370.909 16.4587C370.717 16.4587 370.551 16.4978 370.411 16.5759C370.274 16.6508 370.17 16.7615 370.099 16.908C370.027 17.0544 369.991 17.2351 369.991 17.45V23.2898ZM371.114 18.0066V18.7H368.253V18.0066H371.114ZM373.023 18.8367V23.2898H372.12V18.0066H372.999L373.023 18.8367ZM374.674 17.9773L374.669 18.8171C374.594 18.8009 374.522 18.7911 374.454 18.7878C374.389 18.7813 374.314 18.7781 374.229 18.7781C374.021 18.7781 373.837 18.8106 373.678 18.8757C373.518 18.9408 373.383 19.032 373.272 19.1492C373.162 19.2664 373.074 19.4063 373.009 19.5691C372.947 19.7286 372.906 19.9044 372.887 20.0964L372.633 20.2429C372.633 19.9239 372.664 19.6244 372.726 19.3445C372.791 19.0645 372.89 18.8171 373.023 18.6023C373.157 18.3842 373.326 18.2149 373.531 18.0945C373.74 17.9708 373.987 17.9089 374.273 17.9089C374.339 17.9089 374.413 17.9171 374.498 17.9333C374.583 17.9464 374.641 17.961 374.674 17.9773ZM377.604 23.3875C377.236 23.3875 376.902 23.3256 376.603 23.2019C376.306 23.075 376.051 22.8975 375.836 22.6697C375.624 22.4418 375.462 22.1716 375.348 21.8591C375.234 21.5466 375.177 21.2048 375.177 20.8337V20.6287C375.177 20.199 375.24 19.8165 375.367 19.4812C375.494 19.1427 375.667 18.8562 375.885 18.6218C376.103 18.3875 376.35 18.21 376.627 18.0896C376.904 17.9692 377.19 17.9089 377.486 17.9089C377.864 17.9089 378.189 17.974 378.463 18.1042C378.74 18.2345 378.966 18.4167 379.142 18.6511C379.317 18.8822 379.448 19.1557 379.532 19.4714C379.617 19.7839 379.659 20.1257 379.659 20.4968V20.9021H375.714V20.1648H378.756V20.0964C378.743 19.8621 378.694 19.6342 378.609 19.4128C378.528 19.1915 378.398 19.0092 378.219 18.866C378.04 18.7227 377.796 18.6511 377.486 18.6511C377.281 18.6511 377.092 18.6951 376.92 18.783C376.747 18.8676 376.599 18.9945 376.476 19.1638C376.352 19.3331 376.256 19.5398 376.188 19.7839C376.119 20.0281 376.085 20.3097 376.085 20.6287V20.8337C376.085 21.0844 376.119 21.3204 376.188 21.5417C376.259 21.7598 376.362 21.9519 376.495 22.1179C376.632 22.2839 376.796 22.4141 376.988 22.5085C377.184 22.6029 377.405 22.6501 377.652 22.6501C377.971 22.6501 378.242 22.585 378.463 22.4548C378.684 22.3246 378.878 22.1505 379.044 21.9324L379.591 22.3669C379.477 22.5395 379.332 22.7039 379.156 22.8601C378.98 23.0164 378.764 23.1433 378.507 23.241C378.253 23.3386 377.952 23.3875 377.604 23.3875ZM384.044 22.2644V15.7898H384.952V23.2898H384.122L384.044 22.2644ZM380.489 20.7068V20.6042C380.489 20.2006 380.538 19.8344 380.636 19.5056C380.737 19.1736 380.878 18.8888 381.061 18.6511C381.246 18.4135 381.466 18.2312 381.72 18.1042C381.977 17.974 382.263 17.9089 382.579 17.9089C382.911 17.9089 383.201 17.9675 383.448 18.0847C383.699 18.1986 383.91 18.3663 384.083 18.5876C384.259 18.8057 384.397 19.0694 384.498 19.3787C384.599 19.6879 384.669 20.0378 384.708 20.4285V20.8777C384.672 21.2651 384.602 21.6134 384.498 21.9226C384.397 22.2319 384.259 22.4955 384.083 22.7136C383.91 22.9317 383.699 23.0994 383.448 23.2166C383.198 23.3305 382.905 23.3875 382.569 23.3875C382.26 23.3875 381.977 23.3207 381.72 23.1873C381.466 23.0538 381.246 22.8666 381.061 22.6257C380.878 22.3848 380.737 22.1016 380.636 21.7761C380.538 21.4473 380.489 21.0909 380.489 20.7068ZM381.397 20.6042V20.7068C381.397 20.9705 381.424 21.2179 381.476 21.449C381.531 21.6801 381.616 21.8835 381.729 22.0593C381.843 22.2351 381.988 22.3735 382.164 22.4744C382.34 22.572 382.55 22.6208 382.794 22.6208C383.093 22.6208 383.339 22.5574 383.531 22.4304C383.727 22.3035 383.883 22.1358 384 21.9275C384.117 21.7192 384.208 21.4929 384.273 21.2488V20.072C384.234 19.893 384.177 19.7205 384.103 19.5544C384.031 19.3852 383.937 19.2354 383.819 19.1052C383.705 18.9718 383.564 18.866 383.395 18.7878C383.229 18.7097 383.032 18.6707 382.804 18.6707C382.556 18.6707 382.343 18.7227 382.164 18.8269C381.988 18.9278 381.843 19.0678 381.729 19.2468C381.616 19.4226 381.531 19.6277 381.476 19.8621C381.424 20.0932 381.397 20.3406 381.397 20.6042ZM391.598 20.5017H389.698V19.7351H391.598C391.965 19.7351 392.263 19.6765 392.491 19.5593C392.719 19.4421 392.885 19.2794 392.989 19.071C393.097 18.8627 393.15 18.6251 393.15 18.3582C393.15 18.114 393.097 17.8845 392.989 17.6697C392.885 17.4548 392.719 17.2823 392.491 17.1521C392.263 17.0186 391.965 16.9519 391.598 16.9519H389.918V23.2898H388.976V16.1804H391.598C392.135 16.1804 392.589 16.2732 392.96 16.4587C393.331 16.6443 393.613 16.9014 393.805 17.2302C393.997 17.5557 394.093 17.9285 394.093 18.3484C394.093 18.8041 393.997 19.1931 393.805 19.5154C393.613 19.8376 393.331 20.0834 392.96 20.2527C392.589 20.4187 392.135 20.5017 391.598 20.5017ZM398.204 22.3865V19.6667C398.204 19.4584 398.162 19.2778 398.077 19.1248C397.996 18.9685 397.872 18.8481 397.706 18.7634C397.54 18.6788 397.335 18.6365 397.091 18.6365C396.863 18.6365 396.663 18.6755 396.49 18.7537C396.321 18.8318 396.188 18.9343 396.09 19.0613C395.995 19.1882 395.948 19.325 395.948 19.4714H395.045C395.045 19.2826 395.094 19.0955 395.191 18.9099C395.289 18.7244 395.429 18.5567 395.611 18.407C395.797 18.254 396.018 18.1335 396.275 18.0457C396.536 17.9545 396.826 17.9089 397.145 17.9089C397.529 17.9089 397.867 17.974 398.16 18.1042C398.456 18.2345 398.688 18.4314 398.854 18.6951C399.023 18.9555 399.107 19.2826 399.107 19.6765V22.1375C399.107 22.3132 399.122 22.5004 399.151 22.699C399.184 22.8975 399.231 23.0684 399.293 23.2117V23.2898H398.351C398.305 23.1856 398.269 23.0473 398.243 22.8748C398.217 22.699 398.204 22.5362 398.204 22.3865ZM398.36 20.0867L398.37 20.7214H397.457C397.2 20.7214 396.97 20.7426 396.769 20.7849C396.567 20.824 396.397 20.8842 396.261 20.9656C396.124 21.047 396.02 21.1495 395.948 21.2732C395.877 21.3936 395.841 21.5352 395.841 21.698C395.841 21.864 395.878 22.0154 395.953 22.1521C396.028 22.2888 396.14 22.3979 396.29 22.4792C396.443 22.5574 396.63 22.5964 396.852 22.5964C397.128 22.5964 397.372 22.5378 397.584 22.4207C397.796 22.3035 397.963 22.1602 398.087 21.991C398.214 21.8217 398.282 21.6573 398.292 21.4978L398.678 21.9324C398.655 22.0691 398.593 22.2205 398.492 22.3865C398.391 22.5525 398.256 22.712 398.087 22.865C397.921 23.0147 397.722 23.1401 397.491 23.241C397.263 23.3386 397.006 23.3875 396.72 23.3875C396.362 23.3875 396.048 23.3175 395.777 23.1775C395.51 23.0375 395.302 22.8503 395.152 22.616C395.006 22.3783 394.933 22.113 394.933 21.8201C394.933 21.5369 394.988 21.2878 395.099 21.073C395.209 20.8549 395.369 20.6742 395.577 20.531C395.785 20.3845 396.036 20.2738 396.329 20.199C396.622 20.1241 396.949 20.0867 397.311 20.0867H398.36ZM401.51 15.7898V23.2898H400.602V15.7898H401.51ZM403.858 19.0564V23.2898H402.95V18.0066H403.81L403.858 19.0564ZM403.673 20.448L403.253 20.4333C403.256 20.072 403.303 19.7384 403.395 19.4324C403.486 19.1231 403.621 18.8546 403.8 18.6267C403.979 18.3988 404.202 18.2231 404.469 18.0994C404.736 17.9724 405.045 17.9089 405.396 17.9089C405.644 17.9089 405.872 17.9447 406.08 18.0164C406.288 18.0847 406.469 18.1938 406.622 18.3435C406.775 18.4932 406.894 18.6853 406.979 18.9197C407.063 19.1541 407.105 19.4373 407.105 19.7693V23.2898H406.202V19.8132C406.202 19.5365 406.155 19.3152 406.061 19.1492C405.969 18.9832 405.839 18.8627 405.67 18.7878C405.501 18.7097 405.302 18.6707 405.074 18.6707C404.807 18.6707 404.584 18.7179 404.405 18.8123C404.226 18.9067 404.083 19.0369 403.976 19.2029C403.868 19.3689 403.79 19.5593 403.741 19.7742C403.696 19.9858 403.673 20.2104 403.673 20.448ZM407.096 19.95L406.49 20.1355C406.493 19.8458 406.541 19.5675 406.632 19.3005C406.726 19.0336 406.861 18.796 407.037 18.5876C407.216 18.3793 407.436 18.2149 407.696 18.0945C407.957 17.9708 408.255 17.9089 408.59 17.9089C408.873 17.9089 409.124 17.9464 409.342 18.0212C409.563 18.0961 409.749 18.2117 409.898 18.3679C410.051 18.5209 410.167 18.7179 410.245 18.9587C410.323 19.1996 410.362 19.4861 410.362 19.8181V23.2898H409.454V19.8083C409.454 19.5121 409.407 19.2826 409.312 19.1199C409.221 18.9539 409.091 18.8383 408.922 18.7732C408.756 18.7048 408.557 18.6707 408.326 18.6707C408.128 18.6707 407.952 18.7048 407.799 18.7732C407.646 18.8416 407.517 18.936 407.413 19.0564C407.309 19.1736 407.229 19.3087 407.174 19.4617C407.122 19.6147 407.096 19.7774 407.096 19.95ZM413.922 23.3875C413.554 23.3875 413.22 23.3256 412.921 23.2019C412.625 23.075 412.369 22.8975 412.154 22.6697C411.943 22.4418 411.78 22.1716 411.666 21.8591C411.552 21.5466 411.495 21.2048 411.495 20.8337V20.6287C411.495 20.199 411.559 19.8165 411.686 19.4812C411.812 19.1427 411.985 18.8562 412.203 18.6218C412.421 18.3875 412.669 18.21 412.945 18.0896C413.222 17.9692 413.508 17.9089 413.805 17.9089C414.182 17.9089 414.508 17.974 414.781 18.1042C415.058 18.2345 415.284 18.4167 415.46 18.6511C415.636 18.8822 415.766 19.1557 415.851 19.4714C415.935 19.7839 415.978 20.1257 415.978 20.4968V20.9021H412.032V20.1648H415.074V20.0964C415.061 19.8621 415.012 19.6342 414.928 19.4128C414.846 19.1915 414.716 19.0092 414.537 18.866C414.358 18.7227 414.114 18.6511 413.805 18.6511C413.6 18.6511 413.411 18.6951 413.238 18.783C413.066 18.8676 412.918 18.9945 412.794 19.1638C412.67 19.3331 412.574 19.5398 412.506 19.7839C412.438 20.0281 412.403 20.3097 412.403 20.6287V20.8337C412.403 21.0844 412.438 21.3204 412.506 21.5417C412.577 21.7598 412.68 21.9519 412.813 22.1179C412.95 22.2839 413.115 22.4141 413.307 22.5085C413.502 22.6029 413.723 22.6501 413.971 22.6501C414.29 22.6501 414.56 22.585 414.781 22.4548C415.003 22.3246 415.196 22.1505 415.362 21.9324L415.909 22.3669C415.795 22.5395 415.65 22.7039 415.475 22.8601C415.299 23.0164 415.082 23.1433 414.825 23.241C414.571 23.3386 414.27 23.3875 413.922 23.3875ZM417.936 18.8367V23.2898H417.032V18.0066H417.911L417.936 18.8367ZM419.586 17.9773L419.581 18.8171C419.506 18.8009 419.435 18.7911 419.366 18.7878C419.301 18.7813 419.226 18.7781 419.142 18.7781C418.933 18.7781 418.749 18.8106 418.59 18.8757C418.43 18.9408 418.295 19.032 418.185 19.1492C418.074 19.2664 417.986 19.4063 417.921 19.5691C417.859 19.7286 417.818 19.9044 417.799 20.0964L417.545 20.2429C417.545 19.9239 417.576 19.6244 417.638 19.3445C417.703 19.0645 417.802 18.8171 417.936 18.6023C418.069 18.3842 418.238 18.2149 418.443 18.0945C418.652 17.9708 418.899 17.9089 419.186 17.9089C419.251 17.9089 419.326 17.9171 419.41 17.9333C419.495 17.9464 419.553 17.961 419.586 17.9773Z" fill="#32375E"/>
<g opacity="0.9">
<path d="M515.614 21.4929C515.614 21.3269 515.588 21.1804 515.536 21.0535C515.487 20.9233 515.399 20.8061 515.272 20.7019C515.149 20.5977 514.976 20.4985 514.755 20.4041C514.537 20.3097 514.26 20.2136 513.925 20.116C513.573 20.0118 513.256 19.8962 512.973 19.7693C512.689 19.6391 512.447 19.491 512.245 19.325C512.043 19.1589 511.889 18.9685 511.781 18.7537C511.674 18.5388 511.62 18.2931 511.62 18.0164C511.62 17.7397 511.677 17.4841 511.791 17.2498C511.905 17.0154 512.068 16.8119 512.279 16.6394C512.494 16.4636 512.75 16.3269 513.046 16.2292C513.342 16.1316 513.673 16.0828 514.037 16.0828C514.571 16.0828 515.023 16.1853 515.395 16.3904C515.769 16.5922 516.054 16.8575 516.249 17.1863C516.444 17.5118 516.542 17.8601 516.542 18.2312H515.604C515.604 17.9643 515.548 17.7283 515.434 17.5232C515.32 17.3149 515.147 17.1521 514.916 17.0349C514.685 16.9145 514.392 16.8542 514.037 16.8542C513.702 16.8542 513.425 16.9047 513.207 17.0056C512.989 17.1065 512.826 17.2432 512.719 17.4158C512.615 17.5883 512.562 17.7852 512.562 18.0066C512.562 18.1563 512.593 18.2931 512.655 18.4167C512.72 18.5372 512.82 18.6495 512.953 18.7537C513.09 18.8578 513.262 18.9539 513.471 19.0417C513.682 19.1296 513.935 19.2143 514.228 19.2957C514.631 19.4096 514.979 19.5365 515.272 19.6765C515.565 19.8165 515.806 19.9744 515.995 20.1501C516.187 20.3227 516.329 20.5196 516.42 20.741C516.514 20.9591 516.562 21.2065 516.562 21.4832C516.562 21.7729 516.503 22.0349 516.386 22.2693C516.269 22.5037 516.101 22.7039 515.883 22.8699C515.665 23.0359 515.403 23.1645 515.097 23.2556C514.794 23.3435 514.455 23.3875 514.081 23.3875C513.752 23.3875 513.428 23.3419 513.109 23.2507C512.794 23.1596 512.506 23.0229 512.245 22.8406C511.988 22.6583 511.781 22.4337 511.625 22.1667C511.472 21.8966 511.396 21.5841 511.396 21.2292H512.333C512.333 21.4734 512.38 21.6833 512.475 21.8591C512.569 22.0317 512.698 22.1749 512.86 22.2888C513.026 22.4028 513.214 22.4874 513.422 22.5427C513.633 22.5948 513.853 22.6208 514.081 22.6208C514.41 22.6208 514.688 22.5753 514.916 22.4841C515.144 22.393 515.316 22.2628 515.434 22.0935C515.554 21.9242 515.614 21.724 515.614 21.4929ZM518.607 18.0066V23.2898H517.699V18.0066H518.607ZM517.631 16.6052C517.631 16.4587 517.675 16.335 517.763 16.2341C517.854 16.1332 517.987 16.0828 518.163 16.0828C518.336 16.0828 518.467 16.1332 518.559 16.2341C518.653 16.335 518.7 16.4587 518.7 16.6052C518.7 16.7452 518.653 16.8656 518.559 16.9666C518.467 17.0642 518.336 17.113 518.163 17.113C517.987 17.113 517.854 17.0642 517.763 16.9666C517.675 16.8656 517.631 16.7452 517.631 16.6052ZM520.961 19.1345V23.2898H520.058V18.0066H520.912L520.961 19.1345ZM520.746 20.448L520.37 20.4333C520.373 20.072 520.427 19.7384 520.531 19.4324C520.635 19.1231 520.782 18.8546 520.971 18.6267C521.16 18.3988 521.384 18.2231 521.645 18.0994C521.908 17.9724 522.2 17.9089 522.519 17.9089C522.779 17.9089 523.013 17.9447 523.222 18.0164C523.43 18.0847 523.607 18.1954 523.754 18.3484C523.904 18.5014 524.018 18.7 524.096 18.9441C524.174 19.185 524.213 19.4796 524.213 19.8279V23.2898H523.305V19.8181C523.305 19.5414 523.264 19.3201 523.183 19.1541C523.101 18.9848 522.982 18.8627 522.826 18.7878C522.67 18.7097 522.478 18.6707 522.25 18.6707C522.025 18.6707 521.82 18.7179 521.635 18.8123C521.452 18.9067 521.295 19.0369 521.161 19.2029C521.031 19.3689 520.928 19.5593 520.854 19.7742C520.782 19.9858 520.746 20.2104 520.746 20.448ZM529.008 18.0066H529.828V23.1775C529.828 23.643 529.734 24.0401 529.545 24.3689C529.356 24.6977 529.092 24.9467 528.754 25.116C528.419 25.2885 528.031 25.3748 527.592 25.3748C527.41 25.3748 527.195 25.3455 526.947 25.2869C526.703 25.2315 526.462 25.1355 526.225 24.9988C525.99 24.8653 525.793 24.6847 525.634 24.4568L526.107 23.9197C526.329 24.1866 526.56 24.3722 526.801 24.4763C527.045 24.5805 527.286 24.6326 527.523 24.6326C527.81 24.6326 528.057 24.5789 528.266 24.4714C528.474 24.364 528.635 24.2045 528.749 23.9929C528.866 23.7846 528.925 23.5274 528.925 23.2214V19.1687L529.008 18.0066ZM525.37 20.7068V20.6042C525.37 20.2006 525.417 19.8344 525.512 19.5056C525.609 19.1736 525.748 18.8888 525.927 18.6511C526.109 18.4135 526.329 18.2312 526.586 18.1042C526.843 17.974 527.133 17.9089 527.455 17.9089C527.787 17.9089 528.077 17.9675 528.324 18.0847C528.575 18.1986 528.786 18.3663 528.959 18.5876C529.135 18.8057 529.273 19.0694 529.374 19.3787C529.475 19.6879 529.545 20.0378 529.584 20.4285V20.8777C529.548 21.2651 529.478 21.6134 529.374 21.9226C529.273 22.2319 529.135 22.4955 528.959 22.7136C528.786 22.9317 528.575 23.0994 528.324 23.2166C528.074 23.3305 527.781 23.3875 527.445 23.3875C527.13 23.3875 526.843 23.3207 526.586 23.1873C526.332 23.0538 526.114 22.8666 525.932 22.6257C525.749 22.3848 525.609 22.1016 525.512 21.7761C525.417 21.4473 525.37 21.0909 525.37 20.7068ZM526.273 20.6042V20.7068C526.273 20.9705 526.299 21.2179 526.352 21.449C526.407 21.6801 526.49 21.8835 526.601 22.0593C526.715 22.2351 526.859 22.3735 527.035 22.4744C527.211 22.572 527.421 22.6208 527.665 22.6208C527.965 22.6208 528.212 22.5574 528.407 22.4304C528.603 22.3035 528.757 22.1358 528.871 21.9275C528.988 21.7192 529.079 21.4929 529.145 21.2488V20.072C529.109 19.893 529.053 19.7205 528.979 19.5544C528.907 19.3852 528.812 19.2354 528.695 19.1052C528.581 18.9718 528.44 18.866 528.271 18.7878C528.101 18.7097 527.903 18.6707 527.675 18.6707C527.427 18.6707 527.214 18.7227 527.035 18.8269C526.859 18.9278 526.715 19.0678 526.601 19.2468C526.49 19.4226 526.407 19.6277 526.352 19.8621C526.299 20.0932 526.273 20.3406 526.273 20.6042ZM532.182 15.7898V23.2898H531.273V15.7898H532.182ZM535.824 23.3875C535.456 23.3875 535.123 23.3256 534.823 23.2019C534.527 23.075 534.271 22.8975 534.057 22.6697C533.845 22.4418 533.682 22.1716 533.568 21.8591C533.454 21.5466 533.397 21.2048 533.397 20.8337V20.6287C533.397 20.199 533.461 19.8165 533.588 19.4812C533.715 19.1427 533.887 18.8562 534.105 18.6218C534.324 18.3875 534.571 18.21 534.848 18.0896C535.124 17.9692 535.411 17.9089 535.707 17.9089C536.085 17.9089 536.41 17.974 536.684 18.1042C536.96 18.2345 537.187 18.4167 537.362 18.6511C537.538 18.8822 537.668 19.1557 537.753 19.4714C537.838 19.7839 537.88 20.1257 537.88 20.4968V20.9021H533.935V20.1648H536.977V20.0964C536.964 19.8621 536.915 19.6342 536.83 19.4128C536.749 19.1915 536.618 19.0092 536.439 18.866C536.26 18.7227 536.016 18.6511 535.707 18.6511C535.502 18.6511 535.313 18.6951 535.141 18.783C534.968 18.8676 534.82 18.9945 534.696 19.1638C534.573 19.3331 534.477 19.5398 534.408 19.7839C534.34 20.0281 534.306 20.3097 534.306 20.6287V20.8337C534.306 21.0844 534.34 21.3204 534.408 21.5417C534.48 21.7598 534.582 21.9519 534.716 22.1179C534.853 22.2839 535.017 22.4141 535.209 22.5085C535.404 22.6029 535.626 22.6501 535.873 22.6501C536.192 22.6501 536.462 22.585 536.684 22.4548C536.905 22.3246 537.099 22.1505 537.265 21.9324L537.812 22.3669C537.698 22.5395 537.553 22.7039 537.377 22.8601C537.201 23.0164 536.985 23.1433 536.728 23.241C536.474 23.3386 536.173 23.3875 535.824 23.3875ZM542.318 19.0222V25.321H541.41V18.0066H542.24L542.318 19.0222ZM545.878 20.6042V20.7068C545.878 21.0909 545.832 21.4473 545.741 21.7761C545.65 22.1016 545.517 22.3848 545.341 22.6257C545.168 22.8666 544.955 23.0538 544.701 23.1873C544.447 23.3207 544.156 23.3875 543.827 23.3875C543.492 23.3875 543.196 23.3321 542.938 23.2214C542.681 23.1108 542.463 22.9496 542.284 22.738C542.105 22.5264 541.962 22.2725 541.854 21.9763C541.75 21.6801 541.679 21.3464 541.64 20.9753V20.4285C541.679 20.0378 541.752 19.6879 541.859 19.3787C541.967 19.0694 542.108 18.8057 542.284 18.5876C542.463 18.3663 542.68 18.1986 542.934 18.0847C543.188 17.9675 543.48 17.9089 543.812 17.9089C544.145 17.9089 544.439 17.974 544.696 18.1042C544.953 18.2312 545.17 18.4135 545.346 18.6511C545.521 18.8888 545.653 19.1736 545.741 19.5056C545.832 19.8344 545.878 20.2006 545.878 20.6042ZM544.97 20.7068V20.6042C544.97 20.3406 544.942 20.0932 544.887 19.8621C544.831 19.6277 544.745 19.4226 544.628 19.2468C544.514 19.0678 544.368 18.9278 544.188 18.8269C544.009 18.7227 543.796 18.6707 543.549 18.6707C543.321 18.6707 543.122 18.7097 542.953 18.7878C542.787 18.866 542.646 18.9718 542.528 19.1052C542.411 19.2354 542.315 19.3852 542.24 19.5544C542.169 19.7205 542.115 19.893 542.079 20.072V21.3367C542.144 21.5645 542.235 21.7794 542.353 21.9812C542.47 22.1798 542.626 22.3409 542.821 22.4646C543.017 22.585 543.262 22.6453 543.559 22.6453C543.803 22.6453 544.013 22.5948 544.188 22.4939C544.368 22.3897 544.514 22.2481 544.628 22.0691C544.745 21.8901 544.831 21.685 544.887 21.4539C544.942 21.2195 544.97 20.9705 544.97 20.7068ZM550.146 22.3865V19.6667C550.146 19.4584 550.103 19.2778 550.019 19.1248C549.937 18.9685 549.813 18.8481 549.647 18.7634C549.481 18.6788 549.276 18.6365 549.032 18.6365C548.804 18.6365 548.604 18.6755 548.432 18.7537C548.262 18.8318 548.129 18.9343 548.031 19.0613C547.937 19.1882 547.89 19.325 547.89 19.4714H546.986C546.986 19.2826 547.035 19.0955 547.133 18.9099C547.23 18.7244 547.37 18.5567 547.553 18.407C547.738 18.254 547.96 18.1335 548.217 18.0457C548.477 17.9545 548.767 17.9089 549.086 17.9089C549.47 17.9089 549.809 17.974 550.102 18.1042C550.398 18.2345 550.629 18.4314 550.795 18.6951C550.964 18.9555 551.049 19.2826 551.049 19.6765V22.1375C551.049 22.3132 551.063 22.5004 551.093 22.699C551.125 22.8975 551.173 23.0684 551.234 23.2117V23.2898H550.292C550.246 23.1856 550.211 23.0473 550.185 22.8748C550.159 22.699 550.146 22.5362 550.146 22.3865ZM550.302 20.0867L550.312 20.7214H549.398C549.141 20.7214 548.912 20.7426 548.71 20.7849C548.508 20.824 548.339 20.8842 548.202 20.9656C548.065 21.047 547.961 21.1495 547.89 21.2732C547.818 21.3936 547.782 21.5352 547.782 21.698C547.782 21.864 547.82 22.0154 547.895 22.1521C547.969 22.2888 548.082 22.3979 548.231 22.4792C548.384 22.5574 548.572 22.5964 548.793 22.5964C549.07 22.5964 549.314 22.5378 549.525 22.4207C549.737 22.3035 549.905 22.1602 550.028 21.991C550.155 21.8217 550.224 21.6573 550.233 21.4978L550.619 21.9324C550.596 22.0691 550.535 22.2205 550.434 22.3865C550.333 22.5525 550.198 22.712 550.028 22.865C549.862 23.0147 549.664 23.1401 549.433 23.241C549.205 23.3386 548.948 23.3875 548.661 23.3875C548.303 23.3875 547.989 23.3175 547.719 23.1775C547.452 23.0375 547.243 22.8503 547.094 22.616C546.947 22.3783 546.874 22.113 546.874 21.8201C546.874 21.5369 546.929 21.2878 547.04 21.073C547.151 20.8549 547.31 20.6742 547.519 20.531C547.727 20.3845 547.978 20.2738 548.271 20.199C548.563 20.1241 548.891 20.0867 549.252 20.0867H550.302ZM553.876 22.7429L555.346 18.0066H556.312L554.193 24.1052C554.145 24.2354 554.079 24.3754 553.998 24.5251C553.92 24.6781 553.819 24.823 553.695 24.9597C553.572 25.0964 553.422 25.2071 553.246 25.2917C553.074 25.3796 552.867 25.4236 552.626 25.4236C552.554 25.4236 552.463 25.4138 552.353 25.3943C552.242 25.3748 552.164 25.3585 552.118 25.3455L552.113 24.613C552.139 24.6163 552.18 24.6195 552.235 24.6228C552.294 24.6293 552.335 24.6326 552.357 24.6326C552.562 24.6326 552.737 24.6049 552.88 24.5496C553.023 24.4975 553.144 24.408 553.241 24.281C553.342 24.1573 553.428 23.9864 553.5 23.7683L553.876 22.7429ZM552.797 18.0066L554.169 22.1082L554.403 23.0603L553.754 23.3923L551.811 18.0066H552.797ZM558.026 19.0564V23.2898H557.118V18.0066H557.978L558.026 19.0564ZM557.841 20.448L557.421 20.4333C557.424 20.072 557.471 19.7384 557.562 19.4324C557.654 19.1231 557.789 18.8546 557.968 18.6267C558.147 18.3988 558.37 18.2231 558.637 18.0994C558.904 17.9724 559.213 17.9089 559.564 17.9089C559.812 17.9089 560.04 17.9447 560.248 18.0164C560.456 18.0847 560.637 18.1938 560.79 18.3435C560.943 18.4932 561.062 18.6853 561.146 18.9197C561.231 19.1541 561.273 19.4373 561.273 19.7693V23.2898H560.37V19.8132C560.37 19.5365 560.323 19.3152 560.229 19.1492C560.137 18.9832 560.007 18.8627 559.838 18.7878C559.669 18.7097 559.47 18.6707 559.242 18.6707C558.975 18.6707 558.752 18.7179 558.573 18.8123C558.394 18.9067 558.251 19.0369 558.144 19.2029C558.036 19.3689 557.958 19.5593 557.909 19.7742C557.864 19.9858 557.841 20.2104 557.841 20.448ZM561.264 19.95L560.658 20.1355C560.661 19.8458 560.709 19.5675 560.8 19.3005C560.894 19.0336 561.029 18.796 561.205 18.5876C561.384 18.3793 561.604 18.2149 561.864 18.0945C562.125 17.9708 562.423 17.9089 562.758 17.9089C563.041 17.9089 563.292 17.9464 563.51 18.0212C563.731 18.0961 563.917 18.2117 564.066 18.3679C564.219 18.5209 564.335 18.7179 564.413 18.9587C564.491 19.1996 564.53 19.4861 564.53 19.8181V23.2898H563.622V19.8083C563.622 19.5121 563.575 19.2826 563.48 19.1199C563.389 18.9539 563.259 18.8383 563.09 18.7732C562.924 18.7048 562.725 18.6707 562.494 18.6707C562.296 18.6707 562.12 18.7048 561.967 18.7732C561.814 18.8416 561.685 18.936 561.581 19.0564C561.477 19.1736 561.397 19.3087 561.342 19.4617C561.29 19.6147 561.264 19.7774 561.264 19.95ZM568.09 23.3875C567.722 23.3875 567.388 23.3256 567.089 23.2019C566.793 23.075 566.537 22.8975 566.322 22.6697C566.111 22.4418 565.948 22.1716 565.834 21.8591C565.72 21.5466 565.663 21.2048 565.663 20.8337V20.6287C565.663 20.199 565.727 19.8165 565.854 19.4812C565.98 19.1427 566.153 18.8562 566.371 18.6218C566.589 18.3875 566.837 18.21 567.113 18.0896C567.39 17.9692 567.676 17.9089 567.973 17.9089C568.35 17.9089 568.676 17.974 568.949 18.1042C569.226 18.2345 569.452 18.4167 569.628 18.6511C569.804 18.8822 569.934 19.1557 570.019 19.4714C570.103 19.7839 570.146 20.1257 570.146 20.4968V20.9021H566.2V20.1648H569.242V20.0964C569.229 19.8621 569.18 19.6342 569.096 19.4128C569.014 19.1915 568.884 19.0092 568.705 18.866C568.526 18.7227 568.282 18.6511 567.973 18.6511C567.768 18.6511 567.579 18.6951 567.406 18.783C567.234 18.8676 567.086 18.9945 566.962 19.1638C566.838 19.3331 566.742 19.5398 566.674 19.7839C566.605 20.0281 566.571 20.3097 566.571 20.6287V20.8337C566.571 21.0844 566.605 21.3204 566.674 21.5417C566.745 21.7598 566.848 21.9519 566.981 22.1179C567.118 22.2839 567.283 22.4141 567.475 22.5085C567.67 22.6029 567.891 22.6501 568.139 22.6501C568.458 22.6501 568.728 22.585 568.949 22.4548C569.171 22.3246 569.364 22.1505 569.53 21.9324L570.077 22.3669C569.963 22.5395 569.818 22.7039 569.643 22.8601C569.467 23.0164 569.25 23.1433 568.993 23.241C568.739 23.3386 568.438 23.3875 568.09 23.3875ZM572.104 19.1345V23.2898H571.2V18.0066H572.055L572.104 19.1345ZM571.889 20.448L571.513 20.4333C571.516 20.072 571.57 19.7384 571.674 19.4324C571.778 19.1231 571.924 18.8546 572.113 18.6267C572.302 18.3988 572.527 18.2231 572.787 18.0994C573.051 17.9724 573.342 17.9089 573.661 17.9089C573.922 17.9089 574.156 17.9447 574.364 18.0164C574.573 18.0847 574.75 18.1954 574.896 18.3484C575.046 18.5014 575.16 18.7 575.238 18.9441C575.316 19.185 575.355 19.4796 575.355 19.8279V23.2898H574.447V19.8181C574.447 19.5414 574.407 19.3201 574.325 19.1541C574.244 18.9848 574.125 18.8627 573.969 18.7878C573.812 18.7097 573.62 18.6707 573.393 18.6707C573.168 18.6707 572.963 18.7179 572.777 18.8123C572.595 18.9067 572.437 19.0369 572.304 19.2029C572.174 19.3689 572.071 19.5593 571.996 19.7742C571.924 19.9858 571.889 20.2104 571.889 20.448ZM578.939 18.0066V18.7H576.083V18.0066H578.939ZM577.05 16.7224H577.953V21.9812C577.953 22.1602 577.981 22.2953 578.036 22.3865C578.091 22.4776 578.163 22.5378 578.251 22.5671C578.339 22.5964 578.433 22.6111 578.534 22.6111C578.609 22.6111 578.687 22.6046 578.769 22.5916C578.853 22.5753 578.917 22.5623 578.959 22.5525L578.964 23.2898C578.892 23.3126 578.798 23.3337 578.681 23.3533C578.567 23.3761 578.428 23.3875 578.266 23.3875C578.044 23.3875 577.841 23.3435 577.655 23.2556C577.47 23.1677 577.322 23.0212 577.211 22.8162C577.104 22.6078 577.05 22.3279 577.05 21.9763V16.7224Z" fill="#32375E"/>
</g>
<g opacity="0.9">
<path d="M669.56 16.1414V23.2898H668.656V17.2693L666.835 17.9333V17.1179L669.418 16.1414H669.56ZM673.134 22.2156V22.9431C673.134 23.2393 673.059 23.5518 672.909 23.8806C672.759 24.2126 672.549 24.4893 672.279 24.7107L671.767 24.3542C671.871 24.211 671.959 24.0645 672.03 23.9148C672.102 23.7683 672.156 23.6153 672.191 23.4558C672.23 23.2996 672.25 23.1335 672.25 22.9578V22.2156H673.134ZM675.331 19.906L674.608 19.7205L674.965 16.1804H678.612V17.0154H675.731L675.517 18.949C675.647 18.8741 675.811 18.8041 676.01 18.739C676.212 18.6739 676.443 18.6414 676.703 18.6414C677.032 18.6414 677.326 18.6983 677.587 18.8123C677.847 18.9229 678.069 19.0824 678.251 19.2908C678.437 19.4991 678.578 19.7498 678.676 20.0427C678.773 20.3357 678.822 20.6628 678.822 21.0242C678.822 21.366 678.775 21.6801 678.681 21.9666C678.59 22.253 678.451 22.5037 678.266 22.7185C678.08 22.9301 677.846 23.0945 677.562 23.2117C677.283 23.3289 676.952 23.3875 676.571 23.3875C676.285 23.3875 676.013 23.3484 675.756 23.2703C675.502 23.1889 675.274 23.0668 675.072 22.9041C674.874 22.738 674.711 22.533 674.584 22.2888C674.46 22.0414 674.382 21.7517 674.35 21.4197H675.209C675.248 21.6866 675.326 21.9112 675.443 22.0935C675.561 22.2758 675.714 22.4141 675.902 22.5085C676.094 22.5997 676.317 22.6453 676.571 22.6453C676.786 22.6453 676.977 22.6078 677.143 22.533C677.309 22.4581 677.449 22.3507 677.562 22.2107C677.676 22.0707 677.763 21.9014 677.821 21.7029C677.883 21.5043 677.914 21.2813 677.914 21.0339C677.914 20.8093 677.883 20.601 677.821 20.4089C677.759 20.2169 677.667 20.0492 677.543 19.906C677.423 19.7628 677.274 19.6521 677.099 19.574C676.923 19.4926 676.721 19.4519 676.493 19.4519C676.19 19.4519 675.961 19.4926 675.805 19.574C675.652 19.6554 675.494 19.766 675.331 19.906ZM682.782 16.1414V23.2898H681.879V17.2693L680.058 17.9333V17.1179L682.641 16.1414H682.782ZM686.581 19.906L685.858 19.7205L686.215 16.1804H689.862V17.0154H686.981L686.767 18.949C686.897 18.8741 687.061 18.8041 687.26 18.739C687.462 18.6739 687.693 18.6414 687.953 18.6414C688.282 18.6414 688.576 18.6983 688.837 18.8123C689.097 18.9229 689.319 19.0824 689.501 19.2908C689.687 19.4991 689.828 19.7498 689.926 20.0427C690.023 20.3357 690.072 20.6628 690.072 21.0242C690.072 21.366 690.025 21.6801 689.931 21.9666C689.84 22.253 689.701 22.5037 689.516 22.7185C689.33 22.9301 689.096 23.0945 688.812 23.2117C688.533 23.3289 688.202 23.3875 687.821 23.3875C687.535 23.3875 687.263 23.3484 687.006 23.2703C686.752 23.1889 686.524 23.0668 686.322 22.9041C686.124 22.738 685.961 22.533 685.834 22.2888C685.71 22.0414 685.632 21.7517 685.6 21.4197H686.459C686.498 21.6866 686.576 21.9112 686.693 22.0935C686.811 22.2758 686.964 22.4141 687.152 22.5085C687.344 22.5997 687.567 22.6453 687.821 22.6453C688.036 22.6453 688.227 22.6078 688.393 22.533C688.559 22.4581 688.699 22.3507 688.812 22.2107C688.926 22.0707 689.013 21.9014 689.071 21.7029C689.133 21.5043 689.164 21.2813 689.164 21.0339C689.164 20.8093 689.133 20.601 689.071 20.4089C689.009 20.2169 688.917 20.0492 688.793 19.906C688.673 19.7628 688.524 19.6521 688.349 19.574C688.173 19.4926 687.971 19.4519 687.743 19.4519C687.44 19.4519 687.211 19.4926 687.055 19.574C686.902 19.6554 686.744 19.766 686.581 19.906ZM691.176 22.8113C691.176 22.6583 691.223 22.5297 691.317 22.4255C691.415 22.3181 691.555 22.2644 691.737 22.2644C691.92 22.2644 692.058 22.3181 692.152 22.4255C692.25 22.5297 692.299 22.6583 692.299 22.8113C692.299 22.961 692.25 23.088 692.152 23.1921C692.058 23.2963 691.92 23.3484 691.737 23.3484C691.555 23.3484 691.415 23.2963 691.317 23.1921C691.223 23.088 691.176 22.961 691.176 22.8113ZM698.163 19.1687V20.2527C698.163 20.8354 698.111 21.3269 698.007 21.7273C697.903 22.1277 697.753 22.45 697.558 22.6941C697.362 22.9382 697.126 23.1156 696.85 23.2263C696.576 23.3337 696.267 23.3875 695.922 23.3875C695.648 23.3875 695.396 23.3533 695.165 23.2849C694.934 23.2166 694.726 23.1075 694.54 22.9578C694.358 22.8048 694.201 22.6062 694.071 22.3621C693.941 22.1179 693.842 21.8217 693.773 21.4734C693.705 21.1251 693.671 20.7182 693.671 20.2527V19.1687C693.671 18.586 693.723 18.0977 693.827 17.7039C693.935 17.31 694.086 16.9942 694.281 16.7566C694.477 16.5157 694.711 16.3432 694.984 16.239C695.261 16.1348 695.57 16.0828 695.912 16.0828C696.189 16.0828 696.443 16.1169 696.674 16.1853C696.908 16.2504 697.117 16.3562 697.299 16.5027C697.481 16.6459 697.636 16.838 697.763 17.0789C697.893 17.3165 697.992 17.6078 698.061 17.9529C698.129 18.2979 698.163 18.7032 698.163 19.1687ZM697.255 20.3992V19.0173C697.255 18.6983 697.235 18.4184 697.196 18.1775C697.16 17.9333 697.107 17.725 697.035 17.5525C696.964 17.38 696.872 17.24 696.762 17.1326C696.654 17.0251 696.529 16.947 696.386 16.8982C696.246 16.8461 696.088 16.8201 695.912 16.8201C695.697 16.8201 695.507 16.8608 695.341 16.9421C695.175 17.0203 695.035 17.1456 694.921 17.3181C694.81 17.4906 694.726 17.7169 694.667 17.9968C694.608 18.2768 694.579 18.6169 694.579 19.0173V20.3992C694.579 20.7182 694.597 20.9998 694.633 21.2439C694.672 21.488 694.729 21.6996 694.804 21.8787C694.879 22.0544 694.97 22.1993 695.077 22.3132C695.185 22.4272 695.308 22.5118 695.448 22.5671C695.591 22.6192 695.749 22.6453 695.922 22.6453C696.143 22.6453 696.337 22.6029 696.503 22.5183C696.669 22.4337 696.807 22.3018 696.918 22.1228C697.032 21.9405 697.117 21.7078 697.172 21.4246C697.227 21.1381 697.255 20.7963 697.255 20.3992ZM703.788 19.1687V20.2527C703.788 20.8354 703.736 21.3269 703.632 21.7273C703.528 22.1277 703.378 22.45 703.183 22.6941C702.987 22.9382 702.751 23.1156 702.475 23.2263C702.201 23.3337 701.892 23.3875 701.547 23.3875C701.273 23.3875 701.021 23.3533 700.79 23.2849C700.559 23.2166 700.351 23.1075 700.165 22.9578C699.983 22.8048 699.826 22.6062 699.696 22.3621C699.566 22.1179 699.467 21.8217 699.398 21.4734C699.33 21.1251 699.296 20.7182 699.296 20.2527V19.1687C699.296 18.586 699.348 18.0977 699.452 17.7039C699.56 17.31 699.711 16.9942 699.906 16.7566C700.102 16.5157 700.336 16.3432 700.609 16.239C700.886 16.1348 701.195 16.0828 701.537 16.0828C701.814 16.0828 702.068 16.1169 702.299 16.1853C702.533 16.2504 702.742 16.3562 702.924 16.5027C703.106 16.6459 703.261 16.838 703.388 17.0789C703.518 17.3165 703.617 17.6078 703.686 17.9529C703.754 18.2979 703.788 18.7032 703.788 19.1687ZM702.88 20.3992V19.0173C702.88 18.6983 702.86 18.4184 702.821 18.1775C702.785 17.9333 702.732 17.725 702.66 17.5525C702.589 17.38 702.497 17.24 702.387 17.1326C702.279 17.0251 702.154 16.947 702.011 16.8982C701.871 16.8461 701.713 16.8201 701.537 16.8201C701.322 16.8201 701.132 16.8608 700.966 16.9421C700.8 17.0203 700.66 17.1456 700.546 17.3181C700.435 17.4906 700.351 17.7169 700.292 17.9968C700.233 18.2768 700.204 18.6169 700.204 19.0173V20.3992C700.204 20.7182 700.222 20.9998 700.258 21.2439C700.297 21.488 700.354 21.6996 700.429 21.8787C700.504 22.0544 700.595 22.1993 700.702 22.3132C700.81 22.4272 700.933 22.5118 701.073 22.5671C701.216 22.6192 701.374 22.6453 701.547 22.6453C701.768 22.6453 701.962 22.6029 702.128 22.5183C702.294 22.4337 702.432 22.3018 702.543 22.1228C702.657 21.9405 702.742 21.7078 702.797 21.4246C702.852 21.1381 702.88 20.7963 702.88 20.3992Z" fill="#32375E"/>
</g>
<g opacity="0.9">
<path d="M725.893 16.1804H726.83V20.99C726.83 21.5238 726.711 21.9682 726.474 22.323C726.236 22.6778 725.92 22.9447 725.526 23.1238C725.136 23.2996 724.711 23.3875 724.252 23.3875C723.77 23.3875 723.334 23.2996 722.943 23.1238C722.556 22.9447 722.248 22.6778 722.021 22.323C721.796 21.9682 721.684 21.5238 721.684 20.99V16.1804H722.616V20.99C722.616 21.3611 722.685 21.6671 722.821 21.908C722.958 22.1488 723.148 22.3279 723.393 22.4451C723.64 22.5623 723.926 22.6208 724.252 22.6208C724.581 22.6208 724.867 22.5623 725.111 22.4451C725.359 22.3279 725.551 22.1488 725.688 21.908C725.824 21.6671 725.893 21.3611 725.893 20.99V16.1804ZM732.099 21.4929C732.099 21.3269 732.073 21.1804 732.021 21.0535C731.972 20.9233 731.884 20.8061 731.757 20.7019C731.633 20.5977 731.461 20.4985 731.239 20.4041C731.021 20.3097 730.744 20.2136 730.409 20.116C730.058 20.0118 729.74 19.8962 729.457 19.7693C729.174 19.6391 728.931 19.491 728.729 19.325C728.528 19.1589 728.373 18.9685 728.266 18.7537C728.158 18.5388 728.104 18.2931 728.104 18.0164C728.104 17.7397 728.161 17.4841 728.275 17.2498C728.389 17.0154 728.552 16.8119 728.764 16.6394C728.979 16.4636 729.234 16.3269 729.53 16.2292C729.826 16.1316 730.157 16.0828 730.521 16.0828C731.055 16.0828 731.508 16.1853 731.879 16.3904C732.253 16.5922 732.538 16.8575 732.733 17.1863C732.929 17.5118 733.026 17.8601 733.026 18.2312H732.089C732.089 17.9643 732.032 17.7283 731.918 17.5232C731.804 17.3149 731.632 17.1521 731.4 17.0349C731.169 16.9145 730.876 16.8542 730.521 16.8542C730.186 16.8542 729.91 16.9047 729.691 17.0056C729.473 17.1065 729.311 17.2432 729.203 17.4158C729.099 17.5883 729.047 17.7852 729.047 18.0066C729.047 18.1563 729.078 18.2931 729.14 18.4167C729.205 18.5372 729.304 18.6495 729.438 18.7537C729.574 18.8578 729.747 18.9539 729.955 19.0417C730.167 19.1296 730.419 19.2143 730.712 19.2957C731.116 19.4096 731.464 19.5365 731.757 19.6765C732.05 19.8165 732.291 19.9744 732.479 20.1501C732.672 20.3227 732.813 20.5196 732.904 20.741C732.999 20.9591 733.046 21.2065 733.046 21.4832C733.046 21.7729 732.987 22.0349 732.87 22.2693C732.753 22.5037 732.585 22.7039 732.367 22.8699C732.149 23.0359 731.887 23.1645 731.581 23.2556C731.278 23.3435 730.94 23.3875 730.565 23.3875C730.237 23.3875 729.913 23.3419 729.594 23.2507C729.278 23.1596 728.99 23.0229 728.729 22.8406C728.472 22.6583 728.266 22.4337 728.109 22.1667C727.956 21.8966 727.88 21.5841 727.88 21.2292H728.817C728.817 21.4734 728.865 21.6833 728.959 21.8591C729.053 22.0317 729.182 22.1749 729.345 22.2888C729.511 22.4028 729.698 22.4874 729.906 22.5427C730.118 22.5948 730.338 22.6208 730.565 22.6208C730.894 22.6208 731.173 22.5753 731.4 22.4841C731.628 22.393 731.801 22.2628 731.918 22.0935C732.038 21.9242 732.099 21.724 732.099 21.4929ZM736.171 23.2898H734.687L734.696 22.5232H736.171C736.679 22.5232 737.102 22.4174 737.44 22.2058C737.779 21.991 738.033 21.6915 738.202 21.3074C738.375 20.92 738.461 20.4675 738.461 19.95V19.5154C738.461 19.1085 738.412 18.7472 738.314 18.4314C738.217 18.1124 738.074 17.8438 737.885 17.6257C737.696 17.4044 737.465 17.2367 737.191 17.1228C736.921 17.0089 736.61 16.9519 736.259 16.9519H734.657V16.1804H736.259C736.724 16.1804 737.149 16.2585 737.533 16.4148C737.917 16.5678 738.248 16.7908 738.524 17.0837C738.804 17.3735 739.019 17.725 739.169 18.1384C739.319 18.5486 739.394 19.0108 739.394 19.5251V19.95C739.394 20.4643 739.319 20.9281 739.169 21.3416C739.019 21.7517 738.803 22.1016 738.52 22.3914C738.24 22.6811 737.901 22.9041 737.504 23.0603C737.11 23.2133 736.666 23.2898 736.171 23.2898ZM735.189 16.1804V23.2898H734.247V16.1804H735.189Z" fill="#32375E"/>
</g>
<g opacity="0.9">
<path d="M817.054 19.1687V20.2527C817.054 20.8354 817.002 21.3269 816.897 21.7273C816.793 22.1277 816.644 22.45 816.448 22.6941C816.253 22.9382 816.017 23.1156 815.74 23.2263C815.467 23.3337 815.158 23.3875 814.812 23.3875C814.539 23.3875 814.287 23.3533 814.056 23.2849C813.825 23.2166 813.616 23.1075 813.431 22.9578C813.248 22.8048 813.092 22.6062 812.962 22.3621C812.832 22.1179 812.732 21.8217 812.664 21.4734C812.596 21.1251 812.562 20.7182 812.562 20.2527V19.1687C812.562 18.586 812.614 18.0977 812.718 17.7039C812.825 17.31 812.977 16.9942 813.172 16.7566C813.367 16.5157 813.602 16.3432 813.875 16.239C814.152 16.1348 814.461 16.0828 814.803 16.0828C815.079 16.0828 815.333 16.1169 815.564 16.1853C815.799 16.2504 816.007 16.3562 816.189 16.5027C816.372 16.6459 816.526 16.838 816.653 17.0789C816.784 17.3165 816.883 17.6078 816.951 17.9529C817.02 18.2979 817.054 18.7032 817.054 19.1687ZM816.146 20.3992V19.0173C816.146 18.6983 816.126 18.4184 816.087 18.1775C816.051 17.9333 815.997 17.725 815.926 17.5525C815.854 17.38 815.763 17.24 815.652 17.1326C815.545 17.0251 815.42 16.947 815.276 16.8982C815.136 16.8461 814.979 16.8201 814.803 16.8201C814.588 16.8201 814.397 16.8608 814.231 16.9421C814.065 17.0203 813.925 17.1456 813.812 17.3181C813.701 17.4906 813.616 17.7169 813.558 17.9968C813.499 18.2768 813.47 18.6169 813.47 19.0173V20.3992C813.47 20.7182 813.488 20.9998 813.523 21.2439C813.562 21.488 813.619 21.6996 813.694 21.8787C813.769 22.0544 813.86 22.1993 813.968 22.3132C814.075 22.4272 814.199 22.5118 814.339 22.5671C814.482 22.6192 814.64 22.6453 814.812 22.6453C815.034 22.6453 815.228 22.6029 815.394 22.5183C815.56 22.4337 815.698 22.3018 815.809 22.1228C815.923 21.9405 816.007 21.7078 816.062 21.4246C816.118 21.1381 816.146 20.7963 816.146 20.3992ZM821.458 16.1804L818.494 23.9001H817.718L820.687 16.1804H821.458ZM825.315 16.1414V23.2898H824.412V17.2693L822.591 17.9333V17.1179L825.174 16.1414H825.315Z" fill="#32375E"/>
</g>
<g opacity="0.9">
<path d="M903.054 19.1687V20.2527C903.054 20.8354 903.002 21.3269 902.897 21.7273C902.793 22.1277 902.644 22.45 902.448 22.6941C902.253 22.9382 902.017 23.1156 901.74 23.2263C901.467 23.3337 901.158 23.3875 900.812 23.3875C900.539 23.3875 900.287 23.3533 900.056 23.2849C899.825 23.2166 899.616 23.1075 899.431 22.9578C899.248 22.8048 899.092 22.6062 898.962 22.3621C898.832 22.1179 898.732 21.8217 898.664 21.4734C898.596 21.1251 898.562 20.7182 898.562 20.2527V19.1687C898.562 18.586 898.614 18.0977 898.718 17.7039C898.825 17.31 898.977 16.9942 899.172 16.7566C899.367 16.5157 899.602 16.3432 899.875 16.239C900.152 16.1348 900.461 16.0828 900.803 16.0828C901.079 16.0828 901.333 16.1169 901.564 16.1853C901.799 16.2504 902.007 16.3562 902.189 16.5027C902.372 16.6459 902.526 16.838 902.653 17.0789C902.784 17.3165 902.883 17.6078 902.951 17.9529C903.02 18.2979 903.054 18.7032 903.054 19.1687ZM902.146 20.3992V19.0173C902.146 18.6983 902.126 18.4184 902.087 18.1775C902.051 17.9333 901.997 17.725 901.926 17.5525C901.854 17.38 901.763 17.24 901.652 17.1326C901.545 17.0251 901.42 16.947 901.276 16.8982C901.136 16.8461 900.979 16.8201 900.803 16.8201C900.588 16.8201 900.397 16.8608 900.231 16.9421C900.065 17.0203 899.925 17.1456 899.812 17.3181C899.701 17.4906 899.616 17.7169 899.558 17.9968C899.499 18.2768 899.47 18.6169 899.47 19.0173V20.3992C899.47 20.7182 899.488 20.9998 899.523 21.2439C899.562 21.488 899.619 21.6996 899.694 21.8787C899.769 22.0544 899.86 22.1993 899.968 22.3132C900.075 22.4272 900.199 22.5118 900.339 22.5671C900.482 22.6192 900.64 22.6453 900.812 22.6453C901.034 22.6453 901.228 22.6029 901.394 22.5183C901.56 22.4337 901.698 22.3018 901.809 22.1228C901.923 21.9405 902.007 21.7078 902.062 21.4246C902.118 21.1381 902.146 20.7963 902.146 20.3992ZM904.328 22.8113C904.328 22.6583 904.375 22.5297 904.47 22.4255C904.567 22.3181 904.707 22.2644 904.89 22.2644C905.072 22.2644 905.21 22.3181 905.305 22.4255C905.402 22.5297 905.451 22.6583 905.451 22.8113C905.451 22.961 905.402 23.088 905.305 23.1921C905.21 23.2963 905.072 23.3484 904.89 23.3484C904.707 23.3484 904.567 23.2963 904.47 23.1921C904.375 23.088 904.328 22.961 904.328 22.8113ZM911.315 19.1687V20.2527C911.315 20.8354 911.263 21.3269 911.159 21.7273C911.055 22.1277 910.905 22.45 910.71 22.6941C910.515 22.9382 910.279 23.1156 910.002 23.2263C909.729 23.3337 909.419 23.3875 909.074 23.3875C908.801 23.3875 908.549 23.3533 908.317 23.2849C908.086 23.2166 907.878 23.1075 907.692 22.9578C907.51 22.8048 907.354 22.6062 907.224 22.3621C907.093 22.1179 906.994 21.8217 906.926 21.4734C906.857 21.1251 906.823 20.7182 906.823 20.2527V19.1687C906.823 18.586 906.875 18.0977 906.979 17.7039C907.087 17.31 907.238 16.9942 907.434 16.7566C907.629 16.5157 907.863 16.3432 908.137 16.239C908.413 16.1348 908.723 16.0828 909.064 16.0828C909.341 16.0828 909.595 16.1169 909.826 16.1853C910.061 16.2504 910.269 16.3562 910.451 16.5027C910.633 16.6459 910.788 16.838 910.915 17.0789C911.045 17.3165 911.145 17.6078 911.213 17.9529C911.281 18.2979 911.315 18.7032 911.315 19.1687ZM910.407 20.3992V19.0173C910.407 18.6983 910.388 18.4184 910.349 18.1775C910.313 17.9333 910.259 17.725 910.188 17.5525C910.116 17.38 910.025 17.24 909.914 17.1326C909.807 17.0251 909.681 16.947 909.538 16.8982C909.398 16.8461 909.24 16.8201 909.064 16.8201C908.85 16.8201 908.659 16.8608 908.493 16.9421C908.327 17.0203 908.187 17.1456 908.073 17.3181C907.963 17.4906 907.878 17.7169 907.819 17.9968C907.761 18.2768 907.731 18.6169 907.731 19.0173V20.3992C907.731 20.7182 907.749 20.9998 907.785 21.2439C907.824 21.488 907.881 21.6996 907.956 21.8787C908.031 22.0544 908.122 22.1993 908.229 22.3132C908.337 22.4272 908.461 22.5118 908.601 22.5671C908.744 22.6192 908.902 22.6453 909.074 22.6453C909.296 22.6453 909.489 22.6029 909.655 22.5183C909.821 22.4337 909.96 22.3018 910.07 22.1228C910.184 21.9405 910.269 21.7078 910.324 21.4246C910.38 21.1381 910.407 20.7963 910.407 20.3992ZM916.94 19.1687V20.2527C916.94 20.8354 916.888 21.3269 916.784 21.7273C916.68 22.1277 916.53 22.45 916.335 22.6941C916.14 22.9382 915.904 23.1156 915.627 23.2263C915.354 23.3337 915.044 23.3875 914.699 23.3875C914.426 23.3875 914.174 23.3533 913.942 23.2849C913.711 23.2166 913.503 23.1075 913.317 22.9578C913.135 22.8048 912.979 22.6062 912.849 22.3621C912.718 22.1179 912.619 21.8217 912.551 21.4734C912.482 21.1251 912.448 20.7182 912.448 20.2527V19.1687C912.448 18.586 912.5 18.0977 912.604 17.7039C912.712 17.31 912.863 16.9942 913.059 16.7566C913.254 16.5157 913.488 16.3432 913.762 16.239C914.038 16.1348 914.348 16.0828 914.689 16.0828C914.966 16.0828 915.22 16.1169 915.451 16.1853C915.686 16.2504 915.894 16.3562 916.076 16.5027C916.258 16.6459 916.413 16.838 916.54 17.0789C916.67 17.3165 916.77 17.6078 916.838 17.9529C916.906 18.2979 916.94 18.7032 916.94 19.1687ZM916.032 20.3992V19.0173C916.032 18.6983 916.013 18.4184 915.974 18.1775C915.938 17.9333 915.884 17.725 915.812 17.5525C915.741 17.38 915.65 17.24 915.539 17.1326C915.432 17.0251 915.306 16.947 915.163 16.8982C915.023 16.8461 914.865 16.8201 914.689 16.8201C914.475 16.8201 914.284 16.8608 914.118 16.9421C913.952 17.0203 913.812 17.1456 913.698 17.3181C913.588 17.4906 913.503 17.7169 913.444 17.9968C913.386 18.2768 913.356 18.6169 913.356 19.0173V20.3992C913.356 20.7182 913.374 20.9998 913.41 21.2439C913.449 21.488 913.506 21.6996 913.581 21.8787C913.656 22.0544 913.747 22.1993 913.854 22.3132C913.962 22.4272 914.086 22.5118 914.226 22.5671C914.369 22.6192 914.527 22.6453 914.699 22.6453C914.921 22.6453 915.114 22.6029 915.28 22.5183C915.446 22.4337 915.585 22.3018 915.695 22.1228C915.809 21.9405 915.894 21.7078 915.949 21.4246C916.005 21.1381 916.032 20.7963 916.032 20.3992Z" fill="#32375E"/>
</g>
</svg>
