<svg width="934" height="41" viewBox="0 0 934 41" fill="none" xmlns="http://www.w3.org/2000/svg">
<rect y="0.289795" width="934" height="40" rx="12" fill="white"/>
<path d="M20.0002 26.9565C16.3182 26.9565 13.3335 23.9718 13.3335 20.2898C13.3335 16.6078 16.3182 13.6232 20.0002 13.6232C23.6822 13.6232 26.6668 16.6078 26.6668 20.2898C26.6668 23.9718 23.6822 26.9565 20.0002 26.9565ZM20.0002 25.6232C21.4147 25.6232 22.7712 25.0613 23.7714 24.0611C24.7716 23.0609 25.3335 21.7043 25.3335 20.2898C25.3335 18.8753 24.7716 17.5188 23.7714 16.5186C22.7712 15.5184 21.4147 14.9565 20.0002 14.9565C18.5857 14.9565 17.2291 15.5184 16.2289 16.5186C15.2287 17.5188 14.6668 18.8753 14.6668 20.2898C14.6668 21.7043 15.2287 23.0609 16.2289 24.0611C17.2291 25.0613 18.5857 25.6232 20.0002 25.6232ZM18.0002 18.2898H22.0002V22.2898H18.0002V18.2898Z" fill="#414144"/>
<g opacity="0.9">
<path d="M45.0537 19.1687V20.2527C45.0537 20.8354 45.0016 21.3269 44.8975 21.7273C44.7933 22.1277 44.6436 22.45 44.4482 22.6941C44.2529 22.9382 44.0169 23.1156 43.7402 23.2263C43.4668 23.3337 43.1576 23.3875 42.8125 23.3875C42.5391 23.3875 42.2868 23.3533 42.0557 23.2849C41.8245 23.2166 41.6162 23.1075 41.4307 22.9578C41.2484 22.8048 41.0921 22.6062 40.9619 22.3621C40.8317 22.1179 40.7324 21.8217 40.6641 21.4734C40.5957 21.1251 40.5615 20.7182 40.5615 20.2527V19.1687C40.5615 18.586 40.6136 18.0977 40.7178 17.7039C40.8252 17.31 40.9766 16.9942 41.1719 16.7566C41.3672 16.5157 41.6016 16.3432 41.875 16.239C42.1517 16.1348 42.4609 16.0828 42.8027 16.0828C43.0794 16.0828 43.3333 16.1169 43.5645 16.1853C43.7988 16.2504 44.0072 16.3562 44.1895 16.5027C44.3717 16.6459 44.5264 16.838 44.6533 17.0789C44.7835 17.3165 44.8828 17.6078 44.9512 17.9529C45.0195 18.2979 45.0537 18.7032 45.0537 19.1687ZM44.1455 20.3992V19.0173C44.1455 18.6983 44.126 18.4184 44.0869 18.1775C44.0511 17.9333 43.9974 17.725 43.9258 17.5525C43.8542 17.38 43.763 17.24 43.6523 17.1326C43.5449 17.0251 43.4196 16.947 43.2764 16.8982C43.1364 16.8461 42.9785 16.8201 42.8027 16.8201C42.5879 16.8201 42.3975 16.8608 42.2314 16.9421C42.0654 17.0203 41.9255 17.1456 41.8115 17.3181C41.7008 17.4906 41.6162 17.7169 41.5576 17.9968C41.499 18.2768 41.4697 18.6169 41.4697 19.0173V20.3992C41.4697 20.7182 41.4876 20.9998 41.5234 21.2439C41.5625 21.488 41.6195 21.6996 41.6943 21.8787C41.7692 22.0544 41.8604 22.1993 41.9678 22.3132C42.0752 22.4272 42.1989 22.5118 42.3389 22.5671C42.4821 22.6192 42.64 22.6453 42.8125 22.6453C43.0339 22.6453 43.2275 22.6029 43.3936 22.5183C43.5596 22.4337 43.6979 22.3018 43.8086 22.1228C43.9225 21.9405 44.0072 21.7078 44.0625 21.4246C44.1178 21.1381 44.1455 20.7963 44.1455 20.3992ZM51.0205 20.8972V21.6394H45.8838V21.1072L49.0674 16.1804H49.8047L49.0137 17.6062L46.9092 20.8972H51.0205ZM50.0293 16.1804V23.2898H49.126V16.1804H50.0293ZM53.8184 19.8962V20.6384H51.4355V19.8962H53.8184ZM57.4707 16.8103L55.1172 23.2898H54.1553L56.8652 16.1804H57.4854L57.4707 16.8103ZM59.4434 23.2898L57.085 16.8103L57.0703 16.1804H57.6904L60.4102 23.2898H59.4434ZM59.3213 20.658V21.4294H55.3271V20.658H59.3213ZM62.1289 19.0222V25.321H61.2207V18.0066H62.0508L62.1289 19.0222ZM65.6885 20.6042V20.7068C65.6885 21.0909 65.6429 21.4473 65.5518 21.7761C65.4606 22.1016 65.3271 22.3848 65.1514 22.6257C64.9788 22.8666 64.7656 23.0538 64.5117 23.1873C64.2578 23.3207 63.9665 23.3875 63.6377 23.3875C63.3024 23.3875 63.0062 23.3321 62.749 23.2214C62.4919 23.1108 62.2738 22.9496 62.0947 22.738C61.9157 22.5264 61.7725 22.2725 61.665 21.9763C61.5609 21.6801 61.4893 21.3464 61.4502 20.9753V20.4285C61.4893 20.0378 61.5625 19.6879 61.6699 19.3787C61.7773 19.0694 61.9189 18.8057 62.0947 18.5876C62.2738 18.3663 62.4902 18.1986 62.7441 18.0847C62.998 17.9675 63.291 17.9089 63.623 17.9089C63.9551 17.9089 64.2497 17.974 64.5068 18.1042C64.764 18.2312 64.9805 18.4135 65.1562 18.6511C65.332 18.8888 65.4639 19.1736 65.5518 19.5056C65.6429 19.8344 65.6885 20.2006 65.6885 20.6042ZM64.7803 20.7068V20.6042C64.7803 20.3406 64.7526 20.0932 64.6973 19.8621C64.6419 19.6277 64.5557 19.4226 64.4385 19.2468C64.3245 19.0678 64.1781 18.9278 63.999 18.8269C63.82 18.7227 63.6068 18.6707 63.3594 18.6707C63.1315 18.6707 62.9329 18.7097 62.7637 18.7878C62.5977 18.866 62.4561 18.9718 62.3389 19.1052C62.2217 19.2354 62.1257 19.3852 62.0508 19.5544C61.9792 19.7205 61.9255 19.893 61.8896 20.072V21.3367C61.9548 21.5645 62.0459 21.7794 62.1631 21.9812C62.2803 22.1798 62.4365 22.3409 62.6318 22.4646C62.8271 22.585 63.0729 22.6453 63.3691 22.6453C63.6133 22.6453 63.8232 22.5948 63.999 22.4939C64.1781 22.3897 64.3245 22.2481 64.4385 22.0691C64.5557 21.8901 64.6419 21.685 64.6973 21.4539C64.7526 21.2195 64.7803 20.9705 64.7803 20.7068ZM67.7441 18.8367V23.2898H66.8408V18.0066H67.7197L67.7441 18.8367ZM69.3945 17.9773L69.3896 18.8171C69.3148 18.8009 69.2432 18.7911 69.1748 18.7878C69.1097 18.7813 69.0348 18.7781 68.9502 18.7781C68.7419 18.7781 68.5579 18.8106 68.3984 18.8757C68.2389 18.9408 68.1038 19.032 67.9932 19.1492C67.8825 19.2664 67.7946 19.4063 67.7295 19.5691C67.6676 19.7286 67.627 19.9044 67.6074 20.0964L67.3535 20.2429C67.3535 19.9239 67.3844 19.6244 67.4463 19.3445C67.5114 19.0645 67.6107 18.8171 67.7441 18.6023C67.8776 18.3842 68.0469 18.2149 68.252 18.0945C68.4603 17.9708 68.7077 17.9089 68.9941 17.9089C69.0592 17.9089 69.1341 17.9171 69.2188 17.9333C69.3034 17.9464 69.362 17.961 69.3945 17.9773ZM72.1094 19.8962V20.6384H69.7266V19.8962H72.1094ZM77.5537 22.5476V23.2898H72.9004V22.6404L75.2295 20.0476C75.516 19.7286 75.7373 19.4584 75.8936 19.2371C76.0531 19.0125 76.1637 18.8123 76.2256 18.6365C76.2907 18.4574 76.3232 18.2751 76.3232 18.0896C76.3232 17.8552 76.2744 17.6436 76.1768 17.4548C76.0824 17.2628 75.9424 17.1098 75.7568 16.9958C75.5713 16.8819 75.3467 16.825 75.083 16.825C74.7673 16.825 74.5036 16.8868 74.292 17.0105C74.0837 17.1309 73.9274 17.3002 73.8232 17.5183C73.7191 17.7364 73.667 17.9871 73.667 18.2703H72.7637C72.7637 17.8699 72.8516 17.5037 73.0273 17.1716C73.2031 16.8396 73.4635 16.5759 73.8086 16.3806C74.1536 16.182 74.5785 16.0828 75.083 16.0828C75.5322 16.0828 75.9163 16.1625 76.2354 16.322C76.5544 16.4783 76.7985 16.6996 76.9678 16.9861C77.1403 17.2693 77.2266 17.6013 77.2266 17.9822C77.2266 18.1905 77.1908 18.4021 77.1191 18.6169C77.0508 18.8285 76.9548 19.0401 76.8311 19.2517C76.7106 19.4633 76.569 19.6716 76.4062 19.8767C76.2467 20.0818 76.0758 20.2836 75.8936 20.4822L73.9893 22.5476H77.5537ZM83.1787 22.5476V23.2898H78.5254V22.6404L80.8545 20.0476C81.141 19.7286 81.3623 19.4584 81.5186 19.2371C81.6781 19.0125 81.7887 18.8123 81.8506 18.6365C81.9157 18.4574 81.9482 18.2751 81.9482 18.0896C81.9482 17.8552 81.8994 17.6436 81.8018 17.4548C81.7074 17.2628 81.5674 17.1098 81.3818 16.9958C81.1963 16.8819 80.9717 16.825 80.708 16.825C80.3923 16.825 80.1286 16.8868 79.917 17.0105C79.7087 17.1309 79.5524 17.3002 79.4482 17.5183C79.3441 17.7364 79.292 17.9871 79.292 18.2703H78.3887C78.3887 17.8699 78.4766 17.5037 78.6523 17.1716C78.8281 16.8396 79.0885 16.5759 79.4336 16.3806C79.7786 16.182 80.2035 16.0828 80.708 16.0828C81.1572 16.0828 81.5413 16.1625 81.8604 16.322C82.1794 16.4783 82.4235 16.6996 82.5928 16.9861C82.7653 17.2693 82.8516 17.6013 82.8516 17.9822C82.8516 18.1905 82.8158 18.4021 82.7441 18.6169C82.6758 18.8285 82.5798 19.0401 82.4561 19.2517C82.3356 19.4633 82.194 19.6716 82.0312 19.8767C81.8717 20.0818 81.7008 20.2836 81.5186 20.4822L79.6143 22.5476H83.1787ZM89.5947 16.1414V23.2898H88.6914V17.2693L86.8701 17.9333V17.1179L89.4531 16.1414H89.5947ZM96.8457 16.1804V16.6882L93.9014 23.2898H92.9492L95.8887 16.9226H92.041V16.1804H96.8457ZM97.9346 22.8113C97.9346 22.6583 97.9818 22.5297 98.0762 22.4255C98.1738 22.3181 98.3138 22.2644 98.4961 22.2644C98.6784 22.2644 98.8167 22.3181 98.9111 22.4255C99.0088 22.5297 99.0576 22.6583 99.0576 22.8113C99.0576 22.961 99.0088 23.088 98.9111 23.1921C98.8167 23.2963 98.6784 23.3484 98.4961 23.3484C98.3138 23.3484 98.1738 23.2963 98.0762 23.1921C97.9818 23.088 97.9346 22.961 97.9346 22.8113ZM97.9395 18.4998C97.9395 18.3468 97.9867 18.2182 98.0811 18.114C98.1787 18.0066 98.3187 17.9529 98.501 17.9529C98.6833 17.9529 98.8216 18.0066 98.916 18.114C99.0137 18.2182 99.0625 18.3468 99.0625 18.4998C99.0625 18.6495 99.0137 18.7764 98.916 18.8806C98.8216 18.9848 98.6833 19.0369 98.501 19.0369C98.3187 19.0369 98.1787 18.9848 98.0811 18.8806C97.9867 18.7764 97.9395 18.6495 97.9395 18.4998ZM101.44 19.906L100.718 19.7205L101.074 16.1804H104.722V17.0154H101.841L101.626 18.949C101.756 18.8741 101.921 18.8041 102.119 18.739C102.321 18.6739 102.552 18.6414 102.812 18.6414C103.141 18.6414 103.436 18.6983 103.696 18.8123C103.957 18.9229 104.178 19.0824 104.36 19.2908C104.546 19.4991 104.688 19.7498 104.785 20.0427C104.883 20.3357 104.932 20.6628 104.932 21.0242C104.932 21.366 104.884 21.6801 104.79 21.9666C104.699 22.253 104.561 22.5037 104.375 22.7185C104.189 22.9301 103.955 23.0945 103.672 23.2117C103.392 23.3289 103.062 23.3875 102.681 23.3875C102.394 23.3875 102.122 23.3484 101.865 23.2703C101.611 23.1889 101.383 23.0668 101.182 22.9041C100.983 22.738 100.82 22.533 100.693 22.2888C100.57 22.0414 100.492 21.7517 100.459 21.4197H101.318C101.357 21.6866 101.436 21.9112 101.553 22.0935C101.67 22.2758 101.823 22.4141 102.012 22.5085C102.204 22.5997 102.427 22.6453 102.681 22.6453C102.896 22.6453 103.086 22.6078 103.252 22.533C103.418 22.4581 103.558 22.3507 103.672 22.2107C103.786 22.0707 103.872 21.9014 103.931 21.7029C103.993 21.5043 104.023 21.2813 104.023 21.0339C104.023 20.8093 103.993 20.601 103.931 20.4089C103.869 20.2169 103.776 20.0492 103.652 19.906C103.532 19.7628 103.384 19.6521 103.208 19.574C103.032 19.4926 102.83 19.4519 102.603 19.4519C102.3 19.4519 102.07 19.4926 101.914 19.574C101.761 19.6554 101.603 19.766 101.44 19.906ZM110.581 22.5476V23.2898H105.928V22.6404L108.257 20.0476C108.543 19.7286 108.765 19.4584 108.921 19.2371C109.08 19.0125 109.191 18.8123 109.253 18.6365C109.318 18.4574 109.351 18.2751 109.351 18.0896C109.351 17.8552 109.302 17.6436 109.204 17.4548C109.11 17.2628 108.97 17.1098 108.784 16.9958C108.599 16.8819 108.374 16.825 108.11 16.825C107.795 16.825 107.531 16.8868 107.319 17.0105C107.111 17.1309 106.955 17.3002 106.851 17.5183C106.746 17.7364 106.694 17.9871 106.694 18.2703H105.791C105.791 17.8699 105.879 17.5037 106.055 17.1716C106.23 16.8396 106.491 16.5759 106.836 16.3806C107.181 16.182 107.606 16.0828 108.11 16.0828C108.56 16.0828 108.944 16.1625 109.263 16.322C109.582 16.4783 109.826 16.6996 109.995 16.9861C110.168 17.2693 110.254 17.6013 110.254 17.9822C110.254 18.1905 110.218 18.4021 110.146 18.6169C110.078 18.8285 109.982 19.0401 109.858 19.2517C109.738 19.4633 109.596 19.6716 109.434 19.8767C109.274 20.0818 109.103 20.2836 108.921 20.4822L107.017 22.5476H110.581Z" fill="#32375E"/>
</g>
<g opacity="0.9">
<path d="M196.249 22.5476V23.2898H191.596V22.6404L193.925 20.0476C194.211 19.7286 194.433 19.4584 194.589 19.2371C194.748 19.0125 194.859 18.8123 194.921 18.6365C194.986 18.4574 195.019 18.2751 195.019 18.0896C195.019 17.8552 194.97 17.6436 194.872 17.4548C194.778 17.2628 194.638 17.1098 194.452 16.9958C194.267 16.8819 194.042 16.825 193.778 16.825C193.463 16.825 193.199 16.8868 192.987 17.0105C192.779 17.1309 192.623 17.3002 192.519 17.5183C192.414 17.7364 192.362 17.9871 192.362 18.2703H191.459C191.459 17.8699 191.547 17.5037 191.723 17.1716C191.898 16.8396 192.159 16.5759 192.504 16.3806C192.849 16.182 193.274 16.0828 193.778 16.0828C194.228 16.0828 194.612 16.1625 194.931 16.322C195.25 16.4783 195.494 16.6996 195.663 16.9861C195.836 17.2693 195.922 17.6013 195.922 17.9822C195.922 18.1905 195.886 18.4021 195.814 18.6169C195.746 18.8285 195.65 19.0401 195.526 19.2517C195.406 19.4633 195.264 19.6716 195.102 19.8767C194.942 20.0818 194.771 20.2836 194.589 20.4822L192.685 22.5476H196.249ZM202.021 20.8972V21.6394H196.884V21.1072L200.067 16.1804H200.805L200.014 17.6062L197.909 20.8972H202.021ZM201.029 16.1804V23.2898H200.126V16.1804H201.029ZM207.436 16.1804V16.6882L204.491 23.2898H203.539L206.479 16.9226H202.631V16.1804H207.436ZM209.608 19.906L208.886 19.7205L209.242 16.1804H212.89V17.0154H210.009L209.794 18.949C209.924 18.8741 210.089 18.8041 210.287 18.739C210.489 18.6739 210.72 18.6414 210.98 18.6414C211.309 18.6414 211.604 18.6983 211.864 18.8123C212.125 18.9229 212.346 19.0824 212.528 19.2908C212.714 19.4991 212.855 19.7498 212.953 20.0427C213.051 20.3357 213.1 20.6628 213.1 21.0242C213.1 21.366 213.052 21.6801 212.958 21.9666C212.867 22.253 212.729 22.5037 212.543 22.7185C212.357 22.9301 212.123 23.0945 211.84 23.2117C211.56 23.3289 211.229 23.3875 210.849 23.3875C210.562 23.3875 210.29 23.3484 210.033 23.2703C209.779 23.1889 209.551 23.0668 209.35 22.9041C209.151 22.738 208.988 22.533 208.861 22.2888C208.738 22.0414 208.66 21.7517 208.627 21.4197H209.486C209.525 21.6866 209.604 21.9112 209.721 22.0935C209.838 22.2758 209.991 22.4141 210.18 22.5085C210.372 22.5997 210.595 22.6453 210.849 22.6453C211.063 22.6453 211.254 22.6078 211.42 22.533C211.586 22.4581 211.726 22.3507 211.84 22.2107C211.954 22.0707 212.04 21.9014 212.099 21.7029C212.16 21.5043 212.191 21.2813 212.191 21.0339C212.191 20.8093 212.16 20.601 212.099 20.4089C212.037 20.2169 211.944 20.0492 211.82 19.906C211.7 19.7628 211.552 19.6521 211.376 19.574C211.2 19.4926 210.998 19.4519 210.771 19.4519C210.468 19.4519 210.238 19.4926 210.082 19.574C209.929 19.6554 209.771 19.766 209.608 19.906Z" fill="#3F7BDA"/>
</g>
<g opacity="0.9">
<path d="M230.825 16.1804H233.179C233.713 16.1804 234.163 16.2618 234.531 16.4246C234.902 16.5873 235.184 16.8282 235.376 17.1472C235.571 17.463 235.669 17.852 235.669 18.3142C235.669 18.6397 235.602 18.9376 235.469 19.2078C235.339 19.4747 235.15 19.7026 234.902 19.8914C234.658 20.0769 234.365 20.2153 234.023 20.3064L233.76 20.4089H231.548L231.538 19.6423H233.208C233.547 19.6423 233.828 19.5837 234.053 19.4666C234.277 19.3461 234.447 19.185 234.561 18.9832C234.674 18.7813 234.731 18.5583 234.731 18.3142C234.731 18.0408 234.678 17.8015 234.57 17.5964C234.463 17.3914 234.294 17.2335 234.062 17.1228C233.835 17.0089 233.54 16.9519 233.179 16.9519H231.768V23.2898H230.825V16.1804ZM234.98 23.2898L233.252 20.0671L234.233 20.0623L235.986 23.2312V23.2898H234.98ZM241.504 22.5232V23.2898H237.739V22.5232H241.504ZM237.93 16.1804V23.2898H236.987V16.1804H237.93ZM241.006 19.2371V20.0037H237.739V19.2371H241.006ZM241.455 16.1804V16.9519H237.739V16.1804H241.455ZM246.963 21.0291H247.9C247.852 21.4783 247.723 21.8803 247.515 22.2351C247.306 22.5899 247.012 22.8715 246.631 23.0798C246.25 23.2849 245.775 23.3875 245.205 23.3875C244.788 23.3875 244.409 23.3093 244.067 23.1531C243.729 22.9968 243.438 22.7755 243.193 22.489C242.949 22.1993 242.76 21.8526 242.627 21.449C242.497 21.0421 242.432 20.5896 242.432 20.0916V19.3835C242.432 18.8855 242.497 18.4347 242.627 18.031C242.76 17.6241 242.951 17.2758 243.198 16.9861C243.449 16.6964 243.75 16.4734 244.102 16.3171C244.453 16.1609 244.849 16.0828 245.288 16.0828C245.825 16.0828 246.279 16.1837 246.65 16.3855C247.021 16.5873 247.31 16.8673 247.515 17.2253C247.723 17.5802 247.852 17.9919 247.9 18.4607H246.963C246.917 18.1287 246.833 17.8438 246.709 17.6062C246.585 17.3653 246.41 17.1798 246.182 17.0496C245.954 16.9194 245.656 16.8542 245.288 16.8542C244.972 16.8542 244.694 16.9145 244.453 17.0349C244.215 17.1554 244.015 17.3263 243.853 17.5476C243.693 17.769 243.573 18.0343 243.491 18.3435C243.41 18.6528 243.369 18.9962 243.369 19.3738V20.0916C243.369 20.4399 243.405 20.767 243.477 21.073C243.551 21.379 243.664 21.6475 243.813 21.8787C243.963 22.1098 244.154 22.2921 244.385 22.4255C244.616 22.5557 244.889 22.6208 245.205 22.6208C245.605 22.6208 245.924 22.5574 246.162 22.4304C246.4 22.3035 246.579 22.1212 246.699 21.8835C246.823 21.6459 246.911 21.3611 246.963 21.0291ZM253.252 16.1804H254.189V20.99C254.189 21.5238 254.071 21.9682 253.833 22.323C253.595 22.6778 253.28 22.9447 252.886 23.1238C252.495 23.2996 252.07 23.3875 251.611 23.3875C251.13 23.3875 250.693 23.2996 250.303 23.1238C249.915 22.9447 249.608 22.6778 249.38 22.323C249.155 21.9682 249.043 21.5238 249.043 20.99V16.1804H249.976V20.99C249.976 21.3611 250.044 21.6671 250.181 21.908C250.317 22.1488 250.508 22.3279 250.752 22.4451C250.999 22.5623 251.286 22.6208 251.611 22.6208C251.94 22.6208 252.227 22.5623 252.471 22.4451C252.718 22.3279 252.91 22.1488 253.047 21.908C253.184 21.6671 253.252 21.3611 253.252 20.99V16.1804ZM261.138 16.1804V23.2898H260.19L256.611 17.8064V23.2898H255.669V16.1804H256.611L260.205 21.6785V16.1804H261.138ZM266.597 21.4929C266.597 21.3269 266.571 21.1804 266.519 21.0535C266.47 20.9233 266.382 20.8061 266.255 20.7019C266.131 20.5977 265.959 20.4985 265.737 20.4041C265.519 20.3097 265.243 20.2136 264.907 20.116C264.556 20.0118 264.238 19.8962 263.955 19.7693C263.672 19.6391 263.429 19.491 263.228 19.325C263.026 19.1589 262.871 18.9685 262.764 18.7537C262.656 18.5388 262.603 18.2931 262.603 18.0164C262.603 17.7397 262.66 17.4841 262.773 17.2498C262.887 17.0154 263.05 16.8119 263.262 16.6394C263.477 16.4636 263.732 16.3269 264.028 16.2292C264.325 16.1316 264.655 16.0828 265.02 16.0828C265.553 16.0828 266.006 16.1853 266.377 16.3904C266.751 16.5922 267.036 16.8575 267.231 17.1863C267.427 17.5118 267.524 17.8601 267.524 18.2312H266.587C266.587 17.9643 266.53 17.7283 266.416 17.5232C266.302 17.3149 266.13 17.1521 265.898 17.0349C265.667 16.9145 265.374 16.8542 265.02 16.8542C264.684 16.8542 264.408 16.9047 264.189 17.0056C263.971 17.1065 263.809 17.2432 263.701 17.4158C263.597 17.5883 263.545 17.7852 263.545 18.0066C263.545 18.1563 263.576 18.2931 263.638 18.4167C263.703 18.5372 263.802 18.6495 263.936 18.7537C264.072 18.8578 264.245 18.9539 264.453 19.0417C264.665 19.1296 264.917 19.2143 265.21 19.2957C265.614 19.4096 265.962 19.5365 266.255 19.6765C266.548 19.8165 266.789 19.9744 266.978 20.1501C267.17 20.3227 267.311 20.5196 267.402 20.741C267.497 20.9591 267.544 21.2065 267.544 21.4832C267.544 21.7729 267.485 22.0349 267.368 22.2693C267.251 22.5037 267.083 22.7039 266.865 22.8699C266.647 23.0359 266.385 23.1645 266.079 23.2556C265.776 23.3435 265.438 23.3875 265.063 23.3875C264.735 23.3875 264.411 23.3419 264.092 23.2507C263.776 23.1596 263.488 23.0229 263.228 22.8406C262.97 22.6583 262.764 22.4337 262.607 22.1667C262.454 21.8966 262.378 21.5841 262.378 21.2292H263.315C263.315 21.4734 263.363 21.6833 263.457 21.8591C263.551 22.0317 263.68 22.1749 263.843 22.2888C264.009 22.4028 264.196 22.4874 264.404 22.5427C264.616 22.5948 264.836 22.6208 265.063 22.6208C265.392 22.6208 265.671 22.5753 265.898 22.4841C266.126 22.393 266.299 22.2628 266.416 22.0935C266.536 21.9242 266.597 21.724 266.597 21.4929ZM270.488 19.8962V20.6384H268.105V19.8962H270.488ZM272.417 19.906L271.694 19.7205L272.051 16.1804H275.698V17.0154H272.817L272.603 18.949C272.733 18.8741 272.897 18.8041 273.096 18.739C273.298 18.6739 273.529 18.6414 273.789 18.6414C274.118 18.6414 274.412 18.6983 274.673 18.8123C274.933 18.9229 275.155 19.0824 275.337 19.2908C275.522 19.4991 275.664 19.7498 275.762 20.0427C275.859 20.3357 275.908 20.6628 275.908 21.0242C275.908 21.366 275.861 21.6801 275.767 21.9666C275.675 22.253 275.537 22.5037 275.352 22.7185C275.166 22.9301 274.932 23.0945 274.648 23.2117C274.368 23.3289 274.038 23.3875 273.657 23.3875C273.371 23.3875 273.099 23.3484 272.842 23.2703C272.588 23.1889 272.36 23.0668 272.158 22.9041C271.96 22.738 271.797 22.533 271.67 22.2888C271.546 22.0414 271.468 21.7517 271.436 21.4197H272.295C272.334 21.6866 272.412 21.9112 272.529 22.0935C272.646 22.2758 272.799 22.4141 272.988 22.5085C273.18 22.5997 273.403 22.6453 273.657 22.6453C273.872 22.6453 274.062 22.6078 274.229 22.533C274.395 22.4581 274.535 22.3507 274.648 22.2107C274.762 22.0707 274.849 21.9014 274.907 21.7029C274.969 21.5043 275 21.2813 275 21.0339C275 20.8093 274.969 20.601 274.907 20.4089C274.845 20.2169 274.753 20.0492 274.629 19.906C274.508 19.7628 274.36 19.6521 274.185 19.574C274.009 19.4926 273.807 19.4519 273.579 19.4519C273.276 19.4519 273.047 19.4926 272.891 19.574C272.738 19.6554 272.58 19.766 272.417 19.906ZM281.558 22.5476V23.2898H276.904V22.6404L279.233 20.0476C279.52 19.7286 279.741 19.4584 279.897 19.2371C280.057 19.0125 280.168 18.8123 280.229 18.6365C280.295 18.4574 280.327 18.2751 280.327 18.0896C280.327 17.8552 280.278 17.6436 280.181 17.4548C280.086 17.2628 279.946 17.1098 279.761 16.9958C279.575 16.8819 279.351 16.825 279.087 16.825C278.771 16.825 278.507 16.8868 278.296 17.0105C278.088 17.1309 277.931 17.3002 277.827 17.5183C277.723 17.7364 277.671 17.9871 277.671 18.2703H276.768C276.768 17.8699 276.855 17.5037 277.031 17.1716C277.207 16.8396 277.467 16.5759 277.812 16.3806C278.158 16.182 278.582 16.0828 279.087 16.0828C279.536 16.0828 279.92 16.1625 280.239 16.322C280.558 16.4783 280.802 16.6996 280.972 16.9861C281.144 17.2693 281.23 17.6013 281.23 17.9822C281.23 18.1905 281.195 18.4021 281.123 18.6169C281.055 18.8285 280.959 19.0401 280.835 19.2517C280.715 19.4633 280.573 19.6716 280.41 19.8767C280.251 20.0818 280.08 20.2836 279.897 20.4822L277.993 22.5476H281.558Z" fill="#32375E"/>
</g>
<path d="M327 14.2898C327 10.9761 329.686 8.28979 333 8.28979H345C348.314 8.28979 351 10.9761 351 14.2898V26.2898C351 29.6035 348.314 32.2898 345 32.2898H333C329.686 32.2898 327 29.6035 327 26.2898V14.2898Z" fill="#F0F5F9"/>
<path d="M337.215 21.1296V17.1023H337.965V21.1296C337.965 21.5046 337.888 21.821 337.734 22.0789C337.581 22.3367 337.368 22.5333 337.098 22.6687C336.829 22.8015 336.521 22.8679 336.172 22.8679C335.823 22.8679 335.513 22.808 335.242 22.6882C334.971 22.5684 334.759 22.3861 334.605 22.1414C334.452 21.8966 334.375 21.588 334.375 21.2156H335.129C335.129 21.4552 335.173 21.6518 335.262 21.8054C335.35 21.9591 335.473 22.0723 335.629 22.1453C335.788 22.2182 335.969 22.2546 336.172 22.2546C336.37 22.2546 336.547 22.213 336.703 22.1296C336.862 22.0437 336.987 21.9174 337.078 21.7507C337.169 21.5815 337.215 21.3744 337.215 21.1296ZM340.781 22.7898H339.594L339.602 22.1765H340.781C341.188 22.1765 341.526 22.0919 341.797 21.9226C342.068 21.7507 342.271 21.5111 342.406 21.2039C342.544 20.894 342.613 20.532 342.613 20.1179V19.7703C342.613 19.4447 342.574 19.1557 342.496 18.9031C342.418 18.6479 342.303 18.433 342.152 18.2585C342.001 18.0815 341.816 17.9473 341.598 17.8562C341.382 17.7651 341.133 17.7195 340.852 17.7195H339.57V17.1023H340.852C341.224 17.1023 341.564 17.1648 341.871 17.2898C342.178 17.4122 342.443 17.5906 342.664 17.825C342.888 18.0567 343.06 18.338 343.18 18.6687C343.299 18.9968 343.359 19.3666 343.359 19.7781V20.1179C343.359 20.5294 343.299 20.9005 343.18 21.2312C343.06 21.5593 342.887 21.8393 342.66 22.071C342.436 22.3028 342.165 22.4812 341.848 22.6062C341.533 22.7286 341.177 22.7898 340.781 22.7898ZM339.996 17.1023V22.7898H339.242V17.1023H339.996Z" fill="#32375E"/>
<path d="M361.156 14.071L362.285 10.1023H362.832L362.516 11.6453L361.301 15.7898H360.758L361.156 14.071ZM359.988 10.1023L360.887 13.9929L361.156 15.7898H360.617L359.238 10.1023H359.988ZM364.293 13.989L365.172 10.1023H365.926L364.551 15.7898H364.012L364.293 13.989ZM362.914 10.1023L364.012 14.071L364.41 15.7898H363.867L362.695 11.6453L362.375 10.1023H362.914ZM369.012 15.0671V12.8914C369.012 12.7247 368.978 12.5802 368.91 12.4578C368.845 12.3328 368.746 12.2364 368.613 12.1687C368.48 12.101 368.316 12.0671 368.121 12.0671C367.939 12.0671 367.779 12.0984 367.641 12.1609C367.505 12.2234 367.398 12.3054 367.32 12.407C367.245 12.5085 367.207 12.6179 367.207 12.7351H366.484C366.484 12.5841 366.523 12.4343 366.602 12.2859C366.68 12.1375 366.792 12.0033 366.938 11.8835C367.086 11.7611 367.263 11.6648 367.469 11.5945C367.677 11.5216 367.909 11.4851 368.164 11.4851C368.471 11.4851 368.742 11.5372 368.977 11.6414C369.214 11.7455 369.398 11.9031 369.531 12.114C369.667 12.3223 369.734 12.5841 369.734 12.8992V14.8679C369.734 15.0085 369.746 15.1583 369.77 15.3171C369.796 15.476 369.833 15.6127 369.883 15.7273V15.7898H369.129C369.092 15.7065 369.064 15.5958 369.043 15.4578C369.022 15.3171 369.012 15.1869 369.012 15.0671ZM369.137 13.2273L369.145 13.7351H368.414C368.208 13.7351 368.025 13.752 367.863 13.7859C367.702 13.8171 367.566 13.8653 367.457 13.9304C367.348 13.9955 367.264 14.0776 367.207 14.1765C367.15 14.2729 367.121 14.3861 367.121 14.5164C367.121 14.6492 367.151 14.7703 367.211 14.8796C367.271 14.989 367.361 15.0763 367.48 15.1414C367.603 15.2039 367.753 15.2351 367.93 15.2351C368.151 15.2351 368.346 15.1882 368.516 15.0945C368.685 15.0007 368.819 14.8861 368.918 14.7507C369.02 14.6153 369.074 14.4838 369.082 14.3562L369.391 14.7039C369.372 14.8132 369.323 14.9343 369.242 15.0671C369.161 15.2 369.053 15.3276 368.918 15.45C368.785 15.5697 368.626 15.67 368.441 15.7507C368.259 15.8289 368.053 15.8679 367.824 15.8679C367.538 15.8679 367.286 15.8119 367.07 15.7C366.857 15.588 366.69 15.4382 366.57 15.2507C366.453 15.0606 366.395 14.8484 366.395 14.614C366.395 14.3875 366.439 14.1882 366.527 14.0164C366.616 13.8419 366.743 13.6973 366.91 13.5828C367.077 13.4656 367.277 13.377 367.512 13.3171C367.746 13.2572 368.008 13.2273 368.297 13.2273H369.137ZM371.996 15.3523L373.172 11.5632H373.945L372.25 16.4421C372.211 16.5463 372.159 16.6583 372.094 16.7781C372.031 16.9005 371.951 17.0164 371.852 17.1257C371.753 17.2351 371.633 17.3236 371.492 17.3914C371.354 17.4617 371.189 17.4968 370.996 17.4968C370.939 17.4968 370.866 17.489 370.777 17.4734C370.689 17.4578 370.626 17.4447 370.59 17.4343L370.586 16.8484C370.607 16.851 370.639 16.8536 370.684 16.8562C370.73 16.8614 370.763 16.864 370.781 16.864C370.945 16.864 371.085 16.8419 371.199 16.7976C371.314 16.7559 371.41 16.6843 371.488 16.5828C371.569 16.4838 371.638 16.3471 371.695 16.1726L371.996 15.3523ZM371.133 11.5632L372.23 14.8445L372.418 15.6062L371.898 15.8718L370.344 11.5632H371.133ZM375.32 12.4656V15.7898H374.598V11.5632H375.281L375.32 12.4656ZM375.148 13.5164L374.848 13.5046C374.85 13.2156 374.893 12.9486 374.977 12.7039C375.06 12.4565 375.177 12.2416 375.328 12.0593C375.479 11.877 375.659 11.7364 375.867 11.6375C376.078 11.5359 376.311 11.4851 376.566 11.4851C376.775 11.4851 376.962 11.5138 377.129 11.571C377.296 11.6257 377.438 11.7143 377.555 11.8367C377.674 11.9591 377.766 12.1179 377.828 12.3132C377.891 12.5059 377.922 12.7416 377.922 13.0203V15.7898H377.195V13.0125C377.195 12.7911 377.163 12.614 377.098 12.4812C377.033 12.3458 376.938 12.2481 376.812 12.1882C376.688 12.1257 376.534 12.0945 376.352 12.0945C376.172 12.0945 376.008 12.1322 375.859 12.2078C375.714 12.2833 375.587 12.3875 375.48 12.5203C375.376 12.6531 375.294 12.8054 375.234 12.9773C375.177 13.1466 375.148 13.3263 375.148 13.5164ZM380.773 15.8679C380.479 15.8679 380.212 15.8184 379.973 15.7195C379.736 15.6179 379.531 15.476 379.359 15.2937C379.19 15.1114 379.06 14.8953 378.969 14.6453C378.878 14.3953 378.832 14.1218 378.832 13.825V13.6609C378.832 13.3171 378.883 13.0111 378.984 12.7429C379.086 12.4721 379.224 12.2429 379.398 12.0554C379.573 11.8679 379.771 11.726 379.992 11.6296C380.214 11.5333 380.443 11.4851 380.68 11.4851C380.982 11.4851 381.242 11.5372 381.461 11.6414C381.682 11.7455 381.863 11.8914 382.004 12.0789C382.145 12.2638 382.249 12.4825 382.316 12.7351C382.384 12.9851 382.418 13.2585 382.418 13.5554V13.8796H379.262V13.2898H381.695V13.2351C381.685 13.0476 381.646 12.8653 381.578 12.6882C381.513 12.5111 381.409 12.3653 381.266 12.2507C381.122 12.1361 380.927 12.0789 380.68 12.0789C380.516 12.0789 380.365 12.114 380.227 12.1843C380.089 12.252 379.97 12.3536 379.871 12.489C379.772 12.6244 379.695 12.7898 379.641 12.9851C379.586 13.1804 379.559 13.4057 379.559 13.6609V13.825C379.559 14.0255 379.586 14.2143 379.641 14.3914C379.698 14.5658 379.78 14.7195 379.887 14.8523C379.996 14.9851 380.128 15.0893 380.281 15.1648C380.438 15.2403 380.615 15.2781 380.812 15.2781C381.068 15.2781 381.284 15.226 381.461 15.1218C381.638 15.0177 381.793 14.8783 381.926 14.7039L382.363 15.0515C382.272 15.1895 382.156 15.321 382.016 15.446C381.875 15.571 381.702 15.6726 381.496 15.7507C381.293 15.8289 381.052 15.8679 380.773 15.8679ZM388.969 15.1765V15.7898H385.957V15.1765H388.969ZM386.109 10.1023V15.7898H385.355V10.1023H386.109ZM388.57 12.5476V13.1609H385.957V12.5476H388.57ZM388.93 10.1023V10.7195H385.957V10.1023H388.93ZM390.516 12.4656V15.7898H389.793V11.5632H390.477L390.516 12.4656ZM390.344 13.5164L390.043 13.5046C390.046 13.2156 390.089 12.9486 390.172 12.7039C390.255 12.4565 390.372 12.2416 390.523 12.0593C390.674 11.877 390.854 11.7364 391.062 11.6375C391.273 11.5359 391.507 11.4851 391.762 11.4851C391.97 11.4851 392.158 11.5138 392.324 11.571C392.491 11.6257 392.633 11.7143 392.75 11.8367C392.87 11.9591 392.961 12.1179 393.023 12.3132C393.086 12.5059 393.117 12.7416 393.117 13.0203V15.7898H392.391V13.0125C392.391 12.7911 392.358 12.614 392.293 12.4812C392.228 12.3458 392.133 12.2481 392.008 12.1882C391.883 12.1257 391.729 12.0945 391.547 12.0945C391.367 12.0945 391.203 12.1322 391.055 12.2078C390.909 12.2833 390.783 12.3875 390.676 12.5203C390.572 12.6531 390.49 12.8054 390.43 12.9773C390.372 13.1466 390.344 13.3263 390.344 13.5164ZM395.984 11.5632V12.1179H393.699V11.5632H395.984ZM394.473 10.5359H395.195V14.7429C395.195 14.8861 395.217 14.9942 395.262 15.0671C395.306 15.1401 395.363 15.1882 395.434 15.2117C395.504 15.2351 395.579 15.2468 395.66 15.2468C395.72 15.2468 395.783 15.2416 395.848 15.2312C395.915 15.2182 395.966 15.2078 396 15.2L396.004 15.7898C395.947 15.808 395.871 15.825 395.777 15.8406C395.686 15.8588 395.576 15.8679 395.445 15.8679C395.268 15.8679 395.105 15.8328 394.957 15.7625C394.809 15.6921 394.69 15.575 394.602 15.4109C394.516 15.2442 394.473 15.0203 394.473 14.739V10.5359ZM398.586 15.8679C398.292 15.8679 398.025 15.8184 397.785 15.7195C397.548 15.6179 397.344 15.476 397.172 15.2937C397.003 15.1114 396.872 14.8953 396.781 14.6453C396.69 14.3953 396.645 14.1218 396.645 13.825V13.6609C396.645 13.3171 396.695 13.0111 396.797 12.7429C396.898 12.4721 397.036 12.2429 397.211 12.0554C397.385 11.8679 397.583 11.726 397.805 11.6296C398.026 11.5333 398.255 11.4851 398.492 11.4851C398.794 11.4851 399.055 11.5372 399.273 11.6414C399.495 11.7455 399.676 11.8914 399.816 12.0789C399.957 12.2638 400.061 12.4825 400.129 12.7351C400.197 12.9851 400.23 13.2585 400.23 13.5554V13.8796H397.074V13.2898H399.508V13.2351C399.497 13.0476 399.458 12.8653 399.391 12.6882C399.326 12.5111 399.221 12.3653 399.078 12.2507C398.935 12.1361 398.74 12.0789 398.492 12.0789C398.328 12.0789 398.177 12.114 398.039 12.1843C397.901 12.252 397.783 12.3536 397.684 12.489C397.585 12.6244 397.508 12.7898 397.453 12.9851C397.398 13.1804 397.371 13.4057 397.371 13.6609V13.825C397.371 14.0255 397.398 14.2143 397.453 14.3914C397.51 14.5658 397.592 14.7195 397.699 14.8523C397.809 14.9851 397.94 15.0893 398.094 15.1648C398.25 15.2403 398.427 15.2781 398.625 15.2781C398.88 15.2781 399.096 15.226 399.273 15.1218C399.451 15.0177 399.605 14.8783 399.738 14.7039L400.176 15.0515C400.085 15.1895 399.969 15.321 399.828 15.446C399.688 15.571 399.514 15.6726 399.309 15.7507C399.105 15.8289 398.865 15.8679 398.586 15.8679ZM401.797 12.2273V15.7898H401.074V11.5632H401.777L401.797 12.2273ZM403.117 11.5398L403.113 12.2117C403.053 12.1986 402.996 12.1908 402.941 12.1882C402.889 12.183 402.829 12.1804 402.762 12.1804C402.595 12.1804 402.448 12.2065 402.32 12.2585C402.193 12.3106 402.085 12.3835 401.996 12.4773C401.908 12.571 401.837 12.683 401.785 12.8132C401.736 12.9408 401.703 13.0815 401.688 13.2351L401.484 13.3523C401.484 13.0971 401.509 12.8575 401.559 12.6335C401.611 12.4096 401.69 12.2117 401.797 12.0398C401.904 11.8653 402.039 11.7299 402.203 11.6335C402.37 11.5346 402.568 11.4851 402.797 11.4851C402.849 11.4851 402.909 11.4916 402.977 11.5046C403.044 11.5151 403.091 11.5268 403.117 11.5398ZM404.508 12.3757V17.4148H403.781V11.5632H404.445L404.508 12.3757ZM407.355 13.6414V13.7234C407.355 14.0307 407.319 14.3158 407.246 14.5789C407.173 14.8393 407.066 15.0658 406.926 15.2585C406.788 15.4513 406.617 15.601 406.414 15.7078C406.211 15.8145 405.978 15.8679 405.715 15.8679C405.447 15.8679 405.21 15.8236 405.004 15.7351C404.798 15.6466 404.624 15.5177 404.48 15.3484C404.337 15.1791 404.223 14.976 404.137 14.739C404.053 14.502 403.996 14.2351 403.965 13.9382V13.5007C403.996 13.1882 404.055 12.9083 404.141 12.6609C404.227 12.4135 404.34 12.2026 404.48 12.0281C404.624 11.851 404.797 11.7169 405 11.6257C405.203 11.532 405.438 11.4851 405.703 11.4851C405.969 11.4851 406.204 11.5372 406.41 11.6414C406.616 11.7429 406.789 11.8888 406.93 12.0789C407.07 12.269 407.176 12.4968 407.246 12.7625C407.319 13.0255 407.355 13.3184 407.355 13.6414ZM406.629 13.7234V13.6414C406.629 13.4304 406.607 13.2325 406.562 13.0476C406.518 12.8601 406.449 12.696 406.355 12.5554C406.264 12.4122 406.147 12.3002 406.004 12.2195C405.861 12.1361 405.69 12.0945 405.492 12.0945C405.31 12.0945 405.151 12.1257 405.016 12.1882C404.883 12.2507 404.77 12.3354 404.676 12.4421C404.582 12.5463 404.505 12.6661 404.445 12.8015C404.388 12.9343 404.345 13.0723 404.316 13.2156V14.2273C404.368 14.4096 404.441 14.5815 404.535 14.7429C404.629 14.9018 404.754 15.0307 404.91 15.1296C405.066 15.226 405.263 15.2742 405.5 15.2742C405.695 15.2742 405.863 15.2338 406.004 15.1531C406.147 15.0697 406.264 14.9565 406.355 14.8132C406.449 14.67 406.518 14.5059 406.562 14.321C406.607 14.1335 406.629 13.9343 406.629 13.7234ZM409 12.2273V15.7898H408.277V11.5632H408.98L409 12.2273ZM410.32 11.5398L410.316 12.2117C410.257 12.1986 410.199 12.1908 410.145 12.1882C410.092 12.183 410.033 12.1804 409.965 12.1804C409.798 12.1804 409.651 12.2065 409.523 12.2585C409.396 12.3106 409.288 12.3835 409.199 12.4773C409.111 12.571 409.04 12.683 408.988 12.8132C408.939 12.9408 408.906 13.0815 408.891 13.2351L408.688 13.3523C408.688 13.0971 408.712 12.8575 408.762 12.6335C408.814 12.4096 408.893 12.2117 409 12.0398C409.107 11.8653 409.242 11.7299 409.406 11.6335C409.573 11.5346 409.771 11.4851 410 11.4851C410.052 11.4851 410.112 11.4916 410.18 11.5046C410.247 11.5151 410.294 11.5268 410.32 11.5398ZM411.773 11.5632V15.7898H411.047V11.5632H411.773ZM410.992 10.4421C410.992 10.325 411.027 10.226 411.098 10.1453C411.171 10.0645 411.277 10.0242 411.418 10.0242C411.556 10.0242 411.661 10.0645 411.734 10.1453C411.81 10.226 411.848 10.325 411.848 10.4421C411.848 10.5541 411.81 10.6505 411.734 10.7312C411.661 10.8093 411.556 10.8484 411.418 10.8484C411.277 10.8484 411.171 10.8093 411.098 10.7312C411.027 10.6505 410.992 10.5541 410.992 10.4421ZM415.395 14.6687C415.395 14.5645 415.371 14.4682 415.324 14.3796C415.28 14.2885 415.188 14.2065 415.047 14.1335C414.909 14.058 414.701 13.9929 414.422 13.9382C414.188 13.8888 413.975 13.8302 413.785 13.7625C413.598 13.6947 413.438 13.6127 413.305 13.5164C413.174 13.42 413.074 13.3067 413.004 13.1765C412.934 13.0463 412.898 12.894 412.898 12.7195C412.898 12.5528 412.935 12.3953 413.008 12.2468C413.083 12.0984 413.189 11.9669 413.324 11.8523C413.462 11.7377 413.628 11.6479 413.82 11.5828C414.013 11.5177 414.228 11.4851 414.465 11.4851C414.803 11.4851 415.092 11.545 415.332 11.6648C415.572 11.7846 415.755 11.9447 415.883 12.1453C416.01 12.3432 416.074 12.5632 416.074 12.8054H415.352C415.352 12.6882 415.316 12.575 415.246 12.4656C415.178 12.3536 415.078 12.2611 414.945 12.1882C414.815 12.1153 414.655 12.0789 414.465 12.0789C414.264 12.0789 414.102 12.1101 413.977 12.1726C413.854 12.2325 413.764 12.3093 413.707 12.4031C413.652 12.4968 413.625 12.5958 413.625 12.7C413.625 12.7781 413.638 12.8484 413.664 12.9109C413.693 12.9708 413.742 13.0268 413.812 13.0789C413.883 13.1283 413.982 13.1752 414.109 13.2195C414.237 13.2638 414.4 13.308 414.598 13.3523C414.944 13.4304 415.229 13.5242 415.453 13.6335C415.677 13.7429 415.844 13.877 415.953 14.0359C416.062 14.1947 416.117 14.3875 416.117 14.614C416.117 14.7989 416.078 14.9682 416 15.1218C415.924 15.2755 415.814 15.4083 415.668 15.5203C415.525 15.6296 415.353 15.7156 415.152 15.7781C414.954 15.838 414.732 15.8679 414.484 15.8679C414.112 15.8679 413.797 15.8015 413.539 15.6687C413.281 15.5359 413.086 15.364 412.953 15.1531C412.82 14.9421 412.754 14.7195 412.754 14.4851H413.48C413.491 14.683 413.548 14.8406 413.652 14.9578C413.757 15.0723 413.884 15.1544 414.035 15.2039C414.186 15.2507 414.336 15.2742 414.484 15.2742C414.682 15.2742 414.848 15.2481 414.98 15.196C415.116 15.144 415.219 15.0723 415.289 14.9812C415.359 14.8901 415.395 14.7859 415.395 14.6687ZM418.82 15.8679C418.526 15.8679 418.259 15.8184 418.02 15.7195C417.783 15.6179 417.578 15.476 417.406 15.2937C417.237 15.1114 417.107 14.8953 417.016 14.6453C416.924 14.3953 416.879 14.1218 416.879 13.825V13.6609C416.879 13.3171 416.93 13.0111 417.031 12.7429C417.133 12.4721 417.271 12.2429 417.445 12.0554C417.62 11.8679 417.818 11.726 418.039 11.6296C418.26 11.5333 418.49 11.4851 418.727 11.4851C419.029 11.4851 419.289 11.5372 419.508 11.6414C419.729 11.7455 419.91 11.8914 420.051 12.0789C420.191 12.2638 420.296 12.4825 420.363 12.7351C420.431 12.9851 420.465 13.2585 420.465 13.5554V13.8796H417.309V13.2898H419.742V13.2351C419.732 13.0476 419.693 12.8653 419.625 12.6882C419.56 12.5111 419.456 12.3653 419.312 12.2507C419.169 12.1361 418.974 12.0789 418.727 12.0789C418.562 12.0789 418.411 12.114 418.273 12.1843C418.135 12.252 418.017 12.3536 417.918 12.489C417.819 12.6244 417.742 12.7898 417.688 12.9851C417.633 13.1804 417.605 13.4057 417.605 13.6609V13.825C417.605 14.0255 417.633 14.2143 417.688 14.3914C417.745 14.5658 417.827 14.7195 417.934 14.8523C418.043 14.9851 418.174 15.0893 418.328 15.1648C418.484 15.2403 418.661 15.2781 418.859 15.2781C419.115 15.2781 419.331 15.226 419.508 15.1218C419.685 15.0177 419.84 14.8783 419.973 14.7039L420.41 15.0515C420.319 15.1895 420.203 15.321 420.062 15.446C419.922 15.571 419.749 15.6726 419.543 15.7507C419.34 15.8289 419.099 15.8679 418.82 15.8679ZM423.77 14.6687C423.77 14.5645 423.746 14.4682 423.699 14.3796C423.655 14.2885 423.562 14.2065 423.422 14.1335C423.284 14.058 423.076 13.9929 422.797 13.9382C422.562 13.8888 422.35 13.8302 422.16 13.7625C421.973 13.6947 421.812 13.6127 421.68 13.5164C421.549 13.42 421.449 13.3067 421.379 13.1765C421.309 13.0463 421.273 12.894 421.273 12.7195C421.273 12.5528 421.31 12.3953 421.383 12.2468C421.458 12.0984 421.564 11.9669 421.699 11.8523C421.837 11.7377 422.003 11.6479 422.195 11.5828C422.388 11.5177 422.603 11.4851 422.84 11.4851C423.178 11.4851 423.467 11.545 423.707 11.6648C423.947 11.7846 424.13 11.9447 424.258 12.1453C424.385 12.3432 424.449 12.5632 424.449 12.8054H423.727C423.727 12.6882 423.691 12.575 423.621 12.4656C423.553 12.3536 423.453 12.2611 423.32 12.1882C423.19 12.1153 423.03 12.0789 422.84 12.0789C422.639 12.0789 422.477 12.1101 422.352 12.1726C422.229 12.2325 422.139 12.3093 422.082 12.4031C422.027 12.4968 422 12.5958 422 12.7C422 12.7781 422.013 12.8484 422.039 12.9109C422.068 12.9708 422.117 13.0268 422.188 13.0789C422.258 13.1283 422.357 13.1752 422.484 13.2195C422.612 13.2638 422.775 13.308 422.973 13.3523C423.319 13.4304 423.604 13.5242 423.828 13.6335C424.052 13.7429 424.219 13.877 424.328 14.0359C424.438 14.1947 424.492 14.3875 424.492 14.614C424.492 14.7989 424.453 14.9682 424.375 15.1218C424.299 15.2755 424.189 15.4083 424.043 15.5203C423.9 15.6296 423.728 15.7156 423.527 15.7781C423.329 15.838 423.107 15.8679 422.859 15.8679C422.487 15.8679 422.172 15.8015 421.914 15.6687C421.656 15.5359 421.461 15.364 421.328 15.1531C421.195 14.9421 421.129 14.7195 421.129 14.4851H421.855C421.866 14.683 421.923 14.8406 422.027 14.9578C422.132 15.0723 422.259 15.1544 422.41 15.2039C422.561 15.2507 422.711 15.2742 422.859 15.2742C423.057 15.2742 423.223 15.2481 423.355 15.196C423.491 15.144 423.594 15.0723 423.664 14.9812C423.734 14.8901 423.77 14.7859 423.77 14.6687Z" fill="#656A91"/>
<path d="M362.457 22.3103L360.104 28.7898H359.142L361.852 21.6804H362.472L362.457 22.3103ZM364.43 28.7898L362.071 22.3103L362.057 21.6804H362.677L365.396 28.7898H364.43ZM364.308 26.158V26.9294H360.313V26.158H364.308ZM367.115 24.6345V28.7898H366.212V23.5066H367.066L367.115 24.6345ZM366.9 25.948L366.524 25.9333C366.528 25.572 366.581 25.2384 366.686 24.9324C366.79 24.6231 366.936 24.3546 367.125 24.1267C367.314 23.8988 367.538 23.7231 367.799 23.5994C368.062 23.4724 368.354 23.4089 368.673 23.4089C368.933 23.4089 369.168 23.4447 369.376 23.5164C369.584 23.5847 369.762 23.6954 369.908 23.8484C370.058 24.0014 370.172 24.2 370.25 24.4441C370.328 24.685 370.367 24.9796 370.367 25.3279V28.7898H369.459V25.3181C369.459 25.0414 369.418 24.8201 369.337 24.6541C369.256 24.4848 369.137 24.3627 368.98 24.2878C368.824 24.2097 368.632 24.1707 368.404 24.1707C368.18 24.1707 367.975 24.2179 367.789 24.3123C367.607 24.4067 367.449 24.5369 367.315 24.7029C367.185 24.8689 367.083 25.0593 367.008 25.2742C366.936 25.4858 366.9 25.7104 366.9 25.948ZM373.951 23.5066V24.2H371.095V23.5066H373.951ZM372.062 22.2224H372.965V27.4812C372.965 27.6602 372.993 27.7953 373.048 27.8865C373.103 27.9776 373.175 28.0378 373.263 28.0671C373.351 28.0964 373.445 28.1111 373.546 28.1111C373.621 28.1111 373.699 28.1046 373.78 28.0916C373.865 28.0753 373.928 28.0623 373.971 28.0525L373.976 28.7898C373.904 28.8126 373.81 28.8337 373.692 28.8533C373.578 28.8761 373.44 28.8875 373.277 28.8875C373.056 28.8875 372.853 28.8435 372.667 28.7556C372.481 28.6677 372.333 28.5212 372.223 28.3162C372.115 28.1078 372.062 27.8279 372.062 27.4763V22.2224ZM375.914 21.2898V28.7898H375.011V21.2898H375.914ZM375.699 25.948L375.323 25.9333C375.326 25.572 375.38 25.2384 375.484 24.9324C375.589 24.6231 375.735 24.3546 375.924 24.1267C376.113 23.8988 376.337 23.7231 376.598 23.5994C376.861 23.4724 377.153 23.4089 377.472 23.4089C377.732 23.4089 377.966 23.4447 378.175 23.5164C378.383 23.5847 378.561 23.6954 378.707 23.8484C378.857 24.0014 378.971 24.2 379.049 24.4441C379.127 24.685 379.166 24.9796 379.166 25.3279V28.7898H378.258V25.3181C378.258 25.0414 378.217 24.8201 378.136 24.6541C378.054 24.4848 377.936 24.3627 377.779 24.2878C377.623 24.2097 377.431 24.1707 377.203 24.1707C376.979 24.1707 376.773 24.2179 376.588 24.3123C376.406 24.4067 376.248 24.5369 376.114 24.7029C375.984 24.8689 375.882 25.0593 375.807 25.2742C375.735 25.4858 375.699 25.7104 375.699 25.948ZM380.279 26.2068V26.0945C380.279 25.7136 380.335 25.3604 380.445 25.0349C380.556 24.7061 380.715 24.4213 380.924 24.1804C381.132 23.9363 381.384 23.7475 381.681 23.614C381.977 23.4773 382.309 23.4089 382.677 23.4089C383.048 23.4089 383.382 23.4773 383.678 23.614C383.977 23.7475 384.231 23.9363 384.439 24.1804C384.651 24.4213 384.812 24.7061 384.923 25.0349C385.034 25.3604 385.089 25.7136 385.089 26.0945V26.2068C385.089 26.5876 385.034 26.9408 384.923 27.2664C384.812 27.5919 384.651 27.8767 384.439 28.1208C384.231 28.3617 383.979 28.5505 383.683 28.6873C383.39 28.8207 383.058 28.8875 382.687 28.8875C382.315 28.8875 381.982 28.8207 381.686 28.6873C381.389 28.5505 381.135 28.3617 380.924 28.1208C380.715 27.8767 380.556 27.5919 380.445 27.2664C380.335 26.9408 380.279 26.5876 380.279 26.2068ZM381.183 26.0945V26.2068C381.183 26.4705 381.214 26.7195 381.275 26.9539C381.337 27.185 381.43 27.3901 381.554 27.5691C381.681 27.7481 381.839 27.8897 382.027 27.9939C382.216 28.0948 382.436 28.1453 382.687 28.1453C382.934 28.1453 383.15 28.0948 383.336 27.9939C383.525 27.8897 383.681 27.7481 383.805 27.5691C383.928 27.3901 384.021 27.185 384.083 26.9539C384.148 26.7195 384.181 26.4705 384.181 26.2068V26.0945C384.181 25.8341 384.148 25.5883 384.083 25.3572C384.021 25.1228 383.927 24.9161 383.8 24.7371C383.676 24.5548 383.52 24.4115 383.331 24.3074C383.146 24.2032 382.927 24.1511 382.677 24.1511C382.429 24.1511 382.211 24.2032 382.022 24.3074C381.837 24.4115 381.681 24.5548 381.554 24.7371C381.43 24.9161 381.337 25.1228 381.275 25.3572C381.214 25.5883 381.183 25.8341 381.183 26.0945ZM387.125 24.6345V28.7898H386.222V23.5066H387.076L387.125 24.6345ZM386.91 25.948L386.534 25.9333C386.537 25.572 386.591 25.2384 386.695 24.9324C386.799 24.6231 386.946 24.3546 387.135 24.1267C387.324 23.8988 387.548 23.7231 387.809 23.5994C388.072 23.4724 388.364 23.4089 388.683 23.4089C388.943 23.4089 389.177 23.4447 389.386 23.5164C389.594 23.5847 389.771 23.6954 389.918 23.8484C390.068 24.0014 390.182 24.2 390.26 24.4441C390.338 24.685 390.377 24.9796 390.377 25.3279V28.7898H389.469V25.3181C389.469 25.0414 389.428 24.8201 389.347 24.6541C389.265 24.4848 389.146 24.3627 388.99 24.2878C388.834 24.2097 388.642 24.1707 388.414 24.1707C388.189 24.1707 387.984 24.2179 387.799 24.3123C387.617 24.4067 387.459 24.5369 387.325 24.7029C387.195 24.8689 387.092 25.0593 387.018 25.2742C386.946 25.4858 386.91 25.7104 386.91 25.948ZM393.233 28.2429L394.703 23.5066H395.67L393.551 29.6052C393.502 29.7354 393.437 29.8754 393.355 30.0251C393.277 30.1781 393.176 30.323 393.053 30.4597C392.929 30.5964 392.779 30.7071 392.604 30.7917C392.431 30.8796 392.224 30.9236 391.983 30.9236C391.912 30.9236 391.821 30.9138 391.71 30.8943C391.599 30.8748 391.521 30.8585 391.476 30.8455L391.471 30.113C391.497 30.1163 391.537 30.1195 391.593 30.1228C391.651 30.1293 391.692 30.1326 391.715 30.1326C391.92 30.1326 392.094 30.1049 392.237 30.0496C392.381 29.9975 392.501 29.908 392.599 29.781C392.7 29.6573 392.786 29.4864 392.857 29.2683L393.233 28.2429ZM392.154 23.5066L393.526 27.6082L393.761 28.5603L393.111 28.8923L391.168 23.5066H392.154ZM402.75 27.9744L404.557 29.405L403.922 29.991L402.145 28.5798L402.75 27.9744ZM404.532 25.0105V25.4597C404.532 25.9936 404.465 26.4721 404.332 26.8953C404.199 27.3184 404.007 27.6781 403.756 27.9744C403.505 28.2706 403.204 28.4968 402.853 28.6531C402.504 28.8093 402.114 28.8875 401.681 28.8875C401.261 28.8875 400.875 28.8093 400.523 28.6531C400.175 28.4968 399.872 28.2706 399.615 27.9744C399.361 27.6781 399.164 27.3184 399.024 26.8953C398.884 26.4721 398.814 25.9936 398.814 25.4597V25.0105C398.814 24.4766 398.883 23.9998 399.02 23.5798C399.16 23.1567 399.356 22.797 399.61 22.5007C399.864 22.2013 400.165 21.9734 400.514 21.8171C400.865 21.6609 401.251 21.5828 401.671 21.5828C402.104 21.5828 402.496 21.6609 402.848 21.8171C403.199 21.9734 403.5 22.2013 403.751 22.5007C404.002 22.797 404.194 23.1567 404.327 23.5798C404.464 23.9998 404.532 24.4766 404.532 25.0105ZM403.6 25.4597V25.0007C403.6 24.5776 403.556 24.2032 403.468 23.8777C403.383 23.5522 403.258 23.2787 403.092 23.0574C402.926 22.836 402.724 22.6684 402.486 22.5544C402.249 22.4405 401.977 22.3835 401.671 22.3835C401.381 22.3835 401.118 22.4405 400.88 22.5544C400.646 22.6684 400.444 22.836 400.274 23.0574C400.105 23.2787 399.975 23.5522 399.884 23.8777C399.793 24.2032 399.747 24.5776 399.747 25.0007V25.4597C399.747 25.8861 399.793 26.2638 399.884 26.5925C399.975 26.9181 400.105 27.1931 400.274 27.4177C400.447 27.6391 400.652 27.8067 400.89 27.9207C401.127 28.0346 401.391 28.0916 401.681 28.0916C401.987 28.0916 402.258 28.0346 402.496 27.9207C402.734 27.8067 402.934 27.6391 403.097 27.4177C403.263 27.1931 403.388 26.9181 403.473 26.5925C403.557 26.2638 403.6 25.8861 403.6 25.4597ZM409.083 27.5691V23.5066H409.991V28.7898H409.127L409.083 27.5691ZM409.254 26.4558L409.63 26.446C409.63 26.7976 409.592 27.1231 409.518 27.4226C409.446 27.7188 409.329 27.976 409.166 28.1941C409.003 28.4122 408.79 28.5831 408.526 28.7068C408.263 28.8272 407.942 28.8875 407.564 28.8875C407.307 28.8875 407.071 28.85 406.856 28.7751C406.645 28.7003 406.463 28.5847 406.31 28.4285C406.157 28.2722 406.038 28.0688 405.953 27.8181C405.872 27.5675 405.831 27.2664 405.831 26.9148V23.5066H406.734V26.9246C406.734 27.1622 406.76 27.3591 406.812 27.5154C406.868 27.6684 406.941 27.7904 407.032 27.8816C407.127 27.9695 407.231 28.0313 407.345 28.0671C407.462 28.1029 407.582 28.1208 407.706 28.1208C408.09 28.1208 408.395 28.0476 408.619 27.9011C408.844 27.7514 409.005 27.5512 409.103 27.3005C409.203 27.0466 409.254 26.7651 409.254 26.4558ZM412.35 23.5066V28.7898H411.441V23.5066H412.35ZM411.373 22.1052C411.373 21.9587 411.417 21.835 411.505 21.7341C411.596 21.6332 411.729 21.5828 411.905 21.5828C412.078 21.5828 412.21 21.6332 412.301 21.7341C412.395 21.835 412.442 21.9587 412.442 22.1052C412.442 22.2452 412.395 22.3656 412.301 22.4666C412.21 22.5642 412.078 22.613 411.905 22.613C411.729 22.613 411.596 22.5642 411.505 22.4666C411.417 22.3656 411.373 22.2452 411.373 22.1052ZM414.703 24.6345V28.7898H413.8V23.5066H414.654L414.703 24.6345ZM414.488 25.948L414.112 25.9333C414.116 25.572 414.169 25.2384 414.273 24.9324C414.378 24.6231 414.524 24.3546 414.713 24.1267C414.902 23.8988 415.126 23.7231 415.387 23.5994C415.65 23.4724 415.942 23.4089 416.261 23.4089C416.521 23.4089 416.756 23.4447 416.964 23.5164C417.172 23.5847 417.35 23.6954 417.496 23.8484C417.646 24.0014 417.76 24.2 417.838 24.4441C417.916 24.685 417.955 24.9796 417.955 25.3279V28.7898H417.047V25.3181C417.047 25.0414 417.006 24.8201 416.925 24.6541C416.843 24.4848 416.725 24.3627 416.568 24.2878C416.412 24.2097 416.22 24.1707 415.992 24.1707C415.768 24.1707 415.562 24.2179 415.377 24.3123C415.195 24.4067 415.037 24.5369 414.903 24.7029C414.773 24.8689 414.671 25.0593 414.596 25.2742C414.524 25.4858 414.488 25.7104 414.488 25.948ZM420.23 24.6345V28.7898H419.327V23.5066H420.182L420.23 24.6345ZM420.016 25.948L419.64 25.9333C419.643 25.572 419.697 25.2384 419.801 24.9324C419.905 24.6231 420.051 24.3546 420.24 24.1267C420.429 23.8988 420.654 23.7231 420.914 23.5994C421.178 23.4724 421.469 23.4089 421.788 23.4089C422.049 23.4089 422.283 23.4447 422.491 23.5164C422.7 23.5847 422.877 23.6954 423.023 23.8484C423.173 24.0014 423.287 24.2 423.365 24.4441C423.443 24.685 423.482 24.9796 423.482 25.3279V28.7898H422.574V25.3181C422.574 25.0414 422.534 24.8201 422.452 24.6541C422.371 24.4848 422.252 24.3627 422.096 24.2878C421.939 24.2097 421.747 24.1707 421.52 24.1707C421.295 24.1707 421.09 24.2179 420.904 24.3123C420.722 24.4067 420.564 24.5369 420.431 24.7029C420.3 24.8689 420.198 25.0593 420.123 25.2742C420.051 25.4858 420.016 25.7104 420.016 25.948Z" fill="#32375E"/>
<g opacity="0.9">
<path d="M512.123 16.1804H513.036L515.365 21.9763L517.689 16.1804H518.607L515.717 23.2898H515.004L512.123 16.1804ZM511.825 16.1804H512.631L512.763 20.5164V23.2898H511.825V16.1804ZM518.095 16.1804H518.9V23.2898H517.963V20.5164L518.095 16.1804ZM522.611 23.3875C522.243 23.3875 521.91 23.3256 521.61 23.2019C521.314 23.075 521.059 22.8975 520.844 22.6697C520.632 22.4418 520.469 22.1716 520.355 21.8591C520.242 21.5466 520.185 21.2048 520.185 20.8337V20.6287C520.185 20.199 520.248 19.8165 520.375 19.4812C520.502 19.1427 520.674 18.8562 520.893 18.6218C521.111 18.3875 521.358 18.21 521.635 18.0896C521.911 17.9692 522.198 17.9089 522.494 17.9089C522.872 17.9089 523.197 17.974 523.471 18.1042C523.747 18.2345 523.974 18.4167 524.149 18.6511C524.325 18.8822 524.455 19.1557 524.54 19.4714C524.625 19.7839 524.667 20.1257 524.667 20.4968V20.9021H520.722V20.1648H523.764V20.0964C523.751 19.8621 523.702 19.6342 523.617 19.4128C523.536 19.1915 523.406 19.0092 523.227 18.866C523.048 18.7227 522.803 18.6511 522.494 18.6511C522.289 18.6511 522.1 18.6951 521.928 18.783C521.755 18.8676 521.607 18.9945 521.483 19.1638C521.36 19.3331 521.264 19.5398 521.195 19.7839C521.127 20.0281 521.093 20.3097 521.093 20.6287V20.8337C521.093 21.0844 521.127 21.3204 521.195 21.5417C521.267 21.7598 521.369 21.9519 521.503 22.1179C521.64 22.2839 521.804 22.4141 521.996 22.5085C522.191 22.6029 522.413 22.6501 522.66 22.6501C522.979 22.6501 523.249 22.585 523.471 22.4548C523.692 22.3246 523.886 22.1505 524.052 21.9324L524.599 22.3669C524.485 22.5395 524.34 22.7039 524.164 22.8601C523.988 23.0164 523.772 23.1433 523.515 23.241C523.261 23.3386 522.96 23.3875 522.611 23.3875ZM527.934 18.0066V18.7H525.077V18.0066H527.934ZM526.044 16.7224H526.947V21.9812C526.947 22.1602 526.975 22.2953 527.03 22.3865C527.086 22.4776 527.157 22.5378 527.245 22.5671C527.333 22.5964 527.427 22.6111 527.528 22.6111C527.603 22.6111 527.681 22.6046 527.763 22.5916C527.847 22.5753 527.911 22.5623 527.953 22.5525L527.958 23.2898C527.886 23.3126 527.792 23.3337 527.675 23.3533C527.561 23.3761 527.423 23.3875 527.26 23.3875C527.038 23.3875 526.835 23.3435 526.649 23.2556C526.464 23.1677 526.316 23.0212 526.205 22.8162C526.098 22.6078 526.044 22.3279 526.044 21.9763V16.7224ZM531.186 23.3875C530.818 23.3875 530.484 23.3256 530.185 23.2019C529.888 23.075 529.633 22.8975 529.418 22.6697C529.206 22.4418 529.044 22.1716 528.93 21.8591C528.816 21.5466 528.759 21.2048 528.759 20.8337V20.6287C528.759 20.199 528.822 19.8165 528.949 19.4812C529.076 19.1427 529.249 18.8562 529.467 18.6218C529.685 18.3875 529.932 18.21 530.209 18.0896C530.486 17.9692 530.772 17.9089 531.068 17.9089C531.446 17.9089 531.771 17.974 532.045 18.1042C532.322 18.2345 532.548 18.4167 532.724 18.6511C532.899 18.8822 533.03 19.1557 533.114 19.4714C533.199 19.7839 533.241 20.1257 533.241 20.4968V20.9021H529.296V20.1648H532.338V20.0964C532.325 19.8621 532.276 19.6342 532.191 19.4128C532.11 19.1915 531.98 19.0092 531.801 18.866C531.622 18.7227 531.378 18.6511 531.068 18.6511C530.863 18.6511 530.674 18.6951 530.502 18.783C530.329 18.8676 530.181 18.9945 530.058 19.1638C529.934 19.3331 529.838 19.5398 529.77 19.7839C529.701 20.0281 529.667 20.3097 529.667 20.6287V20.8337C529.667 21.0844 529.701 21.3204 529.77 21.5417C529.841 21.7598 529.944 21.9519 530.077 22.1179C530.214 22.2839 530.378 22.4141 530.57 22.5085C530.766 22.6029 530.987 22.6501 531.234 22.6501C531.553 22.6501 531.824 22.585 532.045 22.4548C532.266 22.3246 532.46 22.1505 532.626 21.9324L533.173 22.3669C533.059 22.5395 532.914 22.7039 532.738 22.8601C532.562 23.0164 532.346 23.1433 532.089 23.241C531.835 23.3386 531.534 23.3875 531.186 23.3875ZM535.199 18.8367V23.2898H534.296V18.0066H535.175L535.199 18.8367ZM536.85 17.9773L536.845 18.8171C536.77 18.8009 536.698 18.7911 536.63 18.7878C536.565 18.7813 536.49 18.7781 536.405 18.7781C536.197 18.7781 536.013 18.8106 535.854 18.8757C535.694 18.9408 535.559 19.032 535.448 19.1492C535.338 19.2664 535.25 19.4063 535.185 19.5691C535.123 19.7286 535.082 19.9044 535.062 20.0964L534.809 20.2429C534.809 19.9239 534.84 19.6244 534.901 19.3445C534.966 19.0645 535.066 18.8171 535.199 18.6023C535.333 18.3842 535.502 18.2149 535.707 18.0945C535.915 17.9708 536.163 17.9089 536.449 17.9089C536.514 17.9089 536.589 17.9171 536.674 17.9333C536.758 17.9464 536.817 17.961 536.85 17.9773ZM539.779 23.3875C539.411 23.3875 539.078 23.3256 538.778 23.2019C538.482 23.075 538.227 22.8975 538.012 22.6697C537.8 22.4418 537.637 22.1716 537.523 21.8591C537.41 21.5466 537.353 21.2048 537.353 20.8337V20.6287C537.353 20.199 537.416 19.8165 537.543 19.4812C537.67 19.1427 537.842 18.8562 538.061 18.6218C538.279 18.3875 538.526 18.21 538.803 18.0896C539.079 17.9692 539.366 17.9089 539.662 17.9089C540.04 17.9089 540.365 17.974 540.639 18.1042C540.915 18.2345 541.142 18.4167 541.317 18.6511C541.493 18.8822 541.623 19.1557 541.708 19.4714C541.793 19.7839 541.835 20.1257 541.835 20.4968V20.9021H537.89V20.1648H540.932V20.0964C540.919 19.8621 540.87 19.6342 540.785 19.4128C540.704 19.1915 540.574 19.0092 540.395 18.866C540.215 18.7227 539.971 18.6511 539.662 18.6511C539.457 18.6511 539.268 18.6951 539.096 18.783C538.923 18.8676 538.775 18.9945 538.651 19.1638C538.528 19.3331 538.432 19.5398 538.363 19.7839C538.295 20.0281 538.261 20.3097 538.261 20.6287V20.8337C538.261 21.0844 538.295 21.3204 538.363 21.5417C538.435 21.7598 538.537 21.9519 538.671 22.1179C538.808 22.2839 538.972 22.4141 539.164 22.5085C539.359 22.6029 539.581 22.6501 539.828 22.6501C540.147 22.6501 540.417 22.585 540.639 22.4548C540.86 22.3246 541.054 22.1505 541.22 21.9324L541.767 22.3669C541.653 22.5395 541.508 22.7039 541.332 22.8601C541.156 23.0164 540.94 23.1433 540.683 23.241C540.429 23.3386 540.128 23.3875 539.779 23.3875ZM546.22 22.2644V15.7898H547.128V23.2898H546.298L546.22 22.2644ZM542.665 20.7068V20.6042C542.665 20.2006 542.714 19.8344 542.812 19.5056C542.912 19.1736 543.054 18.8888 543.236 18.6511C543.422 18.4135 543.642 18.2312 543.896 18.1042C544.153 17.974 544.439 17.9089 544.755 17.9089C545.087 17.9089 545.377 17.9675 545.624 18.0847C545.875 18.1986 546.086 18.3663 546.259 18.5876C546.435 18.8057 546.573 19.0694 546.674 19.3787C546.775 19.6879 546.845 20.0378 546.884 20.4285V20.8777C546.848 21.2651 546.778 21.6134 546.674 21.9226C546.573 22.2319 546.435 22.4955 546.259 22.7136C546.086 22.9317 545.875 23.0994 545.624 23.2166C545.373 23.3305 545.08 23.3875 544.745 23.3875C544.436 23.3875 544.153 23.3207 543.896 23.1873C543.642 23.0538 543.422 22.8666 543.236 22.6257C543.054 22.3848 542.912 22.1016 542.812 21.7761C542.714 21.4473 542.665 21.0909 542.665 20.7068ZM543.573 20.6042V20.7068C543.573 20.9705 543.599 21.2179 543.651 21.449C543.707 21.6801 543.791 21.8835 543.905 22.0593C544.019 22.2351 544.164 22.3735 544.34 22.4744C544.516 22.572 544.726 22.6208 544.97 22.6208C545.269 22.6208 545.515 22.5574 545.707 22.4304C545.902 22.3035 546.059 22.1358 546.176 21.9275C546.293 21.7192 546.384 21.4929 546.449 21.2488V20.072C546.41 19.893 546.353 19.7205 546.278 19.5544C546.207 19.3852 546.112 19.2354 545.995 19.1052C545.881 18.9718 545.74 18.866 545.57 18.7878C545.404 18.7097 545.207 18.6707 544.979 18.6707C544.732 18.6707 544.519 18.7227 544.34 18.8269C544.164 18.9278 544.019 19.0678 543.905 19.2468C543.791 19.4226 543.707 19.6277 543.651 19.8621C543.599 20.0932 543.573 20.3406 543.573 20.6042Z" fill="#32375E"/>
</g>
<g opacity="0.9">
<path d="M684.186 16.1804V16.6882L681.241 23.2898H680.289L683.229 16.9226H679.381V16.1804H684.186ZM689.679 19.1687V20.2527C689.679 20.8354 689.627 21.3269 689.522 21.7273C689.418 22.1277 689.269 22.45 689.073 22.6941C688.878 22.9382 688.642 23.1156 688.365 23.2263C688.092 23.3337 687.783 23.3875 687.438 23.3875C687.164 23.3875 686.912 23.3533 686.681 23.2849C686.45 23.2166 686.241 23.1075 686.056 22.9578C685.873 22.8048 685.717 22.6062 685.587 22.3621C685.457 22.1179 685.357 21.8217 685.289 21.4734C685.221 21.1251 685.187 20.7182 685.187 20.2527V19.1687C685.187 18.586 685.239 18.0977 685.343 17.7039C685.45 17.31 685.602 16.9942 685.797 16.7566C685.992 16.5157 686.227 16.3432 686.5 16.239C686.777 16.1348 687.086 16.0828 687.428 16.0828C687.704 16.0828 687.958 16.1169 688.189 16.1853C688.424 16.2504 688.632 16.3562 688.814 16.5027C688.997 16.6459 689.151 16.838 689.278 17.0789C689.409 17.3165 689.508 17.6078 689.576 17.9529C689.645 18.2979 689.679 18.7032 689.679 19.1687ZM688.771 20.3992V19.0173C688.771 18.6983 688.751 18.4184 688.712 18.1775C688.676 17.9333 688.622 17.725 688.551 17.5525C688.479 17.38 688.388 17.24 688.277 17.1326C688.17 17.0251 688.045 16.947 687.901 16.8982C687.761 16.8461 687.604 16.8201 687.428 16.8201C687.213 16.8201 687.022 16.8608 686.856 16.9421C686.69 17.0203 686.55 17.1456 686.437 17.3181C686.326 17.4906 686.241 17.7169 686.183 17.9968C686.124 18.2768 686.095 18.6169 686.095 19.0173V20.3992C686.095 20.7182 686.113 20.9998 686.148 21.2439C686.188 21.488 686.244 21.6996 686.319 21.8787C686.394 22.0544 686.485 22.1993 686.593 22.3132C686.7 22.4272 686.824 22.5118 686.964 22.5671C687.107 22.6192 687.265 22.6453 687.438 22.6453C687.659 22.6453 687.853 22.6029 688.019 22.5183C688.185 22.4337 688.323 22.3018 688.434 22.1228C688.548 21.9405 688.632 21.7078 688.688 21.4246C688.743 21.1381 688.771 20.7963 688.771 20.3992ZM690.953 22.8113C690.953 22.6583 691 22.5297 691.095 22.4255C691.192 22.3181 691.332 22.2644 691.515 22.2644C691.697 22.2644 691.835 22.3181 691.93 22.4255C692.027 22.5297 692.076 22.6583 692.076 22.8113C692.076 22.961 692.027 23.088 691.93 23.1921C691.835 23.2963 691.697 23.3484 691.515 23.3484C691.332 23.3484 691.192 23.2963 691.095 23.1921C691 23.088 690.953 22.961 690.953 22.8113ZM697.94 19.1687V20.2527C697.94 20.8354 697.888 21.3269 697.784 21.7273C697.68 22.1277 697.53 22.45 697.335 22.6941C697.14 22.9382 696.904 23.1156 696.627 23.2263C696.354 23.3337 696.044 23.3875 695.699 23.3875C695.426 23.3875 695.174 23.3533 694.942 23.2849C694.711 23.2166 694.503 23.1075 694.317 22.9578C694.135 22.8048 693.979 22.6062 693.849 22.3621C693.718 22.1179 693.619 21.8217 693.551 21.4734C693.482 21.1251 693.448 20.7182 693.448 20.2527V19.1687C693.448 18.586 693.5 18.0977 693.604 17.7039C693.712 17.31 693.863 16.9942 694.059 16.7566C694.254 16.5157 694.488 16.3432 694.762 16.239C695.038 16.1348 695.348 16.0828 695.689 16.0828C695.966 16.0828 696.22 16.1169 696.451 16.1853C696.686 16.2504 696.894 16.3562 697.076 16.5027C697.258 16.6459 697.413 16.838 697.54 17.0789C697.67 17.3165 697.77 17.6078 697.838 17.9529C697.906 18.2979 697.94 18.7032 697.94 19.1687ZM697.032 20.3992V19.0173C697.032 18.6983 697.013 18.4184 696.974 18.1775C696.938 17.9333 696.884 17.725 696.812 17.5525C696.741 17.38 696.65 17.24 696.539 17.1326C696.432 17.0251 696.306 16.947 696.163 16.8982C696.023 16.8461 695.865 16.8201 695.689 16.8201C695.475 16.8201 695.284 16.8608 695.118 16.9421C694.952 17.0203 694.812 17.1456 694.698 17.3181C694.588 17.4906 694.503 17.7169 694.444 17.9968C694.386 18.2768 694.356 18.6169 694.356 19.0173V20.3992C694.356 20.7182 694.374 20.9998 694.41 21.2439C694.449 21.488 694.506 21.6996 694.581 21.8787C694.656 22.0544 694.747 22.1993 694.854 22.3132C694.962 22.4272 695.086 22.5118 695.226 22.5671C695.369 22.6192 695.527 22.6453 695.699 22.6453C695.921 22.6453 696.114 22.6029 696.28 22.5183C696.446 22.4337 696.585 22.3018 696.695 22.1228C696.809 21.9405 696.894 21.7078 696.949 21.4246C697.005 21.1381 697.032 20.7963 697.032 20.3992ZM703.565 19.1687V20.2527C703.565 20.8354 703.513 21.3269 703.409 21.7273C703.305 22.1277 703.155 22.45 702.96 22.6941C702.765 22.9382 702.529 23.1156 702.252 23.2263C701.979 23.3337 701.669 23.3875 701.324 23.3875C701.051 23.3875 700.799 23.3533 700.567 23.2849C700.336 23.2166 700.128 23.1075 699.942 22.9578C699.76 22.8048 699.604 22.6062 699.474 22.3621C699.343 22.1179 699.244 21.8217 699.176 21.4734C699.107 21.1251 699.073 20.7182 699.073 20.2527V19.1687C699.073 18.586 699.125 18.0977 699.229 17.7039C699.337 17.31 699.488 16.9942 699.684 16.7566C699.879 16.5157 700.113 16.3432 700.387 16.239C700.663 16.1348 700.973 16.0828 701.314 16.0828C701.591 16.0828 701.845 16.1169 702.076 16.1853C702.311 16.2504 702.519 16.3562 702.701 16.5027C702.883 16.6459 703.038 16.838 703.165 17.0789C703.295 17.3165 703.395 17.6078 703.463 17.9529C703.531 18.2979 703.565 18.7032 703.565 19.1687ZM702.657 20.3992V19.0173C702.657 18.6983 702.638 18.4184 702.599 18.1775C702.563 17.9333 702.509 17.725 702.438 17.5525C702.366 17.38 702.275 17.24 702.164 17.1326C702.057 17.0251 701.931 16.947 701.788 16.8982C701.648 16.8461 701.49 16.8201 701.314 16.8201C701.1 16.8201 700.909 16.8608 700.743 16.9421C700.577 17.0203 700.437 17.1456 700.323 17.3181C700.213 17.4906 700.128 17.7169 700.069 17.9968C700.011 18.2768 699.981 18.6169 699.981 19.0173V20.3992C699.981 20.7182 699.999 20.9998 700.035 21.2439C700.074 21.488 700.131 21.6996 700.206 21.8787C700.281 22.0544 700.372 22.1993 700.479 22.3132C700.587 22.4272 700.711 22.5118 700.851 22.5671C700.994 22.6192 701.152 22.6453 701.324 22.6453C701.546 22.6453 701.739 22.6029 701.905 22.5183C702.071 22.4337 702.21 22.3018 702.32 22.1228C702.434 21.9405 702.519 21.7078 702.574 21.4246C702.63 21.1381 702.657 20.7963 702.657 20.3992Z" fill="#32375E"/>
</g>
<g opacity="0.9">
<path d="M725.893 16.1804H726.83V20.99C726.83 21.5238 726.711 21.9682 726.474 22.323C726.236 22.6778 725.92 22.9447 725.526 23.1238C725.136 23.2996 724.711 23.3875 724.252 23.3875C723.77 23.3875 723.334 23.2996 722.943 23.1238C722.556 22.9447 722.248 22.6778 722.021 22.323C721.796 21.9682 721.684 21.5238 721.684 20.99V16.1804H722.616V20.99C722.616 21.3611 722.685 21.6671 722.821 21.908C722.958 22.1488 723.148 22.3279 723.393 22.4451C723.64 22.5623 723.926 22.6208 724.252 22.6208C724.581 22.6208 724.867 22.5623 725.111 22.4451C725.359 22.3279 725.551 22.1488 725.688 21.908C725.824 21.6671 725.893 21.3611 725.893 20.99V16.1804ZM732.099 21.4929C732.099 21.3269 732.073 21.1804 732.021 21.0535C731.972 20.9233 731.884 20.8061 731.757 20.7019C731.633 20.5977 731.461 20.4985 731.239 20.4041C731.021 20.3097 730.744 20.2136 730.409 20.116C730.058 20.0118 729.74 19.8962 729.457 19.7693C729.174 19.6391 728.931 19.491 728.729 19.325C728.528 19.1589 728.373 18.9685 728.266 18.7537C728.158 18.5388 728.104 18.2931 728.104 18.0164C728.104 17.7397 728.161 17.4841 728.275 17.2498C728.389 17.0154 728.552 16.8119 728.764 16.6394C728.979 16.4636 729.234 16.3269 729.53 16.2292C729.826 16.1316 730.157 16.0828 730.521 16.0828C731.055 16.0828 731.508 16.1853 731.879 16.3904C732.253 16.5922 732.538 16.8575 732.733 17.1863C732.929 17.5118 733.026 17.8601 733.026 18.2312H732.089C732.089 17.9643 732.032 17.7283 731.918 17.5232C731.804 17.3149 731.632 17.1521 731.4 17.0349C731.169 16.9145 730.876 16.8542 730.521 16.8542C730.186 16.8542 729.91 16.9047 729.691 17.0056C729.473 17.1065 729.311 17.2432 729.203 17.4158C729.099 17.5883 729.047 17.7852 729.047 18.0066C729.047 18.1563 729.078 18.2931 729.14 18.4167C729.205 18.5372 729.304 18.6495 729.438 18.7537C729.574 18.8578 729.747 18.9539 729.955 19.0417C730.167 19.1296 730.419 19.2143 730.712 19.2957C731.116 19.4096 731.464 19.5365 731.757 19.6765C732.05 19.8165 732.291 19.9744 732.479 20.1501C732.672 20.3227 732.813 20.5196 732.904 20.741C732.999 20.9591 733.046 21.2065 733.046 21.4832C733.046 21.7729 732.987 22.0349 732.87 22.2693C732.753 22.5037 732.585 22.7039 732.367 22.8699C732.149 23.0359 731.887 23.1645 731.581 23.2556C731.278 23.3435 730.94 23.3875 730.565 23.3875C730.237 23.3875 729.913 23.3419 729.594 23.2507C729.278 23.1596 728.99 23.0229 728.729 22.8406C728.472 22.6583 728.266 22.4337 728.109 22.1667C727.956 21.8966 727.88 21.5841 727.88 21.2292H728.817C728.817 21.4734 728.865 21.6833 728.959 21.8591C729.053 22.0317 729.182 22.1749 729.345 22.2888C729.511 22.4028 729.698 22.4874 729.906 22.5427C730.118 22.5948 730.338 22.6208 730.565 22.6208C730.894 22.6208 731.173 22.5753 731.4 22.4841C731.628 22.393 731.801 22.2628 731.918 22.0935C732.038 21.9242 732.099 21.724 732.099 21.4929ZM736.171 23.2898H734.687L734.696 22.5232H736.171C736.679 22.5232 737.102 22.4174 737.44 22.2058C737.779 21.991 738.033 21.6915 738.202 21.3074C738.375 20.92 738.461 20.4675 738.461 19.95V19.5154C738.461 19.1085 738.412 18.7472 738.314 18.4314C738.217 18.1124 738.074 17.8438 737.885 17.6257C737.696 17.4044 737.465 17.2367 737.191 17.1228C736.921 17.0089 736.61 16.9519 736.259 16.9519H734.657V16.1804H736.259C736.724 16.1804 737.149 16.2585 737.533 16.4148C737.917 16.5678 738.248 16.7908 738.524 17.0837C738.804 17.3735 739.019 17.725 739.169 18.1384C739.319 18.5486 739.394 19.0108 739.394 19.5251V19.95C739.394 20.4643 739.319 20.9281 739.169 21.3416C739.019 21.7517 738.803 22.1016 738.52 22.3914C738.24 22.6811 737.901 22.9041 737.504 23.0603C737.11 23.2133 736.666 23.2898 736.171 23.2898ZM735.189 16.1804V23.2898H734.247V16.1804H735.189Z" fill="#32375E"/>
</g>
<g opacity="0.9">
<path d="M815.56 16.1414V23.2898H814.656V17.2693L812.835 17.9333V17.1179L815.418 16.1414H815.56ZM821.458 16.1804L818.494 23.9001H817.718L820.687 16.1804H821.458ZM824.324 19.8962V20.6384H821.941V19.8962H824.324ZM827.088 19.8962V20.6384H824.705V19.8962H827.088Z" fill="#32375E"/>
</g>
<g opacity="0.9">
<path d="M897.186 16.1804V16.6882L894.241 23.2898H893.289L896.229 16.9226H892.381V16.1804H897.186ZM902.679 19.1687V20.2527C902.679 20.8354 902.627 21.3269 902.522 21.7273C902.418 22.1277 902.269 22.45 902.073 22.6941C901.878 22.9382 901.642 23.1156 901.365 23.2263C901.092 23.3337 900.783 23.3875 900.438 23.3875C900.164 23.3875 899.912 23.3533 899.681 23.2849C899.45 23.2166 899.241 23.1075 899.056 22.9578C898.873 22.8048 898.717 22.6062 898.587 22.3621C898.457 22.1179 898.357 21.8217 898.289 21.4734C898.221 21.1251 898.187 20.7182 898.187 20.2527V19.1687C898.187 18.586 898.239 18.0977 898.343 17.7039C898.45 17.31 898.602 16.9942 898.797 16.7566C898.992 16.5157 899.227 16.3432 899.5 16.239C899.777 16.1348 900.086 16.0828 900.428 16.0828C900.704 16.0828 900.958 16.1169 901.189 16.1853C901.424 16.2504 901.632 16.3562 901.814 16.5027C901.997 16.6459 902.151 16.838 902.278 17.0789C902.409 17.3165 902.508 17.6078 902.576 17.9529C902.645 18.2979 902.679 18.7032 902.679 19.1687ZM901.771 20.3992V19.0173C901.771 18.6983 901.751 18.4184 901.712 18.1775C901.676 17.9333 901.622 17.725 901.551 17.5525C901.479 17.38 901.388 17.24 901.277 17.1326C901.17 17.0251 901.045 16.947 900.901 16.8982C900.761 16.8461 900.604 16.8201 900.428 16.8201C900.213 16.8201 900.022 16.8608 899.856 16.9421C899.69 17.0203 899.55 17.1456 899.437 17.3181C899.326 17.4906 899.241 17.7169 899.183 17.9968C899.124 18.2768 899.095 18.6169 899.095 19.0173V20.3992C899.095 20.7182 899.113 20.9998 899.148 21.2439C899.188 21.488 899.244 21.6996 899.319 21.8787C899.394 22.0544 899.485 22.1993 899.593 22.3132C899.7 22.4272 899.824 22.5118 899.964 22.5671C900.107 22.6192 900.265 22.6453 900.438 22.6453C900.659 22.6453 900.853 22.6029 901.019 22.5183C901.185 22.4337 901.323 22.3018 901.434 22.1228C901.548 21.9405 901.632 21.7078 901.688 21.4246C901.743 21.1381 901.771 20.7963 901.771 20.3992ZM903.953 22.8113C903.953 22.6583 904 22.5297 904.095 22.4255C904.192 22.3181 904.332 22.2644 904.515 22.2644C904.697 22.2644 904.835 22.3181 904.93 22.4255C905.027 22.5297 905.076 22.6583 905.076 22.8113C905.076 22.961 905.027 23.088 904.93 23.1921C904.835 23.2963 904.697 23.3484 904.515 23.3484C904.332 23.3484 904.192 23.2963 904.095 23.1921C904 23.088 903.953 22.961 903.953 22.8113ZM910.94 19.1687V20.2527C910.94 20.8354 910.888 21.3269 910.784 21.7273C910.68 22.1277 910.53 22.45 910.335 22.6941C910.14 22.9382 909.904 23.1156 909.627 23.2263C909.354 23.3337 909.044 23.3875 908.699 23.3875C908.426 23.3875 908.174 23.3533 907.942 23.2849C907.711 23.2166 907.503 23.1075 907.317 22.9578C907.135 22.8048 906.979 22.6062 906.849 22.3621C906.718 22.1179 906.619 21.8217 906.551 21.4734C906.482 21.1251 906.448 20.7182 906.448 20.2527V19.1687C906.448 18.586 906.5 18.0977 906.604 17.7039C906.712 17.31 906.863 16.9942 907.059 16.7566C907.254 16.5157 907.488 16.3432 907.762 16.239C908.038 16.1348 908.348 16.0828 908.689 16.0828C908.966 16.0828 909.22 16.1169 909.451 16.1853C909.686 16.2504 909.894 16.3562 910.076 16.5027C910.258 16.6459 910.413 16.838 910.54 17.0789C910.67 17.3165 910.77 17.6078 910.838 17.9529C910.906 18.2979 910.94 18.7032 910.94 19.1687ZM910.032 20.3992V19.0173C910.032 18.6983 910.013 18.4184 909.974 18.1775C909.938 17.9333 909.884 17.725 909.812 17.5525C909.741 17.38 909.65 17.24 909.539 17.1326C909.432 17.0251 909.306 16.947 909.163 16.8982C909.023 16.8461 908.865 16.8201 908.689 16.8201C908.475 16.8201 908.284 16.8608 908.118 16.9421C907.952 17.0203 907.812 17.1456 907.698 17.3181C907.588 17.4906 907.503 17.7169 907.444 17.9968C907.386 18.2768 907.356 18.6169 907.356 19.0173V20.3992C907.356 20.7182 907.374 20.9998 907.41 21.2439C907.449 21.488 907.506 21.6996 907.581 21.8787C907.656 22.0544 907.747 22.1993 907.854 22.3132C907.962 22.4272 908.086 22.5118 908.226 22.5671C908.369 22.6192 908.527 22.6453 908.699 22.6453C908.921 22.6453 909.114 22.6029 909.28 22.5183C909.446 22.4337 909.585 22.3018 909.695 22.1228C909.809 21.9405 909.894 21.7078 909.949 21.4246C910.005 21.1381 910.032 20.7963 910.032 20.3992ZM916.565 19.1687V20.2527C916.565 20.8354 916.513 21.3269 916.409 21.7273C916.305 22.1277 916.155 22.45 915.96 22.6941C915.765 22.9382 915.529 23.1156 915.252 23.2263C914.979 23.3337 914.669 23.3875 914.324 23.3875C914.051 23.3875 913.799 23.3533 913.567 23.2849C913.336 23.2166 913.128 23.1075 912.942 22.9578C912.76 22.8048 912.604 22.6062 912.474 22.3621C912.343 22.1179 912.244 21.8217 912.176 21.4734C912.107 21.1251 912.073 20.7182 912.073 20.2527V19.1687C912.073 18.586 912.125 18.0977 912.229 17.7039C912.337 17.31 912.488 16.9942 912.684 16.7566C912.879 16.5157 913.113 16.3432 913.387 16.239C913.663 16.1348 913.973 16.0828 914.314 16.0828C914.591 16.0828 914.845 16.1169 915.076 16.1853C915.311 16.2504 915.519 16.3562 915.701 16.5027C915.883 16.6459 916.038 16.838 916.165 17.0789C916.295 17.3165 916.395 17.6078 916.463 17.9529C916.531 18.2979 916.565 18.7032 916.565 19.1687ZM915.657 20.3992V19.0173C915.657 18.6983 915.638 18.4184 915.599 18.1775C915.563 17.9333 915.509 17.725 915.438 17.5525C915.366 17.38 915.275 17.24 915.164 17.1326C915.057 17.0251 914.931 16.947 914.788 16.8982C914.648 16.8461 914.49 16.8201 914.314 16.8201C914.1 16.8201 913.909 16.8608 913.743 16.9421C913.577 17.0203 913.437 17.1456 913.323 17.3181C913.213 17.4906 913.128 17.7169 913.069 17.9968C913.011 18.2768 912.981 18.6169 912.981 19.0173V20.3992C912.981 20.7182 912.999 20.9998 913.035 21.2439C913.074 21.488 913.131 21.6996 913.206 21.8787C913.281 22.0544 913.372 22.1993 913.479 22.3132C913.587 22.4272 913.711 22.5118 913.851 22.5671C913.994 22.6192 914.152 22.6453 914.324 22.6453C914.546 22.6453 914.739 22.6029 914.905 22.5183C915.071 22.4337 915.21 22.3018 915.32 22.1228C915.434 21.9405 915.519 21.7078 915.574 21.4246C915.63 21.1381 915.657 20.7963 915.657 20.3992Z" fill="#32375E"/>
</g>
</svg>
