<svg width="934" height="41" viewBox="0 0 934 41" fill="none" xmlns="http://www.w3.org/2000/svg">
<rect y="0.289795" width="934" height="40" rx="12" fill="white"/>
<path d="M20.5776 14.2898L26.9282 25.2898C26.9867 25.3911 27.0175 25.5061 27.0175 25.6231C27.0175 25.7401 26.9867 25.8551 26.9282 25.9564C26.8697 26.0578 26.7856 26.1419 26.6842 26.2005C26.5829 26.259 26.4679 26.2898 26.3509 26.2898H13.6496C13.5325 26.2898 13.4176 26.259 13.3162 26.2005C13.2149 26.1419 13.1307 26.0578 13.0722 25.9564C13.0137 25.8551 12.9829 25.7401 12.9829 25.6231C12.9829 25.5061 13.0137 25.3911 13.0722 25.2898L19.4229 14.2898C19.4814 14.1884 19.5656 14.1043 19.6669 14.0458C19.7683 13.9873 19.8832 13.9565 20.0002 13.9565C20.1172 13.9565 20.2322 13.9873 20.3335 14.0458C20.4349 14.1043 20.519 14.1884 20.5776 14.2898ZM14.8042 24.9565H25.1962L20.0002 15.9565L14.8042 24.9565ZM19.3336 22.9565H20.6669V24.2898H19.3336V22.9565ZM19.3336 18.2898H20.6669V21.6231H19.3336V18.2898Z" fill="#E7428C"/>
<g opacity="0.9">
<path d="M43.5596 16.1414V23.2898H42.6562V17.2693L40.835 17.9333V17.1179L43.418 16.1414H43.5596ZM50.874 22.5476V23.2898H46.2207V22.6404L48.5498 20.0476C48.8363 19.7286 49.0576 19.4584 49.2139 19.2371C49.3734 19.0125 49.484 18.8123 49.5459 18.6365C49.611 18.4574 49.6436 18.2751 49.6436 18.0896C49.6436 17.8552 49.5947 17.6436 49.4971 17.4548C49.4027 17.2628 49.2627 17.1098 49.0771 16.9958C48.8916 16.8819 48.667 16.825 48.4033 16.825C48.0876 16.825 47.8239 16.8868 47.6123 17.0105C47.404 17.1309 47.2477 17.3002 47.1436 17.5183C47.0394 17.7364 46.9873 17.9871 46.9873 18.2703H46.084C46.084 17.8699 46.1719 17.5037 46.3477 17.1716C46.5234 16.8396 46.7839 16.5759 47.1289 16.3806C47.474 16.182 47.8988 16.0828 48.4033 16.0828C48.8525 16.0828 49.2367 16.1625 49.5557 16.322C49.8747 16.4783 50.1188 16.6996 50.2881 16.9861C50.4606 17.2693 50.5469 17.6013 50.5469 17.9822C50.5469 18.1905 50.5111 18.4021 50.4395 18.6169C50.3711 18.8285 50.2751 19.0401 50.1514 19.2517C50.0309 19.4633 49.8893 19.6716 49.7266 19.8767C49.5671 20.0818 49.3962 20.2836 49.2139 20.4822L47.3096 22.5476H50.874ZM53.8184 19.8962V20.6384H51.4355V19.8962H53.8184ZM57.4707 16.8103L55.1172 23.2898H54.1553L56.8652 16.1804H57.4854L57.4707 16.8103ZM59.4434 23.2898L57.085 16.8103L57.0703 16.1804H57.6904L60.4102 23.2898H59.4434ZM59.3213 20.658V21.4294H55.3271V20.658H59.3213ZM62.1289 19.0222V25.321H61.2207V18.0066H62.0508L62.1289 19.0222ZM65.6885 20.6042V20.7068C65.6885 21.0909 65.6429 21.4473 65.5518 21.7761C65.4606 22.1016 65.3271 22.3848 65.1514 22.6257C64.9788 22.8666 64.7656 23.0538 64.5117 23.1873C64.2578 23.3207 63.9665 23.3875 63.6377 23.3875C63.3024 23.3875 63.0062 23.3321 62.749 23.2214C62.4919 23.1108 62.2738 22.9496 62.0947 22.738C61.9157 22.5264 61.7725 22.2725 61.665 21.9763C61.5609 21.6801 61.4893 21.3464 61.4502 20.9753V20.4285C61.4893 20.0378 61.5625 19.6879 61.6699 19.3787C61.7773 19.0694 61.9189 18.8057 62.0947 18.5876C62.2738 18.3663 62.4902 18.1986 62.7441 18.0847C62.998 17.9675 63.291 17.9089 63.623 17.9089C63.9551 17.9089 64.2497 17.974 64.5068 18.1042C64.764 18.2312 64.9805 18.4135 65.1562 18.6511C65.332 18.8888 65.4639 19.1736 65.5518 19.5056C65.6429 19.8344 65.6885 20.2006 65.6885 20.6042ZM64.7803 20.7068V20.6042C64.7803 20.3406 64.7526 20.0932 64.6973 19.8621C64.6419 19.6277 64.5557 19.4226 64.4385 19.2468C64.3245 19.0678 64.1781 18.9278 63.999 18.8269C63.82 18.7227 63.6068 18.6707 63.3594 18.6707C63.1315 18.6707 62.9329 18.7097 62.7637 18.7878C62.5977 18.866 62.4561 18.9718 62.3389 19.1052C62.2217 19.2354 62.1257 19.3852 62.0508 19.5544C61.9792 19.7205 61.9255 19.893 61.8896 20.072V21.3367C61.9548 21.5645 62.0459 21.7794 62.1631 21.9812C62.2803 22.1798 62.4365 22.3409 62.6318 22.4646C62.8271 22.585 63.0729 22.6453 63.3691 22.6453C63.6133 22.6453 63.8232 22.5948 63.999 22.4939C64.1781 22.3897 64.3245 22.2481 64.4385 22.0691C64.5557 21.8901 64.6419 21.685 64.6973 21.4539C64.7526 21.2195 64.7803 20.9705 64.7803 20.7068ZM67.7441 18.8367V23.2898H66.8408V18.0066H67.7197L67.7441 18.8367ZM69.3945 17.9773L69.3896 18.8171C69.3148 18.8009 69.2432 18.7911 69.1748 18.7878C69.1097 18.7813 69.0348 18.7781 68.9502 18.7781C68.7419 18.7781 68.5579 18.8106 68.3984 18.8757C68.2389 18.9408 68.1038 19.032 67.9932 19.1492C67.8825 19.2664 67.7946 19.4063 67.7295 19.5691C67.6676 19.7286 67.627 19.9044 67.6074 20.0964L67.3535 20.2429C67.3535 19.9239 67.3844 19.6244 67.4463 19.3445C67.5114 19.0645 67.6107 18.8171 67.7441 18.6023C67.8776 18.3842 68.0469 18.2149 68.252 18.0945C68.4603 17.9708 68.7077 17.9089 68.9941 17.9089C69.0592 17.9089 69.1341 17.9171 69.2188 17.9333C69.3034 17.9464 69.362 17.961 69.3945 17.9773ZM72.1094 19.8962V20.6384H69.7266V19.8962H72.1094ZM77.5537 22.5476V23.2898H72.9004V22.6404L75.2295 20.0476C75.516 19.7286 75.7373 19.4584 75.8936 19.2371C76.0531 19.0125 76.1637 18.8123 76.2256 18.6365C76.2907 18.4574 76.3232 18.2751 76.3232 18.0896C76.3232 17.8552 76.2744 17.6436 76.1768 17.4548C76.0824 17.2628 75.9424 17.1098 75.7568 16.9958C75.5713 16.8819 75.3467 16.825 75.083 16.825C74.7673 16.825 74.5036 16.8868 74.292 17.0105C74.0837 17.1309 73.9274 17.3002 73.8232 17.5183C73.7191 17.7364 73.667 17.9871 73.667 18.2703H72.7637C72.7637 17.8699 72.8516 17.5037 73.0273 17.1716C73.2031 16.8396 73.4635 16.5759 73.8086 16.3806C74.1536 16.182 74.5785 16.0828 75.083 16.0828C75.5322 16.0828 75.9163 16.1625 76.2354 16.322C76.5544 16.4783 76.7985 16.6996 76.9678 16.9861C77.1403 17.2693 77.2266 17.6013 77.2266 17.9822C77.2266 18.1905 77.1908 18.4021 77.1191 18.6169C77.0508 18.8285 76.9548 19.0401 76.8311 19.2517C76.7106 19.4633 76.569 19.6716 76.4062 19.8767C76.2467 20.0818 76.0758 20.2836 75.8936 20.4822L73.9893 22.5476H77.5537ZM83.1787 22.5476V23.2898H78.5254V22.6404L80.8545 20.0476C81.141 19.7286 81.3623 19.4584 81.5186 19.2371C81.6781 19.0125 81.7887 18.8123 81.8506 18.6365C81.9157 18.4574 81.9482 18.2751 81.9482 18.0896C81.9482 17.8552 81.8994 17.6436 81.8018 17.4548C81.7074 17.2628 81.5674 17.1098 81.3818 16.9958C81.1963 16.8819 80.9717 16.825 80.708 16.825C80.3923 16.825 80.1286 16.8868 79.917 17.0105C79.7087 17.1309 79.5524 17.3002 79.4482 17.5183C79.3441 17.7364 79.292 17.9871 79.292 18.2703H78.3887C78.3887 17.8699 78.4766 17.5037 78.6523 17.1716C78.8281 16.8396 79.0885 16.5759 79.4336 16.3806C79.7786 16.182 80.2035 16.0828 80.708 16.0828C81.1572 16.0828 81.5413 16.1625 81.8604 16.322C82.1794 16.4783 82.4235 16.6996 82.5928 16.9861C82.7653 17.2693 82.8516 17.6013 82.8516 17.9822C82.8516 18.1905 82.8158 18.4021 82.7441 18.6169C82.6758 18.8285 82.5798 19.0401 82.4561 19.2517C82.3356 19.4633 82.194 19.6716 82.0312 19.8767C81.8717 20.0818 81.7008 20.2836 81.5186 20.4822L79.6143 22.5476H83.1787ZM89.5947 16.1414V23.2898H88.6914V17.2693L86.8701 17.9333V17.1179L89.4531 16.1414H89.5947ZM93.3936 19.906L92.6709 19.7205L93.0273 16.1804H96.6748V17.0154H93.7939L93.5791 18.949C93.7093 18.8741 93.8737 18.8041 94.0723 18.739C94.2741 18.6739 94.5052 18.6414 94.7656 18.6414C95.0944 18.6414 95.389 18.6983 95.6494 18.8123C95.9098 18.9229 96.1312 19.0824 96.3135 19.2908C96.499 19.4991 96.6406 19.7498 96.7383 20.0427C96.8359 20.3357 96.8848 20.6628 96.8848 21.0242C96.8848 21.366 96.8376 21.6801 96.7432 21.9666C96.652 22.253 96.5137 22.5037 96.3281 22.7185C96.1426 22.9301 95.9082 23.0945 95.625 23.2117C95.3451 23.3289 95.0146 23.3875 94.6338 23.3875C94.3473 23.3875 94.0755 23.3484 93.8184 23.2703C93.5645 23.1889 93.3366 23.0668 93.1348 22.9041C92.9362 22.738 92.7734 22.533 92.6465 22.2888C92.5228 22.0414 92.4447 21.7517 92.4121 21.4197H93.2715C93.3105 21.6866 93.3887 21.9112 93.5059 22.0935C93.623 22.2758 93.776 22.4141 93.9648 22.5085C94.1569 22.5997 94.3799 22.6453 94.6338 22.6453C94.8486 22.6453 95.0391 22.6078 95.2051 22.533C95.3711 22.4581 95.5111 22.3507 95.625 22.2107C95.7389 22.0707 95.8252 21.9014 95.8838 21.7029C95.9456 21.5043 95.9766 21.2813 95.9766 21.0339C95.9766 20.8093 95.9456 20.601 95.8838 20.4089C95.8219 20.2169 95.7292 20.0492 95.6055 19.906C95.485 19.7628 95.3369 19.6521 95.1611 19.574C94.9854 19.4926 94.7835 19.4519 94.5557 19.4519C94.2529 19.4519 94.0234 19.4926 93.8672 19.574C93.7142 19.6554 93.5563 19.766 93.3936 19.906ZM97.9346 22.8113C97.9346 22.6583 97.9818 22.5297 98.0762 22.4255C98.1738 22.3181 98.3138 22.2644 98.4961 22.2644C98.6784 22.2644 98.8167 22.3181 98.9111 22.4255C99.0088 22.5297 99.0576 22.6583 99.0576 22.8113C99.0576 22.961 99.0088 23.088 98.9111 23.1921C98.8167 23.2963 98.6784 23.3484 98.4961 23.3484C98.3138 23.3484 98.1738 23.2963 98.0762 23.1921C97.9818 23.088 97.9346 22.961 97.9346 22.8113ZM97.9395 18.4998C97.9395 18.3468 97.9867 18.2182 98.0811 18.114C98.1787 18.0066 98.3187 17.9529 98.501 17.9529C98.6833 17.9529 98.8216 18.0066 98.916 18.114C99.0137 18.2182 99.0625 18.3468 99.0625 18.4998C99.0625 18.6495 99.0137 18.7764 98.916 18.8806C98.8216 18.9848 98.6833 19.0369 98.501 19.0369C98.3187 19.0369 98.1787 18.9848 98.0811 18.8806C97.9867 18.7764 97.9395 18.6495 97.9395 18.4998ZM103.267 16.1414V23.2898H102.363V17.2693L100.542 17.9333V17.1179L103.125 16.1414H103.267ZM107.065 19.906L106.343 19.7205L106.699 16.1804H110.347V17.0154H107.466L107.251 18.949C107.381 18.8741 107.546 18.8041 107.744 18.739C107.946 18.6739 108.177 18.6414 108.438 18.6414C108.766 18.6414 109.061 18.6983 109.321 18.8123C109.582 18.9229 109.803 19.0824 109.985 19.2908C110.171 19.4991 110.312 19.7498 110.41 20.0427C110.508 20.3357 110.557 20.6628 110.557 21.0242C110.557 21.366 110.509 21.6801 110.415 21.9666C110.324 22.253 110.186 22.5037 110 22.7185C109.814 22.9301 109.58 23.0945 109.297 23.2117C109.017 23.3289 108.687 23.3875 108.306 23.3875C108.019 23.3875 107.747 23.3484 107.49 23.2703C107.236 23.1889 107.008 23.0668 106.807 22.9041C106.608 22.738 106.445 22.533 106.318 22.2888C106.195 22.0414 106.117 21.7517 106.084 21.4197H106.943C106.982 21.6866 107.061 21.9112 107.178 22.0935C107.295 22.2758 107.448 22.4141 107.637 22.5085C107.829 22.5997 108.052 22.6453 108.306 22.6453C108.521 22.6453 108.711 22.6078 108.877 22.533C109.043 22.4581 109.183 22.3507 109.297 22.2107C109.411 22.0707 109.497 21.9014 109.556 21.7029C109.618 21.5043 109.648 21.2813 109.648 21.0339C109.648 20.8093 109.618 20.601 109.556 20.4089C109.494 20.2169 109.401 20.0492 109.277 19.906C109.157 19.7628 109.009 19.6521 108.833 19.574C108.657 19.4926 108.455 19.4519 108.228 19.4519C107.925 19.4519 107.695 19.4926 107.539 19.574C107.386 19.6554 107.228 19.766 107.065 19.906Z" fill="#32375E"/>
</g>
<g opacity="0.9">
<path d="M192.489 22.533H192.582C193.103 22.533 193.526 22.4597 193.852 22.3132C194.177 22.1667 194.428 21.9698 194.604 21.7224C194.779 21.475 194.9 21.1967 194.965 20.8875C195.03 20.575 195.062 20.2543 195.062 19.9255V18.8367C195.062 18.5144 195.025 18.2279 194.95 17.9773C194.879 17.7266 194.778 17.5167 194.647 17.3474C194.521 17.1781 194.376 17.0496 194.213 16.9617C194.05 16.8738 193.878 16.8298 193.695 16.8298C193.487 16.8298 193.3 16.8722 193.134 16.9568C192.971 17.0382 192.833 17.1537 192.719 17.3035C192.608 17.4532 192.523 17.629 192.465 17.8308C192.406 18.0326 192.377 18.2524 192.377 18.49C192.377 18.7016 192.403 18.9067 192.455 19.1052C192.507 19.3038 192.587 19.4828 192.694 19.6423C192.802 19.8018 192.935 19.9288 193.095 20.0232C193.257 20.1143 193.448 20.1599 193.666 20.1599C193.868 20.1599 194.057 20.1208 194.232 20.0427C194.411 19.9613 194.569 19.8523 194.706 19.7156C194.846 19.5756 194.957 19.4177 195.038 19.2419C195.123 19.0662 195.172 18.8822 195.185 18.6902H195.614C195.614 18.9604 195.561 19.2273 195.453 19.491C195.349 19.7514 195.202 19.989 195.014 20.2039C194.825 20.4187 194.604 20.5912 194.35 20.7214C194.096 20.8484 193.819 20.9119 193.52 20.9119C193.168 20.9119 192.864 20.8435 192.606 20.7068C192.349 20.5701 192.138 20.3878 191.972 20.1599C191.809 19.932 191.687 19.6781 191.605 19.3982C191.527 19.115 191.488 18.8285 191.488 18.5388C191.488 18.2003 191.535 17.8829 191.63 17.5867C191.724 17.2904 191.864 17.03 192.05 16.8054C192.235 16.5776 192.465 16.4001 192.738 16.2732C193.015 16.1462 193.334 16.0828 193.695 16.0828C194.102 16.0828 194.449 16.1641 194.735 16.3269C195.022 16.4897 195.255 16.7078 195.434 16.9812C195.616 17.2546 195.749 17.5623 195.834 17.9041C195.919 18.2458 195.961 18.5974 195.961 18.9587V19.2859C195.961 19.6537 195.937 20.0281 195.888 20.4089C195.842 20.7865 195.753 21.1479 195.619 21.4929C195.489 21.838 195.299 22.1472 195.048 22.4207C194.797 22.6908 194.47 22.9057 194.066 23.0652C193.666 23.2214 193.171 23.2996 192.582 23.2996H192.489V22.533ZM201.874 22.5476V23.2898H197.221V22.6404L199.55 20.0476C199.836 19.7286 200.058 19.4584 200.214 19.2371C200.373 19.0125 200.484 18.8123 200.546 18.6365C200.611 18.4574 200.644 18.2751 200.644 18.0896C200.644 17.8552 200.595 17.6436 200.497 17.4548C200.403 17.2628 200.263 17.1098 200.077 16.9958C199.892 16.8819 199.667 16.825 199.403 16.825C199.088 16.825 198.824 16.8868 198.612 17.0105C198.404 17.1309 198.248 17.3002 198.144 17.5183C198.039 17.7364 197.987 17.9871 197.987 18.2703H197.084C197.084 17.8699 197.172 17.5037 197.348 17.1716C197.523 16.8396 197.784 16.5759 198.129 16.3806C198.474 16.182 198.899 16.0828 199.403 16.0828C199.853 16.0828 200.237 16.1625 200.556 16.322C200.875 16.4783 201.119 16.6996 201.288 16.9861C201.461 17.2693 201.547 17.6013 201.547 17.9822C201.547 18.1905 201.511 18.4021 201.439 18.6169C201.371 18.8285 201.275 19.0401 201.151 19.2517C201.031 19.4633 200.889 19.6716 200.727 19.8767C200.567 20.0818 200.396 20.2836 200.214 20.4822L198.31 22.5476H201.874ZM207.646 20.8972V21.6394H202.509V21.1072L205.692 16.1804H206.43L205.639 17.6062L203.534 20.8972H207.646ZM206.654 16.1804V23.2898H205.751V16.1804H206.654ZM212.948 21.366C212.948 21.7989 212.847 22.1667 212.646 22.4695C212.447 22.769 212.177 22.9968 211.835 23.1531C211.496 23.3093 211.114 23.3875 210.688 23.3875C210.261 23.3875 209.877 23.3093 209.535 23.1531C209.193 22.9968 208.923 22.769 208.725 22.4695C208.526 22.1667 208.427 21.7989 208.427 21.366C208.427 21.0828 208.48 20.824 208.588 20.5896C208.699 20.352 208.853 20.1453 209.052 19.9695C209.254 19.7937 209.491 19.6586 209.765 19.5642C210.041 19.4666 210.346 19.4177 210.678 19.4177C211.114 19.4177 211.503 19.5024 211.845 19.6716C212.187 19.8376 212.455 20.0671 212.65 20.3601C212.849 20.6531 212.948 20.9884 212.948 21.366ZM212.04 21.3464C212.04 21.0828 211.983 20.85 211.869 20.6482C211.755 20.4431 211.596 20.2836 211.391 20.1697C211.186 20.0557 210.948 19.9988 210.678 19.9988C210.401 19.9988 210.162 20.0557 209.96 20.1697C209.761 20.2836 209.607 20.4431 209.496 20.6482C209.385 20.85 209.33 21.0828 209.33 21.3464C209.33 21.6199 209.384 21.8542 209.491 22.0496C209.602 22.2416 209.758 22.3897 209.96 22.4939C210.165 22.5948 210.408 22.6453 210.688 22.6453C210.967 22.6453 211.208 22.5948 211.41 22.4939C211.612 22.3897 211.767 22.2416 211.874 22.0496C211.985 21.8542 212.04 21.6199 212.04 21.3464ZM212.782 18.031C212.782 18.3761 212.691 18.6869 212.509 18.9636C212.326 19.2403 212.077 19.4584 211.762 19.6179C211.446 19.7774 211.088 19.8572 210.688 19.8572C210.281 19.8572 209.918 19.7774 209.599 19.6179C209.283 19.4584 209.035 19.2403 208.856 18.9636C208.677 18.6869 208.588 18.3761 208.588 18.031C208.588 17.6176 208.677 17.266 208.856 16.9763C209.039 16.6866 209.288 16.4653 209.604 16.3123C209.919 16.1593 210.279 16.0828 210.683 16.0828C211.09 16.0828 211.451 16.1593 211.767 16.3123C212.082 16.4653 212.33 16.6866 212.509 16.9763C212.691 17.266 212.782 17.6176 212.782 18.031ZM211.879 18.0457C211.879 17.808 211.828 17.5981 211.728 17.4158C211.627 17.2335 211.487 17.0903 211.308 16.9861C211.129 16.8787 210.92 16.825 210.683 16.825C210.445 16.825 210.237 16.8754 210.058 16.9763C209.882 17.074 209.743 17.2139 209.643 17.3962C209.545 17.5785 209.496 17.795 209.496 18.0457C209.496 18.2898 209.545 18.503 209.643 18.6853C209.743 18.8676 209.883 19.0092 210.062 19.1101C210.242 19.211 210.45 19.2615 210.688 19.2615C210.925 19.2615 211.132 19.211 211.308 19.1101C211.487 19.0092 211.627 18.8676 211.728 18.6853C211.828 18.503 211.879 18.2898 211.879 18.0457Z" fill="#3F7BDA"/>
</g>
<g opacity="0.9">
<path d="M230.825 16.1804H233.179C233.713 16.1804 234.163 16.2618 234.531 16.4246C234.902 16.5873 235.184 16.8282 235.376 17.1472C235.571 17.463 235.669 17.852 235.669 18.3142C235.669 18.6397 235.602 18.9376 235.469 19.2078C235.339 19.4747 235.15 19.7026 234.902 19.8914C234.658 20.0769 234.365 20.2153 234.023 20.3064L233.76 20.4089H231.548L231.538 19.6423H233.208C233.547 19.6423 233.828 19.5837 234.053 19.4666C234.277 19.3461 234.447 19.185 234.561 18.9832C234.674 18.7813 234.731 18.5583 234.731 18.3142C234.731 18.0408 234.678 17.8015 234.57 17.5964C234.463 17.3914 234.294 17.2335 234.062 17.1228C233.835 17.0089 233.54 16.9519 233.179 16.9519H231.768V23.2898H230.825V16.1804ZM234.98 23.2898L233.252 20.0671L234.233 20.0623L235.986 23.2312V23.2898H234.98ZM241.504 22.5232V23.2898H237.739V22.5232H241.504ZM237.93 16.1804V23.2898H236.987V16.1804H237.93ZM241.006 19.2371V20.0037H237.739V19.2371H241.006ZM241.455 16.1804V16.9519H237.739V16.1804H241.455ZM246.963 21.0291H247.9C247.852 21.4783 247.723 21.8803 247.515 22.2351C247.306 22.5899 247.012 22.8715 246.631 23.0798C246.25 23.2849 245.775 23.3875 245.205 23.3875C244.788 23.3875 244.409 23.3093 244.067 23.1531C243.729 22.9968 243.438 22.7755 243.193 22.489C242.949 22.1993 242.76 21.8526 242.627 21.449C242.497 21.0421 242.432 20.5896 242.432 20.0916V19.3835C242.432 18.8855 242.497 18.4347 242.627 18.031C242.76 17.6241 242.951 17.2758 243.198 16.9861C243.449 16.6964 243.75 16.4734 244.102 16.3171C244.453 16.1609 244.849 16.0828 245.288 16.0828C245.825 16.0828 246.279 16.1837 246.65 16.3855C247.021 16.5873 247.31 16.8673 247.515 17.2253C247.723 17.5802 247.852 17.9919 247.9 18.4607H246.963C246.917 18.1287 246.833 17.8438 246.709 17.6062C246.585 17.3653 246.41 17.1798 246.182 17.0496C245.954 16.9194 245.656 16.8542 245.288 16.8542C244.972 16.8542 244.694 16.9145 244.453 17.0349C244.215 17.1554 244.015 17.3263 243.853 17.5476C243.693 17.769 243.573 18.0343 243.491 18.3435C243.41 18.6528 243.369 18.9962 243.369 19.3738V20.0916C243.369 20.4399 243.405 20.767 243.477 21.073C243.551 21.379 243.664 21.6475 243.813 21.8787C243.963 22.1098 244.154 22.2921 244.385 22.4255C244.616 22.5557 244.889 22.6208 245.205 22.6208C245.605 22.6208 245.924 22.5574 246.162 22.4304C246.4 22.3035 246.579 22.1212 246.699 21.8835C246.823 21.6459 246.911 21.3611 246.963 21.0291ZM253.252 16.1804H254.189V20.99C254.189 21.5238 254.071 21.9682 253.833 22.323C253.595 22.6778 253.28 22.9447 252.886 23.1238C252.495 23.2996 252.07 23.3875 251.611 23.3875C251.13 23.3875 250.693 23.2996 250.303 23.1238C249.915 22.9447 249.608 22.6778 249.38 22.323C249.155 21.9682 249.043 21.5238 249.043 20.99V16.1804H249.976V20.99C249.976 21.3611 250.044 21.6671 250.181 21.908C250.317 22.1488 250.508 22.3279 250.752 22.4451C250.999 22.5623 251.286 22.6208 251.611 22.6208C251.94 22.6208 252.227 22.5623 252.471 22.4451C252.718 22.3279 252.91 22.1488 253.047 21.908C253.184 21.6671 253.252 21.3611 253.252 20.99V16.1804ZM261.138 16.1804V23.2898H260.19L256.611 17.8064V23.2898H255.669V16.1804H256.611L260.205 21.6785V16.1804H261.138ZM266.597 21.4929C266.597 21.3269 266.571 21.1804 266.519 21.0535C266.47 20.9233 266.382 20.8061 266.255 20.7019C266.131 20.5977 265.959 20.4985 265.737 20.4041C265.519 20.3097 265.243 20.2136 264.907 20.116C264.556 20.0118 264.238 19.8962 263.955 19.7693C263.672 19.6391 263.429 19.491 263.228 19.325C263.026 19.1589 262.871 18.9685 262.764 18.7537C262.656 18.5388 262.603 18.2931 262.603 18.0164C262.603 17.7397 262.66 17.4841 262.773 17.2498C262.887 17.0154 263.05 16.8119 263.262 16.6394C263.477 16.4636 263.732 16.3269 264.028 16.2292C264.325 16.1316 264.655 16.0828 265.02 16.0828C265.553 16.0828 266.006 16.1853 266.377 16.3904C266.751 16.5922 267.036 16.8575 267.231 17.1863C267.427 17.5118 267.524 17.8601 267.524 18.2312H266.587C266.587 17.9643 266.53 17.7283 266.416 17.5232C266.302 17.3149 266.13 17.1521 265.898 17.0349C265.667 16.9145 265.374 16.8542 265.02 16.8542C264.684 16.8542 264.408 16.9047 264.189 17.0056C263.971 17.1065 263.809 17.2432 263.701 17.4158C263.597 17.5883 263.545 17.7852 263.545 18.0066C263.545 18.1563 263.576 18.2931 263.638 18.4167C263.703 18.5372 263.802 18.6495 263.936 18.7537C264.072 18.8578 264.245 18.9539 264.453 19.0417C264.665 19.1296 264.917 19.2143 265.21 19.2957C265.614 19.4096 265.962 19.5365 266.255 19.6765C266.548 19.8165 266.789 19.9744 266.978 20.1501C267.17 20.3227 267.311 20.5196 267.402 20.741C267.497 20.9591 267.544 21.2065 267.544 21.4832C267.544 21.7729 267.485 22.0349 267.368 22.2693C267.251 22.5037 267.083 22.7039 266.865 22.8699C266.647 23.0359 266.385 23.1645 266.079 23.2556C265.776 23.3435 265.438 23.3875 265.063 23.3875C264.735 23.3875 264.411 23.3419 264.092 23.2507C263.776 23.1596 263.488 23.0229 263.228 22.8406C262.97 22.6583 262.764 22.4337 262.607 22.1667C262.454 21.8966 262.378 21.5841 262.378 21.2292H263.315C263.315 21.4734 263.363 21.6833 263.457 21.8591C263.551 22.0317 263.68 22.1749 263.843 22.2888C264.009 22.4028 264.196 22.4874 264.404 22.5427C264.616 22.5948 264.836 22.6208 265.063 22.6208C265.392 22.6208 265.671 22.5753 265.898 22.4841C266.126 22.393 266.299 22.2628 266.416 22.0935C266.536 21.9242 266.597 21.724 266.597 21.4929ZM270.488 19.8962V20.6384H268.105V19.8962H270.488ZM272.593 19.2908H273.237C273.553 19.2908 273.813 19.2387 274.019 19.1345C274.227 19.0271 274.382 18.8822 274.482 18.7C274.587 18.5144 274.639 18.3061 274.639 18.075C274.639 17.8015 274.593 17.572 274.502 17.3865C274.411 17.2009 274.274 17.061 274.092 16.9666C273.91 16.8722 273.678 16.825 273.398 16.825C273.145 16.825 272.92 16.8754 272.725 16.9763C272.533 17.074 272.381 17.2139 272.271 17.3962C272.163 17.5785 272.109 17.7934 272.109 18.0408H271.206C271.206 17.6794 271.297 17.3507 271.479 17.0544C271.662 16.7582 271.917 16.5222 272.246 16.3464C272.578 16.1707 272.962 16.0828 273.398 16.0828C273.828 16.0828 274.204 16.1593 274.526 16.3123C274.849 16.462 275.099 16.6866 275.278 16.9861C275.457 17.2823 275.547 17.6518 275.547 18.0945C275.547 18.2735 275.505 18.4656 275.42 18.6707C275.339 18.8725 275.21 19.0613 275.034 19.2371C274.862 19.4128 274.637 19.5577 274.36 19.6716C274.084 19.7823 273.752 19.8376 273.364 19.8376H272.593V19.2908ZM272.593 20.033V19.491H273.364C273.817 19.491 274.191 19.5447 274.487 19.6521C274.784 19.7595 275.016 19.9028 275.186 20.0818C275.358 20.2608 275.479 20.4578 275.547 20.6726C275.618 20.8842 275.654 21.0958 275.654 21.3074C275.654 21.6394 275.597 21.934 275.483 22.1912C275.373 22.4483 275.215 22.6664 275.01 22.8455C274.808 23.0245 274.57 23.1596 274.297 23.2507C274.023 23.3419 273.726 23.3875 273.403 23.3875C273.094 23.3875 272.803 23.3435 272.529 23.2556C272.259 23.1677 272.02 23.0408 271.812 22.8748C271.603 22.7055 271.44 22.4988 271.323 22.2546C271.206 22.0072 271.147 21.7257 271.147 21.4099H272.051C272.051 21.6573 272.104 21.8738 272.212 22.0593C272.323 22.2449 272.479 22.3897 272.681 22.4939C272.886 22.5948 273.127 22.6453 273.403 22.6453C273.68 22.6453 273.918 22.5981 274.116 22.5037C274.318 22.406 274.473 22.2595 274.58 22.0642C274.691 21.8689 274.746 21.6231 274.746 21.3269C274.746 21.0307 274.684 20.7882 274.561 20.5994C274.437 20.4073 274.261 20.2657 274.033 20.1746C273.809 20.0802 273.543 20.033 273.237 20.033H272.593ZM278.042 19.906L277.319 19.7205L277.676 16.1804H281.323V17.0154H278.442L278.228 18.949C278.358 18.8741 278.522 18.8041 278.721 18.739C278.923 18.6739 279.154 18.6414 279.414 18.6414C279.743 18.6414 280.037 18.6983 280.298 18.8123C280.558 18.9229 280.78 19.0824 280.962 19.2908C281.147 19.4991 281.289 19.7498 281.387 20.0427C281.484 20.3357 281.533 20.6628 281.533 21.0242C281.533 21.366 281.486 21.6801 281.392 21.9666C281.3 22.253 281.162 22.5037 280.977 22.7185C280.791 22.9301 280.557 23.0945 280.273 23.2117C279.993 23.3289 279.663 23.3875 279.282 23.3875C278.996 23.3875 278.724 23.3484 278.467 23.2703C278.213 23.1889 277.985 23.0668 277.783 22.9041C277.585 22.738 277.422 22.533 277.295 22.2888C277.171 22.0414 277.093 21.7517 277.061 21.4197H277.92C277.959 21.6866 278.037 21.9112 278.154 22.0935C278.271 22.2758 278.424 22.4141 278.613 22.5085C278.805 22.5997 279.028 22.6453 279.282 22.6453C279.497 22.6453 279.688 22.6078 279.854 22.533C280.02 22.4581 280.16 22.3507 280.273 22.2107C280.387 22.0707 280.474 21.9014 280.532 21.7029C280.594 21.5043 280.625 21.2813 280.625 21.0339C280.625 20.8093 280.594 20.601 280.532 20.4089C280.47 20.2169 280.378 20.0492 280.254 19.906C280.133 19.7628 279.985 19.6521 279.81 19.574C279.634 19.4926 279.432 19.4519 279.204 19.4519C278.901 19.4519 278.672 19.4926 278.516 19.574C278.363 19.6554 278.205 19.766 278.042 19.906Z" fill="#32375E"/>
</g>
<path d="M327 14.2898C327 10.9761 329.686 8.28979 333 8.28979H345C348.314 8.28979 351 10.9761 351 14.2898V26.2898C351 29.6035 348.314 32.2898 345 32.2898H333C329.686 32.2898 327 29.6035 327 26.2898V14.2898Z" fill="#F0F5F9"/>
<path d="M335.969 22.7898H334.781L334.789 22.1765H335.969C336.375 22.1765 336.714 22.0919 336.984 21.9226C337.255 21.7507 337.458 21.5111 337.594 21.2039C337.732 20.894 337.801 20.532 337.801 20.1179V19.7703C337.801 19.4447 337.762 19.1557 337.684 18.9031C337.605 18.6479 337.491 18.433 337.34 18.2585C337.189 18.0815 337.004 17.9473 336.785 17.8562C336.569 17.7651 336.32 17.7195 336.039 17.7195H334.758V17.1023H336.039C336.411 17.1023 336.751 17.1648 337.059 17.2898C337.366 17.4122 337.63 17.5906 337.852 17.825C338.076 18.0567 338.247 18.338 338.367 18.6687C338.487 18.9968 338.547 19.3666 338.547 19.7781V20.1179C338.547 20.5294 338.487 20.9005 338.367 21.2312C338.247 21.5593 338.074 21.8393 337.848 22.071C337.624 22.3028 337.353 22.4812 337.035 22.6062C336.72 22.7286 336.365 22.7898 335.969 22.7898ZM335.184 17.1023V22.7898H334.43V17.1023H335.184ZM343.113 20.9812H343.863C343.824 21.3406 343.721 21.6622 343.555 21.946C343.388 22.2299 343.152 22.4552 342.848 22.6218C342.543 22.7859 342.163 22.8679 341.707 22.8679C341.374 22.8679 341.07 22.8054 340.797 22.6804C340.526 22.5554 340.293 22.3783 340.098 22.1492C339.902 21.9174 339.751 21.6401 339.645 21.3171C339.54 20.9916 339.488 20.6296 339.488 20.2312V19.6648C339.488 19.2664 339.54 18.9057 339.645 18.5828C339.751 18.2572 339.904 17.9786 340.102 17.7468C340.302 17.5151 340.543 17.3367 340.824 17.2117C341.105 17.0867 341.422 17.0242 341.773 17.0242C342.203 17.0242 342.566 17.1049 342.863 17.2664C343.16 17.4278 343.391 17.6518 343.555 17.9382C343.721 18.2221 343.824 18.5515 343.863 18.9265H343.113C343.077 18.6609 343.009 18.433 342.91 18.2429C342.811 18.0502 342.671 17.9018 342.488 17.7976C342.306 17.6934 342.068 17.6414 341.773 17.6414C341.521 17.6414 341.298 17.6895 341.105 17.7859C340.915 17.8822 340.755 18.019 340.625 18.196C340.497 18.3731 340.401 18.5854 340.336 18.8328C340.271 19.0802 340.238 19.3549 340.238 19.657V20.2312C340.238 20.5098 340.267 20.7716 340.324 21.0164C340.384 21.2611 340.474 21.476 340.594 21.6609C340.714 21.8458 340.866 21.9916 341.051 22.0984C341.236 22.2026 341.454 22.2546 341.707 22.2546C342.027 22.2546 342.283 22.2039 342.473 22.1023C342.663 22.0007 342.806 21.8549 342.902 21.6648C343.001 21.4747 343.072 21.2468 343.113 20.9812Z" fill="#32375E"/>
<path d="M362.457 16.8103L360.104 23.2898H359.142L361.852 16.1804H362.472L362.457 16.8103ZM364.43 23.2898L362.071 16.8103L362.057 16.1804H362.677L365.396 23.2898H364.43ZM364.308 20.658V21.4294H360.313V20.658H364.308ZM367.193 15.7898V23.2898H366.285V15.7898H367.193ZM369.991 23.2898H369.088V17.45C369.088 17.0691 369.156 16.7485 369.293 16.488C369.433 16.2244 369.633 16.0258 369.894 15.8923C370.154 15.7556 370.463 15.6873 370.821 15.6873C370.925 15.6873 371.03 15.6938 371.134 15.7068C371.241 15.7198 371.345 15.7393 371.446 15.7654L371.397 16.5027C371.329 16.4864 371.251 16.475 371.163 16.4685C371.078 16.462 370.994 16.4587 370.909 16.4587C370.717 16.4587 370.551 16.4978 370.411 16.5759C370.274 16.6508 370.17 16.7615 370.099 16.908C370.027 17.0544 369.991 17.2351 369.991 17.45V23.2898ZM371.114 18.0066V18.7H368.253V18.0066H371.114ZM373.023 18.8367V23.2898H372.12V18.0066H372.999L373.023 18.8367ZM374.674 17.9773L374.669 18.8171C374.594 18.8009 374.522 18.7911 374.454 18.7878C374.389 18.7813 374.314 18.7781 374.229 18.7781C374.021 18.7781 373.837 18.8106 373.678 18.8757C373.518 18.9408 373.383 19.032 373.272 19.1492C373.162 19.2664 373.074 19.4063 373.009 19.5691C372.947 19.7286 372.906 19.9044 372.887 20.0964L372.633 20.2429C372.633 19.9239 372.664 19.6244 372.726 19.3445C372.791 19.0645 372.89 18.8171 373.023 18.6023C373.157 18.3842 373.326 18.2149 373.531 18.0945C373.74 17.9708 373.987 17.9089 374.273 17.9089C374.339 17.9089 374.413 17.9171 374.498 17.9333C374.583 17.9464 374.641 17.961 374.674 17.9773ZM377.604 23.3875C377.236 23.3875 376.902 23.3256 376.603 23.2019C376.306 23.075 376.051 22.8975 375.836 22.6697C375.624 22.4418 375.462 22.1716 375.348 21.8591C375.234 21.5466 375.177 21.2048 375.177 20.8337V20.6287C375.177 20.199 375.24 19.8165 375.367 19.4812C375.494 19.1427 375.667 18.8562 375.885 18.6218C376.103 18.3875 376.35 18.21 376.627 18.0896C376.904 17.9692 377.19 17.9089 377.486 17.9089C377.864 17.9089 378.189 17.974 378.463 18.1042C378.74 18.2345 378.966 18.4167 379.142 18.6511C379.317 18.8822 379.448 19.1557 379.532 19.4714C379.617 19.7839 379.659 20.1257 379.659 20.4968V20.9021H375.714V20.1648H378.756V20.0964C378.743 19.8621 378.694 19.6342 378.609 19.4128C378.528 19.1915 378.398 19.0092 378.219 18.866C378.04 18.7227 377.796 18.6511 377.486 18.6511C377.281 18.6511 377.092 18.6951 376.92 18.783C376.747 18.8676 376.599 18.9945 376.476 19.1638C376.352 19.3331 376.256 19.5398 376.188 19.7839C376.119 20.0281 376.085 20.3097 376.085 20.6287V20.8337C376.085 21.0844 376.119 21.3204 376.188 21.5417C376.259 21.7598 376.362 21.9519 376.495 22.1179C376.632 22.2839 376.796 22.4141 376.988 22.5085C377.184 22.6029 377.405 22.6501 377.652 22.6501C377.971 22.6501 378.242 22.585 378.463 22.4548C378.684 22.3246 378.878 22.1505 379.044 21.9324L379.591 22.3669C379.477 22.5395 379.332 22.7039 379.156 22.8601C378.98 23.0164 378.764 23.1433 378.507 23.241C378.253 23.3386 377.952 23.3875 377.604 23.3875ZM384.044 22.2644V15.7898H384.952V23.2898H384.122L384.044 22.2644ZM380.489 20.7068V20.6042C380.489 20.2006 380.538 19.8344 380.636 19.5056C380.737 19.1736 380.878 18.8888 381.061 18.6511C381.246 18.4135 381.466 18.2312 381.72 18.1042C381.977 17.974 382.263 17.9089 382.579 17.9089C382.911 17.9089 383.201 17.9675 383.448 18.0847C383.699 18.1986 383.91 18.3663 384.083 18.5876C384.259 18.8057 384.397 19.0694 384.498 19.3787C384.599 19.6879 384.669 20.0378 384.708 20.4285V20.8777C384.672 21.2651 384.602 21.6134 384.498 21.9226C384.397 22.2319 384.259 22.4955 384.083 22.7136C383.91 22.9317 383.699 23.0994 383.448 23.2166C383.198 23.3305 382.905 23.3875 382.569 23.3875C382.26 23.3875 381.977 23.3207 381.72 23.1873C381.466 23.0538 381.246 22.8666 381.061 22.6257C380.878 22.3848 380.737 22.1016 380.636 21.7761C380.538 21.4473 380.489 21.0909 380.489 20.7068ZM381.397 20.6042V20.7068C381.397 20.9705 381.424 21.2179 381.476 21.449C381.531 21.6801 381.616 21.8835 381.729 22.0593C381.843 22.2351 381.988 22.3735 382.164 22.4744C382.34 22.572 382.55 22.6208 382.794 22.6208C383.093 22.6208 383.339 22.5574 383.531 22.4304C383.727 22.3035 383.883 22.1358 384 21.9275C384.117 21.7192 384.208 21.4929 384.273 21.2488V20.072C384.234 19.893 384.177 19.7205 384.103 19.5544C384.031 19.3852 383.937 19.2354 383.819 19.1052C383.705 18.9718 383.564 18.866 383.395 18.7878C383.229 18.7097 383.032 18.6707 382.804 18.6707C382.556 18.6707 382.343 18.7227 382.164 18.8269C381.988 18.9278 381.843 19.0678 381.729 19.2468C381.616 19.4226 381.531 19.6277 381.476 19.8621C381.424 20.0932 381.397 20.3406 381.397 20.6042ZM391.598 20.5017H389.698V19.7351H391.598C391.965 19.7351 392.263 19.6765 392.491 19.5593C392.719 19.4421 392.885 19.2794 392.989 19.071C393.097 18.8627 393.15 18.6251 393.15 18.3582C393.15 18.114 393.097 17.8845 392.989 17.6697C392.885 17.4548 392.719 17.2823 392.491 17.1521C392.263 17.0186 391.965 16.9519 391.598 16.9519H389.918V23.2898H388.976V16.1804H391.598C392.135 16.1804 392.589 16.2732 392.96 16.4587C393.331 16.6443 393.613 16.9014 393.805 17.2302C393.997 17.5557 394.093 17.9285 394.093 18.3484C394.093 18.8041 393.997 19.1931 393.805 19.5154C393.613 19.8376 393.331 20.0834 392.96 20.2527C392.589 20.4187 392.135 20.5017 391.598 20.5017ZM398.204 22.3865V19.6667C398.204 19.4584 398.162 19.2778 398.077 19.1248C397.996 18.9685 397.872 18.8481 397.706 18.7634C397.54 18.6788 397.335 18.6365 397.091 18.6365C396.863 18.6365 396.663 18.6755 396.49 18.7537C396.321 18.8318 396.188 18.9343 396.09 19.0613C395.995 19.1882 395.948 19.325 395.948 19.4714H395.045C395.045 19.2826 395.094 19.0955 395.191 18.9099C395.289 18.7244 395.429 18.5567 395.611 18.407C395.797 18.254 396.018 18.1335 396.275 18.0457C396.536 17.9545 396.826 17.9089 397.145 17.9089C397.529 17.9089 397.867 17.974 398.16 18.1042C398.456 18.2345 398.688 18.4314 398.854 18.6951C399.023 18.9555 399.107 19.2826 399.107 19.6765V22.1375C399.107 22.3132 399.122 22.5004 399.151 22.699C399.184 22.8975 399.231 23.0684 399.293 23.2117V23.2898H398.351C398.305 23.1856 398.269 23.0473 398.243 22.8748C398.217 22.699 398.204 22.5362 398.204 22.3865ZM398.36 20.0867L398.37 20.7214H397.457C397.2 20.7214 396.97 20.7426 396.769 20.7849C396.567 20.824 396.397 20.8842 396.261 20.9656C396.124 21.047 396.02 21.1495 395.948 21.2732C395.877 21.3936 395.841 21.5352 395.841 21.698C395.841 21.864 395.878 22.0154 395.953 22.1521C396.028 22.2888 396.14 22.3979 396.29 22.4792C396.443 22.5574 396.63 22.5964 396.852 22.5964C397.128 22.5964 397.372 22.5378 397.584 22.4207C397.796 22.3035 397.963 22.1602 398.087 21.991C398.214 21.8217 398.282 21.6573 398.292 21.4978L398.678 21.9324C398.655 22.0691 398.593 22.2205 398.492 22.3865C398.391 22.5525 398.256 22.712 398.087 22.865C397.921 23.0147 397.722 23.1401 397.491 23.241C397.263 23.3386 397.006 23.3875 396.72 23.3875C396.362 23.3875 396.048 23.3175 395.777 23.1775C395.51 23.0375 395.302 22.8503 395.152 22.616C395.006 22.3783 394.933 22.113 394.933 21.8201C394.933 21.5369 394.988 21.2878 395.099 21.073C395.209 20.8549 395.369 20.6742 395.577 20.531C395.785 20.3845 396.036 20.2738 396.329 20.199C396.622 20.1241 396.949 20.0867 397.311 20.0867H398.36ZM401.51 15.7898V23.2898H400.602V15.7898H401.51ZM403.858 19.0564V23.2898H402.95V18.0066H403.81L403.858 19.0564ZM403.673 20.448L403.253 20.4333C403.256 20.072 403.303 19.7384 403.395 19.4324C403.486 19.1231 403.621 18.8546 403.8 18.6267C403.979 18.3988 404.202 18.2231 404.469 18.0994C404.736 17.9724 405.045 17.9089 405.396 17.9089C405.644 17.9089 405.872 17.9447 406.08 18.0164C406.288 18.0847 406.469 18.1938 406.622 18.3435C406.775 18.4932 406.894 18.6853 406.979 18.9197C407.063 19.1541 407.105 19.4373 407.105 19.7693V23.2898H406.202V19.8132C406.202 19.5365 406.155 19.3152 406.061 19.1492C405.969 18.9832 405.839 18.8627 405.67 18.7878C405.501 18.7097 405.302 18.6707 405.074 18.6707C404.807 18.6707 404.584 18.7179 404.405 18.8123C404.226 18.9067 404.083 19.0369 403.976 19.2029C403.868 19.3689 403.79 19.5593 403.741 19.7742C403.696 19.9858 403.673 20.2104 403.673 20.448ZM407.096 19.95L406.49 20.1355C406.493 19.8458 406.541 19.5675 406.632 19.3005C406.726 19.0336 406.861 18.796 407.037 18.5876C407.216 18.3793 407.436 18.2149 407.696 18.0945C407.957 17.9708 408.255 17.9089 408.59 17.9089C408.873 17.9089 409.124 17.9464 409.342 18.0212C409.563 18.0961 409.749 18.2117 409.898 18.3679C410.051 18.5209 410.167 18.7179 410.245 18.9587C410.323 19.1996 410.362 19.4861 410.362 19.8181V23.2898H409.454V19.8083C409.454 19.5121 409.407 19.2826 409.312 19.1199C409.221 18.9539 409.091 18.8383 408.922 18.7732C408.756 18.7048 408.557 18.6707 408.326 18.6707C408.128 18.6707 407.952 18.7048 407.799 18.7732C407.646 18.8416 407.517 18.936 407.413 19.0564C407.309 19.1736 407.229 19.3087 407.174 19.4617C407.122 19.6147 407.096 19.7774 407.096 19.95ZM413.922 23.3875C413.554 23.3875 413.22 23.3256 412.921 23.2019C412.625 23.075 412.369 22.8975 412.154 22.6697C411.943 22.4418 411.78 22.1716 411.666 21.8591C411.552 21.5466 411.495 21.2048 411.495 20.8337V20.6287C411.495 20.199 411.559 19.8165 411.686 19.4812C411.812 19.1427 411.985 18.8562 412.203 18.6218C412.421 18.3875 412.669 18.21 412.945 18.0896C413.222 17.9692 413.508 17.9089 413.805 17.9089C414.182 17.9089 414.508 17.974 414.781 18.1042C415.058 18.2345 415.284 18.4167 415.46 18.6511C415.636 18.8822 415.766 19.1557 415.851 19.4714C415.935 19.7839 415.978 20.1257 415.978 20.4968V20.9021H412.032V20.1648H415.074V20.0964C415.061 19.8621 415.012 19.6342 414.928 19.4128C414.846 19.1915 414.716 19.0092 414.537 18.866C414.358 18.7227 414.114 18.6511 413.805 18.6511C413.6 18.6511 413.411 18.6951 413.238 18.783C413.066 18.8676 412.918 18.9945 412.794 19.1638C412.67 19.3331 412.574 19.5398 412.506 19.7839C412.438 20.0281 412.403 20.3097 412.403 20.6287V20.8337C412.403 21.0844 412.438 21.3204 412.506 21.5417C412.577 21.7598 412.68 21.9519 412.813 22.1179C412.95 22.2839 413.115 22.4141 413.307 22.5085C413.502 22.6029 413.723 22.6501 413.971 22.6501C414.29 22.6501 414.56 22.585 414.781 22.4548C415.003 22.3246 415.196 22.1505 415.362 21.9324L415.909 22.3669C415.795 22.5395 415.65 22.7039 415.475 22.8601C415.299 23.0164 415.082 23.1433 414.825 23.241C414.571 23.3386 414.27 23.3875 413.922 23.3875ZM417.936 18.8367V23.2898H417.032V18.0066H417.911L417.936 18.8367ZM419.586 17.9773L419.581 18.8171C419.506 18.8009 419.435 18.7911 419.366 18.7878C419.301 18.7813 419.226 18.7781 419.142 18.7781C418.933 18.7781 418.749 18.8106 418.59 18.8757C418.43 18.9408 418.295 19.032 418.185 19.1492C418.074 19.2664 417.986 19.4063 417.921 19.5691C417.859 19.7286 417.818 19.9044 417.799 20.0964L417.545 20.2429C417.545 19.9239 417.576 19.6244 417.638 19.3445C417.703 19.0645 417.802 18.8171 417.936 18.6023C418.069 18.3842 418.238 18.2149 418.443 18.0945C418.652 17.9708 418.899 17.9089 419.186 17.9089C419.251 17.9089 419.326 17.9171 419.41 17.9333C419.495 17.9464 419.553 17.961 419.586 17.9773Z" fill="#32375E"/>
<g opacity="0.9">
<path d="M512.836 16.1804V23.2898H511.894V16.1804H512.836ZM515.316 19.1345V23.2898H514.413V18.0066H515.268L515.316 19.1345ZM515.102 20.448L514.726 20.4333C514.729 20.072 514.783 19.7384 514.887 19.4324C514.991 19.1231 515.137 18.8546 515.326 18.6267C515.515 18.3988 515.74 18.2231 516 18.0994C516.264 17.9724 516.555 17.9089 516.874 17.9089C517.134 17.9089 517.369 17.9447 517.577 18.0164C517.785 18.0847 517.963 18.1954 518.109 18.3484C518.259 18.5014 518.373 18.7 518.451 18.9441C518.529 19.185 518.568 19.4796 518.568 19.8279V23.2898H517.66V19.8181C517.66 19.5414 517.619 19.3201 517.538 19.1541C517.457 18.9848 517.338 18.8627 517.182 18.7878C517.025 18.7097 516.833 18.6707 516.605 18.6707C516.381 18.6707 516.176 18.7179 515.99 18.8123C515.808 18.9067 515.65 19.0369 515.517 19.2029C515.386 19.3689 515.284 19.5593 515.209 19.7742C515.137 19.9858 515.102 20.2104 515.102 20.448ZM523.017 21.8884C523.017 21.7582 522.987 21.6378 522.929 21.5271C522.873 21.4132 522.758 21.3106 522.582 21.2195C522.41 21.1251 522.149 21.0437 521.801 20.9753C521.508 20.9135 521.243 20.8403 521.005 20.7556C520.771 20.671 520.57 20.5684 520.404 20.448C520.242 20.3276 520.116 20.186 520.028 20.0232C519.94 19.8604 519.896 19.67 519.896 19.4519C519.896 19.2436 519.942 19.0466 520.033 18.8611C520.128 18.6755 520.259 18.5111 520.429 18.3679C520.601 18.2247 520.808 18.1124 521.049 18.031C521.29 17.9496 521.558 17.9089 521.854 17.9089C522.278 17.9089 522.639 17.9838 522.938 18.1335C523.238 18.2833 523.467 18.4835 523.627 18.7341C523.786 18.9815 523.866 19.2566 523.866 19.5593H522.963C522.963 19.4128 522.919 19.2712 522.831 19.1345C522.746 18.9945 522.621 18.879 522.455 18.7878C522.292 18.6967 522.092 18.6511 521.854 18.6511C521.604 18.6511 521.4 18.6902 521.244 18.7683C521.091 18.8432 520.979 18.9392 520.907 19.0564C520.839 19.1736 520.805 19.2973 520.805 19.4275C520.805 19.5251 520.821 19.613 520.854 19.6912C520.889 19.766 520.951 19.836 521.039 19.9011C521.127 19.963 521.251 20.0216 521.41 20.0769C521.57 20.1322 521.773 20.1876 522.021 20.2429C522.453 20.3406 522.81 20.4578 523.09 20.5945C523.37 20.7312 523.578 20.8988 523.715 21.0974C523.852 21.296 523.92 21.5369 523.92 21.8201C523.92 22.0512 523.871 22.2628 523.773 22.4548C523.679 22.6469 523.541 22.8129 523.358 22.9529C523.179 23.0896 522.965 23.197 522.714 23.2751C522.466 23.35 522.188 23.3875 521.879 23.3875C521.413 23.3875 521.02 23.3044 520.697 23.1384C520.375 22.9724 520.131 22.7576 519.965 22.4939C519.799 22.2302 519.716 21.9519 519.716 21.6589H520.624C520.637 21.9063 520.709 22.1033 520.839 22.2498C520.969 22.393 521.129 22.4955 521.317 22.5574C521.506 22.616 521.693 22.6453 521.879 22.6453C522.126 22.6453 522.333 22.6127 522.499 22.5476C522.668 22.4825 522.797 22.393 522.885 22.2791C522.973 22.1651 523.017 22.0349 523.017 21.8884ZM527.318 18.0066V18.7H524.462V18.0066H527.318ZM525.429 16.7224H526.332V21.9812C526.332 22.1602 526.36 22.2953 526.415 22.3865C526.47 22.4776 526.542 22.5378 526.63 22.5671C526.718 22.5964 526.812 22.6111 526.913 22.6111C526.988 22.6111 527.066 22.6046 527.147 22.5916C527.232 22.5753 527.296 22.5623 527.338 22.5525L527.343 23.2898C527.271 23.3126 527.177 23.3337 527.06 23.3533C526.946 23.3761 526.807 23.3875 526.645 23.3875C526.423 23.3875 526.22 23.3435 526.034 23.2556C525.849 23.1677 525.701 23.0212 525.59 22.8162C525.482 22.6078 525.429 22.3279 525.429 21.9763V16.7224ZM531.493 22.3865V19.6667C531.493 19.4584 531.451 19.2778 531.366 19.1248C531.285 18.9685 531.161 18.8481 530.995 18.7634C530.829 18.6788 530.624 18.6365 530.38 18.6365C530.152 18.6365 529.952 18.6755 529.779 18.7537C529.61 18.8318 529.477 18.9343 529.379 19.0613C529.285 19.1882 529.237 19.325 529.237 19.4714H528.334C528.334 19.2826 528.383 19.0955 528.48 18.9099C528.578 18.7244 528.718 18.5567 528.9 18.407C529.086 18.254 529.307 18.1335 529.564 18.0457C529.825 17.9545 530.115 17.9089 530.434 17.9089C530.818 17.9089 531.156 17.974 531.449 18.1042C531.745 18.2345 531.977 18.4314 532.143 18.6951C532.312 18.9555 532.396 19.2826 532.396 19.6765V22.1375C532.396 22.3132 532.411 22.5004 532.44 22.699C532.473 22.8975 532.52 23.0684 532.582 23.2117V23.2898H531.64C531.594 23.1856 531.558 23.0473 531.532 22.8748C531.506 22.699 531.493 22.5362 531.493 22.3865ZM531.649 20.0867L531.659 20.7214H530.746C530.489 20.7214 530.259 20.7426 530.058 20.7849C529.856 20.824 529.687 20.8842 529.55 20.9656C529.413 21.047 529.309 21.1495 529.237 21.2732C529.166 21.3936 529.13 21.5352 529.13 21.698C529.13 21.864 529.167 22.0154 529.242 22.1521C529.317 22.2888 529.429 22.3979 529.579 22.4792C529.732 22.5574 529.919 22.5964 530.141 22.5964C530.417 22.5964 530.661 22.5378 530.873 22.4207C531.085 22.3035 531.252 22.1602 531.376 21.991C531.503 21.8217 531.571 21.6573 531.581 21.4978L531.967 21.9324C531.944 22.0691 531.882 22.2205 531.781 22.3865C531.68 22.5525 531.545 22.712 531.376 22.865C531.21 23.0147 531.011 23.1401 530.78 23.241C530.552 23.3386 530.295 23.3875 530.009 23.3875C529.651 23.3875 529.337 23.3175 529.066 23.1775C528.799 23.0375 528.591 22.8503 528.441 22.616C528.295 22.3783 528.222 22.113 528.222 21.8201C528.222 21.5369 528.277 21.2878 528.388 21.073C528.498 20.8549 528.658 20.6742 528.866 20.531C529.075 20.3845 529.325 20.2738 529.618 20.199C529.911 20.1241 530.238 20.0867 530.6 20.0867H531.649ZM534.799 15.7898V23.2898H533.891V15.7898H534.799ZM537.147 19.0564V23.2898H536.239V18.0066H537.099L537.147 19.0564ZM536.962 20.448L536.542 20.4333C536.545 20.072 536.592 19.7384 536.684 19.4324C536.775 19.1231 536.91 18.8546 537.089 18.6267C537.268 18.3988 537.491 18.2231 537.758 18.0994C538.025 17.9724 538.334 17.9089 538.686 17.9089C538.933 17.9089 539.161 17.9447 539.369 18.0164C539.577 18.0847 539.758 18.1938 539.911 18.3435C540.064 18.4932 540.183 18.6853 540.268 18.9197C540.352 19.1541 540.395 19.4373 540.395 19.7693V23.2898H539.491V19.8132C539.491 19.5365 539.444 19.3152 539.35 19.1492C539.258 18.9832 539.128 18.8627 538.959 18.7878C538.79 18.7097 538.591 18.6707 538.363 18.6707C538.096 18.6707 537.873 18.7179 537.694 18.8123C537.515 18.9067 537.372 19.0369 537.265 19.2029C537.157 19.3689 537.079 19.5593 537.03 19.7742C536.985 19.9858 536.962 20.2104 536.962 20.448ZM540.385 19.95L539.779 20.1355C539.783 19.8458 539.83 19.5675 539.921 19.3005C540.015 19.0336 540.15 18.796 540.326 18.5876C540.505 18.3793 540.725 18.2149 540.985 18.0945C541.246 17.9708 541.544 17.9089 541.879 17.9089C542.162 17.9089 542.413 17.9464 542.631 18.0212C542.852 18.0961 543.038 18.2117 543.188 18.3679C543.34 18.5209 543.456 18.7179 543.534 18.9587C543.612 19.1996 543.651 19.4861 543.651 19.8181V23.2898H542.743V19.8083C542.743 19.5121 542.696 19.2826 542.602 19.1199C542.51 18.9539 542.38 18.8383 542.211 18.7732C542.045 18.7048 541.846 18.6707 541.615 18.6707C541.417 18.6707 541.241 18.7048 541.088 18.7732C540.935 18.8416 540.806 18.936 540.702 19.0564C540.598 19.1736 540.518 19.3087 540.463 19.4617C540.411 19.6147 540.385 19.7774 540.385 19.95ZM547.211 23.3875C546.843 23.3875 546.509 23.3256 546.21 23.2019C545.914 23.075 545.658 22.8975 545.443 22.6697C545.232 22.4418 545.069 22.1716 544.955 21.8591C544.841 21.5466 544.784 21.2048 544.784 20.8337V20.6287C544.784 20.199 544.848 19.8165 544.975 19.4812C545.102 19.1427 545.274 18.8562 545.492 18.6218C545.71 18.3875 545.958 18.21 546.234 18.0896C546.511 17.9692 546.798 17.9089 547.094 17.9089C547.471 17.9089 547.797 17.974 548.07 18.1042C548.347 18.2345 548.573 18.4167 548.749 18.6511C548.925 18.8822 549.055 19.1557 549.14 19.4714C549.224 19.7839 549.267 20.1257 549.267 20.4968V20.9021H545.321V20.1648H548.363V20.0964C548.35 19.8621 548.301 19.6342 548.217 19.4128C548.135 19.1915 548.005 19.0092 547.826 18.866C547.647 18.7227 547.403 18.6511 547.094 18.6511C546.889 18.6511 546.7 18.6951 546.527 18.783C546.355 18.8676 546.207 18.9945 546.083 19.1638C545.959 19.3331 545.863 19.5398 545.795 19.7839C545.727 20.0281 545.692 20.3097 545.692 20.6287V20.8337C545.692 21.0844 545.727 21.3204 545.795 21.5417C545.867 21.7598 545.969 21.9519 546.103 22.1179C546.239 22.2839 546.404 22.4141 546.596 22.5085C546.791 22.6029 547.012 22.6501 547.26 22.6501C547.579 22.6501 547.849 22.585 548.07 22.4548C548.292 22.3246 548.485 22.1505 548.651 21.9324L549.198 22.3669C549.084 22.5395 548.939 22.7039 548.764 22.8601C548.588 23.0164 548.371 23.1433 548.114 23.241C547.86 23.3386 547.559 23.3875 547.211 23.3875ZM551.225 19.1345V23.2898H550.321V18.0066H551.176L551.225 19.1345ZM551.01 20.448L550.634 20.4333C550.637 20.072 550.691 19.7384 550.795 19.4324C550.899 19.1231 551.046 18.8546 551.234 18.6267C551.423 18.3988 551.648 18.2231 551.908 18.0994C552.172 17.9724 552.463 17.9089 552.782 17.9089C553.043 17.9089 553.277 17.9447 553.485 18.0164C553.694 18.0847 553.871 18.1954 554.018 18.3484C554.167 18.5014 554.281 18.7 554.359 18.9441C554.438 19.185 554.477 19.4796 554.477 19.8279V23.2898H553.568V19.8181C553.568 19.5414 553.528 19.3201 553.446 19.1541C553.365 18.9848 553.246 18.8627 553.09 18.7878C552.934 18.7097 552.742 18.6707 552.514 18.6707C552.289 18.6707 552.084 18.7179 551.898 18.8123C551.716 18.9067 551.558 19.0369 551.425 19.2029C551.295 19.3689 551.192 19.5593 551.117 19.7742C551.046 19.9858 551.01 20.2104 551.01 20.448ZM558.061 18.0066V18.7H555.204V18.0066H558.061ZM556.171 16.7224H557.074V21.9812C557.074 22.1602 557.102 22.2953 557.157 22.3865C557.213 22.4776 557.284 22.5378 557.372 22.5671C557.46 22.5964 557.554 22.6111 557.655 22.6111C557.73 22.6111 557.808 22.6046 557.89 22.5916C557.974 22.5753 558.038 22.5623 558.08 22.5525L558.085 23.2898C558.013 23.3126 557.919 23.3337 557.802 23.3533C557.688 23.3761 557.549 23.3875 557.387 23.3875C557.165 23.3875 556.962 23.3435 556.776 23.2556C556.591 23.1677 556.443 23.0212 556.332 22.8162C556.225 22.6078 556.171 22.3279 556.171 21.9763V16.7224Z" fill="#32375E"/>
</g>
<g opacity="0.9">
<path d="M667.909 19.2908H668.554C668.869 19.2908 669.13 19.2387 669.335 19.1345C669.543 19.0271 669.698 18.8822 669.799 18.7C669.903 18.5144 669.955 18.3061 669.955 18.075C669.955 17.8015 669.91 17.572 669.818 17.3865C669.727 17.2009 669.59 17.061 669.408 16.9666C669.226 16.8722 668.995 16.825 668.715 16.825C668.461 16.825 668.236 16.8754 668.041 16.9763C667.849 17.074 667.698 17.2139 667.587 17.3962C667.479 17.5785 667.426 17.7934 667.426 18.0408H666.522C666.522 17.6794 666.614 17.3507 666.796 17.0544C666.978 16.7582 667.234 16.5222 667.562 16.3464C667.895 16.1707 668.279 16.0828 668.715 16.0828C669.145 16.0828 669.521 16.1593 669.843 16.3123C670.165 16.462 670.416 16.6866 670.595 16.9861C670.774 17.2823 670.863 17.6518 670.863 18.0945C670.863 18.2735 670.821 18.4656 670.736 18.6707C670.655 18.8725 670.526 19.0613 670.351 19.2371C670.178 19.4128 669.953 19.5577 669.677 19.6716C669.4 19.7823 669.068 19.8376 668.681 19.8376H667.909V19.2908ZM667.909 20.033V19.491H668.681C669.133 19.491 669.507 19.5447 669.804 19.6521C670.1 19.7595 670.333 19.9028 670.502 20.0818C670.674 20.2608 670.795 20.4578 670.863 20.6726C670.935 20.8842 670.971 21.0958 670.971 21.3074C670.971 21.6394 670.914 21.934 670.8 22.1912C670.689 22.4483 670.531 22.6664 670.326 22.8455C670.124 23.0245 669.887 23.1596 669.613 23.2507C669.34 23.3419 669.042 23.3875 668.72 23.3875C668.41 23.3875 668.119 23.3435 667.846 23.2556C667.576 23.1677 667.336 23.0408 667.128 22.8748C666.92 22.7055 666.757 22.4988 666.64 22.2546C666.522 22.0072 666.464 21.7257 666.464 21.4099H667.367C667.367 21.6573 667.421 21.8738 667.528 22.0593C667.639 22.2449 667.795 22.3897 667.997 22.4939C668.202 22.5948 668.443 22.6453 668.72 22.6453C668.996 22.6453 669.234 22.5981 669.433 22.5037C669.634 22.406 669.789 22.2595 669.896 22.0642C670.007 21.8689 670.062 21.6231 670.062 21.3269C670.062 21.0307 670.001 20.7882 669.877 20.5994C669.753 20.4073 669.577 20.2657 669.35 20.1746C669.125 20.0802 668.86 20.033 668.554 20.033H667.909ZM673.134 22.2156V22.9431C673.134 23.2393 673.059 23.5518 672.909 23.8806C672.759 24.2126 672.549 24.4893 672.279 24.7107L671.767 24.3542C671.871 24.211 671.959 24.0645 672.03 23.9148C672.102 23.7683 672.156 23.6153 672.191 23.4558C672.23 23.2996 672.25 23.1335 672.25 22.9578V22.2156H673.134ZM678.847 22.5476V23.2898H674.193V22.6404L676.522 20.0476C676.809 19.7286 677.03 19.4584 677.187 19.2371C677.346 19.0125 677.457 18.8123 677.519 18.6365C677.584 18.4574 677.616 18.2751 677.616 18.0896C677.616 17.8552 677.567 17.6436 677.47 17.4548C677.375 17.2628 677.235 17.1098 677.05 16.9958C676.864 16.8819 676.64 16.825 676.376 16.825C676.06 16.825 675.797 16.8868 675.585 17.0105C675.377 17.1309 675.22 17.3002 675.116 17.5183C675.012 17.7364 674.96 17.9871 674.96 18.2703H674.057C674.057 17.8699 674.145 17.5037 674.32 17.1716C674.496 16.8396 674.757 16.5759 675.102 16.3806C675.447 16.182 675.871 16.0828 676.376 16.0828C676.825 16.0828 677.209 16.1625 677.528 16.322C677.847 16.4783 678.091 16.6996 678.261 16.9861C678.433 17.2693 678.52 17.6013 678.52 17.9822C678.52 18.1905 678.484 18.4021 678.412 18.6169C678.344 18.8285 678.248 19.0401 678.124 19.2517C678.004 19.4633 677.862 19.6716 677.699 19.8767C677.54 20.0818 677.369 20.2836 677.187 20.4822L675.282 22.5476H678.847ZM680.712 22.533H680.805C681.326 22.533 681.749 22.4597 682.074 22.3132C682.4 22.1667 682.65 21.9698 682.826 21.7224C683.002 21.475 683.122 21.1967 683.188 20.8875C683.253 20.575 683.285 20.2543 683.285 19.9255V18.8367C683.285 18.5144 683.248 18.2279 683.173 17.9773C683.101 17.7266 683 17.5167 682.87 17.3474C682.743 17.1781 682.598 17.0496 682.436 16.9617C682.273 16.8738 682.1 16.8298 681.918 16.8298C681.71 16.8298 681.522 16.8722 681.356 16.9568C681.194 17.0382 681.055 17.1537 680.941 17.3035C680.831 17.4532 680.746 17.629 680.688 17.8308C680.629 18.0326 680.6 18.2524 680.6 18.49C680.6 18.7016 680.626 18.9067 680.678 19.1052C680.73 19.3038 680.81 19.4828 680.917 19.6423C681.024 19.8018 681.158 19.9288 681.317 20.0232C681.48 20.1143 681.671 20.1599 681.889 20.1599C682.09 20.1599 682.279 20.1208 682.455 20.0427C682.634 19.9613 682.792 19.8523 682.929 19.7156C683.069 19.5756 683.179 19.4177 683.261 19.2419C683.345 19.0662 683.394 18.8822 683.407 18.6902H683.837C683.837 18.9604 683.783 19.2273 683.676 19.491C683.572 19.7514 683.425 19.989 683.236 20.2039C683.048 20.4187 682.826 20.5912 682.572 20.7214C682.318 20.8484 682.042 20.9119 681.742 20.9119C681.391 20.9119 681.086 20.8435 680.829 20.7068C680.572 20.5701 680.36 20.3878 680.194 20.1599C680.032 19.932 679.91 19.6781 679.828 19.3982C679.75 19.115 679.711 18.8285 679.711 18.5388C679.711 18.2003 679.758 17.8829 679.853 17.5867C679.947 17.2904 680.087 17.03 680.272 16.8054C680.458 16.5776 680.688 16.4001 680.961 16.2732C681.238 16.1462 681.557 16.0828 681.918 16.0828C682.325 16.0828 682.672 16.1641 682.958 16.3269C683.244 16.4897 683.477 16.7078 683.656 16.9812C683.839 17.2546 683.972 17.5623 684.057 17.9041C684.141 18.2458 684.184 18.5974 684.184 18.9587V19.2859C684.184 19.6537 684.159 20.0281 684.11 20.4089C684.065 20.7865 683.975 21.1479 683.842 21.4929C683.712 21.838 683.521 22.1472 683.271 22.4207C683.02 22.6908 682.693 22.9057 682.289 23.0652C681.889 23.2214 681.394 23.2996 680.805 23.2996H680.712V22.533ZM686.337 22.533H686.43C686.951 22.533 687.374 22.4597 687.699 22.3132C688.025 22.1667 688.275 21.9698 688.451 21.7224C688.627 21.475 688.747 21.1967 688.812 20.8875C688.878 20.575 688.91 20.2543 688.91 19.9255V18.8367C688.91 18.5144 688.873 18.2279 688.798 17.9773C688.726 17.7266 688.625 17.5167 688.495 17.3474C688.368 17.1781 688.223 17.0496 688.061 16.9617C687.898 16.8738 687.725 16.8298 687.543 16.8298C687.335 16.8298 687.147 16.8722 686.981 16.9568C686.819 17.0382 686.68 17.1537 686.566 17.3035C686.456 17.4532 686.371 17.629 686.312 17.8308C686.254 18.0326 686.225 18.2524 686.225 18.49C686.225 18.7016 686.251 18.9067 686.303 19.1052C686.355 19.3038 686.435 19.4828 686.542 19.6423C686.649 19.8018 686.783 19.9288 686.942 20.0232C687.105 20.1143 687.296 20.1599 687.514 20.1599C687.715 20.1599 687.904 20.1208 688.08 20.0427C688.259 19.9613 688.417 19.8523 688.554 19.7156C688.694 19.5756 688.804 19.4177 688.886 19.2419C688.97 19.0662 689.019 18.8822 689.032 18.6902H689.462C689.462 18.9604 689.408 19.2273 689.301 19.491C689.197 19.7514 689.05 19.989 688.861 20.2039C688.673 20.4187 688.451 20.5912 688.197 20.7214C687.943 20.8484 687.667 20.9119 687.367 20.9119C687.016 20.9119 686.711 20.8435 686.454 20.7068C686.197 20.5701 685.985 20.3878 685.819 20.1599C685.657 19.932 685.535 19.6781 685.453 19.3982C685.375 19.115 685.336 18.8285 685.336 18.5388C685.336 18.2003 685.383 17.8829 685.478 17.5867C685.572 17.2904 685.712 17.03 685.897 16.8054C686.083 16.5776 686.312 16.4001 686.586 16.2732C686.863 16.1462 687.182 16.0828 687.543 16.0828C687.95 16.0828 688.297 16.1641 688.583 16.3269C688.869 16.4897 689.102 16.7078 689.281 16.9812C689.464 17.2546 689.597 17.5623 689.682 17.9041C689.766 18.2458 689.809 18.5974 689.809 18.9587V19.2859C689.809 19.6537 689.784 20.0281 689.735 20.4089C689.69 20.7865 689.6 21.1479 689.467 21.4929C689.337 21.838 689.146 22.1472 688.896 22.4207C688.645 22.6908 688.318 22.9057 687.914 23.0652C687.514 23.2214 687.019 23.2996 686.43 23.2996H686.337V22.533ZM691.176 22.8113C691.176 22.6583 691.223 22.5297 691.317 22.4255C691.415 22.3181 691.555 22.2644 691.737 22.2644C691.92 22.2644 692.058 22.3181 692.152 22.4255C692.25 22.5297 692.299 22.6583 692.299 22.8113C692.299 22.961 692.25 23.088 692.152 23.1921C692.058 23.2963 691.92 23.3484 691.737 23.3484C691.555 23.3484 691.415 23.2963 691.317 23.1921C691.223 23.088 691.176 22.961 691.176 22.8113ZM698.163 19.1687V20.2527C698.163 20.8354 698.111 21.3269 698.007 21.7273C697.903 22.1277 697.753 22.45 697.558 22.6941C697.362 22.9382 697.126 23.1156 696.85 23.2263C696.576 23.3337 696.267 23.3875 695.922 23.3875C695.648 23.3875 695.396 23.3533 695.165 23.2849C694.934 23.2166 694.726 23.1075 694.54 22.9578C694.358 22.8048 694.201 22.6062 694.071 22.3621C693.941 22.1179 693.842 21.8217 693.773 21.4734C693.705 21.1251 693.671 20.7182 693.671 20.2527V19.1687C693.671 18.586 693.723 18.0977 693.827 17.7039C693.935 17.31 694.086 16.9942 694.281 16.7566C694.477 16.5157 694.711 16.3432 694.984 16.239C695.261 16.1348 695.57 16.0828 695.912 16.0828C696.189 16.0828 696.443 16.1169 696.674 16.1853C696.908 16.2504 697.117 16.3562 697.299 16.5027C697.481 16.6459 697.636 16.838 697.763 17.0789C697.893 17.3165 697.992 17.6078 698.061 17.9529C698.129 18.2979 698.163 18.7032 698.163 19.1687ZM697.255 20.3992V19.0173C697.255 18.6983 697.235 18.4184 697.196 18.1775C697.16 17.9333 697.107 17.725 697.035 17.5525C696.964 17.38 696.872 17.24 696.762 17.1326C696.654 17.0251 696.529 16.947 696.386 16.8982C696.246 16.8461 696.088 16.8201 695.912 16.8201C695.697 16.8201 695.507 16.8608 695.341 16.9421C695.175 17.0203 695.035 17.1456 694.921 17.3181C694.81 17.4906 694.726 17.7169 694.667 17.9968C694.608 18.2768 694.579 18.6169 694.579 19.0173V20.3992C694.579 20.7182 694.597 20.9998 694.633 21.2439C694.672 21.488 694.729 21.6996 694.804 21.8787C694.879 22.0544 694.97 22.1993 695.077 22.3132C695.185 22.4272 695.308 22.5118 695.448 22.5671C695.591 22.6192 695.749 22.6453 695.922 22.6453C696.143 22.6453 696.337 22.6029 696.503 22.5183C696.669 22.4337 696.807 22.3018 696.918 22.1228C697.032 21.9405 697.117 21.7078 697.172 21.4246C697.227 21.1381 697.255 20.7963 697.255 20.3992ZM703.788 19.1687V20.2527C703.788 20.8354 703.736 21.3269 703.632 21.7273C703.528 22.1277 703.378 22.45 703.183 22.6941C702.987 22.9382 702.751 23.1156 702.475 23.2263C702.201 23.3337 701.892 23.3875 701.547 23.3875C701.273 23.3875 701.021 23.3533 700.79 23.2849C700.559 23.2166 700.351 23.1075 700.165 22.9578C699.983 22.8048 699.826 22.6062 699.696 22.3621C699.566 22.1179 699.467 21.8217 699.398 21.4734C699.33 21.1251 699.296 20.7182 699.296 20.2527V19.1687C699.296 18.586 699.348 18.0977 699.452 17.7039C699.56 17.31 699.711 16.9942 699.906 16.7566C700.102 16.5157 700.336 16.3432 700.609 16.239C700.886 16.1348 701.195 16.0828 701.537 16.0828C701.814 16.0828 702.068 16.1169 702.299 16.1853C702.533 16.2504 702.742 16.3562 702.924 16.5027C703.106 16.6459 703.261 16.838 703.388 17.0789C703.518 17.3165 703.617 17.6078 703.686 17.9529C703.754 18.2979 703.788 18.7032 703.788 19.1687ZM702.88 20.3992V19.0173C702.88 18.6983 702.86 18.4184 702.821 18.1775C702.785 17.9333 702.732 17.725 702.66 17.5525C702.589 17.38 702.497 17.24 702.387 17.1326C702.279 17.0251 702.154 16.947 702.011 16.8982C701.871 16.8461 701.713 16.8201 701.537 16.8201C701.322 16.8201 701.132 16.8608 700.966 16.9421C700.8 17.0203 700.66 17.1456 700.546 17.3181C700.435 17.4906 700.351 17.7169 700.292 17.9968C700.233 18.2768 700.204 18.6169 700.204 19.0173V20.3992C700.204 20.7182 700.222 20.9998 700.258 21.2439C700.297 21.488 700.354 21.6996 700.429 21.8787C700.504 22.0544 700.595 22.1993 700.702 22.3132C700.81 22.4272 700.933 22.5118 701.073 22.5671C701.216 22.6192 701.374 22.6453 701.547 22.6453C701.768 22.6453 701.962 22.6029 702.128 22.5183C702.294 22.4337 702.432 22.3018 702.543 22.1228C702.657 21.9405 702.742 21.7078 702.797 21.4246C702.852 21.1381 702.88 20.7963 702.88 20.3992Z" fill="#32375E"/>
</g>
<g opacity="0.9">
<path d="M727.079 19.7498V22.3523C726.991 22.4825 726.851 22.629 726.659 22.7917C726.467 22.9513 726.202 23.0912 725.863 23.2117C725.528 23.3289 725.095 23.3875 724.564 23.3875C724.132 23.3875 723.733 23.3126 723.368 23.1628C723.007 23.0098 722.693 22.7885 722.426 22.4988C722.162 22.2058 721.957 21.851 721.811 21.4343C721.667 21.0144 721.596 20.5391 721.596 20.0085V19.4568C721.596 18.9262 721.658 18.4526 721.781 18.0359C721.908 17.6192 722.094 17.266 722.338 16.9763C722.582 16.6833 722.882 16.462 723.236 16.3123C723.591 16.1593 723.998 16.0828 724.457 16.0828C725.001 16.0828 725.455 16.1772 725.819 16.366C726.187 16.5515 726.474 16.8087 726.679 17.1375C726.887 17.4662 727.021 17.8406 727.079 18.2605H726.137C726.094 18.0033 726.01 17.769 725.883 17.5574C725.759 17.3458 725.582 17.1765 725.351 17.0496C725.119 16.9194 724.822 16.8542 724.457 16.8542C724.128 16.8542 723.843 16.9145 723.603 17.0349C723.362 17.1554 723.163 17.3279 723.007 17.5525C722.851 17.7771 722.733 18.0489 722.655 18.3679C722.58 18.6869 722.543 19.0466 722.543 19.447V20.0085C722.543 20.4187 722.59 20.7849 722.685 21.1072C722.782 21.4294 722.921 21.7045 723.1 21.9324C723.279 22.157 723.492 22.3279 723.739 22.4451C723.99 22.5623 724.267 22.6208 724.569 22.6208C724.905 22.6208 725.176 22.5932 725.385 22.5378C725.593 22.4792 725.756 22.4109 725.873 22.3328C725.99 22.2514 726.08 22.1749 726.142 22.1033V20.5115H724.496V19.7498H727.079ZM731.176 19.9646H729.374L729.364 19.2078H731C731.27 19.2078 731.506 19.1622 731.708 19.071C731.91 18.9799 732.066 18.8497 732.177 18.6804C732.291 18.5079 732.348 18.3028 732.348 18.0652C732.348 17.8048 732.297 17.5932 732.196 17.4304C732.099 17.2644 731.947 17.144 731.742 17.0691C731.54 16.991 731.283 16.9519 730.971 16.9519H729.584V23.2898H728.642V16.1804H730.971C731.335 16.1804 731.661 16.2179 731.947 16.2927C732.234 16.3643 732.476 16.4783 732.675 16.6345C732.877 16.7875 733.03 16.9828 733.134 17.2205C733.238 17.4581 733.29 17.7429 733.29 18.075C733.29 18.3679 733.215 18.6332 733.065 18.8708C732.916 19.1052 732.707 19.2973 732.44 19.447C732.177 19.5968 731.868 19.6928 731.513 19.7351L731.176 19.9646ZM731.132 23.2898H729.003L729.535 22.5232H731.132C731.431 22.5232 731.685 22.4711 731.894 22.3669C732.105 22.2628 732.266 22.1163 732.377 21.9275C732.488 21.7354 732.543 21.5092 732.543 21.2488C732.543 20.9851 732.496 20.7572 732.401 20.5652C732.307 20.3731 732.159 20.225 731.957 20.1208C731.755 20.0167 731.495 19.9646 731.176 19.9646H729.833L729.843 19.2078H731.679L731.879 19.4812C732.221 19.5105 732.51 19.6082 732.748 19.7742C732.986 19.9369 733.166 20.1453 733.29 20.3992C733.417 20.6531 733.48 20.933 733.48 21.239C733.48 21.6817 733.383 22.0561 733.188 22.3621C732.995 22.6648 732.724 22.8959 732.372 23.0554C732.021 23.2117 731.607 23.2898 731.132 23.2898ZM737.494 20.5017H735.595V19.7351H737.494C737.862 19.7351 738.16 19.6765 738.388 19.5593C738.616 19.4421 738.782 19.2794 738.886 19.071C738.993 18.8627 739.047 18.6251 739.047 18.3582C739.047 18.114 738.993 17.8845 738.886 17.6697C738.782 17.4548 738.616 17.2823 738.388 17.1521C738.16 17.0186 737.862 16.9519 737.494 16.9519H735.814V23.2898H734.872V16.1804H737.494C738.031 16.1804 738.485 16.2732 738.856 16.4587C739.228 16.6443 739.509 16.9014 739.701 17.2302C739.893 17.5557 739.989 17.9285 739.989 18.3484C739.989 18.8041 739.893 19.1931 739.701 19.5154C739.509 19.8376 739.228 20.0834 738.856 20.2527C738.485 20.4187 738.031 20.5017 737.494 20.5017Z" fill="#32375E"/>
</g>
<g opacity="0.9">
<path d="M804.56 16.1414V23.2898H803.656V17.2693L801.835 17.9333V17.1179L804.418 16.1414H804.56ZM811.811 16.1804V16.6882L808.866 23.2898H807.914L810.854 16.9226H807.006V16.1804H811.811ZM816.083 16.1804L813.119 23.9001H812.343L815.312 16.1804H816.083ZM821.63 22.5476V23.2898H816.977V22.6404L819.306 20.0476C819.592 19.7286 819.813 19.4584 819.97 19.2371C820.129 19.0125 820.24 18.8123 820.302 18.6365C820.367 18.4574 820.399 18.2751 820.399 18.0896C820.399 17.8552 820.351 17.6436 820.253 17.4548C820.159 17.2628 820.019 17.1098 819.833 16.9958C819.647 16.8819 819.423 16.825 819.159 16.825C818.843 16.825 818.58 16.8868 818.368 17.0105C818.16 17.1309 818.004 17.3002 817.899 17.5183C817.795 17.7364 817.743 17.9871 817.743 18.2703H816.84C816.84 17.8699 816.928 17.5037 817.104 17.1716C817.279 16.8396 817.54 16.5759 817.885 16.3806C818.23 16.182 818.655 16.0828 819.159 16.0828C819.608 16.0828 819.993 16.1625 820.312 16.322C820.631 16.4783 820.875 16.6996 821.044 16.9861C821.216 17.2693 821.303 17.6013 821.303 17.9822C821.303 18.1905 821.267 18.4021 821.195 18.6169C821.127 18.8285 821.031 19.0401 820.907 19.2517C820.787 19.4633 820.645 19.6716 820.482 19.8767C820.323 20.0818 820.152 20.2836 819.97 20.4822L818.065 22.5476H821.63ZM827.06 19.1687V20.2527C827.06 20.8354 827.007 21.3269 826.903 21.7273C826.799 22.1277 826.649 22.45 826.454 22.6941C826.259 22.9382 826.023 23.1156 825.746 23.2263C825.473 23.3337 825.163 23.3875 824.818 23.3875C824.545 23.3875 824.293 23.3533 824.062 23.2849C823.83 23.2166 823.622 23.1075 823.437 22.9578C823.254 22.8048 823.098 22.6062 822.968 22.3621C822.838 22.1179 822.738 21.8217 822.67 21.4734C822.602 21.1251 822.567 20.7182 822.567 20.2527V19.1687C822.567 18.586 822.619 18.0977 822.724 17.7039C822.831 17.31 822.982 16.9942 823.178 16.7566C823.373 16.5157 823.607 16.3432 823.881 16.239C824.158 16.1348 824.467 16.0828 824.809 16.0828C825.085 16.0828 825.339 16.1169 825.57 16.1853C825.805 16.2504 826.013 16.3562 826.195 16.5027C826.378 16.6459 826.532 16.838 826.659 17.0789C826.789 17.3165 826.889 17.6078 826.957 17.9529C827.025 18.2979 827.06 18.7032 827.06 19.1687ZM826.151 20.3992V19.0173C826.151 18.6983 826.132 18.4184 826.093 18.1775C826.057 17.9333 826.003 17.725 825.932 17.5525C825.86 17.38 825.769 17.24 825.658 17.1326C825.551 17.0251 825.425 16.947 825.282 16.8982C825.142 16.8461 824.984 16.8201 824.809 16.8201C824.594 16.8201 824.403 16.8608 824.237 16.9421C824.071 17.0203 823.931 17.1456 823.817 17.3181C823.707 17.4906 823.622 17.7169 823.563 17.9968C823.505 18.2768 823.476 18.6169 823.476 19.0173V20.3992C823.476 20.7182 823.493 20.9998 823.529 21.2439C823.568 21.488 823.625 21.6996 823.7 21.8787C823.775 22.0544 823.866 22.1993 823.974 22.3132C824.081 22.4272 824.205 22.5118 824.345 22.5671C824.488 22.6192 824.646 22.6453 824.818 22.6453C825.04 22.6453 825.233 22.6029 825.399 22.5183C825.565 22.4337 825.704 22.3018 825.814 22.1228C825.928 21.9405 826.013 21.7078 826.068 21.4246C826.124 21.1381 826.151 20.7963 826.151 20.3992Z" fill="#32375E"/>
</g>
<g opacity="0.9">
<path d="M880.909 19.2908H881.554C881.869 19.2908 882.13 19.2387 882.335 19.1345C882.543 19.0271 882.698 18.8822 882.799 18.7C882.903 18.5144 882.955 18.3061 882.955 18.075C882.955 17.8015 882.91 17.572 882.818 17.3865C882.727 17.2009 882.59 17.061 882.408 16.9666C882.226 16.8722 881.995 16.825 881.715 16.825C881.461 16.825 881.236 16.8754 881.041 16.9763C880.849 17.074 880.698 17.2139 880.587 17.3962C880.479 17.5785 880.426 17.7934 880.426 18.0408H879.522C879.522 17.6794 879.614 17.3507 879.796 17.0544C879.978 16.7582 880.234 16.5222 880.562 16.3464C880.895 16.1707 881.279 16.0828 881.715 16.0828C882.145 16.0828 882.521 16.1593 882.843 16.3123C883.165 16.462 883.416 16.6866 883.595 16.9861C883.774 17.2823 883.863 17.6518 883.863 18.0945C883.863 18.2735 883.821 18.4656 883.736 18.6707C883.655 18.8725 883.526 19.0613 883.351 19.2371C883.178 19.4128 882.953 19.5577 882.677 19.6716C882.4 19.7823 882.068 19.8376 881.681 19.8376H880.909V19.2908ZM880.909 20.033V19.491H881.681C882.133 19.491 882.507 19.5447 882.804 19.6521C883.1 19.7595 883.333 19.9028 883.502 20.0818C883.674 20.2608 883.795 20.4578 883.863 20.6726C883.935 20.8842 883.971 21.0958 883.971 21.3074C883.971 21.6394 883.914 21.934 883.8 22.1912C883.689 22.4483 883.531 22.6664 883.326 22.8455C883.124 23.0245 882.887 23.1596 882.613 23.2507C882.34 23.3419 882.042 23.3875 881.72 23.3875C881.41 23.3875 881.119 23.3435 880.846 23.2556C880.576 23.1677 880.336 23.0408 880.128 22.8748C879.92 22.7055 879.757 22.4988 879.64 22.2546C879.522 22.0072 879.464 21.7257 879.464 21.4099H880.367C880.367 21.6573 880.421 21.8738 880.528 22.0593C880.639 22.2449 880.795 22.3897 880.997 22.4939C881.202 22.5948 881.443 22.6453 881.72 22.6453C881.996 22.6453 882.234 22.5981 882.433 22.5037C882.634 22.406 882.789 22.2595 882.896 22.0642C883.007 21.8689 883.062 21.6231 883.062 21.3269C883.062 21.0307 883.001 20.7882 882.877 20.5994C882.753 20.4073 882.577 20.2657 882.35 20.1746C882.125 20.0802 881.86 20.033 881.554 20.033H880.909ZM886.134 22.2156V22.9431C886.134 23.2393 886.059 23.5518 885.909 23.8806C885.759 24.2126 885.549 24.4893 885.279 24.7107L884.767 24.3542C884.871 24.211 884.959 24.0645 885.03 23.9148C885.102 23.7683 885.156 23.6153 885.191 23.4558C885.23 23.2996 885.25 23.1335 885.25 22.9578V22.2156H886.134ZM890.157 16.1414V23.2898H889.254V17.2693L887.433 17.9333V17.1179L890.016 16.1414H890.157ZM897.618 20.8972V21.6394H892.481V21.1072L895.665 16.1804H896.402L895.611 17.6062L893.507 20.8972H897.618ZM896.627 16.1804V23.2898H895.724V16.1804H896.627ZM899.337 22.533H899.43C899.951 22.533 900.374 22.4597 900.699 22.3132C901.025 22.1667 901.275 21.9698 901.451 21.7224C901.627 21.475 901.747 21.1967 901.812 20.8875C901.878 20.575 901.91 20.2543 901.91 19.9255V18.8367C901.91 18.5144 901.873 18.2279 901.798 17.9773C901.726 17.7266 901.625 17.5167 901.495 17.3474C901.368 17.1781 901.223 17.0496 901.061 16.9617C900.898 16.8738 900.725 16.8298 900.543 16.8298C900.335 16.8298 900.147 16.8722 899.981 16.9568C899.819 17.0382 899.68 17.1537 899.566 17.3035C899.456 17.4532 899.371 17.629 899.312 17.8308C899.254 18.0326 899.225 18.2524 899.225 18.49C899.225 18.7016 899.251 18.9067 899.303 19.1052C899.355 19.3038 899.435 19.4828 899.542 19.6423C899.649 19.8018 899.783 19.9288 899.942 20.0232C900.105 20.1143 900.296 20.1599 900.514 20.1599C900.715 20.1599 900.904 20.1208 901.08 20.0427C901.259 19.9613 901.417 19.8523 901.554 19.7156C901.694 19.5756 901.804 19.4177 901.886 19.2419C901.97 19.0662 902.019 18.8822 902.032 18.6902H902.462C902.462 18.9604 902.408 19.2273 902.301 19.491C902.197 19.7514 902.05 19.989 901.861 20.2039C901.673 20.4187 901.451 20.5912 901.197 20.7214C900.943 20.8484 900.667 20.9119 900.367 20.9119C900.016 20.9119 899.711 20.8435 899.454 20.7068C899.197 20.5701 898.985 20.3878 898.819 20.1599C898.657 19.932 898.535 19.6781 898.453 19.3982C898.375 19.115 898.336 18.8285 898.336 18.5388C898.336 18.2003 898.383 17.8829 898.478 17.5867C898.572 17.2904 898.712 17.03 898.897 16.8054C899.083 16.5776 899.312 16.4001 899.586 16.2732C899.863 16.1462 900.182 16.0828 900.543 16.0828C900.95 16.0828 901.297 16.1641 901.583 16.3269C901.869 16.4897 902.102 16.7078 902.281 16.9812C902.464 17.2546 902.597 17.5623 902.682 17.9041C902.766 18.2458 902.809 18.5974 902.809 18.9587V19.2859C902.809 19.6537 902.784 20.0281 902.735 20.4089C902.69 20.7865 902.6 21.1479 902.467 21.4929C902.337 21.838 902.146 22.1472 901.896 22.4207C901.645 22.6908 901.318 22.9057 900.914 23.0652C900.514 23.2214 900.019 23.2996 899.43 23.2996H899.337V22.533ZM904.176 22.8113C904.176 22.6583 904.223 22.5297 904.317 22.4255C904.415 22.3181 904.555 22.2644 904.737 22.2644C904.92 22.2644 905.058 22.3181 905.152 22.4255C905.25 22.5297 905.299 22.6583 905.299 22.8113C905.299 22.961 905.25 23.088 905.152 23.1921C905.058 23.2963 904.92 23.3484 904.737 23.3484C904.555 23.3484 904.415 23.2963 904.317 23.1921C904.223 23.088 904.176 22.961 904.176 22.8113ZM911.163 19.1687V20.2527C911.163 20.8354 911.111 21.3269 911.007 21.7273C910.903 22.1277 910.753 22.45 910.558 22.6941C910.362 22.9382 910.126 23.1156 909.85 23.2263C909.576 23.3337 909.267 23.3875 908.922 23.3875C908.648 23.3875 908.396 23.3533 908.165 23.2849C907.934 23.2166 907.726 23.1075 907.54 22.9578C907.358 22.8048 907.201 22.6062 907.071 22.3621C906.941 22.1179 906.842 21.8217 906.773 21.4734C906.705 21.1251 906.671 20.7182 906.671 20.2527V19.1687C906.671 18.586 906.723 18.0977 906.827 17.7039C906.935 17.31 907.086 16.9942 907.281 16.7566C907.477 16.5157 907.711 16.3432 907.984 16.239C908.261 16.1348 908.57 16.0828 908.912 16.0828C909.189 16.0828 909.443 16.1169 909.674 16.1853C909.908 16.2504 910.117 16.3562 910.299 16.5027C910.481 16.6459 910.636 16.838 910.763 17.0789C910.893 17.3165 910.992 17.6078 911.061 17.9529C911.129 18.2979 911.163 18.7032 911.163 19.1687ZM910.255 20.3992V19.0173C910.255 18.6983 910.235 18.4184 910.196 18.1775C910.16 17.9333 910.107 17.725 910.035 17.5525C909.964 17.38 909.872 17.24 909.762 17.1326C909.654 17.0251 909.529 16.947 909.386 16.8982C909.246 16.8461 909.088 16.8201 908.912 16.8201C908.697 16.8201 908.507 16.8608 908.341 16.9421C908.175 17.0203 908.035 17.1456 907.921 17.3181C907.81 17.4906 907.726 17.7169 907.667 17.9968C907.608 18.2768 907.579 18.6169 907.579 19.0173V20.3992C907.579 20.7182 907.597 20.9998 907.633 21.2439C907.672 21.488 907.729 21.6996 907.804 21.8787C907.879 22.0544 907.97 22.1993 908.077 22.3132C908.185 22.4272 908.308 22.5118 908.448 22.5671C908.591 22.6192 908.749 22.6453 908.922 22.6453C909.143 22.6453 909.337 22.6029 909.503 22.5183C909.669 22.4337 909.807 22.3018 909.918 22.1228C910.032 21.9405 910.117 21.7078 910.172 21.4246C910.227 21.1381 910.255 20.7963 910.255 20.3992ZM916.788 19.1687V20.2527C916.788 20.8354 916.736 21.3269 916.632 21.7273C916.528 22.1277 916.378 22.45 916.183 22.6941C915.987 22.9382 915.751 23.1156 915.475 23.2263C915.201 23.3337 914.892 23.3875 914.547 23.3875C914.273 23.3875 914.021 23.3533 913.79 23.2849C913.559 23.2166 913.351 23.1075 913.165 22.9578C912.983 22.8048 912.826 22.6062 912.696 22.3621C912.566 22.1179 912.467 21.8217 912.398 21.4734C912.33 21.1251 912.296 20.7182 912.296 20.2527V19.1687C912.296 18.586 912.348 18.0977 912.452 17.7039C912.56 17.31 912.711 16.9942 912.906 16.7566C913.102 16.5157 913.336 16.3432 913.609 16.239C913.886 16.1348 914.195 16.0828 914.537 16.0828C914.814 16.0828 915.068 16.1169 915.299 16.1853C915.533 16.2504 915.742 16.3562 915.924 16.5027C916.106 16.6459 916.261 16.838 916.388 17.0789C916.518 17.3165 916.617 17.6078 916.686 17.9529C916.754 18.2979 916.788 18.7032 916.788 19.1687ZM915.88 20.3992V19.0173C915.88 18.6983 915.86 18.4184 915.821 18.1775C915.785 17.9333 915.732 17.725 915.66 17.5525C915.589 17.38 915.497 17.24 915.387 17.1326C915.279 17.0251 915.154 16.947 915.011 16.8982C914.871 16.8461 914.713 16.8201 914.537 16.8201C914.322 16.8201 914.132 16.8608 913.966 16.9421C913.8 17.0203 913.66 17.1456 913.546 17.3181C913.435 17.4906 913.351 17.7169 913.292 17.9968C913.233 18.2768 913.204 18.6169 913.204 19.0173V20.3992C913.204 20.7182 913.222 20.9998 913.258 21.2439C913.297 21.488 913.354 21.6996 913.429 21.8787C913.504 22.0544 913.595 22.1993 913.702 22.3132C913.81 22.4272 913.933 22.5118 914.073 22.5671C914.216 22.6192 914.374 22.6453 914.547 22.6453C914.768 22.6453 914.962 22.6029 915.128 22.5183C915.294 22.4337 915.432 22.3018 915.543 22.1228C915.657 21.9405 915.742 21.7078 915.797 21.4246C915.852 21.1381 915.88 20.7963 915.88 20.3992Z" fill="#32375E"/>
</g>
</svg>
