<svg width="934" height="41" viewBox="0 0 934 41" fill="none" xmlns="http://www.w3.org/2000/svg">
<rect y="0.289795" width="934" height="40" rx="12" fill="white"/>
<path d="M20.0002 26.9564C16.3182 26.9564 13.3335 23.9718 13.3335 20.2898C13.3335 16.6078 16.3182 13.6231 20.0002 13.6231C23.6822 13.6231 26.6668 16.6078 26.6668 20.2898C26.6668 23.9718 23.6822 26.9564 20.0002 26.9564ZM20.0002 25.6231C21.4147 25.6231 22.7712 25.0612 23.7714 24.061C24.7716 23.0608 25.3335 21.7043 25.3335 20.2898C25.3335 18.8753 24.7716 17.5187 23.7714 16.5185C22.7712 15.5183 21.4147 14.9564 20.0002 14.9564C18.5857 14.9564 17.2291 15.5183 16.2289 16.5185C15.2287 17.5187 14.6668 18.8753 14.6668 20.2898C14.6668 21.7043 15.2287 23.0608 16.2289 24.061C17.2291 25.0612 18.5857 25.6231 20.0002 25.6231ZM20.6668 20.2898H23.3335V21.6231H19.3335V16.9564H20.6668V20.2898Z" fill="#FEC12B"/>
<g opacity="0.9">
<path d="M45.0537 19.1687V20.2527C45.0537 20.8354 45.0016 21.3269 44.8975 21.7273C44.7933 22.1277 44.6436 22.45 44.4482 22.6941C44.2529 22.9382 44.0169 23.1156 43.7402 23.2263C43.4668 23.3337 43.1576 23.3875 42.8125 23.3875C42.5391 23.3875 42.2868 23.3533 42.0557 23.2849C41.8245 23.2166 41.6162 23.1075 41.4307 22.9578C41.2484 22.8048 41.0921 22.6062 40.9619 22.3621C40.8317 22.1179 40.7324 21.8217 40.6641 21.4734C40.5957 21.1251 40.5615 20.7182 40.5615 20.2527V19.1687C40.5615 18.586 40.6136 18.0977 40.7178 17.7039C40.8252 17.31 40.9766 16.9942 41.1719 16.7566C41.3672 16.5157 41.6016 16.3432 41.875 16.239C42.1517 16.1348 42.4609 16.0828 42.8027 16.0828C43.0794 16.0828 43.3333 16.1169 43.5645 16.1853C43.7988 16.2504 44.0072 16.3562 44.1895 16.5027C44.3717 16.6459 44.5264 16.838 44.6533 17.0789C44.7835 17.3165 44.8828 17.6078 44.9512 17.9529C45.0195 18.2979 45.0537 18.7032 45.0537 19.1687ZM44.1455 20.3992V19.0173C44.1455 18.6983 44.126 18.4184 44.0869 18.1775C44.0511 17.9333 43.9974 17.725 43.9258 17.5525C43.8542 17.38 43.763 17.24 43.6523 17.1326C43.5449 17.0251 43.4196 16.947 43.2764 16.8982C43.1364 16.8461 42.9785 16.8201 42.8027 16.8201C42.5879 16.8201 42.3975 16.8608 42.2314 16.9421C42.0654 17.0203 41.9255 17.1456 41.8115 17.3181C41.7008 17.4906 41.6162 17.7169 41.5576 17.9968C41.499 18.2768 41.4697 18.6169 41.4697 19.0173V20.3992C41.4697 20.7182 41.4876 20.9998 41.5234 21.2439C41.5625 21.488 41.6195 21.6996 41.6943 21.8787C41.7692 22.0544 41.8604 22.1993 41.9678 22.3132C42.0752 22.4272 42.1989 22.5118 42.3389 22.5671C42.4821 22.6192 42.64 22.6453 42.8125 22.6453C43.0339 22.6453 43.2275 22.6029 43.3936 22.5183C43.5596 22.4337 43.6979 22.3018 43.8086 22.1228C43.9225 21.9405 44.0072 21.7078 44.0625 21.4246C44.1178 21.1381 44.1455 20.7963 44.1455 20.3992ZM50.8105 16.1804V16.6882L47.8662 23.2898H46.9141L49.8535 16.9226H46.0059V16.1804H50.8105ZM53.8184 19.8962V20.6384H51.4355V19.8962H53.8184ZM57.4707 16.8103L55.1172 23.2898H54.1553L56.8652 16.1804H57.4854L57.4707 16.8103ZM59.4434 23.2898L57.085 16.8103L57.0703 16.1804H57.6904L60.4102 23.2898H59.4434ZM59.3213 20.658V21.4294H55.3271V20.658H59.3213ZM62.1289 19.0222V25.321H61.2207V18.0066H62.0508L62.1289 19.0222ZM65.6885 20.6042V20.7068C65.6885 21.0909 65.6429 21.4473 65.5518 21.7761C65.4606 22.1016 65.3271 22.3848 65.1514 22.6257C64.9788 22.8666 64.7656 23.0538 64.5117 23.1873C64.2578 23.3207 63.9665 23.3875 63.6377 23.3875C63.3024 23.3875 63.0062 23.3321 62.749 23.2214C62.4919 23.1108 62.2738 22.9496 62.0947 22.738C61.9157 22.5264 61.7725 22.2725 61.665 21.9763C61.5609 21.6801 61.4893 21.3464 61.4502 20.9753V20.4285C61.4893 20.0378 61.5625 19.6879 61.6699 19.3787C61.7773 19.0694 61.9189 18.8057 62.0947 18.5876C62.2738 18.3663 62.4902 18.1986 62.7441 18.0847C62.998 17.9675 63.291 17.9089 63.623 17.9089C63.9551 17.9089 64.2497 17.974 64.5068 18.1042C64.764 18.2312 64.9805 18.4135 65.1562 18.6511C65.332 18.8888 65.4639 19.1736 65.5518 19.5056C65.6429 19.8344 65.6885 20.2006 65.6885 20.6042ZM64.7803 20.7068V20.6042C64.7803 20.3406 64.7526 20.0932 64.6973 19.8621C64.6419 19.6277 64.5557 19.4226 64.4385 19.2468C64.3245 19.0678 64.1781 18.9278 63.999 18.8269C63.82 18.7227 63.6068 18.6707 63.3594 18.6707C63.1315 18.6707 62.9329 18.7097 62.7637 18.7878C62.5977 18.866 62.4561 18.9718 62.3389 19.1052C62.2217 19.2354 62.1257 19.3852 62.0508 19.5544C61.9792 19.7205 61.9255 19.893 61.8896 20.072V21.3367C61.9548 21.5645 62.0459 21.7794 62.1631 21.9812C62.2803 22.1798 62.4365 22.3409 62.6318 22.4646C62.8271 22.585 63.0729 22.6453 63.3691 22.6453C63.6133 22.6453 63.8232 22.5948 63.999 22.4939C64.1781 22.3897 64.3245 22.2481 64.4385 22.0691C64.5557 21.8901 64.6419 21.685 64.6973 21.4539C64.7526 21.2195 64.7803 20.9705 64.7803 20.7068ZM67.7441 18.8367V23.2898H66.8408V18.0066H67.7197L67.7441 18.8367ZM69.3945 17.9773L69.3896 18.8171C69.3148 18.8009 69.2432 18.7911 69.1748 18.7878C69.1097 18.7813 69.0348 18.7781 68.9502 18.7781C68.7419 18.7781 68.5579 18.8106 68.3984 18.8757C68.2389 18.9408 68.1038 19.032 67.9932 19.1492C67.8825 19.2664 67.7946 19.4063 67.7295 19.5691C67.6676 19.7286 67.627 19.9044 67.6074 20.0964L67.3535 20.2429C67.3535 19.9239 67.3844 19.6244 67.4463 19.3445C67.5114 19.0645 67.6107 18.8171 67.7441 18.6023C67.8776 18.3842 68.0469 18.2149 68.252 18.0945C68.4603 17.9708 68.7077 17.9089 68.9941 17.9089C69.0592 17.9089 69.1341 17.9171 69.2188 17.9333C69.3034 17.9464 69.362 17.961 69.3945 17.9773ZM72.1094 19.8962V20.6384H69.7266V19.8962H72.1094ZM77.5537 22.5476V23.2898H72.9004V22.6404L75.2295 20.0476C75.516 19.7286 75.7373 19.4584 75.8936 19.2371C76.0531 19.0125 76.1637 18.8123 76.2256 18.6365C76.2907 18.4574 76.3232 18.2751 76.3232 18.0896C76.3232 17.8552 76.2744 17.6436 76.1768 17.4548C76.0824 17.2628 75.9424 17.1098 75.7568 16.9958C75.5713 16.8819 75.3467 16.825 75.083 16.825C74.7673 16.825 74.5036 16.8868 74.292 17.0105C74.0837 17.1309 73.9274 17.3002 73.8232 17.5183C73.7191 17.7364 73.667 17.9871 73.667 18.2703H72.7637C72.7637 17.8699 72.8516 17.5037 73.0273 17.1716C73.2031 16.8396 73.4635 16.5759 73.8086 16.3806C74.1536 16.182 74.5785 16.0828 75.083 16.0828C75.5322 16.0828 75.9163 16.1625 76.2354 16.322C76.5544 16.4783 76.7985 16.6996 76.9678 16.9861C77.1403 17.2693 77.2266 17.6013 77.2266 17.9822C77.2266 18.1905 77.1908 18.4021 77.1191 18.6169C77.0508 18.8285 76.9548 19.0401 76.8311 19.2517C76.7106 19.4633 76.569 19.6716 76.4062 19.8767C76.2467 20.0818 76.0758 20.2836 75.8936 20.4822L73.9893 22.5476H77.5537ZM83.1787 22.5476V23.2898H78.5254V22.6404L80.8545 20.0476C81.141 19.7286 81.3623 19.4584 81.5186 19.2371C81.6781 19.0125 81.7887 18.8123 81.8506 18.6365C81.9157 18.4574 81.9482 18.2751 81.9482 18.0896C81.9482 17.8552 81.8994 17.6436 81.8018 17.4548C81.7074 17.2628 81.5674 17.1098 81.3818 16.9958C81.1963 16.8819 80.9717 16.825 80.708 16.825C80.3923 16.825 80.1286 16.8868 79.917 17.0105C79.7087 17.1309 79.5524 17.3002 79.4482 17.5183C79.3441 17.7364 79.292 17.9871 79.292 18.2703H78.3887C78.3887 17.8699 78.4766 17.5037 78.6523 17.1716C78.8281 16.8396 79.0885 16.5759 79.4336 16.3806C79.7786 16.182 80.2035 16.0828 80.708 16.0828C81.1572 16.0828 81.5413 16.1625 81.8604 16.322C82.1794 16.4783 82.4235 16.6996 82.5928 16.9861C82.7653 17.2693 82.8516 17.6013 82.8516 17.9822C82.8516 18.1905 82.8158 18.4021 82.7441 18.6169C82.6758 18.8285 82.5798 19.0401 82.4561 19.2517C82.3356 19.4633 82.194 19.6716 82.0312 19.8767C81.8717 20.0818 81.7008 20.2836 81.5186 20.4822L79.6143 22.5476H83.1787ZM91.0889 19.1687V20.2527C91.0889 20.8354 91.0368 21.3269 90.9326 21.7273C90.8285 22.1277 90.6787 22.45 90.4834 22.6941C90.2881 22.9382 90.0521 23.1156 89.7754 23.2263C89.502 23.3337 89.1927 23.3875 88.8477 23.3875C88.5742 23.3875 88.3219 23.3533 88.0908 23.2849C87.8597 23.2166 87.6514 23.1075 87.4658 22.9578C87.2835 22.8048 87.1273 22.6062 86.9971 22.3621C86.8669 22.1179 86.7676 21.8217 86.6992 21.4734C86.6309 21.1251 86.5967 20.7182 86.5967 20.2527V19.1687C86.5967 18.586 86.6488 18.0977 86.7529 17.7039C86.8604 17.31 87.0117 16.9942 87.207 16.7566C87.4023 16.5157 87.6367 16.3432 87.9102 16.239C88.1868 16.1348 88.4961 16.0828 88.8379 16.0828C89.1146 16.0828 89.3685 16.1169 89.5996 16.1853C89.834 16.2504 90.0423 16.3562 90.2246 16.5027C90.4069 16.6459 90.5615 16.838 90.6885 17.0789C90.8187 17.3165 90.918 17.6078 90.9863 17.9529C91.0547 18.2979 91.0889 18.7032 91.0889 19.1687ZM90.1807 20.3992V19.0173C90.1807 18.6983 90.1611 18.4184 90.1221 18.1775C90.0863 17.9333 90.0326 17.725 89.9609 17.5525C89.8893 17.38 89.7982 17.24 89.6875 17.1326C89.5801 17.0251 89.4548 16.947 89.3115 16.8982C89.1715 16.8461 89.0137 16.8201 88.8379 16.8201C88.623 16.8201 88.4326 16.8608 88.2666 16.9421C88.1006 17.0203 87.9606 17.1456 87.8467 17.3181C87.736 17.4906 87.6514 17.7169 87.5928 17.9968C87.5342 18.2768 87.5049 18.6169 87.5049 19.0173V20.3992C87.5049 20.7182 87.5228 20.9998 87.5586 21.2439C87.5977 21.488 87.6546 21.6996 87.7295 21.8787C87.8044 22.0544 87.8955 22.1993 88.0029 22.3132C88.1104 22.4272 88.234 22.5118 88.374 22.5671C88.5173 22.6192 88.6751 22.6453 88.8477 22.6453C89.069 22.6453 89.2627 22.6029 89.4287 22.5183C89.5947 22.4337 89.7331 22.3018 89.8438 22.1228C89.9577 21.9405 90.0423 21.7078 90.0977 21.4246C90.153 21.1381 90.1807 20.7963 90.1807 20.3992ZM93.1494 22.533H93.2422C93.763 22.533 94.1862 22.4597 94.5117 22.3132C94.8372 22.1667 95.0879 21.9698 95.2637 21.7224C95.4395 21.475 95.5599 21.1967 95.625 20.8875C95.6901 20.575 95.7227 20.2543 95.7227 19.9255V18.8367C95.7227 18.5144 95.6852 18.2279 95.6104 17.9773C95.5387 17.7266 95.4378 17.5167 95.3076 17.3474C95.1807 17.1781 95.0358 17.0496 94.873 16.9617C94.7103 16.8738 94.5378 16.8298 94.3555 16.8298C94.1471 16.8298 93.96 16.8722 93.7939 16.9568C93.6312 17.0382 93.4928 17.1537 93.3789 17.3035C93.2682 17.4532 93.1836 17.629 93.125 17.8308C93.0664 18.0326 93.0371 18.2524 93.0371 18.49C93.0371 18.7016 93.0632 18.9067 93.1152 19.1052C93.1673 19.3038 93.2471 19.4828 93.3545 19.6423C93.4619 19.8018 93.5954 19.9288 93.7549 20.0232C93.9176 20.1143 94.1081 20.1599 94.3262 20.1599C94.528 20.1599 94.7168 20.1208 94.8926 20.0427C95.0716 19.9613 95.2295 19.8523 95.3662 19.7156C95.5062 19.5756 95.6169 19.4177 95.6982 19.2419C95.7829 19.0662 95.8317 18.8822 95.8447 18.6902H96.2744C96.2744 18.9604 96.2207 19.2273 96.1133 19.491C96.0091 19.7514 95.8626 19.989 95.6738 20.2039C95.485 20.4187 95.2637 20.5912 95.0098 20.7214C94.7559 20.8484 94.4792 20.9119 94.1797 20.9119C93.8281 20.9119 93.5238 20.8435 93.2666 20.7068C93.0094 20.5701 92.7979 20.3878 92.6318 20.1599C92.4691 19.932 92.347 19.6781 92.2656 19.3982C92.1875 19.115 92.1484 18.8285 92.1484 18.5388C92.1484 18.2003 92.1956 17.8829 92.29 17.5867C92.3844 17.2904 92.5244 17.03 92.71 16.8054C92.8955 16.5776 93.125 16.4001 93.3984 16.2732C93.6751 16.1462 93.9941 16.0828 94.3555 16.0828C94.7624 16.0828 95.109 16.1641 95.3955 16.3269C95.682 16.4897 95.9147 16.7078 96.0938 16.9812C96.276 17.2546 96.4095 17.5623 96.4941 17.9041C96.5788 18.2458 96.6211 18.5974 96.6211 18.9587V19.2859C96.6211 19.6537 96.5967 20.0281 96.5479 20.4089C96.5023 20.7865 96.4128 21.1479 96.2793 21.4929C96.1491 21.838 95.9587 22.1472 95.708 22.4207C95.4574 22.6908 95.1302 22.9057 94.7266 23.0652C94.3262 23.2214 93.8314 23.2996 93.2422 23.2996H93.1494V22.533ZM97.9346 22.8113C97.9346 22.6583 97.9818 22.5297 98.0762 22.4255C98.1738 22.3181 98.3138 22.2644 98.4961 22.2644C98.6784 22.2644 98.8167 22.3181 98.9111 22.4255C99.0088 22.5297 99.0576 22.6583 99.0576 22.8113C99.0576 22.961 99.0088 23.088 98.9111 23.1921C98.8167 23.2963 98.6784 23.3484 98.4961 23.3484C98.3138 23.3484 98.1738 23.2963 98.0762 23.1921C97.9818 23.088 97.9346 22.961 97.9346 22.8113ZM97.9395 18.4998C97.9395 18.3468 97.9867 18.2182 98.0811 18.114C98.1787 18.0066 98.3187 17.9529 98.501 17.9529C98.6833 17.9529 98.8216 18.0066 98.916 18.114C99.0137 18.2182 99.0625 18.3468 99.0625 18.4998C99.0625 18.6495 99.0137 18.7764 98.916 18.8806C98.8216 18.9848 98.6833 19.0369 98.501 19.0369C98.3187 19.0369 98.1787 18.9848 98.0811 18.8806C97.9867 18.7764 97.9395 18.6495 97.9395 18.4998ZM104.761 19.1687V20.2527C104.761 20.8354 104.709 21.3269 104.604 21.7273C104.5 22.1277 104.351 22.45 104.155 22.6941C103.96 22.9382 103.724 23.1156 103.447 23.2263C103.174 23.3337 102.865 23.3875 102.52 23.3875C102.246 23.3875 101.994 23.3533 101.763 23.2849C101.532 23.2166 101.323 23.1075 101.138 22.9578C100.955 22.8048 100.799 22.6062 100.669 22.3621C100.539 22.1179 100.439 21.8217 100.371 21.4734C100.303 21.1251 100.269 20.7182 100.269 20.2527V19.1687C100.269 18.586 100.321 18.0977 100.425 17.7039C100.532 17.31 100.684 16.9942 100.879 16.7566C101.074 16.5157 101.309 16.3432 101.582 16.239C101.859 16.1348 102.168 16.0828 102.51 16.0828C102.786 16.0828 103.04 16.1169 103.271 16.1853C103.506 16.2504 103.714 16.3562 103.896 16.5027C104.079 16.6459 104.233 16.838 104.36 17.0789C104.491 17.3165 104.59 17.6078 104.658 17.9529C104.727 18.2979 104.761 18.7032 104.761 19.1687ZM103.853 20.3992V19.0173C103.853 18.6983 103.833 18.4184 103.794 18.1775C103.758 17.9333 103.704 17.725 103.633 17.5525C103.561 17.38 103.47 17.24 103.359 17.1326C103.252 17.0251 103.127 16.947 102.983 16.8982C102.843 16.8461 102.686 16.8201 102.51 16.8201C102.295 16.8201 102.104 16.8608 101.938 16.9421C101.772 17.0203 101.632 17.1456 101.519 17.3181C101.408 17.4906 101.323 17.7169 101.265 17.9968C101.206 18.2768 101.177 18.6169 101.177 19.0173V20.3992C101.177 20.7182 101.195 20.9998 101.23 21.2439C101.27 21.488 101.326 21.6996 101.401 21.8787C101.476 22.0544 101.567 22.1993 101.675 22.3132C101.782 22.4272 101.906 22.5118 102.046 22.5671C102.189 22.6192 102.347 22.6453 102.52 22.6453C102.741 22.6453 102.935 22.6029 103.101 22.5183C103.267 22.4337 103.405 22.3018 103.516 22.1228C103.63 21.9405 103.714 21.7078 103.77 21.4246C103.825 21.1381 103.853 20.7963 103.853 20.3992ZM110.405 21.366C110.405 21.7989 110.304 22.1667 110.103 22.4695C109.904 22.769 109.634 22.9968 109.292 23.1531C108.953 23.3093 108.571 23.3875 108.145 23.3875C107.718 23.3875 107.334 23.3093 106.992 23.1531C106.65 22.9968 106.38 22.769 106.182 22.4695C105.983 22.1667 105.884 21.7989 105.884 21.366C105.884 21.0828 105.938 20.824 106.045 20.5896C106.156 20.352 106.31 20.1453 106.509 19.9695C106.711 19.7937 106.948 19.6586 107.222 19.5642C107.498 19.4666 107.803 19.4177 108.135 19.4177C108.571 19.4177 108.96 19.5024 109.302 19.6716C109.644 19.8376 109.912 20.0671 110.107 20.3601C110.306 20.6531 110.405 20.9884 110.405 21.366ZM109.497 21.3464C109.497 21.0828 109.44 20.85 109.326 20.6482C109.212 20.4431 109.053 20.2836 108.848 20.1697C108.643 20.0557 108.405 19.9988 108.135 19.9988C107.858 19.9988 107.619 20.0557 107.417 20.1697C107.218 20.2836 107.064 20.4431 106.953 20.6482C106.842 20.85 106.787 21.0828 106.787 21.3464C106.787 21.6199 106.841 21.8542 106.948 22.0496C107.059 22.2416 107.215 22.3897 107.417 22.4939C107.622 22.5948 107.865 22.6453 108.145 22.6453C108.424 22.6453 108.665 22.5948 108.867 22.4939C109.069 22.3897 109.224 22.2416 109.331 22.0496C109.442 21.8542 109.497 21.6199 109.497 21.3464ZM110.239 18.031C110.239 18.3761 110.148 18.6869 109.966 18.9636C109.784 19.2403 109.535 19.4584 109.219 19.6179C108.903 19.7774 108.545 19.8572 108.145 19.8572C107.738 19.8572 107.375 19.7774 107.056 19.6179C106.74 19.4584 106.493 19.2403 106.313 18.9636C106.134 18.6869 106.045 18.3761 106.045 18.031C106.045 17.6176 106.134 17.266 106.313 16.9763C106.496 16.6866 106.745 16.4653 107.061 16.3123C107.376 16.1593 107.736 16.0828 108.14 16.0828C108.547 16.0828 108.908 16.1593 109.224 16.3123C109.539 16.4653 109.787 16.6866 109.966 16.9763C110.148 17.266 110.239 17.6176 110.239 18.031ZM109.336 18.0457C109.336 17.808 109.285 17.5981 109.185 17.4158C109.084 17.2335 108.944 17.0903 108.765 16.9861C108.586 16.8787 108.377 16.825 108.14 16.825C107.902 16.825 107.694 16.8754 107.515 16.9763C107.339 17.074 107.201 17.2139 107.1 17.3962C107.002 17.5785 106.953 17.795 106.953 18.0457C106.953 18.2898 107.002 18.503 107.1 18.6853C107.201 18.8676 107.34 19.0092 107.52 19.1101C107.699 19.211 107.907 19.2615 108.145 19.2615C108.382 19.2615 108.589 19.211 108.765 19.1101C108.944 19.0092 109.084 18.8676 109.185 18.6853C109.285 18.503 109.336 18.2898 109.336 18.0457Z" fill="#32375E"/>
</g>
<g opacity="0.9">
<path d="M192.733 19.906L192.011 19.7205L192.367 16.1804H196.015V17.0154H193.134L192.919 18.949C193.049 18.8741 193.214 18.8041 193.412 18.739C193.614 18.6739 193.845 18.6414 194.105 18.6414C194.434 18.6414 194.729 18.6983 194.989 18.8123C195.25 18.9229 195.471 19.0824 195.653 19.2908C195.839 19.4991 195.98 19.7498 196.078 20.0427C196.176 20.3357 196.225 20.6628 196.225 21.0242C196.225 21.366 196.177 21.6801 196.083 21.9666C195.992 22.253 195.854 22.5037 195.668 22.7185C195.482 22.9301 195.248 23.0945 194.965 23.2117C194.685 23.3289 194.354 23.3875 193.974 23.3875C193.687 23.3875 193.415 23.3484 193.158 23.2703C192.904 23.1889 192.676 23.0668 192.475 22.9041C192.276 22.738 192.113 22.533 191.986 22.2888C191.863 22.0414 191.785 21.7517 191.752 21.4197H192.611C192.65 21.6866 192.729 21.9112 192.846 22.0935C192.963 22.2758 193.116 22.4141 193.305 22.5085C193.497 22.5997 193.72 22.6453 193.974 22.6453C194.188 22.6453 194.379 22.6078 194.545 22.533C194.711 22.4581 194.851 22.3507 194.965 22.2107C195.079 22.0707 195.165 21.9014 195.224 21.7029C195.285 21.5043 195.316 21.2813 195.316 21.0339C195.316 20.8093 195.285 20.601 195.224 20.4089C195.162 20.2169 195.069 20.0492 194.945 19.906C194.825 19.7628 194.677 19.6521 194.501 19.574C194.325 19.4926 194.123 19.4519 193.896 19.4519C193.593 19.4519 193.363 19.4926 193.207 19.574C193.054 19.6554 192.896 19.766 192.733 19.906ZM198.114 22.533H198.207C198.728 22.533 199.151 22.4597 199.477 22.3132C199.802 22.1667 200.053 21.9698 200.229 21.7224C200.404 21.475 200.525 21.1967 200.59 20.8875C200.655 20.575 200.688 20.2543 200.688 19.9255V18.8367C200.688 18.5144 200.65 18.2279 200.575 17.9773C200.504 17.7266 200.403 17.5167 200.272 17.3474C200.146 17.1781 200.001 17.0496 199.838 16.9617C199.675 16.8738 199.503 16.8298 199.32 16.8298C199.112 16.8298 198.925 16.8722 198.759 16.9568C198.596 17.0382 198.458 17.1537 198.344 17.3035C198.233 17.4532 198.148 17.629 198.09 17.8308C198.031 18.0326 198.002 18.2524 198.002 18.49C198.002 18.7016 198.028 18.9067 198.08 19.1052C198.132 19.3038 198.212 19.4828 198.319 19.6423C198.427 19.8018 198.56 19.9288 198.72 20.0232C198.882 20.1143 199.073 20.1599 199.291 20.1599C199.493 20.1599 199.682 20.1208 199.857 20.0427C200.036 19.9613 200.194 19.8523 200.331 19.7156C200.471 19.5756 200.582 19.4177 200.663 19.2419C200.748 19.0662 200.797 18.8822 200.81 18.6902H201.239C201.239 18.9604 201.186 19.2273 201.078 19.491C200.974 19.7514 200.827 19.989 200.639 20.2039C200.45 20.4187 200.229 20.5912 199.975 20.7214C199.721 20.8484 199.444 20.9119 199.145 20.9119C198.793 20.9119 198.489 20.8435 198.231 20.7068C197.974 20.5701 197.763 20.3878 197.597 20.1599C197.434 19.932 197.312 19.6781 197.23 19.3982C197.152 19.115 197.113 18.8285 197.113 18.5388C197.113 18.2003 197.16 17.8829 197.255 17.5867C197.349 17.2904 197.489 17.03 197.675 16.8054C197.86 16.5776 198.09 16.4001 198.363 16.2732C198.64 16.1462 198.959 16.0828 199.32 16.0828C199.727 16.0828 200.074 16.1641 200.36 16.3269C200.647 16.4897 200.88 16.7078 201.059 16.9812C201.241 17.2546 201.374 17.5623 201.459 17.9041C201.544 18.2458 201.586 18.5974 201.586 18.9587V19.2859C201.586 19.6537 201.562 20.0281 201.513 20.4089C201.467 20.7865 201.378 21.1479 201.244 21.4929C201.114 21.838 200.924 22.1472 200.673 22.4207C200.422 22.6908 200.095 22.9057 199.691 23.0652C199.291 23.2214 198.796 23.2996 198.207 23.2996H198.114V22.533ZM203.983 19.906L203.261 19.7205L203.617 16.1804H207.265V17.0154H204.384L204.169 18.949C204.299 18.8741 204.464 18.8041 204.662 18.739C204.864 18.6739 205.095 18.6414 205.355 18.6414C205.684 18.6414 205.979 18.6983 206.239 18.8123C206.5 18.9229 206.721 19.0824 206.903 19.2908C207.089 19.4991 207.23 19.7498 207.328 20.0427C207.426 20.3357 207.475 20.6628 207.475 21.0242C207.475 21.366 207.427 21.6801 207.333 21.9666C207.242 22.253 207.104 22.5037 206.918 22.7185C206.732 22.9301 206.498 23.0945 206.215 23.2117C205.935 23.3289 205.604 23.3875 205.224 23.3875C204.937 23.3875 204.665 23.3484 204.408 23.2703C204.154 23.1889 203.926 23.0668 203.725 22.9041C203.526 22.738 203.363 22.533 203.236 22.2888C203.113 22.0414 203.035 21.7517 203.002 21.4197H203.861C203.9 21.6866 203.979 21.9112 204.096 22.0935C204.213 22.2758 204.366 22.4141 204.555 22.5085C204.747 22.5997 204.97 22.6453 205.224 22.6453C205.438 22.6453 205.629 22.6078 205.795 22.533C205.961 22.4581 206.101 22.3507 206.215 22.2107C206.329 22.0707 206.415 21.9014 206.474 21.7029C206.535 21.5043 206.566 21.2813 206.566 21.0339C206.566 20.8093 206.535 20.601 206.474 20.4089C206.412 20.2169 206.319 20.0492 206.195 19.906C206.075 19.7628 205.927 19.6521 205.751 19.574C205.575 19.4926 205.373 19.4519 205.146 19.4519C204.843 19.4519 204.613 19.4926 204.457 19.574C204.304 19.6554 204.146 19.766 203.983 19.906ZM212.929 19.1687V20.2527C212.929 20.8354 212.877 21.3269 212.772 21.7273C212.668 22.1277 212.519 22.45 212.323 22.6941C212.128 22.9382 211.892 23.1156 211.615 23.2263C211.342 23.3337 211.033 23.3875 210.688 23.3875C210.414 23.3875 210.162 23.3533 209.931 23.2849C209.7 23.2166 209.491 23.1075 209.306 22.9578C209.123 22.8048 208.967 22.6062 208.837 22.3621C208.707 22.1179 208.607 21.8217 208.539 21.4734C208.471 21.1251 208.437 20.7182 208.437 20.2527V19.1687C208.437 18.586 208.489 18.0977 208.593 17.7039C208.7 17.31 208.852 16.9942 209.047 16.7566C209.242 16.5157 209.477 16.3432 209.75 16.239C210.027 16.1348 210.336 16.0828 210.678 16.0828C210.954 16.0828 211.208 16.1169 211.439 16.1853C211.674 16.2504 211.882 16.3562 212.064 16.5027C212.247 16.6459 212.401 16.838 212.528 17.0789C212.659 17.3165 212.758 17.6078 212.826 17.9529C212.895 18.2979 212.929 18.7032 212.929 19.1687ZM212.021 20.3992V19.0173C212.021 18.6983 212.001 18.4184 211.962 18.1775C211.926 17.9333 211.872 17.725 211.801 17.5525C211.729 17.38 211.638 17.24 211.527 17.1326C211.42 17.0251 211.295 16.947 211.151 16.8982C211.011 16.8461 210.854 16.8201 210.678 16.8201C210.463 16.8201 210.272 16.8608 210.106 16.9421C209.94 17.0203 209.8 17.1456 209.687 17.3181C209.576 17.4906 209.491 17.7169 209.433 17.9968C209.374 18.2768 209.345 18.6169 209.345 19.0173V20.3992C209.345 20.7182 209.363 20.9998 209.398 21.2439C209.438 21.488 209.494 21.6996 209.569 21.8787C209.644 22.0544 209.735 22.1993 209.843 22.3132C209.95 22.4272 210.074 22.5118 210.214 22.5671C210.357 22.6192 210.515 22.6453 210.688 22.6453C210.909 22.6453 211.103 22.6029 211.269 22.5183C211.435 22.4337 211.573 22.3018 211.684 22.1228C211.798 21.9405 211.882 21.7078 211.938 21.4246C211.993 21.1381 212.021 20.7963 212.021 20.3992Z" fill="#3F7BDA"/>
</g>
<g opacity="0.9">
<path d="M230.825 16.1804H233.179C233.713 16.1804 234.163 16.2618 234.531 16.4246C234.902 16.5873 235.184 16.8282 235.376 17.1472C235.571 17.463 235.669 17.852 235.669 18.3142C235.669 18.6397 235.602 18.9376 235.469 19.2078C235.339 19.4747 235.15 19.7026 234.902 19.8914C234.658 20.0769 234.365 20.2153 234.023 20.3064L233.76 20.4089H231.548L231.538 19.6423H233.208C233.547 19.6423 233.828 19.5837 234.053 19.4666C234.277 19.3461 234.447 19.185 234.561 18.9832C234.674 18.7813 234.731 18.5583 234.731 18.3142C234.731 18.0408 234.678 17.8015 234.57 17.5964C234.463 17.3914 234.294 17.2335 234.062 17.1228C233.835 17.0089 233.54 16.9519 233.179 16.9519H231.768V23.2898H230.825V16.1804ZM234.98 23.2898L233.252 20.0671L234.233 20.0623L235.986 23.2312V23.2898H234.98ZM241.504 22.5232V23.2898H237.739V22.5232H241.504ZM237.93 16.1804V23.2898H236.987V16.1804H237.93ZM241.006 19.2371V20.0037H237.739V19.2371H241.006ZM241.455 16.1804V16.9519H237.739V16.1804H241.455ZM246.963 21.0291H247.9C247.852 21.4783 247.723 21.8803 247.515 22.2351C247.306 22.5899 247.012 22.8715 246.631 23.0798C246.25 23.2849 245.775 23.3875 245.205 23.3875C244.788 23.3875 244.409 23.3093 244.067 23.1531C243.729 22.9968 243.438 22.7755 243.193 22.489C242.949 22.1993 242.76 21.8526 242.627 21.449C242.497 21.0421 242.432 20.5896 242.432 20.0916V19.3835C242.432 18.8855 242.497 18.4347 242.627 18.031C242.76 17.6241 242.951 17.2758 243.198 16.9861C243.449 16.6964 243.75 16.4734 244.102 16.3171C244.453 16.1609 244.849 16.0828 245.288 16.0828C245.825 16.0828 246.279 16.1837 246.65 16.3855C247.021 16.5873 247.31 16.8673 247.515 17.2253C247.723 17.5802 247.852 17.9919 247.9 18.4607H246.963C246.917 18.1287 246.833 17.8438 246.709 17.6062C246.585 17.3653 246.41 17.1798 246.182 17.0496C245.954 16.9194 245.656 16.8542 245.288 16.8542C244.972 16.8542 244.694 16.9145 244.453 17.0349C244.215 17.1554 244.015 17.3263 243.853 17.5476C243.693 17.769 243.573 18.0343 243.491 18.3435C243.41 18.6528 243.369 18.9962 243.369 19.3738V20.0916C243.369 20.4399 243.405 20.767 243.477 21.073C243.551 21.379 243.664 21.6475 243.813 21.8787C243.963 22.1098 244.154 22.2921 244.385 22.4255C244.616 22.5557 244.889 22.6208 245.205 22.6208C245.605 22.6208 245.924 22.5574 246.162 22.4304C246.4 22.3035 246.579 22.1212 246.699 21.8835C246.823 21.6459 246.911 21.3611 246.963 21.0291ZM253.252 16.1804H254.189V20.99C254.189 21.5238 254.071 21.9682 253.833 22.323C253.595 22.6778 253.28 22.9447 252.886 23.1238C252.495 23.2996 252.07 23.3875 251.611 23.3875C251.13 23.3875 250.693 23.2996 250.303 23.1238C249.915 22.9447 249.608 22.6778 249.38 22.323C249.155 21.9682 249.043 21.5238 249.043 20.99V16.1804H249.976V20.99C249.976 21.3611 250.044 21.6671 250.181 21.908C250.317 22.1488 250.508 22.3279 250.752 22.4451C250.999 22.5623 251.286 22.6208 251.611 22.6208C251.94 22.6208 252.227 22.5623 252.471 22.4451C252.718 22.3279 252.91 22.1488 253.047 21.908C253.184 21.6671 253.252 21.3611 253.252 20.99V16.1804ZM261.138 16.1804V23.2898H260.19L256.611 17.8064V23.2898H255.669V16.1804H256.611L260.205 21.6785V16.1804H261.138ZM266.597 21.4929C266.597 21.3269 266.571 21.1804 266.519 21.0535C266.47 20.9233 266.382 20.8061 266.255 20.7019C266.131 20.5977 265.959 20.4985 265.737 20.4041C265.519 20.3097 265.243 20.2136 264.907 20.116C264.556 20.0118 264.238 19.8962 263.955 19.7693C263.672 19.6391 263.429 19.491 263.228 19.325C263.026 19.1589 262.871 18.9685 262.764 18.7537C262.656 18.5388 262.603 18.2931 262.603 18.0164C262.603 17.7397 262.66 17.4841 262.773 17.2498C262.887 17.0154 263.05 16.8119 263.262 16.6394C263.477 16.4636 263.732 16.3269 264.028 16.2292C264.325 16.1316 264.655 16.0828 265.02 16.0828C265.553 16.0828 266.006 16.1853 266.377 16.3904C266.751 16.5922 267.036 16.8575 267.231 17.1863C267.427 17.5118 267.524 17.8601 267.524 18.2312H266.587C266.587 17.9643 266.53 17.7283 266.416 17.5232C266.302 17.3149 266.13 17.1521 265.898 17.0349C265.667 16.9145 265.374 16.8542 265.02 16.8542C264.684 16.8542 264.408 16.9047 264.189 17.0056C263.971 17.1065 263.809 17.2432 263.701 17.4158C263.597 17.5883 263.545 17.7852 263.545 18.0066C263.545 18.1563 263.576 18.2931 263.638 18.4167C263.703 18.5372 263.802 18.6495 263.936 18.7537C264.072 18.8578 264.245 18.9539 264.453 19.0417C264.665 19.1296 264.917 19.2143 265.21 19.2957C265.614 19.4096 265.962 19.5365 266.255 19.6765C266.548 19.8165 266.789 19.9744 266.978 20.1501C267.17 20.3227 267.311 20.5196 267.402 20.741C267.497 20.9591 267.544 21.2065 267.544 21.4832C267.544 21.7729 267.485 22.0349 267.368 22.2693C267.251 22.5037 267.083 22.7039 266.865 22.8699C266.647 23.0359 266.385 23.1645 266.079 23.2556C265.776 23.3435 265.438 23.3875 265.063 23.3875C264.735 23.3875 264.411 23.3419 264.092 23.2507C263.776 23.1596 263.488 23.0229 263.228 22.8406C262.97 22.6583 262.764 22.4337 262.607 22.1667C262.454 21.8966 262.378 21.5841 262.378 21.2292H263.315C263.315 21.4734 263.363 21.6833 263.457 21.8591C263.551 22.0317 263.68 22.1749 263.843 22.2888C264.009 22.4028 264.196 22.4874 264.404 22.5427C264.616 22.5948 264.836 22.6208 265.063 22.6208C265.392 22.6208 265.671 22.5753 265.898 22.4841C266.126 22.393 266.299 22.2628 266.416 22.0935C266.536 21.9242 266.597 21.724 266.597 21.4929ZM270.488 19.8962V20.6384H268.105V19.8962H270.488ZM272.173 22.533H272.266C272.786 22.533 273.21 22.4597 273.535 22.3132C273.861 22.1667 274.111 21.9698 274.287 21.7224C274.463 21.475 274.583 21.1967 274.648 20.8875C274.714 20.575 274.746 20.2543 274.746 19.9255V18.8367C274.746 18.5144 274.709 18.2279 274.634 17.9773C274.562 17.7266 274.461 17.5167 274.331 17.3474C274.204 17.1781 274.059 17.0496 273.896 16.9617C273.734 16.8738 273.561 16.8298 273.379 16.8298C273.171 16.8298 272.983 16.8722 272.817 16.9568C272.655 17.0382 272.516 17.1537 272.402 17.3035C272.292 17.4532 272.207 17.629 272.148 17.8308C272.09 18.0326 272.061 18.2524 272.061 18.49C272.061 18.7016 272.087 18.9067 272.139 19.1052C272.191 19.3038 272.271 19.4828 272.378 19.6423C272.485 19.8018 272.619 19.9288 272.778 20.0232C272.941 20.1143 273.132 20.1599 273.35 20.1599C273.551 20.1599 273.74 20.1208 273.916 20.0427C274.095 19.9613 274.253 19.8523 274.39 19.7156C274.53 19.5756 274.64 19.4177 274.722 19.2419C274.806 19.0662 274.855 18.8822 274.868 18.6902H275.298C275.298 18.9604 275.244 19.2273 275.137 19.491C275.033 19.7514 274.886 19.989 274.697 20.2039C274.508 20.4187 274.287 20.5912 274.033 20.7214C273.779 20.8484 273.503 20.9119 273.203 20.9119C272.852 20.9119 272.547 20.8435 272.29 20.7068C272.033 20.5701 271.821 20.3878 271.655 20.1599C271.493 19.932 271.37 19.6781 271.289 19.3982C271.211 19.115 271.172 18.8285 271.172 18.5388C271.172 18.2003 271.219 17.8829 271.313 17.5867C271.408 17.2904 271.548 17.03 271.733 16.8054C271.919 16.5776 272.148 16.4001 272.422 16.2732C272.699 16.1462 273.018 16.0828 273.379 16.0828C273.786 16.0828 274.132 16.1641 274.419 16.3269C274.705 16.4897 274.938 16.7078 275.117 16.9812C275.299 17.2546 275.433 17.5623 275.518 17.9041C275.602 18.2458 275.645 18.5974 275.645 18.9587V19.2859C275.645 19.6537 275.62 20.0281 275.571 20.4089C275.526 20.7865 275.436 21.1479 275.303 21.4929C275.173 21.838 274.982 22.1472 274.731 22.4207C274.481 22.6908 274.154 22.9057 273.75 23.0652C273.35 23.2214 272.855 23.2996 272.266 23.2996H272.173V22.533ZM277.798 22.533H277.891C278.411 22.533 278.835 22.4597 279.16 22.3132C279.486 22.1667 279.736 21.9698 279.912 21.7224C280.088 21.475 280.208 21.1967 280.273 20.8875C280.339 20.575 280.371 20.2543 280.371 19.9255V18.8367C280.371 18.5144 280.334 18.2279 280.259 17.9773C280.187 17.7266 280.086 17.5167 279.956 17.3474C279.829 17.1781 279.684 17.0496 279.521 16.9617C279.359 16.8738 279.186 16.8298 279.004 16.8298C278.796 16.8298 278.608 16.8722 278.442 16.9568C278.28 17.0382 278.141 17.1537 278.027 17.3035C277.917 17.4532 277.832 17.629 277.773 17.8308C277.715 18.0326 277.686 18.2524 277.686 18.49C277.686 18.7016 277.712 18.9067 277.764 19.1052C277.816 19.3038 277.896 19.4828 278.003 19.6423C278.11 19.8018 278.244 19.9288 278.403 20.0232C278.566 20.1143 278.757 20.1599 278.975 20.1599C279.176 20.1599 279.365 20.1208 279.541 20.0427C279.72 19.9613 279.878 19.8523 280.015 19.7156C280.155 19.5756 280.265 19.4177 280.347 19.2419C280.431 19.0662 280.48 18.8822 280.493 18.6902H280.923C280.923 18.9604 280.869 19.2273 280.762 19.491C280.658 19.7514 280.511 19.989 280.322 20.2039C280.133 20.4187 279.912 20.5912 279.658 20.7214C279.404 20.8484 279.128 20.9119 278.828 20.9119C278.477 20.9119 278.172 20.8435 277.915 20.7068C277.658 20.5701 277.446 20.3878 277.28 20.1599C277.118 19.932 276.995 19.6781 276.914 19.3982C276.836 19.115 276.797 18.8285 276.797 18.5388C276.797 18.2003 276.844 17.8829 276.938 17.5867C277.033 17.2904 277.173 17.03 277.358 16.8054C277.544 16.5776 277.773 16.4001 278.047 16.2732C278.324 16.1462 278.643 16.0828 279.004 16.0828C279.411 16.0828 279.757 16.1641 280.044 16.3269C280.33 16.4897 280.563 16.7078 280.742 16.9812C280.924 17.2546 281.058 17.5623 281.143 17.9041C281.227 18.2458 281.27 18.5974 281.27 18.9587V19.2859C281.27 19.6537 281.245 20.0281 281.196 20.4089C281.151 20.7865 281.061 21.1479 280.928 21.4929C280.798 21.838 280.607 22.1472 280.356 22.4207C280.106 22.6908 279.779 22.9057 279.375 23.0652C278.975 23.2214 278.48 23.2996 277.891 23.2996H277.798V22.533Z" fill="#32375E"/>
</g>
<path d="M327 14.2898C327 10.9761 329.686 8.28979 333 8.28979H345C348.314 8.28979 351 10.9761 351 14.2898V26.2898C351 29.6035 348.314 32.2898 345 32.2898H333C329.686 32.2898 327 29.6035 327 26.2898V14.2898Z" fill="#F0F5F9"/>
<path d="M333.703 17.1023H335.586C336.013 17.1023 336.374 17.1674 336.668 17.2976C336.965 17.4278 337.19 17.6205 337.344 17.8757C337.5 18.1283 337.578 18.4395 337.578 18.8093C337.578 19.0697 337.525 19.308 337.418 19.5242C337.314 19.7377 337.163 19.92 336.965 20.071C336.77 20.2195 336.535 20.3302 336.262 20.4031L336.051 20.4851H334.281L334.273 19.8718H335.609C335.88 19.8718 336.105 19.825 336.285 19.7312C336.465 19.6348 336.6 19.5059 336.691 19.3445C336.783 19.183 336.828 19.0046 336.828 18.8093C336.828 18.5906 336.785 18.3992 336.699 18.2351C336.613 18.071 336.478 17.9447 336.293 17.8562C336.111 17.7651 335.875 17.7195 335.586 17.7195H334.457V22.7898H333.703V17.1023ZM337.027 22.7898L335.645 20.2117L336.43 20.2078L337.832 22.7429V22.7898H337.027ZM338.871 17.1023H339.602L341.465 21.739L343.324 17.1023H344.059L341.746 22.7898H341.176L338.871 17.1023ZM338.633 17.1023H339.277L339.383 20.571V22.7898H338.633V17.1023ZM343.648 17.1023H344.293V22.7898H343.543V20.571L343.648 17.1023Z" fill="#32375E"/>
<path d="M361.156 14.071L362.285 10.1023H362.832L362.516 11.6453L361.301 15.7898H360.758L361.156 14.071ZM359.988 10.1023L360.887 13.9929L361.156 15.7898H360.617L359.238 10.1023H359.988ZM364.293 13.989L365.172 10.1023H365.926L364.551 15.7898H364.012L364.293 13.989ZM362.914 10.1023L364.012 14.071L364.41 15.7898H363.867L362.695 11.6453L362.375 10.1023H362.914ZM369.012 15.0671V12.8914C369.012 12.7247 368.978 12.5802 368.91 12.4578C368.845 12.3328 368.746 12.2364 368.613 12.1687C368.48 12.101 368.316 12.0671 368.121 12.0671C367.939 12.0671 367.779 12.0984 367.641 12.1609C367.505 12.2234 367.398 12.3054 367.32 12.407C367.245 12.5085 367.207 12.6179 367.207 12.7351H366.484C366.484 12.5841 366.523 12.4343 366.602 12.2859C366.68 12.1375 366.792 12.0033 366.938 11.8835C367.086 11.7611 367.263 11.6648 367.469 11.5945C367.677 11.5216 367.909 11.4851 368.164 11.4851C368.471 11.4851 368.742 11.5372 368.977 11.6414C369.214 11.7455 369.398 11.9031 369.531 12.114C369.667 12.3223 369.734 12.5841 369.734 12.8992V14.8679C369.734 15.0085 369.746 15.1583 369.77 15.3171C369.796 15.476 369.833 15.6127 369.883 15.7273V15.7898H369.129C369.092 15.7065 369.064 15.5958 369.043 15.4578C369.022 15.3171 369.012 15.1869 369.012 15.0671ZM369.137 13.2273L369.145 13.7351H368.414C368.208 13.7351 368.025 13.752 367.863 13.7859C367.702 13.8171 367.566 13.8653 367.457 13.9304C367.348 13.9955 367.264 14.0776 367.207 14.1765C367.15 14.2729 367.121 14.3861 367.121 14.5164C367.121 14.6492 367.151 14.7703 367.211 14.8796C367.271 14.989 367.361 15.0763 367.48 15.1414C367.603 15.2039 367.753 15.2351 367.93 15.2351C368.151 15.2351 368.346 15.1882 368.516 15.0945C368.685 15.0007 368.819 14.8861 368.918 14.7507C369.02 14.6153 369.074 14.4838 369.082 14.3562L369.391 14.7039C369.372 14.8132 369.323 14.9343 369.242 15.0671C369.161 15.2 369.053 15.3276 368.918 15.45C368.785 15.5697 368.626 15.67 368.441 15.7507C368.259 15.8289 368.053 15.8679 367.824 15.8679C367.538 15.8679 367.286 15.8119 367.07 15.7C366.857 15.588 366.69 15.4382 366.57 15.2507C366.453 15.0606 366.395 14.8484 366.395 14.614C366.395 14.3875 366.439 14.1882 366.527 14.0164C366.616 13.8419 366.743 13.6973 366.91 13.5828C367.077 13.4656 367.277 13.377 367.512 13.3171C367.746 13.2572 368.008 13.2273 368.297 13.2273H369.137ZM371.996 15.3523L373.172 11.5632H373.945L372.25 16.4421C372.211 16.5463 372.159 16.6583 372.094 16.7781C372.031 16.9005 371.951 17.0164 371.852 17.1257C371.753 17.2351 371.633 17.3236 371.492 17.3914C371.354 17.4617 371.189 17.4968 370.996 17.4968C370.939 17.4968 370.866 17.489 370.777 17.4734C370.689 17.4578 370.626 17.4447 370.59 17.4343L370.586 16.8484C370.607 16.851 370.639 16.8536 370.684 16.8562C370.73 16.8614 370.763 16.864 370.781 16.864C370.945 16.864 371.085 16.8419 371.199 16.7976C371.314 16.7559 371.41 16.6843 371.488 16.5828C371.569 16.4838 371.638 16.3471 371.695 16.1726L371.996 15.3523ZM371.133 11.5632L372.23 14.8445L372.418 15.6062L371.898 15.8718L370.344 11.5632H371.133ZM375.32 12.4656V15.7898H374.598V11.5632H375.281L375.32 12.4656ZM375.148 13.5164L374.848 13.5046C374.85 13.2156 374.893 12.9486 374.977 12.7039C375.06 12.4565 375.177 12.2416 375.328 12.0593C375.479 11.877 375.659 11.7364 375.867 11.6375C376.078 11.5359 376.311 11.4851 376.566 11.4851C376.775 11.4851 376.962 11.5138 377.129 11.571C377.296 11.6257 377.438 11.7143 377.555 11.8367C377.674 11.9591 377.766 12.1179 377.828 12.3132C377.891 12.5059 377.922 12.7416 377.922 13.0203V15.7898H377.195V13.0125C377.195 12.7911 377.163 12.614 377.098 12.4812C377.033 12.3458 376.938 12.2481 376.812 12.1882C376.688 12.1257 376.534 12.0945 376.352 12.0945C376.172 12.0945 376.008 12.1322 375.859 12.2078C375.714 12.2833 375.587 12.3875 375.48 12.5203C375.376 12.6531 375.294 12.8054 375.234 12.9773C375.177 13.1466 375.148 13.3263 375.148 13.5164ZM380.773 15.8679C380.479 15.8679 380.212 15.8184 379.973 15.7195C379.736 15.6179 379.531 15.476 379.359 15.2937C379.19 15.1114 379.06 14.8953 378.969 14.6453C378.878 14.3953 378.832 14.1218 378.832 13.825V13.6609C378.832 13.3171 378.883 13.0111 378.984 12.7429C379.086 12.4721 379.224 12.2429 379.398 12.0554C379.573 11.8679 379.771 11.726 379.992 11.6296C380.214 11.5333 380.443 11.4851 380.68 11.4851C380.982 11.4851 381.242 11.5372 381.461 11.6414C381.682 11.7455 381.863 11.8914 382.004 12.0789C382.145 12.2638 382.249 12.4825 382.316 12.7351C382.384 12.9851 382.418 13.2585 382.418 13.5554V13.8796H379.262V13.2898H381.695V13.2351C381.685 13.0476 381.646 12.8653 381.578 12.6882C381.513 12.5111 381.409 12.3653 381.266 12.2507C381.122 12.1361 380.927 12.0789 380.68 12.0789C380.516 12.0789 380.365 12.114 380.227 12.1843C380.089 12.252 379.97 12.3536 379.871 12.489C379.772 12.6244 379.695 12.7898 379.641 12.9851C379.586 13.1804 379.559 13.4057 379.559 13.6609V13.825C379.559 14.0255 379.586 14.2143 379.641 14.3914C379.698 14.5658 379.78 14.7195 379.887 14.8523C379.996 14.9851 380.128 15.0893 380.281 15.1648C380.438 15.2403 380.615 15.2781 380.812 15.2781C381.068 15.2781 381.284 15.226 381.461 15.1218C381.638 15.0177 381.793 14.8783 381.926 14.7039L382.363 15.0515C382.272 15.1895 382.156 15.321 382.016 15.446C381.875 15.571 381.702 15.6726 381.496 15.7507C381.293 15.8289 381.052 15.8679 380.773 15.8679ZM388.969 15.1765V15.7898H385.957V15.1765H388.969ZM386.109 10.1023V15.7898H385.355V10.1023H386.109ZM388.57 12.5476V13.1609H385.957V12.5476H388.57ZM388.93 10.1023V10.7195H385.957V10.1023H388.93ZM390.516 12.4656V15.7898H389.793V11.5632H390.477L390.516 12.4656ZM390.344 13.5164L390.043 13.5046C390.046 13.2156 390.089 12.9486 390.172 12.7039C390.255 12.4565 390.372 12.2416 390.523 12.0593C390.674 11.877 390.854 11.7364 391.062 11.6375C391.273 11.5359 391.507 11.4851 391.762 11.4851C391.97 11.4851 392.158 11.5138 392.324 11.571C392.491 11.6257 392.633 11.7143 392.75 11.8367C392.87 11.9591 392.961 12.1179 393.023 12.3132C393.086 12.5059 393.117 12.7416 393.117 13.0203V15.7898H392.391V13.0125C392.391 12.7911 392.358 12.614 392.293 12.4812C392.228 12.3458 392.133 12.2481 392.008 12.1882C391.883 12.1257 391.729 12.0945 391.547 12.0945C391.367 12.0945 391.203 12.1322 391.055 12.2078C390.909 12.2833 390.783 12.3875 390.676 12.5203C390.572 12.6531 390.49 12.8054 390.43 12.9773C390.372 13.1466 390.344 13.3263 390.344 13.5164ZM395.984 11.5632V12.1179H393.699V11.5632H395.984ZM394.473 10.5359H395.195V14.7429C395.195 14.8861 395.217 14.9942 395.262 15.0671C395.306 15.1401 395.363 15.1882 395.434 15.2117C395.504 15.2351 395.579 15.2468 395.66 15.2468C395.72 15.2468 395.783 15.2416 395.848 15.2312C395.915 15.2182 395.966 15.2078 396 15.2L396.004 15.7898C395.947 15.808 395.871 15.825 395.777 15.8406C395.686 15.8588 395.576 15.8679 395.445 15.8679C395.268 15.8679 395.105 15.8328 394.957 15.7625C394.809 15.6921 394.69 15.575 394.602 15.4109C394.516 15.2442 394.473 15.0203 394.473 14.739V10.5359ZM398.586 15.8679C398.292 15.8679 398.025 15.8184 397.785 15.7195C397.548 15.6179 397.344 15.476 397.172 15.2937C397.003 15.1114 396.872 14.8953 396.781 14.6453C396.69 14.3953 396.645 14.1218 396.645 13.825V13.6609C396.645 13.3171 396.695 13.0111 396.797 12.7429C396.898 12.4721 397.036 12.2429 397.211 12.0554C397.385 11.8679 397.583 11.726 397.805 11.6296C398.026 11.5333 398.255 11.4851 398.492 11.4851C398.794 11.4851 399.055 11.5372 399.273 11.6414C399.495 11.7455 399.676 11.8914 399.816 12.0789C399.957 12.2638 400.061 12.4825 400.129 12.7351C400.197 12.9851 400.23 13.2585 400.23 13.5554V13.8796H397.074V13.2898H399.508V13.2351C399.497 13.0476 399.458 12.8653 399.391 12.6882C399.326 12.5111 399.221 12.3653 399.078 12.2507C398.935 12.1361 398.74 12.0789 398.492 12.0789C398.328 12.0789 398.177 12.114 398.039 12.1843C397.901 12.252 397.783 12.3536 397.684 12.489C397.585 12.6244 397.508 12.7898 397.453 12.9851C397.398 13.1804 397.371 13.4057 397.371 13.6609V13.825C397.371 14.0255 397.398 14.2143 397.453 14.3914C397.51 14.5658 397.592 14.7195 397.699 14.8523C397.809 14.9851 397.94 15.0893 398.094 15.1648C398.25 15.2403 398.427 15.2781 398.625 15.2781C398.88 15.2781 399.096 15.226 399.273 15.1218C399.451 15.0177 399.605 14.8783 399.738 14.7039L400.176 15.0515C400.085 15.1895 399.969 15.321 399.828 15.446C399.688 15.571 399.514 15.6726 399.309 15.7507C399.105 15.8289 398.865 15.8679 398.586 15.8679ZM401.797 12.2273V15.7898H401.074V11.5632H401.777L401.797 12.2273ZM403.117 11.5398L403.113 12.2117C403.053 12.1986 402.996 12.1908 402.941 12.1882C402.889 12.183 402.829 12.1804 402.762 12.1804C402.595 12.1804 402.448 12.2065 402.32 12.2585C402.193 12.3106 402.085 12.3835 401.996 12.4773C401.908 12.571 401.837 12.683 401.785 12.8132C401.736 12.9408 401.703 13.0815 401.688 13.2351L401.484 13.3523C401.484 13.0971 401.509 12.8575 401.559 12.6335C401.611 12.4096 401.69 12.2117 401.797 12.0398C401.904 11.8653 402.039 11.7299 402.203 11.6335C402.37 11.5346 402.568 11.4851 402.797 11.4851C402.849 11.4851 402.909 11.4916 402.977 11.5046C403.044 11.5151 403.091 11.5268 403.117 11.5398ZM404.508 12.3757V17.4148H403.781V11.5632H404.445L404.508 12.3757ZM407.355 13.6414V13.7234C407.355 14.0307 407.319 14.3158 407.246 14.5789C407.173 14.8393 407.066 15.0658 406.926 15.2585C406.788 15.4513 406.617 15.601 406.414 15.7078C406.211 15.8145 405.978 15.8679 405.715 15.8679C405.447 15.8679 405.21 15.8236 405.004 15.7351C404.798 15.6466 404.624 15.5177 404.48 15.3484C404.337 15.1791 404.223 14.976 404.137 14.739C404.053 14.502 403.996 14.2351 403.965 13.9382V13.5007C403.996 13.1882 404.055 12.9083 404.141 12.6609C404.227 12.4135 404.34 12.2026 404.48 12.0281C404.624 11.851 404.797 11.7169 405 11.6257C405.203 11.532 405.438 11.4851 405.703 11.4851C405.969 11.4851 406.204 11.5372 406.41 11.6414C406.616 11.7429 406.789 11.8888 406.93 12.0789C407.07 12.269 407.176 12.4968 407.246 12.7625C407.319 13.0255 407.355 13.3184 407.355 13.6414ZM406.629 13.7234V13.6414C406.629 13.4304 406.607 13.2325 406.562 13.0476C406.518 12.8601 406.449 12.696 406.355 12.5554C406.264 12.4122 406.147 12.3002 406.004 12.2195C405.861 12.1361 405.69 12.0945 405.492 12.0945C405.31 12.0945 405.151 12.1257 405.016 12.1882C404.883 12.2507 404.77 12.3354 404.676 12.4421C404.582 12.5463 404.505 12.6661 404.445 12.8015C404.388 12.9343 404.345 13.0723 404.316 13.2156V14.2273C404.368 14.4096 404.441 14.5815 404.535 14.7429C404.629 14.9018 404.754 15.0307 404.91 15.1296C405.066 15.226 405.263 15.2742 405.5 15.2742C405.695 15.2742 405.863 15.2338 406.004 15.1531C406.147 15.0697 406.264 14.9565 406.355 14.8132C406.449 14.67 406.518 14.5059 406.562 14.321C406.607 14.1335 406.629 13.9343 406.629 13.7234ZM409 12.2273V15.7898H408.277V11.5632H408.98L409 12.2273ZM410.32 11.5398L410.316 12.2117C410.257 12.1986 410.199 12.1908 410.145 12.1882C410.092 12.183 410.033 12.1804 409.965 12.1804C409.798 12.1804 409.651 12.2065 409.523 12.2585C409.396 12.3106 409.288 12.3835 409.199 12.4773C409.111 12.571 409.04 12.683 408.988 12.8132C408.939 12.9408 408.906 13.0815 408.891 13.2351L408.688 13.3523C408.688 13.0971 408.712 12.8575 408.762 12.6335C408.814 12.4096 408.893 12.2117 409 12.0398C409.107 11.8653 409.242 11.7299 409.406 11.6335C409.573 11.5346 409.771 11.4851 410 11.4851C410.052 11.4851 410.112 11.4916 410.18 11.5046C410.247 11.5151 410.294 11.5268 410.32 11.5398ZM411.773 11.5632V15.7898H411.047V11.5632H411.773ZM410.992 10.4421C410.992 10.325 411.027 10.226 411.098 10.1453C411.171 10.0645 411.277 10.0242 411.418 10.0242C411.556 10.0242 411.661 10.0645 411.734 10.1453C411.81 10.226 411.848 10.325 411.848 10.4421C411.848 10.5541 411.81 10.6505 411.734 10.7312C411.661 10.8093 411.556 10.8484 411.418 10.8484C411.277 10.8484 411.171 10.8093 411.098 10.7312C411.027 10.6505 410.992 10.5541 410.992 10.4421ZM415.395 14.6687C415.395 14.5645 415.371 14.4682 415.324 14.3796C415.28 14.2885 415.188 14.2065 415.047 14.1335C414.909 14.058 414.701 13.9929 414.422 13.9382C414.188 13.8888 413.975 13.8302 413.785 13.7625C413.598 13.6947 413.438 13.6127 413.305 13.5164C413.174 13.42 413.074 13.3067 413.004 13.1765C412.934 13.0463 412.898 12.894 412.898 12.7195C412.898 12.5528 412.935 12.3953 413.008 12.2468C413.083 12.0984 413.189 11.9669 413.324 11.8523C413.462 11.7377 413.628 11.6479 413.82 11.5828C414.013 11.5177 414.228 11.4851 414.465 11.4851C414.803 11.4851 415.092 11.545 415.332 11.6648C415.572 11.7846 415.755 11.9447 415.883 12.1453C416.01 12.3432 416.074 12.5632 416.074 12.8054H415.352C415.352 12.6882 415.316 12.575 415.246 12.4656C415.178 12.3536 415.078 12.2611 414.945 12.1882C414.815 12.1153 414.655 12.0789 414.465 12.0789C414.264 12.0789 414.102 12.1101 413.977 12.1726C413.854 12.2325 413.764 12.3093 413.707 12.4031C413.652 12.4968 413.625 12.5958 413.625 12.7C413.625 12.7781 413.638 12.8484 413.664 12.9109C413.693 12.9708 413.742 13.0268 413.812 13.0789C413.883 13.1283 413.982 13.1752 414.109 13.2195C414.237 13.2638 414.4 13.308 414.598 13.3523C414.944 13.4304 415.229 13.5242 415.453 13.6335C415.677 13.7429 415.844 13.877 415.953 14.0359C416.062 14.1947 416.117 14.3875 416.117 14.614C416.117 14.7989 416.078 14.9682 416 15.1218C415.924 15.2755 415.814 15.4083 415.668 15.5203C415.525 15.6296 415.353 15.7156 415.152 15.7781C414.954 15.838 414.732 15.8679 414.484 15.8679C414.112 15.8679 413.797 15.8015 413.539 15.6687C413.281 15.5359 413.086 15.364 412.953 15.1531C412.82 14.9421 412.754 14.7195 412.754 14.4851H413.48C413.491 14.683 413.548 14.8406 413.652 14.9578C413.757 15.0723 413.884 15.1544 414.035 15.2039C414.186 15.2507 414.336 15.2742 414.484 15.2742C414.682 15.2742 414.848 15.2481 414.98 15.196C415.116 15.144 415.219 15.0723 415.289 14.9812C415.359 14.8901 415.395 14.7859 415.395 14.6687ZM418.82 15.8679C418.526 15.8679 418.259 15.8184 418.02 15.7195C417.783 15.6179 417.578 15.476 417.406 15.2937C417.237 15.1114 417.107 14.8953 417.016 14.6453C416.924 14.3953 416.879 14.1218 416.879 13.825V13.6609C416.879 13.3171 416.93 13.0111 417.031 12.7429C417.133 12.4721 417.271 12.2429 417.445 12.0554C417.62 11.8679 417.818 11.726 418.039 11.6296C418.26 11.5333 418.49 11.4851 418.727 11.4851C419.029 11.4851 419.289 11.5372 419.508 11.6414C419.729 11.7455 419.91 11.8914 420.051 12.0789C420.191 12.2638 420.296 12.4825 420.363 12.7351C420.431 12.9851 420.465 13.2585 420.465 13.5554V13.8796H417.309V13.2898H419.742V13.2351C419.732 13.0476 419.693 12.8653 419.625 12.6882C419.56 12.5111 419.456 12.3653 419.312 12.2507C419.169 12.1361 418.974 12.0789 418.727 12.0789C418.562 12.0789 418.411 12.114 418.273 12.1843C418.135 12.252 418.017 12.3536 417.918 12.489C417.819 12.6244 417.742 12.7898 417.688 12.9851C417.633 13.1804 417.605 13.4057 417.605 13.6609V13.825C417.605 14.0255 417.633 14.2143 417.688 14.3914C417.745 14.5658 417.827 14.7195 417.934 14.8523C418.043 14.9851 418.174 15.0893 418.328 15.1648C418.484 15.2403 418.661 15.2781 418.859 15.2781C419.115 15.2781 419.331 15.226 419.508 15.1218C419.685 15.0177 419.84 14.8783 419.973 14.7039L420.41 15.0515C420.319 15.1895 420.203 15.321 420.062 15.446C419.922 15.571 419.749 15.6726 419.543 15.7507C419.34 15.8289 419.099 15.8679 418.82 15.8679ZM423.77 14.6687C423.77 14.5645 423.746 14.4682 423.699 14.3796C423.655 14.2885 423.562 14.2065 423.422 14.1335C423.284 14.058 423.076 13.9929 422.797 13.9382C422.562 13.8888 422.35 13.8302 422.16 13.7625C421.973 13.6947 421.812 13.6127 421.68 13.5164C421.549 13.42 421.449 13.3067 421.379 13.1765C421.309 13.0463 421.273 12.894 421.273 12.7195C421.273 12.5528 421.31 12.3953 421.383 12.2468C421.458 12.0984 421.564 11.9669 421.699 11.8523C421.837 11.7377 422.003 11.6479 422.195 11.5828C422.388 11.5177 422.603 11.4851 422.84 11.4851C423.178 11.4851 423.467 11.545 423.707 11.6648C423.947 11.7846 424.13 11.9447 424.258 12.1453C424.385 12.3432 424.449 12.5632 424.449 12.8054H423.727C423.727 12.6882 423.691 12.575 423.621 12.4656C423.553 12.3536 423.453 12.2611 423.32 12.1882C423.19 12.1153 423.03 12.0789 422.84 12.0789C422.639 12.0789 422.477 12.1101 422.352 12.1726C422.229 12.2325 422.139 12.3093 422.082 12.4031C422.027 12.4968 422 12.5958 422 12.7C422 12.7781 422.013 12.8484 422.039 12.9109C422.068 12.9708 422.117 13.0268 422.188 13.0789C422.258 13.1283 422.357 13.1752 422.484 13.2195C422.612 13.2638 422.775 13.308 422.973 13.3523C423.319 13.4304 423.604 13.5242 423.828 13.6335C424.052 13.7429 424.219 13.877 424.328 14.0359C424.438 14.1947 424.492 14.3875 424.492 14.614C424.492 14.7989 424.453 14.9682 424.375 15.1218C424.299 15.2755 424.189 15.4083 424.043 15.5203C423.9 15.6296 423.728 15.7156 423.527 15.7781C423.329 15.838 423.107 15.8679 422.859 15.8679C422.487 15.8679 422.172 15.8015 421.914 15.6687C421.656 15.5359 421.461 15.364 421.328 15.1531C421.195 14.9421 421.129 14.7195 421.129 14.4851H421.855C421.866 14.683 421.923 14.8406 422.027 14.9578C422.132 15.0723 422.259 15.1544 422.41 15.2039C422.561 15.2507 422.711 15.2742 422.859 15.2742C423.057 15.2742 423.223 15.2481 423.355 15.196C423.491 15.144 423.594 15.0723 423.664 14.9812C423.734 14.8901 423.77 14.7859 423.77 14.6687Z" fill="#656A91"/>
<path d="M362.457 22.3103L360.104 28.7898H359.142L361.852 21.6804H362.472L362.457 22.3103ZM364.43 28.7898L362.071 22.3103L362.057 21.6804H362.677L365.396 28.7898H364.43ZM364.308 26.158V26.9294H360.313V26.158H364.308ZM367.115 24.6345V28.7898H366.212V23.5066H367.066L367.115 24.6345ZM366.9 25.948L366.524 25.9333C366.528 25.572 366.581 25.2384 366.686 24.9324C366.79 24.6231 366.936 24.3546 367.125 24.1267C367.314 23.8988 367.538 23.7231 367.799 23.5994C368.062 23.4724 368.354 23.4089 368.673 23.4089C368.933 23.4089 369.168 23.4447 369.376 23.5164C369.584 23.5847 369.762 23.6954 369.908 23.8484C370.058 24.0014 370.172 24.2 370.25 24.4441C370.328 24.685 370.367 24.9796 370.367 25.3279V28.7898H369.459V25.3181C369.459 25.0414 369.418 24.8201 369.337 24.6541C369.256 24.4848 369.137 24.3627 368.98 24.2878C368.824 24.2097 368.632 24.1707 368.404 24.1707C368.18 24.1707 367.975 24.2179 367.789 24.3123C367.607 24.4067 367.449 24.5369 367.315 24.7029C367.185 24.8689 367.083 25.0593 367.008 25.2742C366.936 25.4858 366.9 25.7104 366.9 25.948ZM373.951 23.5066V24.2H371.095V23.5066H373.951ZM372.062 22.2224H372.965V27.4812C372.965 27.6602 372.993 27.7953 373.048 27.8865C373.103 27.9776 373.175 28.0378 373.263 28.0671C373.351 28.0964 373.445 28.1111 373.546 28.1111C373.621 28.1111 373.699 28.1046 373.78 28.0916C373.865 28.0753 373.928 28.0623 373.971 28.0525L373.976 28.7898C373.904 28.8126 373.81 28.8337 373.692 28.8533C373.578 28.8761 373.44 28.8875 373.277 28.8875C373.056 28.8875 372.853 28.8435 372.667 28.7556C372.481 28.6677 372.333 28.5212 372.223 28.3162C372.115 28.1078 372.062 27.8279 372.062 27.4763V22.2224ZM375.914 21.2898V28.7898H375.011V21.2898H375.914ZM375.699 25.948L375.323 25.9333C375.326 25.572 375.38 25.2384 375.484 24.9324C375.589 24.6231 375.735 24.3546 375.924 24.1267C376.113 23.8988 376.337 23.7231 376.598 23.5994C376.861 23.4724 377.153 23.4089 377.472 23.4089C377.732 23.4089 377.966 23.4447 378.175 23.5164C378.383 23.5847 378.561 23.6954 378.707 23.8484C378.857 24.0014 378.971 24.2 379.049 24.4441C379.127 24.685 379.166 24.9796 379.166 25.3279V28.7898H378.258V25.3181C378.258 25.0414 378.217 24.8201 378.136 24.6541C378.054 24.4848 377.936 24.3627 377.779 24.2878C377.623 24.2097 377.431 24.1707 377.203 24.1707C376.979 24.1707 376.773 24.2179 376.588 24.3123C376.406 24.4067 376.248 24.5369 376.114 24.7029C375.984 24.8689 375.882 25.0593 375.807 25.2742C375.735 25.4858 375.699 25.7104 375.699 25.948ZM380.279 26.2068V26.0945C380.279 25.7136 380.335 25.3604 380.445 25.0349C380.556 24.7061 380.715 24.4213 380.924 24.1804C381.132 23.9363 381.384 23.7475 381.681 23.614C381.977 23.4773 382.309 23.4089 382.677 23.4089C383.048 23.4089 383.382 23.4773 383.678 23.614C383.977 23.7475 384.231 23.9363 384.439 24.1804C384.651 24.4213 384.812 24.7061 384.923 25.0349C385.034 25.3604 385.089 25.7136 385.089 26.0945V26.2068C385.089 26.5876 385.034 26.9408 384.923 27.2664C384.812 27.5919 384.651 27.8767 384.439 28.1208C384.231 28.3617 383.979 28.5505 383.683 28.6873C383.39 28.8207 383.058 28.8875 382.687 28.8875C382.315 28.8875 381.982 28.8207 381.686 28.6873C381.389 28.5505 381.135 28.3617 380.924 28.1208C380.715 27.8767 380.556 27.5919 380.445 27.2664C380.335 26.9408 380.279 26.5876 380.279 26.2068ZM381.183 26.0945V26.2068C381.183 26.4705 381.214 26.7195 381.275 26.9539C381.337 27.185 381.43 27.3901 381.554 27.5691C381.681 27.7481 381.839 27.8897 382.027 27.9939C382.216 28.0948 382.436 28.1453 382.687 28.1453C382.934 28.1453 383.15 28.0948 383.336 27.9939C383.525 27.8897 383.681 27.7481 383.805 27.5691C383.928 27.3901 384.021 27.185 384.083 26.9539C384.148 26.7195 384.181 26.4705 384.181 26.2068V26.0945C384.181 25.8341 384.148 25.5883 384.083 25.3572C384.021 25.1228 383.927 24.9161 383.8 24.7371C383.676 24.5548 383.52 24.4115 383.331 24.3074C383.146 24.2032 382.927 24.1511 382.677 24.1511C382.429 24.1511 382.211 24.2032 382.022 24.3074C381.837 24.4115 381.681 24.5548 381.554 24.7371C381.43 24.9161 381.337 25.1228 381.275 25.3572C381.214 25.5883 381.183 25.8341 381.183 26.0945ZM387.125 24.6345V28.7898H386.222V23.5066H387.076L387.125 24.6345ZM386.91 25.948L386.534 25.9333C386.537 25.572 386.591 25.2384 386.695 24.9324C386.799 24.6231 386.946 24.3546 387.135 24.1267C387.324 23.8988 387.548 23.7231 387.809 23.5994C388.072 23.4724 388.364 23.4089 388.683 23.4089C388.943 23.4089 389.177 23.4447 389.386 23.5164C389.594 23.5847 389.771 23.6954 389.918 23.8484C390.068 24.0014 390.182 24.2 390.26 24.4441C390.338 24.685 390.377 24.9796 390.377 25.3279V28.7898H389.469V25.3181C389.469 25.0414 389.428 24.8201 389.347 24.6541C389.265 24.4848 389.146 24.3627 388.99 24.2878C388.834 24.2097 388.642 24.1707 388.414 24.1707C388.189 24.1707 387.984 24.2179 387.799 24.3123C387.617 24.4067 387.459 24.5369 387.325 24.7029C387.195 24.8689 387.092 25.0593 387.018 25.2742C386.946 25.4858 386.91 25.7104 386.91 25.948ZM393.233 28.2429L394.703 23.5066H395.67L393.551 29.6052C393.502 29.7354 393.437 29.8754 393.355 30.0251C393.277 30.1781 393.176 30.323 393.053 30.4597C392.929 30.5964 392.779 30.7071 392.604 30.7917C392.431 30.8796 392.224 30.9236 391.983 30.9236C391.912 30.9236 391.821 30.9138 391.71 30.8943C391.599 30.8748 391.521 30.8585 391.476 30.8455L391.471 30.113C391.497 30.1163 391.537 30.1195 391.593 30.1228C391.651 30.1293 391.692 30.1326 391.715 30.1326C391.92 30.1326 392.094 30.1049 392.237 30.0496C392.381 29.9975 392.501 29.908 392.599 29.781C392.7 29.6573 392.786 29.4864 392.857 29.2683L393.233 28.2429ZM392.154 23.5066L393.526 27.6082L393.761 28.5603L393.111 28.8923L391.168 23.5066H392.154ZM402.75 27.9744L404.557 29.405L403.922 29.991L402.145 28.5798L402.75 27.9744ZM404.532 25.0105V25.4597C404.532 25.9936 404.465 26.4721 404.332 26.8953C404.199 27.3184 404.007 27.6781 403.756 27.9744C403.505 28.2706 403.204 28.4968 402.853 28.6531C402.504 28.8093 402.114 28.8875 401.681 28.8875C401.261 28.8875 400.875 28.8093 400.523 28.6531C400.175 28.4968 399.872 28.2706 399.615 27.9744C399.361 27.6781 399.164 27.3184 399.024 26.8953C398.884 26.4721 398.814 25.9936 398.814 25.4597V25.0105C398.814 24.4766 398.883 23.9998 399.02 23.5798C399.16 23.1567 399.356 22.797 399.61 22.5007C399.864 22.2013 400.165 21.9734 400.514 21.8171C400.865 21.6609 401.251 21.5828 401.671 21.5828C402.104 21.5828 402.496 21.6609 402.848 21.8171C403.199 21.9734 403.5 22.2013 403.751 22.5007C404.002 22.797 404.194 23.1567 404.327 23.5798C404.464 23.9998 404.532 24.4766 404.532 25.0105ZM403.6 25.4597V25.0007C403.6 24.5776 403.556 24.2032 403.468 23.8777C403.383 23.5522 403.258 23.2787 403.092 23.0574C402.926 22.836 402.724 22.6684 402.486 22.5544C402.249 22.4405 401.977 22.3835 401.671 22.3835C401.381 22.3835 401.118 22.4405 400.88 22.5544C400.646 22.6684 400.444 22.836 400.274 23.0574C400.105 23.2787 399.975 23.5522 399.884 23.8777C399.793 24.2032 399.747 24.5776 399.747 25.0007V25.4597C399.747 25.8861 399.793 26.2638 399.884 26.5925C399.975 26.9181 400.105 27.1931 400.274 27.4177C400.447 27.6391 400.652 27.8067 400.89 27.9207C401.127 28.0346 401.391 28.0916 401.681 28.0916C401.987 28.0916 402.258 28.0346 402.496 27.9207C402.734 27.8067 402.934 27.6391 403.097 27.4177C403.263 27.1931 403.388 26.9181 403.473 26.5925C403.557 26.2638 403.6 25.8861 403.6 25.4597ZM409.083 27.5691V23.5066H409.991V28.7898H409.127L409.083 27.5691ZM409.254 26.4558L409.63 26.446C409.63 26.7976 409.592 27.1231 409.518 27.4226C409.446 27.7188 409.329 27.976 409.166 28.1941C409.003 28.4122 408.79 28.5831 408.526 28.7068C408.263 28.8272 407.942 28.8875 407.564 28.8875C407.307 28.8875 407.071 28.85 406.856 28.7751C406.645 28.7003 406.463 28.5847 406.31 28.4285C406.157 28.2722 406.038 28.0688 405.953 27.8181C405.872 27.5675 405.831 27.2664 405.831 26.9148V23.5066H406.734V26.9246C406.734 27.1622 406.76 27.3591 406.812 27.5154C406.868 27.6684 406.941 27.7904 407.032 27.8816C407.127 27.9695 407.231 28.0313 407.345 28.0671C407.462 28.1029 407.582 28.1208 407.706 28.1208C408.09 28.1208 408.395 28.0476 408.619 27.9011C408.844 27.7514 409.005 27.5512 409.103 27.3005C409.203 27.0466 409.254 26.7651 409.254 26.4558ZM412.35 23.5066V28.7898H411.441V23.5066H412.35ZM411.373 22.1052C411.373 21.9587 411.417 21.835 411.505 21.7341C411.596 21.6332 411.729 21.5828 411.905 21.5828C412.078 21.5828 412.21 21.6332 412.301 21.7341C412.395 21.835 412.442 21.9587 412.442 22.1052C412.442 22.2452 412.395 22.3656 412.301 22.4666C412.21 22.5642 412.078 22.613 411.905 22.613C411.729 22.613 411.596 22.5642 411.505 22.4666C411.417 22.3656 411.373 22.2452 411.373 22.1052ZM414.703 24.6345V28.7898H413.8V23.5066H414.654L414.703 24.6345ZM414.488 25.948L414.112 25.9333C414.116 25.572 414.169 25.2384 414.273 24.9324C414.378 24.6231 414.524 24.3546 414.713 24.1267C414.902 23.8988 415.126 23.7231 415.387 23.5994C415.65 23.4724 415.942 23.4089 416.261 23.4089C416.521 23.4089 416.756 23.4447 416.964 23.5164C417.172 23.5847 417.35 23.6954 417.496 23.8484C417.646 24.0014 417.76 24.2 417.838 24.4441C417.916 24.685 417.955 24.9796 417.955 25.3279V28.7898H417.047V25.3181C417.047 25.0414 417.006 24.8201 416.925 24.6541C416.843 24.4848 416.725 24.3627 416.568 24.2878C416.412 24.2097 416.22 24.1707 415.992 24.1707C415.768 24.1707 415.562 24.2179 415.377 24.3123C415.195 24.4067 415.037 24.5369 414.903 24.7029C414.773 24.8689 414.671 25.0593 414.596 25.2742C414.524 25.4858 414.488 25.7104 414.488 25.948ZM420.23 24.6345V28.7898H419.327V23.5066H420.182L420.23 24.6345ZM420.016 25.948L419.64 25.9333C419.643 25.572 419.697 25.2384 419.801 24.9324C419.905 24.6231 420.051 24.3546 420.24 24.1267C420.429 23.8988 420.654 23.7231 420.914 23.5994C421.178 23.4724 421.469 23.4089 421.788 23.4089C422.049 23.4089 422.283 23.4447 422.491 23.5164C422.7 23.5847 422.877 23.6954 423.023 23.8484C423.173 24.0014 423.287 24.2 423.365 24.4441C423.443 24.685 423.482 24.9796 423.482 25.3279V28.7898H422.574V25.3181C422.574 25.0414 422.534 24.8201 422.452 24.6541C422.371 24.4848 422.252 24.3627 422.096 24.2878C421.939 24.2097 421.747 24.1707 421.52 24.1707C421.295 24.1707 421.09 24.2179 420.904 24.3123C420.722 24.4067 420.564 24.5369 420.431 24.7029C420.3 24.8689 420.198 25.0593 420.123 25.2742C420.051 25.4858 420.016 25.7104 420.016 25.948Z" fill="#32375E"/>
<g opacity="0.9">
<path d="M512.836 16.1804V23.2898H511.894V16.1804H512.836ZM515.316 19.1345V23.2898H514.413V18.0066H515.268L515.316 19.1345ZM515.102 20.448L514.726 20.4333C514.729 20.072 514.783 19.7384 514.887 19.4324C514.991 19.1231 515.137 18.8546 515.326 18.6267C515.515 18.3988 515.74 18.2231 516 18.0994C516.264 17.9724 516.555 17.9089 516.874 17.9089C517.134 17.9089 517.369 17.9447 517.577 18.0164C517.785 18.0847 517.963 18.1954 518.109 18.3484C518.259 18.5014 518.373 18.7 518.451 18.9441C518.529 19.185 518.568 19.4796 518.568 19.8279V23.2898H517.66V19.8181C517.66 19.5414 517.619 19.3201 517.538 19.1541C517.457 18.9848 517.338 18.8627 517.182 18.7878C517.025 18.7097 516.833 18.6707 516.605 18.6707C516.381 18.6707 516.176 18.7179 515.99 18.8123C515.808 18.9067 515.65 19.0369 515.517 19.2029C515.386 19.3689 515.284 19.5593 515.209 19.7742C515.137 19.9858 515.102 20.2104 515.102 20.448ZM523.017 21.8884C523.017 21.7582 522.987 21.6378 522.929 21.5271C522.873 21.4132 522.758 21.3106 522.582 21.2195C522.41 21.1251 522.149 21.0437 521.801 20.9753C521.508 20.9135 521.243 20.8403 521.005 20.7556C520.771 20.671 520.57 20.5684 520.404 20.448C520.242 20.3276 520.116 20.186 520.028 20.0232C519.94 19.8604 519.896 19.67 519.896 19.4519C519.896 19.2436 519.942 19.0466 520.033 18.8611C520.128 18.6755 520.259 18.5111 520.429 18.3679C520.601 18.2247 520.808 18.1124 521.049 18.031C521.29 17.9496 521.558 17.9089 521.854 17.9089C522.278 17.9089 522.639 17.9838 522.938 18.1335C523.238 18.2833 523.467 18.4835 523.627 18.7341C523.786 18.9815 523.866 19.2566 523.866 19.5593H522.963C522.963 19.4128 522.919 19.2712 522.831 19.1345C522.746 18.9945 522.621 18.879 522.455 18.7878C522.292 18.6967 522.092 18.6511 521.854 18.6511C521.604 18.6511 521.4 18.6902 521.244 18.7683C521.091 18.8432 520.979 18.9392 520.907 19.0564C520.839 19.1736 520.805 19.2973 520.805 19.4275C520.805 19.5251 520.821 19.613 520.854 19.6912C520.889 19.766 520.951 19.836 521.039 19.9011C521.127 19.963 521.251 20.0216 521.41 20.0769C521.57 20.1322 521.773 20.1876 522.021 20.2429C522.453 20.3406 522.81 20.4578 523.09 20.5945C523.37 20.7312 523.578 20.8988 523.715 21.0974C523.852 21.296 523.92 21.5369 523.92 21.8201C523.92 22.0512 523.871 22.2628 523.773 22.4548C523.679 22.6469 523.541 22.8129 523.358 22.9529C523.179 23.0896 522.965 23.197 522.714 23.2751C522.466 23.35 522.188 23.3875 521.879 23.3875C521.413 23.3875 521.02 23.3044 520.697 23.1384C520.375 22.9724 520.131 22.7576 519.965 22.4939C519.799 22.2302 519.716 21.9519 519.716 21.6589H520.624C520.637 21.9063 520.709 22.1033 520.839 22.2498C520.969 22.393 521.129 22.4955 521.317 22.5574C521.506 22.616 521.693 22.6453 521.879 22.6453C522.126 22.6453 522.333 22.6127 522.499 22.5476C522.668 22.4825 522.797 22.393 522.885 22.2791C522.973 22.1651 523.017 22.0349 523.017 21.8884ZM527.318 18.0066V18.7H524.462V18.0066H527.318ZM525.429 16.7224H526.332V21.9812C526.332 22.1602 526.36 22.2953 526.415 22.3865C526.47 22.4776 526.542 22.5378 526.63 22.5671C526.718 22.5964 526.812 22.6111 526.913 22.6111C526.988 22.6111 527.066 22.6046 527.147 22.5916C527.232 22.5753 527.296 22.5623 527.338 22.5525L527.343 23.2898C527.271 23.3126 527.177 23.3337 527.06 23.3533C526.946 23.3761 526.807 23.3875 526.645 23.3875C526.423 23.3875 526.22 23.3435 526.034 23.2556C525.849 23.1677 525.701 23.0212 525.59 22.8162C525.482 22.6078 525.429 22.3279 525.429 21.9763V16.7224ZM531.493 22.3865V19.6667C531.493 19.4584 531.451 19.2778 531.366 19.1248C531.285 18.9685 531.161 18.8481 530.995 18.7634C530.829 18.6788 530.624 18.6365 530.38 18.6365C530.152 18.6365 529.952 18.6755 529.779 18.7537C529.61 18.8318 529.477 18.9343 529.379 19.0613C529.285 19.1882 529.237 19.325 529.237 19.4714H528.334C528.334 19.2826 528.383 19.0955 528.48 18.9099C528.578 18.7244 528.718 18.5567 528.9 18.407C529.086 18.254 529.307 18.1335 529.564 18.0457C529.825 17.9545 530.115 17.9089 530.434 17.9089C530.818 17.9089 531.156 17.974 531.449 18.1042C531.745 18.2345 531.977 18.4314 532.143 18.6951C532.312 18.9555 532.396 19.2826 532.396 19.6765V22.1375C532.396 22.3132 532.411 22.5004 532.44 22.699C532.473 22.8975 532.52 23.0684 532.582 23.2117V23.2898H531.64C531.594 23.1856 531.558 23.0473 531.532 22.8748C531.506 22.699 531.493 22.5362 531.493 22.3865ZM531.649 20.0867L531.659 20.7214H530.746C530.489 20.7214 530.259 20.7426 530.058 20.7849C529.856 20.824 529.687 20.8842 529.55 20.9656C529.413 21.047 529.309 21.1495 529.237 21.2732C529.166 21.3936 529.13 21.5352 529.13 21.698C529.13 21.864 529.167 22.0154 529.242 22.1521C529.317 22.2888 529.429 22.3979 529.579 22.4792C529.732 22.5574 529.919 22.5964 530.141 22.5964C530.417 22.5964 530.661 22.5378 530.873 22.4207C531.085 22.3035 531.252 22.1602 531.376 21.991C531.503 21.8217 531.571 21.6573 531.581 21.4978L531.967 21.9324C531.944 22.0691 531.882 22.2205 531.781 22.3865C531.68 22.5525 531.545 22.712 531.376 22.865C531.21 23.0147 531.011 23.1401 530.78 23.241C530.552 23.3386 530.295 23.3875 530.009 23.3875C529.651 23.3875 529.337 23.3175 529.066 23.1775C528.799 23.0375 528.591 22.8503 528.441 22.616C528.295 22.3783 528.222 22.113 528.222 21.8201C528.222 21.5369 528.277 21.2878 528.388 21.073C528.498 20.8549 528.658 20.6742 528.866 20.531C529.075 20.3845 529.325 20.2738 529.618 20.199C529.911 20.1241 530.238 20.0867 530.6 20.0867H531.649ZM534.799 15.7898V23.2898H533.891V15.7898H534.799ZM537.147 19.0564V23.2898H536.239V18.0066H537.099L537.147 19.0564ZM536.962 20.448L536.542 20.4333C536.545 20.072 536.592 19.7384 536.684 19.4324C536.775 19.1231 536.91 18.8546 537.089 18.6267C537.268 18.3988 537.491 18.2231 537.758 18.0994C538.025 17.9724 538.334 17.9089 538.686 17.9089C538.933 17.9089 539.161 17.9447 539.369 18.0164C539.577 18.0847 539.758 18.1938 539.911 18.3435C540.064 18.4932 540.183 18.6853 540.268 18.9197C540.352 19.1541 540.395 19.4373 540.395 19.7693V23.2898H539.491V19.8132C539.491 19.5365 539.444 19.3152 539.35 19.1492C539.258 18.9832 539.128 18.8627 538.959 18.7878C538.79 18.7097 538.591 18.6707 538.363 18.6707C538.096 18.6707 537.873 18.7179 537.694 18.8123C537.515 18.9067 537.372 19.0369 537.265 19.2029C537.157 19.3689 537.079 19.5593 537.03 19.7742C536.985 19.9858 536.962 20.2104 536.962 20.448ZM540.385 19.95L539.779 20.1355C539.783 19.8458 539.83 19.5675 539.921 19.3005C540.015 19.0336 540.15 18.796 540.326 18.5876C540.505 18.3793 540.725 18.2149 540.985 18.0945C541.246 17.9708 541.544 17.9089 541.879 17.9089C542.162 17.9089 542.413 17.9464 542.631 18.0212C542.852 18.0961 543.038 18.2117 543.188 18.3679C543.34 18.5209 543.456 18.7179 543.534 18.9587C543.612 19.1996 543.651 19.4861 543.651 19.8181V23.2898H542.743V19.8083C542.743 19.5121 542.696 19.2826 542.602 19.1199C542.51 18.9539 542.38 18.8383 542.211 18.7732C542.045 18.7048 541.846 18.6707 541.615 18.6707C541.417 18.6707 541.241 18.7048 541.088 18.7732C540.935 18.8416 540.806 18.936 540.702 19.0564C540.598 19.1736 540.518 19.3087 540.463 19.4617C540.411 19.6147 540.385 19.7774 540.385 19.95ZM547.211 23.3875C546.843 23.3875 546.509 23.3256 546.21 23.2019C545.914 23.075 545.658 22.8975 545.443 22.6697C545.232 22.4418 545.069 22.1716 544.955 21.8591C544.841 21.5466 544.784 21.2048 544.784 20.8337V20.6287C544.784 20.199 544.848 19.8165 544.975 19.4812C545.102 19.1427 545.274 18.8562 545.492 18.6218C545.71 18.3875 545.958 18.21 546.234 18.0896C546.511 17.9692 546.798 17.9089 547.094 17.9089C547.471 17.9089 547.797 17.974 548.07 18.1042C548.347 18.2345 548.573 18.4167 548.749 18.6511C548.925 18.8822 549.055 19.1557 549.14 19.4714C549.224 19.7839 549.267 20.1257 549.267 20.4968V20.9021H545.321V20.1648H548.363V20.0964C548.35 19.8621 548.301 19.6342 548.217 19.4128C548.135 19.1915 548.005 19.0092 547.826 18.866C547.647 18.7227 547.403 18.6511 547.094 18.6511C546.889 18.6511 546.7 18.6951 546.527 18.783C546.355 18.8676 546.207 18.9945 546.083 19.1638C545.959 19.3331 545.863 19.5398 545.795 19.7839C545.727 20.0281 545.692 20.3097 545.692 20.6287V20.8337C545.692 21.0844 545.727 21.3204 545.795 21.5417C545.867 21.7598 545.969 21.9519 546.103 22.1179C546.239 22.2839 546.404 22.4141 546.596 22.5085C546.791 22.6029 547.012 22.6501 547.26 22.6501C547.579 22.6501 547.849 22.585 548.07 22.4548C548.292 22.3246 548.485 22.1505 548.651 21.9324L549.198 22.3669C549.084 22.5395 548.939 22.7039 548.764 22.8601C548.588 23.0164 548.371 23.1433 548.114 23.241C547.86 23.3386 547.559 23.3875 547.211 23.3875ZM551.225 19.1345V23.2898H550.321V18.0066H551.176L551.225 19.1345ZM551.01 20.448L550.634 20.4333C550.637 20.072 550.691 19.7384 550.795 19.4324C550.899 19.1231 551.046 18.8546 551.234 18.6267C551.423 18.3988 551.648 18.2231 551.908 18.0994C552.172 17.9724 552.463 17.9089 552.782 17.9089C553.043 17.9089 553.277 17.9447 553.485 18.0164C553.694 18.0847 553.871 18.1954 554.018 18.3484C554.167 18.5014 554.281 18.7 554.359 18.9441C554.438 19.185 554.477 19.4796 554.477 19.8279V23.2898H553.568V19.8181C553.568 19.5414 553.528 19.3201 553.446 19.1541C553.365 18.9848 553.246 18.8627 553.09 18.7878C552.934 18.7097 552.742 18.6707 552.514 18.6707C552.289 18.6707 552.084 18.7179 551.898 18.8123C551.716 18.9067 551.558 19.0369 551.425 19.2029C551.295 19.3689 551.192 19.5593 551.117 19.7742C551.046 19.9858 551.01 20.2104 551.01 20.448ZM558.061 18.0066V18.7H555.204V18.0066H558.061ZM556.171 16.7224H557.074V21.9812C557.074 22.1602 557.102 22.2953 557.157 22.3865C557.213 22.4776 557.284 22.5378 557.372 22.5671C557.46 22.5964 557.554 22.6111 557.655 22.6111C557.73 22.6111 557.808 22.6046 557.89 22.5916C557.974 22.5753 558.038 22.5623 558.08 22.5525L558.085 23.2898C558.013 23.3126 557.919 23.3337 557.802 23.3533C557.688 23.3761 557.549 23.3875 557.387 23.3875C557.165 23.3875 556.962 23.3435 556.776 23.2556C556.591 23.1677 556.443 23.0212 556.332 22.8162C556.225 22.6078 556.171 22.3279 556.171 21.9763V16.7224Z" fill="#32375E"/>
</g>
<g opacity="0.9">
<path d="M671.249 22.5476V23.2898H666.596V22.6404L668.925 20.0476C669.211 19.7286 669.433 19.4584 669.589 19.2371C669.748 19.0125 669.859 18.8123 669.921 18.6365C669.986 18.4574 670.019 18.2751 670.019 18.0896C670.019 17.8552 669.97 17.6436 669.872 17.4548C669.778 17.2628 669.638 17.1098 669.452 16.9958C669.267 16.8819 669.042 16.825 668.778 16.825C668.463 16.825 668.199 16.8868 667.987 17.0105C667.779 17.1309 667.623 17.3002 667.519 17.5183C667.414 17.7364 667.362 17.9871 667.362 18.2703H666.459C666.459 17.8699 666.547 17.5037 666.723 17.1716C666.898 16.8396 667.159 16.5759 667.504 16.3806C667.849 16.182 668.274 16.0828 668.778 16.0828C669.228 16.0828 669.612 16.1625 669.931 16.322C670.25 16.4783 670.494 16.6996 670.663 16.9861C670.836 17.2693 670.922 17.6013 670.922 17.9822C670.922 18.1905 670.886 18.4021 670.814 18.6169C670.746 18.8285 670.65 19.0401 670.526 19.2517C670.406 19.4633 670.264 19.6716 670.102 19.8767C669.942 20.0818 669.771 20.2836 669.589 20.4822L667.685 22.5476H671.249ZM673.134 22.2156V22.9431C673.134 23.2393 673.059 23.5518 672.909 23.8806C672.759 24.2126 672.549 24.4893 672.279 24.7107L671.767 24.3542C671.871 24.211 671.959 24.0645 672.03 23.9148C672.102 23.7683 672.156 23.6153 672.191 23.4558C672.23 23.2996 672.25 23.1335 672.25 22.9578V22.2156H673.134ZM675.087 22.533H675.18C675.701 22.533 676.124 22.4597 676.449 22.3132C676.775 22.1667 677.025 21.9698 677.201 21.7224C677.377 21.475 677.497 21.1967 677.562 20.8875C677.628 20.575 677.66 20.2543 677.66 19.9255V18.8367C677.66 18.5144 677.623 18.2279 677.548 17.9773C677.476 17.7266 677.375 17.5167 677.245 17.3474C677.118 17.1781 676.973 17.0496 676.811 16.9617C676.648 16.8738 676.475 16.8298 676.293 16.8298C676.085 16.8298 675.897 16.8722 675.731 16.9568C675.569 17.0382 675.43 17.1537 675.316 17.3035C675.206 17.4532 675.121 17.629 675.062 17.8308C675.004 18.0326 674.975 18.2524 674.975 18.49C674.975 18.7016 675.001 18.9067 675.053 19.1052C675.105 19.3038 675.185 19.4828 675.292 19.6423C675.399 19.8018 675.533 19.9288 675.692 20.0232C675.855 20.1143 676.046 20.1599 676.264 20.1599C676.465 20.1599 676.654 20.1208 676.83 20.0427C677.009 19.9613 677.167 19.8523 677.304 19.7156C677.444 19.5756 677.554 19.4177 677.636 19.2419C677.72 19.0662 677.769 18.8822 677.782 18.6902H678.212C678.212 18.9604 678.158 19.2273 678.051 19.491C677.947 19.7514 677.8 19.989 677.611 20.2039C677.423 20.4187 677.201 20.5912 676.947 20.7214C676.693 20.8484 676.417 20.9119 676.117 20.9119C675.766 20.9119 675.461 20.8435 675.204 20.7068C674.947 20.5701 674.735 20.3878 674.569 20.1599C674.407 19.932 674.285 19.6781 674.203 19.3982C674.125 19.115 674.086 18.8285 674.086 18.5388C674.086 18.2003 674.133 17.8829 674.228 17.5867C674.322 17.2904 674.462 17.03 674.647 16.8054C674.833 16.5776 675.062 16.4001 675.336 16.2732C675.613 16.1462 675.932 16.0828 676.293 16.0828C676.7 16.0828 677.047 16.1641 677.333 16.3269C677.619 16.4897 677.852 16.7078 678.031 16.9812C678.214 17.2546 678.347 17.5623 678.432 17.9041C678.516 18.2458 678.559 18.5974 678.559 18.9587V19.2859C678.559 19.6537 678.534 20.0281 678.485 20.4089C678.44 20.7865 678.35 21.1479 678.217 21.4929C678.087 21.838 677.896 22.1472 677.646 22.4207C677.395 22.6908 677.068 22.9057 676.664 23.0652C676.264 23.2214 675.769 23.2996 675.18 23.2996H675.087V22.533ZM684.276 19.1687V20.2527C684.276 20.8354 684.224 21.3269 684.12 21.7273C684.016 22.1277 683.866 22.45 683.671 22.6941C683.476 22.9382 683.24 23.1156 682.963 23.2263C682.689 23.3337 682.38 23.3875 682.035 23.3875C681.762 23.3875 681.509 23.3533 681.278 23.2849C681.047 23.2166 680.839 23.1075 680.653 22.9578C680.471 22.8048 680.315 22.6062 680.185 22.3621C680.054 22.1179 679.955 21.8217 679.887 21.4734C679.818 21.1251 679.784 20.7182 679.784 20.2527V19.1687C679.784 18.586 679.836 18.0977 679.94 17.7039C680.048 17.31 680.199 16.9942 680.395 16.7566C680.59 16.5157 680.824 16.3432 681.098 16.239C681.374 16.1348 681.684 16.0828 682.025 16.0828C682.302 16.0828 682.556 16.1169 682.787 16.1853C683.021 16.2504 683.23 16.3562 683.412 16.5027C683.594 16.6459 683.749 16.838 683.876 17.0789C684.006 17.3165 684.105 17.6078 684.174 17.9529C684.242 18.2979 684.276 18.7032 684.276 19.1687ZM683.368 20.3992V19.0173C683.368 18.6983 683.349 18.4184 683.31 18.1775C683.274 17.9333 683.22 17.725 683.148 17.5525C683.077 17.38 682.986 17.24 682.875 17.1326C682.768 17.0251 682.642 16.947 682.499 16.8982C682.359 16.8461 682.201 16.8201 682.025 16.8201C681.811 16.8201 681.62 16.8608 681.454 16.9421C681.288 17.0203 681.148 17.1456 681.034 17.3181C680.924 17.4906 680.839 17.7169 680.78 17.9968C680.722 18.2768 680.692 18.6169 680.692 19.0173V20.3992C680.692 20.7182 680.71 20.9998 680.746 21.2439C680.785 21.488 680.842 21.6996 680.917 21.8787C680.992 22.0544 681.083 22.1993 681.19 22.3132C681.298 22.4272 681.422 22.5118 681.562 22.5671C681.705 22.6192 681.863 22.6453 682.035 22.6453C682.257 22.6453 682.45 22.6029 682.616 22.5183C682.782 22.4337 682.921 22.3018 683.031 22.1228C683.145 21.9405 683.23 21.7078 683.285 21.4246C683.34 21.1381 683.368 20.7963 683.368 20.3992ZM689.901 19.1687V20.2527C689.901 20.8354 689.849 21.3269 689.745 21.7273C689.641 22.1277 689.491 22.45 689.296 22.6941C689.101 22.9382 688.865 23.1156 688.588 23.2263C688.314 23.3337 688.005 23.3875 687.66 23.3875C687.387 23.3875 687.134 23.3533 686.903 23.2849C686.672 23.2166 686.464 23.1075 686.278 22.9578C686.096 22.8048 685.94 22.6062 685.81 22.3621C685.679 22.1179 685.58 21.8217 685.512 21.4734C685.443 21.1251 685.409 20.7182 685.409 20.2527V19.1687C685.409 18.586 685.461 18.0977 685.565 17.7039C685.673 17.31 685.824 16.9942 686.02 16.7566C686.215 16.5157 686.449 16.3432 686.723 16.239C686.999 16.1348 687.309 16.0828 687.65 16.0828C687.927 16.0828 688.181 16.1169 688.412 16.1853C688.646 16.2504 688.855 16.3562 689.037 16.5027C689.219 16.6459 689.374 16.838 689.501 17.0789C689.631 17.3165 689.73 17.6078 689.799 17.9529C689.867 18.2979 689.901 18.7032 689.901 19.1687ZM688.993 20.3992V19.0173C688.993 18.6983 688.974 18.4184 688.935 18.1775C688.899 17.9333 688.845 17.725 688.773 17.5525C688.702 17.38 688.611 17.24 688.5 17.1326C688.393 17.0251 688.267 16.947 688.124 16.8982C687.984 16.8461 687.826 16.8201 687.65 16.8201C687.436 16.8201 687.245 16.8608 687.079 16.9421C686.913 17.0203 686.773 17.1456 686.659 17.3181C686.549 17.4906 686.464 17.7169 686.405 17.9968C686.347 18.2768 686.317 18.6169 686.317 19.0173V20.3992C686.317 20.7182 686.335 20.9998 686.371 21.2439C686.41 21.488 686.467 21.6996 686.542 21.8787C686.617 22.0544 686.708 22.1993 686.815 22.3132C686.923 22.4272 687.047 22.5118 687.187 22.5671C687.33 22.6192 687.488 22.6453 687.66 22.6453C687.882 22.6453 688.075 22.6029 688.241 22.5183C688.407 22.4337 688.546 22.3018 688.656 22.1228C688.77 21.9405 688.855 21.7078 688.91 21.4246C688.965 21.1381 688.993 20.7963 688.993 20.3992ZM691.176 22.8113C691.176 22.6583 691.223 22.5297 691.317 22.4255C691.415 22.3181 691.555 22.2644 691.737 22.2644C691.92 22.2644 692.058 22.3181 692.152 22.4255C692.25 22.5297 692.299 22.6583 692.299 22.8113C692.299 22.961 692.25 23.088 692.152 23.1921C692.058 23.2963 691.92 23.3484 691.737 23.3484C691.555 23.3484 691.415 23.2963 691.317 23.1921C691.223 23.088 691.176 22.961 691.176 22.8113ZM698.163 19.1687V20.2527C698.163 20.8354 698.111 21.3269 698.007 21.7273C697.903 22.1277 697.753 22.45 697.558 22.6941C697.362 22.9382 697.126 23.1156 696.85 23.2263C696.576 23.3337 696.267 23.3875 695.922 23.3875C695.648 23.3875 695.396 23.3533 695.165 23.2849C694.934 23.2166 694.726 23.1075 694.54 22.9578C694.358 22.8048 694.201 22.6062 694.071 22.3621C693.941 22.1179 693.842 21.8217 693.773 21.4734C693.705 21.1251 693.671 20.7182 693.671 20.2527V19.1687C693.671 18.586 693.723 18.0977 693.827 17.7039C693.935 17.31 694.086 16.9942 694.281 16.7566C694.477 16.5157 694.711 16.3432 694.984 16.239C695.261 16.1348 695.57 16.0828 695.912 16.0828C696.189 16.0828 696.443 16.1169 696.674 16.1853C696.908 16.2504 697.117 16.3562 697.299 16.5027C697.481 16.6459 697.636 16.838 697.763 17.0789C697.893 17.3165 697.992 17.6078 698.061 17.9529C698.129 18.2979 698.163 18.7032 698.163 19.1687ZM697.255 20.3992V19.0173C697.255 18.6983 697.235 18.4184 697.196 18.1775C697.16 17.9333 697.107 17.725 697.035 17.5525C696.964 17.38 696.872 17.24 696.762 17.1326C696.654 17.0251 696.529 16.947 696.386 16.8982C696.246 16.8461 696.088 16.8201 695.912 16.8201C695.697 16.8201 695.507 16.8608 695.341 16.9421C695.175 17.0203 695.035 17.1456 694.921 17.3181C694.81 17.4906 694.726 17.7169 694.667 17.9968C694.608 18.2768 694.579 18.6169 694.579 19.0173V20.3992C694.579 20.7182 694.597 20.9998 694.633 21.2439C694.672 21.488 694.729 21.6996 694.804 21.8787C694.879 22.0544 694.97 22.1993 695.077 22.3132C695.185 22.4272 695.308 22.5118 695.448 22.5671C695.591 22.6192 695.749 22.6453 695.922 22.6453C696.143 22.6453 696.337 22.6029 696.503 22.5183C696.669 22.4337 696.807 22.3018 696.918 22.1228C697.032 21.9405 697.117 21.7078 697.172 21.4246C697.227 21.1381 697.255 20.7963 697.255 20.3992ZM703.788 19.1687V20.2527C703.788 20.8354 703.736 21.3269 703.632 21.7273C703.528 22.1277 703.378 22.45 703.183 22.6941C702.987 22.9382 702.751 23.1156 702.475 23.2263C702.201 23.3337 701.892 23.3875 701.547 23.3875C701.273 23.3875 701.021 23.3533 700.79 23.2849C700.559 23.2166 700.351 23.1075 700.165 22.9578C699.983 22.8048 699.826 22.6062 699.696 22.3621C699.566 22.1179 699.467 21.8217 699.398 21.4734C699.33 21.1251 699.296 20.7182 699.296 20.2527V19.1687C699.296 18.586 699.348 18.0977 699.452 17.7039C699.56 17.31 699.711 16.9942 699.906 16.7566C700.102 16.5157 700.336 16.3432 700.609 16.239C700.886 16.1348 701.195 16.0828 701.537 16.0828C701.814 16.0828 702.068 16.1169 702.299 16.1853C702.533 16.2504 702.742 16.3562 702.924 16.5027C703.106 16.6459 703.261 16.838 703.388 17.0789C703.518 17.3165 703.617 17.6078 703.686 17.9529C703.754 18.2979 703.788 18.7032 703.788 19.1687ZM702.88 20.3992V19.0173C702.88 18.6983 702.86 18.4184 702.821 18.1775C702.785 17.9333 702.732 17.725 702.66 17.5525C702.589 17.38 702.497 17.24 702.387 17.1326C702.279 17.0251 702.154 16.947 702.011 16.8982C701.871 16.8461 701.713 16.8201 701.537 16.8201C701.322 16.8201 701.132 16.8608 700.966 16.9421C700.8 17.0203 700.66 17.1456 700.546 17.3181C700.435 17.4906 700.351 17.7169 700.292 17.9968C700.233 18.2768 700.204 18.6169 700.204 19.0173V20.3992C700.204 20.7182 700.222 20.9998 700.258 21.2439C700.297 21.488 700.354 21.6996 700.429 21.8787C700.504 22.0544 700.595 22.1993 700.702 22.3132C700.81 22.4272 700.933 22.5118 701.073 22.5671C701.216 22.6192 701.374 22.6453 701.547 22.6453C701.768 22.6453 701.962 22.6029 702.128 22.5183C702.294 22.4337 702.432 22.3018 702.543 22.1228C702.657 21.9405 702.742 21.7078 702.797 21.4246C702.852 21.1381 702.88 20.7963 702.88 20.3992Z" fill="#32375E"/>
</g>
<g opacity="0.9">
<path d="M726.342 22.5232V23.2898H722.577V22.5232H726.342ZM722.768 16.1804V23.2898H721.825V16.1804H722.768ZM725.844 19.2371V20.0037H722.577V19.2371H725.844ZM726.293 16.1804V16.9519H722.577V16.1804H726.293ZM731.576 16.1804H732.514V20.99C732.514 21.5238 732.395 21.9682 732.157 22.323C731.92 22.6778 731.604 22.9447 731.21 23.1238C730.819 23.2996 730.395 23.3875 729.936 23.3875C729.454 23.3875 729.018 23.2996 728.627 23.1238C728.24 22.9447 727.932 22.6778 727.704 22.323C727.479 21.9682 727.367 21.5238 727.367 20.99V16.1804H728.3V20.99C728.3 21.3611 728.368 21.6671 728.505 21.908C728.642 22.1488 728.832 22.3279 729.076 22.4451C729.324 22.5623 729.61 22.6208 729.936 22.6208C730.264 22.6208 730.551 22.5623 730.795 22.4451C731.042 22.3279 731.234 22.1488 731.371 21.908C731.508 21.6671 731.576 21.3611 731.576 20.99V16.1804ZM733.993 16.1804H736.347C736.881 16.1804 737.331 16.2618 737.699 16.4246C738.07 16.5873 738.352 16.8282 738.544 17.1472C738.739 17.463 738.837 17.852 738.837 18.3142C738.837 18.6397 738.77 18.9376 738.637 19.2078C738.507 19.4747 738.318 19.7026 738.07 19.8914C737.826 20.0769 737.533 20.2153 737.191 20.3064L736.928 20.4089H734.716L734.706 19.6423H736.376C736.715 19.6423 736.996 19.5837 737.221 19.4666C737.445 19.3461 737.615 19.185 737.729 18.9832C737.842 18.7813 737.899 18.5583 737.899 18.3142C737.899 18.0408 737.846 17.8015 737.738 17.5964C737.631 17.3914 737.462 17.2335 737.23 17.1228C737.003 17.0089 736.708 16.9519 736.347 16.9519H734.936V23.2898H733.993V16.1804ZM738.148 23.2898L736.42 20.0671L737.401 20.0623L739.154 23.2312V23.2898H738.148Z" fill="#32375E"/>
</g>
<g opacity="0.9">
<path d="M811.249 22.5476V23.2898H806.596V22.6404L808.925 20.0476C809.211 19.7286 809.433 19.4584 809.589 19.2371C809.748 19.0125 809.859 18.8123 809.921 18.6365C809.986 18.4574 810.019 18.2751 810.019 18.0896C810.019 17.8552 809.97 17.6436 809.872 17.4548C809.778 17.2628 809.638 17.1098 809.452 16.9958C809.267 16.8819 809.042 16.825 808.778 16.825C808.463 16.825 808.199 16.8868 807.987 17.0105C807.779 17.1309 807.623 17.3002 807.519 17.5183C807.414 17.7364 807.362 17.9871 807.362 18.2703H806.459C806.459 17.8699 806.547 17.5037 806.723 17.1716C806.898 16.8396 807.159 16.5759 807.504 16.3806C807.849 16.182 808.274 16.0828 808.778 16.0828C809.228 16.0828 809.612 16.1625 809.931 16.322C810.25 16.4783 810.494 16.6996 810.663 16.9861C810.836 17.2693 810.922 17.6013 810.922 17.9822C810.922 18.1905 810.886 18.4021 810.814 18.6169C810.746 18.8285 810.65 19.0401 810.526 19.2517C810.406 19.4633 810.264 19.6716 810.102 19.8767C809.942 20.0818 809.771 20.2836 809.589 20.4822L807.685 22.5476H811.249ZM815.458 16.1804L812.494 23.9001H811.718L814.687 16.1804H815.458ZM819.315 16.1414V23.2898H818.412V17.2693L816.591 17.9333V17.1179L819.174 16.1414H819.315ZM826.435 19.1687V20.2527C826.435 20.8354 826.382 21.3269 826.278 21.7273C826.174 22.1277 826.024 22.45 825.829 22.6941C825.634 22.9382 825.398 23.1156 825.121 23.2263C824.848 23.3337 824.538 23.3875 824.193 23.3875C823.92 23.3875 823.668 23.3533 823.437 23.2849C823.205 23.2166 822.997 23.1075 822.812 22.9578C822.629 22.8048 822.473 22.6062 822.343 22.3621C822.213 22.1179 822.113 21.8217 822.045 21.4734C821.977 21.1251 821.942 20.7182 821.942 20.2527V19.1687C821.942 18.586 821.994 18.0977 822.099 17.7039C822.206 17.31 822.357 16.9942 822.553 16.7566C822.748 16.5157 822.982 16.3432 823.256 16.239C823.533 16.1348 823.842 16.0828 824.184 16.0828C824.46 16.0828 824.714 16.1169 824.945 16.1853C825.18 16.2504 825.388 16.3562 825.57 16.5027C825.753 16.6459 825.907 16.838 826.034 17.0789C826.164 17.3165 826.264 17.6078 826.332 17.9529C826.4 18.2979 826.435 18.7032 826.435 19.1687ZM825.526 20.3992V19.0173C825.526 18.6983 825.507 18.4184 825.468 18.1775C825.432 17.9333 825.378 17.725 825.307 17.5525C825.235 17.38 825.144 17.24 825.033 17.1326C824.926 17.0251 824.8 16.947 824.657 16.8982C824.517 16.8461 824.359 16.8201 824.184 16.8201C823.969 16.8201 823.778 16.8608 823.612 16.9421C823.446 17.0203 823.306 17.1456 823.192 17.3181C823.082 17.4906 822.997 17.7169 822.938 17.9968C822.88 18.2768 822.851 18.6169 822.851 19.0173V20.3992C822.851 20.7182 822.868 20.9998 822.904 21.2439C822.943 21.488 823 21.6996 823.075 21.8787C823.15 22.0544 823.241 22.1993 823.349 22.3132C823.456 22.4272 823.58 22.5118 823.72 22.5671C823.863 22.6192 824.021 22.6453 824.193 22.6453C824.415 22.6453 824.608 22.6029 824.774 22.5183C824.94 22.4337 825.079 22.3018 825.189 22.1228C825.303 21.9405 825.388 21.7078 825.443 21.4246C825.499 21.1381 825.526 20.7963 825.526 20.3992Z" fill="#32375E"/>
</g>
<g opacity="0.9">
<path d="M888.733 19.906L888.011 19.7205L888.367 16.1804H892.015V17.0154H889.134L888.919 18.949C889.049 18.8741 889.214 18.8041 889.412 18.739C889.614 18.6739 889.845 18.6414 890.105 18.6414C890.434 18.6414 890.729 18.6983 890.989 18.8123C891.25 18.9229 891.471 19.0824 891.653 19.2908C891.839 19.4991 891.98 19.7498 892.078 20.0427C892.176 20.3357 892.225 20.6628 892.225 21.0242C892.225 21.366 892.177 21.6801 892.083 21.9666C891.992 22.253 891.854 22.5037 891.668 22.7185C891.482 22.9301 891.248 23.0945 890.965 23.2117C890.685 23.3289 890.354 23.3875 889.974 23.3875C889.687 23.3875 889.415 23.3484 889.158 23.2703C888.904 23.1889 888.676 23.0668 888.475 22.9041C888.276 22.738 888.113 22.533 887.986 22.2888C887.863 22.0414 887.785 21.7517 887.752 21.4197H888.611C888.65 21.6866 888.729 21.9112 888.846 22.0935C888.963 22.2758 889.116 22.4141 889.305 22.5085C889.497 22.5997 889.72 22.6453 889.974 22.6453C890.188 22.6453 890.379 22.6078 890.545 22.533C890.711 22.4581 890.851 22.3507 890.965 22.2107C891.079 22.0707 891.165 21.9014 891.224 21.7029C891.285 21.5043 891.316 21.2813 891.316 21.0339C891.316 20.8093 891.285 20.601 891.224 20.4089C891.162 20.2169 891.069 20.0492 890.945 19.906C890.825 19.7628 890.677 19.6521 890.501 19.574C890.325 19.4926 890.123 19.4519 889.896 19.4519C889.593 19.4519 889.363 19.4926 889.207 19.574C889.054 19.6554 888.896 19.766 888.733 19.906ZM897.698 21.366C897.698 21.7989 897.597 22.1667 897.396 22.4695C897.197 22.769 896.927 22.9968 896.585 23.1531C896.246 23.3093 895.864 23.3875 895.438 23.3875C895.011 23.3875 894.627 23.3093 894.285 23.1531C893.943 22.9968 893.673 22.769 893.475 22.4695C893.276 22.1667 893.177 21.7989 893.177 21.366C893.177 21.0828 893.23 20.824 893.338 20.5896C893.449 20.352 893.603 20.1453 893.802 19.9695C894.004 19.7937 894.241 19.6586 894.515 19.5642C894.791 19.4666 895.096 19.4177 895.428 19.4177C895.864 19.4177 896.253 19.5024 896.595 19.6716C896.937 19.8376 897.205 20.0671 897.4 20.3601C897.599 20.6531 897.698 20.9884 897.698 21.366ZM896.79 21.3464C896.79 21.0828 896.733 20.85 896.619 20.6482C896.505 20.4431 896.346 20.2836 896.141 20.1697C895.936 20.0557 895.698 19.9988 895.428 19.9988C895.151 19.9988 894.912 20.0557 894.71 20.1697C894.511 20.2836 894.357 20.4431 894.246 20.6482C894.135 20.85 894.08 21.0828 894.08 21.3464C894.08 21.6199 894.134 21.8542 894.241 22.0496C894.352 22.2416 894.508 22.3897 894.71 22.4939C894.915 22.5948 895.158 22.6453 895.438 22.6453C895.717 22.6453 895.958 22.5948 896.16 22.4939C896.362 22.3897 896.517 22.2416 896.624 22.0496C896.735 21.8542 896.79 21.6199 896.79 21.3464ZM897.532 18.031C897.532 18.3761 897.441 18.6869 897.259 18.9636C897.076 19.2403 896.827 19.4584 896.512 19.6179C896.196 19.7774 895.838 19.8572 895.438 19.8572C895.031 19.8572 894.668 19.7774 894.349 19.6179C894.033 19.4584 893.785 19.2403 893.606 18.9636C893.427 18.6869 893.338 18.3761 893.338 18.031C893.338 17.6176 893.427 17.266 893.606 16.9763C893.789 16.6866 894.038 16.4653 894.354 16.3123C894.669 16.1593 895.029 16.0828 895.433 16.0828C895.84 16.0828 896.201 16.1593 896.517 16.3123C896.832 16.4653 897.08 16.6866 897.259 16.9763C897.441 17.266 897.532 17.6176 897.532 18.031ZM896.629 18.0457C896.629 17.808 896.578 17.5981 896.478 17.4158C896.377 17.2335 896.237 17.0903 896.058 16.9861C895.879 16.8787 895.67 16.825 895.433 16.825C895.195 16.825 894.987 16.8754 894.808 16.9763C894.632 17.074 894.493 17.2139 894.393 17.3962C894.295 17.5785 894.246 17.795 894.246 18.0457C894.246 18.2898 894.295 18.503 894.393 18.6853C894.493 18.8676 894.633 19.0092 894.812 19.1101C894.992 19.211 895.2 19.2615 895.438 19.2615C895.675 19.2615 895.882 19.211 896.058 19.1101C896.237 19.0092 896.377 18.8676 896.478 18.6853C896.578 18.503 896.629 18.2898 896.629 18.0457ZM903.304 19.1687V20.2527C903.304 20.8354 903.252 21.3269 903.147 21.7273C903.043 22.1277 902.894 22.45 902.698 22.6941C902.503 22.9382 902.267 23.1156 901.99 23.2263C901.717 23.3337 901.408 23.3875 901.062 23.3875C900.789 23.3875 900.537 23.3533 900.306 23.2849C900.075 23.2166 899.866 23.1075 899.681 22.9578C899.498 22.8048 899.342 22.6062 899.212 22.3621C899.082 22.1179 898.982 21.8217 898.914 21.4734C898.846 21.1251 898.812 20.7182 898.812 20.2527V19.1687C898.812 18.586 898.864 18.0977 898.968 17.7039C899.075 17.31 899.227 16.9942 899.422 16.7566C899.617 16.5157 899.852 16.3432 900.125 16.239C900.402 16.1348 900.711 16.0828 901.053 16.0828C901.329 16.0828 901.583 16.1169 901.814 16.1853C902.049 16.2504 902.257 16.3562 902.439 16.5027C902.622 16.6459 902.776 16.838 902.903 17.0789C903.034 17.3165 903.133 17.6078 903.201 17.9529C903.27 18.2979 903.304 18.7032 903.304 19.1687ZM902.396 20.3992V19.0173C902.396 18.6983 902.376 18.4184 902.337 18.1775C902.301 17.9333 902.247 17.725 902.176 17.5525C902.104 17.38 902.013 17.24 901.902 17.1326C901.795 17.0251 901.67 16.947 901.526 16.8982C901.386 16.8461 901.229 16.8201 901.053 16.8201C900.838 16.8201 900.647 16.8608 900.481 16.9421C900.315 17.0203 900.175 17.1456 900.062 17.3181C899.951 17.4906 899.866 17.7169 899.808 17.9968C899.749 18.2768 899.72 18.6169 899.72 19.0173V20.3992C899.72 20.7182 899.738 20.9998 899.773 21.2439C899.812 21.488 899.869 21.6996 899.944 21.8787C900.019 22.0544 900.11 22.1993 900.218 22.3132C900.325 22.4272 900.449 22.5118 900.589 22.5671C900.732 22.6192 900.89 22.6453 901.062 22.6453C901.284 22.6453 901.478 22.6029 901.644 22.5183C901.81 22.4337 901.948 22.3018 902.059 22.1228C902.173 21.9405 902.257 21.7078 902.312 21.4246C902.368 21.1381 902.396 20.7963 902.396 20.3992ZM904.578 22.8113C904.578 22.6583 904.625 22.5297 904.72 22.4255C904.817 22.3181 904.957 22.2644 905.14 22.2644C905.322 22.2644 905.46 22.3181 905.555 22.4255C905.652 22.5297 905.701 22.6583 905.701 22.8113C905.701 22.961 905.652 23.088 905.555 23.1921C905.46 23.2963 905.322 23.3484 905.14 23.3484C904.957 23.3484 904.817 23.2963 904.72 23.1921C904.625 23.088 904.578 22.961 904.578 22.8113ZM911.565 19.1687V20.2527C911.565 20.8354 911.513 21.3269 911.409 21.7273C911.305 22.1277 911.155 22.45 910.96 22.6941C910.765 22.9382 910.529 23.1156 910.252 23.2263C909.979 23.3337 909.669 23.3875 909.324 23.3875C909.051 23.3875 908.799 23.3533 908.567 23.2849C908.336 23.2166 908.128 23.1075 907.942 22.9578C907.76 22.8048 907.604 22.6062 907.474 22.3621C907.343 22.1179 907.244 21.8217 907.176 21.4734C907.107 21.1251 907.073 20.7182 907.073 20.2527V19.1687C907.073 18.586 907.125 18.0977 907.229 17.7039C907.337 17.31 907.488 16.9942 907.684 16.7566C907.879 16.5157 908.113 16.3432 908.387 16.239C908.663 16.1348 908.973 16.0828 909.314 16.0828C909.591 16.0828 909.845 16.1169 910.076 16.1853C910.311 16.2504 910.519 16.3562 910.701 16.5027C910.883 16.6459 911.038 16.838 911.165 17.0789C911.295 17.3165 911.395 17.6078 911.463 17.9529C911.531 18.2979 911.565 18.7032 911.565 19.1687ZM910.657 20.3992V19.0173C910.657 18.6983 910.638 18.4184 910.599 18.1775C910.563 17.9333 910.509 17.725 910.438 17.5525C910.366 17.38 910.275 17.24 910.164 17.1326C910.057 17.0251 909.931 16.947 909.788 16.8982C909.648 16.8461 909.49 16.8201 909.314 16.8201C909.1 16.8201 908.909 16.8608 908.743 16.9421C908.577 17.0203 908.437 17.1456 908.323 17.3181C908.213 17.4906 908.128 17.7169 908.069 17.9968C908.011 18.2768 907.981 18.6169 907.981 19.0173V20.3992C907.981 20.7182 907.999 20.9998 908.035 21.2439C908.074 21.488 908.131 21.6996 908.206 21.8787C908.281 22.0544 908.372 22.1993 908.479 22.3132C908.587 22.4272 908.711 22.5118 908.851 22.5671C908.994 22.6192 909.152 22.6453 909.324 22.6453C909.546 22.6453 909.739 22.6029 909.905 22.5183C910.071 22.4337 910.21 22.3018 910.32 22.1228C910.434 21.9405 910.519 21.7078 910.574 21.4246C910.63 21.1381 910.657 20.7963 910.657 20.3992ZM917.19 19.1687V20.2527C917.19 20.8354 917.138 21.3269 917.034 21.7273C916.93 22.1277 916.78 22.45 916.585 22.6941C916.39 22.9382 916.154 23.1156 915.877 23.2263C915.604 23.3337 915.294 23.3875 914.949 23.3875C914.676 23.3875 914.424 23.3533 914.192 23.2849C913.961 23.2166 913.753 23.1075 913.567 22.9578C913.385 22.8048 913.229 22.6062 913.099 22.3621C912.968 22.1179 912.869 21.8217 912.801 21.4734C912.732 21.1251 912.698 20.7182 912.698 20.2527V19.1687C912.698 18.586 912.75 18.0977 912.854 17.7039C912.962 17.31 913.113 16.9942 913.309 16.7566C913.504 16.5157 913.738 16.3432 914.012 16.239C914.288 16.1348 914.598 16.0828 914.939 16.0828C915.216 16.0828 915.47 16.1169 915.701 16.1853C915.936 16.2504 916.144 16.3562 916.326 16.5027C916.508 16.6459 916.663 16.838 916.79 17.0789C916.92 17.3165 917.02 17.6078 917.088 17.9529C917.156 18.2979 917.19 18.7032 917.19 19.1687ZM916.282 20.3992V19.0173C916.282 18.6983 916.263 18.4184 916.224 18.1775C916.188 17.9333 916.134 17.725 916.062 17.5525C915.991 17.38 915.9 17.24 915.789 17.1326C915.682 17.0251 915.556 16.947 915.413 16.8982C915.273 16.8461 915.115 16.8201 914.939 16.8201C914.725 16.8201 914.534 16.8608 914.368 16.9421C914.202 17.0203 914.062 17.1456 913.948 17.3181C913.838 17.4906 913.753 17.7169 913.694 17.9968C913.636 18.2768 913.606 18.6169 913.606 19.0173V20.3992C913.606 20.7182 913.624 20.9998 913.66 21.2439C913.699 21.488 913.756 21.6996 913.831 21.8787C913.906 22.0544 913.997 22.1993 914.104 22.3132C914.212 22.4272 914.336 22.5118 914.476 22.5671C914.619 22.6192 914.777 22.6453 914.949 22.6453C915.171 22.6453 915.364 22.6029 915.53 22.5183C915.696 22.4337 915.835 22.3018 915.945 22.1228C916.059 21.9405 916.144 21.7078 916.199 21.4246C916.255 21.1381 916.282 20.7963 916.282 20.3992Z" fill="#32375E"/>
</g>
</svg>
