<svg width="934" height="41" viewBox="0 0 934 41" fill="none" xmlns="http://www.w3.org/2000/svg">
<rect y="0.289795" width="934" height="40" rx="12" fill="white"/>
<path d="M20.0002 26.9564C16.3182 26.9564 13.3335 23.9718 13.3335 20.2898C13.3335 16.6078 16.3182 13.6231 20.0002 13.6231C23.6822 13.6231 26.6668 16.6078 26.6668 20.2898C26.6668 23.9718 23.6822 26.9564 20.0002 26.9564ZM20.0002 25.6231C21.4147 25.6231 22.7712 25.0612 23.7714 24.061C24.7716 23.0608 25.3335 21.7043 25.3335 20.2898C25.3335 18.8753 24.7716 17.5187 23.7714 16.5185C22.7712 15.5183 21.4147 14.9564 20.0002 14.9564C18.5857 14.9564 17.2291 15.5183 16.2289 16.5185C15.2287 17.5187 14.6668 18.8753 14.6668 20.2898C14.6668 21.7043 15.2287 23.0608 16.2289 24.061C17.2291 25.0612 18.5857 25.6231 20.0002 25.6231ZM19.3355 22.9564L16.5068 20.1278L17.4495 19.1851L19.3355 21.0711L23.1062 17.2998L24.0495 18.2424L19.3355 22.9564Z" fill="#29508E"/>
<g opacity="0.9">
<path d="M45.0537 19.1687V20.2527C45.0537 20.8354 45.0016 21.3269 44.8975 21.7273C44.7933 22.1277 44.6436 22.45 44.4482 22.6941C44.2529 22.9382 44.0169 23.1156 43.7402 23.2263C43.4668 23.3337 43.1576 23.3875 42.8125 23.3875C42.5391 23.3875 42.2868 23.3533 42.0557 23.2849C41.8245 23.2166 41.6162 23.1075 41.4307 22.9578C41.2484 22.8048 41.0921 22.6062 40.9619 22.3621C40.8317 22.1179 40.7324 21.8217 40.6641 21.4734C40.5957 21.1251 40.5615 20.7182 40.5615 20.2527V19.1687C40.5615 18.586 40.6136 18.0977 40.7178 17.7039C40.8252 17.31 40.9766 16.9942 41.1719 16.7566C41.3672 16.5157 41.6016 16.3432 41.875 16.239C42.1517 16.1348 42.4609 16.0828 42.8027 16.0828C43.0794 16.0828 43.3333 16.1169 43.5645 16.1853C43.7988 16.2504 44.0072 16.3562 44.1895 16.5027C44.3717 16.6459 44.5264 16.838 44.6533 17.0789C44.7835 17.3165 44.8828 17.6078 44.9512 17.9529C45.0195 18.2979 45.0537 18.7032 45.0537 19.1687ZM44.1455 20.3992V19.0173C44.1455 18.6983 44.126 18.4184 44.0869 18.1775C44.0511 17.9333 43.9974 17.725 43.9258 17.5525C43.8542 17.38 43.763 17.24 43.6523 17.1326C43.5449 17.0251 43.4196 16.947 43.2764 16.8982C43.1364 16.8461 42.9785 16.8201 42.8027 16.8201C42.5879 16.8201 42.3975 16.8608 42.2314 16.9421C42.0654 17.0203 41.9255 17.1456 41.8115 17.3181C41.7008 17.4906 41.6162 17.7169 41.5576 17.9968C41.499 18.2768 41.4697 18.6169 41.4697 19.0173V20.3992C41.4697 20.7182 41.4876 20.9998 41.5234 21.2439C41.5625 21.488 41.6195 21.6996 41.6943 21.8787C41.7692 22.0544 41.8604 22.1993 41.9678 22.3132C42.0752 22.4272 42.1989 22.5118 42.3389 22.5671C42.4821 22.6192 42.64 22.6453 42.8125 22.6453C43.0339 22.6453 43.2275 22.6029 43.3936 22.5183C43.5596 22.4337 43.6979 22.3018 43.8086 22.1228C43.9225 21.9405 44.0072 21.7078 44.0625 21.4246C44.1178 21.1381 44.1455 20.7963 44.1455 20.3992ZM50.6982 21.366C50.6982 21.7989 50.5973 22.1667 50.3955 22.4695C50.1969 22.769 49.9268 22.9968 49.585 23.1531C49.2464 23.3093 48.8639 23.3875 48.4375 23.3875C48.0111 23.3875 47.627 23.3093 47.2852 23.1531C46.9434 22.9968 46.6732 22.769 46.4746 22.4695C46.276 22.1667 46.1768 21.7989 46.1768 21.366C46.1768 21.0828 46.2305 20.824 46.3379 20.5896C46.4486 20.352 46.6032 20.1453 46.8018 19.9695C47.0036 19.7937 47.2412 19.6586 47.5146 19.5642C47.7913 19.4666 48.0957 19.4177 48.4277 19.4177C48.8639 19.4177 49.2529 19.5024 49.5947 19.6716C49.9365 19.8376 50.2051 20.0671 50.4004 20.3601C50.599 20.6531 50.6982 20.9884 50.6982 21.366ZM49.79 21.3464C49.79 21.0828 49.7331 20.85 49.6191 20.6482C49.5052 20.4431 49.3457 20.2836 49.1406 20.1697C48.9355 20.0557 48.6979 19.9988 48.4277 19.9988C48.151 19.9988 47.9118 20.0557 47.71 20.1697C47.5114 20.2836 47.3568 20.4431 47.2461 20.6482C47.1354 20.85 47.0801 21.0828 47.0801 21.3464C47.0801 21.6199 47.1338 21.8542 47.2412 22.0496C47.3519 22.2416 47.5081 22.3897 47.71 22.4939C47.915 22.5948 48.1576 22.6453 48.4375 22.6453C48.7174 22.6453 48.9583 22.5948 49.1602 22.4939C49.362 22.3897 49.5166 22.2416 49.624 22.0496C49.7347 21.8542 49.79 21.6199 49.79 21.3464ZM50.5322 18.031C50.5322 18.3761 50.4411 18.6869 50.2588 18.9636C50.0765 19.2403 49.8275 19.4584 49.5117 19.6179C49.196 19.7774 48.8379 19.8572 48.4375 19.8572C48.0306 19.8572 47.6676 19.7774 47.3486 19.6179C47.0329 19.4584 46.7855 19.2403 46.6064 18.9636C46.4274 18.6869 46.3379 18.3761 46.3379 18.031C46.3379 17.6176 46.4274 17.266 46.6064 16.9763C46.7887 16.6866 47.0378 16.4653 47.3535 16.3123C47.6693 16.1593 48.029 16.0828 48.4326 16.0828C48.8395 16.0828 49.2008 16.1593 49.5166 16.3123C49.8324 16.4653 50.0798 16.6866 50.2588 16.9763C50.4411 17.266 50.5322 17.6176 50.5322 18.031ZM49.6289 18.0457C49.6289 17.808 49.5785 17.5981 49.4775 17.4158C49.3766 17.2335 49.2367 17.0903 49.0576 16.9861C48.8786 16.8787 48.6702 16.825 48.4326 16.825C48.195 16.825 47.9867 16.8754 47.8076 16.9763C47.6318 17.074 47.4935 17.2139 47.3926 17.3962C47.2949 17.5785 47.2461 17.795 47.2461 18.0457C47.2461 18.2898 47.2949 18.503 47.3926 18.6853C47.4935 18.8676 47.6335 19.0092 47.8125 19.1101C47.9915 19.211 48.1999 19.2615 48.4375 19.2615C48.6751 19.2615 48.8818 19.211 49.0576 19.1101C49.2367 19.0092 49.3766 18.8676 49.4775 18.6853C49.5785 18.503 49.6289 18.2898 49.6289 18.0457ZM53.8184 19.8962V20.6384H51.4355V19.8962H53.8184ZM57.4707 16.8103L55.1172 23.2898H54.1553L56.8652 16.1804H57.4854L57.4707 16.8103ZM59.4434 23.2898L57.085 16.8103L57.0703 16.1804H57.6904L60.4102 23.2898H59.4434ZM59.3213 20.658V21.4294H55.3271V20.658H59.3213ZM62.1289 19.0222V25.321H61.2207V18.0066H62.0508L62.1289 19.0222ZM65.6885 20.6042V20.7068C65.6885 21.0909 65.6429 21.4473 65.5518 21.7761C65.4606 22.1016 65.3271 22.3848 65.1514 22.6257C64.9788 22.8666 64.7656 23.0538 64.5117 23.1873C64.2578 23.3207 63.9665 23.3875 63.6377 23.3875C63.3024 23.3875 63.0062 23.3321 62.749 23.2214C62.4919 23.1108 62.2738 22.9496 62.0947 22.738C61.9157 22.5264 61.7725 22.2725 61.665 21.9763C61.5609 21.6801 61.4893 21.3464 61.4502 20.9753V20.4285C61.4893 20.0378 61.5625 19.6879 61.6699 19.3787C61.7773 19.0694 61.9189 18.8057 62.0947 18.5876C62.2738 18.3663 62.4902 18.1986 62.7441 18.0847C62.998 17.9675 63.291 17.9089 63.623 17.9089C63.9551 17.9089 64.2497 17.974 64.5068 18.1042C64.764 18.2312 64.9805 18.4135 65.1562 18.6511C65.332 18.8888 65.4639 19.1736 65.5518 19.5056C65.6429 19.8344 65.6885 20.2006 65.6885 20.6042ZM64.7803 20.7068V20.6042C64.7803 20.3406 64.7526 20.0932 64.6973 19.8621C64.6419 19.6277 64.5557 19.4226 64.4385 19.2468C64.3245 19.0678 64.1781 18.9278 63.999 18.8269C63.82 18.7227 63.6068 18.6707 63.3594 18.6707C63.1315 18.6707 62.9329 18.7097 62.7637 18.7878C62.5977 18.866 62.4561 18.9718 62.3389 19.1052C62.2217 19.2354 62.1257 19.3852 62.0508 19.5544C61.9792 19.7205 61.9255 19.893 61.8896 20.072V21.3367C61.9548 21.5645 62.0459 21.7794 62.1631 21.9812C62.2803 22.1798 62.4365 22.3409 62.6318 22.4646C62.8271 22.585 63.0729 22.6453 63.3691 22.6453C63.6133 22.6453 63.8232 22.5948 63.999 22.4939C64.1781 22.3897 64.3245 22.2481 64.4385 22.0691C64.5557 21.8901 64.6419 21.685 64.6973 21.4539C64.7526 21.2195 64.7803 20.9705 64.7803 20.7068ZM67.7441 18.8367V23.2898H66.8408V18.0066H67.7197L67.7441 18.8367ZM69.3945 17.9773L69.3896 18.8171C69.3148 18.8009 69.2432 18.7911 69.1748 18.7878C69.1097 18.7813 69.0348 18.7781 68.9502 18.7781C68.7419 18.7781 68.5579 18.8106 68.3984 18.8757C68.2389 18.9408 68.1038 19.032 67.9932 19.1492C67.8825 19.2664 67.7946 19.4063 67.7295 19.5691C67.6676 19.7286 67.627 19.9044 67.6074 20.0964L67.3535 20.2429C67.3535 19.9239 67.3844 19.6244 67.4463 19.3445C67.5114 19.0645 67.6107 18.8171 67.7441 18.6023C67.8776 18.3842 68.0469 18.2149 68.252 18.0945C68.4603 17.9708 68.7077 17.9089 68.9941 17.9089C69.0592 17.9089 69.1341 17.9171 69.2188 17.9333C69.3034 17.9464 69.362 17.961 69.3945 17.9773ZM72.1094 19.8962V20.6384H69.7266V19.8962H72.1094ZM77.5537 22.5476V23.2898H72.9004V22.6404L75.2295 20.0476C75.516 19.7286 75.7373 19.4584 75.8936 19.2371C76.0531 19.0125 76.1637 18.8123 76.2256 18.6365C76.2907 18.4574 76.3232 18.2751 76.3232 18.0896C76.3232 17.8552 76.2744 17.6436 76.1768 17.4548C76.0824 17.2628 75.9424 17.1098 75.7568 16.9958C75.5713 16.8819 75.3467 16.825 75.083 16.825C74.7673 16.825 74.5036 16.8868 74.292 17.0105C74.0837 17.1309 73.9274 17.3002 73.8232 17.5183C73.7191 17.7364 73.667 17.9871 73.667 18.2703H72.7637C72.7637 17.8699 72.8516 17.5037 73.0273 17.1716C73.2031 16.8396 73.4635 16.5759 73.8086 16.3806C74.1536 16.182 74.5785 16.0828 75.083 16.0828C75.5322 16.0828 75.9163 16.1625 76.2354 16.322C76.5544 16.4783 76.7985 16.6996 76.9678 16.9861C77.1403 17.2693 77.2266 17.6013 77.2266 17.9822C77.2266 18.1905 77.1908 18.4021 77.1191 18.6169C77.0508 18.8285 76.9548 19.0401 76.8311 19.2517C76.7106 19.4633 76.569 19.6716 76.4062 19.8767C76.2467 20.0818 76.0758 20.2836 75.8936 20.4822L73.9893 22.5476H77.5537ZM83.1787 22.5476V23.2898H78.5254V22.6404L80.8545 20.0476C81.141 19.7286 81.3623 19.4584 81.5186 19.2371C81.6781 19.0125 81.7887 18.8123 81.8506 18.6365C81.9157 18.4574 81.9482 18.2751 81.9482 18.0896C81.9482 17.8552 81.8994 17.6436 81.8018 17.4548C81.7074 17.2628 81.5674 17.1098 81.3818 16.9958C81.1963 16.8819 80.9717 16.825 80.708 16.825C80.3923 16.825 80.1286 16.8868 79.917 17.0105C79.7087 17.1309 79.5524 17.3002 79.4482 17.5183C79.3441 17.7364 79.292 17.9871 79.292 18.2703H78.3887C78.3887 17.8699 78.4766 17.5037 78.6523 17.1716C78.8281 16.8396 79.0885 16.5759 79.4336 16.3806C79.7786 16.182 80.2035 16.0828 80.708 16.0828C81.1572 16.0828 81.5413 16.1625 81.8604 16.322C82.1794 16.4783 82.4235 16.6996 82.5928 16.9861C82.7653 17.2693 82.8516 17.6013 82.8516 17.9822C82.8516 18.1905 82.8158 18.4021 82.7441 18.6169C82.6758 18.8285 82.5798 19.0401 82.4561 19.2517C82.3356 19.4633 82.194 19.6716 82.0312 19.8767C81.8717 20.0818 81.7008 20.2836 81.5186 20.4822L79.6143 22.5476H83.1787ZM89.5947 16.1414V23.2898H88.6914V17.2693L86.8701 17.9333V17.1179L89.4531 16.1414H89.5947ZM96.7139 19.1687V20.2527C96.7139 20.8354 96.6618 21.3269 96.5576 21.7273C96.4535 22.1277 96.3037 22.45 96.1084 22.6941C95.9131 22.9382 95.6771 23.1156 95.4004 23.2263C95.127 23.3337 94.8177 23.3875 94.4727 23.3875C94.1992 23.3875 93.9469 23.3533 93.7158 23.2849C93.4847 23.2166 93.2764 23.1075 93.0908 22.9578C92.9085 22.8048 92.7523 22.6062 92.6221 22.3621C92.4919 22.1179 92.3926 21.8217 92.3242 21.4734C92.2559 21.1251 92.2217 20.7182 92.2217 20.2527V19.1687C92.2217 18.586 92.2738 18.0977 92.3779 17.7039C92.4854 17.31 92.6367 16.9942 92.832 16.7566C93.0273 16.5157 93.2617 16.3432 93.5352 16.239C93.8118 16.1348 94.1211 16.0828 94.4629 16.0828C94.7396 16.0828 94.9935 16.1169 95.2246 16.1853C95.459 16.2504 95.6673 16.3562 95.8496 16.5027C96.0319 16.6459 96.1865 16.838 96.3135 17.0789C96.4437 17.3165 96.543 17.6078 96.6113 17.9529C96.6797 18.2979 96.7139 18.7032 96.7139 19.1687ZM95.8057 20.3992V19.0173C95.8057 18.6983 95.7861 18.4184 95.7471 18.1775C95.7113 17.9333 95.6576 17.725 95.5859 17.5525C95.5143 17.38 95.4232 17.24 95.3125 17.1326C95.2051 17.0251 95.0798 16.947 94.9365 16.8982C94.7965 16.8461 94.6387 16.8201 94.4629 16.8201C94.248 16.8201 94.0576 16.8608 93.8916 16.9421C93.7256 17.0203 93.5856 17.1456 93.4717 17.3181C93.361 17.4906 93.2764 17.7169 93.2178 17.9968C93.1592 18.2768 93.1299 18.6169 93.1299 19.0173V20.3992C93.1299 20.7182 93.1478 20.9998 93.1836 21.2439C93.2227 21.488 93.2796 21.6996 93.3545 21.8787C93.4294 22.0544 93.5205 22.1993 93.6279 22.3132C93.7354 22.4272 93.859 22.5118 93.999 22.5671C94.1423 22.6192 94.3001 22.6453 94.4727 22.6453C94.694 22.6453 94.8877 22.6029 95.0537 22.5183C95.2197 22.4337 95.3581 22.3018 95.4688 22.1228C95.5827 21.9405 95.6673 21.7078 95.7227 21.4246C95.778 21.1381 95.8057 20.7963 95.8057 20.3992ZM97.9346 22.8113C97.9346 22.6583 97.9818 22.5297 98.0762 22.4255C98.1738 22.3181 98.3138 22.2644 98.4961 22.2644C98.6784 22.2644 98.8167 22.3181 98.9111 22.4255C99.0088 22.5297 99.0576 22.6583 99.0576 22.8113C99.0576 22.961 99.0088 23.088 98.9111 23.1921C98.8167 23.2963 98.6784 23.3484 98.4961 23.3484C98.3138 23.3484 98.1738 23.2963 98.0762 23.1921C97.9818 23.088 97.9346 22.961 97.9346 22.8113ZM97.9395 18.4998C97.9395 18.3468 97.9867 18.2182 98.0811 18.114C98.1787 18.0066 98.3187 17.9529 98.501 17.9529C98.6833 17.9529 98.8216 18.0066 98.916 18.114C99.0137 18.2182 99.0625 18.3468 99.0625 18.4998C99.0625 18.6495 99.0137 18.7764 98.916 18.8806C98.8216 18.9848 98.6833 19.0369 98.501 19.0369C98.3187 19.0369 98.1787 18.9848 98.0811 18.8806C97.9867 18.7764 97.9395 18.6495 97.9395 18.4998ZM103.267 16.1414V23.2898H102.363V17.2693L100.542 17.9333V17.1179L103.125 16.1414H103.267ZM110.518 16.1804V16.6882L107.573 23.2898H106.621L109.561 16.9226H105.713V16.1804H110.518Z" fill="#32375E"/>
</g>
<g opacity="0.9">
<path d="M196.249 22.5476V23.2898H191.596V22.6404L193.925 20.0476C194.211 19.7286 194.433 19.4584 194.589 19.2371C194.748 19.0125 194.859 18.8123 194.921 18.6365C194.986 18.4574 195.019 18.2751 195.019 18.0896C195.019 17.8552 194.97 17.6436 194.872 17.4548C194.778 17.2628 194.638 17.1098 194.452 16.9958C194.267 16.8819 194.042 16.825 193.778 16.825C193.463 16.825 193.199 16.8868 192.987 17.0105C192.779 17.1309 192.623 17.3002 192.519 17.5183C192.414 17.7364 192.362 17.9871 192.362 18.2703H191.459C191.459 17.8699 191.547 17.5037 191.723 17.1716C191.898 16.8396 192.159 16.5759 192.504 16.3806C192.849 16.182 193.274 16.0828 193.778 16.0828C194.228 16.0828 194.612 16.1625 194.931 16.322C195.25 16.4783 195.494 16.6996 195.663 16.9861C195.836 17.2693 195.922 17.6013 195.922 17.9822C195.922 18.1905 195.886 18.4021 195.814 18.6169C195.746 18.8285 195.65 19.0401 195.526 19.2517C195.406 19.4633 195.264 19.6716 195.102 19.8767C194.942 20.0818 194.771 20.2836 194.589 20.4822L192.685 22.5476H196.249ZM202.021 20.8972V21.6394H196.884V21.1072L200.067 16.1804H200.805L200.014 17.6062L197.909 20.8972H202.021ZM201.029 16.1804V23.2898H200.126V16.1804H201.029ZM206.308 16.1707H206.386V16.9373H206.308C205.829 16.9373 205.429 17.0154 205.106 17.1716C204.784 17.3246 204.529 17.5313 204.34 17.7917C204.151 18.0489 204.014 18.3386 203.93 18.6609C203.848 18.9832 203.808 19.3103 203.808 19.6423V20.6873C203.808 21.003 203.845 21.283 203.92 21.5271C203.995 21.768 204.097 21.9714 204.228 22.1375C204.358 22.3035 204.504 22.4288 204.667 22.5134C204.833 22.5981 205.006 22.6404 205.185 22.6404C205.393 22.6404 205.578 22.6013 205.741 22.5232C205.904 22.4418 206.041 22.3295 206.151 22.1863C206.265 22.0398 206.352 21.8673 206.41 21.6687C206.469 21.4701 206.498 21.252 206.498 21.0144C206.498 20.8028 206.472 20.5994 206.42 20.4041C206.368 20.2055 206.288 20.0297 206.181 19.8767C206.073 19.7205 205.938 19.5984 205.775 19.5105C205.616 19.4194 205.425 19.3738 205.204 19.3738C204.953 19.3738 204.719 19.4356 204.501 19.5593C204.286 19.6798 204.109 19.8393 203.969 20.0378C203.832 20.2332 203.754 20.4464 203.734 20.6775L203.256 20.6726C203.301 20.308 203.386 19.9972 203.51 19.74C203.637 19.4796 203.793 19.268 203.979 19.1052C204.167 18.9392 204.377 18.8188 204.608 18.7439C204.843 18.6658 205.09 18.6267 205.351 18.6267C205.705 18.6267 206.011 18.6934 206.269 18.8269C206.526 18.9604 206.737 19.1394 206.903 19.364C207.069 19.5854 207.191 19.836 207.27 20.116C207.351 20.3927 207.392 20.6775 207.392 20.9705C207.392 21.3057 207.344 21.6199 207.25 21.9128C207.156 22.2058 207.014 22.463 206.825 22.6843C206.64 22.9057 206.41 23.0782 206.137 23.2019C205.863 23.3256 205.546 23.3875 205.185 23.3875C204.8 23.3875 204.465 23.3093 204.179 23.1531C203.892 22.9936 203.655 22.782 203.466 22.5183C203.277 22.2546 203.135 21.9617 203.041 21.6394C202.947 21.3171 202.899 20.99 202.899 20.658V20.2332C202.899 19.7319 202.95 19.2403 203.051 18.7585C203.152 18.2768 203.326 17.8406 203.573 17.45C203.824 17.0593 204.171 16.7485 204.613 16.5173C205.056 16.2862 205.621 16.1707 206.308 16.1707ZM213.271 20.8972V21.6394H208.134V21.1072L211.317 16.1804H212.055L211.264 17.6062L209.159 20.8972H213.271ZM212.279 16.1804V23.2898H211.376V16.1804H212.279Z" fill="#3F7BDA"/>
</g>
<g opacity="0.9">
<path d="M230.825 16.1804H233.179C233.713 16.1804 234.163 16.2618 234.531 16.4246C234.902 16.5873 235.184 16.8282 235.376 17.1472C235.571 17.463 235.669 17.852 235.669 18.3142C235.669 18.6397 235.602 18.9376 235.469 19.2078C235.339 19.4747 235.15 19.7026 234.902 19.8914C234.658 20.0769 234.365 20.2153 234.023 20.3064L233.76 20.4089H231.548L231.538 19.6423H233.208C233.547 19.6423 233.828 19.5837 234.053 19.4666C234.277 19.3461 234.447 19.185 234.561 18.9832C234.674 18.7813 234.731 18.5583 234.731 18.3142C234.731 18.0408 234.678 17.8015 234.57 17.5964C234.463 17.3914 234.294 17.2335 234.062 17.1228C233.835 17.0089 233.54 16.9519 233.179 16.9519H231.768V23.2898H230.825V16.1804ZM234.98 23.2898L233.252 20.0671L234.233 20.0623L235.986 23.2312V23.2898H234.98ZM241.504 22.5232V23.2898H237.739V22.5232H241.504ZM237.93 16.1804V23.2898H236.987V16.1804H237.93ZM241.006 19.2371V20.0037H237.739V19.2371H241.006ZM241.455 16.1804V16.9519H237.739V16.1804H241.455ZM246.963 21.0291H247.9C247.852 21.4783 247.723 21.8803 247.515 22.2351C247.306 22.5899 247.012 22.8715 246.631 23.0798C246.25 23.2849 245.775 23.3875 245.205 23.3875C244.788 23.3875 244.409 23.3093 244.067 23.1531C243.729 22.9968 243.438 22.7755 243.193 22.489C242.949 22.1993 242.76 21.8526 242.627 21.449C242.497 21.0421 242.432 20.5896 242.432 20.0916V19.3835C242.432 18.8855 242.497 18.4347 242.627 18.031C242.76 17.6241 242.951 17.2758 243.198 16.9861C243.449 16.6964 243.75 16.4734 244.102 16.3171C244.453 16.1609 244.849 16.0828 245.288 16.0828C245.825 16.0828 246.279 16.1837 246.65 16.3855C247.021 16.5873 247.31 16.8673 247.515 17.2253C247.723 17.5802 247.852 17.9919 247.9 18.4607H246.963C246.917 18.1287 246.833 17.8438 246.709 17.6062C246.585 17.3653 246.41 17.1798 246.182 17.0496C245.954 16.9194 245.656 16.8542 245.288 16.8542C244.972 16.8542 244.694 16.9145 244.453 17.0349C244.215 17.1554 244.015 17.3263 243.853 17.5476C243.693 17.769 243.573 18.0343 243.491 18.3435C243.41 18.6528 243.369 18.9962 243.369 19.3738V20.0916C243.369 20.4399 243.405 20.767 243.477 21.073C243.551 21.379 243.664 21.6475 243.813 21.8787C243.963 22.1098 244.154 22.2921 244.385 22.4255C244.616 22.5557 244.889 22.6208 245.205 22.6208C245.605 22.6208 245.924 22.5574 246.162 22.4304C246.4 22.3035 246.579 22.1212 246.699 21.8835C246.823 21.6459 246.911 21.3611 246.963 21.0291ZM253.252 16.1804H254.189V20.99C254.189 21.5238 254.071 21.9682 253.833 22.323C253.595 22.6778 253.28 22.9447 252.886 23.1238C252.495 23.2996 252.07 23.3875 251.611 23.3875C251.13 23.3875 250.693 23.2996 250.303 23.1238C249.915 22.9447 249.608 22.6778 249.38 22.323C249.155 21.9682 249.043 21.5238 249.043 20.99V16.1804H249.976V20.99C249.976 21.3611 250.044 21.6671 250.181 21.908C250.317 22.1488 250.508 22.3279 250.752 22.4451C250.999 22.5623 251.286 22.6208 251.611 22.6208C251.94 22.6208 252.227 22.5623 252.471 22.4451C252.718 22.3279 252.91 22.1488 253.047 21.908C253.184 21.6671 253.252 21.3611 253.252 20.99V16.1804ZM261.138 16.1804V23.2898H260.19L256.611 17.8064V23.2898H255.669V16.1804H256.611L260.205 21.6785V16.1804H261.138ZM266.597 21.4929C266.597 21.3269 266.571 21.1804 266.519 21.0535C266.47 20.9233 266.382 20.8061 266.255 20.7019C266.131 20.5977 265.959 20.4985 265.737 20.4041C265.519 20.3097 265.243 20.2136 264.907 20.116C264.556 20.0118 264.238 19.8962 263.955 19.7693C263.672 19.6391 263.429 19.491 263.228 19.325C263.026 19.1589 262.871 18.9685 262.764 18.7537C262.656 18.5388 262.603 18.2931 262.603 18.0164C262.603 17.7397 262.66 17.4841 262.773 17.2498C262.887 17.0154 263.05 16.8119 263.262 16.6394C263.477 16.4636 263.732 16.3269 264.028 16.2292C264.325 16.1316 264.655 16.0828 265.02 16.0828C265.553 16.0828 266.006 16.1853 266.377 16.3904C266.751 16.5922 267.036 16.8575 267.231 17.1863C267.427 17.5118 267.524 17.8601 267.524 18.2312H266.587C266.587 17.9643 266.53 17.7283 266.416 17.5232C266.302 17.3149 266.13 17.1521 265.898 17.0349C265.667 16.9145 265.374 16.8542 265.02 16.8542C264.684 16.8542 264.408 16.9047 264.189 17.0056C263.971 17.1065 263.809 17.2432 263.701 17.4158C263.597 17.5883 263.545 17.7852 263.545 18.0066C263.545 18.1563 263.576 18.2931 263.638 18.4167C263.703 18.5372 263.802 18.6495 263.936 18.7537C264.072 18.8578 264.245 18.9539 264.453 19.0417C264.665 19.1296 264.917 19.2143 265.21 19.2957C265.614 19.4096 265.962 19.5365 266.255 19.6765C266.548 19.8165 266.789 19.9744 266.978 20.1501C267.17 20.3227 267.311 20.5196 267.402 20.741C267.497 20.9591 267.544 21.2065 267.544 21.4832C267.544 21.7729 267.485 22.0349 267.368 22.2693C267.251 22.5037 267.083 22.7039 266.865 22.8699C266.647 23.0359 266.385 23.1645 266.079 23.2556C265.776 23.3435 265.438 23.3875 265.063 23.3875C264.735 23.3875 264.411 23.3419 264.092 23.2507C263.776 23.1596 263.488 23.0229 263.228 22.8406C262.97 22.6583 262.764 22.4337 262.607 22.1667C262.454 21.8966 262.378 21.5841 262.378 21.2292H263.315C263.315 21.4734 263.363 21.6833 263.457 21.8591C263.551 22.0317 263.68 22.1749 263.843 22.2888C264.009 22.4028 264.196 22.4874 264.404 22.5427C264.616 22.5948 264.836 22.6208 265.063 22.6208C265.392 22.6208 265.671 22.5753 265.898 22.4841C266.126 22.393 266.299 22.2628 266.416 22.0935C266.536 21.9242 266.597 21.724 266.597 21.4929ZM270.488 19.8962V20.6384H268.105V19.8962H270.488ZM274.243 16.1414V23.2898H273.34V17.2693L271.519 17.9333V17.1179L274.102 16.1414H274.243ZM281.362 19.1687V20.2527C281.362 20.8354 281.31 21.3269 281.206 21.7273C281.102 22.1277 280.952 22.45 280.757 22.6941C280.562 22.9382 280.326 23.1156 280.049 23.2263C279.775 23.3337 279.466 23.3875 279.121 23.3875C278.848 23.3875 278.595 23.3533 278.364 23.2849C278.133 23.2166 277.925 23.1075 277.739 22.9578C277.557 22.8048 277.401 22.6062 277.271 22.3621C277.14 22.1179 277.041 21.8217 276.973 21.4734C276.904 21.1251 276.87 20.7182 276.87 20.2527V19.1687C276.87 18.586 276.922 18.0977 277.026 17.7039C277.134 17.31 277.285 16.9942 277.48 16.7566C277.676 16.5157 277.91 16.3432 278.184 16.239C278.46 16.1348 278.77 16.0828 279.111 16.0828C279.388 16.0828 279.642 16.1169 279.873 16.1853C280.107 16.2504 280.316 16.3562 280.498 16.5027C280.68 16.6459 280.835 16.838 280.962 17.0789C281.092 17.3165 281.191 17.6078 281.26 17.9529C281.328 18.2979 281.362 18.7032 281.362 19.1687ZM280.454 20.3992V19.0173C280.454 18.6983 280.435 18.4184 280.396 18.1775C280.36 17.9333 280.306 17.725 280.234 17.5525C280.163 17.38 280.072 17.24 279.961 17.1326C279.854 17.0251 279.728 16.947 279.585 16.8982C279.445 16.8461 279.287 16.8201 279.111 16.8201C278.896 16.8201 278.706 16.8608 278.54 16.9421C278.374 17.0203 278.234 17.1456 278.12 17.3181C278.009 17.4906 277.925 17.7169 277.866 17.9968C277.808 18.2768 277.778 18.6169 277.778 19.0173V20.3992C277.778 20.7182 277.796 20.9998 277.832 21.2439C277.871 21.488 277.928 21.6996 278.003 21.8787C278.078 22.0544 278.169 22.1993 278.276 22.3132C278.384 22.4272 278.507 22.5118 278.647 22.5671C278.791 22.6192 278.949 22.6453 279.121 22.6453C279.342 22.6453 279.536 22.6029 279.702 22.5183C279.868 22.4337 280.007 22.3018 280.117 22.1228C280.231 21.9405 280.316 21.7078 280.371 21.4246C280.426 21.1381 280.454 20.7963 280.454 20.3992Z" fill="#32375E"/>
</g>
<path d="M327 14.2898C327 10.9761 329.686 8.28979 333 8.28979H345C348.314 8.28979 351 10.9761 351 14.2898V26.2898C351 29.6035 348.314 32.2898 345 32.2898H333C329.686 32.2898 327 29.6035 327 26.2898V14.2898Z" fill="#F0F5F9"/>
<path d="M337.461 21.3523C337.461 21.2195 337.44 21.1023 337.398 21.0007C337.359 20.8966 337.289 20.8028 337.188 20.7195C337.089 20.6361 336.951 20.5567 336.773 20.4812C336.599 20.4057 336.378 20.3289 336.109 20.2507C335.828 20.1674 335.574 20.075 335.348 19.9734C335.121 19.8692 334.927 19.7507 334.766 19.6179C334.604 19.4851 334.48 19.3328 334.395 19.1609C334.309 18.989 334.266 18.7924 334.266 18.571C334.266 18.3497 334.311 18.1453 334.402 17.9578C334.493 17.7703 334.624 17.6075 334.793 17.4695C334.965 17.3289 335.169 17.2195 335.406 17.1414C335.643 17.0632 335.908 17.0242 336.199 17.0242C336.626 17.0242 336.988 17.1062 337.285 17.2703C337.585 17.4317 337.812 17.644 337.969 17.907C338.125 18.1674 338.203 18.446 338.203 18.7429H337.453C337.453 18.5294 337.408 18.3406 337.316 18.1765C337.225 18.0098 337.087 17.8796 336.902 17.7859C336.717 17.6895 336.483 17.6414 336.199 17.6414C335.931 17.6414 335.71 17.6817 335.535 17.7625C335.361 17.8432 335.23 17.9526 335.145 18.0906C335.061 18.2286 335.02 18.3861 335.02 18.5632C335.02 18.683 335.044 18.7924 335.094 18.8914C335.146 18.9877 335.225 19.0776 335.332 19.1609C335.441 19.2442 335.579 19.321 335.746 19.3914C335.915 19.4617 336.117 19.5294 336.352 19.5945C336.674 19.6856 336.953 19.7872 337.188 19.8992C337.422 20.0111 337.615 20.1375 337.766 20.2781C337.919 20.4161 338.033 20.5736 338.105 20.7507C338.181 20.9252 338.219 21.1231 338.219 21.3445C338.219 21.5763 338.172 21.7859 338.078 21.9734C337.984 22.1609 337.85 22.321 337.676 22.4539C337.501 22.5867 337.292 22.6895 337.047 22.7625C336.805 22.8328 336.534 22.8679 336.234 22.8679C335.971 22.8679 335.712 22.8315 335.457 22.7585C335.204 22.6856 334.974 22.5763 334.766 22.4304C334.56 22.2846 334.395 22.1049 334.27 21.8914C334.147 21.6752 334.086 21.4252 334.086 21.1414H334.836C334.836 21.3367 334.874 21.5046 334.949 21.6453C335.025 21.7833 335.128 21.8979 335.258 21.989C335.391 22.0802 335.54 22.1479 335.707 22.1921C335.876 22.2338 336.052 22.2546 336.234 22.2546C336.497 22.2546 336.72 22.2182 336.902 22.1453C337.085 22.0723 337.223 21.9682 337.316 21.8328C337.413 21.6973 337.461 21.5372 337.461 21.3523ZM342.895 19.5476V20.1609H339.816V19.5476H342.895ZM339.934 17.1023V22.7898H339.18V17.1023H339.934ZM343.551 17.1023V22.7898H342.801V17.1023H343.551Z" fill="#32375E"/>
<path d="M362.457 16.8103L360.104 23.2898H359.142L361.852 16.1804H362.472L362.457 16.8103ZM364.43 23.2898L362.071 16.8103L362.057 16.1804H362.677L365.396 23.2898H364.43ZM364.308 20.658V21.4294H360.313V20.658H364.308ZM367.193 15.7898V23.2898H366.285V15.7898H367.193ZM369.991 23.2898H369.088V17.45C369.088 17.0691 369.156 16.7485 369.293 16.488C369.433 16.2244 369.633 16.0258 369.894 15.8923C370.154 15.7556 370.463 15.6873 370.821 15.6873C370.925 15.6873 371.03 15.6938 371.134 15.7068C371.241 15.7198 371.345 15.7393 371.446 15.7654L371.397 16.5027C371.329 16.4864 371.251 16.475 371.163 16.4685C371.078 16.462 370.994 16.4587 370.909 16.4587C370.717 16.4587 370.551 16.4978 370.411 16.5759C370.274 16.6508 370.17 16.7615 370.099 16.908C370.027 17.0544 369.991 17.2351 369.991 17.45V23.2898ZM371.114 18.0066V18.7H368.253V18.0066H371.114ZM373.023 18.8367V23.2898H372.12V18.0066H372.999L373.023 18.8367ZM374.674 17.9773L374.669 18.8171C374.594 18.8009 374.522 18.7911 374.454 18.7878C374.389 18.7813 374.314 18.7781 374.229 18.7781C374.021 18.7781 373.837 18.8106 373.678 18.8757C373.518 18.9408 373.383 19.032 373.272 19.1492C373.162 19.2664 373.074 19.4063 373.009 19.5691C372.947 19.7286 372.906 19.9044 372.887 20.0964L372.633 20.2429C372.633 19.9239 372.664 19.6244 372.726 19.3445C372.791 19.0645 372.89 18.8171 373.023 18.6023C373.157 18.3842 373.326 18.2149 373.531 18.0945C373.74 17.9708 373.987 17.9089 374.273 17.9089C374.339 17.9089 374.413 17.9171 374.498 17.9333C374.583 17.9464 374.641 17.961 374.674 17.9773ZM377.604 23.3875C377.236 23.3875 376.902 23.3256 376.603 23.2019C376.306 23.075 376.051 22.8975 375.836 22.6697C375.624 22.4418 375.462 22.1716 375.348 21.8591C375.234 21.5466 375.177 21.2048 375.177 20.8337V20.6287C375.177 20.199 375.24 19.8165 375.367 19.4812C375.494 19.1427 375.667 18.8562 375.885 18.6218C376.103 18.3875 376.35 18.21 376.627 18.0896C376.904 17.9692 377.19 17.9089 377.486 17.9089C377.864 17.9089 378.189 17.974 378.463 18.1042C378.74 18.2345 378.966 18.4167 379.142 18.6511C379.317 18.8822 379.448 19.1557 379.532 19.4714C379.617 19.7839 379.659 20.1257 379.659 20.4968V20.9021H375.714V20.1648H378.756V20.0964C378.743 19.8621 378.694 19.6342 378.609 19.4128C378.528 19.1915 378.398 19.0092 378.219 18.866C378.04 18.7227 377.796 18.6511 377.486 18.6511C377.281 18.6511 377.092 18.6951 376.92 18.783C376.747 18.8676 376.599 18.9945 376.476 19.1638C376.352 19.3331 376.256 19.5398 376.188 19.7839C376.119 20.0281 376.085 20.3097 376.085 20.6287V20.8337C376.085 21.0844 376.119 21.3204 376.188 21.5417C376.259 21.7598 376.362 21.9519 376.495 22.1179C376.632 22.2839 376.796 22.4141 376.988 22.5085C377.184 22.6029 377.405 22.6501 377.652 22.6501C377.971 22.6501 378.242 22.585 378.463 22.4548C378.684 22.3246 378.878 22.1505 379.044 21.9324L379.591 22.3669C379.477 22.5395 379.332 22.7039 379.156 22.8601C378.98 23.0164 378.764 23.1433 378.507 23.241C378.253 23.3386 377.952 23.3875 377.604 23.3875ZM384.044 22.2644V15.7898H384.952V23.2898H384.122L384.044 22.2644ZM380.489 20.7068V20.6042C380.489 20.2006 380.538 19.8344 380.636 19.5056C380.737 19.1736 380.878 18.8888 381.061 18.6511C381.246 18.4135 381.466 18.2312 381.72 18.1042C381.977 17.974 382.263 17.9089 382.579 17.9089C382.911 17.9089 383.201 17.9675 383.448 18.0847C383.699 18.1986 383.91 18.3663 384.083 18.5876C384.259 18.8057 384.397 19.0694 384.498 19.3787C384.599 19.6879 384.669 20.0378 384.708 20.4285V20.8777C384.672 21.2651 384.602 21.6134 384.498 21.9226C384.397 22.2319 384.259 22.4955 384.083 22.7136C383.91 22.9317 383.699 23.0994 383.448 23.2166C383.198 23.3305 382.905 23.3875 382.569 23.3875C382.26 23.3875 381.977 23.3207 381.72 23.1873C381.466 23.0538 381.246 22.8666 381.061 22.6257C380.878 22.3848 380.737 22.1016 380.636 21.7761C380.538 21.4473 380.489 21.0909 380.489 20.7068ZM381.397 20.6042V20.7068C381.397 20.9705 381.424 21.2179 381.476 21.449C381.531 21.6801 381.616 21.8835 381.729 22.0593C381.843 22.2351 381.988 22.3735 382.164 22.4744C382.34 22.572 382.55 22.6208 382.794 22.6208C383.093 22.6208 383.339 22.5574 383.531 22.4304C383.727 22.3035 383.883 22.1358 384 21.9275C384.117 21.7192 384.208 21.4929 384.273 21.2488V20.072C384.234 19.893 384.177 19.7205 384.103 19.5544C384.031 19.3852 383.937 19.2354 383.819 19.1052C383.705 18.9718 383.564 18.866 383.395 18.7878C383.229 18.7097 383.032 18.6707 382.804 18.6707C382.556 18.6707 382.343 18.7227 382.164 18.8269C381.988 18.9278 381.843 19.0678 381.729 19.2468C381.616 19.4226 381.531 19.6277 381.476 19.8621C381.424 20.0932 381.397 20.3406 381.397 20.6042ZM391.598 20.5017H389.698V19.7351H391.598C391.965 19.7351 392.263 19.6765 392.491 19.5593C392.719 19.4421 392.885 19.2794 392.989 19.071C393.097 18.8627 393.15 18.6251 393.15 18.3582C393.15 18.114 393.097 17.8845 392.989 17.6697C392.885 17.4548 392.719 17.2823 392.491 17.1521C392.263 17.0186 391.965 16.9519 391.598 16.9519H389.918V23.2898H388.976V16.1804H391.598C392.135 16.1804 392.589 16.2732 392.96 16.4587C393.331 16.6443 393.613 16.9014 393.805 17.2302C393.997 17.5557 394.093 17.9285 394.093 18.3484C394.093 18.8041 393.997 19.1931 393.805 19.5154C393.613 19.8376 393.331 20.0834 392.96 20.2527C392.589 20.4187 392.135 20.5017 391.598 20.5017ZM398.204 22.3865V19.6667C398.204 19.4584 398.162 19.2778 398.077 19.1248C397.996 18.9685 397.872 18.8481 397.706 18.7634C397.54 18.6788 397.335 18.6365 397.091 18.6365C396.863 18.6365 396.663 18.6755 396.49 18.7537C396.321 18.8318 396.188 18.9343 396.09 19.0613C395.995 19.1882 395.948 19.325 395.948 19.4714H395.045C395.045 19.2826 395.094 19.0955 395.191 18.9099C395.289 18.7244 395.429 18.5567 395.611 18.407C395.797 18.254 396.018 18.1335 396.275 18.0457C396.536 17.9545 396.826 17.9089 397.145 17.9089C397.529 17.9089 397.867 17.974 398.16 18.1042C398.456 18.2345 398.688 18.4314 398.854 18.6951C399.023 18.9555 399.107 19.2826 399.107 19.6765V22.1375C399.107 22.3132 399.122 22.5004 399.151 22.699C399.184 22.8975 399.231 23.0684 399.293 23.2117V23.2898H398.351C398.305 23.1856 398.269 23.0473 398.243 22.8748C398.217 22.699 398.204 22.5362 398.204 22.3865ZM398.36 20.0867L398.37 20.7214H397.457C397.2 20.7214 396.97 20.7426 396.769 20.7849C396.567 20.824 396.397 20.8842 396.261 20.9656C396.124 21.047 396.02 21.1495 395.948 21.2732C395.877 21.3936 395.841 21.5352 395.841 21.698C395.841 21.864 395.878 22.0154 395.953 22.1521C396.028 22.2888 396.14 22.3979 396.29 22.4792C396.443 22.5574 396.63 22.5964 396.852 22.5964C397.128 22.5964 397.372 22.5378 397.584 22.4207C397.796 22.3035 397.963 22.1602 398.087 21.991C398.214 21.8217 398.282 21.6573 398.292 21.4978L398.678 21.9324C398.655 22.0691 398.593 22.2205 398.492 22.3865C398.391 22.5525 398.256 22.712 398.087 22.865C397.921 23.0147 397.722 23.1401 397.491 23.241C397.263 23.3386 397.006 23.3875 396.72 23.3875C396.362 23.3875 396.048 23.3175 395.777 23.1775C395.51 23.0375 395.302 22.8503 395.152 22.616C395.006 22.3783 394.933 22.113 394.933 21.8201C394.933 21.5369 394.988 21.2878 395.099 21.073C395.209 20.8549 395.369 20.6742 395.577 20.531C395.785 20.3845 396.036 20.2738 396.329 20.199C396.622 20.1241 396.949 20.0867 397.311 20.0867H398.36ZM401.51 15.7898V23.2898H400.602V15.7898H401.51ZM403.858 19.0564V23.2898H402.95V18.0066H403.81L403.858 19.0564ZM403.673 20.448L403.253 20.4333C403.256 20.072 403.303 19.7384 403.395 19.4324C403.486 19.1231 403.621 18.8546 403.8 18.6267C403.979 18.3988 404.202 18.2231 404.469 18.0994C404.736 17.9724 405.045 17.9089 405.396 17.9089C405.644 17.9089 405.872 17.9447 406.08 18.0164C406.288 18.0847 406.469 18.1938 406.622 18.3435C406.775 18.4932 406.894 18.6853 406.979 18.9197C407.063 19.1541 407.105 19.4373 407.105 19.7693V23.2898H406.202V19.8132C406.202 19.5365 406.155 19.3152 406.061 19.1492C405.969 18.9832 405.839 18.8627 405.67 18.7878C405.501 18.7097 405.302 18.6707 405.074 18.6707C404.807 18.6707 404.584 18.7179 404.405 18.8123C404.226 18.9067 404.083 19.0369 403.976 19.2029C403.868 19.3689 403.79 19.5593 403.741 19.7742C403.696 19.9858 403.673 20.2104 403.673 20.448ZM407.096 19.95L406.49 20.1355C406.493 19.8458 406.541 19.5675 406.632 19.3005C406.726 19.0336 406.861 18.796 407.037 18.5876C407.216 18.3793 407.436 18.2149 407.696 18.0945C407.957 17.9708 408.255 17.9089 408.59 17.9089C408.873 17.9089 409.124 17.9464 409.342 18.0212C409.563 18.0961 409.749 18.2117 409.898 18.3679C410.051 18.5209 410.167 18.7179 410.245 18.9587C410.323 19.1996 410.362 19.4861 410.362 19.8181V23.2898H409.454V19.8083C409.454 19.5121 409.407 19.2826 409.312 19.1199C409.221 18.9539 409.091 18.8383 408.922 18.7732C408.756 18.7048 408.557 18.6707 408.326 18.6707C408.128 18.6707 407.952 18.7048 407.799 18.7732C407.646 18.8416 407.517 18.936 407.413 19.0564C407.309 19.1736 407.229 19.3087 407.174 19.4617C407.122 19.6147 407.096 19.7774 407.096 19.95ZM413.922 23.3875C413.554 23.3875 413.22 23.3256 412.921 23.2019C412.625 23.075 412.369 22.8975 412.154 22.6697C411.943 22.4418 411.78 22.1716 411.666 21.8591C411.552 21.5466 411.495 21.2048 411.495 20.8337V20.6287C411.495 20.199 411.559 19.8165 411.686 19.4812C411.812 19.1427 411.985 18.8562 412.203 18.6218C412.421 18.3875 412.669 18.21 412.945 18.0896C413.222 17.9692 413.508 17.9089 413.805 17.9089C414.182 17.9089 414.508 17.974 414.781 18.1042C415.058 18.2345 415.284 18.4167 415.46 18.6511C415.636 18.8822 415.766 19.1557 415.851 19.4714C415.935 19.7839 415.978 20.1257 415.978 20.4968V20.9021H412.032V20.1648H415.074V20.0964C415.061 19.8621 415.012 19.6342 414.928 19.4128C414.846 19.1915 414.716 19.0092 414.537 18.866C414.358 18.7227 414.114 18.6511 413.805 18.6511C413.6 18.6511 413.411 18.6951 413.238 18.783C413.066 18.8676 412.918 18.9945 412.794 19.1638C412.67 19.3331 412.574 19.5398 412.506 19.7839C412.438 20.0281 412.403 20.3097 412.403 20.6287V20.8337C412.403 21.0844 412.438 21.3204 412.506 21.5417C412.577 21.7598 412.68 21.9519 412.813 22.1179C412.95 22.2839 413.115 22.4141 413.307 22.5085C413.502 22.6029 413.723 22.6501 413.971 22.6501C414.29 22.6501 414.56 22.585 414.781 22.4548C415.003 22.3246 415.196 22.1505 415.362 21.9324L415.909 22.3669C415.795 22.5395 415.65 22.7039 415.475 22.8601C415.299 23.0164 415.082 23.1433 414.825 23.241C414.571 23.3386 414.27 23.3875 413.922 23.3875ZM417.936 18.8367V23.2898H417.032V18.0066H417.911L417.936 18.8367ZM419.586 17.9773L419.581 18.8171C419.506 18.8009 419.435 18.7911 419.366 18.7878C419.301 18.7813 419.226 18.7781 419.142 18.7781C418.933 18.7781 418.749 18.8106 418.59 18.8757C418.43 18.9408 418.295 19.032 418.185 19.1492C418.074 19.2664 417.986 19.4063 417.921 19.5691C417.859 19.7286 417.818 19.9044 417.799 20.0964L417.545 20.2429C417.545 19.9239 417.576 19.6244 417.638 19.3445C417.703 19.0645 417.802 18.8171 417.936 18.6023C418.069 18.3842 418.238 18.2149 418.443 18.0945C418.652 17.9708 418.899 17.9089 419.186 17.9089C419.251 17.9089 419.326 17.9171 419.41 17.9333C419.495 17.9464 419.553 17.961 419.586 17.9773Z" fill="#32375E"/>
<g opacity="0.9">
<path d="M512.123 16.1804H513.036L515.365 21.9763L517.689 16.1804H518.607L515.717 23.2898H515.004L512.123 16.1804ZM511.825 16.1804H512.631L512.763 20.5164V23.2898H511.825V16.1804ZM518.095 16.1804H518.9V23.2898H517.963V20.5164L518.095 16.1804ZM522.611 23.3875C522.243 23.3875 521.91 23.3256 521.61 23.2019C521.314 23.075 521.059 22.8975 520.844 22.6697C520.632 22.4418 520.469 22.1716 520.355 21.8591C520.242 21.5466 520.185 21.2048 520.185 20.8337V20.6287C520.185 20.199 520.248 19.8165 520.375 19.4812C520.502 19.1427 520.674 18.8562 520.893 18.6218C521.111 18.3875 521.358 18.21 521.635 18.0896C521.911 17.9692 522.198 17.9089 522.494 17.9089C522.872 17.9089 523.197 17.974 523.471 18.1042C523.747 18.2345 523.974 18.4167 524.149 18.6511C524.325 18.8822 524.455 19.1557 524.54 19.4714C524.625 19.7839 524.667 20.1257 524.667 20.4968V20.9021H520.722V20.1648H523.764V20.0964C523.751 19.8621 523.702 19.6342 523.617 19.4128C523.536 19.1915 523.406 19.0092 523.227 18.866C523.048 18.7227 522.803 18.6511 522.494 18.6511C522.289 18.6511 522.1 18.6951 521.928 18.783C521.755 18.8676 521.607 18.9945 521.483 19.1638C521.36 19.3331 521.264 19.5398 521.195 19.7839C521.127 20.0281 521.093 20.3097 521.093 20.6287V20.8337C521.093 21.0844 521.127 21.3204 521.195 21.5417C521.267 21.7598 521.369 21.9519 521.503 22.1179C521.64 22.2839 521.804 22.4141 521.996 22.5085C522.191 22.6029 522.413 22.6501 522.66 22.6501C522.979 22.6501 523.249 22.585 523.471 22.4548C523.692 22.3246 523.886 22.1505 524.052 21.9324L524.599 22.3669C524.485 22.5395 524.34 22.7039 524.164 22.8601C523.988 23.0164 523.772 23.1433 523.515 23.241C523.261 23.3386 522.96 23.3875 522.611 23.3875ZM527.934 18.0066V18.7H525.077V18.0066H527.934ZM526.044 16.7224H526.947V21.9812C526.947 22.1602 526.975 22.2953 527.03 22.3865C527.086 22.4776 527.157 22.5378 527.245 22.5671C527.333 22.5964 527.427 22.6111 527.528 22.6111C527.603 22.6111 527.681 22.6046 527.763 22.5916C527.847 22.5753 527.911 22.5623 527.953 22.5525L527.958 23.2898C527.886 23.3126 527.792 23.3337 527.675 23.3533C527.561 23.3761 527.423 23.3875 527.26 23.3875C527.038 23.3875 526.835 23.3435 526.649 23.2556C526.464 23.1677 526.316 23.0212 526.205 22.8162C526.098 22.6078 526.044 22.3279 526.044 21.9763V16.7224ZM531.186 23.3875C530.818 23.3875 530.484 23.3256 530.185 23.2019C529.888 23.075 529.633 22.8975 529.418 22.6697C529.206 22.4418 529.044 22.1716 528.93 21.8591C528.816 21.5466 528.759 21.2048 528.759 20.8337V20.6287C528.759 20.199 528.822 19.8165 528.949 19.4812C529.076 19.1427 529.249 18.8562 529.467 18.6218C529.685 18.3875 529.932 18.21 530.209 18.0896C530.486 17.9692 530.772 17.9089 531.068 17.9089C531.446 17.9089 531.771 17.974 532.045 18.1042C532.322 18.2345 532.548 18.4167 532.724 18.6511C532.899 18.8822 533.03 19.1557 533.114 19.4714C533.199 19.7839 533.241 20.1257 533.241 20.4968V20.9021H529.296V20.1648H532.338V20.0964C532.325 19.8621 532.276 19.6342 532.191 19.4128C532.11 19.1915 531.98 19.0092 531.801 18.866C531.622 18.7227 531.378 18.6511 531.068 18.6511C530.863 18.6511 530.674 18.6951 530.502 18.783C530.329 18.8676 530.181 18.9945 530.058 19.1638C529.934 19.3331 529.838 19.5398 529.77 19.7839C529.701 20.0281 529.667 20.3097 529.667 20.6287V20.8337C529.667 21.0844 529.701 21.3204 529.77 21.5417C529.841 21.7598 529.944 21.9519 530.077 22.1179C530.214 22.2839 530.378 22.4141 530.57 22.5085C530.766 22.6029 530.987 22.6501 531.234 22.6501C531.553 22.6501 531.824 22.585 532.045 22.4548C532.266 22.3246 532.46 22.1505 532.626 21.9324L533.173 22.3669C533.059 22.5395 532.914 22.7039 532.738 22.8601C532.562 23.0164 532.346 23.1433 532.089 23.241C531.835 23.3386 531.534 23.3875 531.186 23.3875ZM535.199 18.8367V23.2898H534.296V18.0066H535.175L535.199 18.8367ZM536.85 17.9773L536.845 18.8171C536.77 18.8009 536.698 18.7911 536.63 18.7878C536.565 18.7813 536.49 18.7781 536.405 18.7781C536.197 18.7781 536.013 18.8106 535.854 18.8757C535.694 18.9408 535.559 19.032 535.448 19.1492C535.338 19.2664 535.25 19.4063 535.185 19.5691C535.123 19.7286 535.082 19.9044 535.062 20.0964L534.809 20.2429C534.809 19.9239 534.84 19.6244 534.901 19.3445C534.966 19.0645 535.066 18.8171 535.199 18.6023C535.333 18.3842 535.502 18.2149 535.707 18.0945C535.915 17.9708 536.163 17.9089 536.449 17.9089C536.514 17.9089 536.589 17.9171 536.674 17.9333C536.758 17.9464 536.817 17.961 536.85 17.9773ZM539.779 23.3875C539.411 23.3875 539.078 23.3256 538.778 23.2019C538.482 23.075 538.227 22.8975 538.012 22.6697C537.8 22.4418 537.637 22.1716 537.523 21.8591C537.41 21.5466 537.353 21.2048 537.353 20.8337V20.6287C537.353 20.199 537.416 19.8165 537.543 19.4812C537.67 19.1427 537.842 18.8562 538.061 18.6218C538.279 18.3875 538.526 18.21 538.803 18.0896C539.079 17.9692 539.366 17.9089 539.662 17.9089C540.04 17.9089 540.365 17.974 540.639 18.1042C540.915 18.2345 541.142 18.4167 541.317 18.6511C541.493 18.8822 541.623 19.1557 541.708 19.4714C541.793 19.7839 541.835 20.1257 541.835 20.4968V20.9021H537.89V20.1648H540.932V20.0964C540.919 19.8621 540.87 19.6342 540.785 19.4128C540.704 19.1915 540.574 19.0092 540.395 18.866C540.215 18.7227 539.971 18.6511 539.662 18.6511C539.457 18.6511 539.268 18.6951 539.096 18.783C538.923 18.8676 538.775 18.9945 538.651 19.1638C538.528 19.3331 538.432 19.5398 538.363 19.7839C538.295 20.0281 538.261 20.3097 538.261 20.6287V20.8337C538.261 21.0844 538.295 21.3204 538.363 21.5417C538.435 21.7598 538.537 21.9519 538.671 22.1179C538.808 22.2839 538.972 22.4141 539.164 22.5085C539.359 22.6029 539.581 22.6501 539.828 22.6501C540.147 22.6501 540.417 22.585 540.639 22.4548C540.86 22.3246 541.054 22.1505 541.22 21.9324L541.767 22.3669C541.653 22.5395 541.508 22.7039 541.332 22.8601C541.156 23.0164 540.94 23.1433 540.683 23.241C540.429 23.3386 540.128 23.3875 539.779 23.3875ZM546.22 22.2644V15.7898H547.128V23.2898H546.298L546.22 22.2644ZM542.665 20.7068V20.6042C542.665 20.2006 542.714 19.8344 542.812 19.5056C542.912 19.1736 543.054 18.8888 543.236 18.6511C543.422 18.4135 543.642 18.2312 543.896 18.1042C544.153 17.974 544.439 17.9089 544.755 17.9089C545.087 17.9089 545.377 17.9675 545.624 18.0847C545.875 18.1986 546.086 18.3663 546.259 18.5876C546.435 18.8057 546.573 19.0694 546.674 19.3787C546.775 19.6879 546.845 20.0378 546.884 20.4285V20.8777C546.848 21.2651 546.778 21.6134 546.674 21.9226C546.573 22.2319 546.435 22.4955 546.259 22.7136C546.086 22.9317 545.875 23.0994 545.624 23.2166C545.373 23.3305 545.08 23.3875 544.745 23.3875C544.436 23.3875 544.153 23.3207 543.896 23.1873C543.642 23.0538 543.422 22.8666 543.236 22.6257C543.054 22.3848 542.912 22.1016 542.812 21.7761C542.714 21.4473 542.665 21.0909 542.665 20.7068ZM543.573 20.6042V20.7068C543.573 20.9705 543.599 21.2179 543.651 21.449C543.707 21.6801 543.791 21.8835 543.905 22.0593C544.019 22.2351 544.164 22.3735 544.34 22.4744C544.516 22.572 544.726 22.6208 544.97 22.6208C545.269 22.6208 545.515 22.5574 545.707 22.4304C545.902 22.3035 546.059 22.1358 546.176 21.9275C546.293 21.7192 546.384 21.4929 546.449 21.2488V20.072C546.41 19.893 546.353 19.7205 546.278 19.5544C546.207 19.3852 546.112 19.2354 545.995 19.1052C545.881 18.9718 545.74 18.866 545.57 18.7878C545.404 18.7097 545.207 18.6707 544.979 18.6707C544.732 18.6707 544.519 18.7227 544.34 18.8269C544.164 18.9278 544.019 19.0678 543.905 19.2468C543.791 19.4226 543.707 19.6277 543.651 19.8621C543.599 20.0932 543.573 20.3406 543.573 20.6042Z" fill="#32375E"/>
</g>
<g opacity="0.9">
<path d="M684.249 22.5476V23.2898H679.596V22.6404L681.925 20.0476C682.211 19.7286 682.433 19.4584 682.589 19.2371C682.748 19.0125 682.859 18.8123 682.921 18.6365C682.986 18.4574 683.019 18.2751 683.019 18.0896C683.019 17.8552 682.97 17.6436 682.872 17.4548C682.778 17.2628 682.638 17.1098 682.452 16.9958C682.267 16.8819 682.042 16.825 681.778 16.825C681.463 16.825 681.199 16.8868 680.987 17.0105C680.779 17.1309 680.623 17.3002 680.519 17.5183C680.414 17.7364 680.362 17.9871 680.362 18.2703H679.459C679.459 17.8699 679.547 17.5037 679.723 17.1716C679.898 16.8396 680.159 16.5759 680.504 16.3806C680.849 16.182 681.274 16.0828 681.778 16.0828C682.228 16.0828 682.612 16.1625 682.931 16.322C683.25 16.4783 683.494 16.6996 683.663 16.9861C683.836 17.2693 683.922 17.6013 683.922 17.9822C683.922 18.1905 683.886 18.4021 683.814 18.6169C683.746 18.8285 683.65 19.0401 683.526 19.2517C683.406 19.4633 683.264 19.6716 683.102 19.8767C682.942 20.0818 682.771 20.2836 682.589 20.4822L680.685 22.5476H684.249ZM689.811 16.1804V16.6882L686.866 23.2898H685.914L688.854 16.9226H685.006V16.1804H689.811ZM690.953 22.8113C690.953 22.6583 691 22.5297 691.095 22.4255C691.192 22.3181 691.332 22.2644 691.515 22.2644C691.697 22.2644 691.835 22.3181 691.93 22.4255C692.027 22.5297 692.076 22.6583 692.076 22.8113C692.076 22.961 692.027 23.088 691.93 23.1921C691.835 23.2963 691.697 23.3484 691.515 23.3484C691.332 23.3484 691.192 23.2963 691.095 23.1921C691 23.088 690.953 22.961 690.953 22.8113ZM694.62 19.906L693.897 19.7205L694.254 16.1804H697.901V17.0154H695.021L694.806 18.949C694.936 18.8741 695.1 18.8041 695.299 18.739C695.501 18.6739 695.732 18.6414 695.992 18.6414C696.321 18.6414 696.616 18.6983 696.876 18.8123C697.136 18.9229 697.358 19.0824 697.54 19.2908C697.726 19.4991 697.867 19.7498 697.965 20.0427C698.062 20.3357 698.111 20.6628 698.111 21.0242C698.111 21.366 698.064 21.6801 697.97 21.9666C697.879 22.253 697.74 22.5037 697.555 22.7185C697.369 22.9301 697.135 23.0945 696.852 23.2117C696.572 23.3289 696.241 23.3875 695.86 23.3875C695.574 23.3875 695.302 23.3484 695.045 23.2703C694.791 23.1889 694.563 23.0668 694.361 22.9041C694.163 22.738 694 22.533 693.873 22.2888C693.749 22.0414 693.671 21.7517 693.639 21.4197H694.498C694.537 21.6866 694.615 21.9112 694.732 22.0935C694.85 22.2758 695.003 22.4141 695.191 22.5085C695.383 22.5997 695.606 22.6453 695.86 22.6453C696.075 22.6453 696.266 22.6078 696.432 22.533C696.598 22.4581 696.738 22.3507 696.852 22.2107C696.965 22.0707 697.052 21.9014 697.11 21.7029C697.172 21.5043 697.203 21.2813 697.203 21.0339C697.203 20.8093 697.172 20.601 697.11 20.4089C697.049 20.2169 696.956 20.0492 696.832 19.906C696.712 19.7628 696.563 19.6521 696.388 19.574C696.212 19.4926 696.01 19.4519 695.782 19.4519C695.479 19.4519 695.25 19.4926 695.094 19.574C694.941 19.6554 694.783 19.766 694.62 19.906ZM703.565 19.1687V20.2527C703.565 20.8354 703.513 21.3269 703.409 21.7273C703.305 22.1277 703.155 22.45 702.96 22.6941C702.765 22.9382 702.529 23.1156 702.252 23.2263C701.979 23.3337 701.669 23.3875 701.324 23.3875C701.051 23.3875 700.799 23.3533 700.567 23.2849C700.336 23.2166 700.128 23.1075 699.942 22.9578C699.76 22.8048 699.604 22.6062 699.474 22.3621C699.343 22.1179 699.244 21.8217 699.176 21.4734C699.107 21.1251 699.073 20.7182 699.073 20.2527V19.1687C699.073 18.586 699.125 18.0977 699.229 17.7039C699.337 17.31 699.488 16.9942 699.684 16.7566C699.879 16.5157 700.113 16.3432 700.387 16.239C700.663 16.1348 700.973 16.0828 701.314 16.0828C701.591 16.0828 701.845 16.1169 702.076 16.1853C702.311 16.2504 702.519 16.3562 702.701 16.5027C702.883 16.6459 703.038 16.838 703.165 17.0789C703.295 17.3165 703.395 17.6078 703.463 17.9529C703.531 18.2979 703.565 18.7032 703.565 19.1687ZM702.657 20.3992V19.0173C702.657 18.6983 702.638 18.4184 702.599 18.1775C702.563 17.9333 702.509 17.725 702.438 17.5525C702.366 17.38 702.275 17.24 702.164 17.1326C702.057 17.0251 701.931 16.947 701.788 16.8982C701.648 16.8461 701.49 16.8201 701.314 16.8201C701.1 16.8201 700.909 16.8608 700.743 16.9421C700.577 17.0203 700.437 17.1456 700.323 17.3181C700.213 17.4906 700.128 17.7169 700.069 17.9968C700.011 18.2768 699.981 18.6169 699.981 19.0173V20.3992C699.981 20.7182 699.999 20.9998 700.035 21.2439C700.074 21.488 700.131 21.6996 700.206 21.8787C700.281 22.0544 700.372 22.1993 700.479 22.3132C700.587 22.4272 700.711 22.5118 700.851 22.5671C700.994 22.6192 701.152 22.6453 701.324 22.6453C701.546 22.6453 701.739 22.6029 701.905 22.5183C702.071 22.4337 702.21 22.3018 702.32 22.1228C702.434 21.9405 702.519 21.7078 702.574 21.4246C702.63 21.1381 702.657 20.7963 702.657 20.3992Z" fill="#32375E"/>
</g>
<g opacity="0.9">
<path d="M725.893 16.1804H726.83V20.99C726.83 21.5238 726.711 21.9682 726.474 22.323C726.236 22.6778 725.92 22.9447 725.526 23.1238C725.136 23.2996 724.711 23.3875 724.252 23.3875C723.77 23.3875 723.334 23.2996 722.943 23.1238C722.556 22.9447 722.248 22.6778 722.021 22.323C721.796 21.9682 721.684 21.5238 721.684 20.99V16.1804H722.616V20.99C722.616 21.3611 722.685 21.6671 722.821 21.908C722.958 22.1488 723.148 22.3279 723.393 22.4451C723.64 22.5623 723.926 22.6208 724.252 22.6208C724.581 22.6208 724.867 22.5623 725.111 22.4451C725.359 22.3279 725.551 22.1488 725.688 21.908C725.824 21.6671 725.893 21.3611 725.893 20.99V16.1804ZM732.099 21.4929C732.099 21.3269 732.073 21.1804 732.021 21.0535C731.972 20.9233 731.884 20.8061 731.757 20.7019C731.633 20.5977 731.461 20.4985 731.239 20.4041C731.021 20.3097 730.744 20.2136 730.409 20.116C730.058 20.0118 729.74 19.8962 729.457 19.7693C729.174 19.6391 728.931 19.491 728.729 19.325C728.528 19.1589 728.373 18.9685 728.266 18.7537C728.158 18.5388 728.104 18.2931 728.104 18.0164C728.104 17.7397 728.161 17.4841 728.275 17.2498C728.389 17.0154 728.552 16.8119 728.764 16.6394C728.979 16.4636 729.234 16.3269 729.53 16.2292C729.826 16.1316 730.157 16.0828 730.521 16.0828C731.055 16.0828 731.508 16.1853 731.879 16.3904C732.253 16.5922 732.538 16.8575 732.733 17.1863C732.929 17.5118 733.026 17.8601 733.026 18.2312H732.089C732.089 17.9643 732.032 17.7283 731.918 17.5232C731.804 17.3149 731.632 17.1521 731.4 17.0349C731.169 16.9145 730.876 16.8542 730.521 16.8542C730.186 16.8542 729.91 16.9047 729.691 17.0056C729.473 17.1065 729.311 17.2432 729.203 17.4158C729.099 17.5883 729.047 17.7852 729.047 18.0066C729.047 18.1563 729.078 18.2931 729.14 18.4167C729.205 18.5372 729.304 18.6495 729.438 18.7537C729.574 18.8578 729.747 18.9539 729.955 19.0417C730.167 19.1296 730.419 19.2143 730.712 19.2957C731.116 19.4096 731.464 19.5365 731.757 19.6765C732.05 19.8165 732.291 19.9744 732.479 20.1501C732.672 20.3227 732.813 20.5196 732.904 20.741C732.999 20.9591 733.046 21.2065 733.046 21.4832C733.046 21.7729 732.987 22.0349 732.87 22.2693C732.753 22.5037 732.585 22.7039 732.367 22.8699C732.149 23.0359 731.887 23.1645 731.581 23.2556C731.278 23.3435 730.94 23.3875 730.565 23.3875C730.237 23.3875 729.913 23.3419 729.594 23.2507C729.278 23.1596 728.99 23.0229 728.729 22.8406C728.472 22.6583 728.266 22.4337 728.109 22.1667C727.956 21.8966 727.88 21.5841 727.88 21.2292H728.817C728.817 21.4734 728.865 21.6833 728.959 21.8591C729.053 22.0317 729.182 22.1749 729.345 22.2888C729.511 22.4028 729.698 22.4874 729.906 22.5427C730.118 22.5948 730.338 22.6208 730.565 22.6208C730.894 22.6208 731.173 22.5753 731.4 22.4841C731.628 22.393 731.801 22.2628 731.918 22.0935C732.038 21.9242 732.099 21.724 732.099 21.4929ZM736.171 23.2898H734.687L734.696 22.5232H736.171C736.679 22.5232 737.102 22.4174 737.44 22.2058C737.779 21.991 738.033 21.6915 738.202 21.3074C738.375 20.92 738.461 20.4675 738.461 19.95V19.5154C738.461 19.1085 738.412 18.7472 738.314 18.4314C738.217 18.1124 738.074 17.8438 737.885 17.6257C737.696 17.4044 737.465 17.2367 737.191 17.1228C736.921 17.0089 736.61 16.9519 736.259 16.9519H734.657V16.1804H736.259C736.724 16.1804 737.149 16.2585 737.533 16.4148C737.917 16.5678 738.248 16.7908 738.524 17.0837C738.804 17.3735 739.019 17.725 739.169 18.1384C739.319 18.5486 739.394 19.0108 739.394 19.5251V19.95C739.394 20.4643 739.319 20.9281 739.169 21.3416C739.019 21.7517 738.803 22.1016 738.52 22.3914C738.24 22.6811 737.901 22.9041 737.504 23.0603C737.11 23.2133 736.666 23.2898 736.171 23.2898ZM735.189 16.1804V23.2898H734.247V16.1804H735.189Z" fill="#32375E"/>
</g>
<g opacity="0.9">
<path d="M815.56 16.1414V23.2898H814.656V17.2693L812.835 17.9333V17.1179L815.418 16.1414H815.56ZM821.458 16.1804L818.494 23.9001H817.718L820.687 16.1804H821.458ZM824.324 19.8962V20.6384H821.941V19.8962H824.324ZM827.088 19.8962V20.6384H824.705V19.8962H827.088Z" fill="#32375E"/>
</g>
<g opacity="0.9">
<path d="M897.249 22.5476V23.2898H892.596V22.6404L894.925 20.0476C895.211 19.7286 895.433 19.4584 895.589 19.2371C895.748 19.0125 895.859 18.8123 895.921 18.6365C895.986 18.4574 896.019 18.2751 896.019 18.0896C896.019 17.8552 895.97 17.6436 895.872 17.4548C895.778 17.2628 895.638 17.1098 895.452 16.9958C895.267 16.8819 895.042 16.825 894.778 16.825C894.463 16.825 894.199 16.8868 893.987 17.0105C893.779 17.1309 893.623 17.3002 893.519 17.5183C893.414 17.7364 893.362 17.9871 893.362 18.2703H892.459C892.459 17.8699 892.547 17.5037 892.723 17.1716C892.898 16.8396 893.159 16.5759 893.504 16.3806C893.849 16.182 894.274 16.0828 894.778 16.0828C895.228 16.0828 895.612 16.1625 895.931 16.322C896.25 16.4783 896.494 16.6996 896.663 16.9861C896.836 17.2693 896.922 17.6013 896.922 17.9822C896.922 18.1905 896.886 18.4021 896.814 18.6169C896.746 18.8285 896.65 19.0401 896.526 19.2517C896.406 19.4633 896.264 19.6716 896.102 19.8767C895.942 20.0818 895.771 20.2836 895.589 20.4822L893.685 22.5476H897.249ZM902.811 16.1804V16.6882L899.866 23.2898H898.914L901.854 16.9226H898.006V16.1804H902.811ZM903.953 22.8113C903.953 22.6583 904 22.5297 904.095 22.4255C904.192 22.3181 904.332 22.2644 904.515 22.2644C904.697 22.2644 904.835 22.3181 904.93 22.4255C905.027 22.5297 905.076 22.6583 905.076 22.8113C905.076 22.961 905.027 23.088 904.93 23.1921C904.835 23.2963 904.697 23.3484 904.515 23.3484C904.332 23.3484 904.192 23.2963 904.095 23.1921C904 23.088 903.953 22.961 903.953 22.8113ZM907.62 19.906L906.897 19.7205L907.254 16.1804H910.901V17.0154H908.021L907.806 18.949C907.936 18.8741 908.1 18.8041 908.299 18.739C908.501 18.6739 908.732 18.6414 908.992 18.6414C909.321 18.6414 909.616 18.6983 909.876 18.8123C910.136 18.9229 910.358 19.0824 910.54 19.2908C910.726 19.4991 910.867 19.7498 910.965 20.0427C911.062 20.3357 911.111 20.6628 911.111 21.0242C911.111 21.366 911.064 21.6801 910.97 21.9666C910.879 22.253 910.74 22.5037 910.555 22.7185C910.369 22.9301 910.135 23.0945 909.852 23.2117C909.572 23.3289 909.241 23.3875 908.86 23.3875C908.574 23.3875 908.302 23.3484 908.045 23.2703C907.791 23.1889 907.563 23.0668 907.361 22.9041C907.163 22.738 907 22.533 906.873 22.2888C906.749 22.0414 906.671 21.7517 906.639 21.4197H907.498C907.537 21.6866 907.615 21.9112 907.732 22.0935C907.85 22.2758 908.003 22.4141 908.191 22.5085C908.383 22.5997 908.606 22.6453 908.86 22.6453C909.075 22.6453 909.266 22.6078 909.432 22.533C909.598 22.4581 909.738 22.3507 909.852 22.2107C909.965 22.0707 910.052 21.9014 910.11 21.7029C910.172 21.5043 910.203 21.2813 910.203 21.0339C910.203 20.8093 910.172 20.601 910.11 20.4089C910.049 20.2169 909.956 20.0492 909.832 19.906C909.712 19.7628 909.563 19.6521 909.388 19.574C909.212 19.4926 909.01 19.4519 908.782 19.4519C908.479 19.4519 908.25 19.4926 908.094 19.574C907.941 19.6554 907.783 19.766 907.62 19.906ZM916.565 19.1687V20.2527C916.565 20.8354 916.513 21.3269 916.409 21.7273C916.305 22.1277 916.155 22.45 915.96 22.6941C915.765 22.9382 915.529 23.1156 915.252 23.2263C914.979 23.3337 914.669 23.3875 914.324 23.3875C914.051 23.3875 913.799 23.3533 913.567 23.2849C913.336 23.2166 913.128 23.1075 912.942 22.9578C912.76 22.8048 912.604 22.6062 912.474 22.3621C912.343 22.1179 912.244 21.8217 912.176 21.4734C912.107 21.1251 912.073 20.7182 912.073 20.2527V19.1687C912.073 18.586 912.125 18.0977 912.229 17.7039C912.337 17.31 912.488 16.9942 912.684 16.7566C912.879 16.5157 913.113 16.3432 913.387 16.239C913.663 16.1348 913.973 16.0828 914.314 16.0828C914.591 16.0828 914.845 16.1169 915.076 16.1853C915.311 16.2504 915.519 16.3562 915.701 16.5027C915.883 16.6459 916.038 16.838 916.165 17.0789C916.295 17.3165 916.395 17.6078 916.463 17.9529C916.531 18.2979 916.565 18.7032 916.565 19.1687ZM915.657 20.3992V19.0173C915.657 18.6983 915.638 18.4184 915.599 18.1775C915.563 17.9333 915.509 17.725 915.438 17.5525C915.366 17.38 915.275 17.24 915.164 17.1326C915.057 17.0251 914.931 16.947 914.788 16.8982C914.648 16.8461 914.49 16.8201 914.314 16.8201C914.1 16.8201 913.909 16.8608 913.743 16.9421C913.577 17.0203 913.437 17.1456 913.323 17.3181C913.213 17.4906 913.128 17.7169 913.069 17.9968C913.011 18.2768 912.981 18.6169 912.981 19.0173V20.3992C912.981 20.7182 912.999 20.9998 913.035 21.2439C913.074 21.488 913.131 21.6996 913.206 21.8787C913.281 22.0544 913.372 22.1993 913.479 22.3132C913.587 22.4272 913.711 22.5118 913.851 22.5671C913.994 22.6192 914.152 22.6453 914.324 22.6453C914.546 22.6453 914.739 22.6029 914.905 22.5183C915.071 22.4337 915.21 22.3018 915.32 22.1228C915.434 21.9405 915.519 21.7078 915.574 21.4246C915.63 21.1381 915.657 20.7963 915.657 20.3992Z" fill="#32375E"/>
</g>
</svg>
