<svg width="934" height="41" viewBox="0 0 934 41" fill="none" xmlns="http://www.w3.org/2000/svg">
<rect y="0.289795" width="934" height="40" rx="12" fill="white"/>
<path d="M20.0002 26.9564C16.3182 26.9564 13.3335 23.9718 13.3335 20.2898C13.3335 16.6078 16.3182 13.6231 20.0002 13.6231C23.6822 13.6231 26.6668 16.6078 26.6668 20.2898C26.6668 23.9718 23.6822 26.9564 20.0002 26.9564ZM20.0002 25.6231C21.4147 25.6231 22.7712 25.0612 23.7714 24.061C24.7716 23.0608 25.3335 21.7043 25.3335 20.2898C25.3335 18.8753 24.7716 17.5187 23.7714 16.5185C22.7712 15.5183 21.4147 14.9564 20.0002 14.9564C18.5857 14.9564 17.2291 15.5183 16.2289 16.5185C15.2287 17.5187 14.6668 18.8753 14.6668 20.2898C14.6668 21.7043 15.2287 23.0608 16.2289 24.061C17.2291 25.0612 18.5857 25.6231 20.0002 25.6231ZM20.0002 19.3471L21.8855 17.4611L22.8288 18.4044L20.9428 20.2898L22.8288 22.1751L21.8855 23.1184L20.0002 21.2324L18.1148 23.1184L17.1715 22.1751L19.0575 20.2898L17.1715 18.4044L18.1148 17.4611L20.0002 19.3471Z" fill="#8E959C"/>
<g opacity="0.9">
<path d="M45.0537 19.1687V20.2527C45.0537 20.8354 45.0016 21.3269 44.8975 21.7273C44.7933 22.1277 44.6436 22.45 44.4482 22.6941C44.2529 22.9382 44.0169 23.1156 43.7402 23.2263C43.4668 23.3337 43.1576 23.3875 42.8125 23.3875C42.5391 23.3875 42.2868 23.3533 42.0557 23.2849C41.8245 23.2166 41.6162 23.1075 41.4307 22.9578C41.2484 22.8048 41.0921 22.6062 40.9619 22.3621C40.8317 22.1179 40.7324 21.8217 40.6641 21.4734C40.5957 21.1251 40.5615 20.7182 40.5615 20.2527V19.1687C40.5615 18.586 40.6136 18.0977 40.7178 17.7039C40.8252 17.31 40.9766 16.9942 41.1719 16.7566C41.3672 16.5157 41.6016 16.3432 41.875 16.239C42.1517 16.1348 42.4609 16.0828 42.8027 16.0828C43.0794 16.0828 43.3333 16.1169 43.5645 16.1853C43.7988 16.2504 44.0072 16.3562 44.1895 16.5027C44.3717 16.6459 44.5264 16.838 44.6533 17.0789C44.7835 17.3165 44.8828 17.6078 44.9512 17.9529C45.0195 18.2979 45.0537 18.7032 45.0537 19.1687ZM44.1455 20.3992V19.0173C44.1455 18.6983 44.126 18.4184 44.0869 18.1775C44.0511 17.9333 43.9974 17.725 43.9258 17.5525C43.8542 17.38 43.763 17.24 43.6523 17.1326C43.5449 17.0251 43.4196 16.947 43.2764 16.8982C43.1364 16.8461 42.9785 16.8201 42.8027 16.8201C42.5879 16.8201 42.3975 16.8608 42.2314 16.9421C42.0654 17.0203 41.9255 17.1456 41.8115 17.3181C41.7008 17.4906 41.6162 17.7169 41.5576 17.9968C41.499 18.2768 41.4697 18.6169 41.4697 19.0173V20.3992C41.4697 20.7182 41.4876 20.9998 41.5234 21.2439C41.5625 21.488 41.6195 21.6996 41.6943 21.8787C41.7692 22.0544 41.8604 22.1993 41.9678 22.3132C42.0752 22.4272 42.1989 22.5118 42.3389 22.5671C42.4821 22.6192 42.64 22.6453 42.8125 22.6453C43.0339 22.6453 43.2275 22.6029 43.3936 22.5183C43.5596 22.4337 43.6979 22.3018 43.8086 22.1228C43.9225 21.9405 44.0072 21.7078 44.0625 21.4246C44.1178 21.1381 44.1455 20.7963 44.1455 20.3992ZM50.6982 21.366C50.6982 21.7989 50.5973 22.1667 50.3955 22.4695C50.1969 22.769 49.9268 22.9968 49.585 23.1531C49.2464 23.3093 48.8639 23.3875 48.4375 23.3875C48.0111 23.3875 47.627 23.3093 47.2852 23.1531C46.9434 22.9968 46.6732 22.769 46.4746 22.4695C46.276 22.1667 46.1768 21.7989 46.1768 21.366C46.1768 21.0828 46.2305 20.824 46.3379 20.5896C46.4486 20.352 46.6032 20.1453 46.8018 19.9695C47.0036 19.7937 47.2412 19.6586 47.5146 19.5642C47.7913 19.4666 48.0957 19.4177 48.4277 19.4177C48.8639 19.4177 49.2529 19.5024 49.5947 19.6716C49.9365 19.8376 50.2051 20.0671 50.4004 20.3601C50.599 20.6531 50.6982 20.9884 50.6982 21.366ZM49.79 21.3464C49.79 21.0828 49.7331 20.85 49.6191 20.6482C49.5052 20.4431 49.3457 20.2836 49.1406 20.1697C48.9355 20.0557 48.6979 19.9988 48.4277 19.9988C48.151 19.9988 47.9118 20.0557 47.71 20.1697C47.5114 20.2836 47.3568 20.4431 47.2461 20.6482C47.1354 20.85 47.0801 21.0828 47.0801 21.3464C47.0801 21.6199 47.1338 21.8542 47.2412 22.0496C47.3519 22.2416 47.5081 22.3897 47.71 22.4939C47.915 22.5948 48.1576 22.6453 48.4375 22.6453C48.7174 22.6453 48.9583 22.5948 49.1602 22.4939C49.362 22.3897 49.5166 22.2416 49.624 22.0496C49.7347 21.8542 49.79 21.6199 49.79 21.3464ZM50.5322 18.031C50.5322 18.3761 50.4411 18.6869 50.2588 18.9636C50.0765 19.2403 49.8275 19.4584 49.5117 19.6179C49.196 19.7774 48.8379 19.8572 48.4375 19.8572C48.0306 19.8572 47.6676 19.7774 47.3486 19.6179C47.0329 19.4584 46.7855 19.2403 46.6064 18.9636C46.4274 18.6869 46.3379 18.3761 46.3379 18.031C46.3379 17.6176 46.4274 17.266 46.6064 16.9763C46.7887 16.6866 47.0378 16.4653 47.3535 16.3123C47.6693 16.1593 48.029 16.0828 48.4326 16.0828C48.8395 16.0828 49.2008 16.1593 49.5166 16.3123C49.8324 16.4653 50.0798 16.6866 50.2588 16.9763C50.4411 17.266 50.5322 17.6176 50.5322 18.031ZM49.6289 18.0457C49.6289 17.808 49.5785 17.5981 49.4775 17.4158C49.3766 17.2335 49.2367 17.0903 49.0576 16.9861C48.8786 16.8787 48.6702 16.825 48.4326 16.825C48.195 16.825 47.9867 16.8754 47.8076 16.9763C47.6318 17.074 47.4935 17.2139 47.3926 17.3962C47.2949 17.5785 47.2461 17.795 47.2461 18.0457C47.2461 18.2898 47.2949 18.503 47.3926 18.6853C47.4935 18.8676 47.6335 19.0092 47.8125 19.1101C47.9915 19.211 48.1999 19.2615 48.4375 19.2615C48.6751 19.2615 48.8818 19.211 49.0576 19.1101C49.2367 19.0092 49.3766 18.8676 49.4775 18.6853C49.5785 18.503 49.6289 18.2898 49.6289 18.0457ZM53.8184 19.8962V20.6384H51.4355V19.8962H53.8184ZM57.4707 16.8103L55.1172 23.2898H54.1553L56.8652 16.1804H57.4854L57.4707 16.8103ZM59.4434 23.2898L57.085 16.8103L57.0703 16.1804H57.6904L60.4102 23.2898H59.4434ZM59.3213 20.658V21.4294H55.3271V20.658H59.3213ZM62.1289 19.0222V25.321H61.2207V18.0066H62.0508L62.1289 19.0222ZM65.6885 20.6042V20.7068C65.6885 21.0909 65.6429 21.4473 65.5518 21.7761C65.4606 22.1016 65.3271 22.3848 65.1514 22.6257C64.9788 22.8666 64.7656 23.0538 64.5117 23.1873C64.2578 23.3207 63.9665 23.3875 63.6377 23.3875C63.3024 23.3875 63.0062 23.3321 62.749 23.2214C62.4919 23.1108 62.2738 22.9496 62.0947 22.738C61.9157 22.5264 61.7725 22.2725 61.665 21.9763C61.5609 21.6801 61.4893 21.3464 61.4502 20.9753V20.4285C61.4893 20.0378 61.5625 19.6879 61.6699 19.3787C61.7773 19.0694 61.9189 18.8057 62.0947 18.5876C62.2738 18.3663 62.4902 18.1986 62.7441 18.0847C62.998 17.9675 63.291 17.9089 63.623 17.9089C63.9551 17.9089 64.2497 17.974 64.5068 18.1042C64.764 18.2312 64.9805 18.4135 65.1562 18.6511C65.332 18.8888 65.4639 19.1736 65.5518 19.5056C65.6429 19.8344 65.6885 20.2006 65.6885 20.6042ZM64.7803 20.7068V20.6042C64.7803 20.3406 64.7526 20.0932 64.6973 19.8621C64.6419 19.6277 64.5557 19.4226 64.4385 19.2468C64.3245 19.0678 64.1781 18.9278 63.999 18.8269C63.82 18.7227 63.6068 18.6707 63.3594 18.6707C63.1315 18.6707 62.9329 18.7097 62.7637 18.7878C62.5977 18.866 62.4561 18.9718 62.3389 19.1052C62.2217 19.2354 62.1257 19.3852 62.0508 19.5544C61.9792 19.7205 61.9255 19.893 61.8896 20.072V21.3367C61.9548 21.5645 62.0459 21.7794 62.1631 21.9812C62.2803 22.1798 62.4365 22.3409 62.6318 22.4646C62.8271 22.585 63.0729 22.6453 63.3691 22.6453C63.6133 22.6453 63.8232 22.5948 63.999 22.4939C64.1781 22.3897 64.3245 22.2481 64.4385 22.0691C64.5557 21.8901 64.6419 21.685 64.6973 21.4539C64.7526 21.2195 64.7803 20.9705 64.7803 20.7068ZM67.7441 18.8367V23.2898H66.8408V18.0066H67.7197L67.7441 18.8367ZM69.3945 17.9773L69.3896 18.8171C69.3148 18.8009 69.2432 18.7911 69.1748 18.7878C69.1097 18.7813 69.0348 18.7781 68.9502 18.7781C68.7419 18.7781 68.5579 18.8106 68.3984 18.8757C68.2389 18.9408 68.1038 19.032 67.9932 19.1492C67.8825 19.2664 67.7946 19.4063 67.7295 19.5691C67.6676 19.7286 67.627 19.9044 67.6074 20.0964L67.3535 20.2429C67.3535 19.9239 67.3844 19.6244 67.4463 19.3445C67.5114 19.0645 67.6107 18.8171 67.7441 18.6023C67.8776 18.3842 68.0469 18.2149 68.252 18.0945C68.4603 17.9708 68.7077 17.9089 68.9941 17.9089C69.0592 17.9089 69.1341 17.9171 69.2188 17.9333C69.3034 17.9464 69.362 17.961 69.3945 17.9773ZM72.1094 19.8962V20.6384H69.7266V19.8962H72.1094ZM77.5537 22.5476V23.2898H72.9004V22.6404L75.2295 20.0476C75.516 19.7286 75.7373 19.4584 75.8936 19.2371C76.0531 19.0125 76.1637 18.8123 76.2256 18.6365C76.2907 18.4574 76.3232 18.2751 76.3232 18.0896C76.3232 17.8552 76.2744 17.6436 76.1768 17.4548C76.0824 17.2628 75.9424 17.1098 75.7568 16.9958C75.5713 16.8819 75.3467 16.825 75.083 16.825C74.7673 16.825 74.5036 16.8868 74.292 17.0105C74.0837 17.1309 73.9274 17.3002 73.8232 17.5183C73.7191 17.7364 73.667 17.9871 73.667 18.2703H72.7637C72.7637 17.8699 72.8516 17.5037 73.0273 17.1716C73.2031 16.8396 73.4635 16.5759 73.8086 16.3806C74.1536 16.182 74.5785 16.0828 75.083 16.0828C75.5322 16.0828 75.9163 16.1625 76.2354 16.322C76.5544 16.4783 76.7985 16.6996 76.9678 16.9861C77.1403 17.2693 77.2266 17.6013 77.2266 17.9822C77.2266 18.1905 77.1908 18.4021 77.1191 18.6169C77.0508 18.8285 76.9548 19.0401 76.8311 19.2517C76.7106 19.4633 76.569 19.6716 76.4062 19.8767C76.2467 20.0818 76.0758 20.2836 75.8936 20.4822L73.9893 22.5476H77.5537ZM83.1787 22.5476V23.2898H78.5254V22.6404L80.8545 20.0476C81.141 19.7286 81.3623 19.4584 81.5186 19.2371C81.6781 19.0125 81.7887 18.8123 81.8506 18.6365C81.9157 18.4574 81.9482 18.2751 81.9482 18.0896C81.9482 17.8552 81.8994 17.6436 81.8018 17.4548C81.7074 17.2628 81.5674 17.1098 81.3818 16.9958C81.1963 16.8819 80.9717 16.825 80.708 16.825C80.3923 16.825 80.1286 16.8868 79.917 17.0105C79.7087 17.1309 79.5524 17.3002 79.4482 17.5183C79.3441 17.7364 79.292 17.9871 79.292 18.2703H78.3887C78.3887 17.8699 78.4766 17.5037 78.6523 17.1716C78.8281 16.8396 79.0885 16.5759 79.4336 16.3806C79.7786 16.182 80.2035 16.0828 80.708 16.0828C81.1572 16.0828 81.5413 16.1625 81.8604 16.322C82.1794 16.4783 82.4235 16.6996 82.5928 16.9861C82.7653 17.2693 82.8516 17.6013 82.8516 17.9822C82.8516 18.1905 82.8158 18.4021 82.7441 18.6169C82.6758 18.8285 82.5798 19.0401 82.4561 19.2517C82.3356 19.4633 82.194 19.6716 82.0312 19.8767C81.8717 20.0818 81.7008 20.2836 81.5186 20.4822L79.6143 22.5476H83.1787ZM89.5947 16.1414V23.2898H88.6914V17.2693L86.8701 17.9333V17.1179L89.4531 16.1414H89.5947ZM97.0557 20.8972V21.6394H91.9189V21.1072L95.1025 16.1804H95.8398L95.0488 17.6062L92.9443 20.8972H97.0557ZM96.0645 16.1804V23.2898H95.1611V16.1804H96.0645ZM97.9346 22.8113C97.9346 22.6583 97.9818 22.5297 98.0762 22.4255C98.1738 22.3181 98.3138 22.2644 98.4961 22.2644C98.6784 22.2644 98.8167 22.3181 98.9111 22.4255C99.0088 22.5297 99.0576 22.6583 99.0576 22.8113C99.0576 22.961 99.0088 23.088 98.9111 23.1921C98.8167 23.2963 98.6784 23.3484 98.4961 23.3484C98.3138 23.3484 98.1738 23.2963 98.0762 23.1921C97.9818 23.088 97.9346 22.961 97.9346 22.8113ZM97.9395 18.4998C97.9395 18.3468 97.9867 18.2182 98.0811 18.114C98.1787 18.0066 98.3187 17.9529 98.501 17.9529C98.6833 17.9529 98.8216 18.0066 98.916 18.114C99.0137 18.2182 99.0625 18.3468 99.0625 18.4998C99.0625 18.6495 99.0137 18.7764 98.916 18.8806C98.8216 18.9848 98.6833 19.0369 98.501 19.0369C98.3187 19.0369 98.1787 18.9848 98.0811 18.8806C97.9867 18.7764 97.9395 18.6495 97.9395 18.4998ZM103.267 16.1414V23.2898H102.363V17.2693L100.542 17.9333V17.1179L103.125 16.1414H103.267ZM110.728 20.8972V21.6394H105.591V21.1072L108.774 16.1804H109.512L108.721 17.6062L106.616 20.8972H110.728ZM109.736 16.1804V23.2898H108.833V16.1804H109.736Z" fill="#32375E"/>
</g>
<g opacity="0.9">
<path d="M196.396 20.8972V21.6394H191.259V21.1072L194.442 16.1804H195.18L194.389 17.6062L192.284 20.8972H196.396ZM195.404 16.1804V23.2898H194.501V16.1804H195.404ZM200.185 16.1414V23.2898H199.281V17.2693L197.46 17.9333V17.1179L200.043 16.1414H200.185ZM207.646 20.8972V21.6394H202.509V21.1072L205.692 16.1804H206.43L205.639 17.6062L203.534 20.8972H207.646ZM206.654 16.1804V23.2898H205.751V16.1804H206.654ZM211.933 16.1707H212.011V16.9373H211.933C211.454 16.9373 211.054 17.0154 210.731 17.1716C210.409 17.3246 210.154 17.5313 209.965 17.7917C209.776 18.0489 209.639 18.3386 209.555 18.6609C209.473 18.9832 209.433 19.3103 209.433 19.6423V20.6873C209.433 21.003 209.47 21.283 209.545 21.5271C209.62 21.768 209.722 21.9714 209.853 22.1375C209.983 22.3035 210.129 22.4288 210.292 22.5134C210.458 22.5981 210.631 22.6404 210.81 22.6404C211.018 22.6404 211.203 22.6013 211.366 22.5232C211.529 22.4418 211.666 22.3295 211.776 22.1863C211.89 22.0398 211.977 21.8673 212.035 21.6687C212.094 21.4701 212.123 21.252 212.123 21.0144C212.123 20.8028 212.097 20.5994 212.045 20.4041C211.993 20.2055 211.913 20.0297 211.806 19.8767C211.698 19.7205 211.563 19.5984 211.4 19.5105C211.241 19.4194 211.05 19.3738 210.829 19.3738C210.578 19.3738 210.344 19.4356 210.126 19.5593C209.911 19.6798 209.734 19.8393 209.594 20.0378C209.457 20.2332 209.379 20.4464 209.359 20.6775L208.881 20.6726C208.926 20.308 209.011 19.9972 209.135 19.74C209.262 19.4796 209.418 19.268 209.604 19.1052C209.792 18.9392 210.002 18.8188 210.233 18.7439C210.468 18.6658 210.715 18.6267 210.976 18.6267C211.33 18.6267 211.636 18.6934 211.894 18.8269C212.151 18.9604 212.362 19.1394 212.528 19.364C212.694 19.5854 212.816 19.836 212.895 20.116C212.976 20.3927 213.017 20.6775 213.017 20.9705C213.017 21.3057 212.969 21.6199 212.875 21.9128C212.781 22.2058 212.639 22.463 212.45 22.6843C212.265 22.9057 212.035 23.0782 211.762 23.2019C211.488 23.3256 211.171 23.3875 210.81 23.3875C210.425 23.3875 210.09 23.3093 209.804 23.1531C209.517 22.9936 209.28 22.782 209.091 22.5183C208.902 22.2546 208.76 21.9617 208.666 21.6394C208.572 21.3171 208.524 20.99 208.524 20.658V20.2332C208.524 19.7319 208.575 19.2403 208.676 18.7585C208.777 18.2768 208.951 17.8406 209.198 17.45C209.449 17.0593 209.796 16.7485 210.238 16.5173C210.681 16.2862 211.246 16.1707 211.933 16.1707Z" fill="#3F7BDA"/>
</g>
<g opacity="0.9">
<path d="M230.825 16.1804H233.179C233.713 16.1804 234.163 16.2618 234.531 16.4246C234.902 16.5873 235.184 16.8282 235.376 17.1472C235.571 17.463 235.669 17.852 235.669 18.3142C235.669 18.6397 235.602 18.9376 235.469 19.2078C235.339 19.4747 235.15 19.7026 234.902 19.8914C234.658 20.0769 234.365 20.2153 234.023 20.3064L233.76 20.4089H231.548L231.538 19.6423H233.208C233.547 19.6423 233.828 19.5837 234.053 19.4666C234.277 19.3461 234.447 19.185 234.561 18.9832C234.674 18.7813 234.731 18.5583 234.731 18.3142C234.731 18.0408 234.678 17.8015 234.57 17.5964C234.463 17.3914 234.294 17.2335 234.062 17.1228C233.835 17.0089 233.54 16.9519 233.179 16.9519H231.768V23.2898H230.825V16.1804ZM234.98 23.2898L233.252 20.0671L234.233 20.0623L235.986 23.2312V23.2898H234.98ZM241.504 22.5232V23.2898H237.739V22.5232H241.504ZM237.93 16.1804V23.2898H236.987V16.1804H237.93ZM241.006 19.2371V20.0037H237.739V19.2371H241.006ZM241.455 16.1804V16.9519H237.739V16.1804H241.455ZM246.963 21.0291H247.9C247.852 21.4783 247.723 21.8803 247.515 22.2351C247.306 22.5899 247.012 22.8715 246.631 23.0798C246.25 23.2849 245.775 23.3875 245.205 23.3875C244.788 23.3875 244.409 23.3093 244.067 23.1531C243.729 22.9968 243.438 22.7755 243.193 22.489C242.949 22.1993 242.76 21.8526 242.627 21.449C242.497 21.0421 242.432 20.5896 242.432 20.0916V19.3835C242.432 18.8855 242.497 18.4347 242.627 18.031C242.76 17.6241 242.951 17.2758 243.198 16.9861C243.449 16.6964 243.75 16.4734 244.102 16.3171C244.453 16.1609 244.849 16.0828 245.288 16.0828C245.825 16.0828 246.279 16.1837 246.65 16.3855C247.021 16.5873 247.31 16.8673 247.515 17.2253C247.723 17.5802 247.852 17.9919 247.9 18.4607H246.963C246.917 18.1287 246.833 17.8438 246.709 17.6062C246.585 17.3653 246.41 17.1798 246.182 17.0496C245.954 16.9194 245.656 16.8542 245.288 16.8542C244.972 16.8542 244.694 16.9145 244.453 17.0349C244.215 17.1554 244.015 17.3263 243.853 17.5476C243.693 17.769 243.573 18.0343 243.491 18.3435C243.41 18.6528 243.369 18.9962 243.369 19.3738V20.0916C243.369 20.4399 243.405 20.767 243.477 21.073C243.551 21.379 243.664 21.6475 243.813 21.8787C243.963 22.1098 244.154 22.2921 244.385 22.4255C244.616 22.5557 244.889 22.6208 245.205 22.6208C245.605 22.6208 245.924 22.5574 246.162 22.4304C246.4 22.3035 246.579 22.1212 246.699 21.8835C246.823 21.6459 246.911 21.3611 246.963 21.0291ZM253.252 16.1804H254.189V20.99C254.189 21.5238 254.071 21.9682 253.833 22.323C253.595 22.6778 253.28 22.9447 252.886 23.1238C252.495 23.2996 252.07 23.3875 251.611 23.3875C251.13 23.3875 250.693 23.2996 250.303 23.1238C249.915 22.9447 249.608 22.6778 249.38 22.323C249.155 21.9682 249.043 21.5238 249.043 20.99V16.1804H249.976V20.99C249.976 21.3611 250.044 21.6671 250.181 21.908C250.317 22.1488 250.508 22.3279 250.752 22.4451C250.999 22.5623 251.286 22.6208 251.611 22.6208C251.94 22.6208 252.227 22.5623 252.471 22.4451C252.718 22.3279 252.91 22.1488 253.047 21.908C253.184 21.6671 253.252 21.3611 253.252 20.99V16.1804ZM261.138 16.1804V23.2898H260.19L256.611 17.8064V23.2898H255.669V16.1804H256.611L260.205 21.6785V16.1804H261.138ZM266.597 21.4929C266.597 21.3269 266.571 21.1804 266.519 21.0535C266.47 20.9233 266.382 20.8061 266.255 20.7019C266.131 20.5977 265.959 20.4985 265.737 20.4041C265.519 20.3097 265.243 20.2136 264.907 20.116C264.556 20.0118 264.238 19.8962 263.955 19.7693C263.672 19.6391 263.429 19.491 263.228 19.325C263.026 19.1589 262.871 18.9685 262.764 18.7537C262.656 18.5388 262.603 18.2931 262.603 18.0164C262.603 17.7397 262.66 17.4841 262.773 17.2498C262.887 17.0154 263.05 16.8119 263.262 16.6394C263.477 16.4636 263.732 16.3269 264.028 16.2292C264.325 16.1316 264.655 16.0828 265.02 16.0828C265.553 16.0828 266.006 16.1853 266.377 16.3904C266.751 16.5922 267.036 16.8575 267.231 17.1863C267.427 17.5118 267.524 17.8601 267.524 18.2312H266.587C266.587 17.9643 266.53 17.7283 266.416 17.5232C266.302 17.3149 266.13 17.1521 265.898 17.0349C265.667 16.9145 265.374 16.8542 265.02 16.8542C264.684 16.8542 264.408 16.9047 264.189 17.0056C263.971 17.1065 263.809 17.2432 263.701 17.4158C263.597 17.5883 263.545 17.7852 263.545 18.0066C263.545 18.1563 263.576 18.2931 263.638 18.4167C263.703 18.5372 263.802 18.6495 263.936 18.7537C264.072 18.8578 264.245 18.9539 264.453 19.0417C264.665 19.1296 264.917 19.2143 265.21 19.2957C265.614 19.4096 265.962 19.5365 266.255 19.6765C266.548 19.8165 266.789 19.9744 266.978 20.1501C267.17 20.3227 267.311 20.5196 267.402 20.741C267.497 20.9591 267.544 21.2065 267.544 21.4832C267.544 21.7729 267.485 22.0349 267.368 22.2693C267.251 22.5037 267.083 22.7039 266.865 22.8699C266.647 23.0359 266.385 23.1645 266.079 23.2556C265.776 23.3435 265.438 23.3875 265.063 23.3875C264.735 23.3875 264.411 23.3419 264.092 23.2507C263.776 23.1596 263.488 23.0229 263.228 22.8406C262.97 22.6583 262.764 22.4337 262.607 22.1667C262.454 21.8966 262.378 21.5841 262.378 21.2292H263.315C263.315 21.4734 263.363 21.6833 263.457 21.8591C263.551 22.0317 263.68 22.1749 263.843 22.2888C264.009 22.4028 264.196 22.4874 264.404 22.5427C264.616 22.5948 264.836 22.6208 265.063 22.6208C265.392 22.6208 265.671 22.5753 265.898 22.4841C266.126 22.393 266.299 22.2628 266.416 22.0935C266.536 21.9242 266.597 21.724 266.597 21.4929ZM270.488 19.8962V20.6384H268.105V19.8962H270.488ZM272.593 19.2908H273.237C273.553 19.2908 273.813 19.2387 274.019 19.1345C274.227 19.0271 274.382 18.8822 274.482 18.7C274.587 18.5144 274.639 18.3061 274.639 18.075C274.639 17.8015 274.593 17.572 274.502 17.3865C274.411 17.2009 274.274 17.061 274.092 16.9666C273.91 16.8722 273.678 16.825 273.398 16.825C273.145 16.825 272.92 16.8754 272.725 16.9763C272.533 17.074 272.381 17.2139 272.271 17.3962C272.163 17.5785 272.109 17.7934 272.109 18.0408H271.206C271.206 17.6794 271.297 17.3507 271.479 17.0544C271.662 16.7582 271.917 16.5222 272.246 16.3464C272.578 16.1707 272.962 16.0828 273.398 16.0828C273.828 16.0828 274.204 16.1593 274.526 16.3123C274.849 16.462 275.099 16.6866 275.278 16.9861C275.457 17.2823 275.547 17.6518 275.547 18.0945C275.547 18.2735 275.505 18.4656 275.42 18.6707C275.339 18.8725 275.21 19.0613 275.034 19.2371C274.862 19.4128 274.637 19.5577 274.36 19.6716C274.084 19.7823 273.752 19.8376 273.364 19.8376H272.593V19.2908ZM272.593 20.033V19.491H273.364C273.817 19.491 274.191 19.5447 274.487 19.6521C274.784 19.7595 275.016 19.9028 275.186 20.0818C275.358 20.2608 275.479 20.4578 275.547 20.6726C275.618 20.8842 275.654 21.0958 275.654 21.3074C275.654 21.6394 275.597 21.934 275.483 22.1912C275.373 22.4483 275.215 22.6664 275.01 22.8455C274.808 23.0245 274.57 23.1596 274.297 23.2507C274.023 23.3419 273.726 23.3875 273.403 23.3875C273.094 23.3875 272.803 23.3435 272.529 23.2556C272.259 23.1677 272.02 23.0408 271.812 22.8748C271.603 22.7055 271.44 22.4988 271.323 22.2546C271.206 22.0072 271.147 21.7257 271.147 21.4099H272.051C272.051 21.6573 272.104 21.8738 272.212 22.0593C272.323 22.2449 272.479 22.3897 272.681 22.4939C272.886 22.5948 273.127 22.6453 273.403 22.6453C273.68 22.6453 273.918 22.5981 274.116 22.5037C274.318 22.406 274.473 22.2595 274.58 22.0642C274.691 21.8689 274.746 21.6231 274.746 21.3269C274.746 21.0307 274.684 20.7882 274.561 20.5994C274.437 20.4073 274.261 20.2657 274.033 20.1746C273.809 20.0802 273.543 20.033 273.237 20.033H272.593ZM281.382 21.366C281.382 21.7989 281.281 22.1667 281.079 22.4695C280.881 22.769 280.61 22.9968 280.269 23.1531C279.93 23.3093 279.548 23.3875 279.121 23.3875C278.695 23.3875 278.311 23.3093 277.969 23.1531C277.627 22.9968 277.357 22.769 277.158 22.4695C276.96 22.1667 276.86 21.7989 276.86 21.366C276.86 21.0828 276.914 20.824 277.021 20.5896C277.132 20.352 277.287 20.1453 277.485 19.9695C277.687 19.7937 277.925 19.6586 278.198 19.5642C278.475 19.4666 278.779 19.4177 279.111 19.4177C279.548 19.4177 279.937 19.5024 280.278 19.6716C280.62 19.8376 280.889 20.0671 281.084 20.3601C281.283 20.6531 281.382 20.9884 281.382 21.366ZM280.474 21.3464C280.474 21.0828 280.417 20.85 280.303 20.6482C280.189 20.4431 280.029 20.2836 279.824 20.1697C279.619 20.0557 279.382 19.9988 279.111 19.9988C278.835 19.9988 278.595 20.0557 278.394 20.1697C278.195 20.2836 278.04 20.4431 277.93 20.6482C277.819 20.85 277.764 21.0828 277.764 21.3464C277.764 21.6199 277.817 21.8542 277.925 22.0496C278.035 22.2416 278.192 22.3897 278.394 22.4939C278.599 22.5948 278.841 22.6453 279.121 22.6453C279.401 22.6453 279.642 22.5948 279.844 22.4939C280.046 22.3897 280.2 22.2416 280.308 22.0496C280.418 21.8542 280.474 21.6199 280.474 21.3464ZM281.216 18.031C281.216 18.3761 281.125 18.6869 280.942 18.9636C280.76 19.2403 280.511 19.4584 280.195 19.6179C279.88 19.7774 279.521 19.8572 279.121 19.8572C278.714 19.8572 278.351 19.7774 278.032 19.6179C277.716 19.4584 277.469 19.2403 277.29 18.9636C277.111 18.6869 277.021 18.3761 277.021 18.031C277.021 17.6176 277.111 17.266 277.29 16.9763C277.472 16.6866 277.721 16.4653 278.037 16.3123C278.353 16.1593 278.713 16.0828 279.116 16.0828C279.523 16.0828 279.884 16.1593 280.2 16.3123C280.516 16.4653 280.763 16.6866 280.942 16.9763C281.125 17.266 281.216 17.6176 281.216 18.031ZM280.312 18.0457C280.312 17.808 280.262 17.5981 280.161 17.4158C280.06 17.2335 279.92 17.0903 279.741 16.9861C279.562 16.8787 279.354 16.825 279.116 16.825C278.879 16.825 278.67 16.8754 278.491 16.9763C278.315 17.074 278.177 17.2139 278.076 17.3962C277.979 17.5785 277.93 17.795 277.93 18.0457C277.93 18.2898 277.979 18.503 278.076 18.6853C278.177 18.8676 278.317 19.0092 278.496 19.1101C278.675 19.211 278.883 19.2615 279.121 19.2615C279.359 19.2615 279.565 19.211 279.741 19.1101C279.92 19.0092 280.06 18.8676 280.161 18.6853C280.262 18.503 280.312 18.2898 280.312 18.0457Z" fill="#32375E"/>
</g>
<path d="M327 14.2898C327 10.9761 329.686 8.28979 333 8.28979H345C348.314 8.28979 351 10.9761 351 14.2898V26.2898C351 29.6035 348.314 32.2898 345 32.2898H333C329.686 32.2898 327 29.6035 327 26.2898V14.2898Z" fill="#F0F5F9"/>
<path d="M336.938 20.9812H337.688C337.648 21.3406 337.546 21.6622 337.379 21.946C337.212 22.2299 336.977 22.4552 336.672 22.6218C336.367 22.7859 335.987 22.8679 335.531 22.8679C335.198 22.8679 334.895 22.8054 334.621 22.6804C334.35 22.5554 334.117 22.3783 333.922 22.1492C333.727 21.9174 333.576 21.6401 333.469 21.3171C333.365 20.9916 333.312 20.6296 333.312 20.2312V19.6648C333.312 19.2664 333.365 18.9057 333.469 18.5828C333.576 18.2572 333.728 17.9786 333.926 17.7468C334.126 17.5151 334.367 17.3367 334.648 17.2117C334.93 17.0867 335.246 17.0242 335.598 17.0242C336.027 17.0242 336.391 17.1049 336.688 17.2664C336.984 17.4278 337.215 17.6518 337.379 17.9382C337.546 18.2221 337.648 18.5515 337.688 18.9265H336.938C336.901 18.6609 336.833 18.433 336.734 18.2429C336.635 18.0502 336.495 17.9018 336.312 17.7976C336.13 17.6934 335.892 17.6414 335.598 17.6414C335.345 17.6414 335.122 17.6895 334.93 17.7859C334.74 17.8822 334.579 18.019 334.449 18.196C334.322 18.3731 334.225 18.5854 334.16 18.8328C334.095 19.0802 334.062 19.3549 334.062 19.657V20.2312C334.062 20.5098 334.091 20.7716 334.148 21.0164C334.208 21.2611 334.298 21.476 334.418 21.6609C334.538 21.8458 334.69 21.9916 334.875 22.0984C335.06 22.2026 335.279 22.2546 335.531 22.2546C335.852 22.2546 336.107 22.2039 336.297 22.1023C336.487 22.0007 336.63 21.8549 336.727 21.6648C336.826 21.4747 336.896 21.2468 336.938 20.9812ZM340.211 21.071L341.34 17.1023H341.887L341.57 18.6453L340.355 22.7898H339.812L340.211 21.071ZM339.043 17.1023L339.941 20.9929L340.211 22.7898H339.672L338.293 17.1023H339.043ZM343.348 20.989L344.227 17.1023H344.98L343.605 22.7898H343.066L343.348 20.989ZM341.969 17.1023L343.066 21.071L343.465 22.7898H342.922L341.75 18.6453L341.43 17.1023H341.969Z" fill="#32375E"/>
<path d="M362.457 16.8103L360.104 23.2898H359.142L361.852 16.1804H362.472L362.457 16.8103ZM364.43 23.2898L362.071 16.8103L362.057 16.1804H362.677L365.396 23.2898H364.43ZM364.308 20.658V21.4294H360.313V20.658H364.308ZM367.193 15.7898V23.2898H366.285V15.7898H367.193ZM369.991 23.2898H369.088V17.45C369.088 17.0691 369.156 16.7485 369.293 16.488C369.433 16.2244 369.633 16.0258 369.894 15.8923C370.154 15.7556 370.463 15.6873 370.821 15.6873C370.925 15.6873 371.03 15.6938 371.134 15.7068C371.241 15.7198 371.345 15.7393 371.446 15.7654L371.397 16.5027C371.329 16.4864 371.251 16.475 371.163 16.4685C371.078 16.462 370.994 16.4587 370.909 16.4587C370.717 16.4587 370.551 16.4978 370.411 16.5759C370.274 16.6508 370.17 16.7615 370.099 16.908C370.027 17.0544 369.991 17.2351 369.991 17.45V23.2898ZM371.114 18.0066V18.7H368.253V18.0066H371.114ZM373.023 18.8367V23.2898H372.12V18.0066H372.999L373.023 18.8367ZM374.674 17.9773L374.669 18.8171C374.594 18.8009 374.522 18.7911 374.454 18.7878C374.389 18.7813 374.314 18.7781 374.229 18.7781C374.021 18.7781 373.837 18.8106 373.678 18.8757C373.518 18.9408 373.383 19.032 373.272 19.1492C373.162 19.2664 373.074 19.4063 373.009 19.5691C372.947 19.7286 372.906 19.9044 372.887 20.0964L372.633 20.2429C372.633 19.9239 372.664 19.6244 372.726 19.3445C372.791 19.0645 372.89 18.8171 373.023 18.6023C373.157 18.3842 373.326 18.2149 373.531 18.0945C373.74 17.9708 373.987 17.9089 374.273 17.9089C374.339 17.9089 374.413 17.9171 374.498 17.9333C374.583 17.9464 374.641 17.961 374.674 17.9773ZM377.604 23.3875C377.236 23.3875 376.902 23.3256 376.603 23.2019C376.306 23.075 376.051 22.8975 375.836 22.6697C375.624 22.4418 375.462 22.1716 375.348 21.8591C375.234 21.5466 375.177 21.2048 375.177 20.8337V20.6287C375.177 20.199 375.24 19.8165 375.367 19.4812C375.494 19.1427 375.667 18.8562 375.885 18.6218C376.103 18.3875 376.35 18.21 376.627 18.0896C376.904 17.9692 377.19 17.9089 377.486 17.9089C377.864 17.9089 378.189 17.974 378.463 18.1042C378.74 18.2345 378.966 18.4167 379.142 18.6511C379.317 18.8822 379.448 19.1557 379.532 19.4714C379.617 19.7839 379.659 20.1257 379.659 20.4968V20.9021H375.714V20.1648H378.756V20.0964C378.743 19.8621 378.694 19.6342 378.609 19.4128C378.528 19.1915 378.398 19.0092 378.219 18.866C378.04 18.7227 377.796 18.6511 377.486 18.6511C377.281 18.6511 377.092 18.6951 376.92 18.783C376.747 18.8676 376.599 18.9945 376.476 19.1638C376.352 19.3331 376.256 19.5398 376.188 19.7839C376.119 20.0281 376.085 20.3097 376.085 20.6287V20.8337C376.085 21.0844 376.119 21.3204 376.188 21.5417C376.259 21.7598 376.362 21.9519 376.495 22.1179C376.632 22.2839 376.796 22.4141 376.988 22.5085C377.184 22.6029 377.405 22.6501 377.652 22.6501C377.971 22.6501 378.242 22.585 378.463 22.4548C378.684 22.3246 378.878 22.1505 379.044 21.9324L379.591 22.3669C379.477 22.5395 379.332 22.7039 379.156 22.8601C378.98 23.0164 378.764 23.1433 378.507 23.241C378.253 23.3386 377.952 23.3875 377.604 23.3875ZM384.044 22.2644V15.7898H384.952V23.2898H384.122L384.044 22.2644ZM380.489 20.7068V20.6042C380.489 20.2006 380.538 19.8344 380.636 19.5056C380.737 19.1736 380.878 18.8888 381.061 18.6511C381.246 18.4135 381.466 18.2312 381.72 18.1042C381.977 17.974 382.263 17.9089 382.579 17.9089C382.911 17.9089 383.201 17.9675 383.448 18.0847C383.699 18.1986 383.91 18.3663 384.083 18.5876C384.259 18.8057 384.397 19.0694 384.498 19.3787C384.599 19.6879 384.669 20.0378 384.708 20.4285V20.8777C384.672 21.2651 384.602 21.6134 384.498 21.9226C384.397 22.2319 384.259 22.4955 384.083 22.7136C383.91 22.9317 383.699 23.0994 383.448 23.2166C383.198 23.3305 382.905 23.3875 382.569 23.3875C382.26 23.3875 381.977 23.3207 381.72 23.1873C381.466 23.0538 381.246 22.8666 381.061 22.6257C380.878 22.3848 380.737 22.1016 380.636 21.7761C380.538 21.4473 380.489 21.0909 380.489 20.7068ZM381.397 20.6042V20.7068C381.397 20.9705 381.424 21.2179 381.476 21.449C381.531 21.6801 381.616 21.8835 381.729 22.0593C381.843 22.2351 381.988 22.3735 382.164 22.4744C382.34 22.572 382.55 22.6208 382.794 22.6208C383.093 22.6208 383.339 22.5574 383.531 22.4304C383.727 22.3035 383.883 22.1358 384 21.9275C384.117 21.7192 384.208 21.4929 384.273 21.2488V20.072C384.234 19.893 384.177 19.7205 384.103 19.5544C384.031 19.3852 383.937 19.2354 383.819 19.1052C383.705 18.9718 383.564 18.866 383.395 18.7878C383.229 18.7097 383.032 18.6707 382.804 18.6707C382.556 18.6707 382.343 18.7227 382.164 18.8269C381.988 18.9278 381.843 19.0678 381.729 19.2468C381.616 19.4226 381.531 19.6277 381.476 19.8621C381.424 20.0932 381.397 20.3406 381.397 20.6042ZM391.598 20.5017H389.698V19.7351H391.598C391.965 19.7351 392.263 19.6765 392.491 19.5593C392.719 19.4421 392.885 19.2794 392.989 19.071C393.097 18.8627 393.15 18.6251 393.15 18.3582C393.15 18.114 393.097 17.8845 392.989 17.6697C392.885 17.4548 392.719 17.2823 392.491 17.1521C392.263 17.0186 391.965 16.9519 391.598 16.9519H389.918V23.2898H388.976V16.1804H391.598C392.135 16.1804 392.589 16.2732 392.96 16.4587C393.331 16.6443 393.613 16.9014 393.805 17.2302C393.997 17.5557 394.093 17.9285 394.093 18.3484C394.093 18.8041 393.997 19.1931 393.805 19.5154C393.613 19.8376 393.331 20.0834 392.96 20.2527C392.589 20.4187 392.135 20.5017 391.598 20.5017ZM398.204 22.3865V19.6667C398.204 19.4584 398.162 19.2778 398.077 19.1248C397.996 18.9685 397.872 18.8481 397.706 18.7634C397.54 18.6788 397.335 18.6365 397.091 18.6365C396.863 18.6365 396.663 18.6755 396.49 18.7537C396.321 18.8318 396.188 18.9343 396.09 19.0613C395.995 19.1882 395.948 19.325 395.948 19.4714H395.045C395.045 19.2826 395.094 19.0955 395.191 18.9099C395.289 18.7244 395.429 18.5567 395.611 18.407C395.797 18.254 396.018 18.1335 396.275 18.0457C396.536 17.9545 396.826 17.9089 397.145 17.9089C397.529 17.9089 397.867 17.974 398.16 18.1042C398.456 18.2345 398.688 18.4314 398.854 18.6951C399.023 18.9555 399.107 19.2826 399.107 19.6765V22.1375C399.107 22.3132 399.122 22.5004 399.151 22.699C399.184 22.8975 399.231 23.0684 399.293 23.2117V23.2898H398.351C398.305 23.1856 398.269 23.0473 398.243 22.8748C398.217 22.699 398.204 22.5362 398.204 22.3865ZM398.36 20.0867L398.37 20.7214H397.457C397.2 20.7214 396.97 20.7426 396.769 20.7849C396.567 20.824 396.397 20.8842 396.261 20.9656C396.124 21.047 396.02 21.1495 395.948 21.2732C395.877 21.3936 395.841 21.5352 395.841 21.698C395.841 21.864 395.878 22.0154 395.953 22.1521C396.028 22.2888 396.14 22.3979 396.29 22.4792C396.443 22.5574 396.63 22.5964 396.852 22.5964C397.128 22.5964 397.372 22.5378 397.584 22.4207C397.796 22.3035 397.963 22.1602 398.087 21.991C398.214 21.8217 398.282 21.6573 398.292 21.4978L398.678 21.9324C398.655 22.0691 398.593 22.2205 398.492 22.3865C398.391 22.5525 398.256 22.712 398.087 22.865C397.921 23.0147 397.722 23.1401 397.491 23.241C397.263 23.3386 397.006 23.3875 396.72 23.3875C396.362 23.3875 396.048 23.3175 395.777 23.1775C395.51 23.0375 395.302 22.8503 395.152 22.616C395.006 22.3783 394.933 22.113 394.933 21.8201C394.933 21.5369 394.988 21.2878 395.099 21.073C395.209 20.8549 395.369 20.6742 395.577 20.531C395.785 20.3845 396.036 20.2738 396.329 20.199C396.622 20.1241 396.949 20.0867 397.311 20.0867H398.36ZM401.51 15.7898V23.2898H400.602V15.7898H401.51ZM403.858 19.0564V23.2898H402.95V18.0066H403.81L403.858 19.0564ZM403.673 20.448L403.253 20.4333C403.256 20.072 403.303 19.7384 403.395 19.4324C403.486 19.1231 403.621 18.8546 403.8 18.6267C403.979 18.3988 404.202 18.2231 404.469 18.0994C404.736 17.9724 405.045 17.9089 405.396 17.9089C405.644 17.9089 405.872 17.9447 406.08 18.0164C406.288 18.0847 406.469 18.1938 406.622 18.3435C406.775 18.4932 406.894 18.6853 406.979 18.9197C407.063 19.1541 407.105 19.4373 407.105 19.7693V23.2898H406.202V19.8132C406.202 19.5365 406.155 19.3152 406.061 19.1492C405.969 18.9832 405.839 18.8627 405.67 18.7878C405.501 18.7097 405.302 18.6707 405.074 18.6707C404.807 18.6707 404.584 18.7179 404.405 18.8123C404.226 18.9067 404.083 19.0369 403.976 19.2029C403.868 19.3689 403.79 19.5593 403.741 19.7742C403.696 19.9858 403.673 20.2104 403.673 20.448ZM407.096 19.95L406.49 20.1355C406.493 19.8458 406.541 19.5675 406.632 19.3005C406.726 19.0336 406.861 18.796 407.037 18.5876C407.216 18.3793 407.436 18.2149 407.696 18.0945C407.957 17.9708 408.255 17.9089 408.59 17.9089C408.873 17.9089 409.124 17.9464 409.342 18.0212C409.563 18.0961 409.749 18.2117 409.898 18.3679C410.051 18.5209 410.167 18.7179 410.245 18.9587C410.323 19.1996 410.362 19.4861 410.362 19.8181V23.2898H409.454V19.8083C409.454 19.5121 409.407 19.2826 409.312 19.1199C409.221 18.9539 409.091 18.8383 408.922 18.7732C408.756 18.7048 408.557 18.6707 408.326 18.6707C408.128 18.6707 407.952 18.7048 407.799 18.7732C407.646 18.8416 407.517 18.936 407.413 19.0564C407.309 19.1736 407.229 19.3087 407.174 19.4617C407.122 19.6147 407.096 19.7774 407.096 19.95ZM413.922 23.3875C413.554 23.3875 413.22 23.3256 412.921 23.2019C412.625 23.075 412.369 22.8975 412.154 22.6697C411.943 22.4418 411.78 22.1716 411.666 21.8591C411.552 21.5466 411.495 21.2048 411.495 20.8337V20.6287C411.495 20.199 411.559 19.8165 411.686 19.4812C411.812 19.1427 411.985 18.8562 412.203 18.6218C412.421 18.3875 412.669 18.21 412.945 18.0896C413.222 17.9692 413.508 17.9089 413.805 17.9089C414.182 17.9089 414.508 17.974 414.781 18.1042C415.058 18.2345 415.284 18.4167 415.46 18.6511C415.636 18.8822 415.766 19.1557 415.851 19.4714C415.935 19.7839 415.978 20.1257 415.978 20.4968V20.9021H412.032V20.1648H415.074V20.0964C415.061 19.8621 415.012 19.6342 414.928 19.4128C414.846 19.1915 414.716 19.0092 414.537 18.866C414.358 18.7227 414.114 18.6511 413.805 18.6511C413.6 18.6511 413.411 18.6951 413.238 18.783C413.066 18.8676 412.918 18.9945 412.794 19.1638C412.67 19.3331 412.574 19.5398 412.506 19.7839C412.438 20.0281 412.403 20.3097 412.403 20.6287V20.8337C412.403 21.0844 412.438 21.3204 412.506 21.5417C412.577 21.7598 412.68 21.9519 412.813 22.1179C412.95 22.2839 413.115 22.4141 413.307 22.5085C413.502 22.6029 413.723 22.6501 413.971 22.6501C414.29 22.6501 414.56 22.585 414.781 22.4548C415.003 22.3246 415.196 22.1505 415.362 21.9324L415.909 22.3669C415.795 22.5395 415.65 22.7039 415.475 22.8601C415.299 23.0164 415.082 23.1433 414.825 23.241C414.571 23.3386 414.27 23.3875 413.922 23.3875ZM417.936 18.8367V23.2898H417.032V18.0066H417.911L417.936 18.8367ZM419.586 17.9773L419.581 18.8171C419.506 18.8009 419.435 18.7911 419.366 18.7878C419.301 18.7813 419.226 18.7781 419.142 18.7781C418.933 18.7781 418.749 18.8106 418.59 18.8757C418.43 18.9408 418.295 19.032 418.185 19.1492C418.074 19.2664 417.986 19.4063 417.921 19.5691C417.859 19.7286 417.818 19.9044 417.799 20.0964L417.545 20.2429C417.545 19.9239 417.576 19.6244 417.638 19.3445C417.703 19.0645 417.802 18.8171 417.936 18.6023C418.069 18.3842 418.238 18.2149 418.443 18.0945C418.652 17.9708 418.899 17.9089 419.186 17.9089C419.251 17.9089 419.326 17.9171 419.41 17.9333C419.495 17.9464 419.553 17.961 419.586 17.9773Z" fill="#32375E"/>
<g opacity="0.9">
<path d="M512.836 16.1804V23.2898H511.894V16.1804H512.836ZM515.316 19.1345V23.2898H514.413V18.0066H515.268L515.316 19.1345ZM515.102 20.448L514.726 20.4333C514.729 20.072 514.783 19.7384 514.887 19.4324C514.991 19.1231 515.137 18.8546 515.326 18.6267C515.515 18.3988 515.74 18.2231 516 18.0994C516.264 17.9724 516.555 17.9089 516.874 17.9089C517.134 17.9089 517.369 17.9447 517.577 18.0164C517.785 18.0847 517.963 18.1954 518.109 18.3484C518.259 18.5014 518.373 18.7 518.451 18.9441C518.529 19.185 518.568 19.4796 518.568 19.8279V23.2898H517.66V19.8181C517.66 19.5414 517.619 19.3201 517.538 19.1541C517.457 18.9848 517.338 18.8627 517.182 18.7878C517.025 18.7097 516.833 18.6707 516.605 18.6707C516.381 18.6707 516.176 18.7179 515.99 18.8123C515.808 18.9067 515.65 19.0369 515.517 19.2029C515.386 19.3689 515.284 19.5593 515.209 19.7742C515.137 19.9858 515.102 20.2104 515.102 20.448ZM523.017 21.8884C523.017 21.7582 522.987 21.6378 522.929 21.5271C522.873 21.4132 522.758 21.3106 522.582 21.2195C522.41 21.1251 522.149 21.0437 521.801 20.9753C521.508 20.9135 521.243 20.8403 521.005 20.7556C520.771 20.671 520.57 20.5684 520.404 20.448C520.242 20.3276 520.116 20.186 520.028 20.0232C519.94 19.8604 519.896 19.67 519.896 19.4519C519.896 19.2436 519.942 19.0466 520.033 18.8611C520.128 18.6755 520.259 18.5111 520.429 18.3679C520.601 18.2247 520.808 18.1124 521.049 18.031C521.29 17.9496 521.558 17.9089 521.854 17.9089C522.278 17.9089 522.639 17.9838 522.938 18.1335C523.238 18.2833 523.467 18.4835 523.627 18.7341C523.786 18.9815 523.866 19.2566 523.866 19.5593H522.963C522.963 19.4128 522.919 19.2712 522.831 19.1345C522.746 18.9945 522.621 18.879 522.455 18.7878C522.292 18.6967 522.092 18.6511 521.854 18.6511C521.604 18.6511 521.4 18.6902 521.244 18.7683C521.091 18.8432 520.979 18.9392 520.907 19.0564C520.839 19.1736 520.805 19.2973 520.805 19.4275C520.805 19.5251 520.821 19.613 520.854 19.6912C520.889 19.766 520.951 19.836 521.039 19.9011C521.127 19.963 521.251 20.0216 521.41 20.0769C521.57 20.1322 521.773 20.1876 522.021 20.2429C522.453 20.3406 522.81 20.4578 523.09 20.5945C523.37 20.7312 523.578 20.8988 523.715 21.0974C523.852 21.296 523.92 21.5369 523.92 21.8201C523.92 22.0512 523.871 22.2628 523.773 22.4548C523.679 22.6469 523.541 22.8129 523.358 22.9529C523.179 23.0896 522.965 23.197 522.714 23.2751C522.466 23.35 522.188 23.3875 521.879 23.3875C521.413 23.3875 521.02 23.3044 520.697 23.1384C520.375 22.9724 520.131 22.7576 519.965 22.4939C519.799 22.2302 519.716 21.9519 519.716 21.6589H520.624C520.637 21.9063 520.709 22.1033 520.839 22.2498C520.969 22.393 521.129 22.4955 521.317 22.5574C521.506 22.616 521.693 22.6453 521.879 22.6453C522.126 22.6453 522.333 22.6127 522.499 22.5476C522.668 22.4825 522.797 22.393 522.885 22.2791C522.973 22.1651 523.017 22.0349 523.017 21.8884ZM527.318 18.0066V18.7H524.462V18.0066H527.318ZM525.429 16.7224H526.332V21.9812C526.332 22.1602 526.36 22.2953 526.415 22.3865C526.47 22.4776 526.542 22.5378 526.63 22.5671C526.718 22.5964 526.812 22.6111 526.913 22.6111C526.988 22.6111 527.066 22.6046 527.147 22.5916C527.232 22.5753 527.296 22.5623 527.338 22.5525L527.343 23.2898C527.271 23.3126 527.177 23.3337 527.06 23.3533C526.946 23.3761 526.807 23.3875 526.645 23.3875C526.423 23.3875 526.22 23.3435 526.034 23.2556C525.849 23.1677 525.701 23.0212 525.59 22.8162C525.482 22.6078 525.429 22.3279 525.429 21.9763V16.7224ZM531.493 22.3865V19.6667C531.493 19.4584 531.451 19.2778 531.366 19.1248C531.285 18.9685 531.161 18.8481 530.995 18.7634C530.829 18.6788 530.624 18.6365 530.38 18.6365C530.152 18.6365 529.952 18.6755 529.779 18.7537C529.61 18.8318 529.477 18.9343 529.379 19.0613C529.285 19.1882 529.237 19.325 529.237 19.4714H528.334C528.334 19.2826 528.383 19.0955 528.48 18.9099C528.578 18.7244 528.718 18.5567 528.9 18.407C529.086 18.254 529.307 18.1335 529.564 18.0457C529.825 17.9545 530.115 17.9089 530.434 17.9089C530.818 17.9089 531.156 17.974 531.449 18.1042C531.745 18.2345 531.977 18.4314 532.143 18.6951C532.312 18.9555 532.396 19.2826 532.396 19.6765V22.1375C532.396 22.3132 532.411 22.5004 532.44 22.699C532.473 22.8975 532.52 23.0684 532.582 23.2117V23.2898H531.64C531.594 23.1856 531.558 23.0473 531.532 22.8748C531.506 22.699 531.493 22.5362 531.493 22.3865ZM531.649 20.0867L531.659 20.7214H530.746C530.489 20.7214 530.259 20.7426 530.058 20.7849C529.856 20.824 529.687 20.8842 529.55 20.9656C529.413 21.047 529.309 21.1495 529.237 21.2732C529.166 21.3936 529.13 21.5352 529.13 21.698C529.13 21.864 529.167 22.0154 529.242 22.1521C529.317 22.2888 529.429 22.3979 529.579 22.4792C529.732 22.5574 529.919 22.5964 530.141 22.5964C530.417 22.5964 530.661 22.5378 530.873 22.4207C531.085 22.3035 531.252 22.1602 531.376 21.991C531.503 21.8217 531.571 21.6573 531.581 21.4978L531.967 21.9324C531.944 22.0691 531.882 22.2205 531.781 22.3865C531.68 22.5525 531.545 22.712 531.376 22.865C531.21 23.0147 531.011 23.1401 530.78 23.241C530.552 23.3386 530.295 23.3875 530.009 23.3875C529.651 23.3875 529.337 23.3175 529.066 23.1775C528.799 23.0375 528.591 22.8503 528.441 22.616C528.295 22.3783 528.222 22.113 528.222 21.8201C528.222 21.5369 528.277 21.2878 528.388 21.073C528.498 20.8549 528.658 20.6742 528.866 20.531C529.075 20.3845 529.325 20.2738 529.618 20.199C529.911 20.1241 530.238 20.0867 530.6 20.0867H531.649ZM534.799 15.7898V23.2898H533.891V15.7898H534.799ZM537.147 19.0564V23.2898H536.239V18.0066H537.099L537.147 19.0564ZM536.962 20.448L536.542 20.4333C536.545 20.072 536.592 19.7384 536.684 19.4324C536.775 19.1231 536.91 18.8546 537.089 18.6267C537.268 18.3988 537.491 18.2231 537.758 18.0994C538.025 17.9724 538.334 17.9089 538.686 17.9089C538.933 17.9089 539.161 17.9447 539.369 18.0164C539.577 18.0847 539.758 18.1938 539.911 18.3435C540.064 18.4932 540.183 18.6853 540.268 18.9197C540.352 19.1541 540.395 19.4373 540.395 19.7693V23.2898H539.491V19.8132C539.491 19.5365 539.444 19.3152 539.35 19.1492C539.258 18.9832 539.128 18.8627 538.959 18.7878C538.79 18.7097 538.591 18.6707 538.363 18.6707C538.096 18.6707 537.873 18.7179 537.694 18.8123C537.515 18.9067 537.372 19.0369 537.265 19.2029C537.157 19.3689 537.079 19.5593 537.03 19.7742C536.985 19.9858 536.962 20.2104 536.962 20.448ZM540.385 19.95L539.779 20.1355C539.783 19.8458 539.83 19.5675 539.921 19.3005C540.015 19.0336 540.15 18.796 540.326 18.5876C540.505 18.3793 540.725 18.2149 540.985 18.0945C541.246 17.9708 541.544 17.9089 541.879 17.9089C542.162 17.9089 542.413 17.9464 542.631 18.0212C542.852 18.0961 543.038 18.2117 543.188 18.3679C543.34 18.5209 543.456 18.7179 543.534 18.9587C543.612 19.1996 543.651 19.4861 543.651 19.8181V23.2898H542.743V19.8083C542.743 19.5121 542.696 19.2826 542.602 19.1199C542.51 18.9539 542.38 18.8383 542.211 18.7732C542.045 18.7048 541.846 18.6707 541.615 18.6707C541.417 18.6707 541.241 18.7048 541.088 18.7732C540.935 18.8416 540.806 18.936 540.702 19.0564C540.598 19.1736 540.518 19.3087 540.463 19.4617C540.411 19.6147 540.385 19.7774 540.385 19.95ZM547.211 23.3875C546.843 23.3875 546.509 23.3256 546.21 23.2019C545.914 23.075 545.658 22.8975 545.443 22.6697C545.232 22.4418 545.069 22.1716 544.955 21.8591C544.841 21.5466 544.784 21.2048 544.784 20.8337V20.6287C544.784 20.199 544.848 19.8165 544.975 19.4812C545.102 19.1427 545.274 18.8562 545.492 18.6218C545.71 18.3875 545.958 18.21 546.234 18.0896C546.511 17.9692 546.798 17.9089 547.094 17.9089C547.471 17.9089 547.797 17.974 548.07 18.1042C548.347 18.2345 548.573 18.4167 548.749 18.6511C548.925 18.8822 549.055 19.1557 549.14 19.4714C549.224 19.7839 549.267 20.1257 549.267 20.4968V20.9021H545.321V20.1648H548.363V20.0964C548.35 19.8621 548.301 19.6342 548.217 19.4128C548.135 19.1915 548.005 19.0092 547.826 18.866C547.647 18.7227 547.403 18.6511 547.094 18.6511C546.889 18.6511 546.7 18.6951 546.527 18.783C546.355 18.8676 546.207 18.9945 546.083 19.1638C545.959 19.3331 545.863 19.5398 545.795 19.7839C545.727 20.0281 545.692 20.3097 545.692 20.6287V20.8337C545.692 21.0844 545.727 21.3204 545.795 21.5417C545.867 21.7598 545.969 21.9519 546.103 22.1179C546.239 22.2839 546.404 22.4141 546.596 22.5085C546.791 22.6029 547.012 22.6501 547.26 22.6501C547.579 22.6501 547.849 22.585 548.07 22.4548C548.292 22.3246 548.485 22.1505 548.651 21.9324L549.198 22.3669C549.084 22.5395 548.939 22.7039 548.764 22.8601C548.588 23.0164 548.371 23.1433 548.114 23.241C547.86 23.3386 547.559 23.3875 547.211 23.3875ZM551.225 19.1345V23.2898H550.321V18.0066H551.176L551.225 19.1345ZM551.01 20.448L550.634 20.4333C550.637 20.072 550.691 19.7384 550.795 19.4324C550.899 19.1231 551.046 18.8546 551.234 18.6267C551.423 18.3988 551.648 18.2231 551.908 18.0994C552.172 17.9724 552.463 17.9089 552.782 17.9089C553.043 17.9089 553.277 17.9447 553.485 18.0164C553.694 18.0847 553.871 18.1954 554.018 18.3484C554.167 18.5014 554.281 18.7 554.359 18.9441C554.438 19.185 554.477 19.4796 554.477 19.8279V23.2898H553.568V19.8181C553.568 19.5414 553.528 19.3201 553.446 19.1541C553.365 18.9848 553.246 18.8627 553.09 18.7878C552.934 18.7097 552.742 18.6707 552.514 18.6707C552.289 18.6707 552.084 18.7179 551.898 18.8123C551.716 18.9067 551.558 19.0369 551.425 19.2029C551.295 19.3689 551.192 19.5593 551.117 19.7742C551.046 19.9858 551.01 20.2104 551.01 20.448ZM558.061 18.0066V18.7H555.204V18.0066H558.061ZM556.171 16.7224H557.074V21.9812C557.074 22.1602 557.102 22.2953 557.157 22.3865C557.213 22.4776 557.284 22.5378 557.372 22.5671C557.46 22.5964 557.554 22.6111 557.655 22.6111C557.73 22.6111 557.808 22.6046 557.89 22.5916C557.974 22.5753 558.038 22.5623 558.08 22.5525L558.085 23.2898C558.013 23.3126 557.919 23.3337 557.802 23.3533C557.688 23.3761 557.549 23.3875 557.387 23.3875C557.165 23.3875 556.962 23.3435 556.776 23.2556C556.591 23.1677 556.443 23.0212 556.332 22.8162C556.225 22.6078 556.171 22.3279 556.171 21.9763V16.7224Z" fill="#32375E"/>
</g>
<g opacity="0.9">
<path d="M669.56 16.1414V23.2898H668.656V17.2693L666.835 17.9333V17.1179L669.418 16.1414H669.56ZM673.134 22.2156V22.9431C673.134 23.2393 673.059 23.5518 672.909 23.8806C672.759 24.2126 672.549 24.4893 672.279 24.7107L671.767 24.3542C671.871 24.211 671.959 24.0645 672.03 23.9148C672.102 23.7683 672.156 23.6153 672.191 23.4558C672.23 23.2996 672.25 23.1335 672.25 22.9578V22.2156H673.134ZM675.507 19.2908H676.151C676.467 19.2908 676.728 19.2387 676.933 19.1345C677.141 19.0271 677.296 18.8822 677.396 18.7C677.501 18.5144 677.553 18.3061 677.553 18.075C677.553 17.8015 677.507 17.572 677.416 17.3865C677.325 17.2009 677.188 17.061 677.006 16.9666C676.824 16.8722 676.592 16.825 676.312 16.825C676.059 16.825 675.834 16.8754 675.639 16.9763C675.447 17.074 675.295 17.2139 675.185 17.3962C675.077 17.5785 675.023 17.7934 675.023 18.0408H674.12C674.12 17.6794 674.211 17.3507 674.394 17.0544C674.576 16.7582 674.831 16.5222 675.16 16.3464C675.492 16.1707 675.876 16.0828 676.312 16.0828C676.742 16.0828 677.118 16.1593 677.44 16.3123C677.763 16.462 678.013 16.6866 678.192 16.9861C678.371 17.2823 678.461 17.6518 678.461 18.0945C678.461 18.2735 678.419 18.4656 678.334 18.6707C678.253 18.8725 678.124 19.0613 677.948 19.2371C677.776 19.4128 677.551 19.5577 677.274 19.6716C676.998 19.7823 676.666 19.8376 676.278 19.8376H675.507V19.2908ZM675.507 20.033V19.491H676.278C676.731 19.491 677.105 19.5447 677.401 19.6521C677.698 19.7595 677.93 19.9028 678.1 20.0818C678.272 20.2608 678.393 20.4578 678.461 20.6726C678.533 20.8842 678.568 21.0958 678.568 21.3074C678.568 21.6394 678.511 21.934 678.397 22.1912C678.287 22.4483 678.129 22.6664 677.924 22.8455C677.722 23.0245 677.484 23.1596 677.211 23.2507C676.938 23.3419 676.64 23.3875 676.317 23.3875C676.008 23.3875 675.717 23.3435 675.443 23.2556C675.173 23.1677 674.934 23.0408 674.726 22.8748C674.517 22.7055 674.354 22.4988 674.237 22.2546C674.12 22.0072 674.062 21.7257 674.062 21.4099H674.965C674.965 21.6573 675.019 21.8738 675.126 22.0593C675.237 22.2449 675.393 22.3897 675.595 22.4939C675.8 22.5948 676.041 22.6453 676.317 22.6453C676.594 22.6453 676.832 22.5981 677.03 22.5037C677.232 22.406 677.387 22.2595 677.494 22.0642C677.605 21.8689 677.66 21.6231 677.66 21.3269C677.66 21.0307 677.598 20.7882 677.475 20.5994C677.351 20.4073 677.175 20.2657 676.947 20.1746C676.723 20.0802 676.457 20.033 676.151 20.033H675.507ZM684.408 16.1804V16.6882L681.464 23.2898H680.512L683.451 16.9226H679.604V16.1804H684.408ZM690.243 20.8972V21.6394H685.106V21.1072L688.29 16.1804H689.027L688.236 17.6062L686.132 20.8972H690.243ZM689.252 16.1804V23.2898H688.349V16.1804H689.252ZM691.176 22.8113C691.176 22.6583 691.223 22.5297 691.317 22.4255C691.415 22.3181 691.555 22.2644 691.737 22.2644C691.92 22.2644 692.058 22.3181 692.152 22.4255C692.25 22.5297 692.299 22.6583 692.299 22.8113C692.299 22.961 692.25 23.088 692.152 23.1921C692.058 23.2963 691.92 23.3484 691.737 23.3484C691.555 23.3484 691.415 23.2963 691.317 23.1921C691.223 23.088 691.176 22.961 691.176 22.8113ZM696.669 16.1414V23.2898H695.766V17.2693L693.944 17.9333V17.1179L696.527 16.1414H696.669ZM703.788 19.1687V20.2527C703.788 20.8354 703.736 21.3269 703.632 21.7273C703.528 22.1277 703.378 22.45 703.183 22.6941C702.987 22.9382 702.751 23.1156 702.475 23.2263C702.201 23.3337 701.892 23.3875 701.547 23.3875C701.273 23.3875 701.021 23.3533 700.79 23.2849C700.559 23.2166 700.351 23.1075 700.165 22.9578C699.983 22.8048 699.826 22.6062 699.696 22.3621C699.566 22.1179 699.467 21.8217 699.398 21.4734C699.33 21.1251 699.296 20.7182 699.296 20.2527V19.1687C699.296 18.586 699.348 18.0977 699.452 17.7039C699.56 17.31 699.711 16.9942 699.906 16.7566C700.102 16.5157 700.336 16.3432 700.609 16.239C700.886 16.1348 701.195 16.0828 701.537 16.0828C701.814 16.0828 702.068 16.1169 702.299 16.1853C702.533 16.2504 702.742 16.3562 702.924 16.5027C703.106 16.6459 703.261 16.838 703.388 17.0789C703.518 17.3165 703.617 17.6078 703.686 17.9529C703.754 18.2979 703.788 18.7032 703.788 19.1687ZM702.88 20.3992V19.0173C702.88 18.6983 702.86 18.4184 702.821 18.1775C702.785 17.9333 702.732 17.725 702.66 17.5525C702.589 17.38 702.497 17.24 702.387 17.1326C702.279 17.0251 702.154 16.947 702.011 16.8982C701.871 16.8461 701.713 16.8201 701.537 16.8201C701.322 16.8201 701.132 16.8608 700.966 16.9421C700.8 17.0203 700.66 17.1456 700.546 17.3181C700.435 17.4906 700.351 17.7169 700.292 17.9968C700.233 18.2768 700.204 18.6169 700.204 19.0173V20.3992C700.204 20.7182 700.222 20.9998 700.258 21.2439C700.297 21.488 700.354 21.6996 700.429 21.8787C700.504 22.0544 700.595 22.1993 700.702 22.3132C700.81 22.4272 700.933 22.5118 701.073 22.5671C701.216 22.6192 701.374 22.6453 701.547 22.6453C701.768 22.6453 701.962 22.6029 702.128 22.5183C702.294 22.4337 702.432 22.3018 702.543 22.1228C702.657 21.9405 702.742 21.7078 702.797 21.4246C702.852 21.1381 702.88 20.7963 702.88 20.3992Z" fill="#32375E"/>
</g>
<g opacity="0.9">
<path d="M725.893 16.1804H726.83V20.99C726.83 21.5238 726.711 21.9682 726.474 22.323C726.236 22.6778 725.92 22.9447 725.526 23.1238C725.136 23.2996 724.711 23.3875 724.252 23.3875C723.77 23.3875 723.334 23.2996 722.943 23.1238C722.556 22.9447 722.248 22.6778 722.021 22.323C721.796 21.9682 721.684 21.5238 721.684 20.99V16.1804H722.616V20.99C722.616 21.3611 722.685 21.6671 722.821 21.908C722.958 22.1488 723.148 22.3279 723.393 22.4451C723.64 22.5623 723.926 22.6208 724.252 22.6208C724.581 22.6208 724.867 22.5623 725.111 22.4451C725.359 22.3279 725.551 22.1488 725.688 21.908C725.824 21.6671 725.893 21.3611 725.893 20.99V16.1804ZM732.099 21.4929C732.099 21.3269 732.073 21.1804 732.021 21.0535C731.972 20.9233 731.884 20.8061 731.757 20.7019C731.633 20.5977 731.461 20.4985 731.239 20.4041C731.021 20.3097 730.744 20.2136 730.409 20.116C730.058 20.0118 729.74 19.8962 729.457 19.7693C729.174 19.6391 728.931 19.491 728.729 19.325C728.528 19.1589 728.373 18.9685 728.266 18.7537C728.158 18.5388 728.104 18.2931 728.104 18.0164C728.104 17.7397 728.161 17.4841 728.275 17.2498C728.389 17.0154 728.552 16.8119 728.764 16.6394C728.979 16.4636 729.234 16.3269 729.53 16.2292C729.826 16.1316 730.157 16.0828 730.521 16.0828C731.055 16.0828 731.508 16.1853 731.879 16.3904C732.253 16.5922 732.538 16.8575 732.733 17.1863C732.929 17.5118 733.026 17.8601 733.026 18.2312H732.089C732.089 17.9643 732.032 17.7283 731.918 17.5232C731.804 17.3149 731.632 17.1521 731.4 17.0349C731.169 16.9145 730.876 16.8542 730.521 16.8542C730.186 16.8542 729.91 16.9047 729.691 17.0056C729.473 17.1065 729.311 17.2432 729.203 17.4158C729.099 17.5883 729.047 17.7852 729.047 18.0066C729.047 18.1563 729.078 18.2931 729.14 18.4167C729.205 18.5372 729.304 18.6495 729.438 18.7537C729.574 18.8578 729.747 18.9539 729.955 19.0417C730.167 19.1296 730.419 19.2143 730.712 19.2957C731.116 19.4096 731.464 19.5365 731.757 19.6765C732.05 19.8165 732.291 19.9744 732.479 20.1501C732.672 20.3227 732.813 20.5196 732.904 20.741C732.999 20.9591 733.046 21.2065 733.046 21.4832C733.046 21.7729 732.987 22.0349 732.87 22.2693C732.753 22.5037 732.585 22.7039 732.367 22.8699C732.149 23.0359 731.887 23.1645 731.581 23.2556C731.278 23.3435 730.94 23.3875 730.565 23.3875C730.237 23.3875 729.913 23.3419 729.594 23.2507C729.278 23.1596 728.99 23.0229 728.729 22.8406C728.472 22.6583 728.266 22.4337 728.109 22.1667C727.956 21.8966 727.88 21.5841 727.88 21.2292H728.817C728.817 21.4734 728.865 21.6833 728.959 21.8591C729.053 22.0317 729.182 22.1749 729.345 22.2888C729.511 22.4028 729.698 22.4874 729.906 22.5427C730.118 22.5948 730.338 22.6208 730.565 22.6208C730.894 22.6208 731.173 22.5753 731.4 22.4841C731.628 22.393 731.801 22.2628 731.918 22.0935C732.038 21.9242 732.099 21.724 732.099 21.4929ZM736.171 23.2898H734.687L734.696 22.5232H736.171C736.679 22.5232 737.102 22.4174 737.44 22.2058C737.779 21.991 738.033 21.6915 738.202 21.3074C738.375 20.92 738.461 20.4675 738.461 19.95V19.5154C738.461 19.1085 738.412 18.7472 738.314 18.4314C738.217 18.1124 738.074 17.8438 737.885 17.6257C737.696 17.4044 737.465 17.2367 737.191 17.1228C736.921 17.0089 736.61 16.9519 736.259 16.9519H734.657V16.1804H736.259C736.724 16.1804 737.149 16.2585 737.533 16.4148C737.917 16.5678 738.248 16.7908 738.524 17.0837C738.804 17.3735 739.019 17.725 739.169 18.1384C739.319 18.5486 739.394 19.0108 739.394 19.5251V19.95C739.394 20.4643 739.319 20.9281 739.169 21.3416C739.019 21.7517 738.803 22.1016 738.52 22.3914C738.24 22.6811 737.901 22.9041 737.504 23.0603C737.11 23.2133 736.666 23.2898 736.171 23.2898ZM735.189 16.1804V23.2898H734.247V16.1804H735.189Z" fill="#32375E"/>
</g>
<g opacity="0.9">
<path d="M807.909 19.2908H808.554C808.869 19.2908 809.13 19.2387 809.335 19.1345C809.543 19.0271 809.698 18.8822 809.799 18.7C809.903 18.5144 809.955 18.3061 809.955 18.075C809.955 17.8015 809.91 17.572 809.818 17.3865C809.727 17.2009 809.59 17.061 809.408 16.9666C809.226 16.8722 808.995 16.825 808.715 16.825C808.461 16.825 808.236 16.8754 808.041 16.9763C807.849 17.074 807.698 17.2139 807.587 17.3962C807.479 17.5785 807.426 17.7934 807.426 18.0408H806.522C806.522 17.6794 806.614 17.3507 806.796 17.0544C806.978 16.7582 807.234 16.5222 807.562 16.3464C807.895 16.1707 808.279 16.0828 808.715 16.0828C809.145 16.0828 809.521 16.1593 809.843 16.3123C810.165 16.462 810.416 16.6866 810.595 16.9861C810.774 17.2823 810.863 17.6518 810.863 18.0945C810.863 18.2735 810.821 18.4656 810.736 18.6707C810.655 18.8725 810.526 19.0613 810.351 19.2371C810.178 19.4128 809.953 19.5577 809.677 19.6716C809.4 19.7823 809.068 19.8376 808.681 19.8376H807.909V19.2908ZM807.909 20.033V19.491H808.681C809.133 19.491 809.507 19.5447 809.804 19.6521C810.1 19.7595 810.333 19.9028 810.502 20.0818C810.674 20.2608 810.795 20.4578 810.863 20.6726C810.935 20.8842 810.971 21.0958 810.971 21.3074C810.971 21.6394 810.914 21.934 810.8 22.1912C810.689 22.4483 810.531 22.6664 810.326 22.8455C810.124 23.0245 809.887 23.1596 809.613 23.2507C809.34 23.3419 809.042 23.3875 808.72 23.3875C808.41 23.3875 808.119 23.3435 807.846 23.2556C807.576 23.1677 807.336 23.0408 807.128 22.8748C806.92 22.7055 806.757 22.4988 806.64 22.2546C806.522 22.0072 806.464 21.7257 806.464 21.4099H807.367C807.367 21.6573 807.421 21.8738 807.528 22.0593C807.639 22.2449 807.795 22.3897 807.997 22.4939C808.202 22.5948 808.443 22.6453 808.72 22.6453C808.996 22.6453 809.234 22.5981 809.433 22.5037C809.634 22.406 809.789 22.2595 809.896 22.0642C810.007 21.8689 810.062 21.6231 810.062 21.3269C810.062 21.0307 810.001 20.7882 809.877 20.5994C809.753 20.4073 809.577 20.2657 809.35 20.1746C809.125 20.0802 808.86 20.033 808.554 20.033H807.909ZM815.458 16.1804L812.494 23.9001H811.718L814.687 16.1804H815.458ZM819.315 16.1414V23.2898H818.412V17.2693L816.591 17.9333V17.1179L819.174 16.1414H819.315ZM824.94 16.1414V23.2898H824.037V17.2693L822.216 17.9333V17.1179L824.799 16.1414H824.94Z" fill="#32375E"/>
</g>
<g opacity="0.9">
<path d="M891.058 16.1707H891.136V16.9373H891.058C890.579 16.9373 890.179 17.0154 889.856 17.1716C889.534 17.3246 889.279 17.5313 889.09 17.7917C888.901 18.0489 888.764 18.3386 888.68 18.6609C888.598 18.9832 888.558 19.3103 888.558 19.6423V20.6873C888.558 21.003 888.595 21.283 888.67 21.5271C888.745 21.768 888.847 21.9714 888.978 22.1375C889.108 22.3035 889.254 22.4288 889.417 22.5134C889.583 22.5981 889.756 22.6404 889.935 22.6404C890.143 22.6404 890.328 22.6013 890.491 22.5232C890.654 22.4418 890.791 22.3295 890.901 22.1863C891.015 22.0398 891.102 21.8673 891.16 21.6687C891.219 21.4701 891.248 21.252 891.248 21.0144C891.248 20.8028 891.222 20.5994 891.17 20.4041C891.118 20.2055 891.038 20.0297 890.931 19.8767C890.823 19.7205 890.688 19.5984 890.525 19.5105C890.366 19.4194 890.175 19.3738 889.954 19.3738C889.703 19.3738 889.469 19.4356 889.251 19.5593C889.036 19.6798 888.859 19.8393 888.719 20.0378C888.582 20.2332 888.504 20.4464 888.484 20.6775L888.006 20.6726C888.051 20.308 888.136 19.9972 888.26 19.74C888.387 19.4796 888.543 19.268 888.729 19.1052C888.917 18.9392 889.127 18.8188 889.358 18.7439C889.593 18.6658 889.84 18.6267 890.101 18.6267C890.455 18.6267 890.761 18.6934 891.019 18.8269C891.276 18.9604 891.487 19.1394 891.653 19.364C891.819 19.5854 891.941 19.836 892.02 20.116C892.101 20.3927 892.142 20.6775 892.142 20.9705C892.142 21.3057 892.094 21.6199 892 21.9128C891.906 22.2058 891.764 22.463 891.575 22.6843C891.39 22.9057 891.16 23.0782 890.887 23.2019C890.613 23.3256 890.296 23.3875 889.935 23.3875C889.55 23.3875 889.215 23.3093 888.929 23.1531C888.642 22.9936 888.405 22.782 888.216 22.5183C888.027 22.2546 887.885 21.9617 887.791 21.6394C887.697 21.3171 887.649 20.99 887.649 20.658V20.2332C887.649 19.7319 887.7 19.2403 887.801 18.7585C887.902 18.2768 888.076 17.8406 888.323 17.45C888.574 17.0593 888.921 16.7485 889.363 16.5173C889.806 16.2862 890.371 16.1707 891.058 16.1707ZM897.811 16.1804V16.6882L894.866 23.2898H893.914L896.854 16.9226H893.006V16.1804H897.811ZM903.646 20.8972V21.6394H898.509V21.1072L901.692 16.1804H902.43L901.639 17.6062L899.534 20.8972H903.646ZM902.654 16.1804V23.2898H901.751V16.1804H902.654ZM904.578 22.8113C904.578 22.6583 904.625 22.5297 904.72 22.4255C904.817 22.3181 904.957 22.2644 905.14 22.2644C905.322 22.2644 905.46 22.3181 905.555 22.4255C905.652 22.5297 905.701 22.6583 905.701 22.8113C905.701 22.961 905.652 23.088 905.555 23.1921C905.46 23.2963 905.322 23.3484 905.14 23.3484C904.957 23.3484 904.817 23.2963 904.72 23.1921C904.625 23.088 904.578 22.961 904.578 22.8113ZM911.565 19.1687V20.2527C911.565 20.8354 911.513 21.3269 911.409 21.7273C911.305 22.1277 911.155 22.45 910.96 22.6941C910.765 22.9382 910.529 23.1156 910.252 23.2263C909.979 23.3337 909.669 23.3875 909.324 23.3875C909.051 23.3875 908.799 23.3533 908.567 23.2849C908.336 23.2166 908.128 23.1075 907.942 22.9578C907.76 22.8048 907.604 22.6062 907.474 22.3621C907.343 22.1179 907.244 21.8217 907.176 21.4734C907.107 21.1251 907.073 20.7182 907.073 20.2527V19.1687C907.073 18.586 907.125 18.0977 907.229 17.7039C907.337 17.31 907.488 16.9942 907.684 16.7566C907.879 16.5157 908.113 16.3432 908.387 16.239C908.663 16.1348 908.973 16.0828 909.314 16.0828C909.591 16.0828 909.845 16.1169 910.076 16.1853C910.311 16.2504 910.519 16.3562 910.701 16.5027C910.883 16.6459 911.038 16.838 911.165 17.0789C911.295 17.3165 911.395 17.6078 911.463 17.9529C911.531 18.2979 911.565 18.7032 911.565 19.1687ZM910.657 20.3992V19.0173C910.657 18.6983 910.638 18.4184 910.599 18.1775C910.563 17.9333 910.509 17.725 910.438 17.5525C910.366 17.38 910.275 17.24 910.164 17.1326C910.057 17.0251 909.931 16.947 909.788 16.8982C909.648 16.8461 909.49 16.8201 909.314 16.8201C909.1 16.8201 908.909 16.8608 908.743 16.9421C908.577 17.0203 908.437 17.1456 908.323 17.3181C908.213 17.4906 908.128 17.7169 908.069 17.9968C908.011 18.2768 907.981 18.6169 907.981 19.0173V20.3992C907.981 20.7182 907.999 20.9998 908.035 21.2439C908.074 21.488 908.131 21.6996 908.206 21.8787C908.281 22.0544 908.372 22.1993 908.479 22.3132C908.587 22.4272 908.711 22.5118 908.851 22.5671C908.994 22.6192 909.152 22.6453 909.324 22.6453C909.546 22.6453 909.739 22.6029 909.905 22.5183C910.071 22.4337 910.21 22.3018 910.32 22.1228C910.434 21.9405 910.519 21.7078 910.574 21.4246C910.63 21.1381 910.657 20.7963 910.657 20.3992ZM917.386 22.5476V23.2898H912.732V22.6404L915.062 20.0476C915.348 19.7286 915.569 19.4584 915.726 19.2371C915.885 19.0125 915.996 18.8123 916.058 18.6365C916.123 18.4574 916.155 18.2751 916.155 18.0896C916.155 17.8552 916.106 17.6436 916.009 17.4548C915.914 17.2628 915.774 17.1098 915.589 16.9958C915.403 16.8819 915.179 16.825 914.915 16.825C914.599 16.825 914.336 16.8868 914.124 17.0105C913.916 17.1309 913.759 17.3002 913.655 17.5183C913.551 17.7364 913.499 17.9871 913.499 18.2703H912.596C912.596 17.8699 912.684 17.5037 912.859 17.1716C913.035 16.8396 913.296 16.5759 913.641 16.3806C913.986 16.182 914.41 16.0828 914.915 16.0828C915.364 16.0828 915.748 16.1625 916.067 16.322C916.386 16.4783 916.631 16.6996 916.8 16.9861C916.972 17.2693 917.059 17.6013 917.059 17.9822C917.059 18.1905 917.023 18.4021 916.951 18.6169C916.883 18.8285 916.787 19.0401 916.663 19.2517C916.543 19.4633 916.401 19.6716 916.238 19.8767C916.079 20.0818 915.908 20.2836 915.726 20.4822L913.821 22.5476H917.386Z" fill="#32375E"/>
</g>
</svg>
