<svg xmlns="http://www.w3.org/2000/svg" fill="none" viewBox="0 0 50 50"><g clip-path="url(#a)"><path fill="#48A0DC" d="M27 46c10.494 0 19-8.506 19-19 0-10.493-8.506-19-19-19C16.507 8 8 16.507 8 27c0 10.494 8.507 19 19 19z"/><path fill="#fff" d="m27.654 26.482 5.821-3.637c.423-.264.654-.712.654-1.17v-2.989L27 23.14l-7.129-4.454v9.407c0 2.587 1.162 4.682 3.07 5.872l4.06 2.537 4.057-2.537c1.908-1.19 3.07-3.285 3.07-5.872V23.89l-7.127 4.453v-.69c-.002-.457.23-.906.652-1.17z"/></g><defs><clipPath id="a"><path fill="#fff" d="M0 0H38.001V38H0z" transform="translate(8 8)"/></clipPath></defs></svg>