<svg xmlns="http://www.w3.org/2000/svg" fill="none" viewBox="0 0 104 24"><path fill="#32375E" d="M33.053 17.555V6.095h4.504v11.45l-4.504.01zm19.16-.01v-6.35c0-4.08-2.168-5.349-4.705-5.377-1.268-.02-2.776.39-3.794 1.525l-.2-1.249h-3.975v11.451h4.434V11.52c0-1.506.999-2.202 2.068-2.202.828 0 1.677.486 1.677 1.897v6.331h4.494zm1.603.82c-.24 3.5 2.167 5.635 6.482 5.635 3.435 0 6.82-1.392 6.82-5.1 0-.63-.15-2.251-2.366-3.452 1.388-.954 2.167-2.365 2.187-3.805a4.136 4.136 0 0 0-1.149-3.08L67.358 6.8l-3.236-2.203c-.389.487-.878 1.068-1.288 1.574a7.617 7.617 0 0 0-2.487-.439c-3.724 0-6.7 2.27-6.7 5.864 0 3.546 2.656 5.768 6.7 5.768 1.628 0 2.168.696 2.168 1.526 0 1.115-1.049 1.649-2.217 1.649-1.189 0-2.317-.39-2.267-2.174h-4.215zm6.531-9.134c1.319 0 2.267 1.068 2.267 2.365 0 1.525-1.068 2.25-2.267 2.25-1.318 0-2.336-.877-2.336-2.25 0-1.535 1.018-2.365 2.336-2.365zm14.27 9.134C74.377 21.865 76.784 24 81.1 24c3.435 0 6.82-1.392 6.82-5.1 0-.63-.15-2.251-2.366-3.452 1.388-.954 2.167-2.365 2.187-3.805a4.136 4.136 0 0 0-1.149-3.08L88.15 6.8l-3.225-2.203c-.39.487-.88 1.068-1.289 1.574a7.617 7.617 0 0 0-2.486-.439c-3.725 0-6.701 2.27-6.701 5.864 0 3.546 2.656 5.768 6.7 5.768 1.628 0 2.168.696 2.168 1.526 0 1.115-1.049 1.649-2.217 1.649-1.199 0-2.317-.39-2.267-2.174h-4.215zm6.532-9.134c1.318 0 2.266 1.068 2.266 2.365 0 1.525-1.068 2.25-2.266 2.25-1.319 0-2.337-.877-2.337-2.25-.01-1.535 1.018-2.365 2.337-2.365zm8.468 9.134c-.24 3.5 2.167 5.635 6.481 5.635 3.436 0 6.821-1.392 6.821-5.1 0-.63-.15-2.251-2.367-3.452 1.389-.954 2.168-2.365 2.187-3.805a4.135 4.135 0 0 0-1.148-3.08l1.558-1.763-3.226-2.203c-.39.487-.879 1.068-1.288 1.574a7.617 7.617 0 0 0-2.487-.439c-3.725 0-6.7 2.27-6.7 5.864 0 3.546 2.656 5.768 6.7 5.768 1.628 0 2.167.696 2.167 1.526 0 1.115-1.048 1.649-2.217 1.649-1.198 0-2.316-.39-2.266-2.174h-4.215zm6.531-9.134c1.319 0 2.267 1.068 2.267 2.365 0 1.525-1.068 2.25-2.267 2.25-1.318 0-2.337-.877-2.337-2.25 0-1.535 1.02-2.365 2.337-2.365zM26.944 0v17.555l4.504-.01V0h-4.504zM20.93 0v17.555l4.503-.01V0H20.93zM14.884 6.094v11.46l4.504-.009V6.095h-4.504zM0 0v17.595l4.327-.007V0H0z"/><path fill="#32375E" fill-rule="evenodd" d="M0 11.82c0-3.595 2.976-5.864 6.701-5.864h.053c3.725 0 6.701 2.27 6.701 5.864 0 3.547-2.84 5.768-6.7 5.768H6.7C2.841 17.588 0 15.367 0 11.82zm6.786-2.185c1.388 0 2.387 1.068 2.387 2.365 0 1.525-1.125 2.25-2.387 2.25-1.387 0-2.46-.877-2.46-2.25 0-1.536 1.073-2.365 2.46-2.365z" clip-rule="evenodd"/><path fill="#3F7BDA" stroke="#3F7BDA" d="M70.687 9.785c.533 0 .895.195 1.129.46.242.275.373.655.373 1.053-.001.398-.135.78-.378 1.055-.235.266-.597.46-1.124.46-.514 0-.869-.192-1.102-.458a1.627 1.627 0 0 1-.377-1.059c-.002-.399.127-.78.365-1.053.23-.264.586-.458 1.114-.458z"/></svg>