<svg xmlns="http://www.w3.org/2000/svg" fill="none" viewBox="0 0 57 12"><path fill="#fff" d="M9.158 4.92h.437c.116 0 .228.05.31.138a.49.49 0 0 1 .128.333v4.71a.49.49 0 0 1-.128.332.422.422 0 0 1-.31.138h-7a.422.422 0 0 1-.31-.138.49.49 0 0 1-.127-.333V5.39a.49.49 0 0 1 .128-.332.422.422 0 0 1 .31-.138h.437v-.471c0-.433.079-.862.233-1.262.154-.4.38-.763.664-1.07.284-.305.622-.548.993-.714a2.875 2.875 0 0 1 2.344 0c.372.166.71.409.994.715.284.306.51.67.664 1.07.153.4.233.828.233 1.26v.472zm-.875 0v-.471a2.45 2.45 0 0 0-.641-1.665 2.112 2.112 0 0 0-1.547-.69c-.58 0-1.136.248-1.547.69a2.45 2.45 0 0 0-.64 1.665v.47h4.375zM5.658 6.804v1.883h.875V6.804h-.875zM15.345 9.354V2.08h.838v2.685h.071c.062-.095.147-.216.256-.362a1.5 1.5 0 0 1 .476-.398c.208-.118.49-.178.845-.178.46 0 .864.115 1.215.345.35.23.623.555.82.976.196.422.295.919.295 1.492 0 .578-.099 1.078-.295 1.502a2.325 2.325 0 0 1-.817.98c-.348.23-.75.345-1.204.345-.35 0-.63-.058-.841-.174a1.56 1.56 0 0 1-.487-.402 5.401 5.401 0 0 1-.263-.376h-.1v.838h-.809zm.824-2.727c0 .412.06.775.181 1.09.12.312.297.557.53.735.231.175.515.263.852.263.35 0 .642-.093.877-.277.236-.187.414-.438.532-.753.121-.317.182-.67.182-1.058 0-.384-.06-.73-.178-1.037a1.602 1.602 0 0 0-.53-.735c-.234-.183-.528-.274-.883-.274-.341 0-.628.087-.86.26-.232.17-.407.409-.525.717a2.95 2.95 0 0 0-.178 1.069zM21.442 9.354V3.899h.839v5.455h-.838zm.427-6.364a.596.596 0 0 1-.423-.167.536.536 0 0 1-.174-.4c0-.157.058-.29.174-.402a.596.596 0 0 1 .423-.167c.163 0 .303.056.419.167a.531.531 0 0 1 .177.401c0 .156-.059.29-.177.401a.584.584 0 0 1-.42.167zM24.654 2.081v7.273h-.838V2.08h.838zM27.027 2.081v7.273h-.838V2.08h.838zM28.562 9.354V3.899h.838v5.455h-.838zm.426-6.364a.596.596 0 0 1-.423-.167.536.536 0 0 1-.174-.4c0-.157.058-.29.174-.402a.596.596 0 0 1 .423-.167c.163 0 .303.056.419.167a.531.531 0 0 1 .177.401c0 .156-.059.29-.177.401a.584.584 0 0 1-.42.167zM31.773 6.073v3.28h-.838V3.9h.81v.853h.07c.128-.277.322-.5.583-.668.26-.17.596-.256 1.008-.256.37 0 .693.076.97.228.277.149.492.376.646.681.154.303.23.687.23 1.151v3.466h-.837v-3.41c0-.428-.111-.761-.334-1-.223-.242-.528-.363-.916-.363-.268 0-.507.058-.718.174a1.245 1.245 0 0 0-.493.508c-.12.223-.181.492-.181.81zM38.986 11.513c-.405 0-.753-.052-1.044-.156a2.217 2.217 0 0 1-.728-.405 2.215 2.215 0 0 1-.458-.533l.667-.468c.076.099.172.213.288.34.116.13.275.243.476.338.204.097.47.145.799.145.44 0 .804-.106 1.09-.32.287-.212.43-.546.43-1V8.344h-.071c-.062.1-.15.223-.263.37a1.49 1.49 0 0 1-.483.387c-.208.111-.49.167-.845.167-.44 0-.836-.104-1.186-.313a2.193 2.193 0 0 1-.828-.909c-.2-.398-.301-.88-.301-1.449 0-.558.098-1.045.294-1.46.197-.416.47-.738.82-.965.351-.23.756-.345 1.215-.345.355 0 .637.06.845.178.211.116.372.249.483.398.114.146.202.267.263.362h.085v-.867h.81V9.51c0 .469-.107.85-.32 1.144a1.82 1.82 0 0 1-.852.65c-.355.14-.75.209-1.186.209zm-.028-2.997c.336 0 .62-.077.852-.23.232-.155.408-.376.529-.665.12-.289.181-.634.181-1.037 0-.393-.06-.74-.177-1.04a1.561 1.561 0 0 0-.526-.707c-.232-.17-.519-.256-.86-.256-.355 0-.65.09-.887.27-.235.18-.41.421-.53.725a2.8 2.8 0 0 0-.173 1.008c0 .379.059.714.177 1.005.121.289.299.516.533.682.237.163.53.245.88.245zM43.489 9.41a.615.615 0 0 1-.451-.187.615.615 0 0 1-.188-.451c0-.176.062-.326.188-.451a.615.615 0 0 1 .45-.189c.176 0 .326.063.452.189a.616.616 0 0 1 .188.45.663.663 0 0 1-.32.554.61.61 0 0 1-.32.086zM47.834 11.513c-.405 0-.753-.052-1.044-.156a2.216 2.216 0 0 1-.728-.405 2.215 2.215 0 0 1-.458-.533l.667-.468c.076.099.172.213.288.34.116.13.274.243.476.338.203.097.47.145.799.145.44 0 .803-.106 1.09-.32.286-.212.43-.546.43-1V8.344h-.072c-.061.1-.149.223-.262.37a1.49 1.49 0 0 1-.483.387c-.209.111-.49.167-.845.167-.44 0-.836-.104-1.187-.313a2.193 2.193 0 0 1-.827-.909c-.201-.398-.302-.88-.302-1.449 0-.558.099-1.045.295-1.46.197-.416.47-.738.82-.965.35-.23.756-.345 1.215-.345.355 0 .637.06.845.178.21.116.372.249.483.398.114.146.201.267.263.362h.085v-.867h.81V9.51c0 .469-.107.85-.32 1.144a1.82 1.82 0 0 1-.852.65c-.355.14-.75.209-1.186.209zm-.029-2.997c.336 0 .62-.077.852-.23.233-.155.409-.376.53-.665.12-.289.18-.634.18-1.037 0-.393-.058-.74-.177-1.04a1.561 1.561 0 0 0-.525-.707c-.232-.17-.519-.256-.86-.256-.355 0-.65.09-.888.27-.234.18-.41.421-.529.725a2.8 2.8 0 0 0-.174 1.008c0 .379.06.714.178 1.005.12.289.298.516.533.682.236.163.53.245.88.245zM53.927 11.513c-.404 0-.752-.052-1.044-.156a2.217 2.217 0 0 1-.728-.405 2.215 2.215 0 0 1-.458-.533l.668-.468c.076.099.172.213.288.34.116.13.274.243.475.338.204.097.47.145.8.145.44 0 .803-.106 1.09-.32.286-.212.43-.546.43-1V8.344h-.072c-.061.1-.149.223-.262.37a1.49 1.49 0 0 1-.483.387c-.209.111-.49.167-.846.167-.44 0-.835-.104-1.186-.313a2.193 2.193 0 0 1-.827-.909c-.201-.398-.302-.88-.302-1.449 0-.558.098-1.045.295-1.46.196-.416.47-.738.82-.965.35-.23.755-.345 1.215-.345.355 0 .636.06.845.178.21.116.371.249.483.398.113.146.2.267.263.362h.085v-.867h.81V9.51c0 .469-.107.85-.32 1.144a1.82 1.82 0 0 1-.852.65c-.356.14-.751.209-1.187.209zM53.9 8.516c.336 0 .62-.077.852-.23.232-.155.409-.376.53-.665.12-.289.18-.634.18-1.037 0-.393-.059-.74-.177-1.04a1.561 1.561 0 0 0-.526-.707c-.232-.17-.518-.256-.859-.256-.355 0-.651.09-.888.27-.234.18-.41.421-.529.725a2.8 2.8 0 0 0-.174 1.008c0 .379.06.714.178 1.005.12.289.298.516.532.682.237.163.53.245.881.245z"/></svg>