<svg xmlns="http://www.w3.org/2000/svg" fill="none" viewBox="0 0 15 11"><rect width="14" height="10" fill="#F0F5F9" rx="1"/><path fill="#656A91" d="M0 0H14V2.353H0z" transform="translate(0 2.059)"/><g clip-path="url(#a)"><rect width="11.333" height="2.059" x="1.333" y="6.176" fill="#fff" rx="1.029"/><path fill="#656A91" d="M5.797 7.447v-.483c0-.11-.092-.2-.206-.2a.203.203 0 0 0-.205.2v.483c0 .11.092.2.205.2.114 0 .206-.09.206-.2zM6.736 7.447v-.483c0-.11-.092-.2-.205-.2a.203.203 0 0 0-.206.2v.483c0 .11.092.2.206.2.113 0 .205-.09.205-.2zM7.675 7.447v-.483c0-.11-.092-.2-.205-.2a.203.203 0 0 0-.206.2v.483c0 .11.092.2.206.2.113 0 .205-.09.205-.2zM8.615 7.447v-.483c0-.11-.092-.2-.206-.2a.203.203 0 0 0-.205.2v.483c0 .11.092.2.205.2.114 0 .206-.09.206-.2zM9.769 6.964v.483c0 .11.092.2.206.2.113 0 .205-.09.205-.2v-.483c0-.11-.092-.2-.205-.2a.203.203 0 0 0-.206.2zM10.709 6.964v.483c0 .11.091.2.205.2.114 0 .206-.09.206-.2v-.483c0-.11-.092-.2-.206-.2a.203.203 0 0 0-.205.2zM11.648 6.964v.483c0 .11.091.2.205.2.113 0 .205-.09.205-.2v-.483c0-.11-.092-.2-.205-.2a.203.203 0 0 0-.205.2zM2.147 7.647c.114 0 .206-.09.206-.2v-.483c0-.11-.092-.2-.206-.2a.203.203 0 0 0-.205.2v.483c0 .11.092.2.205.2zM3.292 7.447v-.483c0-.11-.092-.2-.205-.2a.203.203 0 0 0-.206.2v.483c0 .11.092.2.206.2.113 0 .205-.09.205-.2zM4.231 7.447v-.483c0-.11-.092-.2-.205-.2a.203.203 0 0 0-.206.2v.483c0 .11.092.2.206.2.113 0 .205-.09.205-.2z"/></g><rect width="6.333" height="5.706" x="7.5" y="4.206" fill="#fff" rx="2.853"/><path fill="#32375E" d="M9.429 6.198V7.66h-.384V6.58l-.379.097V6.42l.727-.222h.036zM11.09 7.4v.261H9.932v-.22l.534-.495c.047-.048.085-.09.113-.128a.493.493 0 0 0 .063-.104.208.208 0 0 0 .02-.083.23.23 0 0 0-.021-.106.14.14 0 0 0-.062-.065.202.202 0 0 0-.099-.022.18.18 0 0 0-.103.03.204.204 0 0 0-.07.082.28.28 0 0 0-.024.118h-.385c0-.09.025-.172.074-.246a.53.53 0 0 1 .209-.178.675.675 0 0 1 .308-.068c.123 0 .225.017.308.05a.39.39 0 0 1 .187.146c.042.063.064.14.064.229a.4.4 0 0 1-.028.146.602.602 0 0 1-.078.14 1.226 1.226 0 0 1-.126.14c-.048.05-.104.1-.166.155l-.214.218h.654zM11.636 6.788h.186a.27.27 0 0 0 .118-.022.156.156 0 0 0 .07-.065.206.206 0 0 0 .022-.1.16.16 0 0 0-.022-.08.146.146 0 0 0-.063-.06.233.233 0 0 0-.11-.023.24.24 0 0 0-.09.017.185.185 0 0 0-.072.046.105.105 0 0 0-.027.074h-.385c0-.084.026-.155.078-.214a.498.498 0 0 1 .206-.136.91.91 0 0 1 .587 0 .447.447 0 0 1 .207.14c.05.062.075.139.075.23a.27.27 0 0 1-.04.141.385.385 0 0 1-.111.117.588.588 0 0 1-.17.08.741.741 0 0 1-.209.028h-.25v-.173zm0 .252v-.169h.25c.083 0 .159.008.227.025.068.016.127.04.177.073a.322.322 0 0 1 .154.281c0 .068-.016.13-.047.183a.405.405 0 0 1-.131.136.656.656 0 0 1-.197.084 1.01 1.01 0 0 1-.453.004.674.674 0 0 1-.189-.076.43.43 0 0 1-.138-.133.356.356 0 0 1-.051-.194h.385c0 .031.01.06.029.085.02.024.046.044.078.059a.255.255 0 0 0 .106.022.279.279 0 0 0 .12-.023.183.183 0 0 0 .076-.064.16.16 0 0 0 .026-.09c0-.05-.01-.09-.028-.119a.156.156 0 0 0-.081-.064.354.354 0 0 0-.127-.02h-.186z"/><rect width="6.333" height="5.706" x="7.5" y="4.206" stroke="#E7428C" rx="2.853"/><defs><clipPath id="a"><rect width="11.333" height="2.059" x="1.333" y="6.176" fill="#fff" rx="1.029"/></clipPath></defs></svg>