<svg xmlns="http://www.w3.org/2000/svg" fill="none" viewBox="0 0 50 50"><g clip-path="url(#a)"><path fill="#009CDE" d="M31.274 13.832C28.52 11.1 25.893 8.494 25.11 5.556c-.782 2.938-3.41 5.543-6.163 8.276-4.13 4.099-8.812 8.744-8.812 15.71 0 3.944 1.578 7.726 4.386 10.515a15.03 15.03 0 0 0 10.59 4.355A15.03 15.03 0 0 0 35.7 40.058a14.818 14.818 0 0 0 4.386-10.515c0-6.966-4.682-11.611-8.813-15.71zM16.5 33.007c-.918-.03-4.307-5.831 1.98-12.007l4.16 4.513a.35.35 0 0 1-.028.527c-.993 1.01-5.224 5.224-5.75 6.68-.108.302-.267.29-.362.287zm8.61 7.645a5.18 5.18 0 0 1-3.642-1.498 5.112 5.112 0 0 1-1.508-3.617c0-1.295.518-2.449 1.284-3.378.928-1.128 3.866-4.3 3.866-4.3s2.892 3.219 3.859 4.29a4.982 4.982 0 0 1 1.292 3.388 5.096 5.096 0 0 1-1.509 3.617 5.17 5.17 0 0 1-3.642 1.497zm9.858-8.294c-.11.24-.362.643-.702.656-.606.022-.67-.287-1.119-.945-.983-1.444-9.562-10.348-11.167-12.07-1.411-1.514-.199-2.582.364-3.142l2.766-2.746s6.143 5.787 8.701 9.742c2.56 3.954 1.678 7.376 1.157 8.505"/></g><defs><clipPath id="a"><path fill="#fff" d="M0 0H40.58V38.889H0z" transform="translate(4.861 5.556)"/></clipPath></defs></svg>