<svg xmlns="http://www.w3.org/2000/svg" fill="none" viewBox="0 0 224 30"><path fill="#131523" d="M14.577 18.137c1.433 0 2.285-1.121 2.285-3.02 0-.715-.137-1.316-.398-1.781-.38-.723-1.032-1.113-1.856-1.113-1.226 0-2.094.824-2.094 1.98 0 1.086.782 1.875 1.856 1.875.66 0 1.195-.308 1.46-.844h.067c0 1.29-.488 2.059-1.312 2.059-.485 0-.86-.266-.989-.691h-1.004c.168.925.954 1.535 1.985 1.535zm.035-2.86c-.648 0-1.11-.46-1.11-1.105 0-.629.485-1.11 1.114-1.11a1.1 1.1 0 0 1 1.113 1.126c0 .628-.472 1.09-1.117 1.09zm3.612 2.125a.6.6 0 0 0 .625-.617c0-.355-.254-.617-.625-.617a.6.6 0 0 0-.625.617c0 .352.257.617.625.617zm0-2.93c.37 0 .625-.261.625-.613 0-.355-.254-.617-.625-.617a.6.6 0 0 0-.625.617c0 .352.257.614.625.614zM22.335 18h.965v-1.05h.762v-.852H23.3v-3.735h-1.422c-.996 1.5-1.789 2.754-2.297 3.688v.898h2.754V18zm-1.82-1.938a42.411 42.411 0 0 1 1.781-2.878h.055v2.937h-1.836v-.058zM25.962 18h1.008v-5.637h-1.004l-1.473 1.032v.968l1.403-.984h.066V18z"/><path fill="#131523" stroke="#131420" stroke-width=".5" d="M198.194 11.25h9.726c.967 0 1.75.784 1.75 1.75v3.07a1.75 1.75 0 0 1-1.75 1.75h-9.726a1.75 1.75 0 0 1-1.75-1.75V13c0-.966.783-1.75 1.75-1.75z" opacity=".35"/><path fill="#131523" d="M210.47 13.72v2.295c.466-.195.769-.647.769-1.148 0-.501-.303-.953-.769-1.148" opacity=".4"/><path fill="#131523" d="M197.292 13.088a1 1 0 0 1 1-1h9.53a1 1 0 0 1 1 1v2.894a1 1 0 0 1-1 1h-9.53a1 1 0 0 1-1-1v-2.894z"/><path fill="#131523" fill-rule="evenodd" d="M187.684 12.951c1.354 0 2.657.526 3.638 1.47a.187.187 0 0 0 .265-.002l.707-.721a.205.205 0 0 0 .057-.141.205.205 0 0 0-.059-.141 6.608 6.608 0 0 0-9.217 0 .199.199 0 0 0-.058.14.197.197 0 0 0 .057.142l.706.72a.187.187 0 0 0 .265.003 5.25 5.25 0 0 1 3.639-1.47zm.019 2.222c.744 0 1.462.28 2.014.784.074.072.192.07.264-.003l.706-.721a.199.199 0 0 0 .057-.143.198.198 0 0 0-.06-.14 4.34 4.34 0 0 0-5.96 0 .198.198 0 0 0-.06.14.198.198 0 0 0 .057.143l.706.72c.072.074.19.076.265.004a2.98 2.98 0 0 1 2.011-.784zm1.435 1.452a.19.19 0 0 1-.057.142l-1.221 1.246a.189.189 0 0 1-.271 0l-1.221-1.246a.195.195 0 0 1 .006-.282 2.074 2.074 0 0 1 2.701 0c.04.036.062.087.063.14z" clip-rule="evenodd"/><path fill="#131523" d="M174.231 13.175c0-.3.246-.543.549-.543h.55c.303 0 .549.243.549.543v4.351c0 .3-.246.544-.549.544h-.55a.547.547 0 0 1-.549-.544v-4.35zM176.977 12.088c0-.3.246-.544.549-.544h.549c.303 0 .549.243.549.544v5.438c0 .3-.246.544-.549.544h-.549a.547.547 0 0 1-.549-.544v-5.438zM171.486 15.079c0-.3.246-.544.549-.544h.549c.303 0 .549.244.549.544v2.447c0 .3-.246.544-.549.544h-.549a.547.547 0 0 1-.549-.544V15.08zM168.741 16.439c0-.3.246-.544.549-.544h.549c.303 0 .549.243.549.544v1.087c0 .3-.246.544-.549.544h-.549a.547.547 0 0 1-.549-.544V16.44z"/></svg>