<svg xmlns="http://www.w3.org/2000/svg" fill="none" viewBox="0 0 234 58"><path fill="#fff" d="M0 0H234V58H0z"/><path fill="#656A91" d="M17 23.667h12V25H17v-1.333zm0 4.666h12v1.334H17v-1.334zM17 33h12v1.333H17V33z"/><path fill="#32375E" d="M84.3 23.621v2.222h2.833L84 30.267v.87h7.016v-2.403h-3.133l2.99-4.168v-.945H84.3zm7.89 7.516v-7.522h2.944v7.516l-2.943.006zm12.564 0v-4.168c0-2.678-1.416-3.51-3.074-3.53-.829-.012-1.814.258-2.48 1.002l-.13-.82h-2.598v7.516h2.898v-3.955c0-.989.652-1.445 1.351-1.445.542 0 1.096.319 1.096 1.245v4.155h2.937zm1.123.532c-.157 2.297 1.416 3.698 4.235 3.698 2.246 0 4.458-.913 4.458-3.348 0-.413-.098-1.476-1.547-2.265.907-.626 1.416-1.552 1.43-2.497a2.723 2.723 0 0 0-.751-2.021l1.025-1.158-2.115-1.445c-.254.319-.574.7-.842 1.032a4.956 4.956 0 0 0-1.625-.288c-2.434 0-4.379 1.49-4.379 3.849 0 2.328 1.736 3.786 4.379 3.786 1.064 0 1.416.457 1.416 1.001 0 .732-.685 1.083-1.449 1.083-.776 0-1.514-.257-1.481-1.427h-2.754zm4.268-5.995c.862 0 1.482.7 1.482 1.552 0 1.001-.699 1.477-1.482 1.477-.861 0-1.527-.576-1.527-1.477 0-1.008.666-1.552 1.527-1.552zm9.209 5.995c-.157 2.297 1.416 3.698 4.236 3.698 2.245 0 4.457-.913 4.457-3.348 0-.413-.098-1.476-1.547-2.265.908-.626 1.417-1.552 1.43-2.497a2.723 2.723 0 0 0-.751-2.021l1.018-1.158-2.108-1.445c-.254.319-.574.7-.842 1.032a4.956 4.956 0 0 0-1.625-.288c-2.434 0-4.379 1.49-4.379 3.849 0 2.328 1.736 3.786 4.379 3.786 1.064 0 1.416.457 1.416 1.001 0 .732-.685 1.083-1.448 1.083-.784 0-1.515-.257-1.482-1.427h-2.754zm4.268-5.995c.862 0 1.482.7 1.482 1.552 0 1.001-.699 1.477-1.482 1.477-.861 0-1.527-.576-1.527-1.477-.007-1.008.666-1.552 1.527-1.552zm5.535 5.995c-.157 2.297 1.416 3.698 4.235 3.698 2.245 0 4.458-.913 4.458-3.348 0-.413-.098-1.476-1.547-2.265.907-.626 1.416-1.552 1.429-2.497a2.718 2.718 0 0 0-.75-2.021L138 24.078l-2.108-1.445c-.255.319-.574.7-.842 1.032a4.956 4.956 0 0 0-1.625-.288c-2.434 0-4.379 1.49-4.379 3.849 0 2.328 1.736 3.786 4.379 3.786 1.064 0 1.416.457 1.416 1.001 0 .732-.685 1.083-1.449 1.083-.783 0-1.514-.257-1.481-1.427h-2.754zm4.268-5.995c.861 0 1.481.7 1.481 1.552 0 1.001-.698 1.477-1.481 1.477-.862 0-1.527-.576-1.527-1.477 0-1.008.665-1.552 1.527-1.552z"/><path fill="#3F7BDA" stroke="#3F7BDA" d="M116.858 26.157c.37 0 .608.13.756.295a1 1 0 0 1 .244.673c-.001.258-.09.502-.247.676-.15.165-.387.295-.753.295-.354 0-.586-.128-.735-.294a1.031 1.031 0 0 1-.247-.678c-.001-.26.085-.503.239-.674.145-.163.378-.293.743-.293z"/><rect width="28" height="28" x="191" y="15" fill="#F0F5F9" rx="4"/><path fill="#3F7BDA" d="M204.333 28.333v-2.666h1.334v2.666h2.666v1.334h-2.666v2.666h-1.334v-2.666h-2.666v-1.334h2.666zm.667 7.334a6.667 6.667 0 1 1 0-13.334 6.667 6.667 0 0 1 0 13.334zm0-1.334a5.333 5.333 0 1 0 0-10.666 5.333 5.333 0 0 0 0 10.666z"/></svg>