<svg xmlns="http://www.w3.org/2000/svg" fill="none" viewBox="0 0 50 50"><g clip-path="url(#a)"><path fill="#5FBCE7" d="M25 44.444c10.739 0 19.444-8.705 19.444-19.444C44.444 14.261 35.74 5.556 25 5.556 14.261 5.556 5.556 14.26 5.556 25 5.556 35.74 14.26 44.444 25 44.444z"/><path fill="#fff" d="M37.367 21.344c-.39-1.01-2.217-1.4-6.611-1.4-10.85 0-13.223-.505-15.984-3.383a.367.367 0 0 0-.505-.039.369.369 0 0 0-.078.506l.35.583c1.089 1.867 2.722 4.667 12.328 4.667H28.578c4.239 0 5.094.544 5.25.855.194.467-.817 1.517-1.711 2.45-.817.817-1.711 1.79-2.295 2.761a.477.477 0 0 0 .078.506c.078.039.156.078.233.078a.42.42 0 0 0 .273-.117 63.788 63.788 0 0 1 2.8-2.411c2.877-2.411 4.588-3.889 4.16-5.056zM20.1 30.367a1.992 1.992 0 0 0-1.983 1.983c0 1.089.894 1.983 1.983 1.983a1.992 1.992 0 0 0 1.983-1.983 1.992 1.992 0 0 0-1.983-1.983zM27.411 30.367a1.992 1.992 0 0 0-1.983 1.983c0 1.089.894 1.983 1.983 1.983a1.992 1.992 0 0 0 1.983-1.983c.04-1.089-.855-1.983-1.983-1.983z"/></g><defs><clipPath id="a"><path fill="#fff" d="M0 0H38.889V38.889H0z" transform="translate(5.556 5.556)"/></clipPath></defs></svg>