<svg xmlns="http://www.w3.org/2000/svg" fill="none" viewBox="0 0 50 50"><g clip-path="url(#a)"><path fill="#A0DBE8" d="M18.156 35.362c.31-.142.62-.259.943-.388.362-.13.724-.258 1.085-.375.453-.142.918-.258 1.383-.361.633-.13 1.266-.233 1.9-.297a54.764 54.764 0 0 1-1.19 3.359l.04.646a14.007 14.007 0 0 1 5.348 0c0-.22.013-.44.039-.646a64.889 64.889 0 0 1-1.189-3.36c.633.065 1.28.156 1.9.298.465.103.917.22 1.382.361.362.117.723.233 1.085.375.323.116.633.246.943.388a16.816 16.816 0 0 1 5.84 4.315 19.335 19.335 0 0 0 6.731-14.69c0-10.71-8.682-19.406-19.405-19.406-10.711 0-19.406 8.683-19.406 19.406 0 5.866 2.61 11.124 6.731 14.69a16.815 16.815 0 0 1 5.84-4.315z"/><path fill="#525353" d="M19.435 38.876c.905-.4 1.874-.71 2.869-.904 0-.22-.013-.44-.04-.647a64.92 64.92 0 0 0 1.19-3.359c-.634.065-1.28.155-1.9.297-.465.104-.917.22-1.382.362-.362.117-.724.233-1.086.375l1.409.349-1.06 3.527zM16.102 40.956c.039-.362.052-.724.052-1.098 0-.22.18-.4.4-.4h.35l1.24-4.11a16.815 16.815 0 0 0-5.84 4.316 19.402 19.402 0 0 0 2.92 2.093c.297-.271.581-.543.878-.801zM31.813 35.362l1.24 4.108h.349c.22 0 .4.181.4.4 0 .375.026.737.052 1.099.297.258.594.517.865.801a18.764 18.764 0 0 0 2.92-2.093 16.652 16.652 0 0 0-5.827-4.315zM29.448 35.323l1.409-.349c-.362-.13-.724-.258-1.086-.374a16.69 16.69 0 0 0-1.382-.362 19.313 19.313 0 0 0-1.9-.297 54.72 54.72 0 0 0 1.19 3.359l-.04.646c1.008.194 1.964.504 2.869.904l-1.06-3.527z"/><path fill="#000" d="M24.978 39.47h2.739a11.736 11.736 0 0 1-.065-1.498 14.014 14.014 0 0 0-5.349 0c.013.503-.013.994-.064 1.498h2.739zM15.236 41.757c.22.13.452.259.685.388.078-.388.142-.788.181-1.189-.297.258-.581.53-.866.801z"/><path fill="#000" d="M19.254 39.47h2.998c.052-.504.077-1.008.064-1.498a13.253 13.253 0 0 0-2.868.904l-.194.594zM33.867 40.956c.039.4.103.801.18 1.189.233-.117.453-.246.685-.388-.284-.271-.568-.543-.865-.8zM30.715 39.47l-.181-.594c-.905-.4-1.874-.71-2.869-.904-.012.503.013.994.065 1.498h2.985z"/><path fill="#AA9678" d="m19.255 39.47.18-.594 1.073-3.553-1.409-.349c-.323.116-.633.246-.943.388l-1.24 4.108h2.339zM30.533 38.876l.181.594h2.338l-1.24-4.108c-.31-.142-.62-.259-.943-.388l-1.408.349 1.072 3.553z"/><path fill="#C0B098" d="M16.955 40.297c.013-.013.025-.013.038-.026h-.038v.026z"/><path fill="#C0B098" d="M24.978 40.271h-7.984c-.013.013-.026.013-.04.026-.025.762-.128 1.499-.296 2.222a19.26 19.26 0 0 0 8.32 1.874V40.27z"/><path fill="#AA9678" d="M33.014 40.271h-.038c.013.013.025.013.038.026v-.026z"/><path fill="#AA9678" d="M32.975 40.271h-7.997v4.122c2.972 0 5.801-.672 8.32-1.874a11.642 11.642 0 0 1-.297-2.222c0-.013-.013-.026-.026-.026z"/><path fill="#8B7460" d="M33.867 40.956a10.24 10.24 0 0 1-.052-1.098c0-.22-.18-.4-.4-.4H16.54c-.22 0-.4.18-.4.4 0 .375-.026.736-.052 1.098-.039.4-.103.801-.18 1.189.245.129.49.258.736.374.168-.723.271-1.472.297-2.222v-.026h16.06v.026c.025.762.128 1.499.296 2.222.246-.116.491-.245.737-.374a11.95 11.95 0 0 1-.168-1.189z"/><path fill="#525353" d="M30.533 36.693c-.064-.065-.116-.143-.18-.22.064.09.129.155.18.22z"/><path fill="#AA9678" d="M30.986 37.145s-.194-.155-.452-.44c.258.285.452.44.452.44z"/><path fill="#BBBCBD" d="M37.898 20.672s0-.013 0 0a6.536 6.536 0 0 0-.504-.62c-.078-.09-.155-.168-.233-.246-.025-.026-.064-.052-.09-.077a1.36 1.36 0 0 0-.155-.13v1.81l.685 3.165c.013.025.013.051.026.077l.478.543h.504v-.142a13.73 13.73 0 0 0-.685-4.277c-.013-.051-.013-.077-.026-.103z"/><path fill="#676A6A" d="M37.678 24.87v.027c.013.077.013.155.013.232v.078c0 .077 0 .155-.013.22v.025l-.038.233.478-.53-.478-.543c.013.09.026.168.038.259z"/><path fill="#000" d="M37.665 25.478v-.026c.013-.077.013-.155.013-.22v-.103c0-.077 0-.155-.013-.232v-.026l-.039-.233c-.012-.026-.012-.052-.025-.077a1.633 1.633 0 0 0-.181-.4c-.013-.014-.026-.027-.026-.04-.026-.025-.039-.051-.065-.077-.026-.039-.064-.065-.103-.09-.013-.014-.026-.014-.039-.026-.026-.026-.064-.04-.09-.052-.013 0-.026-.013-.04-.013a.465.465 0 0 0-.141-.026c-.052 0-.09.013-.142.026-.013 0-.026.013-.04.013-.025.013-.064.026-.09.052-.012.012-.025.012-.038.025-.039.026-.065.065-.104.09-.026.027-.038.053-.064.078-.013.013-.026.026-.026.04a1.261 1.261 0 0 0-.18.4v.013c-.027.064-.04.142-.053.22 0 .025-.013.038-.013.064-.012.09-.012.168-.025.258v.039c0 .736.349 1.344.775 1.344.077 0 .142-.026.22-.052.012 0 .025-.013.038-.013.026-.013.052-.039.078-.052l.038-.038c.04-.026.065-.065.104-.104.026-.026.039-.051.065-.09.012-.026.025-.039.038-.065.026-.038.039-.077.065-.129.013-.013.013-.026.026-.052.026-.064.038-.129.064-.194 0-.077.013-.155.013-.232zm-.723-.491c-.168 0-.297-.22-.297-.504 0-.271.129-.504.297-.504.168 0 .297.22.297.504 0 .284-.142.504-.297.504z"/><path fill="#fff" d="M36.942 24.987c.164 0 .297-.225.297-.504 0-.278-.133-.504-.297-.504-.164 0-.297.226-.297.504 0 .279.133.504.297.504z"/><path fill="#909393" d="M36.218 24.56c.052-.154.104-.284.181-.4.013-.013.026-.026.026-.039.026-.025.039-.051.065-.077.025-.039.064-.065.103-.09.013-.014.026-.014.039-.026.026-.026.064-.04.09-.052.013 0 .026-.013.039-.013a.465.465 0 0 1 .142-.026c.052 0 .09.013.142.026.013 0 .026.013.039.013.026.013.064.026.09.052.013.012.026.012.04.025.038.026.064.065.102.09.026.027.04.053.065.078.013.013.026.026.026.04.077.115.142.245.18.4l-.684-3.166-.685 3.166z"/><path fill="#000" d="M27.756 25.142c0-.064 0-.13-.013-.194s-.013-.116-.026-.18a.636.636 0 0 0-.052-.169.892.892 0 0 0-.064-.168 1.695 1.695 0 0 0-.4-.569 2.065 2.065 0 0 0-.57-.374 3.121 3.121 0 0 0-.322-.103h-.013a1.605 1.605 0 0 0-.698 0h-.013c-.116.026-.22.052-.323.09h-.013a1.3 1.3 0 0 0-.297.155c-.09.065-.18.13-.258.207h-.013c-.13.13-.246.271-.336.427l-.078.155s0 .012-.013.012a.628.628 0 0 0-.051.143c0 .013-.013.013-.013.025-.013.052-.026.09-.039.143 0 .012-.013.025-.013.038-.013.052-.013.09-.026.142 0 .013 0 .026-.013.04 0 .064-.013.128-.013.193 0 .116.013.233.04.349v.013c.025.116.05.22.102.336.091.206.22.4.375.568.13.13.271.246.427.336l.155.078h.013c.051.025.103.038.142.051.013 0 .013 0 .026.013.051.013.09.026.142.039.012 0 .026.013.038.013.052.013.09.013.143.026.012 0 .025 0 .038.013.065 0 .13.013.194.013.259 0 .491-.052.71-.143.104-.051.207-.103.31-.168.195-.129.363-.297.492-.49.064-.104.116-.207.168-.31.09-.22.142-.466.142-.711v-.013l.013-.026zm-1.822-.22a.69.69 0 0 1-.685-.684.69.69 0 0 1 .685-.685.69.69 0 0 1 .685.685.69.69 0 0 1-.685.684z"/><path fill="#fff" d="M25.934 24.922a.685.685 0 1 0 0-1.369.685.685 0 0 0 0 1.37z"/><path fill="#BBBCBD" d="m24.668 23.837 1.266-3.863V19.07a10.818 10.818 0 0 0-2.158-.22c-.245 0-.49.013-.736.026-.039 0-.065 0-.104.013-1.266.09-2.506.426-3.656.956a11.8 11.8 0 0 0-2.726 1.744c-.22.194-.44.388-.646.594l-.116.117c-.194.194-.388.4-.569.607-.039.052-.077.09-.116.142-.181.22-.362.44-.53.659-.013.013-.026.039-.039.052-.155.22-.31.439-.465.671-.026.04-.064.09-.09.13-.116.194-.233.387-.336.581h5.736l5.285-1.305z"/><path fill="#E2DDDB" d="M29.513 23.41c.013-.154.026-.296.026-.451.013-.207.013-.4.026-.608v-.62c0-.413-.026-.814-.04-1.227 0 0-.012 0-.012-.013 0 0-.013 0-.013-.013a7.157 7.157 0 0 1-.426-.245h-.013a.528.528 0 0 0-.116-.065c-.026-.013-.052-.039-.078-.052l-.013-.013c-.026-.013-.052-.026-.065-.038-.258-.143-.53-.259-.8-.375-.647-.271-1.525-.517-2.029-.633v.904l1.253 3.85c.13.117.246.259.323.414l.078.155a.647.647 0 0 1 .064.168c.013.052.04.116.052.168.013.064.026.116.026.18.013.065.013.13.013.194v.013h1.524c.104-.555.181-1.124.22-1.692 0 .026 0 .013 0 0z"/><path fill="#FBB040" d="M27.769 30.646c.349-.349.672-.672.982-.995.18-.194.361-.387.542-.568 1.28-1.383 2.21-2.688 2.778-4.354.013-.04.026-.09.039-.155v-.026c.013-.065.026-.13.039-.207 0-.052.013-.103.013-.155-.142-.724-.414-1.434-.66-2.132v.013l-.012-.013c-.052-.038-.09-.09-.142-.129-.142-.13-.285-.258-.44-.387a11.795 11.795 0 0 0-1.408-1.021c.026.413.039.814.039 1.227v.62c0 .207-.013.414-.026.608-.013.155-.013.297-.026.452v.051a18.35 18.35 0 0 1-.22 1.693l-.18.853c-.375 1.524-1.137 2.894-1.757 4.315-.168.375-.323.762-.466 1.15l-.038.116c.194-.207.374-.387.504-.517.168-.168.297-.31.439-.439z"/><path fill="#909393" d="M24.68 23.837a2.01 2.01 0 0 1 .26-.206c.09-.065.193-.117.296-.156h.013c.104-.038.207-.077.323-.09h.013a1.599 1.599 0 0 1 .698 0h.013c.116.026.22.052.323.103.206.09.4.207.568.375l-1.253-3.85-1.253 3.824z"/><path fill="#676A6A" d="M24.242 25.853a2.557 2.557 0 0 1-.104-.336v-.013a1.606 1.606 0 0 1-.038-.349c0-.065 0-.13.012-.194 0-.013 0-.026.013-.039 0-.051.013-.09.026-.142 0-.013.013-.026.013-.038.013-.052.026-.09.039-.143 0-.012.013-.012.013-.025.013-.052.039-.104.051-.143 0 0 0-.012.013-.012l.078-.155c.09-.155.207-.298.336-.427l-5.297 1.305h-.013l5.245 1.28a1.588 1.588 0 0 1-.387-.57z"/><path fill="#E2DDDB" d="M36.154 24.858c0-.026.012-.052.012-.065.013-.077.026-.155.052-.22v-.025l.685-3.166v-1.808c-.569-.466-1.163-.724-1.796-.724-.8 0-1.537.44-2.093.982-.607.594-1.072 1.344-1.46 2.093-.013.039-.039.065-.052.103l.35.31c.258.233.516.479.762.724l.348.349c.117.129.246.245.362.374.155.168.31.323.452.491.065.065.13.143.194.207.181.207.362.4.543.607l.064.065h1.564v-.039c0-.077 0-.168.013-.258z"/><path fill="#525353" d="M12.704 27.145c0-.013.013-.026.013-.04.103-.258.207-.516.323-.774.026-.078.064-.142.103-.207.09-.207.194-.4.297-.594.039-.078.078-.155.13-.246.025-.038.051-.09.077-.129.116-.194.22-.388.336-.581.026-.04.064-.09.09-.13a7.8 7.8 0 0 1 .466-.671c.012-.013.025-.04.038-.052.168-.233.35-.452.53-.659.039-.052.078-.09.116-.142a12.605 12.605 0 0 1 .685-.724c.207-.206.413-.4.646-.594.866-2.92 3.54-5.052 6.693-5.052 1.266 0 2.532.362 3.617 1.034a7.108 7.108 0 0 1 2.597 2.83s0 .012.013.012a.74.74 0 0 0 .052.09 11.795 11.795 0 0 1 1.847 1.41c.052.038.09.09.142.128a.385.385 0 0 1 .052-.103c.44-2.804 1.68-4.832 3.14-4.832 1.098 0 2.08 1.15 2.674 2.92v.013c.168.18.336.387.504.607 0 0 0 .013.013.013.012.026.012.052.025.077l-.025-.09c-1.822-5.375-6.9-9.25-12.894-9.25-7.52 0-13.605 6.085-13.605 13.604 0 1.486.233 2.907.672 4.238v-.013c.09-.4.194-.801.31-1.189.103-.31.207-.607.323-.904z"/><path fill="#fff" d="m38.105 25.168-.478.53c-.013.064-.04.129-.065.193 0 .013-.013.026-.026.052a.61.61 0 0 1-.064.13c-.013.025-.026.038-.04.064-.025.026-.038.064-.064.09a.391.391 0 0 1-.103.104l-.039.038a.272.272 0 0 1-.077.052c-.013 0-.026.013-.04.013a.425.425 0 0 1-.219.052c-.426 0-.775-.595-.775-1.344h-1.563c.297.336.581.672.852 1.02l.013.014.814 1.007c.013.013.026.04.04.052.258.323.503.646.748.97.026.025.052.064.078.09.258.348.517.697.775 1.033v.013a13.4 13.4 0 0 0 .71-4.212l-.477.039z"/><path fill="#000" d="M22.937 18.876c.038 0 .064 0 .103-.013.245-.013.49-.026.736-.026.737 0 1.46.078 2.158.22v.349-.35c.491.117 1.37.363 2.028.634.272.116.543.245.802.375.012 0 .038.012.064.038 0 0 .013 0 .013.013.026.013.052.026.078.052.038.026.077.039.116.065h.013c.168.09.349.206.426.245.013 0 .013.013.013.013l.013.013a.73.73 0 0 0-.052-.09s0-.014-.013-.014a7.031 7.031 0 0 0-2.597-2.829 7.034 7.034 0 0 0-3.617-1.034c-3.153 0-5.827 2.132-6.693 5.052a11.243 11.243 0 0 1 2.726-1.744 10.95 10.95 0 0 1 3.683-.969zM33.027 19.845c.556-.543 1.292-.982 2.093-.982.633 0 1.24.259 1.796.724.052.038.103.09.155.129.026.026.065.051.09.077.078.078.155.155.233.246v-.013c-.607-1.77-1.576-2.92-2.674-2.92-1.46 0-2.7 2.015-3.14 4.832.362-.75.84-1.499 1.447-2.093z"/><path fill="#fff" d="M20.133 37.713c.13.052.246.09.375.13a13.63 13.63 0 0 0 9.573-.22c.078-.039.168-.065.246-.104.13-.051.271-.116.4-.18a4.3 4.3 0 0 0 .35-.169c-.027 0-.053.014-.078.014-.491.051-.97.064-1.447-.014-2.804-.4-3.424-1.757-3.334-3.152a7.118 7.118 0 0 1-.62-.4c-2.157-1.564-3.436-3.23-3.436-3.23s1.666 1.279 4.147 2.248c.051.025.103.038.155.064.116-.4.258-.788.375-1.124l.038-.116c.142-.388.297-.775.465-1.15.62-1.421 1.383-2.803 1.758-4.315l.18-.853h-1.524v.013c0 .258-.052.491-.142.71-.052.104-.104.22-.168.31-.13.194-.297.363-.491.492-.104.064-.207.116-.31.168-.22.09-.465.142-.71.142-.066 0-.13 0-.195-.013-.013 0-.025 0-.038-.013-.052 0-.09-.013-.143-.026-.012 0-.025-.013-.038-.013-.052-.013-.09-.026-.142-.039-.013 0-.013 0-.026-.013-.052-.012-.104-.038-.142-.051h-.013l-.155-.078a1.746 1.746 0 0 1-.427-.336l-5.245-1.279h-5.724c-.026.039-.051.09-.077.13-.039.077-.09.155-.13.245-.103.194-.206.4-.297.594-.038.065-.064.142-.103.207-.116.258-.22.517-.323.775 0 .013-.013.026-.013.039-.116.297-.22.607-.31.917-.116.388-.22.788-.31 1.189a13.541 13.541 0 0 0 4.948 6.77c.065.052.142.09.207.142.388.271.788.53 1.202.75a10.86 10.86 0 0 0 1.692.84z"/><path fill="#9F2255" d="M29.526 33.475a2.383 2.383 0 0 0-.04.427c-.012.245.014.49.052.71.026.155.052.297.09.44.066.206.13.4.22.581.091.18.181.349.272.491.026.052.064.103.09.142.052.065.09.13.142.194.065.077.13.155.181.22.246.284.452.439.452.439v.013c0 .013 0 .026.013.038.026 0 .052-.012.078-.012.607-.078 1.214-.246 1.822-.453.31-.116.62-.232.917-.361.09-.04.18-.09.271-.13 3.114-1.511 5.724-4.173 5.724-4.173-3.902 1.925-7.74 1.848-10.285 1.434z"/><path fill="#E2066F" d="M37.045 28.23c-.245-.323-.504-.646-.75-.969-.012-.013-.025-.039-.038-.052l-.814-1.008-.013-.012a71.185 71.185 0 0 0-.853-1.021c-.013-.026-.038-.039-.051-.065-.181-.206-.362-.4-.543-.607-.065-.064-.13-.142-.194-.207l-.452-.49c-.116-.13-.245-.246-.362-.375l-.349-.35c-.245-.245-.503-.49-.762-.723l-.349-.31c.246.71.53 1.421.672 2.158.039.194.065.375.09.555.35 2.546-.477 4.212-1.77 6.409-.09.155-.193.323-.284.478a4.93 4.93 0 0 0-.594 1.408 5.018 5.018 0 0 0-.09.426c2.545.414 6.37.491 10.284-1.434 0 0-.763-1.124-1.925-2.674-.259-.349-.517-.698-.775-1.034-.026-.038-.052-.077-.078-.103z"/><path fill="#000" d="M30.986 37.145s-.194-.155-.452-.44c-.065-.064-.117-.142-.181-.22-.052-.064-.09-.128-.142-.193-.026-.052-.065-.09-.09-.142-.091-.155-.182-.31-.272-.491a6.051 6.051 0 0 1-.22-.581c-.038-.143-.077-.285-.09-.44a4.175 4.175 0 0 1-.052-.71c0-.142.013-.285.039-.427.026-.142.052-.284.09-.426.117-.44.298-.905.595-1.408.09-.168.194-.323.284-.478 1.292-2.197 2.119-3.85 1.77-6.409-.026-.18-.052-.374-.09-.555-.013.129-.04.245-.065.336v.026a1.346 1.346 0 0 1-.039.155c-.568 1.666-1.498 2.971-2.778 4.354a11.03 11.03 0 0 1-.542.568c-.31.323-.646.659-.982.995-.142.142-.284.271-.426.413-.13.13-.31.31-.504.517-.117.336-.259.724-.375 1.124-.052-.026-.103-.039-.155-.064-2.48-.957-4.147-2.248-4.147-2.248s1.279 1.666 3.436 3.23c.207.154.414.284.62.4-.09 1.408.53 2.752 3.334 3.152.478.065.956.065 1.447.013 0-.026-.013-.038-.013-.051z"/></g><defs><clipPath id="a"><path fill="#fff" d="M0 0H38.889V38.889H0z" transform="translate(5.556 5.556)"/></clipPath></defs></svg>