<svg width="50" height="50" viewBox="0 0 50 50" fill="none" xmlns="http://www.w3.org/2000/svg">
<g clip-path="url(#clip0_913_28238)">
<path d="M18.156 35.3617C18.4661 35.2196 18.7762 35.1033 19.0992 34.9741C19.4609 34.8449 19.8227 34.7157 20.1844 34.5994C20.6366 34.4573 21.1018 34.341 21.5669 34.2377C22.1999 34.1085 22.833 34.0051 23.4661 33.9405C23.1043 35.0646 22.7167 36.1886 22.2775 37.2997C22.2904 37.5193 22.3033 37.7261 22.3162 37.9457C23.1819 37.7777 24.0733 37.6873 24.9906 37.6873C25.908 37.6873 26.7994 37.7777 27.6651 37.9457C27.6651 37.7261 27.678 37.5064 27.7038 37.2997C27.2775 36.1886 26.8769 35.0646 26.5152 33.9405C27.1483 34.0051 27.7943 34.0956 28.4144 34.2377C28.8795 34.341 29.3317 34.4573 29.7968 34.5994C30.1586 34.7157 30.5204 34.832 30.8821 34.9741C31.2051 35.0904 31.5152 35.2196 31.8253 35.3617C34.0216 36.3436 36.0242 37.7906 37.6651 39.677C41.7865 36.124 44.3963 30.8656 44.3963 24.987C44.3963 14.2764 35.7142 5.58136 24.9906 5.58136C14.28 5.58136 5.58496 14.2635 5.58496 24.987C5.58496 30.8527 8.19478 36.1111 12.3162 39.677C13.9571 37.7906 15.9596 36.3436 18.156 35.3617Z" fill="#A0DBE8"/>
<path d="M19.4353 38.8759C20.3397 38.4754 21.3086 38.1653 22.3035 37.9715C22.3035 37.7519 22.2906 37.5323 22.2647 37.3255C22.6911 36.2144 23.0916 35.0904 23.4534 33.9664C22.8203 34.031 22.1743 34.1214 21.5541 34.2635C21.089 34.3669 20.6368 34.4832 20.1717 34.6253C19.8099 34.7416 19.4482 34.8578 19.0864 35L20.4947 35.3488L19.4353 38.8759Z" fill="#525353"/>
<path d="M16.1022 40.956C16.1409 40.5943 16.1538 40.2325 16.1538 39.8579C16.1538 39.6382 16.3347 39.4573 16.5544 39.4573H16.9032L18.1435 35.3488C15.9471 36.3307 13.9445 37.7778 12.3037 39.6641C13.2081 40.4522 14.19 41.1498 15.2236 41.7571C15.5208 41.4858 15.805 41.2144 16.1022 40.956Z" fill="#525353"/>
<path d="M31.8125 35.3617L33.0528 39.4702H33.4016C33.6213 39.4702 33.8022 39.6511 33.8022 39.8707C33.8022 40.2454 33.828 40.6072 33.8538 40.9689C34.151 41.2273 34.4482 41.4857 34.7195 41.77C35.766 41.1627 36.735 40.4651 37.6394 39.6769C36.0115 37.7906 34.0089 36.3436 31.8125 35.3617Z" fill="#525353"/>
<path d="M29.4484 35.323L30.8567 34.9741C30.4949 34.8449 30.1332 34.7157 29.7714 34.5995C29.3192 34.4573 28.8541 34.3411 28.389 34.2377C27.7559 34.1085 27.1228 34.0052 26.4897 33.9406C26.8515 35.0646 27.2391 36.1886 27.6784 37.2997C27.6655 37.5194 27.6525 37.7261 27.6396 37.9457C28.6474 38.1395 29.6034 38.4496 30.5078 38.8501L29.4484 35.323Z" fill="#525353"/>
<path d="M24.9778 39.4703H27.7168C27.6651 38.9664 27.6393 38.4625 27.6522 37.9715C26.7866 37.8036 25.8951 37.7131 24.9778 37.7131C24.0605 37.7131 23.169 37.8036 22.3034 37.9715C22.3163 38.4754 22.2904 38.9664 22.2388 39.4703H24.9778Z" fill="black"/>
<path d="M15.2363 41.7571C15.456 41.8863 15.6885 42.0155 15.9211 42.1447C15.9986 41.7571 16.0632 41.3566 16.102 40.9561C15.8048 41.2144 15.5206 41.4858 15.2363 41.7571Z" fill="black"/>
<path d="M19.2544 39.4703H22.2518C22.3035 38.9664 22.3293 38.4625 22.3164 37.9716C21.3087 38.1654 20.3526 38.4754 19.4482 38.8759L19.2544 39.4703Z" fill="black"/>
<path d="M33.8667 40.9561C33.9055 41.3566 33.9701 41.7571 34.0476 42.1447C34.2801 42.0284 34.4998 41.8992 34.7323 41.7571C34.4481 41.4858 34.1639 41.2144 33.8667 40.9561Z" fill="black"/>
<path d="M30.7145 39.4703L30.5336 38.8759C29.6292 38.4754 28.6602 38.1654 27.6654 37.9716C27.6525 38.4754 27.6783 38.9664 27.73 39.4703H30.7145Z" fill="black"/>
<path d="M19.2545 39.4703L19.4354 38.8759L20.5077 35.323L19.0995 34.9741C18.7765 35.0904 18.4664 35.2196 18.1563 35.3617L16.916 39.4703H18.2468H19.2545Z" fill="#AA9678"/>
<path d="M30.5333 38.8759L30.7142 39.4703H31.7219H33.0527L31.8124 35.3617C31.5023 35.2196 31.1922 35.1033 30.8692 34.9741L29.4609 35.323L30.5333 38.8759Z" fill="#AA9678"/>
<path d="M16.9546 40.2971C16.9675 40.2842 16.9804 40.2842 16.9934 40.2713H16.9546C16.9546 40.2713 16.9546 40.2842 16.9546 40.2971Z" fill="#C0B098"/>
<path d="M24.9781 40.2713H22.1228H19.0091H16.9936C16.9807 40.2842 16.9678 40.2842 16.9549 40.2971C16.929 41.0594 16.8257 41.7958 16.6577 42.5194C19.1771 43.7209 21.9936 44.3927 24.9781 44.3927V40.2713Z" fill="#C0B098"/>
<path d="M33.0144 40.2713H32.9756C32.9885 40.2842 33.0014 40.2842 33.0144 40.2971C33.0144 40.2842 33.0144 40.2713 33.0144 40.2713Z" fill="#AA9678"/>
<path d="M32.9754 40.2713H30.9599H27.8333H24.978V44.3927C27.9496 44.3927 30.7791 43.7209 33.2984 42.5194C33.1305 41.7958 33.0271 41.0465 33.0013 40.2971C33.0013 40.2842 32.9884 40.2713 32.9754 40.2713Z" fill="#AA9678"/>
<path d="M33.8669 40.956C33.8281 40.5943 33.8152 40.2325 33.8152 39.8579C33.8152 39.6382 33.6343 39.4573 33.4147 39.4573H33.0658H31.7092H30.7015H27.7041H24.965H22.226H19.2286H18.2209H16.8901H16.5413C16.3216 39.4573 16.1408 39.6382 16.1408 39.8579C16.1408 40.2325 16.1149 40.5943 16.0891 40.956C16.0503 41.3565 15.9857 41.7571 15.9082 42.1447C16.1537 42.2739 16.3992 42.4031 16.6446 42.5193C16.8126 41.7958 16.916 41.0465 16.9418 40.2971C16.9418 40.2842 16.9418 40.2842 16.9418 40.2713H16.9806H18.9961H22.1098H24.965H27.8333H30.947H32.9625H33.0012C33.0012 40.2842 33.0012 40.2842 33.0012 40.2971C33.0271 41.0594 33.1304 41.7958 33.2984 42.5193C33.5439 42.4031 33.7893 42.2739 34.0348 42.1447C33.9573 41.7571 33.9056 41.3565 33.8669 40.956Z" fill="#8B7460"/>
<path d="M30.5334 36.6925C30.4688 36.6279 30.4171 36.5504 30.3525 36.4728C30.4171 36.5633 30.4817 36.6279 30.5334 36.6925Z" fill="#525353"/>
<path d="M30.9859 37.1447C30.9859 37.1447 30.7921 36.9896 30.5337 36.7054C30.7921 36.9896 30.9859 37.1447 30.9859 37.1447Z" fill="#AA9678"/>
<path d="M37.8979 20.6718C37.8979 20.6718 37.8979 20.6589 37.8979 20.6718C37.73 20.4393 37.562 20.2326 37.3941 20.0517C37.3165 19.9612 37.239 19.8837 37.1615 19.8062C37.1357 19.7804 37.0969 19.7545 37.0711 19.7287C37.0194 19.677 36.9677 19.6382 36.916 19.5995V21.4083L37.6008 24.5736C37.6137 24.5995 37.6137 24.6253 37.6266 24.6512L38.1046 25.1938H38.6085C38.6085 25.1421 38.6085 25.1034 38.6085 25.0517C38.6085 23.553 38.363 22.1189 37.9238 20.7752C37.9108 20.7235 37.9108 20.6977 37.8979 20.6718Z" fill="#BBBCBD"/>
<path d="M37.6784 24.8708V24.8837C37.6784 24.8837 37.6784 24.8837 37.6784 24.8966C37.6913 24.9741 37.6913 25.0516 37.6913 25.1292C37.6913 25.1421 37.6913 25.155 37.6913 25.1679C37.6913 25.1808 37.6913 25.1938 37.6913 25.2067C37.6913 25.2842 37.6913 25.3617 37.6784 25.4263V25.4392V25.4522C37.6655 25.5297 37.6526 25.6072 37.6396 25.6847L38.1177 25.155L37.6396 24.6124C37.6526 24.7028 37.6655 24.7803 37.6784 24.8708Z" fill="#676A6A"/>
<path d="M37.6652 25.478C37.6652 25.4651 37.6652 25.4651 37.6652 25.4521C37.6781 25.3746 37.6781 25.2971 37.6781 25.2325C37.6781 25.2196 37.6781 25.1937 37.6781 25.1808C37.6781 25.1679 37.6781 25.155 37.6781 25.1291C37.6781 25.0516 37.6781 24.9741 37.6652 24.8966C37.6652 24.8837 37.6652 24.8837 37.6652 24.8707C37.6523 24.7932 37.6393 24.7157 37.6264 24.6382C37.6135 24.6124 37.6135 24.5865 37.6006 24.5607C37.5489 24.4056 37.4972 24.2764 37.4197 24.1602C37.4068 24.1472 37.3939 24.1343 37.3939 24.1214C37.368 24.0956 37.3551 24.0697 37.3293 24.0439C37.3034 24.0051 37.2647 23.9793 37.2259 23.9534C37.213 23.9405 37.2001 23.9405 37.1871 23.9276C37.1613 23.9018 37.1225 23.8888 37.0967 23.8759C37.0838 23.8759 37.0709 23.863 37.0579 23.863C37.0192 23.8501 36.9675 23.8372 36.9158 23.8372C36.8641 23.8372 36.8254 23.8501 36.7737 23.863C36.7608 23.863 36.7479 23.8759 36.7349 23.8759C36.7091 23.8888 36.6703 23.9018 36.6445 23.9276C36.6316 23.9405 36.6187 23.9405 36.6057 23.9534C36.567 23.9793 36.5411 24.018 36.5024 24.0439C36.4765 24.0697 36.4636 24.0956 36.4378 24.1214C36.4249 24.1343 36.4119 24.1472 36.4119 24.1602C36.3344 24.2764 36.2698 24.4056 36.2311 24.5607V24.5736C36.2052 24.6382 36.1923 24.7157 36.1794 24.7932C36.1794 24.8191 36.1665 24.832 36.1665 24.8578C36.1535 24.9483 36.1535 25.0258 36.1406 25.1162C36.1406 25.1291 36.1406 25.1421 36.1406 25.155C36.1406 25.8914 36.4895 26.4987 36.9158 26.4987C36.9933 26.4987 37.0579 26.4728 37.1355 26.447C37.1484 26.447 37.1613 26.4341 37.1742 26.4341C37.2001 26.4211 37.2259 26.3953 37.2517 26.3824C37.2647 26.3695 37.2776 26.3565 37.2905 26.3436C37.3293 26.3178 37.3551 26.279 37.3939 26.2403C37.4197 26.2144 37.4326 26.1886 37.4585 26.1498C37.4714 26.124 37.4843 26.1111 37.4972 26.0852C37.5231 26.0465 37.536 26.0077 37.5618 25.956C37.5747 25.9431 37.5747 25.9302 37.5877 25.9043C37.6135 25.8397 37.6264 25.7751 37.6523 25.7105C37.6523 25.633 37.6652 25.5555 37.6652 25.478ZM36.9417 24.987C36.7737 24.987 36.6445 24.7674 36.6445 24.4832C36.6445 24.2118 36.7737 23.9793 36.9417 23.9793C37.1096 23.9793 37.2388 24.1989 37.2388 24.4832C37.2388 24.7674 37.0967 24.987 36.9417 24.987Z" fill="black"/>
<path d="M36.9417 24.9871C37.1058 24.9871 37.2388 24.7615 37.2388 24.4832C37.2388 24.2049 37.1058 23.9793 36.9417 23.9793C36.7776 23.9793 36.6445 24.2049 36.6445 24.4832C36.6445 24.7615 36.7776 24.9871 36.9417 24.9871Z" fill="white"/>
<path d="M36.2183 24.5607C36.2699 24.4057 36.3216 24.2765 36.3991 24.1602C36.4121 24.1473 36.425 24.1343 36.425 24.1214C36.4508 24.0956 36.4637 24.0697 36.4896 24.0439C36.5154 24.0051 36.5542 23.9793 36.5929 23.9535C36.6059 23.9405 36.6188 23.9405 36.6317 23.9276C36.6575 23.9018 36.6963 23.8889 36.7221 23.8759C36.7351 23.8759 36.748 23.863 36.7609 23.863C36.7997 23.8501 36.8513 23.8372 36.903 23.8372C36.9547 23.8372 36.9935 23.8501 37.0451 23.863C37.0581 23.863 37.071 23.8759 37.0839 23.8759C37.1097 23.8889 37.1485 23.9018 37.1743 23.9276C37.1872 23.9405 37.2002 23.9405 37.2131 23.9535C37.2518 23.9793 37.2777 24.0181 37.3164 24.0439C37.3423 24.0697 37.3552 24.0956 37.381 24.1214C37.394 24.1343 37.4069 24.1473 37.4069 24.1602C37.4844 24.2765 37.549 24.4057 37.5878 24.5607L36.903 21.3953L36.2183 24.5607Z" fill="#909393"/>
<path d="M27.7557 25.1421C27.7557 25.0775 27.7557 25.0129 27.7428 24.9483C27.7298 24.8837 27.7298 24.832 27.7169 24.7674C27.704 24.7028 27.6911 24.6512 27.6652 24.5995C27.6523 24.5478 27.6265 24.4832 27.6006 24.4315C27.5748 24.3798 27.549 24.3282 27.5231 24.2765C27.4327 24.1214 27.3293 23.9793 27.2001 23.863C27.0322 23.708 26.8384 23.5788 26.6316 23.4884C26.5283 23.4496 26.412 23.4109 26.3087 23.385C26.3087 23.385 26.3087 23.385 26.2957 23.385C26.1795 23.3592 26.0632 23.3463 25.9469 23.3463C25.8306 23.3463 25.7143 23.3592 25.5981 23.385H25.5851C25.4689 23.4109 25.3655 23.4367 25.2621 23.4755C25.2621 23.4755 25.2621 23.4755 25.2492 23.4755C25.1459 23.5142 25.0425 23.5659 24.9521 23.6305C24.8616 23.6951 24.7712 23.7597 24.6937 23.8372H24.6807C24.5515 23.9664 24.4353 24.1085 24.3448 24.2636C24.319 24.3152 24.2931 24.3669 24.2673 24.4186C24.2673 24.4186 24.2673 24.4315 24.2544 24.4315C24.2285 24.4832 24.2156 24.522 24.2027 24.5736C24.2027 24.5866 24.1898 24.5866 24.1898 24.5995C24.1769 24.6512 24.1639 24.6899 24.151 24.7416C24.151 24.7545 24.1381 24.7674 24.1381 24.7804C24.1252 24.832 24.1252 24.8708 24.1123 24.9225C24.1123 24.9354 24.1123 24.9483 24.0993 24.9612C24.0993 25.0258 24.0864 25.0904 24.0864 25.155C24.0864 25.2713 24.0993 25.3876 24.1252 25.5039C24.1252 25.5039 24.1252 25.5039 24.1252 25.5168C24.151 25.6331 24.1769 25.7364 24.2285 25.8527C24.319 26.0594 24.4482 26.2532 24.6032 26.4212C24.7324 26.5504 24.8745 26.6667 25.0296 26.7571C25.0813 26.7829 25.1329 26.8088 25.1846 26.8346H25.1975C25.2492 26.8605 25.3009 26.8734 25.3397 26.8863C25.3526 26.8863 25.3526 26.8863 25.3655 26.8992C25.4172 26.9121 25.4559 26.9251 25.5076 26.938C25.5205 26.938 25.5335 26.9509 25.5464 26.9509C25.5981 26.9638 25.6368 26.9638 25.6885 26.9767C25.7014 26.9767 25.7143 26.9767 25.7273 26.9897C25.7919 26.9897 25.8565 27.0026 25.9211 27.0026C26.1795 27.0026 26.412 26.9509 26.6316 26.8605C26.735 26.8088 26.8384 26.7571 26.9417 26.6925C27.1355 26.5633 27.3035 26.3953 27.4327 26.2016C27.4973 26.0982 27.549 25.9948 27.6006 25.8915C27.6911 25.6718 27.7428 25.4264 27.7428 25.1809V25.168C27.7557 25.1421 27.7557 25.1421 27.7557 25.1421ZM25.934 24.9225C25.5593 24.9225 25.2492 24.6124 25.2492 24.2377C25.2492 23.863 25.5593 23.553 25.934 23.553C26.3086 23.553 26.6187 23.863 26.6187 24.2377C26.6187 24.6124 26.3086 24.9225 25.934 24.9225Z" fill="black"/>
<path d="M25.9338 24.9225C26.312 24.9225 26.6185 24.6159 26.6185 24.2377C26.6185 23.8596 26.312 23.553 25.9338 23.553C25.5556 23.553 25.249 23.8596 25.249 24.2377C25.249 24.6159 25.5556 24.9225 25.9338 24.9225Z" fill="white"/>
<path d="M24.6676 23.8372L25.9338 19.9741C25.9338 19.9741 25.9338 19.7416 25.9338 19.5219C25.9338 19.4573 25.9338 19.3927 25.9338 19.3411C25.9338 19.3152 25.9338 19.3023 25.9338 19.2894C25.9338 19.2635 25.9338 19.2377 25.9338 19.2119C25.9338 19.1989 25.9338 19.1731 25.9338 19.1602C25.9338 19.1473 25.9338 19.1214 25.9338 19.1085C25.9338 19.0956 25.9338 19.0827 25.9338 19.0827C25.9338 19.0697 25.9338 19.0697 25.9338 19.0697C25.2361 18.9276 24.5126 18.8501 23.7762 18.8501C23.5307 18.8501 23.2852 18.863 23.0397 18.8759C23.001 18.8759 22.9751 18.8759 22.9364 18.8889C21.6702 18.9793 20.4299 19.3152 19.28 19.8449C18.2981 20.2971 17.3679 20.8914 16.5539 21.5891C16.3343 21.7829 16.1147 21.9767 15.908 22.1834C15.8692 22.2222 15.8304 22.2609 15.7917 22.2997C15.5979 22.4935 15.4041 22.7002 15.2232 22.9069C15.1844 22.9586 15.1457 22.9974 15.1069 23.0491C14.926 23.2687 14.7452 23.4883 14.5772 23.708C14.5643 23.7209 14.5514 23.7467 14.5384 23.7596C14.3834 23.9793 14.2284 24.1989 14.0733 24.4315C14.0475 24.4702 14.0087 24.5219 13.9829 24.5607C13.8666 24.7545 13.7503 24.9483 13.647 25.1421H19.3705H19.3834L24.6676 23.8372Z" fill="#BBBCBD"/>
<path d="M29.5129 23.4108C29.5259 23.2558 29.5388 23.1137 29.5388 22.9586C29.5517 22.7519 29.5517 22.5581 29.5646 22.3514C29.5646 22.1964 29.5646 22.0413 29.5646 21.8734C29.5646 21.8217 29.5646 21.7829 29.5646 21.7312C29.5646 21.3178 29.5388 20.9173 29.5259 20.5039C29.5259 20.5039 29.5129 20.5039 29.5129 20.4909C29.5129 20.4909 29.5 20.4909 29.5 20.478C29.4225 20.4393 29.2416 20.3359 29.0737 20.2325H29.0607C29.022 20.2067 28.9832 20.1809 28.9445 20.1679C28.9186 20.155 28.8928 20.1292 28.8669 20.1163L28.854 20.1033C28.8282 20.0904 28.8023 20.0775 28.7894 20.0646C28.531 19.9225 28.2597 19.8062 27.9884 19.6899C27.3424 19.4186 26.4638 19.1731 25.96 19.0568V19.4057V19.4832V19.509C25.96 19.7416 25.96 19.9612 25.96 19.9612L27.2132 23.8113C27.3424 23.9276 27.4587 24.0697 27.5362 24.2248C27.562 24.2765 27.5879 24.3281 27.6137 24.3798C27.6396 24.4315 27.6654 24.4832 27.6783 24.5478C27.6912 24.5995 27.7171 24.6641 27.73 24.7157C27.7429 24.7803 27.7558 24.832 27.7558 24.8966C27.7688 24.9612 27.7688 25.0258 27.7688 25.0904V25.1033H29.2933C29.3967 24.5478 29.4742 23.9793 29.5129 23.4108C29.5129 23.4367 29.5129 23.4237 29.5129 23.4108Z" fill="#E2DDDB"/>
<path d="M27.7688 30.646C28.1177 30.2971 28.4407 29.9741 28.7508 29.6511C28.9316 29.4573 29.1125 29.2636 29.2934 29.0827C30.5725 27.7002 31.5027 26.3953 32.0712 24.7287C32.0841 24.6899 32.097 24.6382 32.1099 24.5736C32.1099 24.5607 32.1099 24.5607 32.1099 24.5478C32.1229 24.4832 32.1358 24.4186 32.1487 24.3411C32.1487 24.2894 32.1616 24.2377 32.1616 24.186C32.0195 23.4625 31.7482 22.7519 31.5027 22.0543C31.5027 22.0543 31.5027 22.0543 31.5027 22.0672C31.5027 22.0672 31.5027 22.0672 31.4898 22.0543C31.4381 22.0155 31.3993 21.9638 31.3477 21.9251C31.2055 21.7959 31.0634 21.6667 30.9084 21.5375C30.4562 21.1628 29.9911 20.8139 29.5001 20.5168C29.5259 20.9302 29.5389 21.3307 29.5389 21.7442C29.5389 21.7959 29.5389 21.8346 29.5389 21.8863C29.5389 22.0413 29.5389 22.1964 29.5389 22.3643C29.5389 22.571 29.5259 22.7778 29.513 22.9716C29.5001 23.1266 29.5001 23.2687 29.4872 23.4238C29.4872 23.4367 29.4872 23.4496 29.4872 23.4754C29.4355 24.0439 29.3709 24.6124 29.2675 25.1679L29.0867 26.0207C28.712 27.5452 27.9497 28.9147 27.3296 30.3359C27.1616 30.7106 27.0066 31.0982 26.8644 31.4858C26.8515 31.5245 26.8386 31.5633 26.8257 31.6021C27.0195 31.3953 27.2004 31.2145 27.3296 31.0853C27.4975 30.9173 27.6267 30.7752 27.7688 30.646Z" fill="#FBB040"/>
<path d="M24.6807 23.8372C24.7582 23.7597 24.8486 23.6951 24.9391 23.6305C25.0295 23.5659 25.1329 23.5142 25.2362 23.4754C25.2362 23.4754 25.2362 23.4754 25.2491 23.4754C25.3525 23.4367 25.4559 23.3979 25.5721 23.385H25.5851C25.7013 23.3591 25.8176 23.3462 25.9339 23.3462C26.0502 23.3462 26.1665 23.3591 26.2827 23.385C26.2827 23.385 26.2827 23.385 26.2957 23.385C26.4119 23.4108 26.5153 23.4367 26.6186 23.4883C26.8254 23.5788 27.0192 23.6951 27.1871 23.863L25.9339 20.0129L24.6807 23.8372Z" fill="#909393"/>
<path d="M24.2417 25.8527C24.2029 25.7493 24.1642 25.633 24.1383 25.5167C24.1383 25.5167 24.1383 25.5167 24.1383 25.5038C24.1125 25.3875 24.0996 25.2713 24.0996 25.155C24.0996 25.0904 24.0996 25.0258 24.1125 24.9612C24.1125 24.9483 24.1125 24.9353 24.1254 24.9224C24.1254 24.8707 24.1383 24.832 24.1512 24.7803C24.1512 24.7674 24.1642 24.7545 24.1642 24.7416C24.1771 24.6899 24.19 24.6511 24.2029 24.5994C24.2029 24.5865 24.2158 24.5865 24.2158 24.5736C24.2288 24.5219 24.2546 24.4702 24.2675 24.4315C24.2675 24.4315 24.2675 24.4186 24.2804 24.4186C24.3063 24.3669 24.3321 24.3152 24.358 24.2635C24.4484 24.1085 24.5647 23.9664 24.6939 23.8372L19.3967 25.1421H19.3838L24.6293 26.4211C24.4613 26.2661 24.3321 26.0723 24.2417 25.8527Z" fill="#676A6A"/>
<path d="M36.1536 24.8578C36.1536 24.832 36.1665 24.8062 36.1665 24.7932C36.1794 24.7157 36.1924 24.6382 36.2182 24.5736C36.2182 24.5607 36.2182 24.5607 36.2182 24.5478L36.903 21.3824V19.5736C36.3345 19.1085 35.7402 18.8501 35.1071 18.8501C34.3061 18.8501 33.5696 19.2894 33.0141 19.832C32.4068 20.4263 31.9417 21.1757 31.5541 21.925C31.5412 21.9638 31.5154 21.9896 31.5024 22.0284C31.6187 22.1318 31.735 22.2351 31.8513 22.3385C32.1097 22.571 32.3681 22.8165 32.6136 23.062C32.7298 23.1783 32.8461 23.2945 32.9624 23.4108C33.0787 23.54 33.2079 23.6563 33.3241 23.7855C33.4792 23.9535 33.6342 24.1085 33.7763 24.2765C33.8409 24.3411 33.9055 24.4186 33.9701 24.4832C34.151 24.6899 34.3319 24.8837 34.5128 25.0904C34.5386 25.1162 34.5645 25.1421 34.5774 25.155H36.1407C36.1407 25.1421 36.1407 25.1292 36.1407 25.1162C36.1407 25.0387 36.1407 24.9483 36.1536 24.8578Z" fill="#E2DDDB"/>
<path d="M12.7038 27.1447C12.7038 27.1318 12.7168 27.1189 12.7168 27.1059C12.8201 26.8475 12.9235 26.5891 13.0398 26.3307C13.0656 26.2532 13.1044 26.1886 13.1431 26.124C13.2336 25.9173 13.3369 25.7235 13.4403 25.5297C13.479 25.4522 13.5178 25.3747 13.5695 25.2842C13.5953 25.2455 13.6211 25.1938 13.647 25.155C13.7633 24.9612 13.8666 24.7674 13.9829 24.5736C14.0087 24.5349 14.0475 24.4832 14.0733 24.4444C14.2155 24.2119 14.3705 23.9922 14.5385 23.7726C14.5514 23.7597 14.5643 23.7338 14.5772 23.7209C14.7452 23.4884 14.9261 23.2687 15.1069 23.062C15.1457 23.0103 15.1845 22.9716 15.2232 22.9199C15.4041 22.7132 15.5979 22.5064 15.7917 22.3127C15.8304 22.2739 15.8692 22.2351 15.908 22.1964C16.1147 21.9897 16.3214 21.7959 16.554 21.6021C17.4196 18.6822 20.094 16.5504 23.2465 16.5504C24.5126 16.5504 25.7788 16.9121 26.864 17.584C27.9751 18.2687 28.8795 19.2636 29.4609 20.4134C29.4609 20.4134 29.4609 20.4263 29.4739 20.4263C29.4868 20.4522 29.4997 20.478 29.5255 20.5168C30.0165 20.8139 30.4816 21.1628 30.9338 21.5375C31.0888 21.6667 31.231 21.7959 31.3731 21.9251C31.4248 21.9638 31.4635 22.0155 31.5152 22.0543C31.5281 22.0155 31.541 21.9897 31.5669 21.9509C32.0062 19.1473 33.2465 17.1189 34.7064 17.1189C35.8046 17.1189 36.7865 18.2687 37.3808 20.0388V20.0517C37.5488 20.2325 37.7167 20.4393 37.8847 20.6589C37.8847 20.6589 37.8847 20.6718 37.8976 20.6718C37.9105 20.6977 37.9105 20.7235 37.9235 20.7493L37.8976 20.6589C36.0759 15.2842 30.9984 11.4083 25.0036 11.4083C17.4842 11.4083 11.3989 17.4935 11.3989 25.0129C11.3989 26.4987 11.6315 27.9199 12.0708 29.2506C12.0708 29.2506 12.0708 29.2506 12.0708 29.2377C12.1612 28.8372 12.2646 28.4367 12.3808 28.0491C12.4842 27.739 12.5876 27.4418 12.7038 27.1447Z" fill="#525353"/>
<path d="M38.1047 25.1679L37.6267 25.6976C37.6138 25.7622 37.5879 25.8268 37.5621 25.8914C37.5621 25.9043 37.5492 25.9173 37.5363 25.9431C37.5233 25.9819 37.4975 26.0335 37.4717 26.0723C37.4587 26.0981 37.4458 26.1111 37.4329 26.1369C37.4071 26.1627 37.3941 26.2015 37.3683 26.2273C37.3425 26.2661 37.3037 26.3049 37.2649 26.3307C37.252 26.3436 37.2391 26.3565 37.2262 26.3695C37.2003 26.3953 37.1745 26.4082 37.1487 26.4211C37.1357 26.4211 37.1228 26.4341 37.1099 26.4341C37.0453 26.4728 36.9678 26.4857 36.8903 26.4857C36.4639 26.4857 36.1151 25.8914 36.1151 25.1421H34.5518C34.8489 25.478 35.1332 25.8139 35.4045 26.1627L35.4174 26.1757C35.6887 26.5116 35.96 26.8475 36.2313 27.1834C36.2443 27.1963 36.2572 27.2222 36.2701 27.2351C36.5285 27.5581 36.774 27.8811 37.0195 28.2041C37.0453 28.2299 37.0711 28.2687 37.097 28.2945C37.3554 28.6434 37.6138 28.9922 37.8722 29.3281C37.8722 29.3281 37.8722 29.3281 37.8722 29.341C38.3244 28.0103 38.5698 26.602 38.5828 25.1292L38.1047 25.1679Z" fill="white"/>
<path d="M22.9366 18.876C22.9754 18.876 23.0012 18.876 23.0399 18.8631C23.2854 18.8501 23.5309 18.8372 23.7764 18.8372C24.5128 18.8372 25.2363 18.9147 25.934 19.0569C25.934 19.0569 25.934 19.0569 25.934 19.0698C25.934 19.0698 25.934 19.0827 25.934 19.0956C25.934 19.1085 25.934 19.1215 25.934 19.1473C25.934 19.1602 25.934 19.1731 25.934 19.199C25.934 19.2248 25.934 19.2507 25.934 19.2765C25.934 19.2894 25.934 19.3153 25.934 19.3282C25.934 19.354 25.934 19.3799 25.934 19.4057V19.0569C26.425 19.1731 27.3035 19.4186 27.9624 19.6899C28.2338 19.8062 28.5051 19.9354 28.7635 20.0646C28.7764 20.0646 28.8022 20.0775 28.8281 20.1034C28.8281 20.1034 28.841 20.1034 28.841 20.1163C28.8668 20.1292 28.8927 20.1421 28.9185 20.168C28.9573 20.1938 28.996 20.2067 29.0348 20.2326H29.0477C29.2157 20.323 29.3965 20.4393 29.4741 20.478C29.487 20.478 29.487 20.491 29.487 20.491L29.4999 20.5039C29.487 20.478 29.4741 20.4522 29.4482 20.4134C29.4482 20.4134 29.4482 20.4005 29.4353 20.4005C28.8539 19.2377 27.9366 18.2429 26.8384 17.5711C25.7531 16.9122 24.487 16.5375 23.2208 16.5375C20.0684 16.5375 17.394 18.6693 16.5283 21.5892C17.3552 20.8786 18.2725 20.2842 19.2544 19.845C20.4301 19.3023 21.6834 18.9793 22.9366 18.876Z" fill="black"/>
<path d="M33.0271 19.845C33.5827 19.3023 34.3191 18.8631 35.1201 18.8631C35.7532 18.8631 36.3604 19.1215 36.916 19.5866C36.9677 19.6253 37.0194 19.677 37.071 19.7158C37.0969 19.7416 37.1356 19.7675 37.1615 19.7933C37.239 19.8708 37.3165 19.9483 37.394 20.0388V20.0259C36.7868 18.2558 35.8178 17.106 34.7196 17.106C33.2597 17.106 32.0194 19.1215 31.5801 21.938C31.9418 21.1886 32.4199 20.4393 33.0271 19.845Z" fill="black"/>
<path d="M20.1331 37.7132C20.2623 37.7649 20.3786 37.8036 20.5078 37.8424C21.916 38.3333 23.4276 38.6046 25.0039 38.6046C26.7997 38.6046 28.5181 38.2558 30.0814 37.6227C30.1589 37.584 30.2494 37.5581 30.3269 37.5194C30.4561 37.4677 30.5982 37.4031 30.7274 37.3385C30.8437 37.2868 30.9599 37.2351 31.0762 37.1705C31.0504 37.1705 31.0245 37.1835 30.9987 37.1835C30.5078 37.2351 30.0297 37.2481 29.5517 37.1705C26.7481 36.77 26.1279 35.4134 26.2183 34.0181C26.0116 33.9018 25.8178 33.7726 25.5982 33.6176C23.4406 32.0543 22.1615 30.3876 22.1615 30.3876C22.1615 30.3876 23.8282 31.6667 26.3088 32.6357C26.3605 32.6615 26.4121 32.6744 26.4638 32.7003C26.5801 32.2997 26.7222 31.9121 26.8385 31.5762C26.8514 31.5375 26.8643 31.4987 26.8773 31.4599C27.0194 31.0723 27.1744 30.6848 27.3424 30.3101C27.9625 28.8889 28.7248 27.5065 29.0995 25.9948L29.2804 25.1421H27.7558V25.155C27.7558 25.4134 27.7041 25.646 27.6137 25.8656C27.562 25.969 27.5103 26.0853 27.4457 26.1757C27.3165 26.3695 27.1486 26.5375 26.9548 26.6667C26.8514 26.7313 26.7481 26.7829 26.6447 26.8346C26.4251 26.9251 26.1796 26.9767 25.9341 26.9767C25.8695 26.9767 25.8049 26.9767 25.7403 26.9638C25.7274 26.9638 25.7145 26.9638 25.7016 26.9509C25.6499 26.9509 25.6111 26.938 25.5594 26.9251C25.5465 26.9251 25.5336 26.9121 25.5207 26.9121C25.469 26.8992 25.4302 26.8863 25.3786 26.8734C25.3656 26.8734 25.3656 26.8734 25.3527 26.8605C25.301 26.8475 25.2494 26.8217 25.2106 26.8088H25.1977C25.146 26.7829 25.0943 26.7571 25.0426 26.7313C24.8876 26.6408 24.7455 26.5375 24.6163 26.3953L19.3708 25.1163H13.6473C13.6215 25.155 13.5956 25.2067 13.5698 25.2455C13.531 25.323 13.4793 25.4005 13.4406 25.491C13.3372 25.6847 13.2339 25.8915 13.1434 26.0853C13.1047 26.1499 13.0788 26.2274 13.0401 26.292C12.9238 26.5504 12.8204 26.8088 12.7171 27.0672C12.7171 27.0801 12.7041 27.093 12.7041 27.1059C12.5879 27.4031 12.4845 27.7132 12.3941 28.0232C12.2778 28.4108 12.1744 28.8114 12.084 29.2119C12.9884 31.9638 14.7326 34.3282 17.0323 35.9819C17.0969 36.0336 17.1744 36.0723 17.239 36.124C17.6266 36.3953 18.0271 36.6537 18.4406 36.8734C18.9832 37.2093 19.5517 37.4806 20.1331 37.7132Z" fill="white"/>
<path d="M29.5255 33.4754C29.4997 33.6175 29.4868 33.7597 29.4868 33.9018C29.4738 34.1473 29.4997 34.3927 29.5384 34.6124C29.5643 34.7674 29.5901 34.9095 29.6289 35.0517C29.6935 35.2584 29.7581 35.4522 29.8485 35.6331C29.939 35.8139 30.0294 35.9819 30.1198 36.124C30.1457 36.1757 30.1844 36.2274 30.2103 36.2661C30.262 36.3307 30.3007 36.3953 30.3524 36.4599C30.417 36.5374 30.4816 36.615 30.5333 36.6796C30.7788 36.9638 30.9855 37.1188 30.9855 37.1188C30.9855 37.1188 30.9855 37.1188 30.9855 37.1318C30.9855 37.1447 30.9855 37.1576 30.9984 37.1705C31.0242 37.1705 31.0501 37.1576 31.0759 37.1576C31.6831 37.0801 32.2904 36.9121 32.8976 36.7054C33.2077 36.5891 33.5178 36.4728 33.8149 36.3436C33.9054 36.3049 33.9958 36.2532 34.0862 36.2144C37.1999 34.7028 39.8098 32.0413 39.8098 32.0413C35.908 33.9664 32.0707 33.8889 29.5255 33.4754Z" fill="#9F2255"/>
<path d="M37.045 28.23C36.7996 27.907 36.5412 27.584 36.2957 27.261C36.2828 27.248 36.2698 27.2222 36.2569 27.2093C35.9856 26.8734 35.7143 26.5374 35.443 26.2015L35.43 26.1886C35.1458 25.8398 34.8616 25.5039 34.5773 25.1679C34.5644 25.1421 34.5386 25.1292 34.5257 25.1033C34.3448 24.8966 34.1639 24.7028 33.983 24.4961C33.9184 24.4315 33.8538 24.354 33.7892 24.2894C33.6342 24.1214 33.4921 23.9664 33.337 23.7984C33.2207 23.6692 33.0915 23.5529 32.9753 23.4238C32.859 23.3075 32.7427 23.1912 32.6264 23.0749C32.381 22.8294 32.1226 22.584 31.8642 22.3514C31.7479 22.248 31.6316 22.1447 31.5153 22.0413C31.7608 22.7519 32.045 23.4625 32.1872 24.1989C32.2259 24.3927 32.2518 24.5736 32.2776 24.7545C32.6264 27.2997 31.7996 28.9664 30.5076 31.1628C30.4171 31.3178 30.3138 31.4858 30.2233 31.6408C29.9262 32.1318 29.7324 32.6098 29.629 33.0491C29.5903 33.1912 29.5644 33.3333 29.5386 33.4754C32.0838 33.8889 35.9081 33.9664 39.8228 32.0413C39.8228 32.0413 39.0605 30.9173 37.8978 29.3669C37.6394 29.0181 37.381 28.6692 37.1226 28.3333C37.0967 28.2946 37.0709 28.2558 37.045 28.23Z" fill="#E2066F"/>
<path d="M30.9859 37.1447C30.9859 37.1447 30.7921 36.9896 30.5337 36.7054C30.4691 36.6408 30.4174 36.5633 30.3528 36.4858C30.3011 36.4212 30.2624 36.3566 30.2107 36.292C30.1849 36.2403 30.1461 36.2015 30.1203 36.1499C30.0298 35.9948 29.9394 35.8398 29.849 35.6589C29.7714 35.478 29.6939 35.2842 29.6293 35.0775C29.5906 34.9354 29.5518 34.7933 29.5389 34.6382C29.5001 34.4186 29.4872 34.1731 29.4872 33.9276C29.4872 33.7855 29.5001 33.6434 29.526 33.5013C29.5518 33.3592 29.5776 33.217 29.6164 33.0749C29.7327 32.6356 29.9136 32.1705 30.2107 31.6667C30.3011 31.4987 30.4045 31.3437 30.4949 31.1886C31.7869 28.9922 32.6138 27.3385 32.265 24.7803C32.2391 24.5995 32.2133 24.4057 32.1745 24.2248C32.1616 24.354 32.1358 24.4703 32.1099 24.5607C32.1099 24.5736 32.1099 24.5736 32.1099 24.5865C32.097 24.6511 32.0841 24.7028 32.0712 24.7416C31.5027 26.4083 30.5725 27.7132 29.2934 29.0956C29.1254 29.2894 28.9446 29.4703 28.7508 29.6641C28.4407 29.9871 28.1048 30.323 27.7689 30.6589C27.6267 30.801 27.4846 30.9302 27.3425 31.0723C27.2133 31.2015 27.0324 31.3824 26.8386 31.5891C26.7223 31.925 26.5802 32.3126 26.4639 32.7132C26.4123 32.6873 26.3606 32.6744 26.3089 32.6486C23.8283 31.6925 22.1616 30.4005 22.1616 30.4005C22.1616 30.4005 23.4407 32.0672 25.5983 33.6305C25.805 33.7855 26.0117 33.9147 26.2185 34.031C26.128 35.4393 26.7482 36.7829 29.5518 37.1834C30.0298 37.248 30.5079 37.248 30.9988 37.1964C30.9988 37.1705 30.9859 37.1576 30.9859 37.1447Z" fill="black"/>
</g>
<defs>
<clipPath id="clip0_913_28238">
<rect width="38.8889" height="38.8889" fill="white" transform="translate(5.55566 5.55554)"/>
</clipPath>
</defs>
</svg>
