<svg xmlns="http://www.w3.org/2000/svg" fill="none" viewBox="0 0 50 50"><g clip-path="url(#a)"><path fill="#95BF47" d="M37.697 13.044a.377.377 0 0 0-.34-.317c-.142-.012-2.91-.054-2.91-.054s-2.316-2.249-2.545-2.478c-.228-.228-.675-.16-.849-.107l-1.163.36a8.151 8.151 0 0 0-.557-1.368c-.824-1.573-2.031-2.405-3.49-2.407h-.005c-.102 0-.202.01-.303.018a4.507 4.507 0 0 0-.132-.152c-.636-.68-1.45-1.01-2.426-.982-1.884.054-3.76 1.415-5.282 3.832-1.07 1.7-1.885 3.836-2.116 5.49-2.163.67-3.675 1.138-3.709 1.15-1.092.342-1.126.376-1.269 1.405-.105.778-2.962 22.87-2.962 22.87l23.942 4.14 10.377-2.58s-4.234-28.624-4.26-28.82zm-9.006-2.225-1.857.575c-.014-.954-.128-2.28-.572-3.427 1.43.27 2.133 1.888 2.43 2.852zm-3.11.964-3.997 1.237c.386-1.48 1.118-2.952 2.018-3.917.335-.36.803-.76 1.357-.989.522 1.088.635 2.627.622 3.669zM23.014 6.81c.442-.01.815.087 1.133.297a5.452 5.452 0 0 0-1.463 1.139c-1.197 1.284-2.114 3.277-2.48 5.2l-3.282 1.016c.648-3.027 3.184-7.568 6.092-7.652z"/><path fill="#5E8E3E" d="M37.357 12.728c-.141-.012-2.91-.054-2.91-.054s-2.315-2.249-2.544-2.477a.566.566 0 0 0-.322-.148l.002 34.394 10.376-2.578s-4.234-28.624-4.261-28.82a.378.378 0 0 0-.341-.317z"/><path fill="#fff" d="m25.83 18.063-1.205 4.509s-1.344-.612-2.938-.512c-2.337.148-2.362 1.622-2.338 1.992.127 2.016 5.432 2.457 5.73 7.18.234 3.716-1.971 6.258-5.148 6.459-3.814.24-5.914-2.01-5.914-2.01l.808-3.437s2.114 1.595 3.806 1.488c1.104-.07 1.5-.969 1.46-1.604-.167-2.63-4.487-2.475-4.76-6.797-.23-3.637 2.16-7.323 7.43-7.655 2.03-.13 3.07.387 3.07.387z"/></g><defs><clipPath id="a"><path fill="#fff" d="M0 0H34.352V38.889H0z" transform="translate(7.639 5.556)"/></clipPath></defs></svg>