<svg xmlns="http://www.w3.org/2000/svg" fill="none" viewBox="0 0 50 50"><g fill="#189EFF" clip-path="url(#a)"><path d="M36.607 40.077c-1.675-1.256-4.158-2.214-6.76-3.23-3.112-1.197-6.672-2.574-9.304-4.697-2.992-2.394-4.458-5.415-4.458-9.214a10.402 10.402 0 0 1 4.099-8.466c3.021-2.363 7.568-3.62 13.192-3.62 1.466 0 2.962.09 4.398.27.149.03.299-.09.299-.24a.34.34 0 0 0-.09-.239c-7.927-7.12-20.103-6.462-27.222 1.436-7.12 7.897-6.462 20.102 1.436 27.222a19.324 19.324 0 0 0 12.893 4.936c4.128.03 8.166-1.316 11.487-3.77.06-.059.12-.119.12-.209.03-.03-.03-.12-.09-.18z"/><path d="M44.355 23.235c0-.06-.03-.15-.09-.18-4.038-3.35-7.27-4.696-11.248-4.696-2.094 0-3.739.419-4.816 1.256-.927.688-1.436 1.765-1.436 2.902 0 3.32 4.039 4.816 8.735 6.581 2.423.898 4.906 1.825 7.21 3.111.03.03.09.03.12.03s.06 0 .089-.03c.09-.03.15-.09.18-.15A18.986 18.986 0 0 0 44.445 25c-.03-.568-.03-1.167-.09-1.765z"/></g><defs><clipPath id="a"><path fill="#fff" d="M0 0H38.889V38.889H0z" transform="translate(5.556 5.556)"/></clipPath></defs></svg>