<svg xmlns="http://www.w3.org/2000/svg" fill="none" viewBox="0 0 50 50"><g clip-path="url(#a)"><path fill="#000" d="M20.86 30.8a1.64 1.64 0 1 0 2.32 2.32l10.437-10.438a3.28 3.28 0 0 1 4.64 4.64L28.02 37.556a3.278 3.278 0 0 0 4.636.003l.003-.003 7.919-7.918a6.56 6.56 0 0 0 0-9.278 6.56 6.56 0 0 0-9.278 0L20.86 30.8zm16.238-6.96a1.64 1.64 0 0 0-2.32 0L24.34 34.278a3.28 3.28 0 0 1-4.636.004l-.004-.004a1.64 1.64 0 0 0-2.32 2.32v.001a6.562 6.562 0 0 0 9.279 0L37.097 26.16c.64-.64.64-1.68 0-2.32zM19.7 29.64l10.438-10.438a1.64 1.64 0 1 0-2.318-2.32L17.38 27.319a3.28 3.28 0 0 1-4.641-4.638l.002-.001 10.237-10.238a3.28 3.28 0 0 0-4.638-.002l-.001.002-7.918 7.919A6.561 6.561 0 0 0 19.7 29.64zm-5.8-3.48c.64.64 1.679.64 2.319 0l10.44-10.438a3.28 3.28 0 0 1 4.637-.002l.002.002a1.64 1.64 0 1 0 2.32-2.32 6.56 6.56 0 0 0-9.279 0L13.901 23.84a1.64 1.64 0 0 0-.001 2.32z"/></g><defs><clipPath id="a"><path fill="#fff" d="M0 0H34V34H0z" transform="translate(8.5 8)"/></clipPath></defs></svg>