<svg viewBox="0 0 101 163" fill="none" xmlns="http://www.w3.org/2000/svg">
<path d="M100 50C100 77.6142 77.6142 100 50 100C22.3858 100 0 77.6142 0 50C0 22.3858 22.3858 0 50 0C77.6142 0 100 22.3858 100 50ZM7.85901 50C7.85901 73.2738 26.7262 92.141 50 92.141C73.2738 92.141 92.141 73.2738 92.141 50C92.141 26.7262 73.2738 7.85901 50 7.85901C26.7262 7.85901 7.85901 26.7262 7.85901 50Z" fill="#DAE6F0"/>
<path d="M96.0705 50C98.2407 50 100.016 51.762 99.8457 53.9255C99.4344 59.1471 98.2046 64.2801 96.194 69.1342C93.6812 75.2005 89.9983 80.7124 85.3553 85.3553C80.7124 89.9983 75.2004 93.6812 69.1342 96.194C64.2801 98.2046 59.1471 99.4344 53.9255 99.8457C51.762 100.016 50 98.2407 50 96.0705C50 93.9003 51.7631 92.16 53.9239 91.9579C58.1125 91.5662 62.2264 90.5488 66.1267 88.9332C71.2394 86.8154 75.885 83.7113 79.7982 79.7982C83.7113 75.885 86.8154 71.2394 88.9332 66.1267C90.5488 62.2264 91.5662 58.1125 91.9579 53.9239C92.16 51.7631 93.9003 50 96.0705 50Z" fill="#035CE9"/>
<path d="M0 50C0 22.3858 22.3858 0 50 0C77.6142 0 100 22.3858 100 50C100 77.6142 77.6142 100 50 100C22.3858 100 0 77.6142 0 50Z" fill="white"/>
<path d="M100 50C100 77.6142 77.6142 100 50 100C22.3858 100 0 77.6142 0 50C0 22.3858 22.3858 0 50 0C77.6142 0 100 22.3858 100 50ZM7.85901 50C7.85901 73.2738 26.7262 92.141 50 92.141C73.2738 92.141 92.141 73.2738 92.141 50C92.141 26.7262 73.2738 7.85901 50 7.85901C26.7262 7.85901 7.85901 26.7262 7.85901 50Z" fill="#DAE6F0"/>
<circle cx="50.5" cy="50.5" r="50.5" fill="#86B869"/>
<path d="M34 51.4451L44.2273 61.2726L66.5 39" stroke="white" stroke-width="6"/>
<path d="M19.8457 128.438H16.585V126.382H19.8457C20.3496 126.382 20.7598 126.3 21.0762 126.136C21.3926 125.966 21.624 125.731 21.7705 125.433C21.917 125.134 21.9902 124.797 21.9902 124.422C21.9902 124.041 21.917 123.687 21.7705 123.358C21.624 123.03 21.3926 122.767 21.0762 122.567C20.7598 122.368 20.3496 122.269 19.8457 122.269H17.499V133H14.8623V120.203H19.8457C20.8477 120.203 21.7061 120.385 22.4209 120.748C23.1416 121.105 23.6924 121.601 24.0732 122.233C24.4541 122.866 24.6445 123.59 24.6445 124.404C24.6445 125.23 24.4541 125.945 24.0732 126.549C23.6924 127.152 23.1416 127.618 22.4209 127.946C21.7061 128.274 20.8477 128.438 19.8457 128.438ZM31.333 130.855V126.619C31.333 126.314 31.2832 126.054 31.1836 125.837C31.084 125.614 30.9287 125.441 30.7178 125.318C30.5127 125.195 30.2461 125.134 29.918 125.134C29.6367 125.134 29.3936 125.184 29.1885 125.283C28.9834 125.377 28.8252 125.515 28.7139 125.696C28.6025 125.872 28.5469 126.08 28.5469 126.32H26.0156C26.0156 125.916 26.1094 125.532 26.2969 125.169C26.4844 124.806 26.7568 124.486 27.1143 124.211C27.4717 123.93 27.8965 123.71 28.3887 123.552C28.8867 123.394 29.4434 123.314 30.0586 123.314C30.7969 123.314 31.4531 123.438 32.0273 123.684C32.6016 123.93 33.0527 124.299 33.3809 124.791C33.7148 125.283 33.8818 125.898 33.8818 126.637V130.706C33.8818 131.228 33.9141 131.655 33.9785 131.989C34.043 132.317 34.1367 132.604 34.2598 132.851V133H31.7021C31.5791 132.742 31.4854 132.42 31.4209 132.033C31.3623 131.641 31.333 131.248 31.333 130.855ZM31.667 127.208L31.6846 128.641H30.2695C29.9355 128.641 29.6455 128.679 29.3994 128.755C29.1533 128.831 28.9512 128.939 28.793 129.08C28.6348 129.215 28.5176 129.373 28.4414 129.555C28.3711 129.736 28.3359 129.936 28.3359 130.152C28.3359 130.369 28.3857 130.565 28.4854 130.741C28.585 130.911 28.7285 131.046 28.916 131.146C29.1035 131.239 29.3232 131.286 29.5752 131.286C29.9561 131.286 30.2871 131.21 30.5684 131.058C30.8496 130.905 31.0664 130.718 31.2188 130.495C31.377 130.272 31.459 130.062 31.4648 129.862L32.1328 130.935C32.0391 131.175 31.9102 131.424 31.7461 131.682C31.5879 131.939 31.3857 132.183 31.1396 132.411C30.8936 132.634 30.5977 132.818 30.252 132.965C29.9062 133.105 29.4961 133.176 29.0215 133.176C28.418 133.176 27.8701 133.056 27.3779 132.815C26.8916 132.569 26.5049 132.232 26.2178 131.805C25.9365 131.371 25.7959 130.879 25.7959 130.328C25.7959 129.83 25.8896 129.388 26.0771 129.001C26.2646 128.614 26.54 128.289 26.9033 128.025C27.2725 127.756 27.7324 127.554 28.2832 127.419C28.834 127.278 29.4727 127.208 30.1992 127.208H31.667ZM38.5137 131.928L41.0361 123.49H43.752L39.9287 134.433C39.8467 134.673 39.7354 134.931 39.5947 135.206C39.46 135.481 39.2754 135.742 39.041 135.988C38.8125 136.24 38.5225 136.445 38.1709 136.604C37.8252 136.762 37.4004 136.841 36.8965 136.841C36.6562 136.841 36.46 136.826 36.3076 136.797C36.1553 136.768 35.9736 136.727 35.7627 136.674V134.819C35.8271 134.819 35.8945 134.819 35.9648 134.819C36.0352 134.825 36.1025 134.828 36.167 134.828C36.501 134.828 36.7734 134.79 36.9844 134.714C37.1953 134.638 37.3652 134.521 37.4941 134.362C37.623 134.21 37.7256 134.011 37.8018 133.765L38.5137 131.928ZM37.459 123.49L39.5244 130.381L39.8848 133.062L38.1621 133.246L34.7432 123.49H37.459ZM47.2939 125.459V133H44.7539V123.49H47.1357L47.2939 125.459ZM46.9424 127.911H46.2393C46.2393 127.249 46.3184 126.64 46.4766 126.083C46.6406 125.521 46.8779 125.034 47.1885 124.624C47.5049 124.208 47.8945 123.886 48.3574 123.657C48.8203 123.429 49.3564 123.314 49.9658 123.314C50.3877 123.314 50.7744 123.379 51.126 123.508C51.4775 123.631 51.7793 123.827 52.0312 124.097C52.2891 124.36 52.4883 124.706 52.6289 125.134C52.7695 125.556 52.8398 126.062 52.8398 126.654V133H50.3086V126.936C50.3086 126.502 50.25 126.168 50.1328 125.934C50.0156 125.699 49.8486 125.535 49.6318 125.441C49.4209 125.348 49.166 125.301 48.8672 125.301C48.5391 125.301 48.252 125.368 48.0059 125.503C47.7656 125.638 47.5664 125.825 47.4082 126.065C47.25 126.3 47.1328 126.575 47.0566 126.892C46.9805 127.208 46.9424 127.548 46.9424 127.911ZM52.6025 127.621L51.6973 127.735C51.6973 127.114 51.7734 126.537 51.9258 126.004C52.084 125.471 52.3154 125.002 52.6201 124.598C52.9307 124.193 53.3145 123.88 53.7715 123.657C54.2285 123.429 54.7559 123.314 55.3535 123.314C55.8105 123.314 56.2266 123.382 56.6016 123.517C56.9766 123.646 57.2959 123.854 57.5596 124.141C57.8291 124.422 58.0342 124.791 58.1748 125.248C58.3213 125.705 58.3945 126.265 58.3945 126.927V133H55.8545V126.927C55.8545 126.487 55.7959 126.153 55.6787 125.925C55.5674 125.69 55.4033 125.529 55.1865 125.441C54.9756 125.348 54.7236 125.301 54.4307 125.301C54.126 125.301 53.8594 125.362 53.6309 125.485C53.4023 125.603 53.2119 125.767 53.0596 125.978C52.9072 126.188 52.793 126.435 52.7168 126.716C52.6406 126.991 52.6025 127.293 52.6025 127.621ZM64.7314 133.176C63.9932 133.176 63.3311 133.059 62.7451 132.824C62.1592 132.584 61.6611 132.253 61.251 131.831C60.8467 131.409 60.5361 130.92 60.3193 130.363C60.1025 129.801 59.9941 129.203 59.9941 128.57V128.219C59.9941 127.498 60.0967 126.839 60.3018 126.241C60.5068 125.644 60.7998 125.125 61.1807 124.686C61.5674 124.246 62.0361 123.909 62.5869 123.675C63.1377 123.435 63.7588 123.314 64.4502 123.314C65.124 123.314 65.7217 123.426 66.2432 123.648C66.7646 123.871 67.2012 124.188 67.5527 124.598C67.9102 125.008 68.1797 125.5 68.3613 126.074C68.543 126.643 68.6338 127.275 68.6338 127.973V129.027H61.0752V127.34H66.1465V127.146C66.1465 126.795 66.082 126.481 65.9531 126.206C65.8301 125.925 65.6426 125.702 65.3906 125.538C65.1387 125.374 64.8164 125.292 64.4238 125.292C64.0898 125.292 63.8027 125.365 63.5625 125.512C63.3223 125.658 63.126 125.863 62.9736 126.127C62.8271 126.391 62.7158 126.701 62.6396 127.059C62.5693 127.41 62.5342 127.797 62.5342 128.219V128.57C62.5342 128.951 62.5869 129.303 62.6924 129.625C62.8037 129.947 62.959 130.226 63.1582 130.46C63.3633 130.694 63.6094 130.876 63.8965 131.005C64.1895 131.134 64.5205 131.198 64.8896 131.198C65.3467 131.198 65.7715 131.11 66.1641 130.935C66.5625 130.753 66.9053 130.48 67.1924 130.117L68.4229 131.453C68.2236 131.74 67.9512 132.016 67.6055 132.279C67.2656 132.543 66.8555 132.76 66.375 132.93C65.8945 133.094 65.3467 133.176 64.7314 133.176ZM72.5537 125.521V133H70.0225V123.49H72.3955L72.5537 125.521ZM72.1846 127.911H71.499C71.499 127.208 71.5898 126.575 71.7715 126.013C71.9531 125.444 72.208 124.961 72.5361 124.562C72.8643 124.158 73.2539 123.851 73.7051 123.64C74.1621 123.423 74.6719 123.314 75.2344 123.314C75.6797 123.314 76.0869 123.379 76.4561 123.508C76.8252 123.637 77.1416 123.842 77.4053 124.123C77.6748 124.404 77.8799 124.776 78.0205 125.239C78.167 125.702 78.2402 126.268 78.2402 126.936V133H75.6914V126.927C75.6914 126.505 75.6328 126.177 75.5156 125.942C75.3984 125.708 75.2256 125.544 74.9971 125.45C74.7744 125.351 74.499 125.301 74.1709 125.301C73.8311 125.301 73.5352 125.368 73.2832 125.503C73.0371 125.638 72.832 125.825 72.668 126.065C72.5098 126.3 72.3896 126.575 72.3076 126.892C72.2256 127.208 72.1846 127.548 72.1846 127.911ZM84.8232 123.49V125.283H79.2861V123.49H84.8232ZM80.6572 121.144H83.1885V130.135C83.1885 130.41 83.2236 130.621 83.2939 130.768C83.3701 130.914 83.4814 131.017 83.6279 131.075C83.7744 131.128 83.959 131.154 84.1816 131.154C84.3398 131.154 84.4805 131.148 84.6035 131.137C84.7324 131.119 84.8408 131.102 84.9287 131.084L84.9375 132.947C84.7207 133.018 84.4863 133.073 84.2344 133.114C83.9824 133.155 83.7041 133.176 83.3994 133.176C82.8428 133.176 82.3564 133.085 81.9404 132.903C81.5303 132.716 81.2139 132.417 80.9912 132.007C80.7686 131.597 80.6572 131.058 80.6572 130.39V121.144ZM10.2744 153.651C10.2744 153.423 10.2393 153.218 10.1689 153.036C10.1045 152.849 9.98145 152.679 9.7998 152.526C9.61816 152.368 9.36328 152.213 9.03516 152.061C8.70703 151.908 8.28223 151.75 7.76074 151.586C7.18066 151.398 6.62988 151.188 6.1084 150.953C5.59277 150.719 5.13574 150.446 4.7373 150.136C4.34473 149.819 4.03418 149.453 3.80566 149.037C3.58301 148.621 3.47168 148.138 3.47168 147.587C3.47168 147.054 3.58887 146.57 3.82324 146.137C4.05762 145.697 4.38574 145.322 4.80762 145.012C5.22949 144.695 5.72754 144.452 6.30176 144.282C6.88184 144.112 7.51758 144.027 8.20898 144.027C9.15234 144.027 9.97559 144.197 10.6787 144.537C11.3818 144.877 11.9268 145.343 12.3135 145.935C12.7061 146.526 12.9023 147.203 12.9023 147.965H10.2832C10.2832 147.59 10.2041 147.262 10.0459 146.98C9.89355 146.693 9.65918 146.468 9.34277 146.304C9.03223 146.14 8.63965 146.058 8.16504 146.058C7.70801 146.058 7.32715 146.128 7.02246 146.269C6.71777 146.403 6.48926 146.588 6.33691 146.822C6.18457 147.051 6.1084 147.309 6.1084 147.596C6.1084 147.812 6.16113 148.009 6.2666 148.185C6.37793 148.36 6.54199 148.524 6.75879 148.677C6.97559 148.829 7.24219 148.973 7.55859 149.107C7.875 149.242 8.24121 149.374 8.65723 149.503C9.35449 149.714 9.9668 149.951 10.4941 150.215C11.0273 150.479 11.4727 150.774 11.8301 151.103C12.1875 151.431 12.457 151.803 12.6387 152.219C12.8203 152.635 12.9111 153.106 12.9111 153.634C12.9111 154.19 12.8027 154.688 12.5859 155.128C12.3691 155.567 12.0557 155.939 11.6455 156.244C11.2354 156.549 10.7461 156.78 10.1777 156.938C9.60938 157.097 8.97363 157.176 8.27051 157.176C7.6377 157.176 7.01367 157.094 6.39844 156.93C5.7832 156.76 5.22363 156.505 4.71973 156.165C4.22168 155.825 3.82324 155.392 3.52441 154.864C3.22559 154.337 3.07617 153.713 3.07617 152.992H5.72168C5.72168 153.391 5.7832 153.728 5.90625 154.003C6.0293 154.278 6.20215 154.501 6.4248 154.671C6.65332 154.841 6.92285 154.964 7.2334 155.04C7.5498 155.116 7.89551 155.154 8.27051 155.154C8.72754 155.154 9.10254 155.09 9.39551 154.961C9.69434 154.832 9.91406 154.653 10.0547 154.425C10.2012 154.196 10.2744 153.938 10.2744 153.651ZM20.1709 154.724V147.49H22.7021V157H20.3203L20.1709 154.724ZM20.4521 152.772L21.1992 152.755C21.1992 153.388 21.126 153.977 20.9795 154.521C20.833 155.061 20.6133 155.529 20.3203 155.928C20.0273 156.32 19.6582 156.628 19.2129 156.851C18.7676 157.067 18.2432 157.176 17.6396 157.176C17.1768 157.176 16.749 157.111 16.3564 156.982C15.9697 156.848 15.6357 156.64 15.3545 156.358C15.0791 156.071 14.8623 155.705 14.7041 155.26C14.5518 154.809 14.4756 154.267 14.4756 153.634V147.49H17.0068V153.651C17.0068 153.933 17.0391 154.17 17.1035 154.363C17.1738 154.557 17.2705 154.715 17.3936 154.838C17.5166 154.961 17.6602 155.049 17.8242 155.102C17.9941 155.154 18.1816 155.181 18.3867 155.181C18.9082 155.181 19.3184 155.075 19.6172 154.864C19.9219 154.653 20.1357 154.366 20.2588 154.003C20.3877 153.634 20.4521 153.224 20.4521 152.772ZM28.5645 155.198C28.875 155.198 29.1504 155.14 29.3906 155.022C29.6309 154.899 29.8184 154.729 29.9531 154.513C30.0938 154.29 30.167 154.029 30.1729 153.73H32.5547C32.5488 154.398 32.3701 154.993 32.0186 155.515C31.667 156.03 31.1953 156.438 30.6035 156.736C30.0117 157.029 29.3496 157.176 28.6172 157.176C27.8789 157.176 27.2344 157.053 26.6836 156.807C26.1387 156.561 25.6846 156.221 25.3213 155.787C24.958 155.348 24.6855 154.838 24.5039 154.258C24.3223 153.672 24.2314 153.045 24.2314 152.377V152.122C24.2314 151.448 24.3223 150.821 24.5039 150.241C24.6855 149.655 24.958 149.146 25.3213 148.712C25.6846 148.272 26.1387 147.93 26.6836 147.684C27.2285 147.438 27.8672 147.314 28.5996 147.314C29.3789 147.314 30.0615 147.464 30.6475 147.763C31.2393 148.062 31.7021 148.489 32.0361 149.046C32.376 149.597 32.5488 150.25 32.5547 151.006H30.1729C30.167 150.689 30.0996 150.402 29.9707 150.145C29.8477 149.887 29.666 149.682 29.4258 149.529C29.1914 149.371 28.9014 149.292 28.5557 149.292C28.1865 149.292 27.8848 149.371 27.6504 149.529C27.416 149.682 27.2344 149.893 27.1055 150.162C26.9766 150.426 26.8857 150.728 26.833 151.067C26.7861 151.401 26.7627 151.753 26.7627 152.122V152.377C26.7627 152.746 26.7861 153.101 26.833 153.44C26.8799 153.78 26.9678 154.082 27.0967 154.346C27.2314 154.609 27.416 154.817 27.6504 154.97C27.8848 155.122 28.1895 155.198 28.5645 155.198ZM37.9512 155.198C38.2617 155.198 38.5371 155.14 38.7773 155.022C39.0176 154.899 39.2051 154.729 39.3398 154.513C39.4805 154.29 39.5537 154.029 39.5596 153.73H41.9414C41.9355 154.398 41.7568 154.993 41.4053 155.515C41.0537 156.03 40.582 156.438 39.9902 156.736C39.3984 157.029 38.7363 157.176 38.0039 157.176C37.2656 157.176 36.6211 157.053 36.0703 156.807C35.5254 156.561 35.0713 156.221 34.708 155.787C34.3447 155.348 34.0723 154.838 33.8906 154.258C33.709 153.672 33.6182 153.045 33.6182 152.377V152.122C33.6182 151.448 33.709 150.821 33.8906 150.241C34.0723 149.655 34.3447 149.146 34.708 148.712C35.0713 148.272 35.5254 147.93 36.0703 147.684C36.6152 147.438 37.2539 147.314 37.9863 147.314C38.7656 147.314 39.4482 147.464 40.0342 147.763C40.626 148.062 41.0889 148.489 41.4229 149.046C41.7627 149.597 41.9355 150.25 41.9414 151.006H39.5596C39.5537 150.689 39.4863 150.402 39.3574 150.145C39.2344 149.887 39.0527 149.682 38.8125 149.529C38.5781 149.371 38.2881 149.292 37.9424 149.292C37.5732 149.292 37.2715 149.371 37.0371 149.529C36.8027 149.682 36.6211 149.893 36.4922 150.162C36.3633 150.426 36.2725 150.728 36.2197 151.067C36.1729 151.401 36.1494 151.753 36.1494 152.122V152.377C36.1494 152.746 36.1729 153.101 36.2197 153.44C36.2666 153.78 36.3545 154.082 36.4834 154.346C36.6182 154.609 36.8027 154.817 37.0371 154.97C37.2715 155.122 37.5762 155.198 37.9512 155.198ZM47.7861 157.176C47.0479 157.176 46.3857 157.059 45.7998 156.824C45.2139 156.584 44.7158 156.253 44.3057 155.831C43.9014 155.409 43.5908 154.92 43.374 154.363C43.1572 153.801 43.0488 153.203 43.0488 152.57V152.219C43.0488 151.498 43.1514 150.839 43.3564 150.241C43.5615 149.644 43.8545 149.125 44.2354 148.686C44.6221 148.246 45.0908 147.909 45.6416 147.675C46.1924 147.435 46.8135 147.314 47.5049 147.314C48.1787 147.314 48.7764 147.426 49.2979 147.648C49.8193 147.871 50.2559 148.188 50.6074 148.598C50.9648 149.008 51.2344 149.5 51.416 150.074C51.5977 150.643 51.6885 151.275 51.6885 151.973V153.027H44.1299V151.34H49.2012V151.146C49.2012 150.795 49.1367 150.481 49.0078 150.206C48.8848 149.925 48.6973 149.702 48.4453 149.538C48.1934 149.374 47.8711 149.292 47.4785 149.292C47.1445 149.292 46.8574 149.365 46.6172 149.512C46.377 149.658 46.1807 149.863 46.0283 150.127C45.8818 150.391 45.7705 150.701 45.6943 151.059C45.624 151.41 45.5889 151.797 45.5889 152.219V152.57C45.5889 152.951 45.6416 153.303 45.7471 153.625C45.8584 153.947 46.0137 154.226 46.2129 154.46C46.418 154.694 46.6641 154.876 46.9512 155.005C47.2441 155.134 47.5752 155.198 47.9443 155.198C48.4014 155.198 48.8262 155.11 49.2188 154.935C49.6172 154.753 49.96 154.48 50.2471 154.117L51.4775 155.453C51.2783 155.74 51.0059 156.016 50.6602 156.279C50.3203 156.543 49.9102 156.76 49.4297 156.93C48.9492 157.094 48.4014 157.176 47.7861 157.176ZM58.2715 154.372C58.2715 154.19 58.2188 154.026 58.1133 153.88C58.0078 153.733 57.8115 153.599 57.5244 153.476C57.2432 153.347 56.8359 153.229 56.3027 153.124C55.8223 153.019 55.374 152.887 54.958 152.729C54.5479 152.564 54.1904 152.368 53.8857 152.14C53.5869 151.911 53.3525 151.642 53.1826 151.331C53.0127 151.015 52.9277 150.654 52.9277 150.25C52.9277 149.852 53.0127 149.477 53.1826 149.125C53.3584 148.773 53.6074 148.463 53.9297 148.193C54.2578 147.918 54.6562 147.704 55.125 147.552C55.5996 147.394 56.1328 147.314 56.7246 147.314C57.5508 147.314 58.2598 147.446 58.8516 147.71C59.4492 147.974 59.9062 148.337 60.2227 148.8C60.5449 149.257 60.7061 149.778 60.7061 150.364H58.1748C58.1748 150.118 58.1221 149.898 58.0166 149.705C57.917 149.506 57.7588 149.351 57.542 149.239C57.3311 149.122 57.0557 149.063 56.7158 149.063C56.4346 149.063 56.1914 149.113 55.9863 149.213C55.7812 149.307 55.623 149.436 55.5117 149.6C55.4062 149.758 55.3535 149.934 55.3535 150.127C55.3535 150.273 55.3828 150.405 55.4414 150.522C55.5059 150.634 55.6084 150.736 55.749 150.83C55.8896 150.924 56.0713 151.012 56.2939 151.094C56.5225 151.17 56.8037 151.24 57.1377 151.305C57.8232 151.445 58.4355 151.63 58.9746 151.858C59.5137 152.081 59.9414 152.386 60.2578 152.772C60.5742 153.153 60.7324 153.654 60.7324 154.275C60.7324 154.697 60.6387 155.084 60.4512 155.436C60.2637 155.787 59.9941 156.095 59.6426 156.358C59.291 156.616 58.8691 156.818 58.377 156.965C57.8906 157.105 57.3428 157.176 56.7334 157.176C55.8486 157.176 55.0986 157.018 54.4834 156.701C53.874 156.385 53.4111 155.983 53.0947 155.497C52.7842 155.005 52.6289 154.501 52.6289 153.985H55.0283C55.04 154.331 55.1279 154.609 55.292 154.82C55.4619 155.031 55.6758 155.184 55.9336 155.277C56.1973 155.371 56.4814 155.418 56.7861 155.418C57.1143 155.418 57.3867 155.374 57.6035 155.286C57.8203 155.192 57.9844 155.069 58.0957 154.917C58.2129 154.759 58.2715 154.577 58.2715 154.372ZM65.6016 157H63.0527V146.646C63.0527 145.926 63.1934 145.319 63.4746 144.827C63.7617 144.329 64.1631 143.954 64.6787 143.702C65.2002 143.444 65.8184 143.315 66.5332 143.315C66.7676 143.315 66.9932 143.333 67.21 143.368C67.4268 143.397 67.6377 143.436 67.8428 143.482L67.8164 145.39C67.7051 145.36 67.5879 145.34 67.4648 145.328C67.3418 145.316 67.1982 145.311 67.0342 145.311C66.7295 145.311 66.4688 145.363 66.252 145.469C66.041 145.568 65.8799 145.718 65.7686 145.917C65.6572 146.116 65.6016 146.359 65.6016 146.646V157ZM67.5 147.49V149.283H61.6377V147.49H67.5ZM74.4521 154.724V147.49H76.9834V157H74.6016L74.4521 154.724ZM74.7334 152.772L75.4805 152.755C75.4805 153.388 75.4072 153.977 75.2607 154.521C75.1143 155.061 74.8945 155.529 74.6016 155.928C74.3086 156.32 73.9395 156.628 73.4941 156.851C73.0488 157.067 72.5244 157.176 71.9209 157.176C71.458 157.176 71.0303 157.111 70.6377 156.982C70.251 156.848 69.917 156.64 69.6357 156.358C69.3604 156.071 69.1436 155.705 68.9854 155.26C68.833 154.809 68.7568 154.267 68.7568 153.634V147.49H71.2881V153.651C71.2881 153.933 71.3203 154.17 71.3848 154.363C71.4551 154.557 71.5518 154.715 71.6748 154.838C71.7979 154.961 71.9414 155.049 72.1055 155.102C72.2754 155.154 72.4629 155.181 72.668 155.181C73.1895 155.181 73.5996 155.075 73.8984 154.864C74.2031 154.653 74.417 154.366 74.54 154.003C74.6689 153.634 74.7334 153.224 74.7334 152.772ZM81.5889 143.5V157H79.0488V143.5H81.5889ZM86.3525 143.5V157H83.8125V143.5H86.3525ZM91.2656 155.928L93.7881 147.49H96.5039L92.6807 158.433C92.5986 158.673 92.4873 158.931 92.3467 159.206C92.2119 159.481 92.0273 159.742 91.793 159.988C91.5645 160.24 91.2744 160.445 90.9229 160.604C90.5771 160.762 90.1523 160.841 89.6484 160.841C89.4082 160.841 89.2119 160.826 89.0596 160.797C88.9072 160.768 88.7256 160.727 88.5146 160.674V158.819C88.5791 158.819 88.6465 158.819 88.7168 158.819C88.7871 158.825 88.8545 158.828 88.9189 158.828C89.2529 158.828 89.5254 158.79 89.7363 158.714C89.9473 158.638 90.1172 158.521 90.2461 158.362C90.375 158.21 90.4775 158.011 90.5537 157.765L91.2656 155.928ZM90.2109 147.49L92.2764 154.381L92.6367 157.062L90.9141 157.246L87.4951 147.49H90.2109Z" fill="#86B869"/>
</svg>
