<svg xmlns="http://www.w3.org/2000/svg" fill="none" viewBox="0 0 101 163"><path fill="#DAE6F0" d="M100 50c0 27.614-22.386 50-50 50S0 77.614 0 50 22.386 0 50 0s50 22.386 50 50zM7.859 50c0 23.274 18.867 42.141 42.141 42.141 23.274 0 42.141-18.867 42.141-42.141C92.141 26.726 73.274 7.859 50 7.859 26.726 7.859 7.859 26.726 7.859 50z"/><path fill="#035CE9" d="M96.07 50c2.17 0 3.946 1.762 3.776 3.925a50.004 50.004 0 0 1-30.712 42.269 50.004 50.004 0 0 1-15.209 3.652C51.763 100.016 50 98.24 50 96.07c0-2.17 1.763-3.91 3.924-4.112a42.14 42.14 0 0 0 38.034-38.034C92.16 51.764 93.9 50 96.07 50z"/><path fill="#fff" d="M0 50C0 22.386 22.386 0 50 0s50 22.386 50 50-22.386 50-50 50S0 77.614 0 50z"/><path fill="#DAE6F0" d="M100 50c0 27.614-22.386 50-50 50S0 77.614 0 50 22.386 0 50 0s50 22.386 50 50zM7.859 50c0 23.274 18.867 42.141 42.141 42.141 23.274 0 42.141-18.867 42.141-42.141C92.141 26.726 73.274 7.859 50 7.859 26.726 7.859 7.859 26.726 7.859 50z"/><circle cx="50.5" cy="50.5" r="50.5" fill="#86B869"/><path stroke="#fff" stroke-width="6" d="m34 51.445 10.227 9.828L66.5 39"/><path fill="#86B869" d="M19.846 128.438h-3.261v-2.056h3.26c.505 0 .915-.082 1.231-.246.317-.17.548-.405.694-.703.147-.299.22-.636.22-1.011 0-.381-.073-.735-.22-1.064a1.78 1.78 0 0 0-.694-.791c-.316-.199-.726-.298-1.23-.298h-2.347V133h-2.637v-12.797h4.984c1.002 0 1.86.182 2.575.545.72.357 1.271.853 1.652 1.485.381.633.572 1.357.572 2.171 0 .826-.19 1.541-.572 2.145-.38.603-.931 1.069-1.652 1.397-.715.328-1.573.492-2.575.492zm11.487 2.417v-4.236c0-.305-.05-.565-.15-.782a1.111 1.111 0 0 0-.465-.519c-.205-.123-.472-.184-.8-.184-.281 0-.524.05-.73.149a1.06 1.06 0 0 0-.474.413 1.142 1.142 0 0 0-.167.624h-2.531c0-.404.093-.788.28-1.151.188-.363.46-.683.818-.958a4.036 4.036 0 0 1 1.275-.659 5.507 5.507 0 0 1 1.67-.238c.738 0 1.394.124 1.968.37a3.008 3.008 0 0 1 1.354 1.107c.334.492.5 1.107.5 1.846v4.069c0 .522.033.949.097 1.283.065.328.159.615.282.862V133h-2.558a3.66 3.66 0 0 1-.281-.967 7.96 7.96 0 0 1-.088-1.178zm.334-3.647.018 1.433H30.27c-.334 0-.625.038-.87.114a1.611 1.611 0 0 0-.607.325 1.258 1.258 0 0 0-.352.475 1.64 1.64 0 0 0-.105.597c0 .217.05.413.15.589.099.17.242.305.43.405.188.093.407.14.66.14.38 0 .711-.076.992-.228a1.82 1.82 0 0 0 .65-.563c.159-.223.241-.433.247-.633l.668 1.073a4.35 4.35 0 0 1-.387.747c-.158.257-.36.501-.606.729a3.13 3.13 0 0 1-.888.554c-.346.14-.756.211-1.23.211-.604 0-1.152-.12-1.644-.361a3 3 0 0 1-1.16-1.01 2.655 2.655 0 0 1-.422-1.477c0-.498.094-.94.281-1.327a2.59 2.59 0 0 1 .826-.976c.37-.269.83-.471 1.38-.606.551-.141 1.19-.211 1.916-.211h1.468zm6.847 4.72 2.522-8.438h2.716l-3.823 10.943c-.082.24-.194.498-.334.773-.135.275-.32.536-.554.782a2.601 2.601 0 0 1-.87.616c-.346.158-.77.237-1.274.237-.24 0-.437-.015-.59-.044a9.831 9.831 0 0 1-.544-.123v-1.855h.202c.07.006.137.009.202.009.334 0 .606-.038.817-.114.211-.076.381-.193.51-.352.129-.152.232-.351.308-.597l.712-1.837zm-1.055-8.438 2.065 6.891.36 2.681-1.722.184-3.419-9.756h2.716zm9.835 1.969V133h-2.54v-9.51h2.382l.158 1.969zm-.352 2.452h-.703c0-.662.08-1.271.238-1.828a4.46 4.46 0 0 1 .712-1.459 3.275 3.275 0 0 1 1.168-.967c.463-.228 1-.343 1.609-.343.422 0 .808.065 1.16.194.352.123.653.319.905.589.258.263.457.609.598 1.037.14.422.21.928.21 1.52V133h-2.53v-6.064c0-.434-.059-.768-.176-1.002a.998.998 0 0 0-.501-.493 1.889 1.889 0 0 0-.765-.14c-.328 0-.615.067-.861.202-.24.135-.44.322-.598.562a2.52 2.52 0 0 0-.351.827 4.346 4.346 0 0 0-.115 1.019zm5.66-.29-.905.114c0-.621.076-1.198.229-1.731.158-.533.39-1.002.694-1.406a3.2 3.2 0 0 1 1.152-.941c.456-.228.984-.343 1.581-.343.457 0 .874.068 1.249.203.375.129.694.337.958.624.27.281.474.65.615 1.107.146.457.22 1.017.22 1.679V133h-2.54v-6.073c0-.44-.06-.774-.176-1.002a.921.921 0 0 0-.492-.484 1.864 1.864 0 0 0-.756-.14c-.305 0-.572.061-.8.184a1.6 1.6 0 0 0-.571.493c-.153.21-.267.457-.343.738a3.384 3.384 0 0 0-.114.905zm12.13 5.555c-.739 0-1.4-.117-1.987-.352a4.356 4.356 0 0 1-1.494-.993 4.412 4.412 0 0 1-.932-1.468 4.94 4.94 0 0 1-.325-1.793v-.351c0-.721.103-1.38.308-1.978a4.648 4.648 0 0 1 .879-1.555 3.85 3.85 0 0 1 1.406-1.011c.55-.24 1.172-.361 1.863-.361.674 0 1.272.112 1.793.334.522.223.958.54 1.31.95.357.41.627.902.808 1.476.182.569.273 1.201.273 1.899v1.054h-7.559v-1.687h5.072v-.194c0-.351-.065-.665-.194-.94a1.493 1.493 0 0 0-.562-.668c-.252-.164-.575-.246-.967-.246-.334 0-.621.073-.862.22-.24.146-.436.351-.588.615a3.348 3.348 0 0 0-.334.932 5.92 5.92 0 0 0-.106 1.16v.351c0 .381.053.733.158 1.055.112.322.267.601.466.835.205.234.451.416.739.545.292.129.623.193.993.193.457 0 .882-.088 1.274-.263a2.767 2.767 0 0 0 1.028-.818l1.23 1.336c-.198.287-.47.563-.816.826a4.36 4.36 0 0 1-1.231.651c-.48.164-1.028.246-1.644.246zm7.822-7.655V133h-2.532v-9.51h2.373l.159 2.031zm-.37 2.39H71.5c0-.703.09-1.336.273-1.898a4.326 4.326 0 0 1 .764-1.451 3.287 3.287 0 0 1 1.17-.922 3.52 3.52 0 0 1 1.528-.326c.446 0 .853.065 1.222.194.37.129.686.334.95.615.269.281.474.653.614 1.116.147.463.22 1.029.22 1.697V133h-2.549v-6.073c0-.422-.058-.75-.175-.985a.989.989 0 0 0-.519-.492c-.223-.099-.498-.149-.826-.149-.34 0-.636.067-.888.202a1.766 1.766 0 0 0-.615.562 2.66 2.66 0 0 0-.36.827 4.048 4.048 0 0 0-.123 1.019zm12.64-4.421v1.793h-5.538v-1.793h5.537zm-4.167-2.346h2.532v8.991c0 .275.035.486.105.633a.632.632 0 0 0 .334.307c.146.053.331.079.554.079.158 0 .299-.006.421-.017.13-.018.238-.035.326-.053l.008 1.863a4.67 4.67 0 0 1-.703.167c-.252.041-.53.062-.835.062-.556 0-1.043-.091-1.459-.273a2.007 2.007 0 0 1-.949-.896c-.222-.41-.334-.949-.334-1.617v-9.246zm-70.383 32.507c0-.228-.035-.433-.105-.615a1.168 1.168 0 0 0-.37-.51 3.267 3.267 0 0 0-.764-.465 10.674 10.674 0 0 0-1.274-.475 16.1 16.1 0 0 1-1.653-.633 6.796 6.796 0 0 1-1.37-.817 3.693 3.693 0 0 1-.932-1.099c-.223-.416-.334-.899-.334-1.45 0-.533.117-1.017.351-1.45.235-.44.563-.815.985-1.125.421-.317.92-.56 1.494-.73a6.761 6.761 0 0 1 1.907-.255c.943 0 1.767.17 2.47.51.703.34 1.248.806 1.634 1.398.393.591.59 1.268.59 2.03h-2.62c0-.375-.079-.703-.237-.985a1.604 1.604 0 0 0-.703-.676c-.31-.164-.703-.246-1.178-.246-.457 0-.838.07-1.143.211a1.52 1.52 0 0 0-.685.553 1.366 1.366 0 0 0-.229.774c0 .216.053.413.159.589.11.175.275.339.492.492.217.152.483.296.8.43a11.5 11.5 0 0 0 1.098.396c.697.211 1.31.448 1.837.712.533.264.979.559 1.336.888.357.328.627.7.809 1.116.181.416.272.887.272 1.415 0 .556-.108 1.054-.325 1.494-.217.439-.53.811-.94 1.116-.41.305-.9.536-1.468.694a7.077 7.077 0 0 1-1.907.238 7.238 7.238 0 0 1-1.873-.246 5.685 5.685 0 0 1-1.678-.765 3.85 3.85 0 0 1-1.196-1.301c-.298-.527-.448-1.151-.448-1.872h2.646c0 .399.061.736.184 1.011.123.275.296.498.519.668.228.17.498.293.808.369.317.076.663.114 1.038.114.457 0 .832-.064 1.125-.193.298-.129.518-.308.659-.536.146-.229.22-.487.22-.774zm9.897 1.073v-7.234h2.531V157H20.32l-.15-2.276zm.281-1.952.747-.017c0 .633-.073 1.222-.22 1.766a4.213 4.213 0 0 1-.659 1.407 3.09 3.09 0 0 1-1.107.923c-.445.216-.97.325-1.573.325a4.09 4.09 0 0 1-1.284-.194 2.594 2.594 0 0 1-1.002-.624 3.021 3.021 0 0 1-.65-1.098c-.152-.451-.228-.993-.228-1.626v-6.144h2.53v6.161c0 .282.033.519.098.712.07.194.166.352.29.475.123.123.266.211.43.264.17.052.358.079.563.079.521 0 .931-.106 1.23-.317a1.67 1.67 0 0 0 .642-.861c.129-.369.193-.779.193-1.231zm8.112 2.426c.311 0 .586-.058.827-.176.24-.123.427-.293.562-.509.14-.223.214-.484.22-.783h2.382a3.173 3.173 0 0 1-.536 1.785 3.684 3.684 0 0 1-1.415 1.221c-.592.293-1.254.44-1.987.44-.738 0-1.383-.123-1.933-.369a3.77 3.77 0 0 1-1.363-1.02 4.46 4.46 0 0 1-.817-1.529 6.322 6.322 0 0 1-.273-1.881v-.255c0-.674.091-1.301.273-1.881a4.362 4.362 0 0 1 .817-1.529c.364-.44.818-.782 1.363-1.028.544-.246 1.183-.37 1.916-.37.779 0 1.461.15 2.047.449a3.337 3.337 0 0 1 1.39 1.283c.339.551.512 1.204.518 1.96h-2.382a1.977 1.977 0 0 0-.202-.861 1.462 1.462 0 0 0-.545-.616c-.235-.158-.525-.237-.87-.237-.37 0-.671.079-.906.237a1.523 1.523 0 0 0-.544.633 3.16 3.16 0 0 0-.273.905c-.047.334-.07.686-.07 1.055v.255c0 .369.023.724.07 1.063.047.34.135.642.264.906a1.6 1.6 0 0 0 .553.624c.235.152.54.228.915.228zm9.387 0c.31 0 .586-.058.826-.176.24-.123.428-.293.563-.509.14-.223.214-.484.22-.783h2.381a3.173 3.173 0 0 1-.536 1.785 3.684 3.684 0 0 1-1.415 1.221c-.592.293-1.254.44-1.986.44-.738 0-1.383-.123-1.934-.369a3.77 3.77 0 0 1-1.362-1.02 4.463 4.463 0 0 1-.817-1.529 6.322 6.322 0 0 1-.273-1.881v-.255c0-.674.091-1.301.273-1.881a4.364 4.364 0 0 1 .817-1.529c.363-.44.817-.782 1.362-1.028.545-.246 1.184-.37 1.916-.37.78 0 1.462.15 2.048.449a3.338 3.338 0 0 1 1.389 1.283c.34.551.512 1.204.518 1.96H39.56a1.977 1.977 0 0 0-.203-.861 1.462 1.462 0 0 0-.544-.616c-.235-.158-.525-.237-.87-.237-.37 0-.671.079-.906.237a1.523 1.523 0 0 0-.545.633c-.129.264-.22.566-.272.905-.047.334-.07.686-.07 1.055v.255c0 .369.023.724.07 1.063.047.34.135.642.263.906a1.6 1.6 0 0 0 .554.624c.235.152.54.228.914.228zm9.835 1.978c-.738 0-1.4-.117-1.986-.352a4.356 4.356 0 0 1-1.494-.993 4.412 4.412 0 0 1-.932-1.468 4.94 4.94 0 0 1-.325-1.793v-.351c0-.721.102-1.38.307-1.978a4.65 4.65 0 0 1 .88-1.555 3.85 3.85 0 0 1 1.406-1.011c.55-.24 1.171-.361 1.863-.361.674 0 1.271.112 1.793.334.521.223.958.54 1.31.95.357.41.626.902.808 1.476.182.569.273 1.201.273 1.899v1.054h-7.56v-1.687h5.072v-.194c0-.351-.064-.665-.193-.94a1.493 1.493 0 0 0-.563-.668c-.252-.164-.574-.246-.967-.246-.334 0-.62.073-.86.22-.241.146-.437.351-.59.615a3.348 3.348 0 0 0-.334.932 5.92 5.92 0 0 0-.105 1.16v.351c0 .381.053.733.158 1.055.111.322.267.601.466.835.205.234.451.416.738.545.293.129.624.193.993.193.457 0 .882-.088 1.275-.263a2.767 2.767 0 0 0 1.028-.818l1.23 1.336a3.73 3.73 0 0 1-.817.826 4.36 4.36 0 0 1-1.23.651c-.48.164-1.029.246-1.644.246zm10.486-2.804a.82.82 0 0 0-.159-.492c-.105-.147-.301-.281-.589-.404-.28-.129-.688-.247-1.221-.352a9.496 9.496 0 0 1-1.345-.395 4.722 4.722 0 0 1-1.072-.589 2.562 2.562 0 0 1-.703-.809 2.249 2.249 0 0 1-.255-1.081c0-.398.085-.773.255-1.125.175-.352.424-.662.747-.932a3.534 3.534 0 0 1 1.195-.641 5.047 5.047 0 0 1 1.6-.238c.826 0 1.535.132 2.127.396.597.264 1.054.627 1.37 1.09.323.457.484.978.484 1.564h-2.531c0-.246-.053-.466-.158-.659a1.05 1.05 0 0 0-.475-.466c-.21-.117-.486-.176-.826-.176-.281 0-.525.05-.73.15a1.121 1.121 0 0 0-.474.387.93.93 0 0 0-.159.527c0 .146.03.278.088.395a.957.957 0 0 0 .308.308c.14.094.322.182.545.264.229.076.51.146.844.211.685.14 1.297.325 1.837.553.539.223.966.528 1.283.914.316.381.474.882.474 1.503 0 .422-.093.809-.28 1.161a2.797 2.797 0 0 1-.81.922c-.351.258-.773.46-1.265.607a5.94 5.94 0 0 1-1.644.211c-.884 0-1.634-.158-2.25-.475-.609-.316-1.072-.718-1.388-1.204-.31-.492-.466-.996-.466-1.512h2.4c.011.346.099.624.263.835.17.211.384.364.642.457.263.094.547.141.852.141.328 0 .6-.044.817-.132.217-.094.381-.217.493-.369a.891.891 0 0 0 .176-.545zm7.33 2.628h-2.55v-10.354c0-.72.141-1.327.423-1.819a2.759 2.759 0 0 1 1.204-1.125c.521-.258 1.14-.387 1.854-.387.235 0 .46.018.677.053.217.029.428.068.633.114l-.027 1.908a2.152 2.152 0 0 0-.351-.062 4.529 4.529 0 0 0-.43-.017c-.305 0-.566.052-.783.158a1.052 1.052 0 0 0-.483.448 1.473 1.473 0 0 0-.167.729V157zm1.898-9.51v1.793h-5.862v-1.793H67.5zm6.952 7.234v-7.234h2.531V157h-2.381l-.15-2.276zm.281-1.952.748-.017c0 .633-.074 1.222-.22 1.766a4.213 4.213 0 0 1-.66 1.407 3.09 3.09 0 0 1-1.107.923c-.445.216-.97.325-1.573.325-.463 0-.89-.065-1.283-.194a2.595 2.595 0 0 1-1.002-.624 3.023 3.023 0 0 1-.65-1.098c-.153-.451-.23-.993-.23-1.626v-6.144h2.532v6.161c0 .282.032.519.097.712.07.194.167.352.29.475.123.123.266.211.43.264.17.052.358.079.563.079.521 0 .932-.106 1.23-.317a1.67 1.67 0 0 0 .642-.861c.129-.369.193-.779.193-1.231zm6.856-9.272V157h-2.54v-13.5h2.54zm4.764 0V157h-2.54v-13.5h2.54zm4.913 12.428 2.522-8.438h2.716l-3.823 10.943c-.082.24-.194.498-.334.773a3.14 3.14 0 0 1-.554.782 2.602 2.602 0 0 1-.87.616c-.346.158-.77.237-1.275.237-.24 0-.436-.015-.588-.044a9.832 9.832 0 0 1-.545-.123v-1.855h.202c.07.006.138.009.202.009.334 0 .606-.038.817-.114.211-.076.381-.193.51-.352.129-.152.232-.351.308-.597l.712-1.837zm-1.055-8.438 2.065 6.891.36 2.681-1.722.184-3.419-9.756h2.716z"/></svg>