<svg xmlns="http://www.w3.org/2000/svg" fill="none" viewBox="0 0 14 10"><rect width="14" height="10" fill="#F0F5F9" rx="1"/><path fill="#2566AF" d="M6.356 6.45h-.791l.494-2.898h.79L6.357 6.45zM4.899 3.552l-.754 1.993-.089-.43v.001L3.79 3.813s-.032-.261-.375-.261H2.168l-.014.049s.381.076.827.331l.687 2.518h.824L5.75 3.552H4.9zm6.22 2.898h.727l-.633-2.898h-.636c-.293 0-.365.216-.365.216L9.032 6.45h.825l.165-.43h1.005l.093.43zm-.87-1.025.416-1.085.234 1.085h-.65zM9.095 4.249l.113-.623S8.86 3.5 8.496 3.5c-.392 0-1.325.164-1.325.96 0 .748 1.094.758 1.094 1.15 0 .394-.98.324-1.305.076l-.117.65s.353.164.893.164 1.353-.267 1.353-.992c0-.754-1.103-.824-1.103-1.152 0-.327.77-.285 1.108-.107z"/><path fill="#E6A540" d="M4.056 5.116 3.79 3.813s-.032-.261-.375-.261H2.168l-.014.049s.599.118 1.174.562c.549.424.728.953.728.953z"/></svg>