<svg xmlns="http://www.w3.org/2000/svg" fill="none" viewBox="0 0 50 50"><g clip-path="url(#a)"><path fill="#7F54B3" d="M4.64 10.417h40.7A4.657 4.657 0 0 1 50 15.074v15.524a4.657 4.657 0 0 1-4.66 4.658H30.745l2.003 4.902-8.81-4.902H4.66a4.657 4.657 0 0 1-4.66-4.658V15.074c-.02-2.553 2.064-4.657 4.64-4.657z"/><path fill="#fff" d="M2.847 14.662c.285-.386.712-.59 1.28-.63 1.037-.081 1.627.406 1.769 1.462.63 4.245 1.321 7.84 2.053 10.785l4.451-8.47c.407-.77.915-1.177 1.524-1.218.895-.06 1.444.508 1.667 1.706.508 2.702 1.159 4.997 1.931 6.947.529-5.16 1.423-8.876 2.683-11.171.305-.569.752-.853 1.342-.894.467-.04.894.102 1.28.406.386.305.59.69.63 1.158.02.365-.04.67-.203.975-.793 1.462-1.443 3.92-1.972 7.332-.508 3.31-.69 5.89-.569 7.738.04.508-.04.955-.244 1.34-.244.447-.61.691-1.077.732-.528.04-1.077-.203-1.605-.752-1.89-1.93-3.395-4.813-4.492-8.652a380.24 380.24 0 0 0-2.927 5.85c-1.2 2.294-2.216 3.473-3.07 3.533-.548.041-1.016-.426-1.422-1.401-1.037-2.66-2.155-7.8-3.354-15.416-.081-.528.04-.995.325-1.36zm43.68 3.188c-.732-1.28-1.809-2.051-3.252-2.356a5.335 5.335 0 0 0-1.098-.122c-1.95 0-3.536 1.016-4.776 3.047-1.057 1.726-1.585 3.636-1.585 5.727 0 1.564.325 2.905.975 4.022.732 1.28 1.81 2.051 3.252 2.356.386.081.752.122 1.098.122 1.971 0 3.557-1.016 4.776-3.047 1.057-1.746 1.585-3.656 1.585-5.747.02-1.585-.325-2.905-.975-4.002zm-2.561 5.626c-.285 1.34-.793 2.336-1.545 3.006-.59.529-1.138.752-1.646.65-.488-.101-.894-.528-1.2-1.32a5.151 5.151 0 0 1-.365-1.848c0-.508.04-1.016.142-1.483a6.564 6.564 0 0 1 1.077-2.417c.671-.995 1.383-1.401 2.114-1.259.488.102.895.528 1.2 1.32.243.63.365 1.26.365 1.848 0 .529-.04 1.036-.142 1.503zM33.803 17.85c-.731-1.28-1.829-2.051-3.252-2.356a5.336 5.336 0 0 0-1.097-.122c-1.951 0-3.537 1.016-4.777 3.047-1.056 1.726-1.585 3.636-1.585 5.727 0 1.564.325 2.905.976 4.022.731 1.28 1.809 2.051 3.252 2.356.386.081.752.122 1.097.122 1.972 0 3.557-1.016 4.776-3.047 1.058-1.746 1.586-3.656 1.586-5.747 0-1.585-.325-2.905-.976-4.002zm-2.58 5.626c-.285 1.34-.794 2.336-1.546 3.006-.59.529-1.138.752-1.646.65-.488-.101-.894-.528-1.2-1.32a5.151 5.151 0 0 1-.365-1.848c0-.508.04-1.016.142-1.483a6.566 6.566 0 0 1 1.078-2.417c.67-.995 1.382-1.401 2.113-1.259.488.102.895.528 1.2 1.32.243.63.365 1.26.365 1.848.02.529-.04 1.036-.142 1.503z"/></g><defs><clipPath id="a"><path fill="#fff" d="M0 0H50V29.861H0z" transform="translate(0 10.417)"/></clipPath></defs></svg>