<svg width="928" height="49" viewBox="0 0 928 49" fill="none" xmlns="http://www.w3.org/2000/svg">
<rect y="0.0795898" width="928" height="48" rx="16" fill="white"/>
<path d="M49.315 28.3376V19.5526H52.7644V28.3303L49.315 28.3376ZM63.9884 28.3303V23.4628C63.9884 20.3347 62.3286 19.3626 60.3859 19.3407C59.4145 19.3261 58.2596 19.6403 57.4794 20.5101L57.3265 19.5526H54.2824V28.3303H57.6784V23.7113C57.6784 22.5565 58.4432 22.023 59.2616 22.023C59.8964 22.023 60.5466 22.3957 60.5466 23.4774V28.3303H63.9884ZM65.217 28.9588C65.0335 31.6411 66.8768 33.2782 70.1809 33.2782C72.812 33.2782 75.4049 32.2112 75.4049 29.3681C75.4049 28.8858 75.2902 27.6433 73.5922 26.7224C74.6553 25.9916 75.2518 24.9099 75.2672 23.8063C75.3131 22.9365 74.9995 22.0887 74.3876 21.4456L75.5884 20.0935L73.1103 18.4052C72.812 18.7779 72.4373 19.2238 72.1237 19.6111C71.5118 19.3918 70.8693 19.2822 70.2191 19.2749C67.3662 19.2749 65.0869 21.0144 65.0869 23.7697C65.0869 26.4885 67.1216 28.1915 70.2191 28.1915C71.4659 28.1915 71.8789 28.725 71.8789 29.3608C71.8789 30.2159 71.0758 30.6252 70.1809 30.6252C69.2708 30.6252 68.4064 30.3255 68.4446 28.9588H65.217ZM70.2191 21.9572C71.2288 21.9572 71.9554 22.7757 71.9554 23.7697C71.9554 24.9391 71.137 25.4945 70.2191 25.4945C69.2095 25.4945 68.4294 24.8222 68.4294 23.7697C68.4294 22.593 69.2095 21.9572 70.2191 21.9572ZM81.1482 28.9588C80.9646 31.6411 82.8079 33.2782 86.1121 33.2782C88.7432 33.2782 91.336 32.2112 91.336 29.3681C91.336 28.8858 91.2213 27.6433 89.5234 26.7224C90.5865 25.9916 91.183 24.9099 91.1984 23.8063C91.2443 22.9365 90.9306 22.0887 90.3188 21.4456L91.5119 20.0935L89.0415 18.4052C88.7432 18.7779 88.3683 19.2238 88.0548 19.6111C87.443 19.3918 86.8005 19.2822 86.1503 19.2749C83.2974 19.2749 81.0182 21.0144 81.0182 23.7697C81.0182 26.4885 83.0526 28.1915 86.1503 28.1915C87.3971 28.1915 87.81 28.725 87.81 29.3608C87.81 30.2159 87.0069 30.6252 86.1121 30.6252C85.1943 30.6252 84.3376 30.3255 84.3758 28.9588H81.1482ZM86.1503 21.9572C87.16 21.9572 87.8865 22.7757 87.8865 23.7697C87.8865 24.9391 87.0681 25.4945 86.1503 25.4945C85.1407 25.4945 84.3605 24.8222 84.3605 23.7697C84.3529 22.593 85.1407 21.9572 86.1503 21.9572ZM92.6363 28.9588C92.4527 31.6411 94.2959 33.2782 97.6002 33.2782C100.231 33.2782 102.824 32.2112 102.824 29.3681C102.824 28.8858 102.709 27.6433 101.011 26.7224C102.075 25.9916 102.671 24.9099 102.686 23.8063C102.732 22.9365 102.419 22.0887 101.807 21.4456L103 20.0935L100.53 18.4052C100.231 18.7779 99.8565 19.2238 99.5428 19.6111C98.931 19.3918 98.2885 19.2822 97.6384 19.2749C94.7855 19.2749 92.5062 21.0144 92.5062 23.7697C92.5062 26.4885 94.5407 28.1915 97.6384 28.1915C98.8851 28.1915 99.2981 28.725 99.2981 29.3608C99.2981 30.2159 98.4951 30.6252 97.6002 30.6252C96.6823 30.6252 95.8257 30.3255 95.8639 28.9588H92.6363ZM97.6384 21.9572C98.648 21.9572 99.3746 22.7757 99.3746 23.7697C99.3746 24.9391 98.5562 25.4945 97.6384 25.4945C96.6288 25.4945 95.8487 24.8222 95.8487 23.7697C95.8487 22.593 96.6288 21.9572 97.6384 21.9572Z" fill="#32375E"/>
<path d="M44.6361 14.881V28.3376L48.0856 28.3303V14.881H44.6361Z" fill="#32375E"/>
<path d="M40.0295 14.881V28.3376L43.479 28.3303V14.881H40.0295Z" fill="#32375E"/>
<path d="M35.3994 19.5526V28.3376L38.8489 28.3303V19.5526H35.3994Z" fill="#32375E"/>
<path d="M24 14.881V28.3686L27.3138 28.3632V14.881H24Z" fill="#32375E"/>
<path fill-rule="evenodd" clip-rule="evenodd" d="M24 23.9415C24 21.1862 26.2793 19.4467 29.1322 19.4467H29.1731C32.026 19.4467 34.3053 21.1862 34.3053 23.9415C34.3053 26.6604 32.1301 28.3632 29.1731 28.3632H29.1322C26.1752 28.3632 24 26.6604 24 23.9415ZM29.1976 22.2667C30.2603 22.2667 31.0252 23.0853 31.0252 24.0793C31.0252 25.2487 30.1637 25.8041 29.1976 25.8041C28.1349 25.8041 27.3138 25.1317 27.3138 24.0793C27.3138 22.9026 28.1349 22.2667 29.1976 22.2667Z" fill="#32375E"/>
<path d="M78.1379 22.5393C78.503 22.5393 78.7362 22.6712 78.8838 22.8387C79.0405 23.0164 79.1306 23.2695 79.13 23.5413C79.1294 23.8132 79.0383 24.0673 78.8804 24.246C78.7315 24.4145 78.4986 24.5457 78.1379 24.5457C77.7888 24.5457 77.5611 24.4169 77.4135 24.2481C77.2568 24.0687 77.1651 23.8131 77.1636 23.5395C77.1621 23.266 77.2508 23.0129 77.4047 22.8361C77.5492 22.6701 77.7776 22.5393 78.1379 22.5393Z" fill="#3F7BDA" stroke="#3F7BDA"/>
<path d="M348.36 12.1757C348.36 9.98423 350.137 8.2077 352.328 8.2077H376.136C378.328 8.2077 380.104 9.98423 380.104 12.1757V35.9835C380.104 38.1749 378.328 39.9515 376.136 39.9515H352.328C350.137 39.9515 348.36 38.1749 348.36 35.9835V12.1757Z" fill="#F0F5F9"/>
<path d="M363.682 23.5285V21.3241H364.783V23.5285H366.988V24.6307H364.783V26.8351H363.682V24.6307H361.477V23.5285H363.682ZM364.233 29.5907C361.188 29.5907 358.722 27.1234 358.722 24.0796C358.722 21.0358 361.188 18.5685 364.233 18.5685C367.276 18.5685 369.743 21.0358 369.743 24.0796C369.743 27.1234 367.276 29.5907 364.233 29.5907ZM364.233 28.4885C365.402 28.4885 366.523 28.0239 367.35 27.1972C368.177 26.3703 368.642 25.2489 368.642 24.0796C368.642 22.9103 368.177 21.7889 367.35 20.9621C366.523 20.1352 365.402 19.6708 364.233 19.6708C363.063 19.6708 361.942 20.1352 361.115 20.9621C360.288 21.7889 359.823 22.9103 359.823 24.0796C359.823 25.2489 360.288 26.3703 361.115 27.1972C361.942 28.0239 363.063 28.4885 364.233 28.4885Z" fill="#3F7BDA"/>
<path d="M394.853 27.0798H393.369L393.378 26.3132H394.853C395.361 26.3132 395.784 26.2074 396.123 25.9958C396.461 25.7809 396.715 25.4815 396.884 25.0974C397.057 24.71 397.143 24.2575 397.143 23.7399V23.3054C397.143 22.8985 397.094 22.5371 396.997 22.2214C396.899 21.9024 396.756 21.6338 396.567 21.4157C396.378 21.1944 396.147 21.0267 395.874 20.9128C395.603 20.7988 395.292 20.7419 394.941 20.7419H393.339V19.9704H394.941C395.406 19.9704 395.831 20.0485 396.215 20.2048C396.599 20.3578 396.93 20.5807 397.207 20.8737C397.486 21.1634 397.701 21.515 397.851 21.9284C398.001 22.3386 398.076 22.8008 398.076 23.3151V23.7399C398.076 24.2543 398.001 24.7181 397.851 25.1315C397.701 25.5417 397.485 25.8916 397.202 26.1813C396.922 26.471 396.583 26.694 396.186 26.8503C395.792 27.0033 395.348 27.0798 394.853 27.0798ZM393.872 19.9704V27.0798H392.929V19.9704H393.872ZM402.47 26.1765V23.4567C402.47 23.2484 402.428 23.0677 402.343 22.9147C402.262 22.7585 402.138 22.638 401.972 22.5534C401.806 22.4688 401.601 22.4265 401.357 22.4265C401.129 22.4265 400.929 22.4655 400.756 22.5436C400.587 22.6218 400.454 22.7243 400.356 22.8513C400.262 22.9782 400.214 23.1149 400.214 23.2614H399.311C399.311 23.0726 399.36 22.8854 399.458 22.6999C399.555 22.5143 399.695 22.3467 399.877 22.197C400.063 22.044 400.284 21.9235 400.542 21.8356C400.802 21.7445 401.092 21.6989 401.411 21.6989C401.795 21.6989 402.133 21.764 402.426 21.8942C402.722 22.0244 402.954 22.2214 403.12 22.485C403.289 22.7455 403.374 23.0726 403.374 23.4665V25.9274C403.374 26.1032 403.388 26.2904 403.417 26.489C403.45 26.6875 403.497 26.8584 403.559 27.0016V27.0798H402.617C402.571 26.9756 402.535 26.8373 402.509 26.6647C402.483 26.489 402.47 26.3262 402.47 26.1765ZM402.626 23.8766L402.636 24.5114H401.723C401.466 24.5114 401.236 24.5326 401.035 24.5749C400.833 24.614 400.664 24.6742 400.527 24.7556C400.39 24.8369 400.286 24.9395 400.214 25.0632C400.143 25.1836 400.107 25.3252 400.107 25.488C400.107 25.654 400.144 25.8054 400.219 25.9421C400.294 26.0788 400.406 26.1878 400.556 26.2692C400.709 26.3474 400.896 26.3864 401.118 26.3864C401.394 26.3864 401.639 26.3278 401.85 26.2106C402.062 26.0934 402.229 25.9502 402.353 25.7809C402.48 25.6117 402.548 25.4473 402.558 25.2878L402.944 25.7224C402.921 25.8591 402.859 26.0104 402.758 26.1765C402.657 26.3425 402.522 26.502 402.353 26.655C402.187 26.8047 401.988 26.93 401.757 27.0309C401.529 27.1286 401.272 27.1774 400.986 27.1774C400.628 27.1774 400.314 27.1074 400.043 26.9675C399.777 26.8275 399.568 26.6403 399.418 26.4059C399.272 26.1683 399.199 25.903 399.199 25.61C399.199 25.3268 399.254 25.0778 399.365 24.863C399.475 24.6449 399.635 24.4642 399.843 24.321C400.052 24.1745 400.302 24.0638 400.595 23.989C400.888 23.9141 401.215 23.8766 401.577 23.8766H402.626ZM407.871 25.6784C407.871 25.5482 407.841 25.4278 407.783 25.3171C407.727 25.2031 407.612 25.1006 407.436 25.0095C407.264 24.9151 407.003 24.8337 406.655 24.7653C406.362 24.7035 406.097 24.6302 405.859 24.5456C405.625 24.461 405.424 24.3584 405.258 24.238C405.096 24.1175 404.97 23.9759 404.882 23.8132C404.794 23.6504 404.75 23.46 404.75 23.2419C404.75 23.0335 404.796 22.8366 404.887 22.6511C404.982 22.4655 405.113 22.3011 405.283 22.1579C405.455 22.0147 405.662 21.9024 405.903 21.821C406.144 21.7396 406.412 21.6989 406.708 21.6989C407.132 21.6989 407.493 21.7738 407.792 21.9235C408.092 22.0733 408.321 22.2735 408.481 22.5241C408.64 22.7715 408.72 23.0466 408.72 23.3493H407.817C407.817 23.2028 407.773 23.0612 407.685 22.9245C407.6 22.7845 407.475 22.669 407.309 22.5778C407.146 22.4867 406.946 22.4411 406.708 22.4411C406.458 22.4411 406.254 22.4802 406.098 22.5583C405.945 22.6332 405.833 22.7292 405.761 22.8464C405.693 22.9636 405.659 23.0873 405.659 23.2175C405.659 23.3151 405.675 23.403 405.708 23.4811C405.743 23.556 405.805 23.626 405.893 23.6911C405.981 23.753 406.105 23.8115 406.264 23.8669C406.424 23.9222 406.627 23.9776 406.875 24.0329C407.307 24.1306 407.664 24.2477 407.944 24.3845C408.224 24.5212 408.432 24.6888 408.569 24.8874C408.706 25.086 408.774 25.3268 408.774 25.61C408.774 25.8412 408.725 26.0528 408.627 26.2448C408.533 26.4369 408.395 26.6029 408.212 26.7429C408.033 26.8796 407.819 26.987 407.568 27.0651C407.32 27.14 407.042 27.1774 406.733 27.1774C406.267 27.1774 405.874 27.0944 405.551 26.9284C405.229 26.7624 404.985 26.5475 404.819 26.2839C404.653 26.0202 404.57 25.7419 404.57 25.4489H405.478C405.491 25.6963 405.563 25.8932 405.693 26.0397C405.823 26.183 405.983 26.2855 406.171 26.3474C406.36 26.4059 406.547 26.4352 406.733 26.4352C406.98 26.4352 407.187 26.4027 407.353 26.3376C407.522 26.2725 407.651 26.183 407.739 26.069C407.827 25.9551 407.871 25.8249 407.871 25.6784ZM410.864 19.5798V27.0798H409.96V19.5798H410.864ZM410.649 24.238L410.273 24.2233C410.276 23.862 410.33 23.5283 410.434 23.2224C410.538 22.9131 410.685 22.6446 410.874 22.4167C411.062 22.1888 411.287 22.013 411.547 21.8893C411.811 21.7624 412.102 21.6989 412.421 21.6989C412.682 21.6989 412.916 21.7347 413.125 21.8063C413.333 21.8747 413.51 21.9854 413.657 22.1384C413.806 22.2914 413.92 22.4899 413.999 22.7341C414.077 22.975 414.116 23.2696 414.116 23.6179V27.0798H413.208V23.6081C413.208 23.3314 413.167 23.11 413.085 22.944C413.004 22.7748 412.885 22.6527 412.729 22.5778C412.573 22.4997 412.381 22.4606 412.153 22.4606C411.928 22.4606 411.723 22.5078 411.538 22.6022C411.355 22.6966 411.197 22.8268 411.064 22.9929C410.934 23.1589 410.831 23.3493 410.756 23.5641C410.685 23.7757 410.649 24.0003 410.649 24.238ZM415.463 19.5798H416.372V26.0544L416.293 27.0798H415.463V19.5798ZM419.941 24.3942V24.4968C419.941 24.8809 419.895 25.2373 419.804 25.5661C419.713 25.8916 419.58 26.1748 419.404 26.4157C419.228 26.6566 419.013 26.8438 418.759 26.9772C418.505 27.1107 418.214 27.1774 417.885 27.1774C417.55 27.1774 417.255 27.1205 417.001 27.0065C416.751 26.8893 416.539 26.7217 416.367 26.5036C416.194 26.2855 416.056 26.0218 415.952 25.7126C415.851 25.4033 415.781 25.055 415.742 24.6677V24.2184C415.781 23.8278 415.851 23.4779 415.952 23.1686C416.056 22.8594 416.194 22.5957 416.367 22.3776C416.539 22.1563 416.751 21.9886 417.001 21.8747C417.252 21.7575 417.543 21.6989 417.875 21.6989C418.208 21.6989 418.502 21.764 418.759 21.8942C419.016 22.0212 419.231 22.2035 419.404 22.4411C419.58 22.6787 419.713 22.9636 419.804 23.2956C419.895 23.6244 419.941 23.9906 419.941 24.3942ZM419.033 24.4968V24.3942C419.033 24.1306 419.008 23.8832 418.959 23.652C418.911 23.4177 418.833 23.2126 418.725 23.0368C418.618 22.8578 418.476 22.7178 418.3 22.6169C418.125 22.5127 417.908 22.4606 417.651 22.4606C417.423 22.4606 417.224 22.4997 417.055 22.5778C416.889 22.6559 416.748 22.7617 416.63 22.8952C416.513 23.0254 416.417 23.1752 416.342 23.3444C416.271 23.5104 416.217 23.683 416.181 23.862V25.0388C416.233 25.2666 416.318 25.4863 416.435 25.6979C416.556 25.9063 416.715 26.0772 416.914 26.2106C417.115 26.3441 417.364 26.4108 417.661 26.4108C417.905 26.4108 418.113 26.362 418.286 26.2643C418.461 26.1634 418.603 26.0251 418.71 25.8493C418.821 25.6735 418.903 25.4701 418.955 25.239C419.007 25.0078 419.033 24.7604 419.033 24.4968ZM420.844 24.4968V24.3845C420.844 24.0036 420.9 23.6504 421.01 23.3249C421.121 22.9961 421.28 22.7113 421.489 22.4704C421.697 22.2263 421.949 22.0375 422.246 21.904C422.542 21.7673 422.874 21.6989 423.242 21.6989C423.613 21.6989 423.946 21.7673 424.243 21.904C424.542 22.0375 424.796 22.2263 425.004 22.4704C425.216 22.7113 425.377 22.9961 425.488 23.3249C425.598 23.6504 425.654 24.0036 425.654 24.3845V24.4968C425.654 24.8776 425.598 25.2308 425.488 25.5563C425.377 25.8819 425.216 26.1667 425.004 26.4108C424.796 26.6517 424.544 26.8405 424.248 26.9772C423.955 27.1107 423.623 27.1774 423.251 27.1774C422.88 27.1774 422.547 27.1107 422.25 26.9772C421.954 26.8405 421.7 26.6517 421.489 26.4108C421.28 26.1667 421.121 25.8819 421.01 25.5563C420.9 25.2308 420.844 24.8776 420.844 24.4968ZM421.748 24.3845V24.4968C421.748 24.7604 421.778 25.0095 421.84 25.2438C421.902 25.475 421.995 25.68 422.119 25.8591C422.246 26.0381 422.403 26.1797 422.592 26.2839C422.781 26.3848 423.001 26.4352 423.251 26.4352C423.499 26.4352 423.715 26.3848 423.901 26.2839C424.09 26.1797 424.246 26.0381 424.37 25.8591C424.493 25.68 424.586 25.475 424.648 25.2438C424.713 25.0095 424.746 24.7604 424.746 24.4968V24.3845C424.746 24.124 424.713 23.8783 424.648 23.6472C424.586 23.4128 424.492 23.2061 424.365 23.027C424.241 22.8447 424.085 22.7015 423.896 22.5974C423.71 22.4932 423.492 22.4411 423.242 22.4411C422.994 22.4411 422.776 22.4932 422.587 22.5974C422.402 22.7015 422.246 22.8447 422.119 23.027C421.995 23.2061 421.902 23.4128 421.84 23.6472C421.778 23.8783 421.748 24.124 421.748 24.3845ZM429.902 26.1765V23.4567C429.902 23.2484 429.86 23.0677 429.775 22.9147C429.694 22.7585 429.57 22.638 429.404 22.5534C429.238 22.4688 429.033 22.4265 428.789 22.4265C428.561 22.4265 428.361 22.4655 428.188 22.5436C428.019 22.6218 427.885 22.7243 427.788 22.8513C427.693 22.9782 427.646 23.1149 427.646 23.2614H426.743C426.743 23.0726 426.792 22.8854 426.889 22.6999C426.987 22.5143 427.127 22.3467 427.309 22.197C427.495 22.044 427.716 21.9235 427.973 21.8356C428.234 21.7445 428.523 21.6989 428.842 21.6989C429.226 21.6989 429.565 21.764 429.858 21.8942C430.154 22.0244 430.385 22.2214 430.551 22.485C430.721 22.7455 430.805 23.0726 430.805 23.4665V25.9274C430.805 26.1032 430.82 26.2904 430.849 26.489C430.882 26.6875 430.929 26.8584 430.991 27.0016V27.0798H430.048C430.003 26.9756 429.967 26.8373 429.941 26.6647C429.915 26.489 429.902 26.3262 429.902 26.1765ZM430.058 23.8766L430.068 24.5114H429.155C428.898 24.5114 428.668 24.5326 428.466 24.5749C428.264 24.614 428.095 24.6742 427.958 24.7556C427.822 24.8369 427.718 24.9395 427.646 25.0632C427.574 25.1836 427.539 25.3252 427.539 25.488C427.539 25.654 427.576 25.8054 427.651 25.9421C427.726 26.0788 427.838 26.1878 427.988 26.2692C428.141 26.3474 428.328 26.3864 428.549 26.3864C428.826 26.3864 429.07 26.3278 429.282 26.2106C429.493 26.0934 429.661 25.9502 429.785 25.7809C429.912 25.6117 429.98 25.4473 429.99 25.2878L430.375 25.7224C430.353 25.8591 430.291 26.0104 430.19 26.1765C430.089 26.3425 429.954 26.502 429.785 26.655C429.619 26.8047 429.42 26.93 429.189 27.0309C428.961 27.1286 428.704 27.1774 428.417 27.1774C428.059 27.1774 427.745 27.1074 427.475 26.9675C427.208 26.8275 427 26.6403 426.85 26.4059C426.704 26.1683 426.63 25.903 426.63 25.61C426.63 25.3268 426.686 25.0778 426.796 24.863C426.907 24.6449 427.067 24.4642 427.275 24.321C427.483 24.1745 427.734 24.0638 428.027 23.989C428.32 23.9141 428.647 23.8766 429.008 23.8766H430.058ZM433.129 22.6266V27.0798H432.226V21.7966H433.105L433.129 22.6266ZM434.78 21.7673L434.775 22.6071C434.7 22.5908 434.628 22.5811 434.56 22.5778C434.495 22.5713 434.42 22.5681 434.335 22.5681C434.127 22.5681 433.943 22.6006 433.784 22.6657C433.624 22.7308 433.489 22.822 433.378 22.9391C433.268 23.0563 433.18 23.1963 433.115 23.3591C433.053 23.5186 433.012 23.6944 432.993 23.8864L432.739 24.0329C432.739 23.7139 432.77 23.4144 432.832 23.1345C432.897 22.8545 432.996 22.6071 433.129 22.3923C433.263 22.1742 433.432 22.0049 433.637 21.8845C433.846 21.7608 434.093 21.6989 434.379 21.6989C434.444 21.6989 434.519 21.7071 434.604 21.7233C434.689 21.7363 434.747 21.751 434.78 21.7673ZM438.847 26.0544V19.5798H439.755V27.0798H438.925L438.847 26.0544ZM435.292 24.4968V24.3942C435.292 23.9906 435.341 23.6244 435.439 23.2956C435.54 22.9636 435.681 22.6787 435.864 22.4411C436.049 22.2035 436.269 22.0212 436.523 21.8942C436.78 21.764 437.067 21.6989 437.382 21.6989C437.714 21.6989 438.004 21.7575 438.251 21.8747C438.502 21.9886 438.714 22.1563 438.886 22.3776C439.062 22.5957 439.2 22.8594 439.301 23.1686C439.402 23.4779 439.472 23.8278 439.511 24.2184V24.6677C439.475 25.055 439.405 25.4033 439.301 25.7126C439.2 26.0218 439.062 26.2855 438.886 26.5036C438.714 26.7217 438.502 26.8893 438.251 27.0065C438.001 27.1205 437.708 27.1774 437.373 27.1774C437.063 27.1774 436.78 27.1107 436.523 26.9772C436.269 26.8438 436.049 26.6566 435.864 26.4157C435.681 26.1748 435.54 25.8916 435.439 25.5661C435.341 25.2373 435.292 24.8809 435.292 24.4968ZM436.201 24.3942V24.4968C436.201 24.7604 436.227 25.0078 436.279 25.239C436.334 25.4701 436.419 25.6735 436.533 25.8493C436.647 26.0251 436.792 26.1634 436.967 26.2643C437.143 26.362 437.353 26.4108 437.597 26.4108C437.897 26.4108 438.142 26.3474 438.334 26.2204C438.53 26.0934 438.686 25.9258 438.803 25.7175C438.92 25.5091 439.012 25.2829 439.077 25.0388V23.862C439.038 23.683 438.981 23.5104 438.906 23.3444C438.834 23.1752 438.74 23.0254 438.623 22.8952C438.509 22.7617 438.367 22.6559 438.198 22.5778C438.032 22.4997 437.835 22.4606 437.607 22.4606C437.36 22.4606 437.146 22.5127 436.967 22.6169C436.792 22.7178 436.647 22.8578 436.533 23.0368C436.419 23.2126 436.334 23.4177 436.279 23.652C436.227 23.8832 436.201 24.1306 436.201 24.3942Z" fill="#656A91"/>
<path d="M470.221 24.819H471.159C471.11 25.2682 470.981 25.6703 470.773 26.0251C470.565 26.3799 470.27 26.6615 469.889 26.8698C469.508 27.0749 469.033 27.1774 468.463 27.1774C468.047 27.1774 467.667 27.0993 467.326 26.9431C466.987 26.7868 466.696 26.5655 466.452 26.279C466.208 25.9893 466.019 25.6426 465.885 25.239C465.755 24.8321 465.69 24.3796 465.69 23.8815V23.1735C465.69 22.6755 465.755 22.2246 465.885 21.821C466.019 21.4141 466.209 21.0658 466.457 20.7761C466.707 20.4863 467.008 20.2634 467.36 20.1071C467.711 19.9509 468.107 19.8727 468.546 19.8727C469.083 19.8727 469.538 19.9737 469.909 20.1755C470.28 20.3773 470.568 20.6572 470.773 21.0153C470.981 21.3701 471.11 21.7819 471.159 22.2507H470.221C470.176 21.9186 470.091 21.6338 469.967 21.3962C469.844 21.1553 469.668 20.9697 469.44 20.8395C469.212 20.7093 468.914 20.6442 468.546 20.6442C468.231 20.6442 467.952 20.7044 467.711 20.8249C467.474 20.9453 467.274 21.1162 467.111 21.3376C466.951 21.5589 466.831 21.8242 466.75 22.1335C466.668 22.4427 466.627 22.7862 466.627 23.1638V23.8815C466.627 24.2298 466.663 24.557 466.735 24.863C466.81 25.169 466.922 25.4375 467.072 25.6686C467.222 25.8998 467.412 26.0821 467.643 26.2155C467.874 26.3457 468.148 26.4108 468.463 26.4108C468.864 26.4108 469.183 26.3474 469.42 26.2204C469.658 26.0934 469.837 25.9112 469.958 25.6735C470.081 25.4359 470.169 25.1511 470.221 24.819ZM475.539 25.8591V21.7966H476.447V27.0798H475.583L475.539 25.8591ZM475.709 24.7458L476.085 24.736C476.085 25.0876 476.048 25.4131 475.973 25.7126C475.902 26.0088 475.784 26.266 475.622 26.4841C475.459 26.7022 475.246 26.8731 474.982 26.9968C474.718 27.1172 474.398 27.1774 474.02 27.1774C473.763 27.1774 473.527 27.14 473.312 27.0651C473.1 26.9903 472.918 26.8747 472.765 26.7184C472.612 26.5622 472.493 26.3587 472.409 26.1081C472.327 25.8574 472.287 25.5563 472.287 25.2048V21.7966H473.19V25.2145C473.19 25.4522 473.216 25.6491 473.268 25.8054C473.323 25.9584 473.397 26.0804 473.488 26.1716C473.582 26.2595 473.686 26.3213 473.8 26.3571C473.917 26.3929 474.038 26.4108 474.162 26.4108C474.546 26.4108 474.85 26.3376 475.075 26.1911C475.299 26.0414 475.46 25.8412 475.558 25.5905C475.659 25.3366 475.709 25.055 475.709 24.7458ZM480.9 25.6784C480.9 25.5482 480.871 25.4278 480.812 25.3171C480.757 25.2031 480.641 25.1006 480.465 25.0095C480.293 24.9151 480.032 24.8337 479.684 24.7653C479.391 24.7035 479.126 24.6302 478.888 24.5456C478.654 24.461 478.454 24.3584 478.288 24.238C478.125 24.1175 478 23.9759 477.912 23.8132C477.824 23.6504 477.78 23.46 477.78 23.2419C477.78 23.0335 477.825 22.8366 477.917 22.6511C478.011 22.4655 478.143 22.3011 478.312 22.1579C478.485 22.0147 478.691 21.9024 478.932 21.821C479.173 21.7396 479.442 21.6989 479.738 21.6989C480.161 21.6989 480.522 21.7738 480.822 21.9235C481.121 22.0733 481.351 22.2735 481.51 22.5241C481.67 22.7715 481.75 23.0466 481.75 23.3493H480.846C480.846 23.2028 480.802 23.0612 480.714 22.9245C480.63 22.7845 480.504 22.669 480.338 22.5778C480.176 22.4867 479.975 22.4411 479.738 22.4411C479.487 22.4411 479.284 22.4802 479.127 22.5583C478.974 22.6332 478.862 22.7292 478.791 22.8464C478.722 22.9636 478.688 23.0873 478.688 23.2175C478.688 23.3151 478.704 23.403 478.737 23.4811C478.773 23.556 478.834 23.626 478.922 23.6911C479.01 23.753 479.134 23.8115 479.293 23.8669C479.453 23.9222 479.656 23.9776 479.904 24.0329C480.337 24.1306 480.693 24.2477 480.973 24.3845C481.253 24.5212 481.461 24.6888 481.598 24.8874C481.735 25.086 481.803 25.3268 481.803 25.61C481.803 25.8412 481.754 26.0528 481.657 26.2448C481.562 26.4369 481.424 26.6029 481.242 26.7429C481.063 26.8796 480.848 26.987 480.597 27.0651C480.35 27.14 480.071 27.1774 479.762 27.1774C479.297 27.1774 478.903 27.0944 478.581 26.9284C478.258 26.7624 478.014 26.5475 477.848 26.2839C477.682 26.0202 477.599 25.7419 477.599 25.4489H478.507C478.52 25.6963 478.592 25.8932 478.722 26.0397C478.852 26.183 479.012 26.2855 479.201 26.3474C479.389 26.4059 479.577 26.4352 479.762 26.4352C480.01 26.4352 480.216 26.4027 480.382 26.3376C480.552 26.2725 480.68 26.183 480.768 26.069C480.856 25.9551 480.9 25.8249 480.9 25.6784ZM485.202 21.7966V22.4899H482.345V21.7966H485.202ZM483.312 20.5124H484.215V25.7712C484.215 25.9502 484.243 26.0853 484.298 26.1765C484.354 26.2676 484.425 26.3278 484.513 26.3571C484.601 26.3864 484.695 26.4011 484.796 26.4011C484.871 26.4011 484.949 26.3946 485.031 26.3815C485.115 26.3653 485.179 26.3522 485.221 26.3425L485.226 27.0798C485.154 27.1026 485.06 27.1237 484.943 27.1432C484.829 27.166 484.691 27.1774 484.528 27.1774C484.306 27.1774 484.103 27.1335 483.917 27.0456C483.732 26.9577 483.584 26.8112 483.473 26.6061C483.366 26.3978 483.312 26.1179 483.312 25.7663V20.5124ZM485.924 24.4968V24.3845C485.924 24.0036 485.98 23.6504 486.09 23.3249C486.201 22.9961 486.361 22.7113 486.569 22.4704C486.777 22.2263 487.029 22.0375 487.326 21.904C487.622 21.7673 487.954 21.6989 488.322 21.6989C488.693 21.6989 489.027 21.7673 489.323 21.904C489.622 22.0375 489.876 22.2263 490.084 22.4704C490.296 22.7113 490.457 22.9961 490.568 23.3249C490.679 23.6504 490.734 24.0036 490.734 24.3845V24.4968C490.734 24.8776 490.679 25.2308 490.568 25.5563C490.457 25.8819 490.296 26.1667 490.084 26.4108C489.876 26.6517 489.624 26.8405 489.328 26.9772C489.035 27.1107 488.703 27.1774 488.332 27.1774C487.96 27.1774 487.627 27.1107 487.331 26.9772C487.034 26.8405 486.78 26.6517 486.569 26.4108C486.361 26.1667 486.201 25.8819 486.09 25.5563C485.98 25.2308 485.924 24.8776 485.924 24.4968ZM486.828 24.3845V24.4968C486.828 24.7604 486.859 25.0095 486.92 25.2438C486.982 25.475 487.075 25.68 487.199 25.8591C487.326 26.0381 487.484 26.1797 487.672 26.2839C487.861 26.3848 488.081 26.4352 488.332 26.4352C488.579 26.4352 488.795 26.3848 488.981 26.2839C489.17 26.1797 489.326 26.0381 489.45 25.8591C489.573 25.68 489.666 25.475 489.728 25.2438C489.793 25.0095 489.826 24.7604 489.826 24.4968V24.3845C489.826 24.124 489.793 23.8783 489.728 23.6472C489.666 23.4128 489.572 23.2061 489.445 23.027C489.321 22.8447 489.165 22.7015 488.976 22.5974C488.791 22.4932 488.572 22.4411 488.322 22.4411C488.074 22.4411 487.856 22.4932 487.667 22.5974C487.482 22.7015 487.326 22.8447 487.199 23.027C487.075 23.2061 486.982 23.4128 486.92 23.6472C486.859 23.8783 486.828 24.124 486.828 24.3845ZM492.765 22.8464V27.0798H491.857V21.7966H492.716L492.765 22.8464ZM492.58 24.238L492.16 24.2233C492.163 23.862 492.21 23.5283 492.301 23.2224C492.392 22.9131 492.528 22.6446 492.707 22.4167C492.886 22.1888 493.109 22.013 493.375 21.8893C493.642 21.7624 493.952 21.6989 494.303 21.6989C494.551 21.6989 494.778 21.7347 494.987 21.8063C495.195 21.8747 495.376 21.9837 495.529 22.1335C495.682 22.2832 495.801 22.4753 495.885 22.7097C495.97 22.944 496.012 23.2272 496.012 23.5593V27.0798H495.109V23.6032C495.109 23.3265 495.062 23.1052 494.967 22.9391C494.876 22.7731 494.746 22.6527 494.577 22.5778C494.407 22.4997 494.209 22.4606 493.981 22.4606C493.714 22.4606 493.491 22.5078 493.312 22.6022C493.133 22.6966 492.99 22.8268 492.882 22.9929C492.775 23.1589 492.697 23.3493 492.648 23.5641C492.602 23.7757 492.58 24.0003 492.58 24.238ZM496.002 23.7399L495.397 23.9255C495.4 23.6358 495.447 23.3574 495.539 23.0905C495.633 22.8236 495.768 22.586 495.944 22.3776C496.123 22.1693 496.343 22.0049 496.603 21.8845C496.863 21.7608 497.161 21.6989 497.497 21.6989C497.78 21.6989 498.03 21.7363 498.249 21.8112C498.47 21.8861 498.655 22.0016 498.805 22.1579C498.958 22.3109 499.074 22.5078 499.152 22.7487C499.23 22.9896 499.269 23.2761 499.269 23.6081V27.0798H498.361V23.5983C498.361 23.3021 498.314 23.0726 498.219 22.9099C498.128 22.7438 497.998 22.6283 497.829 22.5632C497.663 22.4948 497.464 22.4606 497.233 22.4606C497.034 22.4606 496.859 22.4948 496.706 22.5632C496.553 22.6315 496.424 22.7259 496.32 22.8464C496.216 22.9636 496.136 23.0987 496.081 23.2516C496.028 23.4046 496.002 23.5674 496.002 23.7399ZM502.829 27.1774C502.461 27.1774 502.127 27.1156 501.828 26.9919C501.531 26.8649 501.276 26.6875 501.061 26.4597C500.849 26.2318 500.687 25.9616 500.573 25.6491C500.459 25.3366 500.402 24.9948 500.402 24.6237V24.4186C500.402 23.989 500.465 23.6065 500.592 23.2712C500.719 22.9326 500.892 22.6462 501.11 22.4118C501.328 22.1774 501.575 22 501.852 21.8796C502.129 21.7591 502.415 21.6989 502.711 21.6989C503.089 21.6989 503.415 21.764 503.688 21.8942C503.965 22.0244 504.191 22.2067 504.367 22.4411C504.542 22.6722 504.673 22.9457 504.757 23.2614C504.842 23.5739 504.884 23.9157 504.884 24.2868V24.6921H500.939V23.9548H503.981V23.8864C503.968 23.652 503.919 23.4242 503.834 23.2028C503.753 22.9815 503.623 22.7992 503.444 22.6559C503.265 22.5127 503.021 22.4411 502.711 22.4411C502.506 22.4411 502.318 22.485 502.145 22.5729C501.972 22.6576 501.824 22.7845 501.701 22.9538C501.577 23.1231 501.481 23.3298 501.413 23.5739C501.344 23.8181 501.31 24.0996 501.31 24.4186V24.6237C501.31 24.8744 501.344 25.1104 501.413 25.3317C501.484 25.5498 501.587 25.7419 501.72 25.9079C501.857 26.0739 502.021 26.2041 502.213 26.2985C502.409 26.3929 502.63 26.4401 502.877 26.4401C503.196 26.4401 503.467 26.375 503.688 26.2448C503.909 26.1146 504.103 25.9405 504.269 25.7224L504.816 26.1569C504.702 26.3294 504.557 26.4938 504.381 26.6501C504.206 26.8063 503.989 26.9333 503.732 27.0309C503.478 27.1286 503.177 27.1774 502.829 27.1774ZM506.842 22.6266V27.0798H505.939V21.7966H506.818L506.842 22.6266ZM508.493 21.7673L508.488 22.6071C508.413 22.5908 508.341 22.5811 508.273 22.5778C508.208 22.5713 508.133 22.5681 508.048 22.5681C507.84 22.5681 507.656 22.6006 507.497 22.6657C507.337 22.7308 507.202 22.822 507.091 22.9391C506.981 23.0563 506.893 23.1963 506.828 23.3591C506.766 23.5186 506.725 23.6944 506.706 23.8864L506.452 24.0329C506.452 23.7139 506.483 23.4144 506.544 23.1345C506.61 22.8545 506.709 22.6071 506.842 22.3923C506.976 22.1742 507.145 22.0049 507.35 21.8845C507.558 21.7608 507.806 21.6989 508.092 21.6989C508.157 21.6989 508.232 21.7071 508.317 21.7233C508.402 21.7363 508.46 21.751 508.493 21.7673ZM512.404 25.6784C512.404 25.5482 512.375 25.4278 512.316 25.3171C512.261 25.2031 512.145 25.1006 511.969 25.0095C511.797 24.9151 511.536 24.8337 511.188 24.7653C510.895 24.7035 510.63 24.6302 510.392 24.5456C510.158 24.461 509.958 24.3584 509.792 24.238C509.629 24.1175 509.503 23.9759 509.416 23.8132C509.328 23.6504 509.284 23.46 509.284 23.2419C509.284 23.0335 509.329 22.8366 509.42 22.6511C509.515 22.4655 509.647 22.3011 509.816 22.1579C509.988 22.0147 510.195 21.9024 510.436 21.821C510.677 21.7396 510.945 21.6989 511.242 21.6989C511.665 21.6989 512.026 21.7738 512.326 21.9235C512.625 22.0733 512.855 22.2735 513.014 22.5241C513.174 22.7715 513.253 23.0466 513.253 23.3493H512.35C512.35 23.2028 512.306 23.0612 512.218 22.9245C512.134 22.7845 512.008 22.669 511.842 22.5778C511.68 22.4867 511.479 22.4411 511.242 22.4411C510.991 22.4411 510.788 22.4802 510.631 22.5583C510.478 22.6332 510.366 22.7292 510.294 22.8464C510.226 22.9636 510.192 23.0873 510.192 23.2175C510.192 23.3151 510.208 23.403 510.241 23.4811C510.277 23.556 510.338 23.626 510.426 23.6911C510.514 23.753 510.638 23.8115 510.797 23.8669C510.957 23.9222 511.16 23.9776 511.408 24.0329C511.841 24.1306 512.197 24.2477 512.477 24.3845C512.757 24.5212 512.965 24.6888 513.102 24.8874C513.239 25.086 513.307 25.3268 513.307 25.61C513.307 25.8412 513.258 26.0528 513.161 26.2448C513.066 26.4369 512.928 26.6029 512.746 26.7429C512.567 26.8796 512.352 26.987 512.101 27.0651C511.854 27.14 511.575 27.1774 511.266 27.1774C510.801 27.1774 510.407 27.0944 510.084 26.9284C509.762 26.7624 509.518 26.5475 509.352 26.2839C509.186 26.0202 509.103 25.7419 509.103 25.4489H510.011C510.024 25.6963 510.096 25.8932 510.226 26.0397C510.356 26.183 510.516 26.2855 510.705 26.3474C510.893 26.4059 511.081 26.4352 511.266 26.4352C511.514 26.4352 511.72 26.4027 511.886 26.3376C512.056 26.2725 512.184 26.183 512.272 26.069C512.36 25.9551 512.404 25.8249 512.404 25.6784Z" fill="#656A91"/>
<path d="M544.403 23.3005V23.7497C544.403 24.2835 544.336 24.7621 544.203 25.1852C544.069 25.6084 543.877 25.9681 543.626 26.2643C543.376 26.5606 543.075 26.7868 542.723 26.9431C542.375 27.0993 541.984 27.1774 541.551 27.1774C541.131 27.1774 540.746 27.0993 540.394 26.9431C540.046 26.7868 539.743 26.5606 539.486 26.2643C539.232 25.9681 539.035 25.6084 538.895 25.1852C538.755 24.7621 538.685 24.2835 538.685 23.7497V23.3005C538.685 22.7666 538.753 22.2897 538.89 21.8698C539.03 21.4466 539.227 21.0869 539.481 20.7907C539.735 20.4912 540.036 20.2634 540.384 20.1071C540.736 19.9509 541.122 19.8727 541.542 19.8727C541.974 19.8727 542.365 19.9509 542.713 20.1071C543.065 20.2634 543.366 20.4912 543.617 20.7907C543.871 21.0869 544.064 21.4466 544.198 21.8698C544.334 22.2897 544.403 22.7666 544.403 23.3005ZM543.47 23.7497V23.2907C543.47 22.8675 543.426 22.4932 543.338 22.1677C543.254 21.8421 543.128 21.5687 542.962 21.3474C542.796 21.126 542.593 20.9584 542.352 20.8444C542.114 20.7305 541.844 20.6735 541.542 20.6735C541.249 20.6735 540.983 20.7305 540.746 20.8444C540.511 20.9584 540.309 21.126 540.14 21.3474C539.974 21.5687 539.846 21.8421 539.754 22.1677C539.663 22.4932 539.618 22.8675 539.618 23.2907V23.7497C539.618 24.1761 539.663 24.5537 539.754 24.8825C539.846 25.208 539.976 25.4831 540.145 25.7077C540.318 25.9291 540.521 26.0967 540.755 26.2106C540.993 26.3246 541.258 26.3815 541.551 26.3815C541.857 26.3815 542.129 26.3246 542.367 26.2106C542.604 26.0967 542.805 25.9291 542.967 25.7077C543.133 25.4831 543.259 25.208 543.343 24.8825C543.428 24.5537 543.47 24.1761 543.47 23.7497ZM546.581 22.6266V27.0798H545.677V21.7966H546.556L546.581 22.6266ZM548.231 21.7673L548.226 22.6071C548.151 22.5908 548.08 22.5811 548.011 22.5778C547.946 22.5713 547.871 22.5681 547.787 22.5681C547.578 22.5681 547.394 22.6006 547.235 22.6657C547.075 22.7308 546.94 22.822 546.83 22.9391C546.719 23.0563 546.631 23.1963 546.566 23.3591C546.504 23.5186 546.463 23.6944 546.444 23.8864L546.19 24.0329C546.19 23.7139 546.221 23.4144 546.283 23.1345C546.348 22.8545 546.447 22.6071 546.581 22.3923C546.714 22.1742 546.883 22.0049 547.088 21.8845C547.297 21.7608 547.544 21.6989 547.831 21.6989C547.896 21.6989 547.971 21.7071 548.055 21.7233C548.14 21.7363 548.198 21.751 548.231 21.7673ZM552.298 26.0544V19.5798H553.207V27.0798H552.376L552.298 26.0544ZM548.744 24.4968V24.3942C548.744 23.9906 548.792 23.6244 548.89 23.2956C548.991 22.9636 549.133 22.6787 549.315 22.4411C549.5 22.2035 549.72 22.0212 549.974 21.8942C550.231 21.764 550.518 21.6989 550.833 21.6989C551.166 21.6989 551.455 21.7575 551.703 21.8747C551.953 21.9886 552.165 22.1563 552.337 22.3776C552.513 22.5957 552.652 22.8594 552.752 23.1686C552.853 23.4779 552.923 23.8278 552.962 24.2184V24.6677C552.927 25.055 552.857 25.4033 552.752 25.7126C552.652 26.0218 552.513 26.2855 552.337 26.5036C552.165 26.7217 551.953 26.8893 551.703 27.0065C551.452 27.1205 551.159 27.1774 550.824 27.1774C550.514 27.1774 550.231 27.1107 549.974 26.9772C549.72 26.8438 549.5 26.6566 549.315 26.4157C549.133 26.1748 548.991 25.8916 548.89 25.5661C548.792 25.2373 548.744 24.8809 548.744 24.4968ZM549.652 24.3942V24.4968C549.652 24.7604 549.678 25.0078 549.73 25.239C549.785 25.4701 549.87 25.6735 549.984 25.8493C550.098 26.0251 550.243 26.1634 550.418 26.2643C550.594 26.362 550.804 26.4108 551.048 26.4108C551.348 26.4108 551.594 26.3474 551.786 26.2204C551.981 26.0934 552.137 25.9258 552.254 25.7175C552.372 25.5091 552.463 25.2829 552.528 25.0388V23.862C552.489 23.683 552.432 23.5104 552.357 23.3444C552.285 23.1752 552.191 23.0254 552.074 22.8952C551.96 22.7617 551.818 22.6559 551.649 22.5778C551.483 22.4997 551.286 22.4606 551.058 22.4606C550.811 22.4606 550.597 22.5127 550.418 22.6169C550.243 22.7178 550.098 22.8578 549.984 23.0368C549.87 23.2126 549.785 23.4177 549.73 23.652C549.678 23.8832 549.652 24.1306 549.652 24.3942ZM556.805 27.1774C556.437 27.1774 556.104 27.1156 555.804 26.9919C555.508 26.8649 555.252 26.6875 555.038 26.4597C554.826 26.2318 554.663 25.9616 554.549 25.6491C554.435 25.3366 554.378 24.9948 554.378 24.6237V24.4186C554.378 23.989 554.442 23.6065 554.569 23.2712C554.696 22.9326 554.868 22.6462 555.086 22.4118C555.305 22.1774 555.552 22 555.829 21.8796C556.105 21.7591 556.392 21.6989 556.688 21.6989C557.066 21.6989 557.391 21.764 557.665 21.8942C557.941 22.0244 558.167 22.2067 558.343 22.4411C558.519 22.6722 558.649 22.9457 558.734 23.2614C558.819 23.5739 558.861 23.9157 558.861 24.2868V24.6921H554.916V23.9548H557.958V23.8864C557.944 23.652 557.896 23.4242 557.811 23.2028C557.73 22.9815 557.599 22.7992 557.42 22.6559C557.241 22.5127 556.997 22.4411 556.688 22.4411C556.483 22.4411 556.294 22.485 556.122 22.5729C555.949 22.6576 555.801 22.7845 555.677 22.9538C555.554 23.1231 555.458 23.3298 555.389 23.5739C555.321 23.8181 555.287 24.0996 555.287 24.4186V24.6237C555.287 24.8744 555.321 25.1104 555.389 25.3317C555.461 25.5498 555.563 25.7419 555.697 25.9079C555.833 26.0739 555.998 26.2041 556.19 26.2985C556.385 26.3929 556.607 26.4401 556.854 26.4401C557.173 26.4401 557.443 26.375 557.665 26.2448C557.886 26.1146 558.08 25.9405 558.246 25.7224L558.792 26.1569C558.679 26.3294 558.534 26.4938 558.358 26.6501C558.182 26.8063 557.966 26.9333 557.708 27.0309C557.455 27.1286 557.153 27.1774 556.805 27.1774ZM560.819 22.6266V27.0798H559.916V21.7966H560.794L560.819 22.6266ZM562.469 21.7673L562.464 22.6071C562.389 22.5908 562.318 22.5811 562.25 22.5778C562.184 22.5713 562.11 22.5681 562.025 22.5681C561.817 22.5681 561.633 22.6006 561.473 22.6657C561.314 22.7308 561.179 22.822 561.068 22.9391C560.957 23.0563 560.869 23.1963 560.804 23.3591C560.742 23.5186 560.702 23.6944 560.682 23.8864L560.428 24.0329C560.428 23.7139 560.459 23.4144 560.521 23.1345C560.586 22.8545 560.685 22.6071 560.819 22.3923C560.952 22.1742 561.122 22.0049 561.327 21.8845C561.535 21.7608 561.782 21.6989 562.069 21.6989C562.134 21.6989 562.209 21.7071 562.293 21.7233C562.378 21.7363 562.437 21.751 562.469 21.7673ZM566.38 25.6784C566.38 25.5482 566.351 25.4278 566.292 25.3171C566.237 25.2031 566.122 25.1006 565.946 25.0095C565.773 24.9151 565.513 24.8337 565.165 24.7653C564.872 24.7035 564.606 24.6302 564.369 24.5456C564.134 24.461 563.934 24.3584 563.768 24.238C563.605 24.1175 563.48 23.9759 563.392 23.8132C563.304 23.6504 563.26 23.46 563.26 23.2419C563.26 23.0335 563.306 22.8366 563.397 22.6511C563.491 22.4655 563.623 22.3011 563.792 22.1579C563.965 22.0147 564.172 21.9024 564.413 21.821C564.653 21.7396 564.922 21.6989 565.218 21.6989C565.641 21.6989 566.003 21.7738 566.302 21.9235C566.602 22.0733 566.831 22.2735 566.991 22.5241C567.15 22.7715 567.23 23.0466 567.23 23.3493H566.327C566.327 23.2028 566.283 23.0612 566.195 22.9245C566.11 22.7845 565.985 22.669 565.819 22.5778C565.656 22.4867 565.456 22.4411 565.218 22.4411C564.968 22.4411 564.764 22.4802 564.608 22.5583C564.455 22.6332 564.343 22.7292 564.271 22.8464C564.203 22.9636 564.168 23.0873 564.168 23.2175C564.168 23.3151 564.185 23.403 564.217 23.4811C564.253 23.556 564.315 23.626 564.403 23.6911C564.491 23.753 564.614 23.8115 564.774 23.8669C564.933 23.9222 565.137 23.9776 565.384 24.0329C565.817 24.1306 566.174 24.2477 566.454 24.3845C566.734 24.5212 566.942 24.6888 567.079 24.8874C567.215 25.086 567.284 25.3268 567.284 25.61C567.284 25.8412 567.235 26.0528 567.137 26.2448C567.043 26.4369 566.904 26.6029 566.722 26.7429C566.543 26.8796 566.328 26.987 566.078 27.0651C565.83 27.14 565.552 27.1774 565.243 27.1774C564.777 27.1774 564.383 27.0944 564.061 26.9284C563.739 26.7624 563.495 26.5475 563.329 26.2839C563.163 26.0202 563.08 25.7419 563.08 25.4489H563.988C564.001 25.6963 564.072 25.8932 564.203 26.0397C564.333 26.183 564.492 26.2855 564.681 26.3474C564.87 26.4059 565.057 26.4352 565.243 26.4352C565.49 26.4352 565.697 26.4027 565.863 26.3376C566.032 26.2725 566.161 26.183 566.249 26.069C566.336 25.9551 566.38 25.8249 566.38 25.6784Z" fill="#656A91"/>
<path d="M595.551 24.2917H593.652V23.5251H595.551C595.919 23.5251 596.217 23.4665 596.445 23.3493C596.673 23.2321 596.839 23.0694 596.943 22.861C597.05 22.6527 597.104 22.4151 597.104 22.1481C597.104 21.904 597.05 21.6745 596.943 21.4597C596.839 21.2448 596.673 21.0723 596.445 20.9421C596.217 20.8086 595.919 20.7419 595.551 20.7419H593.872V27.0798H592.929V19.9704H595.551C596.088 19.9704 596.542 20.0632 596.914 20.2487C597.285 20.4343 597.566 20.6914 597.758 21.0202C597.95 21.3457 598.046 21.7184 598.046 22.1384C598.046 22.5941 597.95 22.9831 597.758 23.3054C597.566 23.6276 597.285 23.8734 596.914 24.0427C596.542 24.2087 596.088 24.2917 595.551 24.2917ZM600.004 22.6266V27.0798H599.101V21.7966H599.98L600.004 22.6266ZM601.655 21.7673L601.65 22.6071C601.575 22.5908 601.503 22.5811 601.435 22.5778C601.37 22.5713 601.295 22.5681 601.21 22.5681C601.002 22.5681 600.818 22.6006 600.659 22.6657C600.499 22.7308 600.364 22.822 600.253 22.9391C600.143 23.0563 600.055 23.1963 599.99 23.3591C599.928 23.5186 599.887 23.6944 599.868 23.8864L599.614 24.0329C599.614 23.7139 599.645 23.4144 599.707 23.1345C599.772 22.8545 599.871 22.6071 600.004 22.3923C600.138 22.1742 600.307 22.0049 600.512 21.8845C600.721 21.7608 600.968 21.6989 601.254 21.6989C601.319 21.6989 601.394 21.7071 601.479 21.7233C601.564 21.7363 601.622 21.751 601.655 21.7673ZM602.153 24.4968V24.3845C602.153 24.0036 602.208 23.6504 602.319 23.3249C602.43 22.9961 602.589 22.7113 602.797 22.4704C603.006 22.2263 603.258 22.0375 603.554 21.904C603.85 21.7673 604.182 21.6989 604.55 21.6989C604.921 21.6989 605.255 21.7673 605.551 21.904C605.851 22.0375 606.105 22.2263 606.313 22.4704C606.525 22.7113 606.686 22.9961 606.796 23.3249C606.907 23.6504 606.962 24.0036 606.962 24.3845V24.4968C606.962 24.8776 606.907 25.2308 606.796 25.5563C606.686 25.8819 606.525 26.1667 606.313 26.4108C606.105 26.6517 605.852 26.8405 605.556 26.9772C605.263 27.1107 604.931 27.1774 604.56 27.1774C604.189 27.1774 603.855 27.1107 603.559 26.9772C603.263 26.8405 603.009 26.6517 602.797 26.4108C602.589 26.1667 602.43 25.8819 602.319 25.5563C602.208 25.2308 602.153 24.8776 602.153 24.4968ZM603.056 24.3845V24.4968C603.056 24.7604 603.087 25.0095 603.149 25.2438C603.211 25.475 603.304 25.68 603.427 25.8591C603.554 26.0381 603.712 26.1797 603.901 26.2839C604.09 26.3848 604.309 26.4352 604.56 26.4352C604.807 26.4352 605.024 26.3848 605.209 26.2839C605.398 26.1797 605.555 26.0381 605.678 25.8591C605.802 25.68 605.895 25.475 605.957 25.2438C606.022 25.0095 606.054 24.7604 606.054 24.4968V24.3845C606.054 24.124 606.022 23.8783 605.957 23.6472C605.895 23.4128 605.8 23.2061 605.673 23.027C605.55 22.8447 605.393 22.7015 605.205 22.5974C605.019 22.4932 604.801 22.4411 604.55 22.4411C604.303 22.4411 604.085 22.4932 603.896 22.5974C603.71 22.7015 603.554 22.8447 603.427 23.027C603.304 23.2061 603.211 23.4128 603.149 23.6472C603.087 23.8783 603.056 24.124 603.056 24.3845ZM611.425 26.0544V19.5798H612.333V27.0798H611.503L611.425 26.0544ZM607.871 24.4968V24.3942C607.871 23.9906 607.919 23.6244 608.017 23.2956C608.118 22.9636 608.26 22.6787 608.442 22.4411C608.627 22.2035 608.847 22.0212 609.101 21.8942C609.358 21.764 609.645 21.6989 609.96 21.6989C610.292 21.6989 610.582 21.7575 610.83 21.8747C611.08 21.9886 611.292 22.1563 611.464 22.3776C611.64 22.5957 611.778 22.8594 611.879 23.1686C611.98 23.4779 612.05 23.8278 612.089 24.2184V24.6677C612.054 25.055 611.984 25.4033 611.879 25.7126C611.778 26.0218 611.64 26.2855 611.464 26.5036C611.292 26.7217 611.08 26.8893 610.83 27.0065C610.579 27.1205 610.286 27.1774 609.951 27.1774C609.641 27.1774 609.358 27.1107 609.101 26.9772C608.847 26.8438 608.627 26.6566 608.442 26.4157C608.26 26.1748 608.118 25.8916 608.017 25.5661C607.919 25.2373 607.871 24.8809 607.871 24.4968ZM608.779 24.3942V24.4968C608.779 24.7604 608.805 25.0078 608.857 25.239C608.912 25.4701 608.997 25.6735 609.111 25.8493C609.225 26.0251 609.37 26.1634 609.545 26.2643C609.721 26.362 609.931 26.4108 610.175 26.4108C610.475 26.4108 610.721 26.3474 610.913 26.2204C611.108 26.0934 611.264 25.9258 611.381 25.7175C611.499 25.5091 611.59 25.2829 611.655 25.0388V23.862C611.616 23.683 611.559 23.5104 611.484 23.3444C611.412 23.1752 611.318 23.0254 611.201 22.8952C611.087 22.7617 610.945 22.6559 610.776 22.5778C610.61 22.4997 610.413 22.4606 610.185 22.4606C609.938 22.4606 609.724 22.5127 609.545 22.6169C609.37 22.7178 609.225 22.8578 609.111 23.0368C608.997 23.2126 608.912 23.4177 608.857 23.652C608.805 23.8832 608.779 24.1306 608.779 24.3942ZM616.972 25.8591V21.7966H617.88V27.0798H617.016L616.972 25.8591ZM617.143 24.7458L617.519 24.736C617.519 25.0876 617.482 25.4131 617.407 25.7126C617.335 26.0088 617.218 26.266 617.055 26.4841C616.892 26.7022 616.679 26.8731 616.416 26.9968C616.152 27.1172 615.831 27.1774 615.454 27.1774C615.196 27.1774 614.96 27.14 614.746 27.0651C614.534 26.9903 614.352 26.8747 614.199 26.7184C614.046 26.5622 613.927 26.3587 613.842 26.1081C613.761 25.8574 613.72 25.5563 613.72 25.2048V21.7966H614.624V25.2145C614.624 25.4522 614.65 25.6491 614.702 25.8054C614.757 25.9584 614.83 26.0804 614.921 26.1716C615.016 26.2595 615.12 26.3213 615.234 26.3571C615.351 26.3929 615.472 26.4108 615.595 26.4108C615.979 26.4108 616.284 26.3376 616.508 26.1911C616.733 26.0414 616.894 25.8412 616.992 25.5905C617.093 25.3366 617.143 25.055 617.143 24.7458ZM621.372 26.4352C621.586 26.4352 621.785 26.3913 621.967 26.3034C622.15 26.2155 622.299 26.0951 622.417 25.9421C622.534 25.7858 622.6 25.6084 622.617 25.4099H623.476C623.46 25.7224 623.354 26.0137 623.159 26.2839C622.967 26.5508 622.714 26.7673 622.402 26.9333C622.089 27.096 621.746 27.1774 621.372 27.1774C620.974 27.1774 620.628 27.1074 620.332 26.9675C620.039 26.8275 619.794 26.6354 619.599 26.3913C619.407 26.1472 619.262 25.8672 619.165 25.5515C619.07 25.2324 619.023 24.8955 619.023 24.5407V24.3356C619.023 23.9808 619.07 23.6455 619.165 23.3298C619.262 23.0108 619.407 22.7292 619.599 22.485C619.794 22.2409 620.039 22.0488 620.332 21.9089C620.628 21.7689 620.974 21.6989 621.372 21.6989C621.785 21.6989 622.146 21.7835 622.456 21.9528C622.765 22.1188 623.007 22.3467 623.183 22.6364C623.362 22.9229 623.46 23.2484 623.476 23.613H622.617C622.6 23.3949 622.539 23.1979 622.431 23.0222C622.327 22.8464 622.184 22.7064 622.001 22.6022C621.822 22.4948 621.612 22.4411 621.372 22.4411C621.095 22.4411 620.862 22.4964 620.673 22.6071C620.488 22.7145 620.34 22.861 620.229 23.0466C620.122 23.2289 620.043 23.4323 619.995 23.6569C619.949 23.8783 619.926 24.1045 619.926 24.3356V24.5407C619.926 24.7718 619.949 24.9997 619.995 25.2243C620.04 25.4489 620.117 25.6524 620.224 25.8347C620.335 26.0169 620.483 26.1634 620.668 26.2741C620.857 26.3815 621.092 26.4352 621.372 26.4352ZM626.704 21.7966V22.4899H623.847V21.7966H626.704ZM624.814 20.5124H625.717V25.7712C625.717 25.9502 625.745 26.0853 625.8 26.1765C625.856 26.2676 625.927 26.3278 626.015 26.3571C626.103 26.3864 626.197 26.4011 626.298 26.4011C626.373 26.4011 626.451 26.3946 626.533 26.3815C626.617 26.3653 626.681 26.3522 626.723 26.3425L626.728 27.0798C626.656 27.1026 626.562 27.1237 626.445 27.1432C626.331 27.166 626.193 27.1774 626.03 27.1774C625.808 27.1774 625.605 27.1335 625.419 27.0456C625.234 26.9577 625.086 26.8112 624.975 26.6061C624.868 26.3978 624.814 26.1179 624.814 25.7663V20.5124ZM630.839 25.6784C630.839 25.5482 630.81 25.4278 630.751 25.3171C630.696 25.2031 630.581 25.1006 630.405 25.0095C630.232 24.9151 629.972 24.8337 629.624 24.7653C629.331 24.7035 629.065 24.6302 628.828 24.5456C628.593 24.461 628.393 24.3584 628.227 24.238C628.064 24.1175 627.939 23.9759 627.851 23.8132C627.763 23.6504 627.719 23.46 627.719 23.2419C627.719 23.0335 627.765 22.8366 627.856 22.6511C627.95 22.4655 628.082 22.3011 628.251 22.1579C628.424 22.0147 628.631 21.9024 628.872 21.821C629.112 21.7396 629.381 21.6989 629.677 21.6989C630.1 21.6989 630.462 21.7738 630.761 21.9235C631.061 22.0733 631.29 22.2735 631.45 22.5241C631.609 22.7715 631.689 23.0466 631.689 23.3493H630.786C630.786 23.2028 630.742 23.0612 630.654 22.9245C630.569 22.7845 630.444 22.669 630.278 22.5778C630.115 22.4867 629.915 22.4411 629.677 22.4411C629.427 22.4411 629.223 22.4802 629.067 22.5583C628.914 22.6332 628.802 22.7292 628.73 22.8464C628.662 22.9636 628.627 23.0873 628.627 23.2175C628.627 23.3151 628.644 23.403 628.676 23.4811C628.712 23.556 628.774 23.626 628.862 23.6911C628.95 23.753 629.073 23.8115 629.233 23.8669C629.392 23.9222 629.596 23.9776 629.843 24.0329C630.276 24.1306 630.633 24.2477 630.913 24.3845C631.193 24.5212 631.401 24.6888 631.538 24.8874C631.674 25.086 631.743 25.3268 631.743 25.61C631.743 25.8412 631.694 26.0528 631.596 26.2448C631.502 26.4369 631.363 26.6029 631.181 26.7429C631.002 26.8796 630.787 26.987 630.537 27.0651C630.289 27.14 630.011 27.1774 629.702 27.1774C629.236 27.1774 628.842 27.0944 628.52 26.9284C628.198 26.7624 627.954 26.5475 627.788 26.2839C627.622 26.0202 627.539 25.7419 627.539 25.4489H628.447C628.46 25.6963 628.531 25.8932 628.662 26.0397C628.792 26.183 628.951 26.2855 629.14 26.3474C629.329 26.4059 629.516 26.4352 629.702 26.4352C629.949 26.4352 630.156 26.4027 630.322 26.3376C630.491 26.2725 630.62 26.183 630.708 26.069C630.795 25.9551 630.839 25.8249 630.839 25.6784Z" fill="#656A91"/>
<path d="M660.551 24.2917H658.652V23.5251H660.551C660.919 23.5251 661.217 23.4665 661.445 23.3493C661.673 23.2321 661.839 23.0694 661.943 22.861C662.05 22.6527 662.104 22.4151 662.104 22.1481C662.104 21.904 662.05 21.6745 661.943 21.4597C661.839 21.2448 661.673 21.0723 661.445 20.9421C661.217 20.8086 660.919 20.7419 660.551 20.7419H658.872V27.0798H657.929V19.9704H660.551C661.088 19.9704 661.542 20.0632 661.914 20.2487C662.285 20.4343 662.566 20.6914 662.758 21.0202C662.95 21.3457 663.046 21.7184 663.046 22.1384C663.046 22.5941 662.95 22.9831 662.758 23.3054C662.566 23.6276 662.285 23.8734 661.914 24.0427C661.542 24.2087 661.088 24.2917 660.551 24.2917ZM667.158 26.1765V23.4567C667.158 23.2484 667.115 23.0677 667.031 22.9147C666.949 22.7585 666.826 22.638 666.66 22.5534C666.494 22.4688 666.289 22.4265 666.044 22.4265C665.817 22.4265 665.616 22.4655 665.444 22.5436C665.275 22.6218 665.141 22.7243 665.043 22.8513C664.949 22.9782 664.902 23.1149 664.902 23.2614H663.999C663.999 23.0726 664.047 22.8854 664.145 22.6999C664.243 22.5143 664.383 22.3467 664.565 22.197C664.75 22.044 664.972 21.9235 665.229 21.8356C665.489 21.7445 665.779 21.6989 666.098 21.6989C666.482 21.6989 666.821 21.764 667.114 21.8942C667.41 22.0244 667.641 22.2214 667.807 22.485C667.976 22.7455 668.061 23.0726 668.061 23.4665V25.9274C668.061 26.1032 668.076 26.2904 668.105 26.489C668.138 26.6875 668.185 26.8584 668.247 27.0016V27.0798H667.304C667.259 26.9756 667.223 26.8373 667.197 26.6647C667.171 26.489 667.158 26.3262 667.158 26.1765ZM667.314 23.8766L667.324 24.5114H666.411C666.153 24.5114 665.924 24.5326 665.722 24.5749C665.52 24.614 665.351 24.6742 665.214 24.7556C665.078 24.8369 664.973 24.9395 664.902 25.0632C664.83 25.1836 664.794 25.3252 664.794 25.488C664.794 25.654 664.832 25.8054 664.907 25.9421C664.982 26.0788 665.094 26.1878 665.244 26.2692C665.397 26.3474 665.584 26.3864 665.805 26.3864C666.082 26.3864 666.326 26.3278 666.538 26.2106C666.749 26.0934 666.917 25.9502 667.041 25.7809C667.167 25.6117 667.236 25.4473 667.246 25.2878L667.631 25.7224C667.609 25.8591 667.547 26.0104 667.446 26.1765C667.345 26.3425 667.21 26.502 667.041 26.655C666.875 26.8047 666.676 26.93 666.445 27.0309C666.217 27.1286 665.96 27.1774 665.673 27.1774C665.315 27.1774 665.001 27.1074 664.731 26.9675C664.464 26.8275 664.256 26.6403 664.106 26.4059C663.959 26.1683 663.886 25.903 663.886 25.61C663.886 25.3268 663.942 25.0778 664.052 24.863C664.163 24.6449 664.322 24.4642 664.531 24.321C664.739 24.1745 664.99 24.0638 665.283 23.989C665.576 23.9141 665.903 23.8766 666.264 23.8766H667.314ZM670.888 26.5329L672.358 21.7966H673.325L671.206 27.8952C671.157 28.0254 671.092 28.1654 671.01 28.3151C670.932 28.4681 670.831 28.613 670.708 28.7497C670.584 28.8864 670.434 28.9971 670.258 29.0817C670.086 29.1696 669.879 29.2136 669.638 29.2136C669.567 29.2136 669.475 29.2038 669.365 29.1843C669.254 29.1647 669.176 29.1485 669.13 29.1354L669.125 28.403C669.152 28.4063 669.192 28.4095 669.248 28.4128C669.306 28.4193 669.347 28.4225 669.37 28.4225C669.575 28.4225 669.749 28.3949 669.892 28.3395C670.035 28.2875 670.156 28.1979 670.253 28.071C670.354 27.9473 670.441 27.7764 670.512 27.5583L670.888 26.5329ZM669.809 21.7966L671.181 25.8981L671.416 26.8503L670.766 27.1823L668.823 21.7966H669.809ZM675.039 22.8464V27.0798H674.13V21.7966H674.99L675.039 22.8464ZM674.853 24.238L674.433 24.2233C674.436 23.862 674.484 23.5283 674.575 23.2224C674.666 22.9131 674.801 22.6446 674.98 22.4167C675.159 22.1888 675.382 22.013 675.649 21.8893C675.916 21.7624 676.225 21.6989 676.577 21.6989C676.824 21.6989 677.052 21.7347 677.26 21.8063C677.469 21.8747 677.649 21.9837 677.802 22.1335C677.955 22.2832 678.074 22.4753 678.159 22.7097C678.243 22.944 678.286 23.2272 678.286 23.5593V27.0798H677.382V23.6032C677.382 23.3265 677.335 23.1052 677.241 22.9391C677.15 22.7731 677.019 22.6527 676.85 22.5778C676.681 22.4997 676.482 22.4606 676.254 22.4606C675.987 22.4606 675.764 22.5078 675.585 22.6022C675.406 22.6966 675.263 22.8268 675.156 22.9929C675.048 23.1589 674.97 23.3493 674.921 23.5641C674.876 23.7757 674.853 24.0003 674.853 24.238ZM678.276 23.7399L677.67 23.9255C677.674 23.6358 677.721 23.3574 677.812 23.0905C677.906 22.8236 678.042 22.586 678.217 22.3776C678.396 22.1693 678.616 22.0049 678.876 21.8845C679.137 21.7608 679.435 21.6989 679.77 21.6989C680.053 21.6989 680.304 21.7363 680.522 21.8112C680.743 21.8861 680.929 22.0016 681.079 22.1579C681.232 22.3109 681.347 22.5078 681.425 22.7487C681.503 22.9896 681.542 23.2761 681.542 23.6081V27.0798H680.634V23.5983C680.634 23.3021 680.587 23.0726 680.493 22.9099C680.402 22.7438 680.271 22.6283 680.102 22.5632C679.936 22.4948 679.737 22.4606 679.506 22.4606C679.308 22.4606 679.132 22.4948 678.979 22.5632C678.826 22.6315 678.697 22.7259 678.593 22.8464C678.489 22.9636 678.409 23.0987 678.354 23.2516C678.302 23.4046 678.276 23.5674 678.276 23.7399ZM685.102 27.1774C684.734 27.1774 684.401 27.1156 684.101 26.9919C683.805 26.8649 683.549 26.6875 683.334 26.4597C683.123 26.2318 682.96 25.9616 682.846 25.6491C682.732 25.3366 682.675 24.9948 682.675 24.6237V24.4186C682.675 23.989 682.739 23.6065 682.866 23.2712C682.993 22.9326 683.165 22.6462 683.383 22.4118C683.601 22.1774 683.849 22 684.125 21.8796C684.402 21.7591 684.689 21.6989 684.985 21.6989C685.362 21.6989 685.688 21.764 685.961 21.8942C686.238 22.0244 686.464 22.2067 686.64 22.4411C686.816 22.6722 686.946 22.9457 687.031 23.2614C687.115 23.5739 687.158 23.9157 687.158 24.2868V24.6921H683.212V23.9548H686.254V23.8864C686.241 23.652 686.193 23.4242 686.108 23.2028C686.027 22.9815 685.896 22.7992 685.717 22.6559C685.538 22.5127 685.294 22.4411 684.985 22.4411C684.78 22.4411 684.591 22.485 684.418 22.5729C684.246 22.6576 684.098 22.7845 683.974 22.9538C683.85 23.1231 683.754 23.3298 683.686 23.5739C683.618 23.8181 683.583 24.0996 683.583 24.4186V24.6237C683.583 24.8744 683.618 25.1104 683.686 25.3317C683.758 25.5498 683.86 25.7419 683.994 25.9079C684.13 26.0739 684.295 26.2041 684.487 26.2985C684.682 26.3929 684.903 26.4401 685.151 26.4401C685.47 26.4401 685.74 26.375 685.961 26.2448C686.183 26.1146 686.376 25.9405 686.542 25.7224L687.089 26.1569C686.975 26.3294 686.831 26.4938 686.655 26.6501C686.479 26.8063 686.263 26.9333 686.005 27.0309C685.751 27.1286 685.45 27.1774 685.102 27.1774ZM689.116 22.9245V27.0798H688.212V21.7966H689.067L689.116 22.9245ZM688.901 24.238L688.525 24.2233C688.528 23.862 688.582 23.5283 688.686 23.2224C688.79 22.9131 688.937 22.6446 689.125 22.4167C689.314 22.1888 689.539 22.013 689.799 21.8893C690.063 21.7624 690.354 21.6989 690.673 21.6989C690.934 21.6989 691.168 21.7347 691.376 21.8063C691.585 21.8747 691.762 21.9854 691.909 22.1384C692.058 22.2914 692.172 22.4899 692.25 22.7341C692.329 22.975 692.368 23.2696 692.368 23.6179V27.0798H691.459V23.6081C691.459 23.3314 691.419 23.11 691.337 22.944C691.256 22.7748 691.137 22.6527 690.981 22.5778C690.825 22.4997 690.633 22.4606 690.405 22.4606C690.18 22.4606 689.975 22.5078 689.79 22.6022C689.607 22.6966 689.449 22.8268 689.316 22.9929C689.186 23.1589 689.083 23.3493 689.008 23.5641C688.937 23.7757 688.901 24.0003 688.901 24.238ZM695.952 21.7966V22.4899H693.095V21.7966H695.952ZM694.062 20.5124H694.965V25.7712C694.965 25.9502 694.993 26.0853 695.048 26.1765C695.104 26.2676 695.175 26.3278 695.263 26.3571C695.351 26.3864 695.445 26.4011 695.546 26.4011C695.621 26.4011 695.699 26.3946 695.781 26.3815C695.865 26.3653 695.929 26.3522 695.971 26.3425L695.976 27.0798C695.904 27.1026 695.81 27.1237 695.693 27.1432C695.579 27.166 695.441 27.1774 695.278 27.1774C695.056 27.1774 694.853 27.1335 694.667 27.0456C694.482 26.9577 694.334 26.8112 694.223 26.6061C694.116 26.3978 694.062 26.1179 694.062 25.7663V20.5124ZM700.087 25.6784C700.087 25.5482 700.058 25.4278 700 25.3171C699.944 25.2031 699.829 25.1006 699.653 25.0095C699.48 24.9151 699.22 24.8337 698.872 24.7653C698.579 24.7035 698.313 24.6302 698.076 24.5456C697.841 24.461 697.641 24.3584 697.475 24.238C697.312 24.1175 697.187 23.9759 697.099 23.8132C697.011 23.6504 696.967 23.46 696.967 23.2419C696.967 23.0335 697.013 22.8366 697.104 22.6511C697.198 22.4655 697.33 22.3011 697.5 22.1579C697.672 22.0147 697.879 21.9024 698.12 21.821C698.361 21.7396 698.629 21.6989 698.925 21.6989C699.348 21.6989 699.71 21.7738 700.009 21.9235C700.309 22.0733 700.538 22.2735 700.698 22.5241C700.857 22.7715 700.937 23.0466 700.937 23.3493H700.034C700.034 23.2028 699.99 23.0612 699.902 22.9245C699.817 22.7845 699.692 22.669 699.526 22.5778C699.363 22.4867 699.163 22.4411 698.925 22.4411C698.675 22.4411 698.471 22.4802 698.315 22.5583C698.162 22.6332 698.05 22.7292 697.978 22.8464C697.91 22.9636 697.875 23.0873 697.875 23.2175C697.875 23.3151 697.892 23.403 697.924 23.4811C697.96 23.556 698.022 23.626 698.11 23.6911C698.198 23.753 698.321 23.8115 698.481 23.8669C698.64 23.9222 698.844 23.9776 699.091 24.0329C699.524 24.1306 699.881 24.2477 700.161 24.3845C700.441 24.5212 700.649 24.6888 700.786 24.8874C700.922 25.086 700.991 25.3268 700.991 25.61C700.991 25.8412 700.942 26.0528 700.844 26.2448C700.75 26.4369 700.611 26.6029 700.429 26.7429C700.25 26.8796 700.035 26.987 699.785 27.0651C699.537 27.14 699.259 27.1774 698.95 27.1774C698.484 27.1774 698.09 27.0944 697.768 26.9284C697.446 26.7624 697.202 26.5475 697.036 26.2839C696.87 26.0202 696.787 25.7419 696.787 25.4489H697.695C697.708 25.6963 697.779 25.8932 697.91 26.0397C698.04 26.183 698.199 26.2855 698.388 26.3474C698.577 26.4059 698.764 26.4352 698.95 26.4352C699.197 26.4352 699.404 26.4027 699.57 26.3376C699.739 26.2725 699.868 26.183 699.956 26.069C700.043 25.9551 700.087 25.8249 700.087 25.6784Z" fill="#656A91"/>
<path d="M727.208 28.1852H734.919V24.3446C734.919 22.2047 733.193 20.4698 731.064 20.4698C728.934 20.4698 727.208 22.2047 727.208 24.3446V28.1852ZM731.064 19.3676C733.802 19.3676 736.024 21.5957 736.024 24.3446V29.2875H726.104V24.3446C726.104 21.5957 728.326 19.3676 731.064 19.3676ZM729.688 29.8386H732.439C732.439 30.204 732.294 30.5544 732.036 30.8128C731.778 31.0712 731.428 31.2164 731.064 31.2164C730.7 31.2164 730.35 31.0712 730.092 30.8128C729.834 30.5544 729.688 30.204 729.688 29.8386Z" fill="#8C8FAC"/>
<path d="M731.064 21.5721C731.064 19.746 732.545 18.2655 734.371 18.2655C736.196 18.2655 737.677 19.746 737.677 21.5721C737.677 23.3983 736.196 24.8788 734.371 24.8788C732.545 24.8788 731.064 23.3983 731.064 21.5721Z" fill="#E7428C"/>
<path d="M734.371 23.556C733.273 23.556 732.387 22.6678 732.387 21.572H729.741C729.741 24.1287 731.811 26.2013 734.371 26.2013V23.556ZM736.354 21.572C736.354 22.6678 735.468 23.556 734.371 23.556V26.2013C736.93 26.2013 739 24.1287 739 21.572H736.354ZM734.371 19.5881C735.468 19.5881 736.354 20.4763 736.354 21.572H739C739 19.0154 736.93 16.9427 734.371 16.9427V19.5881ZM734.371 16.9427C731.811 16.9427 729.741 19.0154 729.741 21.572H732.387C732.387 20.4763 733.273 19.5881 734.371 19.5881V16.9427Z" fill="white"/>
<path d="M806.156 17.8608L807.285 13.8921H807.832L807.516 15.4351L806.301 19.5796H805.758L806.156 17.8608ZM804.988 13.8921L805.887 17.7827L806.156 19.5796H805.617L804.238 13.8921H804.988ZM809.293 17.7788L810.172 13.8921H810.926L809.551 19.5796H809.012L809.293 17.7788ZM807.914 13.8921L809.012 17.8608L809.41 19.5796H808.867L807.695 15.4351L807.375 13.8921H807.914ZM811.336 17.5132V17.4233C811.336 17.1187 811.38 16.8361 811.469 16.5757C811.557 16.3127 811.685 16.0848 811.852 15.8921C812.018 15.6968 812.22 15.5457 812.457 15.439C812.694 15.3296 812.96 15.2749 813.254 15.2749C813.551 15.2749 813.818 15.3296 814.055 15.439C814.294 15.5457 814.497 15.6968 814.664 15.8921C814.833 16.0848 814.962 16.3127 815.051 16.5757C815.139 16.8361 815.184 17.1187 815.184 17.4233V17.5132C815.184 17.8179 815.139 18.1004 815.051 18.3608C814.962 18.6213 814.833 18.8491 814.664 19.0444C814.497 19.2371 814.296 19.3882 814.059 19.4976C813.824 19.6043 813.559 19.6577 813.262 19.6577C812.965 19.6577 812.698 19.6043 812.461 19.4976C812.224 19.3882 812.021 19.2371 811.852 19.0444C811.685 18.8491 811.557 18.6213 811.469 18.3608C811.38 18.1004 811.336 17.8179 811.336 17.5132ZM812.059 17.4233V17.5132C812.059 17.7241 812.083 17.9233 812.133 18.1108C812.182 18.2957 812.257 18.4598 812.355 18.603C812.457 18.7463 812.583 18.8595 812.734 18.9429C812.885 19.0236 813.061 19.064 813.262 19.064C813.46 19.064 813.633 19.0236 813.781 18.9429C813.932 18.8595 814.057 18.7463 814.156 18.603C814.255 18.4598 814.329 18.2957 814.379 18.1108C814.431 17.9233 814.457 17.7241 814.457 17.5132V17.4233C814.457 17.215 814.431 17.0184 814.379 16.8335C814.329 16.646 814.254 16.4806 814.152 16.3374C814.053 16.1916 813.928 16.077 813.777 15.9937C813.629 15.9103 813.454 15.8687 813.254 15.8687C813.056 15.8687 812.882 15.9103 812.73 15.9937C812.582 16.077 812.457 16.1916 812.355 16.3374C812.257 16.4806 812.182 16.646 812.133 16.8335C812.083 17.0184 812.059 17.215 812.059 17.4233ZM816.812 16.2554V19.5796H816.09V15.353H816.773L816.812 16.2554ZM816.641 17.3062L816.34 17.2944C816.342 17.0054 816.385 16.7384 816.469 16.4937C816.552 16.2463 816.669 16.0314 816.82 15.8491C816.971 15.6668 817.151 15.5262 817.359 15.4272C817.57 15.3257 817.803 15.2749 818.059 15.2749C818.267 15.2749 818.454 15.3035 818.621 15.3608C818.788 15.4155 818.93 15.5041 819.047 15.6265C819.167 15.7489 819.258 15.9077 819.32 16.103C819.383 16.2957 819.414 16.5314 819.414 16.8101V19.5796H818.688V16.8022C818.688 16.5809 818.655 16.4038 818.59 16.271C818.525 16.1356 818.43 16.0379 818.305 15.978C818.18 15.9155 818.026 15.8843 817.844 15.8843C817.664 15.8843 817.5 15.922 817.352 15.9976C817.206 16.0731 817.079 16.1772 816.973 16.3101C816.868 16.4429 816.786 16.5952 816.727 16.7671C816.669 16.9364 816.641 17.116 816.641 17.3062ZM821.238 13.5796V19.5796H820.512V13.5796H821.238ZM823.82 15.353L821.977 17.3257L820.945 18.396L820.887 17.6265L821.625 16.7437L822.938 15.353H823.82ZM823.16 19.5796L821.652 17.564L822.027 16.9194L824.012 19.5796H823.16ZM827.059 18.8569V16.6812C827.059 16.5145 827.025 16.37 826.957 16.2476C826.892 16.1226 826.793 16.0262 826.66 15.9585C826.527 15.8908 826.363 15.8569 826.168 15.8569C825.986 15.8569 825.826 15.8882 825.688 15.9507C825.552 16.0132 825.445 16.0952 825.367 16.1968C825.292 16.2983 825.254 16.4077 825.254 16.5249H824.531C824.531 16.3739 824.57 16.2241 824.648 16.0757C824.727 15.9272 824.839 15.7931 824.984 15.6733C825.133 15.5509 825.31 15.4546 825.516 15.3843C825.724 15.3114 825.956 15.2749 826.211 15.2749C826.518 15.2749 826.789 15.327 827.023 15.4312C827.26 15.5353 827.445 15.6929 827.578 15.9038C827.714 16.1121 827.781 16.3739 827.781 16.689V18.6577C827.781 18.7983 827.793 18.9481 827.816 19.1069C827.842 19.2658 827.88 19.4025 827.93 19.5171V19.5796H827.176C827.139 19.4963 827.111 19.3856 827.09 19.2476C827.069 19.1069 827.059 18.9767 827.059 18.8569ZM827.184 17.0171L827.191 17.5249H826.461C826.255 17.5249 826.072 17.5418 825.91 17.5757C825.749 17.6069 825.613 17.6551 825.504 17.7202C825.395 17.7853 825.311 17.8674 825.254 17.9663C825.197 18.0627 825.168 18.1759 825.168 18.3062C825.168 18.439 825.198 18.5601 825.258 18.6694C825.318 18.7788 825.408 18.866 825.527 18.9312C825.65 18.9937 825.799 19.0249 825.977 19.0249C826.198 19.0249 826.393 18.978 826.562 18.8843C826.732 18.7905 826.866 18.6759 826.965 18.5405C827.066 18.4051 827.121 18.2736 827.129 18.146L827.438 18.4937C827.419 18.603 827.37 18.7241 827.289 18.8569C827.208 18.9897 827.1 19.1174 826.965 19.2397C826.832 19.3595 826.673 19.4598 826.488 19.5405C826.306 19.6187 826.1 19.6577 825.871 19.6577C825.585 19.6577 825.333 19.6017 825.117 19.4897C824.904 19.3778 824.737 19.228 824.617 19.0405C824.5 18.8504 824.441 18.6382 824.441 18.4038C824.441 18.1772 824.486 17.978 824.574 17.8062C824.663 17.6317 824.79 17.4871 824.957 17.3726C825.124 17.2554 825.324 17.1668 825.559 17.1069C825.793 17.047 826.055 17.0171 826.344 17.0171H827.184ZM831.82 13.8921V19.5796H831.066V13.8921H831.82ZM833.805 16.2554V19.5796H833.082V15.353H833.766L833.805 16.2554ZM833.633 17.3062L833.332 17.2944C833.335 17.0054 833.378 16.7384 833.461 16.4937C833.544 16.2463 833.661 16.0314 833.812 15.8491C833.964 15.6668 834.143 15.5262 834.352 15.4272C834.562 15.3257 834.796 15.2749 835.051 15.2749C835.259 15.2749 835.447 15.3035 835.613 15.3608C835.78 15.4155 835.922 15.5041 836.039 15.6265C836.159 15.7489 836.25 15.9077 836.312 16.103C836.375 16.2957 836.406 16.5314 836.406 16.8101V19.5796H835.68V16.8022C835.68 16.5809 835.647 16.4038 835.582 16.271C835.517 16.1356 835.422 16.0379 835.297 15.978C835.172 15.9155 835.018 15.8843 834.836 15.8843C834.656 15.8843 834.492 15.922 834.344 15.9976C834.198 16.0731 834.072 16.1772 833.965 16.3101C833.861 16.4429 833.779 16.5952 833.719 16.7671C833.661 16.9364 833.633 17.116 833.633 17.3062ZM840.168 18.7593V13.5796H840.895V19.5796H840.23L840.168 18.7593ZM837.324 17.5132V17.4312C837.324 17.1082 837.363 16.8153 837.441 16.5522C837.522 16.2866 837.635 16.0588 837.781 15.8687C837.93 15.6785 838.105 15.5327 838.309 15.4312C838.514 15.327 838.743 15.2749 838.996 15.2749C839.262 15.2749 839.493 15.3218 839.691 15.4155C839.892 15.5067 840.061 15.6408 840.199 15.8179C840.34 15.9924 840.451 16.2033 840.531 16.4507C840.612 16.6981 840.668 16.978 840.699 17.2905V17.6499C840.671 17.9598 840.615 18.2384 840.531 18.4858C840.451 18.7332 840.34 18.9442 840.199 19.1187C840.061 19.2931 839.892 19.4272 839.691 19.521C839.491 19.6121 839.257 19.6577 838.988 19.6577C838.741 19.6577 838.514 19.6043 838.309 19.4976C838.105 19.3908 837.93 19.241 837.781 19.0483C837.635 18.8556 837.522 18.6291 837.441 18.3687C837.363 18.1056 837.324 17.8205 837.324 17.5132ZM838.051 17.4312V17.5132C838.051 17.7241 838.072 17.922 838.113 18.1069C838.158 18.2918 838.225 18.4546 838.316 18.5952C838.408 18.7358 838.523 18.8465 838.664 18.9272C838.805 19.0054 838.973 19.0444 839.168 19.0444C839.408 19.0444 839.604 18.9937 839.758 18.8921C839.914 18.7905 840.039 18.6564 840.133 18.4897C840.227 18.3231 840.299 18.1421 840.352 17.9468V17.0054C840.32 16.8621 840.275 16.7241 840.215 16.5913C840.158 16.4559 840.082 16.3361 839.988 16.2319C839.897 16.1252 839.784 16.0405 839.648 15.978C839.516 15.9155 839.358 15.8843 839.176 15.8843C838.978 15.8843 838.807 15.9259 838.664 16.0093C838.523 16.09 838.408 16.202 838.316 16.3452C838.225 16.4858 838.158 16.6499 838.113 16.8374C838.072 17.0223 838.051 17.2202 838.051 17.4312ZM844.605 18.603V15.353H845.332V19.5796H844.641L844.605 18.603ZM844.742 17.7124L845.043 17.7046C845.043 17.9858 845.013 18.2463 844.953 18.4858C844.896 18.7228 844.802 18.9285 844.672 19.103C844.542 19.2775 844.371 19.4142 844.16 19.5132C843.949 19.6095 843.693 19.6577 843.391 19.6577C843.185 19.6577 842.996 19.6278 842.824 19.5679C842.655 19.508 842.509 19.4155 842.387 19.2905C842.264 19.1655 842.169 19.0028 842.102 18.8022C842.036 18.6017 842.004 18.3608 842.004 18.0796V15.353H842.727V18.0874C842.727 18.2775 842.747 18.4351 842.789 18.5601C842.833 18.6825 842.892 18.7801 842.965 18.853C843.04 18.9233 843.124 18.9728 843.215 19.0015C843.309 19.0301 843.405 19.0444 843.504 19.0444C843.811 19.0444 844.055 18.9858 844.234 18.8687C844.414 18.7489 844.543 18.5887 844.621 18.3882C844.702 18.1851 844.742 17.9598 844.742 17.7124ZM848.895 18.4585C848.895 18.3543 848.871 18.258 848.824 18.1694C848.78 18.0783 848.688 17.9963 848.547 17.9233C848.409 17.8478 848.201 17.7827 847.922 17.728C847.688 17.6785 847.475 17.62 847.285 17.5522C847.098 17.4845 846.938 17.4025 846.805 17.3062C846.674 17.2098 846.574 17.0965 846.504 16.9663C846.434 16.8361 846.398 16.6838 846.398 16.5093C846.398 16.3426 846.435 16.1851 846.508 16.0366C846.583 15.8882 846.689 15.7567 846.824 15.6421C846.962 15.5275 847.128 15.4377 847.32 15.3726C847.513 15.3075 847.728 15.2749 847.965 15.2749C848.303 15.2749 848.592 15.3348 848.832 15.4546C849.072 15.5744 849.255 15.7345 849.383 15.9351C849.51 16.133 849.574 16.353 849.574 16.5952H848.852C848.852 16.478 848.816 16.3647 848.746 16.2554C848.678 16.1434 848.578 16.0509 848.445 15.978C848.315 15.9051 848.155 15.8687 847.965 15.8687C847.764 15.8687 847.602 15.8999 847.477 15.9624C847.354 16.0223 847.264 16.0991 847.207 16.1929C847.152 16.2866 847.125 16.3856 847.125 16.4897C847.125 16.5679 847.138 16.6382 847.164 16.7007C847.193 16.7606 847.242 16.8166 847.312 16.8687C847.383 16.9181 847.482 16.965 847.609 17.0093C847.737 17.0535 847.9 17.0978 848.098 17.1421C848.444 17.2202 848.729 17.314 848.953 17.4233C849.177 17.5327 849.344 17.6668 849.453 17.8257C849.562 17.9845 849.617 18.1772 849.617 18.4038C849.617 18.5887 849.578 18.758 849.5 18.9116C849.424 19.0653 849.314 19.1981 849.168 19.3101C849.025 19.4194 848.853 19.5054 848.652 19.5679C848.454 19.6278 848.232 19.6577 847.984 19.6577C847.612 19.6577 847.297 19.5913 847.039 19.4585C846.781 19.3257 846.586 19.1538 846.453 18.9429C846.32 18.7319 846.254 18.5093 846.254 18.2749H846.98C846.991 18.4728 847.048 18.6304 847.152 18.7476C847.257 18.8621 847.384 18.9442 847.535 18.9937C847.686 19.0405 847.836 19.064 847.984 19.064C848.182 19.064 848.348 19.0379 848.48 18.9858C848.616 18.9338 848.719 18.8621 848.789 18.771C848.859 18.6799 848.895 18.5757 848.895 18.4585ZM852.336 15.353V15.9077H850.051V15.353H852.336ZM850.824 14.3257H851.547V18.5327C851.547 18.6759 851.569 18.784 851.613 18.8569C851.658 18.9299 851.715 18.978 851.785 19.0015C851.855 19.0249 851.931 19.0366 852.012 19.0366C852.072 19.0366 852.134 19.0314 852.199 19.021C852.267 19.008 852.318 18.9976 852.352 18.9897L852.355 19.5796C852.298 19.5978 852.223 19.6147 852.129 19.6304C852.038 19.6486 851.927 19.6577 851.797 19.6577C851.62 19.6577 851.457 19.6226 851.309 19.5522C851.16 19.4819 851.042 19.3647 850.953 19.2007C850.867 19.034 850.824 18.8101 850.824 18.5288V14.3257ZM853.906 16.0171V19.5796H853.184V15.353H853.887L853.906 16.0171ZM855.227 15.3296L855.223 16.0015C855.163 15.9884 855.105 15.9806 855.051 15.978C854.999 15.9728 854.939 15.9702 854.871 15.9702C854.704 15.9702 854.557 15.9963 854.43 16.0483C854.302 16.1004 854.194 16.1733 854.105 16.2671C854.017 16.3608 853.947 16.4728 853.895 16.603C853.845 16.7306 853.812 16.8713 853.797 17.0249L853.594 17.1421C853.594 16.8869 853.618 16.6473 853.668 16.4233C853.72 16.1994 853.799 16.0015 853.906 15.8296C854.013 15.6551 854.148 15.5197 854.312 15.4233C854.479 15.3244 854.677 15.2749 854.906 15.2749C854.958 15.2749 855.018 15.2814 855.086 15.2944C855.154 15.3049 855.201 15.3166 855.227 15.3296ZM856.68 15.353V19.5796H855.953V15.353H856.68ZM855.898 14.2319C855.898 14.1147 855.934 14.0158 856.004 13.9351C856.077 13.8543 856.184 13.814 856.324 13.814C856.462 13.814 856.568 13.8543 856.641 13.9351C856.716 14.0158 856.754 14.1147 856.754 14.2319C856.754 14.3439 856.716 14.4403 856.641 14.521C856.568 14.5991 856.462 14.6382 856.324 14.6382C856.184 14.6382 856.077 14.5991 856.004 14.521C855.934 14.4403 855.898 14.3439 855.898 14.2319ZM859.594 19.6577C859.299 19.6577 859.033 19.6082 858.793 19.5093C858.556 19.4077 858.352 19.2658 858.18 19.0835C858.01 18.9012 857.88 18.6851 857.789 18.4351C857.698 18.1851 857.652 17.9116 857.652 17.6147V17.4507C857.652 17.1069 857.703 16.8009 857.805 16.5327C857.906 16.2619 858.044 16.0327 858.219 15.8452C858.393 15.6577 858.591 15.5158 858.812 15.4194C859.034 15.3231 859.263 15.2749 859.5 15.2749C859.802 15.2749 860.062 15.327 860.281 15.4312C860.503 15.5353 860.684 15.6812 860.824 15.8687C860.965 16.0535 861.069 16.2723 861.137 16.5249C861.204 16.7749 861.238 17.0483 861.238 17.3452V17.6694H858.082V17.0796H860.516V17.0249C860.505 16.8374 860.466 16.6551 860.398 16.478C860.333 16.3009 860.229 16.1551 860.086 16.0405C859.943 15.9259 859.747 15.8687 859.5 15.8687C859.336 15.8687 859.185 15.9038 859.047 15.9741C858.909 16.0418 858.79 16.1434 858.691 16.2788C858.592 16.4142 858.516 16.5796 858.461 16.7749C858.406 16.9702 858.379 17.1955 858.379 17.4507V17.6147C858.379 17.8153 858.406 18.0041 858.461 18.1812C858.518 18.3556 858.6 18.5093 858.707 18.6421C858.816 18.7749 858.948 18.8791 859.102 18.9546C859.258 19.0301 859.435 19.0679 859.633 19.0679C859.888 19.0679 860.104 19.0158 860.281 18.9116C860.458 18.8075 860.613 18.6681 860.746 18.4937L861.184 18.8413C861.092 18.9793 860.977 19.1108 860.836 19.2358C860.695 19.3608 860.522 19.4624 860.316 19.5405C860.113 19.6187 859.872 19.6577 859.594 19.6577ZM864.543 18.4585C864.543 18.3543 864.52 18.258 864.473 18.1694C864.428 18.0783 864.336 17.9963 864.195 17.9233C864.057 17.8478 863.849 17.7827 863.57 17.728C863.336 17.6785 863.124 17.62 862.934 17.5522C862.746 17.4845 862.586 17.4025 862.453 17.3062C862.323 17.2098 862.223 17.0965 862.152 16.9663C862.082 16.8361 862.047 16.6838 862.047 16.5093C862.047 16.3426 862.083 16.1851 862.156 16.0366C862.232 15.8882 862.337 15.7567 862.473 15.6421C862.611 15.5275 862.776 15.4377 862.969 15.3726C863.161 15.3075 863.376 15.2749 863.613 15.2749C863.952 15.2749 864.241 15.3348 864.48 15.4546C864.72 15.5744 864.904 15.7345 865.031 15.9351C865.159 16.133 865.223 16.353 865.223 16.5952H864.5C864.5 16.478 864.465 16.3647 864.395 16.2554C864.327 16.1434 864.227 16.0509 864.094 15.978C863.964 15.9051 863.803 15.8687 863.613 15.8687C863.413 15.8687 863.25 15.8999 863.125 15.9624C863.003 16.0223 862.913 16.0991 862.855 16.1929C862.801 16.2866 862.773 16.3856 862.773 16.4897C862.773 16.5679 862.786 16.6382 862.812 16.7007C862.841 16.7606 862.891 16.8166 862.961 16.8687C863.031 16.9181 863.13 16.965 863.258 17.0093C863.385 17.0535 863.548 17.0978 863.746 17.1421C864.092 17.2202 864.378 17.314 864.602 17.4233C864.826 17.5327 864.992 17.6668 865.102 17.8257C865.211 17.9845 865.266 18.1772 865.266 18.4038C865.266 18.5887 865.227 18.758 865.148 18.9116C865.073 19.0653 864.962 19.1981 864.816 19.3101C864.673 19.4194 864.501 19.5054 864.301 19.5679C864.103 19.6278 863.88 19.6577 863.633 19.6577C863.26 19.6577 862.945 19.5913 862.688 19.4585C862.43 19.3257 862.234 19.1538 862.102 18.9429C861.969 18.7319 861.902 18.5093 861.902 18.2749H862.629C862.639 18.4728 862.697 18.6304 862.801 18.7476C862.905 18.8621 863.033 18.9442 863.184 18.9937C863.335 19.0405 863.484 19.064 863.633 19.064C863.831 19.064 863.996 19.0379 864.129 18.9858C864.264 18.9338 864.367 18.8621 864.438 18.771C864.508 18.6799 864.543 18.5757 864.543 18.4585Z" fill="#656A91"/>
<path d="M806.452 25.4702V32.5796H805.524V25.4702H806.452ZM808.737 25.4702V26.2417H803.244V25.4702H808.737ZM808.928 29.9966V29.8843C808.928 29.5034 808.983 29.1502 809.094 28.8247C809.204 28.4959 809.364 28.2111 809.572 27.9702C809.781 27.7261 810.033 27.5373 810.329 27.4038C810.625 27.2671 810.957 27.1987 811.325 27.1987C811.696 27.1987 812.03 27.2671 812.326 27.4038C812.626 27.5373 812.88 27.7261 813.088 27.9702C813.299 28.2111 813.461 28.4959 813.571 28.8247C813.682 29.1502 813.737 29.5034 813.737 29.8843V29.9966C813.737 30.3774 813.682 30.7306 813.571 31.0562C813.461 31.3817 813.299 31.6665 813.088 31.9106C812.88 32.1515 812.627 32.3403 812.331 32.4771C812.038 32.6105 811.706 32.6772 811.335 32.6772C810.964 32.6772 810.63 32.6105 810.334 32.4771C810.038 32.3403 809.784 32.1515 809.572 31.9106C809.364 31.6665 809.204 31.3817 809.094 31.0562C808.983 30.7306 808.928 30.3774 808.928 29.9966ZM809.831 29.8843V29.9966C809.831 30.2603 809.862 30.5093 809.924 30.7437C809.986 30.9748 810.078 31.1799 810.202 31.3589C810.329 31.5379 810.487 31.6795 810.676 31.7837C810.865 31.8846 811.084 31.9351 811.335 31.9351C811.582 31.9351 811.799 31.8846 811.984 31.7837C812.173 31.6795 812.329 31.5379 812.453 31.3589C812.577 31.1799 812.67 30.9748 812.731 30.7437C812.797 30.5093 812.829 30.2603 812.829 29.9966V29.8843C812.829 29.6239 812.797 29.3781 812.731 29.147C812.67 28.9126 812.575 28.7059 812.448 28.5269C812.325 28.3446 812.168 28.2013 811.979 28.0972C811.794 27.993 811.576 27.9409 811.325 27.9409C811.078 27.9409 810.86 27.993 810.671 28.0972C810.485 28.2013 810.329 28.3446 810.202 28.5269C810.078 28.7059 809.986 28.9126 809.924 29.147C809.862 29.3781 809.831 29.6239 809.831 29.8843ZM815.773 28.4243V32.5796H814.87V27.2964H815.725L815.773 28.4243ZM815.559 29.7378L815.183 29.7231C815.186 29.3618 815.24 29.0282 815.344 28.7222C815.448 28.4129 815.594 28.1444 815.783 27.9165C815.972 27.6886 816.197 27.5129 816.457 27.3892C816.721 27.2622 817.012 27.1987 817.331 27.1987C817.591 27.1987 817.826 27.2345 818.034 27.3062C818.243 27.3745 818.42 27.4852 818.566 27.6382C818.716 27.7912 818.83 27.9897 818.908 28.2339C818.986 28.4748 819.025 28.7694 819.025 29.1177V32.5796H818.117V29.1079C818.117 28.8312 818.076 28.6099 817.995 28.4438C817.914 28.2746 817.795 28.1525 817.639 28.0776C817.482 27.9995 817.29 27.9604 817.062 27.9604C816.838 27.9604 816.633 28.0076 816.447 28.1021C816.265 28.1965 816.107 28.3267 815.974 28.4927C815.843 28.6587 815.741 28.8491 815.666 29.064C815.594 29.2756 815.559 29.5002 815.559 29.7378ZM821.379 27.2964V32.5796H820.471V27.2964H821.379ZM820.402 25.895C820.402 25.7485 820.446 25.6248 820.534 25.5239C820.625 25.423 820.759 25.3726 820.935 25.3726C821.107 25.3726 821.239 25.423 821.33 25.5239C821.424 25.6248 821.472 25.7485 821.472 25.895C821.472 26.035 821.424 26.1554 821.33 26.2563C821.239 26.354 821.107 26.4028 820.935 26.4028C820.759 26.4028 820.625 26.354 820.534 26.2563C820.446 26.1554 820.402 26.035 820.402 25.895ZM827.37 32.5796H825.886L825.896 31.813H827.37C827.878 31.813 828.301 31.7072 828.64 31.4956C828.978 31.2808 829.232 30.9813 829.401 30.5972C829.574 30.2098 829.66 29.7573 829.66 29.2397V28.8052C829.66 28.3983 829.611 28.0369 829.514 27.7212C829.416 27.4022 829.273 27.1336 829.084 26.9155C828.895 26.6942 828.664 26.5265 828.391 26.4126C828.12 26.2987 827.81 26.2417 827.458 26.2417H825.856V25.4702H827.458C827.924 25.4702 828.348 25.5483 828.732 25.7046C829.117 25.8576 829.447 26.0806 829.724 26.3735C830.004 26.6632 830.218 27.0148 830.368 27.4282C830.518 27.8384 830.593 28.3006 830.593 28.8149V29.2397C830.593 29.7541 830.518 30.2179 830.368 30.6313C830.218 31.0415 830.002 31.3914 829.719 31.6812C829.439 31.9709 829.1 32.1938 828.703 32.3501C828.309 32.5031 827.865 32.5796 827.37 32.5796ZM826.389 25.4702V32.5796H825.446V25.4702H826.389ZM834.987 31.6763V28.9565C834.987 28.7482 834.945 28.5675 834.86 28.4146C834.779 28.2583 834.655 28.1379 834.489 28.0532C834.323 27.9686 834.118 27.9263 833.874 27.9263C833.646 27.9263 833.446 27.9653 833.273 28.0435C833.104 28.1216 832.971 28.2241 832.873 28.3511C832.779 28.478 832.731 28.6147 832.731 28.7612H831.828C831.828 28.5724 831.877 28.3853 831.975 28.1997C832.072 28.0142 832.212 27.8465 832.395 27.6968C832.58 27.5438 832.801 27.4233 833.059 27.3354C833.319 27.2443 833.609 27.1987 833.928 27.1987C834.312 27.1987 834.65 27.2638 834.943 27.394C835.24 27.5243 835.471 27.7212 835.637 27.9849C835.806 28.2453 835.891 28.5724 835.891 28.9663V31.4272C835.891 31.603 835.905 31.7902 835.935 31.9888C835.967 32.1873 836.014 32.3582 836.076 32.5015V32.5796H835.134C835.088 32.4754 835.052 32.3371 835.026 32.1646C835 31.9888 834.987 31.826 834.987 31.6763ZM835.144 29.3765L835.153 30.0112H834.24C833.983 30.0112 833.754 30.0324 833.552 30.0747C833.35 30.1138 833.181 30.174 833.044 30.2554C832.907 30.3368 832.803 30.4393 832.731 30.563C832.66 30.6834 832.624 30.825 832.624 30.9878C832.624 31.1538 832.661 31.3052 832.736 31.4419C832.811 31.5786 832.924 31.6877 833.073 31.769C833.226 31.8472 833.413 31.8862 833.635 31.8862C833.911 31.8862 834.156 31.8276 834.367 31.7104C834.579 31.5933 834.746 31.45 834.87 31.2808C834.997 31.1115 835.065 30.9471 835.075 30.7876L835.461 31.2222C835.438 31.3589 835.376 31.5103 835.275 31.6763C835.174 31.8423 835.039 32.0018 834.87 32.1548C834.704 32.3045 834.506 32.4299 834.274 32.5308C834.047 32.6284 833.789 32.6772 833.503 32.6772C833.145 32.6772 832.831 32.6073 832.561 32.4673C832.294 32.3273 832.085 32.1401 831.936 31.9058C831.789 31.6681 831.716 31.4028 831.716 31.1099C831.716 30.8267 831.771 30.5776 831.882 30.3628C831.993 30.1447 832.152 29.964 832.36 29.8208C832.569 29.6743 832.819 29.5636 833.112 29.4888C833.405 29.4139 833.732 29.3765 834.094 29.3765H835.144ZM838.84 31.7642L840.285 27.2964H841.208L839.309 32.5796H838.703L838.84 31.7642ZM837.634 27.2964L839.123 31.7886L839.226 32.5796H838.62L836.706 27.2964H837.634ZM843.059 27.2964V32.5796H842.15V27.2964H843.059ZM842.082 25.895C842.082 25.7485 842.126 25.6248 842.214 25.5239C842.305 25.423 842.438 25.3726 842.614 25.3726C842.787 25.3726 842.919 25.423 843.01 25.5239C843.104 25.6248 843.151 25.7485 843.151 25.895C843.151 26.035 843.104 26.1554 843.01 26.2563C842.919 26.354 842.787 26.4028 842.614 26.4028C842.438 26.4028 842.305 26.354 842.214 26.2563C842.126 26.1554 842.082 26.035 842.082 25.895ZM847.839 31.5542V25.0796H848.747V32.5796H847.917L847.839 31.5542ZM844.284 29.9966V29.894C844.284 29.4904 844.333 29.1242 844.431 28.7954C844.532 28.4634 844.673 28.1785 844.855 27.9409C845.041 27.7033 845.261 27.521 845.515 27.394C845.772 27.2638 846.058 27.1987 846.374 27.1987C846.706 27.1987 846.996 27.2573 847.243 27.3745C847.494 27.4884 847.705 27.6561 847.878 27.8774C848.054 28.0955 848.192 28.3592 848.293 28.6685C848.394 28.9777 848.464 29.3276 848.503 29.7183V30.1675C848.467 30.5549 848.397 30.9032 848.293 31.2124C848.192 31.5216 848.054 31.7853 847.878 32.0034C847.705 32.2215 847.494 32.3892 847.243 32.5063C846.993 32.6203 846.7 32.6772 846.364 32.6772C846.055 32.6772 845.772 32.6105 845.515 32.4771C845.261 32.3436 845.041 32.1564 844.855 31.9155C844.673 31.6746 844.532 31.3914 844.431 31.0659C844.333 30.7371 844.284 30.3807 844.284 29.9966ZM845.192 29.894V29.9966C845.192 30.2603 845.218 30.5076 845.271 30.7388C845.326 30.9699 845.41 31.1733 845.524 31.3491C845.638 31.5249 845.783 31.6632 845.959 31.7642C846.135 31.8618 846.345 31.9106 846.589 31.9106C846.888 31.9106 847.134 31.8472 847.326 31.7202C847.521 31.5933 847.678 31.4256 847.795 31.2173C847.912 31.009 848.003 30.7827 848.068 30.5386V29.3618C848.029 29.1828 847.972 29.0103 847.897 28.8442C847.826 28.675 847.731 28.5252 847.614 28.395C847.5 28.2616 847.359 28.1558 847.189 28.0776C847.023 27.9995 846.826 27.9604 846.599 27.9604C846.351 27.9604 846.138 28.0125 845.959 28.1167C845.783 28.2176 845.638 28.3576 845.524 28.5366C845.41 28.7124 845.326 28.9175 845.271 29.1519C845.218 29.383 845.192 29.6304 845.192 29.894ZM853.229 31.1782C853.229 31.048 853.2 30.9276 853.142 30.8169C853.086 30.703 852.971 30.6004 852.795 30.5093C852.622 30.4149 852.362 30.3335 852.014 30.2651C851.721 30.2033 851.455 30.13 851.218 30.0454C850.983 29.9608 850.783 29.8582 850.617 29.7378C850.454 29.6174 850.329 29.4757 850.241 29.313C850.153 29.1502 850.109 28.9598 850.109 28.7417C850.109 28.5334 850.155 28.3364 850.246 28.1509C850.34 27.9653 850.472 27.8009 850.642 27.6577C850.814 27.5145 851.021 27.4022 851.262 27.3208C851.503 27.2394 851.771 27.1987 852.067 27.1987C852.491 27.1987 852.852 27.2736 853.151 27.4233C853.451 27.5731 853.68 27.7733 853.84 28.0239C853.999 28.2713 854.079 28.5464 854.079 28.8491H853.176C853.176 28.7026 853.132 28.561 853.044 28.4243C852.959 28.2843 852.834 28.1688 852.668 28.0776C852.505 27.9865 852.305 27.9409 852.067 27.9409C851.817 27.9409 851.613 27.98 851.457 28.0581C851.304 28.133 851.192 28.229 851.12 28.3462C851.052 28.4634 851.018 28.5871 851.018 28.7173C851.018 28.8149 851.034 28.9028 851.066 28.981C851.102 29.0558 851.164 29.1258 851.252 29.1909C851.34 29.2528 851.464 29.3114 851.623 29.3667C851.783 29.422 851.986 29.4774 852.233 29.5327C852.666 29.6304 853.023 29.7476 853.303 29.8843C853.583 30.021 853.791 30.1886 853.928 30.3872C854.064 30.5858 854.133 30.8267 854.133 31.1099C854.133 31.341 854.084 31.5526 853.986 31.7446C853.892 31.9367 853.754 32.1027 853.571 32.2427C853.392 32.3794 853.177 32.4868 852.927 32.5649C852.679 32.6398 852.401 32.6772 852.092 32.6772C851.626 32.6772 851.232 32.5942 850.91 32.4282C850.588 32.2622 850.344 32.0474 850.178 31.7837C850.012 31.52 849.929 31.2417 849.929 30.9487H850.837C850.85 31.1961 850.922 31.3931 851.052 31.5396C851.182 31.6828 851.341 31.7853 851.53 31.8472C851.719 31.9058 851.906 31.9351 852.092 31.9351C852.339 31.9351 852.546 31.9025 852.712 31.8374C852.881 31.7723 853.01 31.6828 853.098 31.5688C853.186 31.4549 853.229 31.3247 853.229 31.1782ZM855.08 29.9966V29.8843C855.08 29.5034 855.135 29.1502 855.246 28.8247C855.357 28.4959 855.516 28.2111 855.725 27.9702C855.933 27.7261 856.185 27.5373 856.481 27.4038C856.778 27.2671 857.11 27.1987 857.478 27.1987C857.849 27.1987 858.182 27.2671 858.479 27.4038C858.778 27.5373 859.032 27.7261 859.24 27.9702C859.452 28.2111 859.613 28.4959 859.724 28.8247C859.834 29.1502 859.89 29.5034 859.89 29.8843V29.9966C859.89 30.3774 859.834 30.7306 859.724 31.0562C859.613 31.3817 859.452 31.6665 859.24 31.9106C859.032 32.1515 858.78 32.3403 858.483 32.4771C858.19 32.6105 857.858 32.6772 857.487 32.6772C857.116 32.6772 856.783 32.6105 856.486 32.4771C856.19 32.3403 855.936 32.1515 855.725 31.9106C855.516 31.6665 855.357 31.3817 855.246 31.0562C855.135 30.7306 855.08 30.3774 855.08 29.9966ZM855.983 29.8843V29.9966C855.983 30.2603 856.014 30.5093 856.076 30.7437C856.138 30.9748 856.231 31.1799 856.354 31.3589C856.481 31.5379 856.639 31.6795 856.828 31.7837C857.017 31.8846 857.237 31.9351 857.487 31.9351C857.735 31.9351 857.951 31.8846 858.137 31.7837C858.326 31.6795 858.482 31.5379 858.605 31.3589C858.729 31.1799 858.822 30.9748 858.884 30.7437C858.949 30.5093 858.981 30.2603 858.981 29.9966V29.8843C858.981 29.6239 858.949 29.3781 858.884 29.147C858.822 28.9126 858.728 28.7059 858.601 28.5269C858.477 28.3446 858.321 28.2013 858.132 28.0972C857.946 27.993 857.728 27.9409 857.478 27.9409C857.23 27.9409 857.012 27.993 856.823 28.0972C856.638 28.2013 856.481 28.3446 856.354 28.5269C856.231 28.7059 856.138 28.9126 856.076 29.147C856.014 29.3781 855.983 29.6239 855.983 29.8843ZM861.926 28.4243V32.5796H861.022V27.2964H861.877L861.926 28.4243ZM861.711 29.7378L861.335 29.7231C861.338 29.3618 861.392 29.0282 861.496 28.7222C861.6 28.4129 861.747 28.1444 861.936 27.9165C862.124 27.6886 862.349 27.5129 862.609 27.3892C862.873 27.2622 863.164 27.1987 863.483 27.1987C863.744 27.1987 863.978 27.2345 864.187 27.3062C864.395 27.3745 864.572 27.4852 864.719 27.6382C864.868 27.7912 864.982 27.9897 865.061 28.2339C865.139 28.4748 865.178 28.7694 865.178 29.1177V32.5796H864.27V29.1079C864.27 28.8312 864.229 28.6099 864.147 28.4438C864.066 28.2746 863.947 28.1525 863.791 28.0776C863.635 27.9995 863.443 27.9604 863.215 27.9604C862.99 27.9604 862.785 28.0076 862.6 28.1021C862.417 28.1965 862.259 28.3267 862.126 28.4927C861.996 28.6587 861.893 28.8491 861.818 29.064C861.747 29.2756 861.711 29.5002 861.711 29.7378Z" fill="#32375E"/>
<rect x="870" y="8.07959" width="34" height="32" rx="6" fill="#F0F5F9"/>
<path d="M883.625 19.5483V28.0796H882.512V19.5483H883.625ZM886.367 19.5483V20.4741H879.775V19.5483H886.367ZM889.941 28.0796H888.16L888.172 27.1597H889.941C890.551 27.1597 891.059 27.0327 891.465 26.7788C891.871 26.521 892.176 26.1616 892.379 25.7007C892.586 25.2358 892.689 24.6929 892.689 24.0718V23.5503C892.689 23.062 892.631 22.6284 892.514 22.2495C892.396 21.8667 892.225 21.5444 891.998 21.2827C891.771 21.0171 891.494 20.8159 891.166 20.6792C890.842 20.5425 890.469 20.4741 890.047 20.4741H888.125V19.5483H890.047C890.605 19.5483 891.115 19.6421 891.576 19.8296C892.037 20.0132 892.434 20.2808 892.766 20.6323C893.102 20.98 893.359 21.4019 893.539 21.8979C893.719 22.3901 893.809 22.9448 893.809 23.562V24.0718C893.809 24.689 893.719 25.2456 893.539 25.7417C893.359 26.2339 893.1 26.6538 892.76 27.0015C892.424 27.3491 892.018 27.6167 891.541 27.8042C891.068 27.9878 890.535 28.0796 889.941 28.0796ZM888.764 19.5483V28.0796H887.633V19.5483H888.764Z" fill="#32375E"/>
</svg>
