<svg xmlns="http://www.w3.org/2000/svg" fill="none" viewBox="0 0 928 49"><rect width="928" height="48" y=".08" fill="#fff" rx="16"/><path fill="#32375E" d="M49.315 28.338v-8.785h3.45v8.777l-3.45.008zm14.673-.008v-4.867c0-3.128-1.66-4.1-3.602-4.122-.972-.015-2.126.3-2.907 1.17l-.152-.958h-3.045v8.777h3.396v-4.619c0-1.154.765-1.688 1.584-1.688.634 0 1.285.373 1.285 1.454v4.853h3.441zm1.229.629c-.183 2.682 1.66 4.32 4.964 4.32 2.631 0 5.224-1.068 5.224-3.91 0-.483-.115-1.726-1.813-2.647 1.063-.73 1.66-1.812 1.675-2.916a3.172 3.172 0 0 0-.88-2.36l1.201-1.353-2.478-1.688c-.298.373-.673.819-.986 1.206a5.828 5.828 0 0 0-1.905-.336c-2.853 0-5.132 1.74-5.132 4.495 0 2.718 2.035 4.422 5.132 4.422 1.247 0 1.66.533 1.66 1.169 0 .855-.803 1.264-1.698 1.264-.91 0-1.775-.3-1.736-1.666h-3.228zm5.002-7.002c1.01 0 1.736.819 1.736 1.813 0 1.17-.818 1.724-1.736 1.724-1.01 0-1.79-.672-1.79-1.724 0-1.177.78-1.813 1.79-1.813zm10.93 7.002c-.184 2.682 1.659 4.32 4.963 4.32 2.631 0 5.224-1.068 5.224-3.91 0-.483-.115-1.726-1.813-2.647 1.064-.73 1.66-1.812 1.675-2.916a3.172 3.172 0 0 0-.88-2.36l1.194-1.353-2.47-1.688c-.299.373-.674.819-.987 1.206a5.827 5.827 0 0 0-1.905-.336c-2.853 0-5.132 1.74-5.132 4.495 0 2.718 2.035 4.422 5.132 4.422 1.247 0 1.66.533 1.66 1.169 0 .855-.803 1.264-1.698 1.264-.918 0-1.774-.3-1.736-1.666h-3.228zm5.001-7.002c1.01 0 1.736.819 1.736 1.813 0 1.17-.818 1.724-1.736 1.724-1.01 0-1.79-.672-1.79-1.724-.007-1.177.78-1.813 1.79-1.813zm6.486 7.002c-.183 2.682 1.66 4.32 4.964 4.32 2.631 0 5.224-1.068 5.224-3.91 0-.483-.115-1.726-1.813-2.647 1.064-.73 1.66-1.812 1.675-2.916a3.17 3.17 0 0 0-.879-2.36L103 20.093l-2.47-1.688c-.299.373-.674.819-.987 1.206a5.827 5.827 0 0 0-1.905-.336c-2.853 0-5.132 1.74-5.132 4.495 0 2.718 2.035 4.422 5.132 4.422 1.247 0 1.66.533 1.66 1.169 0 .855-.803 1.264-1.698 1.264-.918 0-1.774-.3-1.736-1.666h-3.228zm5.002-7.002c1.01 0 1.737.819 1.737 1.813 0 1.17-.819 1.724-1.737 1.724-1.01 0-1.79-.672-1.79-1.724 0-1.177.78-1.813 1.79-1.813zM44.636 14.881v13.457l3.45-.008V14.881h-3.45zM40.03 14.881v13.457l3.449-.008V14.881h-3.45zM35.4 19.553v8.785l3.449-.008v-8.777h-3.45zM24 14.881v13.488l3.314-.006V14.881H24z"/><path fill="#32375E" fill-rule="evenodd" d="M24 23.942c0-2.756 2.28-4.495 5.132-4.495h.041c2.853 0 5.132 1.74 5.132 4.495 0 2.718-2.175 4.421-5.132 4.421h-.04c-2.958 0-5.133-1.703-5.133-4.421zm5.198-1.675c1.062 0 1.827.818 1.827 1.812 0 1.17-.861 1.725-1.827 1.725-1.063 0-1.884-.672-1.884-1.725 0-1.176.82-1.812 1.884-1.812z" clip-rule="evenodd"/><path fill="#3F7BDA" stroke="#3F7BDA" d="M78.138 22.54c.365 0 .598.131.746.299.156.177.247.43.246.702 0 .272-.092.526-.25.705-.148.169-.381.3-.742.3-.35 0-.577-.13-.725-.298a1.091 1.091 0 0 1-.25-.709 1.065 1.065 0 0 1 .242-.703c.144-.166.373-.297.733-.297z"/><path fill="#F0F5F9" d="M348.36 12.176a3.968 3.968 0 0 1 3.968-3.968h23.808a3.968 3.968 0 0 1 3.968 3.968v23.808a3.968 3.968 0 0 1-3.968 3.968h-23.808a3.968 3.968 0 0 1-3.968-3.968V12.175z"/><path fill="#3F7BDA" d="M363.682 23.529v-2.205h1.101v2.204h2.205v1.103h-2.205v2.204h-1.101v-2.204h-2.205v-1.102h2.205zm.551 6.062a5.51 5.51 0 0 1-5.511-5.511 5.51 5.51 0 1 1 11.021 0 5.51 5.51 0 0 1-5.51 5.51zm0-1.103a4.409 4.409 0 1 0-.001-8.817 4.409 4.409 0 0 0 .001 8.817z"/><path fill="#656A91" d="M394.853 27.08h-1.484l.009-.767h1.475c.508 0 .931-.106 1.27-.317.338-.215.592-.514.761-.899.173-.387.259-.84.259-1.357v-.435c0-.407-.049-.768-.146-1.084a2.196 2.196 0 0 0-.43-.805 1.819 1.819 0 0 0-.693-.503 2.389 2.389 0 0 0-.933-.171h-1.602v-.772h1.602c.465 0 .89.079 1.274.235.384.153.715.376.992.669.279.29.494.641.644 1.054.15.41.225.873.225 1.387v.425c0 .514-.075.978-.225 1.392a2.839 2.839 0 0 1-1.665 1.719c-.394.152-.838.229-1.333.229zm-.981-7.11v7.11h-.943v-7.11h.943zm8.598 6.207v-2.72c0-.209-.042-.39-.127-.542a.829.829 0 0 0-.371-.362 1.345 1.345 0 0 0-.615-.127c-.228 0-.428.04-.601.118a1.05 1.05 0 0 0-.4.307.677.677 0 0 0-.142.41h-.903c0-.188.049-.376.147-.561.097-.186.237-.353.419-.503a2.1 2.1 0 0 1 .665-.361c.26-.091.55-.137.869-.137.384 0 .722.065 1.015.195.296.13.528.327.694.591.169.26.254.588.254.982v2.46c0 .176.014.363.043.562.033.198.08.37.142.513v.078h-.942a1.664 1.664 0 0 1-.108-.415 3.351 3.351 0 0 1-.039-.488zm.156-2.3.01.634h-.913c-.257 0-.487.022-.688.064-.202.039-.371.1-.508.18a.86.86 0 0 0-.313.308.821.821 0 0 0-.107.425c0 .166.037.317.112.454a.817.817 0 0 0 .337.327c.153.078.34.117.562.117.276 0 .521-.058.732-.175.212-.118.379-.26.503-.43a.926.926 0 0 0 .205-.493l.386.434a1.317 1.317 0 0 1-.186.454 2.18 2.18 0 0 1-1.001.855 1.94 1.94 0 0 1-.771.146c-.358 0-.672-.07-.943-.21a1.62 1.62 0 0 1-.625-.561 1.49 1.49 0 0 1-.219-.796c0-.283.055-.532.166-.747.11-.218.27-.399.478-.542.209-.147.459-.257.752-.332.293-.075.62-.112.982-.112h1.049zm5.245 1.801c0-.13-.03-.25-.088-.36-.056-.115-.171-.217-.347-.309-.172-.094-.433-.175-.781-.244a6.204 6.204 0 0 1-.796-.22 2.424 2.424 0 0 1-.601-.307 1.302 1.302 0 0 1-.376-.425 1.183 1.183 0 0 1-.132-.571c0-.209.046-.405.137-.59.095-.187.226-.35.396-.494.172-.143.379-.256.62-.337.241-.081.509-.122.805-.122.424 0 .785.075 1.084.224.3.15.529.35.689.601.159.247.239.523.239.825h-.903a.774.774 0 0 0-.132-.425.976.976 0 0 0-.376-.346 1.216 1.216 0 0 0-.601-.137c-.25 0-.454.04-.61.117a.786.786 0 0 0-.337.288.728.728 0 0 0-.053.635.57.57 0 0 0 .185.21c.088.062.212.12.371.176.16.055.363.11.611.166.432.098.789.215 1.069.351.28.137.488.305.625.503.137.199.205.44.205.723a1.396 1.396 0 0 1-.562 1.133 2.055 2.055 0 0 1-.644.322 2.883 2.883 0 0 1-.835.112c-.466 0-.859-.083-1.182-.249a1.828 1.828 0 0 1-.732-.644 1.542 1.542 0 0 1-.249-.835h.908c.013.247.085.444.215.59.13.144.29.246.478.308.189.059.376.088.562.088.247 0 .454-.032.62-.097a.866.866 0 0 0 .386-.269.622.622 0 0 0 .132-.39zm2.993-6.098v7.5h-.904v-7.5h.904zm-.215 4.658-.376-.015c.003-.361.057-.695.161-1 .104-.31.251-.578.44-.806a1.951 1.951 0 0 1 1.547-.718c.261 0 .495.036.704.107.208.069.385.18.532.332.149.153.263.352.342.596.078.241.117.536.117.884v3.462h-.908v-3.472c0-.277-.041-.498-.123-.664a.75.75 0 0 0-.356-.366 1.278 1.278 0 0 0-.576-.117c-.225 0-.43.047-.615.141a1.46 1.46 0 0 0-.474.39 1.974 1.974 0 0 0-.415 1.246zm4.814-4.658h.909v6.474l-.079 1.026h-.83v-7.5zm4.478 4.814v.103c0 .384-.046.74-.137 1.07a2.621 2.621 0 0 1-.4.849c-.176.24-.391.428-.645.561a1.85 1.85 0 0 1-.874.2c-.335 0-.63-.056-.884-.17a1.736 1.736 0 0 1-.634-.503 2.587 2.587 0 0 1-.415-.791 4.976 4.976 0 0 1-.21-1.045v-.45c.039-.39.109-.74.21-1.05.104-.309.242-.572.415-.79a1.67 1.67 0 0 1 .634-.503c.251-.117.542-.176.874-.176.333 0 .627.065.884.195.257.127.472.31.645.547.176.238.309.523.4.855.091.328.137.695.137 1.098zm-.908.103v-.103c0-.263-.025-.51-.074-.742a1.89 1.89 0 0 0-.234-.615 1.163 1.163 0 0 0-.425-.42 1.25 1.25 0 0 0-.649-.156c-.228 0-.427.039-.596.117a1.297 1.297 0 0 0-.425.317c-.117.13-.213.28-.288.45a2.634 2.634 0 0 0-.161.517v1.177c.052.228.137.447.254.659.121.208.28.38.479.513.201.133.45.2.747.2.244 0 .452-.049.625-.147.175-.1.317-.239.424-.415.111-.175.193-.379.245-.61.052-.231.078-.479.078-.742zm1.811 0v-.113c0-.38.056-.734.166-1.06.111-.328.27-.613.479-.854.208-.244.46-.432.757-.566.296-.137.628-.205.996-.205.371 0 .704.068 1.001.205.299.134.553.322.761.566.212.241.373.526.484.855.11.325.166.679.166 1.06v.112c0 .38-.056.734-.166 1.06-.111.325-.272.61-.484.854-.208.24-.46.43-.756.566-.293.134-.625.2-.997.2-.371 0-.704-.066-1.001-.2a2.258 2.258 0 0 1-.761-.566 2.575 2.575 0 0 1-.479-.855 3.29 3.29 0 0 1-.166-1.06zm.904-.113v.113c0 .263.03.512.092.747.062.231.155.436.279.615.127.18.284.32.473.425.189.1.409.151.659.151.248 0 .464-.05.65-.151.189-.104.345-.246.469-.425.123-.179.216-.384.278-.615.065-.235.098-.484.098-.747v-.113c0-.26-.033-.506-.098-.737a1.901 1.901 0 0 0-.283-.62 1.347 1.347 0 0 0-.469-.43 1.316 1.316 0 0 0-.654-.156c-.248 0-.466.052-.655.156a1.407 1.407 0 0 0-.468.43 1.96 1.96 0 0 0-.279.62 2.835 2.835 0 0 0-.092.738zm8.154 1.793v-2.72c0-.209-.042-.39-.127-.542a.829.829 0 0 0-.371-.362 1.345 1.345 0 0 0-.615-.127c-.228 0-.428.04-.601.118-.169.078-.303.18-.4.307a.67.67 0 0 0-.142.41h-.903c0-.188.049-.376.146-.561a1.65 1.65 0 0 1 .42-.503c.186-.153.407-.273.664-.361a2.62 2.62 0 0 1 .869-.137c.384 0 .723.065 1.016.195.296.13.527.327.693.591.17.26.254.588.254.982v2.46c0 .176.015.363.044.562.033.198.08.37.142.513v.078h-.943a1.714 1.714 0 0 1-.107-.415 3.351 3.351 0 0 1-.039-.488zm.156-2.3.01.634h-.913c-.257 0-.487.022-.689.064-.202.039-.371.1-.508.18a.812.812 0 0 0-.419.732c0 .167.037.318.112.455a.817.817 0 0 0 .337.327c.153.078.34.117.561.117.277 0 .521-.058.733-.175.211-.118.379-.26.503-.43a.926.926 0 0 0 .205-.493l.385.434a1.293 1.293 0 0 1-.185.454 2.18 2.18 0 0 1-1.001.855 1.941 1.941 0 0 1-.772.146 2.02 2.02 0 0 1-.942-.21 1.613 1.613 0 0 1-.625-.561 1.49 1.49 0 0 1-.22-.796c0-.283.056-.532.166-.747.111-.218.271-.399.479-.542.208-.147.459-.257.752-.332.293-.075.62-.112.981-.112h1.05zm3.071-1.25v4.453h-.903v-5.283h.879l.024.83zm1.651-.86-.005.84a2.29 2.29 0 0 0-.44-.039c-.208 0-.392.033-.551.098-.16.065-.295.156-.406.273-.11.117-.198.257-.263.42-.062.16-.103.335-.122.527l-.254.147c0-.32.031-.619.093-.899.065-.28.164-.527.297-.742.134-.218.303-.387.508-.508a1.43 1.43 0 0 1 .967-.16.668.668 0 0 1 .176.043zm4.067 4.287V19.58h.908v7.5h-.83l-.078-1.026zm-3.555-1.557v-.103c0-.403.049-.77.147-1.098.101-.332.242-.617.425-.855a1.875 1.875 0 0 1 1.518-.742c.332 0 .622.059.869.176.251.114.463.281.635.503.176.218.314.481.415.79.101.31.171.66.21 1.05v.45a4.622 4.622 0 0 1-.21 1.045c-.101.309-.239.572-.415.79a1.73 1.73 0 0 1-.635.503 2.1 2.1 0 0 1-.878.171c-.31 0-.593-.066-.85-.2a1.997 1.997 0 0 1-.659-.561 2.724 2.724 0 0 1-.425-.85 3.729 3.729 0 0 1-.147-1.07zm.909-.103v.103c0 .263.026.51.078.742.055.231.14.434.254.61.114.176.259.314.434.415.176.098.386.147.63.147.3 0 .545-.064.737-.19.196-.128.352-.295.469-.503a2.91 2.91 0 0 0 .274-.68v-1.176a2.596 2.596 0 0 0-.171-.518 1.607 1.607 0 0 0-.283-.449 1.228 1.228 0 0 0-.425-.317 1.377 1.377 0 0 0-.591-.117c-.247 0-.461.052-.64.156-.175.1-.32.24-.434.42-.114.176-.199.38-.254.615a3.377 3.377 0 0 0-.078.742zM470.221 24.819h.938c-.049.45-.178.851-.386 1.206a2.252 2.252 0 0 1-.884.845c-.381.205-.856.307-1.426.307-.416 0-.796-.078-1.137-.234a2.523 2.523 0 0 1-.874-.664 3.12 3.12 0 0 1-.567-1.04 4.446 4.446 0 0 1-.195-1.358v-.707c0-.498.065-.95.195-1.353.134-.407.324-.755.572-1.045.25-.29.551-.513.903-.669a2.89 2.89 0 0 1 1.186-.234c.537 0 .992.1 1.363.302.371.202.659.482.864.84.208.355.337.767.386 1.236h-.938a2.591 2.591 0 0 0-.254-.855 1.314 1.314 0 0 0-.527-.556c-.228-.13-.526-.196-.894-.196-.315 0-.594.06-.835.18-.237.121-.437.292-.6.514-.16.22-.28.486-.361.796-.082.309-.123.652-.123 1.03v.717c0 .349.036.676.108.982.075.306.187.575.337.806.15.23.34.413.571.546.231.13.505.196.82.196.401 0 .72-.064.957-.19.238-.128.417-.31.538-.547.123-.238.211-.523.263-.855zm5.318 1.04v-4.062h.908v5.283h-.864l-.044-1.22zm.17-1.113.376-.01c0 .352-.037.677-.112.977a2.099 2.099 0 0 1-.351.771 1.663 1.663 0 0 1-.64.513c-.264.12-.584.18-.962.18a2.14 2.14 0 0 1-.708-.112 1.41 1.41 0 0 1-.547-.347 1.57 1.57 0 0 1-.356-.61 2.925 2.925 0 0 1-.122-.903v-3.408h.903v3.418c0 .237.026.434.078.59a.979.979 0 0 0 .22.367c.094.087.198.15.312.185.117.036.238.054.362.054.384 0 .688-.073.913-.22.224-.15.385-.35.483-.6.101-.254.151-.536.151-.845zm5.191.932c0-.13-.029-.25-.088-.36-.055-.115-.171-.217-.347-.309-.172-.094-.433-.175-.781-.244a6.204 6.204 0 0 1-.796-.22 2.416 2.416 0 0 1-.6-.307 1.29 1.29 0 0 1-.376-.425 1.183 1.183 0 0 1-.132-.571c0-.209.045-.405.137-.59a1.58 1.58 0 0 1 .395-.494c.173-.143.379-.256.62-.337a2.51 2.51 0 0 1 .806-.122c.423 0 .784.075 1.084.224.299.15.529.35.688.601.16.247.24.523.24.825h-.904a.774.774 0 0 0-.132-.425.969.969 0 0 0-.376-.346 1.212 1.212 0 0 0-.6-.137c-.251 0-.454.04-.611.117a.777.777 0 0 0-.336.288.72.72 0 0 0-.054.635.58.58 0 0 0 .185.21c.088.062.212.12.371.176.16.055.363.11.611.166.433.098.789.215 1.069.351.28.137.488.305.625.503.137.199.205.44.205.723 0 .231-.049.443-.146.635a1.417 1.417 0 0 1-.415.498 2.06 2.06 0 0 1-.645.322 2.878 2.878 0 0 1-.835.112c-.465 0-.859-.083-1.181-.249a1.825 1.825 0 0 1-.733-.644 1.542 1.542 0 0 1-.249-.835h.908c.013.247.085.444.215.59.13.144.29.246.479.308.188.059.376.088.561.088.248 0 .454-.032.62-.097a.86.86 0 0 0 .386-.269.622.622 0 0 0 .132-.39zm4.302-3.881v.693h-2.857v-.693h2.857zm-1.89-1.285h.903v5.26c0 .178.028.313.083.405a.4.4 0 0 0 .215.18c.088.03.182.044.283.044.075 0 .153-.006.235-.02l.19-.038.005.737a2.123 2.123 0 0 1-.283.063 2.15 2.15 0 0 1-.415.034 1.41 1.41 0 0 1-.611-.131.985.985 0 0 1-.444-.44c-.107-.208-.161-.488-.161-.84v-5.254zm2.612 3.985v-.113c0-.38.056-.734.166-1.06a2.53 2.53 0 0 1 .479-.854c.208-.244.46-.432.757-.566.296-.137.628-.205.996-.205.371 0 .705.068 1.001.205.299.134.553.322.761.566.212.241.373.526.484.855.111.325.166.679.166 1.06v.112c0 .38-.055.734-.166 1.06-.111.325-.272.61-.484.854-.208.24-.46.43-.756.566-.293.134-.625.2-.996.2-.372 0-.705-.066-1.001-.2a2.252 2.252 0 0 1-.762-.566 2.592 2.592 0 0 1-.479-.855 3.29 3.29 0 0 1-.166-1.06zm.904-.113v.113c0 .263.031.512.092.747.062.231.155.436.279.615.127.18.285.32.473.425.189.1.409.151.66.151.247 0 .463-.05.649-.151.189-.104.345-.246.469-.425.123-.179.216-.384.278-.615.065-.235.098-.484.098-.747v-.113c0-.26-.033-.506-.098-.737a1.901 1.901 0 0 0-.283-.62 1.347 1.347 0 0 0-.469-.43 1.314 1.314 0 0 0-.654-.156c-.248 0-.466.052-.655.156a1.407 1.407 0 0 0-.468.43 1.96 1.96 0 0 0-.279.62 2.878 2.878 0 0 0-.092.738zm5.937-1.538v4.234h-.908v-5.283h.859l.049 1.05zm-.185 1.392-.42-.015c.003-.361.05-.695.141-1 .091-.31.227-.578.406-.806.179-.228.402-.404.668-.528.267-.127.577-.19.928-.19.248 0 .475.036.684.107.208.069.389.178.542.328.153.15.272.341.356.576.085.234.127.517.127.85v3.52h-.903v-3.477c0-.277-.047-.498-.142-.664a.809.809 0 0 0-.39-.361 1.413 1.413 0 0 0-.596-.117c-.267 0-.49.047-.669.141a1.135 1.135 0 0 0-.43.39 1.772 1.772 0 0 0-.234.572 3.168 3.168 0 0 0-.068.674zm3.422-.498-.605.186c.003-.29.05-.569.142-.835.094-.267.229-.505.405-.713.179-.209.399-.373.659-.494.26-.123.558-.185.894-.185.283 0 .533.037.752.112.221.075.406.19.556.347.153.153.269.35.347.59.078.242.117.528.117.86v3.472h-.908v-3.482c0-.296-.047-.525-.142-.688a.737.737 0 0 0-.39-.347 1.563 1.563 0 0 0-.596-.102c-.199 0-.374.034-.527.102a1.088 1.088 0 0 0-.386.283 1.234 1.234 0 0 0-.239.406 1.481 1.481 0 0 0-.079.488zm6.827 3.437c-.368 0-.702-.061-1.001-.185a2.266 2.266 0 0 1-.767-.532 2.362 2.362 0 0 1-.488-.81 2.971 2.971 0 0 1-.171-1.026v-.205c0-.43.063-.813.19-1.148.127-.338.3-.625.518-.86.218-.234.465-.411.742-.531.277-.12.563-.181.859-.181.378 0 .704.065.977.195.277.13.503.313.679.547.175.231.306.505.39.82a3.9 3.9 0 0 1 .127 1.026v.405h-3.945v-.737h3.042v-.069a2.242 2.242 0 0 0-.147-.683 1.226 1.226 0 0 0-.39-.547c-.179-.143-.423-.215-.733-.215a1.23 1.23 0 0 0-1.01.513c-.124.17-.22.376-.288.62a3.117 3.117 0 0 0-.103.845v.205c0 .25.034.486.103.708.071.218.174.41.307.576.137.166.301.296.493.39.196.095.417.142.664.142.319 0 .59-.065.811-.195a2.01 2.01 0 0 0 .581-.523l.547.435a2.528 2.528 0 0 1-.435.493 2.064 2.064 0 0 1-.649.38 2.513 2.513 0 0 1-.903.147zm4.013-4.55v4.453h-.903v-5.283h.879l.024.83zm1.651-.86-.005.84a2.29 2.29 0 0 0-.44-.039c-.208 0-.392.033-.551.098-.16.065-.295.156-.406.273-.11.117-.198.257-.263.42-.062.16-.103.335-.122.527l-.254.147c0-.32.031-.619.092-.899a2.48 2.48 0 0 1 .298-.742c.134-.218.303-.387.508-.508a1.427 1.427 0 0 1 .967-.16.668.668 0 0 1 .176.043zm3.911 3.911c0-.13-.029-.25-.088-.36-.055-.115-.171-.217-.347-.309-.172-.094-.433-.175-.781-.244a6.204 6.204 0 0 1-.796-.22 2.416 2.416 0 0 1-.6-.307 1.279 1.279 0 0 1-.376-.425 1.183 1.183 0 0 1-.132-.571c0-.209.045-.405.136-.59.095-.187.227-.35.396-.494.172-.143.379-.256.62-.337.241-.081.509-.122.806-.122.423 0 .784.075 1.084.224.299.15.529.35.688.601.16.247.239.523.239.825h-.903a.774.774 0 0 0-.132-.425.969.969 0 0 0-.376-.346 1.212 1.212 0 0 0-.6-.137c-.251 0-.454.04-.611.117a.786.786 0 0 0-.337.288.728.728 0 0 0-.053.635.58.58 0 0 0 .185.21c.088.062.212.12.371.176.16.055.363.11.611.166.433.098.789.215 1.069.351.28.137.488.305.625.503.137.199.205.44.205.723 0 .231-.049.443-.146.635a1.417 1.417 0 0 1-.415.498 2.06 2.06 0 0 1-.645.322 2.878 2.878 0 0 1-.835.112c-.465 0-.859-.083-1.182-.249a1.828 1.828 0 0 1-.732-.644 1.542 1.542 0 0 1-.249-.835h.908c.013.247.085.444.215.59.13.144.29.246.479.308.188.059.376.088.561.088.248 0 .454-.032.62-.097a.86.86 0 0 0 .386-.269.622.622 0 0 0 .132-.39zM544.403 23.3v.45a4.78 4.78 0 0 1-.2 1.435 3.088 3.088 0 0 1-.577 1.08c-.25.296-.551.522-.903.678a2.833 2.833 0 0 1-1.172.234c-.42 0-.805-.078-1.157-.234a2.602 2.602 0 0 1-.908-.679 3.16 3.16 0 0 1-.591-1.079 4.559 4.559 0 0 1-.21-1.435v-.45c0-.533.068-1.01.205-1.43a3.16 3.16 0 0 1 .591-1.08c.254-.299.555-.527.903-.683a2.823 2.823 0 0 1 1.158-.234c.432 0 .823.078 1.171.234.352.156.653.384.904.684.254.296.447.656.581 1.079.136.42.205.897.205 1.43zm-.933.45v-.46c0-.422-.044-.797-.132-1.122a2.317 2.317 0 0 0-.376-.82 1.62 1.62 0 0 0-.61-.504 1.854 1.854 0 0 0-.81-.17c-.293 0-.559.056-.796.17a1.68 1.68 0 0 0-.606.503 2.474 2.474 0 0 0-.386.82c-.091.326-.136.7-.136 1.124v.459c0 .426.045.804.136 1.133.092.325.222.6.391.825.173.221.376.389.61.503.238.114.503.17.796.17.306 0 .578-.056.816-.17a1.59 1.59 0 0 0 .6-.503c.166-.225.292-.5.376-.825.085-.33.127-.707.127-1.133zm3.111-1.123v4.453h-.904v-5.283h.879l.025.83zm1.65-.86-.005.84a2.283 2.283 0 0 0-.439-.039c-.209 0-.393.033-.552.098-.16.065-.295.156-.405.273a1.309 1.309 0 0 0-.264.42c-.062.16-.103.335-.122.527l-.254.147c0-.32.031-.619.093-.899.065-.28.164-.527.298-.742.133-.218.302-.387.507-.508a1.43 1.43 0 0 1 .967-.16.668.668 0 0 1 .176.043zm4.067 4.287V19.58h.909v7.5h-.831l-.078-1.026zm-3.554-1.557v-.103c0-.403.048-.77.146-1.098.101-.332.243-.617.425-.855a1.875 1.875 0 0 1 1.518-.742c.333 0 .622.059.87.176.25.114.462.281.634.503.176.218.315.481.415.79.101.31.171.66.21 1.05v.45a4.515 4.515 0 0 1-.21 1.045c-.1.309-.239.572-.415.79a1.736 1.736 0 0 1-.634.503c-.251.114-.544.171-.879.171-.31 0-.593-.066-.85-.2a1.997 1.997 0 0 1-.659-.561 2.746 2.746 0 0 1-.425-.85 3.729 3.729 0 0 1-.146-1.07zm.908-.103v.103c0 .263.026.51.078.742.055.231.14.434.254.61.114.176.259.314.434.415.176.098.386.147.63.147.3 0 .546-.064.738-.19a1.42 1.42 0 0 0 .468-.503c.118-.209.209-.435.274-.68v-1.176a2.596 2.596 0 0 0-.171-.518 1.607 1.607 0 0 0-.283-.449 1.228 1.228 0 0 0-.425-.317 1.377 1.377 0 0 0-.591-.117c-.247 0-.461.052-.64.156-.175.1-.32.24-.434.42-.114.176-.199.38-.254.615a3.377 3.377 0 0 0-.078.742zm7.153 2.783a2.6 2.6 0 0 1-1.001-.185 2.262 2.262 0 0 1-.766-.532 2.364 2.364 0 0 1-.489-.81 2.971 2.971 0 0 1-.171-1.026v-.205c0-.43.064-.813.191-1.148.127-.338.299-.625.517-.86.219-.234.466-.411.743-.531.276-.12.563-.181.859-.181.378 0 .703.065.977.195.276.13.502.313.678.547.176.231.306.505.391.82a3.9 3.9 0 0 1 .127 1.026v.405h-3.945v-.737h3.042v-.069a2.272 2.272 0 0 0-.147-.683 1.228 1.228 0 0 0-.391-.547c-.179-.143-.423-.215-.732-.215a1.226 1.226 0 0 0-1.011.513c-.123.17-.219.376-.288.62a3.159 3.159 0 0 0-.102.845v.205c0 .25.034.486.102.708.072.218.174.41.308.576.136.166.301.296.493.39.195.095.417.142.664.142.319 0 .589-.065.811-.195a2.01 2.01 0 0 0 .581-.523l.546.435a2.489 2.489 0 0 1-.434.493 2.07 2.07 0 0 1-.65.38 2.51 2.51 0 0 1-.903.147zm4.014-4.55v4.453h-.903v-5.283h.878l.025.83zm1.65-.86-.005.84a2.304 2.304 0 0 0-.439-.039c-.208 0-.392.033-.552.098a1.15 1.15 0 0 0-.405.273 1.309 1.309 0 0 0-.264.42c-.062.16-.102.335-.122.527l-.254.147c0-.32.031-.619.093-.899.065-.28.164-.527.298-.742.133-.218.303-.387.508-.508a1.424 1.424 0 0 1 .966-.16.657.657 0 0 1 .176.043zm3.911 3.911c0-.13-.029-.25-.088-.36-.055-.115-.17-.217-.346-.309-.173-.094-.433-.175-.781-.244a6.159 6.159 0 0 1-.796-.22 2.406 2.406 0 0 1-.601-.307 1.29 1.29 0 0 1-.376-.425 1.183 1.183 0 0 1-.132-.571c0-.209.046-.405.137-.59a1.58 1.58 0 0 1 .395-.494c.173-.143.38-.256.621-.337a2.5 2.5 0 0 1 .805-.122c.423 0 .785.075 1.084.224.3.15.529.35.689.601.159.247.239.523.239.825h-.903a.774.774 0 0 0-.132-.425.976.976 0 0 0-.376-.346 1.216 1.216 0 0 0-.601-.137c-.25 0-.454.04-.61.117a.786.786 0 0 0-.337.288.73.73 0 0 0-.054.635.583.583 0 0 0 .186.21c.088.062.211.12.371.176.159.055.363.11.61.166.433.098.79.215 1.07.351.28.137.488.305.625.503.136.199.205.44.205.723a1.406 1.406 0 0 1-.562 1.133 2.066 2.066 0 0 1-.644.322 2.883 2.883 0 0 1-.835.112c-.466 0-.86-.083-1.182-.249a1.828 1.828 0 0 1-.732-.644 1.542 1.542 0 0 1-.249-.835h.908c.013.247.084.444.215.59.13.144.289.246.478.308.189.059.376.088.562.088.247 0 .454-.032.62-.097a.866.866 0 0 0 .386-.269.627.627 0 0 0 .131-.39zM595.551 24.292h-1.899v-.767h1.899c.368 0 .666-.058.894-.176.228-.117.394-.28.498-.488.107-.208.161-.446.161-.713 0-.244-.054-.474-.161-.688a1.188 1.188 0 0 0-.498-.518c-.228-.133-.526-.2-.894-.2h-1.679v6.338h-.943v-7.11h2.622c.537 0 .991.093 1.363.279.371.185.652.442.844.771.192.326.288.698.288 1.118 0 .456-.096.845-.288 1.167a1.84 1.84 0 0 1-.844.738c-.372.166-.826.249-1.363.249zm4.453-1.665v4.453h-.903v-5.283h.879l.024.83zm1.651-.86-.005.84a2.29 2.29 0 0 0-.44-.039c-.208 0-.392.033-.551.098-.16.065-.295.156-.406.273-.11.117-.198.257-.263.42-.062.16-.103.335-.122.527l-.254.147c0-.32.031-.619.093-.899.065-.28.164-.527.297-.742.134-.218.303-.387.508-.508a1.43 1.43 0 0 1 .967-.16.668.668 0 0 1 .176.043zm.498 2.73v-.113c0-.38.055-.734.166-1.06.111-.328.27-.613.478-.854.209-.244.461-.432.757-.566.296-.137.628-.205.996-.205.371 0 .705.068 1.001.205.3.134.554.322.762.566.212.241.373.526.483.855.111.325.166.679.166 1.06v.112c0 .38-.055.734-.166 1.06-.11.325-.271.61-.483.854-.208.24-.461.43-.757.566-.293.134-.625.2-.996.2a2.41 2.41 0 0 1-1.001-.2 2.272 2.272 0 0 1-.762-.566 2.59 2.59 0 0 1-.478-.855 3.263 3.263 0 0 1-.166-1.06zm.903-.113v.113c0 .263.031.512.093.747.062.231.155.436.278.615.127.18.285.32.474.425.189.1.408.151.659.151.247 0 .464-.05.649-.151.189-.104.346-.246.469-.425.124-.179.217-.384.279-.615.065-.235.097-.484.097-.747v-.113c0-.26-.032-.506-.097-.737a1.903 1.903 0 0 0-.284-.62 1.344 1.344 0 0 0-.468-.43 1.318 1.318 0 0 0-.655-.156c-.247 0-.465.052-.654.156a1.4 1.4 0 0 0-.469.43 1.98 1.98 0 0 0-.278.62 2.835 2.835 0 0 0-.093.738zm8.369 1.67V19.58h.908v7.5h-.83l-.078-1.026zm-3.554-1.557v-.103c0-.403.048-.77.146-1.098.101-.332.243-.617.425-.855a1.875 1.875 0 0 1 1.518-.742c.332 0 .622.059.87.176.25.114.462.281.634.503.176.218.314.481.415.79.101.31.171.66.21 1.05v.45a4.515 4.515 0 0 1-.21 1.045c-.101.309-.239.572-.415.79a1.736 1.736 0 0 1-.634.503c-.251.114-.544.171-.879.171-.31 0-.593-.066-.85-.2a1.997 1.997 0 0 1-.659-.561 2.746 2.746 0 0 1-.425-.85 3.729 3.729 0 0 1-.146-1.07zm.908-.103v.103c0 .263.026.51.078.742.055.231.14.434.254.61.114.176.259.314.434.415.176.098.386.147.63.147.3 0 .546-.064.738-.19a1.42 1.42 0 0 0 .468-.503c.118-.209.209-.435.274-.68v-1.176a2.596 2.596 0 0 0-.171-.518 1.607 1.607 0 0 0-.283-.449 1.228 1.228 0 0 0-.425-.317 1.377 1.377 0 0 0-.591-.117c-.247 0-.461.052-.64.156-.175.1-.32.24-.434.42-.114.176-.199.38-.254.615a3.377 3.377 0 0 0-.078.742zm8.193 1.465v-4.062h.908v5.283h-.864l-.044-1.22zm.171-1.113.376-.01c0 .352-.037.677-.112.977a2.1 2.1 0 0 1-.352.771 1.668 1.668 0 0 1-.639.513c-.264.12-.585.18-.962.18-.258 0-.494-.037-.708-.112a1.41 1.41 0 0 1-.547-.347 1.583 1.583 0 0 1-.357-.61 2.956 2.956 0 0 1-.122-.903v-3.408h.904v3.418c0 .237.026.434.078.59a.977.977 0 0 0 .219.367.82.82 0 0 0 .313.185c.117.036.238.054.361.054.384 0 .689-.073.913-.22.225-.15.386-.35.484-.6.101-.254.151-.536.151-.845zm4.229 1.69c.214 0 .413-.045.595-.133a1.23 1.23 0 0 0 .45-.36c.117-.157.183-.335.2-.533h.859a1.61 1.61 0 0 1-.317.874 2.171 2.171 0 0 1-1.787.893c-.398 0-.744-.07-1.04-.21a2.061 2.061 0 0 1-.733-.576 2.561 2.561 0 0 1-.434-.84 3.524 3.524 0 0 1-.142-1.01v-.205c0-.355.047-.69.142-1.006.097-.32.242-.6.434-.845a2.06 2.06 0 0 1 .733-.576c.296-.14.642-.21 1.04-.21.413 0 .774.084 1.084.254.309.166.551.394.727.683.179.287.277.612.293.977h-.859a1.303 1.303 0 0 0-.186-.59 1.152 1.152 0 0 0-.43-.42 1.2 1.2 0 0 0-.629-.162c-.277 0-.51.055-.699.166a1.229 1.229 0 0 0-.444.44 2.04 2.04 0 0 0-.234.61 3.327 3.327 0 0 0-.069.679v.205c0 .23.023.459.069.683.045.225.122.428.229.61.111.183.259.33.444.44.189.107.424.161.704.161zm5.332-4.64v.694h-2.857v-.693h2.857zm-1.89-1.284h.903v5.26c0 .178.028.313.083.405a.4.4 0 0 0 .215.18c.088.03.182.044.283.044.075 0 .153-.006.235-.02l.19-.038.005.737a2.123 2.123 0 0 1-.283.063 2.15 2.15 0 0 1-.415.034 1.41 1.41 0 0 1-.611-.131.985.985 0 0 1-.444-.44c-.107-.208-.161-.488-.161-.84v-5.254zm6.025 5.166c0-.13-.029-.25-.088-.36-.055-.115-.17-.217-.346-.309-.173-.094-.433-.175-.781-.244a6.159 6.159 0 0 1-.796-.22 2.406 2.406 0 0 1-.601-.307 1.29 1.29 0 0 1-.376-.425 1.183 1.183 0 0 1-.132-.571c0-.209.046-.405.137-.59a1.58 1.58 0 0 1 .395-.494c.173-.143.38-.256.621-.337a2.5 2.5 0 0 1 .805-.122c.423 0 .785.075 1.084.224.3.15.529.35.689.601.159.247.239.523.239.825h-.903a.774.774 0 0 0-.132-.425.976.976 0 0 0-.376-.346 1.216 1.216 0 0 0-.601-.137c-.25 0-.454.04-.61.117a.786.786 0 0 0-.337.288.73.73 0 0 0-.054.635.583.583 0 0 0 .186.21c.088.062.211.12.371.176.159.055.363.11.61.166.433.098.79.215 1.07.351.28.137.488.305.625.503.136.199.205.44.205.723a1.406 1.406 0 0 1-.562 1.133 2.066 2.066 0 0 1-.644.322 2.883 2.883 0 0 1-.835.112c-.466 0-.86-.083-1.182-.249a1.828 1.828 0 0 1-.732-.644 1.542 1.542 0 0 1-.249-.835h.908c.013.247.084.444.215.59.13.144.289.246.478.308.189.059.376.088.562.088.247 0 .454-.032.62-.097a.866.866 0 0 0 .386-.269.627.627 0 0 0 .131-.39zM660.551 24.292h-1.899v-.767h1.899c.368 0 .666-.058.894-.176.228-.117.394-.28.498-.488.107-.208.161-.446.161-.713 0-.244-.054-.474-.161-.688a1.188 1.188 0 0 0-.498-.518c-.228-.133-.526-.2-.894-.2h-1.679v6.338h-.943v-7.11h2.622c.537 0 .991.093 1.363.279.371.185.652.442.844.771.192.326.288.698.288 1.118 0 .456-.096.845-.288 1.167a1.84 1.84 0 0 1-.844.738c-.372.166-.826.249-1.363.249zm6.607 1.884v-2.72a1.11 1.11 0 0 0-.127-.541.834.834 0 0 0-.371-.362 1.346 1.346 0 0 0-.616-.127c-.227 0-.428.04-.6.118-.169.078-.303.18-.401.307a.676.676 0 0 0-.141.41h-.903c0-.188.048-.376.146-.561a1.65 1.65 0 0 1 .42-.503c.185-.153.407-.273.664-.361.26-.091.55-.137.869-.137.384 0 .723.065 1.016.195.296.13.527.327.693.591.169.26.254.588.254.982v2.46c0 .176.015.363.044.562.033.198.08.37.142.513v.078h-.943a1.714 1.714 0 0 1-.107-.415 3.351 3.351 0 0 1-.039-.488zm.156-2.3.01.635h-.913c-.258 0-.487.022-.689.064-.202.039-.371.1-.508.18a.812.812 0 0 0-.42.732c0 .167.038.318.113.455a.817.817 0 0 0 .337.327c.153.078.34.117.561.117.277 0 .521-.058.733-.175.211-.118.379-.26.503-.43a.934.934 0 0 0 .205-.493l.385.434a1.293 1.293 0 0 1-.185.454 2.18 2.18 0 0 1-1.001.855 1.941 1.941 0 0 1-.772.146 2.02 2.02 0 0 1-.942-.21 1.613 1.613 0 0 1-.625-.561 1.482 1.482 0 0 1-.22-.796c0-.283.056-.532.166-.747a1.44 1.44 0 0 1 .479-.542c.208-.147.459-.257.752-.332.293-.075.62-.112.981-.112h1.05zm3.574 2.657 1.47-4.736h.967l-2.119 6.098a3.3 3.3 0 0 1-.196.42 2.026 2.026 0 0 1-.302.435 1.445 1.445 0 0 1-.45.332 1.35 1.35 0 0 1-.62.132 2.679 2.679 0 0 1-.508-.078l-.005-.733c.027.003.067.007.123.01a1.45 1.45 0 0 0 .644-.073.787.787 0 0 0 .361-.269c.101-.124.188-.295.259-.513l.376-1.025zm-1.079-4.736 1.372 4.101.235.952-.65.332-1.943-5.385h.986zm5.23 1.05v4.233h-.909v-5.283h.86l.049 1.05zm-.186 1.391-.42-.015c.003-.361.051-.695.142-1 .091-.31.226-.578.405-.806a1.8 1.8 0 0 1 .669-.528c.267-.127.576-.19.928-.19.247 0 .475.036.683.107.209.069.389.178.542.328.153.15.272.341.357.576.084.234.127.517.127.85v3.52h-.904v-3.477c0-.277-.047-.498-.141-.664a.81.81 0 0 0-.391-.361 1.41 1.41 0 0 0-.596-.117c-.267 0-.49.047-.669.141a1.125 1.125 0 0 0-.429.39 1.751 1.751 0 0 0-.235.572 3.234 3.234 0 0 0-.068.674zm3.423-.498-.606.186c.004-.29.051-.569.142-.835.094-.267.23-.505.405-.713.179-.209.399-.373.659-.494.261-.123.559-.185.894-.185.283 0 .534.037.752.112.221.075.407.19.557.347.153.153.268.35.346.59.078.242.117.528.117.86v3.472h-.908v-3.482c0-.296-.047-.525-.141-.688a.739.739 0 0 0-.391-.347 1.563 1.563 0 0 0-.596-.102 1.28 1.28 0 0 0-.527.102 1.088 1.088 0 0 0-.386.283 1.234 1.234 0 0 0-.239.406 1.507 1.507 0 0 0-.078.488zm6.826 3.437a2.6 2.6 0 0 1-1.001-.185 2.276 2.276 0 0 1-.767-.532 2.378 2.378 0 0 1-.488-.81 2.971 2.971 0 0 1-.171-1.026v-.205c0-.43.064-.813.191-1.148.127-.338.299-.625.517-.86.218-.234.466-.411.742-.531.277-.12.564-.181.86-.181.377 0 .703.065.976.195.277.13.503.313.679.547.176.231.306.505.391.82.084.313.127.655.127 1.026v.405h-3.946v-.737h3.042v-.069a2.241 2.241 0 0 0-.146-.683 1.228 1.228 0 0 0-.391-.547c-.179-.143-.423-.215-.732-.215a1.234 1.234 0 0 0-1.011.513c-.124.17-.22.376-.288.62a3.157 3.157 0 0 0-.103.845v.205c0 .25.035.486.103.708.072.218.174.41.308.576.136.166.301.296.493.39.195.095.416.142.664.142.319 0 .589-.065.81-.195.222-.13.415-.305.581-.523l.547.435a2.521 2.521 0 0 1-.434.493 2.07 2.07 0 0 1-.65.38 2.513 2.513 0 0 1-.903.147zm4.014-4.253v4.156h-.904v-5.283h.855l.049 1.127zm-.215 1.314-.376-.015c.003-.361.057-.695.161-1a2.51 2.51 0 0 1 .439-.806 1.964 1.964 0 0 1 1.548-.718c.261 0 .495.036.703.107.209.069.386.18.533.332.149.153.263.352.341.596.079.241.118.536.118.884v3.462h-.909v-3.472c0-.277-.04-.498-.122-.664a.75.75 0 0 0-.356-.366 1.278 1.278 0 0 0-.576-.117c-.225 0-.43.047-.615.141a1.46 1.46 0 0 0-.474.39 1.974 1.974 0 0 0-.415 1.246zm7.051-2.441v.693h-2.857v-.693h2.857zm-1.89-1.285h.903v5.26c0 .178.028.313.083.405a.4.4 0 0 0 .215.18c.088.03.182.044.283.044.075 0 .153-.006.235-.02l.19-.038.005.737a2.123 2.123 0 0 1-.283.063 2.15 2.15 0 0 1-.415.034 1.41 1.41 0 0 1-.611-.131.985.985 0 0 1-.444-.44c-.107-.208-.161-.488-.161-.84v-5.254zm6.025 5.166c0-.13-.029-.25-.087-.36-.056-.115-.171-.217-.347-.309-.173-.094-.433-.175-.781-.244a6.159 6.159 0 0 1-.796-.22 2.406 2.406 0 0 1-.601-.307 1.29 1.29 0 0 1-.376-.425 1.183 1.183 0 0 1-.132-.571c0-.209.046-.405.137-.59a1.57 1.57 0 0 1 .396-.494c.172-.143.379-.256.62-.337.241-.081.509-.122.805-.122.423 0 .785.075 1.084.224.3.15.529.35.689.601.159.247.239.523.239.825h-.903a.774.774 0 0 0-.132-.425.976.976 0 0 0-.376-.346 1.216 1.216 0 0 0-.601-.137c-.25 0-.454.04-.61.117a.786.786 0 0 0-.337.288.73.73 0 0 0-.054.635.583.583 0 0 0 .186.21c.088.062.211.12.371.176.159.055.363.11.61.166.433.098.79.215 1.07.351.28.137.488.305.625.503.136.199.205.44.205.723a1.406 1.406 0 0 1-.562 1.133 2.066 2.066 0 0 1-.644.322 2.883 2.883 0 0 1-.835.112c-.466 0-.86-.083-1.182-.249a1.828 1.828 0 0 1-.732-.644 1.542 1.542 0 0 1-.249-.835h.908c.013.247.084.444.215.59.13.144.289.246.478.308.189.059.376.088.562.088.247 0 .454-.032.62-.097a.866.866 0 0 0 .386-.269.627.627 0 0 0 .131-.39z"/><path fill="#8C8FAC" d="M727.208 28.185h7.711v-3.84c0-2.14-1.726-3.875-3.855-3.875-2.13 0-3.856 1.735-3.856 3.875v3.84zm3.856-8.817c2.738 0 4.96 2.228 4.96 4.977v4.943h-9.92v-4.943c0-2.75 2.222-4.977 4.96-4.977zm-1.376 10.47h2.751a1.379 1.379 0 0 1-1.375 1.378 1.38 1.38 0 0 1-1.376-1.378z"/><path fill="#E7428C" d="M731.064 21.572a3.307 3.307 0 1 1 6.614.001 3.307 3.307 0 0 1-6.614 0z"/><path fill="#fff" d="M734.371 23.556a1.983 1.983 0 0 1-1.984-1.984h-2.646c0 2.557 2.07 4.63 4.63 4.63v-2.646zm1.983-1.984a1.982 1.982 0 0 1-1.983 1.984v2.645A4.628 4.628 0 0 0 739 21.572h-2.646zm-1.983-1.984c1.097 0 1.983.888 1.983 1.984H739c0-2.557-2.07-4.63-4.629-4.63v2.646zm0-2.645a4.628 4.628 0 0 0-4.63 4.629h2.646c0-1.096.886-1.984 1.984-1.984v-2.645z"/><path fill="#656A91" d="m806.156 17.86 1.129-3.968h.547l-.316 1.543-1.215 4.145h-.543l.398-1.72zm-1.168-3.968.899 3.89.269 1.798h-.539l-1.379-5.688h.75zm4.305 3.887.879-3.887h.754l-1.375 5.688h-.539l.281-1.801zm-1.379-3.887 1.098 3.969.398 1.719h-.543l-1.172-4.145-.32-1.543h.539zm3.422 3.621v-.09c0-.304.044-.587.133-.847a2 2 0 0 1 .383-.684 1.7 1.7 0 0 1 .605-.453 1.88 1.88 0 0 1 .797-.164c.297 0 .564.055.801.164.239.107.442.258.609.453.169.193.298.42.387.684.088.26.133.543.133.847v.09c0 .305-.045.587-.133.848a2.04 2.04 0 0 1-.387.683 1.774 1.774 0 0 1-.605.454c-.235.106-.5.16-.797.16a1.93 1.93 0 0 1-.801-.16c-.237-.11-.44-.26-.609-.454a2.049 2.049 0 0 1-.383-.683 2.605 2.605 0 0 1-.133-.848zm.723-.09v.09c0 .211.024.41.074.598.049.185.124.349.222.492.102.143.228.256.379.34.151.08.327.121.528.121.198 0 .371-.04.519-.121.151-.084.276-.197.375-.34.099-.143.173-.307.223-.492.052-.188.078-.387.078-.598v-.09a2.17 2.17 0 0 0-.078-.59 1.521 1.521 0 0 0-.227-.496 1.05 1.05 0 0 0-.898-.469 1.07 1.07 0 0 0-.524.126 1.132 1.132 0 0 0-.375.343 1.578 1.578 0 0 0-.222.497c-.05.184-.074.381-.074.59zm4.753-1.168v3.325h-.722v-4.227h.683l.039.902zm-.171 1.051-.301-.012c.002-.289.045-.556.129-.8.083-.248.2-.463.351-.645a1.57 1.57 0 0 1 1.239-.574c.208 0 .395.028.562.086.167.054.309.143.426.265.12.123.211.282.273.477.063.193.094.428.094.707v2.77h-.726v-2.778c0-.221-.033-.398-.098-.531a.6.6 0 0 0-.285-.293 1.025 1.025 0 0 0-.461-.094c-.18 0-.344.038-.492.114-.146.075-.273.18-.379.312a1.531 1.531 0 0 0-.246.457c-.058.17-.086.349-.086.54zm4.597-3.726v6h-.726v-6h.726zm2.582 1.773-1.843 1.973-1.032 1.07-.058-.77.738-.882 1.313-1.391h.882zm-.66 4.227-1.508-2.016.375-.645 1.985 2.66h-.852zm3.899-.723V16.68a.879.879 0 0 0-.102-.433.664.664 0 0 0-.297-.29 1.077 1.077 0 0 0-.492-.101c-.182 0-.342.031-.48.094a.833.833 0 0 0-.321.246.542.542 0 0 0-.113.328h-.723c0-.151.039-.3.117-.45.079-.148.191-.282.336-.402.149-.122.326-.218.532-.289.208-.073.44-.11.695-.11.307 0 .578.053.812.157.237.104.422.262.555.473.136.208.203.47.203.785v1.969c0 .14.012.29.035.449.026.159.064.296.114.41v.063h-.754a1.333 1.333 0 0 1-.086-.332 2.654 2.654 0 0 1-.031-.391zm.125-1.84.007.508h-.73a2.7 2.7 0 0 0-.551.05c-.161.032-.297.08-.406.145a.655.655 0 0 0-.336.586c0 .133.03.254.09.363.06.11.15.197.269.262a.982.982 0 0 0 .45.094 1.216 1.216 0 0 0 .988-.484.746.746 0 0 0 .164-.395l.309.348c-.019.109-.068.23-.149.363a1.753 1.753 0 0 1-.801.684 1.55 1.55 0 0 1-.617.117c-.286 0-.538-.056-.754-.168a1.294 1.294 0 0 1-.5-.45 1.19 1.19 0 0 1-.176-.636c0-.227.045-.426.133-.598.089-.174.216-.319.383-.433.167-.118.367-.206.602-.266.234-.06.496-.09.785-.09h.84zm4.636-3.125v5.688h-.754v-5.688h.754zm1.985 2.363v3.325h-.723v-4.227h.684l.039.902zm-.172 1.051-.301-.012c.003-.289.046-.556.129-.8.083-.248.2-.463.351-.645a1.573 1.573 0 0 1 1.239-.574c.208 0 .396.028.562.086.167.054.309.143.426.265.12.123.211.282.273.477.063.193.094.428.094.707v2.77h-.726v-2.778c0-.221-.033-.398-.098-.531a.6.6 0 0 0-.285-.293 1.025 1.025 0 0 0-.461-.094c-.18 0-.344.038-.492.114-.146.075-.272.18-.379.312a1.578 1.578 0 0 0-.332.996zm6.535 1.453v-5.18h.727v6h-.665l-.062-.82zm-2.844-1.246v-.082c0-.323.039-.616.117-.879a2.13 2.13 0 0 1 .34-.683 1.494 1.494 0 0 1 1.215-.594c.266 0 .497.047.695.14.201.092.37.226.508.403.141.174.252.385.332.633.081.247.137.527.168.84v.359a3.61 3.61 0 0 1-.168.836c-.08.247-.191.458-.332.633a1.387 1.387 0 0 1-.508.402c-.2.091-.434.137-.703.137a1.45 1.45 0 0 1-.679-.16 1.604 1.604 0 0 1-.528-.45 2.191 2.191 0 0 1-.34-.68 2.998 2.998 0 0 1-.117-.855zm.727-.082v.082c0 .211.021.409.062.594.045.185.112.348.203.488.092.14.207.252.348.332.141.078.309.117.504.117.24 0 .436-.05.59-.152a1.14 1.14 0 0 0 .375-.402c.094-.167.166-.348.219-.543v-.942a2.128 2.128 0 0 0-.137-.414 1.265 1.265 0 0 0-.227-.36.974.974 0 0 0-.34-.253 1.096 1.096 0 0 0-.472-.094 1 1 0 0 0-.512.125c-.141.081-.256.193-.348.336-.091.14-.158.305-.203.492a2.738 2.738 0 0 0-.062.594zm6.554 1.172v-3.25h.727v4.227h-.691l-.036-.977zm.137-.89.301-.008c0 .28-.03.541-.09.78a1.676 1.676 0 0 1-.281.618 1.33 1.33 0 0 1-.512.41 1.844 1.844 0 0 1-.769.145c-.206 0-.395-.03-.567-.09a1.13 1.13 0 0 1-.437-.277 1.246 1.246 0 0 1-.285-.489 2.327 2.327 0 0 1-.098-.722v-2.727h.723v2.734c0 .19.02.348.062.473a.78.78 0 0 0 .176.293.65.65 0 0 0 .25.148c.094.03.19.043.289.043.307 0 .551-.058.73-.175a1 1 0 0 0 .387-.48 1.81 1.81 0 0 0 .121-.677zm4.153.745c0-.104-.024-.2-.071-.289-.044-.09-.136-.173-.277-.246-.138-.075-.346-.14-.625-.195a4.957 4.957 0 0 1-.637-.176 1.941 1.941 0 0 1-.48-.246 1.021 1.021 0 0 1-.301-.34.951.951 0 0 1-.106-.457c0-.166.037-.324.11-.472.075-.149.181-.28.316-.395.138-.114.304-.204.496-.27a2.01 2.01 0 0 1 .645-.097c.338 0 .627.06.867.18s.423.28.551.48c.127.198.191.418.191.66h-.722a.623.623 0 0 0-.106-.34.78.78 0 0 0-.301-.277.97.97 0 0 0-.48-.11c-.201 0-.363.032-.488.094a.623.623 0 0 0-.27.23.577.577 0 0 0-.043.509.47.47 0 0 0 .148.168c.071.05.17.096.297.14.128.044.291.089.489.133.346.078.631.172.855.281.224.11.391.244.5.403a.997.997 0 0 1 .164.578 1.13 1.13 0 0 1-.449.906c-.143.11-.315.195-.516.258a2.3 2.3 0 0 1-.668.09c-.372 0-.687-.067-.945-.2a1.462 1.462 0 0 1-.586-.515 1.232 1.232 0 0 1-.199-.668h.726a.752.752 0 0 0 .172.473.883.883 0 0 0 .383.246c.151.047.301.07.449.07.198 0 .364-.026.496-.078a.687.687 0 0 0 .309-.215.5.5 0 0 0 .106-.313zm3.441-3.105v.555h-2.285v-.555h2.285zm-1.512-1.027h.723v4.207c0 .143.022.251.066.324a.321.321 0 0 0 .172.145c.07.023.146.035.227.035.06 0 .122-.006.187-.016a4.35 4.35 0 0 0 .153-.031l.003.59a1.674 1.674 0 0 1-.226.05 1.726 1.726 0 0 1-.332.028c-.177 0-.34-.035-.488-.106a.786.786 0 0 1-.356-.351c-.086-.167-.129-.39-.129-.672v-4.203zm3.082 1.691v3.563h-.722v-4.227h.703l.019.664zm1.321-.687-.004.671a1.83 1.83 0 0 0-.352-.031c-.167 0-.314.026-.441.078a.918.918 0 0 0-.325.22 1.058 1.058 0 0 0-.21.335 1.57 1.57 0 0 0-.098.422l-.203.117c0-.255.024-.495.074-.719.052-.224.131-.421.238-.593.107-.175.242-.31.406-.407a1.145 1.145 0 0 1 .915-.093zm1.453.023v4.227h-.727v-4.227h.727zm-.782-1.121c0-.117.036-.216.106-.297.073-.08.18-.121.32-.121.138 0 .244.04.317.121a.42.42 0 0 1 .113.297.41.41 0 0 1-.113.289c-.073.078-.179.117-.317.117-.14 0-.247-.039-.32-.117a.427.427 0 0 1-.106-.29zm3.696 5.426a2.08 2.08 0 0 1-.801-.149 1.816 1.816 0 0 1-.613-.425c-.17-.183-.3-.399-.391-.649a2.382 2.382 0 0 1-.137-.82v-.164c0-.344.051-.65.153-.918.101-.271.239-.5.414-.688a1.77 1.77 0 0 1 .593-.426 1.71 1.71 0 0 1 .688-.144c.302 0 .562.052.781.156.222.104.403.25.543.438.141.184.245.403.313.656.067.25.101.523.101.82v.324h-3.156v-.59h2.434v-.054a1.813 1.813 0 0 0-.118-.547.983.983 0 0 0-.312-.438c-.143-.114-.339-.171-.586-.171a.983.983 0 0 0-.809.41 1.54 1.54 0 0 0-.23.496c-.055.195-.082.42-.082.676v.164c0 .2.027.39.082.566.057.175.139.328.246.461.109.133.241.237.395.313.156.075.333.113.531.113.255 0 .471-.052.648-.156a1.61 1.61 0 0 0 .465-.418l.438.347a2.04 2.04 0 0 1-.348.395 1.662 1.662 0 0 1-.52.305 2.008 2.008 0 0 1-.722.117zm4.949-1.2c0-.104-.023-.2-.07-.289-.045-.09-.137-.173-.278-.246-.138-.075-.346-.14-.625-.195a4.94 4.94 0 0 1-.636-.176 1.931 1.931 0 0 1-.481-.246c-.13-.096-.23-.21-.301-.34a.95.95 0 0 1-.105-.457c0-.166.036-.324.109-.472.076-.149.181-.28.317-.395.138-.114.303-.204.496-.27.192-.065.407-.097.644-.097.339 0 .628.06.867.18.24.12.424.28.551.48.128.198.192.418.192.66h-.723a.622.622 0 0 0-.105-.34.78.78 0 0 0-.301-.277.973.973 0 0 0-.481-.11c-.2 0-.363.032-.488.094a.635.635 0 0 0-.27.23.587.587 0 0 0-.043.509c.029.06.079.116.149.168.07.05.169.096.297.14.127.044.29.089.488.133.346.078.632.172.856.281.224.11.39.244.5.403a.997.997 0 0 1 .164.578 1.119 1.119 0 0 1-.45.906c-.143.11-.315.195-.515.258-.198.06-.421.09-.668.09-.373 0-.688-.067-.945-.2a1.456 1.456 0 0 1-.586-.515 1.233 1.233 0 0 1-.2-.668h.727c.01.198.068.355.172.473a.878.878 0 0 0 .383.246c.151.047.3.07.449.07.198 0 .363-.026.496-.078a.698.698 0 0 0 .309-.215.5.5 0 0 0 .105-.313z"/><path fill="#32375E" d="M806.452 25.47v7.11h-.928v-7.11h.928zm2.285 0v.772h-5.493v-.772h5.493zm.191 4.527v-.113c0-.38.055-.734.166-1.06.11-.328.27-.613.478-.854.209-.244.461-.433.757-.566.296-.137.628-.205.996-.205.371 0 .705.068 1.001.205.3.133.554.322.762.566.211.241.373.526.483.855.111.325.166.678.166 1.06v.112c0 .38-.055.734-.166 1.06-.11.325-.272.61-.483.854-.208.24-.461.43-.757.566-.293.134-.625.2-.996.2s-.705-.066-1.001-.2a2.273 2.273 0 0 1-.762-.566 2.573 2.573 0 0 1-.478-.855 3.264 3.264 0 0 1-.166-1.06zm.903-.113v.113c0 .263.031.512.093.747.062.23.154.436.278.615.127.179.285.32.474.425.189.1.408.151.659.151.247 0 .464-.05.649-.151.189-.104.345-.246.469-.425a1.94 1.94 0 0 0 .278-.615c.066-.235.098-.484.098-.747v-.113c0-.26-.032-.506-.098-.737a1.88 1.88 0 0 0-.283-.62 1.311 1.311 0 0 0-1.123-.586c-.247 0-.465.052-.654.156a1.401 1.401 0 0 0-.469.43 1.956 1.956 0 0 0-.278.62 2.835 2.835 0 0 0-.093.737zm5.942-1.46v4.156h-.903v-5.284h.855l.048 1.128zm-.214 1.314-.376-.015c.003-.361.057-.695.161-1 .104-.31.25-.579.439-.806a1.964 1.964 0 0 1 1.548-.718c.26 0 .495.035.703.107.209.069.386.18.532.332.15.153.264.352.342.596.078.24.117.535.117.884v3.462h-.908v-3.472c0-.277-.041-.498-.122-.664a.75.75 0 0 0-.356-.366 1.286 1.286 0 0 0-.577-.118c-.224 0-.429.048-.615.142-.182.095-.34.225-.473.39a1.95 1.95 0 0 0-.308.572 2.077 2.077 0 0 0-.107.674zm5.82-2.442v5.284h-.908v-5.284h.908zm-.977-1.401c0-.146.044-.27.132-.371.091-.101.225-.151.401-.151.172 0 .304.05.395.15.094.102.142.226.142.372 0 .14-.048.26-.142.361-.091.098-.223.147-.395.147-.176 0-.31-.049-.401-.147a.531.531 0 0 1-.132-.361zm6.968 6.685h-1.484l.01-.767h1.474c.508 0 .931-.106 1.27-.317.338-.215.592-.515.761-.899.173-.387.259-.84.259-1.357v-.435c0-.407-.049-.768-.146-1.084a2.196 2.196 0 0 0-.43-.805 1.819 1.819 0 0 0-.693-.503 2.387 2.387 0 0 0-.933-.171h-1.602v-.772h1.602c.466 0 .89.078 1.274.235.385.153.715.376.992.669.28.29.494.64.644 1.054.15.41.225.873.225 1.387v.425c0 .514-.075.978-.225 1.391a2.839 2.839 0 0 1-1.665 1.719c-.394.153-.838.23-1.333.23zm-.981-7.11v7.11h-.943v-7.11h.943zm8.598 6.206v-2.72c0-.208-.042-.389-.127-.541a.829.829 0 0 0-.371-.362 1.345 1.345 0 0 0-.615-.127c-.228 0-.428.04-.601.118-.169.078-.302.18-.4.307a.677.677 0 0 0-.142.41h-.903c0-.189.049-.376.147-.561.097-.186.237-.354.42-.503.185-.153.406-.274.664-.362.26-.09.55-.136.869-.136.384 0 .722.065 1.015.195.297.13.528.327.694.59.169.261.254.588.254.982v2.461c0 .176.014.363.044.562.032.198.079.37.141.512v.079h-.942a1.665 1.665 0 0 1-.108-.415 3.353 3.353 0 0 1-.039-.489zm.157-2.3.009.635h-.913c-.257 0-.486.021-.688.064-.202.039-.371.099-.508.18a.861.861 0 0 0-.313.308.821.821 0 0 0-.107.425c0 .166.037.317.112.454a.822.822 0 0 0 .337.327c.153.078.34.117.562.117a1.523 1.523 0 0 0 1.235-.605.926.926 0 0 0 .205-.493l.386.434a1.316 1.316 0 0 1-.186.454 2.18 2.18 0 0 1-1.001.855 1.938 1.938 0 0 1-.771.146c-.358 0-.672-.07-.942-.21a1.606 1.606 0 0 1-.625-.561 1.482 1.482 0 0 1-.22-.796c0-.283.055-.532.166-.747.111-.218.27-.399.478-.542.209-.147.459-.257.752-.332.293-.075.62-.113.982-.113h1.05zm3.696 2.388 1.445-4.468h.923l-1.899 5.284h-.606l.137-.816zm-1.206-4.468 1.489 4.493.103.79h-.606l-1.914-5.283h.928zm5.425 0v5.284h-.909v-5.284h.909zm-.977-1.401c0-.146.044-.27.132-.371.091-.101.224-.151.4-.151.173 0 .305.05.396.15.094.102.141.226.141.372 0 .14-.047.26-.141.361-.091.098-.223.147-.396.147-.176 0-.309-.049-.4-.147a.531.531 0 0 1-.132-.361zm5.757 5.66V25.08h.908v7.5h-.83l-.078-1.026zm-3.555-1.558v-.103c0-.404.049-.77.147-1.099.101-.332.242-.617.424-.854a1.872 1.872 0 0 1 1.519-.742c.332 0 .622.058.869.176.251.113.462.281.635.502.176.219.314.482.415.792.101.309.171.659.21 1.05v.448a4.62 4.62 0 0 1-.21 1.045c-.101.31-.239.573-.415.791a1.738 1.738 0 0 1-.635.503c-.25.114-.543.171-.879.171-.309 0-.592-.066-.849-.2a2.012 2.012 0 0 1-.66-.561 2.744 2.744 0 0 1-.424-.85 3.729 3.729 0 0 1-.147-1.07zm.908-.103v.103c0 .263.026.51.079.742.055.23.139.434.253.61.114.176.259.314.435.415.176.098.386.147.63.147.299 0 .545-.064.737-.19.195-.128.352-.295.469-.504.117-.208.208-.434.273-.678v-1.177a2.598 2.598 0 0 0-.171-.518 1.585 1.585 0 0 0-.283-.449 1.22 1.22 0 0 0-.425-.317 1.376 1.376 0 0 0-.59-.118 1.25 1.25 0 0 0-.64.157c-.176.1-.321.24-.435.42-.114.175-.198.38-.253.615a3.315 3.315 0 0 0-.079.742zm8.037 1.284c0-.13-.029-.25-.087-.361-.056-.114-.171-.217-.347-.308-.173-.094-.433-.175-.781-.244a6.159 6.159 0 0 1-.796-.22 2.406 2.406 0 0 1-.601-.307 1.29 1.29 0 0 1-.376-.425 1.183 1.183 0 0 1-.132-.571c0-.209.046-.406.137-.591a1.57 1.57 0 0 1 .396-.493c.172-.143.379-.256.62-.337.241-.082.509-.122.805-.122.424 0 .785.075 1.084.224.3.15.529.35.689.6.159.248.239.523.239.826h-.903a.774.774 0 0 0-.132-.425.976.976 0 0 0-.376-.346 1.216 1.216 0 0 0-.601-.137c-.25 0-.454.039-.61.117a.786.786 0 0 0-.337.288.728.728 0 0 0-.054.635.584.584 0 0 0 .186.21c.088.062.212.12.371.176.16.055.363.11.61.166.433.097.79.215 1.07.351.28.137.488.305.625.503.136.199.205.44.205.723a1.396 1.396 0 0 1-.562 1.133 2.066 2.066 0 0 1-.644.322 2.883 2.883 0 0 1-.835.112c-.466 0-.86-.083-1.182-.249a1.828 1.828 0 0 1-.732-.644 1.542 1.542 0 0 1-.249-.835h.908c.013.247.085.444.215.59.13.144.289.246.478.308.189.059.376.088.562.088.247 0 .454-.032.62-.098a.866.866 0 0 0 .386-.268.62.62 0 0 0 .131-.39zm1.851-1.181v-.113c0-.38.055-.734.166-1.06.111-.328.27-.613.479-.854.208-.244.46-.433.756-.566.297-.137.629-.205.997-.205.371 0 .704.068 1.001.205.299.133.553.322.761.566.212.241.373.526.484.855.11.325.166.678.166 1.06v.112c0 .38-.056.734-.166 1.06-.111.325-.272.61-.484.854-.208.24-.46.43-.757.566-.293.134-.625.2-.996.2s-.704-.066-1.001-.2a2.26 2.26 0 0 1-.761-.566 2.575 2.575 0 0 1-.479-.855 3.264 3.264 0 0 1-.166-1.06zm.903-.113v.113c0 .263.031.512.093.747.062.23.155.436.278.615.127.179.285.32.474.425.189.1.409.151.659.151.248 0 .464-.05.65-.151.189-.104.345-.246.468-.425.124-.18.217-.384.279-.615.065-.235.097-.484.097-.747v-.113c0-.26-.032-.506-.097-.737a1.9 1.9 0 0 0-.283-.62 1.347 1.347 0 0 0-.469-.43 1.316 1.316 0 0 0-.654-.156c-.248 0-.466.052-.655.156a1.41 1.41 0 0 0-.469.43 1.978 1.978 0 0 0-.278.62 2.835 2.835 0 0 0-.093.737zm5.943-1.46v4.156h-.904v-5.284h.855l.049 1.128zm-.215 1.314-.376-.015c.003-.361.057-.695.161-1 .104-.31.251-.579.44-.806a1.95 1.95 0 0 1 1.547-.718c.261 0 .495.035.704.107.208.069.385.18.532.332.149.153.263.352.342.596.078.24.117.535.117.884v3.462h-.908v-3.472c0-.277-.041-.498-.123-.664a.75.75 0 0 0-.356-.366 1.278 1.278 0 0 0-.576-.118c-.225 0-.43.048-.615.142a1.46 1.46 0 0 0-.474.39 1.973 1.973 0 0 0-.415 1.246z"/><rect width="34" height="32" x="870" y="8.08" fill="#F0F5F9" rx="6"/><path fill="#32375E" d="M883.625 19.548v8.532h-1.113v-8.532h1.113zm2.742 0v.926h-6.592v-.926h6.592zm3.574 8.532h-1.781l.012-.92h1.769c.61 0 1.118-.127 1.524-.381a2.38 2.38 0 0 0 .914-1.078c.207-.465.31-1.008.31-1.63v-.52c0-.489-.058-.923-.175-1.301a2.638 2.638 0 0 0-.516-.967 2.183 2.183 0 0 0-.832-.604 2.858 2.858 0 0 0-1.119-.205h-1.922v-.926h1.922c.558 0 1.068.094 1.529.282a3.29 3.29 0 0 1 1.19.802c.336.348.593.77.773 1.266.18.492.27 1.047.27 1.664v.51a4.87 4.87 0 0 1-.27 1.67 3.4 3.4 0 0 1-1.998 2.063 4.392 4.392 0 0 1-1.6.275zm-1.177-8.532v8.532h-1.131v-8.532h1.131z"/></svg>