<svg width="886" height="33" viewBox="0 0 886 33" fill="none" xmlns="http://www.w3.org/2000/svg">
<path d="M0.345881 10.065V12.636H3.60622L0 17.7563V18.763H8.07681V15.982H4.47058L7.91148 11.1586V10.065H0.345881ZM9.42921 18.763V10.0577H12.8179V18.7558L9.42921 18.763ZM23.8925 18.763V13.9396C23.8925 10.8399 22.2616 9.87667 20.3537 9.85491C19.3994 9.84043 18.2646 10.1518 17.4987 11.0137L17.348 10.065H14.3581V18.763H17.6938V14.1859C17.6938 13.0416 18.4451 12.5129 19.2493 12.5129C19.8729 12.5129 20.5111 12.8822 20.5111 13.9541V18.763H23.8925ZM25.1847 19.3786C25.0042 22.0366 26.8149 23.6588 30.0607 23.6588C32.6451 23.6588 35.1919 22.6015 35.1919 19.7842C35.1919 19.3062 35.0795 18.075 33.4116 17.1625C34.4559 16.4382 35.0418 15.3664 35.057 14.2728C35.102 13.4109 34.7938 12.5708 34.1927 11.9335L35.3725 10.5937L32.9381 8.92065C32.6451 9.29001 32.2768 9.73184 31.9693 10.1157C31.3681 9.89836 30.7365 9.78977 30.0984 9.7825C27.2957 9.7825 25.0571 11.5062 25.0571 14.2365C25.0571 16.9307 27.0556 18.6182 30.0984 18.6182C31.3231 18.6182 31.7285 19.1468 31.7285 19.777C31.7285 20.6243 30.9396 21.0299 30.0607 21.0299C29.1665 21.0299 28.3174 20.733 28.3551 19.3786H25.1847ZM30.0984 12.4404C31.0897 12.4404 31.8039 13.2516 31.8039 14.2365C31.8039 15.3953 30.9998 15.9457 30.0984 15.9457C29.1064 15.9457 28.3399 15.2795 28.3399 14.2365C28.3399 13.0706 29.1064 12.4404 30.0984 12.4404ZM40.6995 19.3786C40.5189 22.0366 42.3296 23.6588 45.5754 23.6588C48.1599 23.6588 50.7073 22.6015 50.7073 19.7842C50.7073 19.3062 50.5942 18.075 48.9264 17.1625C49.9706 16.4382 50.5566 15.3664 50.5718 14.2728C50.6167 13.4109 50.3092 12.5708 49.7081 11.9335L50.8799 10.5937L48.4529 8.92065C48.1599 9.29001 47.7922 9.73184 47.484 10.1157C46.8829 9.89836 46.252 9.78977 45.6131 9.7825C42.8104 9.7825 40.5718 11.5062 40.5718 14.2365C40.5718 16.9307 42.5703 18.6182 45.6131 18.6182C46.8379 18.6182 47.2433 19.1468 47.2433 19.777C47.2433 20.6243 46.4543 21.0299 45.5754 21.0299C44.674 21.0299 43.8322 20.733 43.8699 19.3786H40.6995ZM45.6131 12.4404C46.6051 12.4404 47.3187 13.2516 47.3187 14.2365C47.3187 15.3953 46.5145 15.9457 45.6131 15.9457C44.6211 15.9457 43.8553 15.2795 43.8553 14.2365C43.8474 13.0706 44.6211 12.4404 45.6131 12.4404ZM51.9844 19.3786C51.8038 22.0366 53.6145 23.6588 56.8603 23.6588C59.4448 23.6588 61.9922 22.6015 61.9922 19.7842C61.9922 19.3062 61.8791 18.075 60.2113 17.1625C61.2555 16.4382 61.8415 15.3664 61.8567 14.2728C61.9016 13.4109 61.5941 12.5708 60.993 11.9335L62.1648 10.5937L59.7378 8.92065C59.4448 9.29001 59.0771 9.73184 58.7689 10.1157C58.1678 9.89836 57.5369 9.78977 56.898 9.7825C54.0953 9.7825 51.8567 11.5062 51.8567 14.2365C51.8567 16.9307 53.8553 18.6182 56.898 18.6182C58.1228 18.6182 58.5282 19.1468 58.5282 19.777C58.5282 20.6243 57.7392 21.0299 56.8603 21.0299C55.9589 21.0299 55.1171 20.733 55.1548 19.3786H51.9844ZM56.898 12.4404C57.89 12.4404 58.6036 13.2516 58.6036 14.2365C58.6036 15.3953 57.7994 15.9457 56.898 15.9457C55.906 15.9457 55.1402 15.2795 55.1402 14.2365C55.1402 13.0706 55.906 12.4404 56.898 12.4404Z" fill="#32375E"/>
<path d="M37.8268 12.7517C38.3168 12.7517 38.6574 12.9289 38.8783 13.1739C39.1038 13.4246 39.2235 13.7675 39.2222 14.1209C39.2215 14.4742 39.1011 14.8178 38.8736 15.0691C38.6521 15.3148 38.3122 15.4915 37.8268 15.4915C37.3532 15.4915 37.0186 15.3161 36.7991 15.0704C36.5742 14.8187 36.4532 14.4741 36.4512 14.1197C36.4492 13.7654 36.5663 13.4224 36.7891 13.1723C37.006 12.9282 37.342 12.7517 37.8268 12.7517Z" fill="#3F7BDA" stroke="#3F7BDA"/>
<path d="M373.36 4.38594C373.36 2.19449 375.137 0.417969 377.328 0.417969H401.136C403.328 0.417969 405.104 2.19449 405.104 4.38594V28.1938C405.104 30.3852 403.328 32.1617 401.136 32.1617H377.328C375.137 32.1617 373.36 30.3852 373.36 28.1938V4.38594Z" fill="#F0F5F9"/>
<path d="M388.682 15.7388V13.5344H389.784V15.7388H391.988V16.841H389.784V19.0454H388.682V16.841H386.477V15.7388H388.682ZM389.233 21.801C386.189 21.801 383.722 19.3336 383.722 16.2899C383.722 13.2461 386.189 10.7788 389.233 10.7788C392.276 10.7788 394.743 13.2461 394.743 16.2899C394.743 19.3336 392.276 21.801 389.233 21.801ZM389.233 20.6987C390.402 20.6987 391.523 20.2342 392.35 19.4074C393.177 18.5806 393.642 17.4591 393.642 16.2899C393.642 15.1206 393.177 13.9991 392.35 13.1724C391.523 12.3455 390.402 11.881 389.233 11.881C388.063 11.881 386.942 12.3455 386.115 13.1724C385.288 13.9991 384.824 15.1206 384.824 16.2899C384.824 17.4591 385.288 18.5806 386.115 19.4074C386.942 20.2342 388.063 20.6987 389.233 20.6987Z" fill="#3F7BDA"/>
<path d="M419.303 17.29H418.116L418.124 16.6768H419.303C419.71 16.6768 420.048 16.5921 420.319 16.4229C420.59 16.251 420.793 16.0114 420.928 15.7041C421.066 15.3942 421.135 15.0322 421.135 14.6182V14.2705C421.135 13.945 421.096 13.6559 421.018 13.4033C420.94 13.1481 420.825 12.9333 420.674 12.7588C420.523 12.5817 420.338 12.4476 420.12 12.3564C419.904 12.2653 419.655 12.2197 419.374 12.2197H418.092V11.6025H419.374C419.746 11.6025 420.086 11.665 420.393 11.79C420.7 11.9124 420.965 12.0908 421.186 12.3252C421.41 12.557 421.582 12.8382 421.702 13.1689C421.822 13.4971 421.881 13.8669 421.881 14.2783V14.6182C421.881 15.0296 421.822 15.4007 421.702 15.7314C421.582 16.0596 421.409 16.3395 421.182 16.5713C420.958 16.8031 420.687 16.9814 420.37 17.1064C420.055 17.2288 419.699 17.29 419.303 17.29ZM418.518 11.6025V17.29H417.764V11.6025H418.518ZM425.397 16.5674V14.3916C425.397 14.2249 425.363 14.0804 425.295 13.958C425.23 13.833 425.131 13.7367 424.999 13.6689C424.866 13.6012 424.702 13.5674 424.506 13.5674C424.324 13.5674 424.164 13.5986 424.026 13.6611C423.891 13.7236 423.784 13.8057 423.706 13.9072C423.63 14.0088 423.592 14.1182 423.592 14.2354H422.87C422.87 14.0843 422.909 13.9346 422.987 13.7861C423.065 13.6377 423.177 13.5036 423.323 13.3838C423.471 13.2614 423.648 13.165 423.854 13.0947C424.062 13.0218 424.294 12.9854 424.549 12.9854C424.857 12.9854 425.128 13.0374 425.362 13.1416C425.599 13.2458 425.784 13.4033 425.917 13.6143C426.052 13.8226 426.12 14.0843 426.12 14.3994V16.3682C426.12 16.5088 426.131 16.6585 426.155 16.8174C426.181 16.9762 426.219 17.113 426.268 17.2275V17.29H425.514C425.478 17.2067 425.449 17.096 425.428 16.958C425.407 16.8174 425.397 16.6872 425.397 16.5674ZM425.522 14.7275L425.53 15.2354H424.799C424.594 15.2354 424.41 15.2523 424.249 15.2861C424.087 15.3174 423.952 15.3656 423.842 15.4307C423.733 15.4958 423.65 15.5778 423.592 15.6768C423.535 15.7731 423.506 15.8864 423.506 16.0166C423.506 16.1494 423.536 16.2705 423.596 16.3799C423.656 16.4893 423.746 16.5765 423.866 16.6416C423.988 16.7041 424.138 16.7354 424.315 16.7354C424.536 16.7354 424.732 16.6885 424.901 16.5947C425.07 16.501 425.204 16.3864 425.303 16.251C425.405 16.1156 425.46 15.984 425.467 15.8564L425.776 16.2041C425.758 16.3135 425.708 16.4346 425.628 16.5674C425.547 16.7002 425.439 16.8278 425.303 16.9502C425.17 17.07 425.012 17.1702 424.827 17.251C424.644 17.3291 424.439 17.3682 424.21 17.3682C423.923 17.3682 423.672 17.3122 423.456 17.2002C423.242 17.0882 423.075 16.9385 422.956 16.751C422.838 16.5609 422.78 16.3486 422.78 16.1143C422.78 15.8877 422.824 15.6885 422.913 15.5166C423.001 15.3421 423.129 15.1976 423.295 15.083C423.462 14.9658 423.663 14.8773 423.897 14.8174C424.131 14.7575 424.393 14.7275 424.682 14.7275H425.522ZM429.717 16.1689C429.717 16.0648 429.694 15.9684 429.647 15.8799C429.603 15.7887 429.51 15.7067 429.37 15.6338C429.232 15.5583 429.023 15.4932 428.745 15.4385C428.51 15.389 428.298 15.3304 428.108 15.2627C427.92 15.195 427.76 15.113 427.628 15.0166C427.497 14.9202 427.397 14.807 427.327 14.6768C427.256 14.5465 427.221 14.3942 427.221 14.2197C427.221 14.0531 427.258 13.8955 427.331 13.7471C427.406 13.5986 427.512 13.4671 427.647 13.3525C427.785 13.238 427.95 13.1481 428.143 13.083C428.336 13.0179 428.551 12.9854 428.788 12.9854C429.126 12.9854 429.415 13.0452 429.655 13.165C429.894 13.2848 430.078 13.445 430.206 13.6455C430.333 13.8434 430.397 14.0635 430.397 14.3057H429.674C429.674 14.1885 429.639 14.0752 429.569 13.9658C429.501 13.8538 429.401 13.7614 429.268 13.6885C429.138 13.6156 428.978 13.5791 428.788 13.5791C428.587 13.5791 428.424 13.6104 428.299 13.6729C428.177 13.7327 428.087 13.8096 428.03 13.9033C427.975 13.9971 427.948 14.096 427.948 14.2002C427.948 14.2783 427.961 14.3486 427.987 14.4111C428.016 14.471 428.065 14.527 428.135 14.5791C428.206 14.6286 428.305 14.6755 428.432 14.7197C428.56 14.764 428.723 14.8083 428.92 14.8525C429.267 14.9307 429.552 15.0244 429.776 15.1338C430 15.2432 430.167 15.3773 430.276 15.5361C430.385 15.695 430.44 15.8877 430.44 16.1143C430.44 16.2992 430.401 16.4684 430.323 16.6221C430.247 16.7757 430.137 16.9085 429.991 17.0205C429.848 17.1299 429.676 17.2158 429.475 17.2783C429.277 17.3382 429.055 17.3682 428.807 17.3682C428.435 17.3682 428.12 17.3018 427.862 17.1689C427.604 17.0361 427.409 16.8643 427.276 16.6533C427.143 16.4424 427.077 16.2197 427.077 15.9854H427.803C427.814 16.1833 427.871 16.3408 427.975 16.458C428.079 16.5726 428.207 16.6546 428.358 16.7041C428.509 16.751 428.659 16.7744 428.807 16.7744C429.005 16.7744 429.17 16.7484 429.303 16.6963C429.439 16.6442 429.542 16.5726 429.612 16.4814C429.682 16.3903 429.717 16.2861 429.717 16.1689ZM432.112 11.29V17.29H431.389V11.29H432.112ZM431.94 15.0166L431.639 15.0049C431.642 14.7158 431.685 14.4489 431.768 14.2041C431.851 13.9567 431.969 13.7419 432.12 13.5596C432.271 13.3773 432.45 13.2367 432.659 13.1377C432.87 13.0361 433.103 12.9854 433.358 12.9854C433.566 12.9854 433.754 13.014 433.92 13.0713C434.087 13.126 434.229 13.2145 434.346 13.3369C434.466 13.4593 434.557 13.6182 434.62 13.8135C434.682 14.0062 434.713 14.2419 434.713 14.5205V17.29H433.987V14.5127C433.987 14.2913 433.954 14.1143 433.889 13.9814C433.824 13.846 433.729 13.7484 433.604 13.6885C433.479 13.626 433.325 13.5947 433.143 13.5947C432.963 13.5947 432.799 13.6325 432.651 13.708C432.505 13.7835 432.379 13.8877 432.272 14.0205C432.168 14.1533 432.086 14.3057 432.026 14.4775C431.969 14.6468 431.94 14.8265 431.94 15.0166ZM435.792 11.29H436.518V16.4697L436.456 17.29H435.792V11.29ZM439.374 15.1416V15.2236C439.374 15.5309 439.337 15.8161 439.264 16.0791C439.191 16.3395 439.085 16.5661 438.944 16.7588C438.803 16.9515 438.631 17.1012 438.428 17.208C438.225 17.3148 437.992 17.3682 437.729 17.3682C437.461 17.3682 437.225 17.3226 437.022 17.2314C436.822 17.1377 436.652 17.0036 436.514 16.8291C436.376 16.6546 436.266 16.4437 436.182 16.1963C436.101 15.9489 436.045 15.6702 436.014 15.3604V15.001C436.045 14.6885 436.101 14.4085 436.182 14.1611C436.266 13.9137 436.376 13.7028 436.514 13.5283C436.652 13.3512 436.822 13.2171 437.022 13.126C437.223 13.0322 437.456 12.9854 437.721 12.9854C437.987 12.9854 438.223 13.0374 438.428 13.1416C438.634 13.2432 438.806 13.389 438.944 13.5791C439.085 13.7692 439.191 13.9971 439.264 14.2627C439.337 14.5257 439.374 14.8187 439.374 15.1416ZM438.647 15.2236V15.1416C438.647 14.9307 438.628 14.7327 438.588 14.5479C438.549 14.3604 438.487 14.1963 438.401 14.0557C438.315 13.9124 438.202 13.8005 438.061 13.7197C437.92 13.6364 437.747 13.5947 437.542 13.5947C437.359 13.5947 437.2 13.626 437.065 13.6885C436.932 13.751 436.819 13.8356 436.725 13.9424C436.631 14.0465 436.555 14.1663 436.495 14.3018C436.437 14.4346 436.394 14.5726 436.366 14.7158V15.6572C436.407 15.8395 436.475 16.0153 436.569 16.1846C436.665 16.3512 436.793 16.488 436.952 16.5947C437.113 16.7015 437.312 16.7549 437.549 16.7549C437.745 16.7549 437.911 16.7158 438.049 16.6377C438.19 16.557 438.303 16.4463 438.389 16.3057C438.478 16.165 438.543 16.0023 438.585 15.8174C438.626 15.6325 438.647 15.4346 438.647 15.2236ZM440.096 15.2236V15.1338C440.096 14.8291 440.141 14.5465 440.229 14.2861C440.318 14.0231 440.445 13.7952 440.612 13.6025C440.779 13.4072 440.98 13.2562 441.217 13.1494C441.454 13.04 441.72 12.9854 442.014 12.9854C442.311 12.9854 442.578 13.04 442.815 13.1494C443.055 13.2562 443.258 13.4072 443.424 13.6025C443.594 13.7952 443.723 14.0231 443.811 14.2861C443.9 14.5465 443.944 14.8291 443.944 15.1338V15.2236C443.944 15.5283 443.9 15.8109 443.811 16.0713C443.723 16.3317 443.594 16.5596 443.424 16.7549C443.258 16.9476 443.056 17.0986 442.819 17.208C442.585 17.3148 442.319 17.3682 442.022 17.3682C441.725 17.3682 441.458 17.3148 441.221 17.208C440.984 17.0986 440.781 16.9476 440.612 16.7549C440.445 16.5596 440.318 16.3317 440.229 16.0713C440.141 15.8109 440.096 15.5283 440.096 15.2236ZM440.819 15.1338V15.2236C440.819 15.4346 440.844 15.6338 440.893 15.8213C440.943 16.0062 441.017 16.1702 441.116 16.3135C441.217 16.4567 441.344 16.57 441.495 16.6533C441.646 16.734 441.822 16.7744 442.022 16.7744C442.22 16.7744 442.393 16.734 442.542 16.6533C442.693 16.57 442.818 16.4567 442.917 16.3135C443.016 16.1702 443.09 16.0062 443.139 15.8213C443.191 15.6338 443.217 15.4346 443.217 15.2236V15.1338C443.217 14.9255 443.191 14.7288 443.139 14.5439C443.09 14.3564 443.014 14.1911 442.913 14.0479C442.814 13.902 442.689 13.7874 442.538 13.7041C442.389 13.6208 442.215 13.5791 442.014 13.5791C441.816 13.5791 441.642 13.6208 441.491 13.7041C441.342 13.7874 441.217 13.902 441.116 14.0479C441.017 14.1911 440.943 14.3564 440.893 14.5439C440.844 14.7288 440.819 14.9255 440.819 15.1338ZM447.342 16.5674V14.3916C447.342 14.2249 447.309 14.0804 447.241 13.958C447.176 13.833 447.077 13.7367 446.944 13.6689C446.811 13.6012 446.647 13.5674 446.452 13.5674C446.269 13.5674 446.109 13.5986 445.971 13.6611C445.836 13.7236 445.729 13.8057 445.651 13.9072C445.575 14.0088 445.538 14.1182 445.538 14.2354H444.815C444.815 14.0843 444.854 13.9346 444.932 13.7861C445.01 13.6377 445.122 13.5036 445.268 13.3838C445.417 13.2614 445.594 13.165 445.799 13.0947C446.008 13.0218 446.239 12.9854 446.495 12.9854C446.802 12.9854 447.073 13.0374 447.307 13.1416C447.544 13.2458 447.729 13.4033 447.862 13.6143C447.997 13.8226 448.065 14.0843 448.065 14.3994V16.3682C448.065 16.5088 448.077 16.6585 448.1 16.8174C448.126 16.9762 448.164 17.113 448.213 17.2275V17.29H447.46C447.423 17.2067 447.394 17.096 447.374 16.958C447.353 16.8174 447.342 16.6872 447.342 16.5674ZM447.467 14.7275L447.475 15.2354H446.745C446.539 15.2354 446.355 15.2523 446.194 15.2861C446.032 15.3174 445.897 15.3656 445.788 15.4307C445.678 15.4958 445.595 15.5778 445.538 15.6768C445.48 15.7731 445.452 15.8864 445.452 16.0166C445.452 16.1494 445.482 16.2705 445.542 16.3799C445.601 16.4893 445.691 16.5765 445.811 16.6416C445.934 16.7041 446.083 16.7354 446.26 16.7354C446.482 16.7354 446.677 16.6885 446.846 16.5947C447.016 16.501 447.15 16.3864 447.249 16.251C447.35 16.1156 447.405 15.984 447.413 15.8564L447.721 16.2041C447.703 16.3135 447.654 16.4346 447.573 16.5674C447.492 16.7002 447.384 16.8278 447.249 16.9502C447.116 17.07 446.957 17.1702 446.772 17.251C446.59 17.3291 446.384 17.3682 446.155 17.3682C445.868 17.3682 445.617 17.3122 445.401 17.2002C445.187 17.0882 445.021 16.9385 444.901 16.751C444.784 16.5609 444.725 16.3486 444.725 16.1143C444.725 15.8877 444.769 15.6885 444.858 15.5166C444.947 15.3421 445.074 15.1976 445.241 15.083C445.407 14.9658 445.608 14.8773 445.842 14.8174C446.077 14.7575 446.338 14.7275 446.628 14.7275H447.467ZM449.924 13.7275V17.29H449.202V13.0635H449.905L449.924 13.7275ZM451.245 13.04L451.241 13.7119C451.181 13.6989 451.124 13.6911 451.069 13.6885C451.017 13.6833 450.957 13.6807 450.889 13.6807C450.723 13.6807 450.575 13.7067 450.448 13.7588C450.32 13.8109 450.212 13.8838 450.124 13.9775C450.035 14.0713 449.965 14.1833 449.913 14.3135C449.863 14.4411 449.831 14.5817 449.815 14.7354L449.612 14.8525C449.612 14.5973 449.637 14.3577 449.686 14.1338C449.738 13.9098 449.818 13.7119 449.924 13.54C450.031 13.3656 450.167 13.2301 450.331 13.1338C450.497 13.0348 450.695 12.9854 450.924 12.9854C450.976 12.9854 451.036 12.9919 451.104 13.0049C451.172 13.0153 451.219 13.027 451.245 13.04ZM454.499 16.4697V11.29H455.225V17.29H454.561L454.499 16.4697ZM451.655 15.2236V15.1416C451.655 14.8187 451.694 14.5257 451.772 14.2627C451.853 13.9971 451.966 13.7692 452.112 13.5791C452.26 13.389 452.436 13.2432 452.639 13.1416C452.845 13.0374 453.074 12.9854 453.327 12.9854C453.592 12.9854 453.824 13.0322 454.022 13.126C454.223 13.2171 454.392 13.3512 454.53 13.5283C454.67 13.7028 454.781 13.9137 454.862 14.1611C454.943 14.4085 454.999 14.6885 455.03 15.001V15.3604C455.001 15.6702 454.945 15.9489 454.862 16.1963C454.781 16.4437 454.67 16.6546 454.53 16.8291C454.392 17.0036 454.223 17.1377 454.022 17.2314C453.822 17.3226 453.587 17.3682 453.319 17.3682C453.072 17.3682 452.845 17.3148 452.639 17.208C452.436 17.1012 452.26 16.9515 452.112 16.7588C451.966 16.5661 451.853 16.3395 451.772 16.0791C451.694 15.8161 451.655 15.5309 451.655 15.2236ZM452.381 15.1416V15.2236C452.381 15.4346 452.402 15.6325 452.444 15.8174C452.488 16.0023 452.556 16.165 452.647 16.3057C452.738 16.4463 452.854 16.557 452.995 16.6377C453.135 16.7158 453.303 16.7549 453.499 16.7549C453.738 16.7549 453.935 16.7041 454.088 16.6025C454.245 16.501 454.37 16.3669 454.463 16.2002C454.557 16.0335 454.63 15.8525 454.682 15.6572V14.7158C454.651 14.5726 454.605 14.4346 454.545 14.3018C454.488 14.1663 454.413 14.0465 454.319 13.9424C454.228 13.8356 454.114 13.751 453.979 13.6885C453.846 13.626 453.689 13.5947 453.506 13.5947C453.309 13.5947 453.138 13.6364 452.995 13.7197C452.854 13.8005 452.738 13.9124 452.647 14.0557C452.556 14.1963 452.488 14.3604 452.444 14.5479C452.402 14.7327 452.381 14.9307 452.381 15.1416Z" fill="#656A91"/>
<path d="M484.198 15.4814H484.948C484.909 15.8408 484.806 16.1624 484.639 16.4463C484.473 16.7301 484.237 16.9554 483.932 17.1221C483.628 17.2861 483.247 17.3682 482.792 17.3682C482.458 17.3682 482.155 17.3057 481.881 17.1807C481.611 17.0557 481.378 16.8786 481.182 16.6494C480.987 16.4176 480.836 16.1403 480.729 15.8174C480.625 15.4919 480.573 15.1299 480.573 14.7314V14.165C480.573 13.7666 480.625 13.4059 480.729 13.083C480.836 12.7575 480.988 12.4788 481.186 12.2471C481.387 12.0153 481.628 11.8369 481.909 11.7119C482.19 11.5869 482.506 11.5244 482.858 11.5244C483.288 11.5244 483.651 11.6051 483.948 11.7666C484.245 11.9281 484.475 12.152 484.639 12.4385C484.806 12.7223 484.909 13.0518 484.948 13.4268H484.198C484.161 13.1611 484.094 12.9333 483.995 12.7432C483.896 12.5505 483.755 12.402 483.573 12.2979C483.391 12.1937 483.152 12.1416 482.858 12.1416C482.605 12.1416 482.383 12.1898 482.19 12.2861C482 12.3825 481.84 12.5192 481.71 12.6963C481.582 12.8734 481.486 13.0856 481.42 13.333C481.355 13.5804 481.323 13.8551 481.323 14.1572V14.7314C481.323 15.0101 481.351 15.2718 481.409 15.5166C481.469 15.7614 481.559 15.9762 481.678 16.1611C481.798 16.346 481.95 16.4919 482.135 16.5986C482.32 16.7028 482.539 16.7549 482.792 16.7549C483.112 16.7549 483.367 16.7041 483.557 16.6025C483.747 16.501 483.891 16.3551 483.987 16.165C484.086 15.9749 484.156 15.7471 484.198 15.4814ZM488.452 16.3135V13.0635H489.178V17.29H488.487L488.452 16.3135ZM488.588 15.4229L488.889 15.415C488.889 15.6963 488.859 15.9567 488.799 16.1963C488.742 16.4333 488.648 16.639 488.518 16.8135C488.388 16.988 488.217 17.1247 488.006 17.2236C487.795 17.32 487.539 17.3682 487.237 17.3682C487.031 17.3682 486.842 17.3382 486.67 17.2783C486.501 17.2184 486.355 17.126 486.233 17.001C486.111 16.876 486.016 16.7132 485.948 16.5127C485.883 16.3122 485.85 16.0713 485.85 15.79V13.0635H486.573V15.7979C486.573 15.988 486.594 16.1455 486.635 16.2705C486.68 16.3929 486.738 16.4906 486.811 16.5635C486.887 16.6338 486.97 16.6833 487.061 16.7119C487.155 16.7406 487.251 16.7549 487.35 16.7549C487.657 16.7549 487.901 16.6963 488.081 16.5791C488.26 16.4593 488.389 16.2992 488.467 16.0986C488.548 15.8955 488.588 15.6702 488.588 15.4229ZM492.741 16.1689C492.741 16.0648 492.717 15.9684 492.67 15.8799C492.626 15.7887 492.534 15.7067 492.393 15.6338C492.255 15.5583 492.047 15.4932 491.768 15.4385C491.534 15.389 491.322 15.3304 491.131 15.2627C490.944 15.195 490.784 15.113 490.651 15.0166C490.521 14.9202 490.42 14.807 490.35 14.6768C490.28 14.5465 490.245 14.3942 490.245 14.2197C490.245 14.0531 490.281 13.8955 490.354 13.7471C490.43 13.5986 490.535 13.4671 490.67 13.3525C490.809 13.238 490.974 13.1481 491.167 13.083C491.359 13.0179 491.574 12.9854 491.811 12.9854C492.15 12.9854 492.439 13.0452 492.678 13.165C492.918 13.2848 493.101 13.445 493.229 13.6455C493.357 13.8434 493.42 14.0635 493.42 14.3057H492.698C492.698 14.1885 492.663 14.0752 492.592 13.9658C492.525 13.8538 492.424 13.7614 492.292 13.6885C492.161 13.6156 492.001 13.5791 491.811 13.5791C491.611 13.5791 491.448 13.6104 491.323 13.6729C491.2 13.7327 491.111 13.8096 491.053 13.9033C490.999 13.9971 490.971 14.096 490.971 14.2002C490.971 14.2783 490.984 14.3486 491.01 14.4111C491.039 14.471 491.088 14.527 491.159 14.5791C491.229 14.6286 491.328 14.6755 491.456 14.7197C491.583 14.764 491.746 14.8083 491.944 14.8525C492.29 14.9307 492.575 15.0244 492.799 15.1338C493.023 15.2432 493.19 15.3773 493.299 15.5361C493.409 15.695 493.463 15.8877 493.463 16.1143C493.463 16.2992 493.424 16.4684 493.346 16.6221C493.271 16.7757 493.16 16.9085 493.014 17.0205C492.871 17.1299 492.699 17.2158 492.499 17.2783C492.301 17.3382 492.078 17.3682 491.831 17.3682C491.458 17.3682 491.143 17.3018 490.885 17.1689C490.628 17.0361 490.432 16.8643 490.299 16.6533C490.167 16.4424 490.1 16.2197 490.1 15.9854H490.827C490.837 16.1833 490.894 16.3408 490.999 16.458C491.103 16.5726 491.23 16.6546 491.381 16.7041C491.532 16.751 491.682 16.7744 491.831 16.7744C492.029 16.7744 492.194 16.7484 492.327 16.6963C492.462 16.6442 492.565 16.5726 492.635 16.4814C492.706 16.3903 492.741 16.2861 492.741 16.1689ZM496.182 13.0635V13.6182H493.897V13.0635H496.182ZM494.67 12.0361H495.393V16.2432C495.393 16.3864 495.415 16.4945 495.46 16.5674C495.504 16.6403 495.561 16.6885 495.631 16.7119C495.702 16.7354 495.777 16.7471 495.858 16.7471C495.918 16.7471 495.98 16.7419 496.045 16.7314C496.113 16.7184 496.164 16.708 496.198 16.7002L496.202 17.29C496.144 17.3083 496.069 17.3252 495.975 17.3408C495.884 17.359 495.773 17.3682 495.643 17.3682C495.466 17.3682 495.303 17.333 495.155 17.2627C495.006 17.1924 494.888 17.0752 494.799 16.9111C494.713 16.7445 494.67 16.5205 494.67 16.2393V12.0361ZM496.76 15.2236V15.1338C496.76 14.8291 496.805 14.5465 496.893 14.2861C496.982 14.0231 497.109 13.7952 497.276 13.6025C497.443 13.4072 497.644 13.2562 497.881 13.1494C498.118 13.04 498.384 12.9854 498.678 12.9854C498.975 12.9854 499.242 13.04 499.479 13.1494C499.719 13.2562 499.922 13.4072 500.088 13.6025C500.258 13.7952 500.387 14.0231 500.475 14.2861C500.564 14.5465 500.608 14.8291 500.608 15.1338V15.2236C500.608 15.5283 500.564 15.8109 500.475 16.0713C500.387 16.3317 500.258 16.5596 500.088 16.7549C499.922 16.9476 499.72 17.0986 499.483 17.208C499.249 17.3148 498.983 17.3682 498.686 17.3682C498.389 17.3682 498.122 17.3148 497.885 17.208C497.648 17.0986 497.445 16.9476 497.276 16.7549C497.109 16.5596 496.982 16.3317 496.893 16.0713C496.805 15.8109 496.76 15.5283 496.76 15.2236ZM497.483 15.1338V15.2236C497.483 15.4346 497.508 15.6338 497.557 15.8213C497.607 16.0062 497.681 16.1702 497.78 16.3135C497.881 16.4567 498.008 16.57 498.159 16.6533C498.31 16.734 498.486 16.7744 498.686 16.7744C498.884 16.7744 499.057 16.734 499.206 16.6533C499.357 16.57 499.482 16.4567 499.581 16.3135C499.68 16.1702 499.754 16.0062 499.803 15.8213C499.855 15.6338 499.881 15.4346 499.881 15.2236V15.1338C499.881 14.9255 499.855 14.7288 499.803 14.5439C499.754 14.3564 499.678 14.1911 499.577 14.0479C499.478 13.902 499.353 13.7874 499.202 13.7041C499.053 13.6208 498.879 13.5791 498.678 13.5791C498.48 13.5791 498.306 13.6208 498.155 13.7041C498.006 13.7874 497.881 13.902 497.78 14.0479C497.681 14.1911 497.607 14.3564 497.557 14.5439C497.508 14.7288 497.483 14.9255 497.483 15.1338ZM502.233 13.9033V17.29H501.506V13.0635H502.194L502.233 13.9033ZM502.085 15.0166L501.749 15.0049C501.751 14.7158 501.789 14.4489 501.862 14.2041C501.935 13.9567 502.043 13.7419 502.186 13.5596C502.329 13.3773 502.508 13.2367 502.721 13.1377C502.935 13.0361 503.182 12.9854 503.463 12.9854C503.661 12.9854 503.844 13.014 504.01 13.0713C504.177 13.126 504.322 13.2132 504.444 13.333C504.566 13.4528 504.661 13.6064 504.729 13.7939C504.797 13.9814 504.831 14.208 504.831 14.4736V17.29H504.108V14.5088C504.108 14.2874 504.07 14.1104 503.995 13.9775C503.922 13.8447 503.818 13.7484 503.682 13.6885C503.547 13.626 503.388 13.5947 503.206 13.5947C502.992 13.5947 502.814 13.6325 502.67 13.708C502.527 13.7835 502.413 13.8877 502.327 14.0205C502.241 14.1533 502.178 14.3057 502.139 14.4775C502.103 14.6468 502.085 14.8265 502.085 15.0166ZM504.823 14.6182L504.338 14.7666C504.341 14.5348 504.379 14.3122 504.452 14.0986C504.527 13.8851 504.635 13.695 504.776 13.5283C504.919 13.3617 505.095 13.2301 505.303 13.1338C505.512 13.0348 505.75 12.9854 506.018 12.9854C506.245 12.9854 506.445 13.0153 506.62 13.0752C506.797 13.1351 506.945 13.2275 507.065 13.3525C507.187 13.4749 507.28 13.6325 507.342 13.8252C507.405 14.0179 507.436 14.2471 507.436 14.5127V17.29H506.71V14.5049C506.71 14.2679 506.672 14.0843 506.596 13.9541C506.523 13.8213 506.419 13.7288 506.284 13.6768C506.151 13.6221 505.992 13.5947 505.807 13.5947C505.648 13.5947 505.508 13.6221 505.385 13.6768C505.263 13.7314 505.16 13.807 505.077 13.9033C504.993 13.9971 504.93 14.1051 504.885 14.2275C504.844 14.3499 504.823 14.4801 504.823 14.6182ZM510.284 17.3682C509.989 17.3682 509.723 17.3187 509.483 17.2197C509.246 17.1182 509.042 16.9762 508.87 16.7939C508.7 16.6117 508.57 16.3955 508.479 16.1455C508.388 15.8955 508.342 15.6221 508.342 15.3252V15.1611C508.342 14.8174 508.393 14.5114 508.495 14.2432C508.596 13.9723 508.734 13.7432 508.909 13.5557C509.083 13.3682 509.281 13.2262 509.503 13.1299C509.724 13.0335 509.953 12.9854 510.19 12.9854C510.492 12.9854 510.753 13.0374 510.971 13.1416C511.193 13.2458 511.374 13.3916 511.514 13.5791C511.655 13.764 511.759 13.9827 511.827 14.2354C511.894 14.4854 511.928 14.7588 511.928 15.0557V15.3799H508.772V14.79H511.206V14.7354C511.195 14.5479 511.156 14.3656 511.088 14.1885C511.023 14.0114 510.919 13.8656 510.776 13.751C510.633 13.6364 510.437 13.5791 510.19 13.5791C510.026 13.5791 509.875 13.6143 509.737 13.6846C509.599 13.7523 509.48 13.8538 509.381 13.9893C509.282 14.1247 509.206 14.29 509.151 14.4854C509.096 14.6807 509.069 14.9059 509.069 15.1611V15.3252C509.069 15.5257 509.096 15.7145 509.151 15.8916C509.208 16.0661 509.29 16.2197 509.397 16.3525C509.506 16.4854 509.638 16.5895 509.792 16.665C509.948 16.7406 510.125 16.7783 510.323 16.7783C510.578 16.7783 510.794 16.7262 510.971 16.6221C511.148 16.5179 511.303 16.3786 511.436 16.2041L511.874 16.5518C511.782 16.6898 511.667 16.8213 511.526 16.9463C511.385 17.0713 511.212 17.1729 511.006 17.251C510.803 17.3291 510.562 17.3682 510.284 17.3682ZM513.495 13.7275V17.29H512.772V13.0635H513.475L513.495 13.7275ZM514.815 13.04L514.811 13.7119C514.751 13.6989 514.694 13.6911 514.639 13.6885C514.587 13.6833 514.527 13.6807 514.46 13.6807C514.293 13.6807 514.146 13.7067 514.018 13.7588C513.891 13.8109 513.782 13.8838 513.694 13.9775C513.605 14.0713 513.535 14.1833 513.483 14.3135C513.434 14.4411 513.401 14.5817 513.385 14.7354L513.182 14.8525C513.182 14.5973 513.207 14.3577 513.256 14.1338C513.309 13.9098 513.388 13.7119 513.495 13.54C513.601 13.3656 513.737 13.2301 513.901 13.1338C514.068 13.0348 514.266 12.9854 514.495 12.9854C514.547 12.9854 514.607 12.9919 514.674 13.0049C514.742 13.0153 514.789 13.027 514.815 13.04ZM517.944 16.1689C517.944 16.0648 517.92 15.9684 517.874 15.8799C517.829 15.7887 517.737 15.7067 517.596 15.6338C517.458 15.5583 517.25 15.4932 516.971 15.4385C516.737 15.389 516.525 15.3304 516.335 15.2627C516.147 15.195 515.987 15.113 515.854 15.0166C515.724 14.9202 515.624 14.807 515.553 14.6768C515.483 14.5465 515.448 14.3942 515.448 14.2197C515.448 14.0531 515.484 13.8955 515.557 13.7471C515.633 13.5986 515.738 13.4671 515.874 13.3525C516.012 13.238 516.177 13.1481 516.37 13.083C516.562 13.0179 516.777 12.9854 517.014 12.9854C517.353 12.9854 517.642 13.0452 517.881 13.165C518.121 13.2848 518.305 13.445 518.432 13.6455C518.56 13.8434 518.624 14.0635 518.624 14.3057H517.901C517.901 14.1885 517.866 14.0752 517.795 13.9658C517.728 13.8538 517.628 13.7614 517.495 13.6885C517.364 13.6156 517.204 13.5791 517.014 13.5791C516.814 13.5791 516.651 13.6104 516.526 13.6729C516.404 13.7327 516.314 13.8096 516.256 13.9033C516.202 13.9971 516.174 14.096 516.174 14.2002C516.174 14.2783 516.187 14.3486 516.213 14.4111C516.242 14.471 516.292 14.527 516.362 14.5791C516.432 14.6286 516.531 14.6755 516.659 14.7197C516.786 14.764 516.949 14.8083 517.147 14.8525C517.493 14.9307 517.779 15.0244 518.003 15.1338C518.226 15.2432 518.393 15.3773 518.503 15.5361C518.612 15.695 518.667 15.8877 518.667 16.1143C518.667 16.2992 518.628 16.4684 518.549 16.6221C518.474 16.7757 518.363 16.9085 518.217 17.0205C518.074 17.1299 517.902 17.2158 517.702 17.2783C517.504 17.3382 517.281 17.3682 517.034 17.3682C516.661 17.3682 516.346 17.3018 516.088 17.1689C515.831 17.0361 515.635 16.8643 515.503 16.6533C515.37 16.4424 515.303 16.2197 515.303 15.9854H516.03C516.04 16.1833 516.098 16.3408 516.202 16.458C516.306 16.5726 516.434 16.6546 516.585 16.7041C516.736 16.751 516.885 16.7744 517.034 16.7744C517.232 16.7744 517.397 16.7484 517.53 16.6963C517.665 16.6442 517.768 16.5726 517.838 16.4814C517.909 16.3903 517.944 16.2861 517.944 16.1689Z" fill="#656A91"/>
<path d="M548.143 14.2666V14.626C548.143 15.0531 548.09 15.4359 547.983 15.7744C547.876 16.113 547.723 16.4007 547.522 16.6377C547.322 16.8747 547.081 17.0557 546.799 17.1807C546.521 17.3057 546.208 17.3682 545.862 17.3682C545.526 17.3682 545.217 17.3057 544.936 17.1807C544.657 17.0557 544.415 16.8747 544.21 16.6377C544.006 16.4007 543.849 16.113 543.737 15.7744C543.625 15.4359 543.569 15.0531 543.569 14.626V14.2666C543.569 13.8395 543.624 13.458 543.733 13.1221C543.845 12.7835 544.003 12.4958 544.206 12.2588C544.409 12.0192 544.65 11.8369 544.928 11.7119C545.21 11.5869 545.518 11.5244 545.854 11.5244C546.2 11.5244 546.513 11.5869 546.792 11.7119C547.073 11.8369 547.314 12.0192 547.514 12.2588C547.717 12.4958 547.872 12.7835 547.979 13.1221C548.088 13.458 548.143 13.8395 548.143 14.2666ZM547.397 14.626V14.2588C547.397 13.9202 547.362 13.6208 547.292 13.3604C547.224 13.0999 547.124 12.8812 546.991 12.7041C546.858 12.527 546.695 12.3929 546.503 12.3018C546.312 12.2106 546.096 12.165 545.854 12.165C545.62 12.165 545.407 12.2106 545.217 12.3018C545.03 12.3929 544.868 12.527 544.733 12.7041C544.6 12.8812 544.497 13.0999 544.424 13.3604C544.351 13.6208 544.315 13.9202 544.315 14.2588V14.626C544.315 14.9671 544.351 15.2692 544.424 15.5322C544.497 15.7926 544.601 16.0127 544.737 16.1924C544.875 16.3695 545.038 16.5036 545.225 16.5947C545.415 16.6859 545.628 16.7314 545.862 16.7314C546.107 16.7314 546.324 16.6859 546.514 16.5947C546.704 16.5036 546.864 16.3695 546.995 16.1924C547.128 16.0127 547.228 15.7926 547.295 15.5322C547.363 15.2692 547.397 14.9671 547.397 14.626ZM549.885 13.7275V17.29H549.163V13.0635H549.866L549.885 13.7275ZM551.206 13.04L551.202 13.7119C551.142 13.6989 551.085 13.6911 551.03 13.6885C550.978 13.6833 550.918 13.6807 550.85 13.6807C550.683 13.6807 550.536 13.7067 550.409 13.7588C550.281 13.8109 550.173 13.8838 550.085 13.9775C549.996 14.0713 549.926 14.1833 549.874 14.3135C549.824 14.4411 549.792 14.5817 549.776 14.7354L549.573 14.8525C549.573 14.5973 549.598 14.3577 549.647 14.1338C549.699 13.9098 549.779 13.7119 549.885 13.54C549.992 13.3656 550.128 13.2301 550.292 13.1338C550.458 13.0348 550.656 12.9854 550.885 12.9854C550.937 12.9854 550.997 12.9919 551.065 13.0049C551.133 13.0153 551.18 13.027 551.206 13.04ZM554.46 16.4697V11.29H555.186V17.29H554.522L554.46 16.4697ZM551.616 15.2236V15.1416C551.616 14.8187 551.655 14.5257 551.733 14.2627C551.814 13.9971 551.927 13.7692 552.073 13.5791C552.221 13.389 552.397 13.2432 552.6 13.1416C552.806 13.0374 553.035 12.9854 553.288 12.9854C553.553 12.9854 553.785 13.0322 553.983 13.126C554.183 13.2171 554.353 13.3512 554.491 13.5283C554.631 13.7028 554.742 13.9137 554.823 14.1611C554.904 14.4085 554.96 14.6885 554.991 15.001V15.3604C554.962 15.6702 554.906 15.9489 554.823 16.1963C554.742 16.4437 554.631 16.6546 554.491 16.8291C554.353 17.0036 554.183 17.1377 553.983 17.2314C553.782 17.3226 553.548 17.3682 553.28 17.3682C553.032 17.3682 552.806 17.3148 552.6 17.208C552.397 17.1012 552.221 16.9515 552.073 16.7588C551.927 16.5661 551.814 16.3395 551.733 16.0791C551.655 15.8161 551.616 15.5309 551.616 15.2236ZM552.342 15.1416V15.2236C552.342 15.4346 552.363 15.6325 552.405 15.8174C552.449 16.0023 552.517 16.165 552.608 16.3057C552.699 16.4463 552.815 16.557 552.956 16.6377C553.096 16.7158 553.264 16.7549 553.46 16.7549C553.699 16.7549 553.896 16.7041 554.049 16.6025C554.206 16.501 554.331 16.3669 554.424 16.2002C554.518 16.0335 554.591 15.8525 554.643 15.6572V14.7158C554.612 14.5726 554.566 14.4346 554.506 14.3018C554.449 14.1663 554.374 14.0465 554.28 13.9424C554.189 13.8356 554.075 13.751 553.94 13.6885C553.807 13.626 553.65 13.5947 553.467 13.5947C553.269 13.5947 553.099 13.6364 552.956 13.7197C552.815 13.8005 552.699 13.9124 552.608 14.0557C552.517 14.1963 552.449 14.3604 552.405 14.5479C552.363 14.7327 552.342 14.9307 552.342 15.1416ZM558.065 17.3682C557.771 17.3682 557.504 17.3187 557.264 17.2197C557.027 17.1182 556.823 16.9762 556.651 16.7939C556.482 16.6117 556.351 16.3955 556.26 16.1455C556.169 15.8955 556.124 15.6221 556.124 15.3252V15.1611C556.124 14.8174 556.174 14.5114 556.276 14.2432C556.378 13.9723 556.516 13.7432 556.69 13.5557C556.864 13.3682 557.062 13.2262 557.284 13.1299C557.505 13.0335 557.734 12.9854 557.971 12.9854C558.273 12.9854 558.534 13.0374 558.753 13.1416C558.974 13.2458 559.155 13.3916 559.295 13.5791C559.436 13.764 559.54 13.9827 559.608 14.2354C559.676 14.4854 559.71 14.7588 559.71 15.0557V15.3799H556.553V14.79H558.987V14.7354C558.976 14.5479 558.937 14.3656 558.87 14.1885C558.805 14.0114 558.7 13.8656 558.557 13.751C558.414 13.6364 558.219 13.5791 557.971 13.5791C557.807 13.5791 557.656 13.6143 557.518 13.6846C557.38 13.7523 557.262 13.8538 557.163 13.9893C557.064 14.1247 556.987 14.29 556.932 14.4854C556.878 14.6807 556.85 14.9059 556.85 15.1611V15.3252C556.85 15.5257 556.878 15.7145 556.932 15.8916C556.989 16.0661 557.072 16.2197 557.178 16.3525C557.288 16.4854 557.419 16.5895 557.573 16.665C557.729 16.7406 557.906 16.7783 558.104 16.7783C558.359 16.7783 558.575 16.7262 558.753 16.6221C558.93 16.5179 559.085 16.3786 559.217 16.2041L559.655 16.5518C559.564 16.6898 559.448 16.8213 559.307 16.9463C559.167 17.0713 558.993 17.1729 558.788 17.251C558.585 17.3291 558.344 17.3682 558.065 17.3682ZM561.276 13.7275V17.29H560.553V13.0635H561.256L561.276 13.7275ZM562.596 13.04L562.592 13.7119C562.532 13.6989 562.475 13.6911 562.42 13.6885C562.368 13.6833 562.308 13.6807 562.241 13.6807C562.074 13.6807 561.927 13.7067 561.799 13.7588C561.672 13.8109 561.564 13.8838 561.475 13.9775C561.387 14.0713 561.316 14.1833 561.264 14.3135C561.215 14.4411 561.182 14.5817 561.167 14.7354L560.963 14.8525C560.963 14.5973 560.988 14.3577 561.038 14.1338C561.09 13.9098 561.169 13.7119 561.276 13.54C561.383 13.3656 561.518 13.2301 561.682 13.1338C561.849 13.0348 562.047 12.9854 562.276 12.9854C562.328 12.9854 562.388 12.9919 562.456 13.0049C562.523 13.0153 562.57 13.027 562.596 13.04ZM565.725 16.1689C565.725 16.0648 565.702 15.9684 565.655 15.8799C565.611 15.7887 565.518 15.7067 565.378 15.6338C565.239 15.5583 565.031 15.4932 564.753 15.4385C564.518 15.389 564.306 15.3304 564.116 15.2627C563.928 15.195 563.768 15.113 563.635 15.0166C563.505 14.9202 563.405 14.807 563.335 14.6768C563.264 14.5465 563.229 14.3942 563.229 14.2197C563.229 14.0531 563.266 13.8955 563.338 13.7471C563.414 13.5986 563.519 13.4671 563.655 13.3525C563.793 13.238 563.958 13.1481 564.151 13.083C564.344 13.0179 564.558 12.9854 564.795 12.9854C565.134 12.9854 565.423 13.0452 565.663 13.165C565.902 13.2848 566.086 13.445 566.213 13.6455C566.341 13.8434 566.405 14.0635 566.405 14.3057H565.682C565.682 14.1885 565.647 14.0752 565.577 13.9658C565.509 13.8538 565.409 13.7614 565.276 13.6885C565.146 13.6156 564.986 13.5791 564.795 13.5791C564.595 13.5791 564.432 13.6104 564.307 13.6729C564.185 13.7327 564.095 13.8096 564.038 13.9033C563.983 13.9971 563.956 14.096 563.956 14.2002C563.956 14.2783 563.969 14.3486 563.995 14.4111C564.023 14.471 564.073 14.527 564.143 14.5791C564.213 14.6286 564.312 14.6755 564.44 14.7197C564.568 14.764 564.73 14.8083 564.928 14.8525C565.275 14.9307 565.56 15.0244 565.784 15.1338C566.008 15.2432 566.174 15.3773 566.284 15.5361C566.393 15.695 566.448 15.8877 566.448 16.1143C566.448 16.2992 566.409 16.4684 566.331 16.6221C566.255 16.7757 566.144 16.9085 565.999 17.0205C565.855 17.1299 565.683 17.2158 565.483 17.2783C565.285 17.3382 565.062 17.3682 564.815 17.3682C564.443 17.3682 564.128 17.3018 563.87 17.1689C563.612 17.0361 563.417 16.8643 563.284 16.6533C563.151 16.4424 563.085 16.2197 563.085 15.9854H563.811C563.822 16.1833 563.879 16.3408 563.983 16.458C564.087 16.5726 564.215 16.6546 564.366 16.7041C564.517 16.751 564.667 16.7744 564.815 16.7744C565.013 16.7744 565.178 16.7484 565.311 16.6963C565.447 16.6442 565.549 16.5726 565.62 16.4814C565.69 16.3903 565.725 16.2861 565.725 16.1689Z" fill="#656A91"/>
<path d="M593.862 15.0596H592.342V14.4463H593.862C594.156 14.4463 594.394 14.3994 594.577 14.3057C594.759 14.2119 594.892 14.0817 594.975 13.915C595.061 13.7484 595.104 13.5583 595.104 13.3447C595.104 13.1494 595.061 12.9658 594.975 12.7939C594.892 12.6221 594.759 12.484 594.577 12.3799C594.394 12.2731 594.156 12.2197 593.862 12.2197H592.518V17.29H591.764V11.6025H593.862C594.292 11.6025 594.655 11.6768 594.952 11.8252C595.249 11.9736 595.474 12.1794 595.628 12.4424C595.781 12.7028 595.858 13.001 595.858 13.3369C595.858 13.7015 595.781 14.0127 595.628 14.2705C595.474 14.5283 595.249 14.7249 594.952 14.8604C594.655 14.9932 594.292 15.0596 593.862 15.0596ZM597.424 13.7275V17.29H596.702V13.0635H597.405L597.424 13.7275ZM598.745 13.04L598.741 13.7119C598.681 13.6989 598.624 13.6911 598.569 13.6885C598.517 13.6833 598.457 13.6807 598.389 13.6807C598.223 13.6807 598.075 13.7067 597.948 13.7588C597.82 13.8109 597.712 13.8838 597.624 13.9775C597.535 14.0713 597.465 14.1833 597.413 14.3135C597.363 14.4411 597.331 14.5817 597.315 14.7354L597.112 14.8525C597.112 14.5973 597.137 14.3577 597.186 14.1338C597.238 13.9098 597.318 13.7119 597.424 13.54C597.531 13.3656 597.667 13.2301 597.831 13.1338C597.997 13.0348 598.195 12.9854 598.424 12.9854C598.476 12.9854 598.536 12.9919 598.604 13.0049C598.672 13.0153 598.719 13.027 598.745 13.04ZM599.143 15.2236V15.1338C599.143 14.8291 599.187 14.5465 599.276 14.2861C599.364 14.0231 599.492 13.7952 599.659 13.6025C599.825 13.4072 600.027 13.2562 600.264 13.1494C600.501 13.04 600.767 12.9854 601.061 12.9854C601.358 12.9854 601.625 13.04 601.862 13.1494C602.101 13.2562 602.305 13.4072 602.471 13.6025C602.641 13.7952 602.769 14.0231 602.858 14.2861C602.947 14.5465 602.991 14.8291 602.991 15.1338V15.2236C602.991 15.5283 602.947 15.8109 602.858 16.0713C602.769 16.3317 602.641 16.5596 602.471 16.7549C602.305 16.9476 602.103 17.0986 601.866 17.208C601.631 17.3148 601.366 17.3682 601.069 17.3682C600.772 17.3682 600.505 17.3148 600.268 17.208C600.031 17.0986 599.828 16.9476 599.659 16.7549C599.492 16.5596 599.364 16.3317 599.276 16.0713C599.187 15.8109 599.143 15.5283 599.143 15.2236ZM599.866 15.1338V15.2236C599.866 15.4346 599.891 15.6338 599.94 15.8213C599.989 16.0062 600.064 16.1702 600.163 16.3135C600.264 16.4567 600.391 16.57 600.542 16.6533C600.693 16.734 600.868 16.7744 601.069 16.7744C601.267 16.7744 601.44 16.734 601.588 16.6533C601.739 16.57 601.864 16.4567 601.963 16.3135C602.062 16.1702 602.137 16.0062 602.186 15.8213C602.238 15.6338 602.264 15.4346 602.264 15.2236V15.1338C602.264 14.9255 602.238 14.7288 602.186 14.5439C602.137 14.3564 602.061 14.1911 601.96 14.0479C601.861 13.902 601.736 13.7874 601.585 13.7041C601.436 13.6208 601.262 13.5791 601.061 13.5791C600.863 13.5791 600.689 13.6208 600.538 13.7041C600.389 13.7874 600.264 13.902 600.163 14.0479C600.064 14.1911 599.989 14.3564 599.94 14.5439C599.891 14.7288 599.866 14.9255 599.866 15.1338ZM606.561 16.4697V11.29H607.288V17.29H606.624L606.561 16.4697ZM603.717 15.2236V15.1416C603.717 14.8187 603.756 14.5257 603.835 14.2627C603.915 13.9971 604.029 13.7692 604.174 13.5791C604.323 13.389 604.499 13.2432 604.702 13.1416C604.907 13.0374 605.137 12.9854 605.389 12.9854C605.655 12.9854 605.887 13.0322 606.085 13.126C606.285 13.2171 606.454 13.3512 606.592 13.5283C606.733 13.7028 606.844 13.9137 606.924 14.1611C607.005 14.4085 607.061 14.6885 607.092 15.001V15.3604C607.064 15.6702 607.008 15.9489 606.924 16.1963C606.844 16.4437 606.733 16.6546 606.592 16.8291C606.454 17.0036 606.285 17.1377 606.085 17.2314C605.884 17.3226 605.65 17.3682 605.381 17.3682C605.134 17.3682 604.907 17.3148 604.702 17.208C604.499 17.1012 604.323 16.9515 604.174 16.7588C604.029 16.5661 603.915 16.3395 603.835 16.0791C603.756 15.8161 603.717 15.5309 603.717 15.2236ZM604.444 15.1416V15.2236C604.444 15.4346 604.465 15.6325 604.506 15.8174C604.551 16.0023 604.618 16.165 604.71 16.3057C604.801 16.4463 604.917 16.557 605.057 16.6377C605.198 16.7158 605.366 16.7549 605.561 16.7549C605.801 16.7549 605.997 16.7041 606.151 16.6025C606.307 16.501 606.432 16.3669 606.526 16.2002C606.62 16.0335 606.693 15.8525 606.745 15.6572V14.7158C606.713 14.5726 606.668 14.4346 606.608 14.3018C606.551 14.1663 606.475 14.0465 606.381 13.9424C606.29 13.8356 606.177 13.751 606.042 13.6885C605.909 13.626 605.751 13.5947 605.569 13.5947C605.371 13.5947 605.2 13.6364 605.057 13.7197C604.917 13.8005 604.801 13.9124 604.71 14.0557C604.618 14.1963 604.551 14.3604 604.506 14.5479C604.465 14.7327 604.444 14.9307 604.444 15.1416ZM610.999 16.3135V13.0635H611.725V17.29H611.034L610.999 16.3135ZM611.135 15.4229L611.436 15.415C611.436 15.6963 611.406 15.9567 611.346 16.1963C611.289 16.4333 611.195 16.639 611.065 16.8135C610.935 16.988 610.764 17.1247 610.553 17.2236C610.342 17.32 610.086 17.3682 609.784 17.3682C609.578 17.3682 609.389 17.3382 609.217 17.2783C609.048 17.2184 608.902 17.126 608.78 17.001C608.657 16.876 608.562 16.7132 608.495 16.5127C608.43 16.3122 608.397 16.0713 608.397 15.79V13.0635H609.12V15.7979C609.12 15.988 609.141 16.1455 609.182 16.2705C609.226 16.3929 609.285 16.4906 609.358 16.5635C609.433 16.6338 609.517 16.6833 609.608 16.7119C609.702 16.7406 609.798 16.7549 609.897 16.7549C610.204 16.7549 610.448 16.6963 610.628 16.5791C610.807 16.4593 610.936 16.2992 611.014 16.0986C611.095 15.8955 611.135 15.6702 611.135 15.4229ZM614.518 16.7744C614.69 16.7744 614.849 16.7393 614.995 16.6689C615.141 16.5986 615.26 16.5023 615.354 16.3799C615.448 16.2549 615.501 16.113 615.514 15.9541H616.202C616.189 16.2041 616.104 16.4372 615.948 16.6533C615.794 16.8669 615.592 17.04 615.342 17.1729C615.092 17.3031 614.818 17.3682 614.518 17.3682C614.2 17.3682 613.923 17.3122 613.686 17.2002C613.452 17.0882 613.256 16.9346 613.1 16.7393C612.947 16.5439 612.831 16.32 612.753 16.0674C612.677 15.8122 612.639 15.5426 612.639 15.2588V15.0947C612.639 14.8109 612.677 14.5426 612.753 14.29C612.831 14.0348 612.947 13.8096 613.1 13.6143C613.256 13.4189 613.452 13.2653 613.686 13.1533C613.923 13.0413 614.2 12.9854 614.518 12.9854C614.849 12.9854 615.138 13.0531 615.385 13.1885C615.633 13.3213 615.827 13.5036 615.967 13.7354C616.111 13.9645 616.189 14.2249 616.202 14.5166H615.514C615.501 14.3421 615.452 14.1846 615.366 14.0439C615.282 13.9033 615.168 13.7913 615.022 13.708C614.879 13.6221 614.711 13.5791 614.518 13.5791C614.297 13.5791 614.111 13.6234 613.96 13.7119C613.811 13.7979 613.693 13.915 613.604 14.0635C613.518 14.2093 613.456 14.3721 613.417 14.5518C613.38 14.7288 613.362 14.9098 613.362 15.0947V15.2588C613.362 15.4437 613.38 15.626 613.417 15.8057C613.453 15.9854 613.514 16.1481 613.6 16.2939C613.689 16.4398 613.807 16.557 613.956 16.6455C614.107 16.7314 614.294 16.7744 614.518 16.7744ZM618.784 13.0635V13.6182H616.499V13.0635H618.784ZM617.272 12.0361H617.995V16.2432C617.995 16.3864 618.017 16.4945 618.061 16.5674C618.105 16.6403 618.163 16.6885 618.233 16.7119C618.303 16.7354 618.379 16.7471 618.46 16.7471C618.519 16.7471 618.582 16.7419 618.647 16.7314C618.715 16.7184 618.766 16.708 618.799 16.7002L618.803 17.29C618.746 17.3083 618.67 17.3252 618.577 17.3408C618.486 17.359 618.375 17.3682 618.245 17.3682C618.068 17.3682 617.905 17.333 617.756 17.2627C617.608 17.1924 617.489 17.0752 617.401 16.9111C617.315 16.7445 617.272 16.5205 617.272 16.2393V12.0361ZM622.092 16.1689C622.092 16.0648 622.069 15.9684 622.022 15.8799C621.978 15.7887 621.885 15.7067 621.745 15.6338C621.607 15.5583 621.398 15.4932 621.12 15.4385C620.885 15.389 620.673 15.3304 620.483 15.2627C620.295 15.195 620.135 15.113 620.003 15.0166C619.872 14.9202 619.772 14.807 619.702 14.6768C619.631 14.5465 619.596 14.3942 619.596 14.2197C619.596 14.0531 619.633 13.8955 619.706 13.7471C619.781 13.5986 619.887 13.4671 620.022 13.3525C620.16 13.238 620.325 13.1481 620.518 13.083C620.711 13.0179 620.926 12.9854 621.163 12.9854C621.501 12.9854 621.79 13.0452 622.03 13.165C622.269 13.2848 622.453 13.445 622.581 13.6455C622.708 13.8434 622.772 14.0635 622.772 14.3057H622.049C622.049 14.1885 622.014 14.0752 621.944 13.9658C621.876 13.8538 621.776 13.7614 621.643 13.6885C621.513 13.6156 621.353 13.5791 621.163 13.5791C620.962 13.5791 620.799 13.6104 620.674 13.6729C620.552 13.7327 620.462 13.8096 620.405 13.9033C620.35 13.9971 620.323 14.096 620.323 14.2002C620.323 14.2783 620.336 14.3486 620.362 14.4111C620.391 14.471 620.44 14.527 620.51 14.5791C620.581 14.6286 620.68 14.6755 620.807 14.7197C620.935 14.764 621.098 14.8083 621.295 14.8525C621.642 14.9307 621.927 15.0244 622.151 15.1338C622.375 15.2432 622.542 15.3773 622.651 15.5361C622.76 15.695 622.815 15.8877 622.815 16.1143C622.815 16.2992 622.776 16.4684 622.698 16.6221C622.622 16.7757 622.512 16.9085 622.366 17.0205C622.223 17.1299 622.051 17.2158 621.85 17.2783C621.652 17.3382 621.43 17.3682 621.182 17.3682C620.81 17.3682 620.495 17.3018 620.237 17.1689C619.979 17.0361 619.784 16.8643 619.651 16.6533C619.518 16.4424 619.452 16.2197 619.452 15.9854H620.178C620.189 16.1833 620.246 16.3408 620.35 16.458C620.454 16.5726 620.582 16.6546 620.733 16.7041C620.884 16.751 621.034 16.7744 621.182 16.7744C621.38 16.7744 621.545 16.7484 621.678 16.6963C621.814 16.6442 621.917 16.5726 621.987 16.4814C622.057 16.3903 622.092 16.2861 622.092 16.1689Z" fill="#656A91"/>
<path d="M650.862 15.0596H649.342V14.4463H650.862C651.156 14.4463 651.394 14.3994 651.577 14.3057C651.759 14.2119 651.892 14.0817 651.975 13.915C652.061 13.7484 652.104 13.5583 652.104 13.3447C652.104 13.1494 652.061 12.9658 651.975 12.7939C651.892 12.6221 651.759 12.484 651.577 12.3799C651.394 12.2731 651.156 12.2197 650.862 12.2197H649.518V17.29H648.764V11.6025H650.862C651.292 11.6025 651.655 11.6768 651.952 11.8252C652.249 11.9736 652.474 12.1794 652.628 12.4424C652.781 12.7028 652.858 13.001 652.858 13.3369C652.858 13.7015 652.781 14.0127 652.628 14.2705C652.474 14.5283 652.249 14.7249 651.952 14.8604C651.655 14.9932 651.292 15.0596 650.862 15.0596ZM656.147 16.5674V14.3916C656.147 14.2249 656.113 14.0804 656.045 13.958C655.98 13.833 655.881 13.7367 655.749 13.6689C655.616 13.6012 655.452 13.5674 655.256 13.5674C655.074 13.5674 654.914 13.5986 654.776 13.6611C654.641 13.7236 654.534 13.8057 654.456 13.9072C654.38 14.0088 654.342 14.1182 654.342 14.2354H653.62C653.62 14.0843 653.659 13.9346 653.737 13.7861C653.815 13.6377 653.927 13.5036 654.073 13.3838C654.221 13.2614 654.398 13.165 654.604 13.0947C654.812 13.0218 655.044 12.9854 655.299 12.9854C655.607 12.9854 655.878 13.0374 656.112 13.1416C656.349 13.2458 656.534 13.4033 656.667 13.6143C656.802 13.8226 656.87 14.0843 656.87 14.3994V16.3682C656.87 16.5088 656.881 16.6585 656.905 16.8174C656.931 16.9762 656.969 17.113 657.018 17.2275V17.29H656.264C656.228 17.2067 656.199 17.096 656.178 16.958C656.157 16.8174 656.147 16.6872 656.147 16.5674ZM656.272 14.7275L656.28 15.2354H655.549C655.344 15.2354 655.16 15.2523 654.999 15.2861C654.837 15.3174 654.702 15.3656 654.592 15.4307C654.483 15.4958 654.4 15.5778 654.342 15.6768C654.285 15.7731 654.256 15.8864 654.256 16.0166C654.256 16.1494 654.286 16.2705 654.346 16.3799C654.406 16.4893 654.496 16.5765 654.616 16.6416C654.738 16.7041 654.888 16.7354 655.065 16.7354C655.286 16.7354 655.482 16.6885 655.651 16.5947C655.82 16.501 655.954 16.3864 656.053 16.251C656.155 16.1156 656.21 15.984 656.217 15.8564L656.526 16.2041C656.508 16.3135 656.458 16.4346 656.378 16.5674C656.297 16.7002 656.189 16.8278 656.053 16.9502C655.92 17.07 655.762 17.1702 655.577 17.251C655.394 17.3291 655.189 17.3682 654.96 17.3682C654.673 17.3682 654.422 17.3122 654.206 17.2002C653.992 17.0882 653.825 16.9385 653.706 16.751C653.588 16.5609 653.53 16.3486 653.53 16.1143C653.53 15.8877 653.574 15.6885 653.663 15.5166C653.751 15.3421 653.879 15.1976 654.045 15.083C654.212 14.9658 654.413 14.8773 654.647 14.8174C654.881 14.7575 655.143 14.7275 655.432 14.7275H656.272ZM659.131 16.8525L660.307 13.0635H661.081L659.385 17.9424C659.346 18.0465 659.294 18.1585 659.229 18.2783C659.167 18.4007 659.086 18.5166 658.987 18.626C658.888 18.7354 658.768 18.8239 658.628 18.8916C658.489 18.9619 658.324 18.9971 658.131 18.9971C658.074 18.9971 658.001 18.9893 657.913 18.9736C657.824 18.958 657.762 18.945 657.725 18.9346L657.721 18.3486C657.742 18.3512 657.775 18.3538 657.819 18.3564C657.866 18.3617 657.898 18.3643 657.917 18.3643C658.081 18.3643 658.22 18.3421 658.335 18.2979C658.449 18.2562 658.545 18.1846 658.624 18.083C658.704 17.984 658.773 17.8473 658.831 17.6729L659.131 16.8525ZM658.268 13.0635L659.366 16.3447L659.553 17.1064L659.034 17.3721L657.479 13.0635H658.268ZM662.452 13.9033V17.29H661.725V13.0635H662.413L662.452 13.9033ZM662.303 15.0166L661.967 15.0049C661.97 14.7158 662.008 14.4489 662.081 14.2041C662.154 13.9567 662.262 13.7419 662.405 13.5596C662.548 13.3773 662.726 13.2367 662.94 13.1377C663.154 13.0361 663.401 12.9854 663.682 12.9854C663.88 12.9854 664.062 13.014 664.229 13.0713C664.396 13.126 664.54 13.2132 664.663 13.333C664.785 13.4528 664.88 13.6064 664.948 13.7939C665.016 13.9814 665.049 14.208 665.049 14.4736V17.29H664.327V14.5088C664.327 14.2874 664.289 14.1104 664.213 13.9775C664.141 13.8447 664.036 13.7484 663.901 13.6885C663.766 13.626 663.607 13.5947 663.424 13.5947C663.211 13.5947 663.032 13.6325 662.889 13.708C662.746 13.7835 662.631 13.8877 662.545 14.0205C662.46 14.1533 662.397 14.3057 662.358 14.4775C662.322 14.6468 662.303 14.8265 662.303 15.0166ZM665.042 14.6182L664.557 14.7666C664.56 14.5348 664.598 14.3122 664.67 14.0986C664.746 13.8851 664.854 13.695 664.995 13.5283C665.138 13.3617 665.314 13.2301 665.522 13.1338C665.73 13.0348 665.969 12.9854 666.237 12.9854C666.463 12.9854 666.664 13.0153 666.838 13.0752C667.016 13.1351 667.164 13.2275 667.284 13.3525C667.406 13.4749 667.499 13.6325 667.561 13.8252C667.624 14.0179 667.655 14.2471 667.655 14.5127V17.29H666.928V14.5049C666.928 14.2679 666.891 14.0843 666.815 13.9541C666.742 13.8213 666.638 13.7288 666.503 13.6768C666.37 13.6221 666.211 13.5947 666.026 13.5947C665.867 13.5947 665.726 13.6221 665.604 13.6768C665.482 13.7314 665.379 13.807 665.295 13.9033C665.212 13.9971 665.148 14.1051 665.104 14.2275C665.062 14.3499 665.042 14.4801 665.042 14.6182ZM670.503 17.3682C670.208 17.3682 669.941 17.3187 669.702 17.2197C669.465 17.1182 669.26 16.9762 669.088 16.7939C668.919 16.6117 668.789 16.3955 668.698 16.1455C668.607 15.8955 668.561 15.6221 668.561 15.3252V15.1611C668.561 14.8174 668.612 14.5114 668.713 14.2432C668.815 13.9723 668.953 13.7432 669.128 13.5557C669.302 13.3682 669.5 13.2262 669.721 13.1299C669.943 13.0335 670.172 12.9854 670.409 12.9854C670.711 12.9854 670.971 13.0374 671.19 13.1416C671.411 13.2458 671.592 13.3916 671.733 13.5791C671.874 13.764 671.978 13.9827 672.045 14.2354C672.113 14.4854 672.147 14.7588 672.147 15.0557V15.3799H668.991V14.79H671.424V14.7354C671.414 14.5479 671.375 14.3656 671.307 14.1885C671.242 14.0114 671.138 13.8656 670.995 13.751C670.851 13.6364 670.656 13.5791 670.409 13.5791C670.245 13.5791 670.094 13.6143 669.956 13.6846C669.818 13.7523 669.699 13.8538 669.6 13.9893C669.501 14.1247 669.424 14.29 669.37 14.4854C669.315 14.6807 669.288 14.9059 669.288 15.1611V15.3252C669.288 15.5257 669.315 15.7145 669.37 15.8916C669.427 16.0661 669.509 16.2197 669.616 16.3525C669.725 16.4854 669.857 16.5895 670.01 16.665C670.167 16.7406 670.344 16.7783 670.542 16.7783C670.797 16.7783 671.013 16.7262 671.19 16.6221C671.367 16.5179 671.522 16.3786 671.655 16.2041L672.092 16.5518C672.001 16.6898 671.885 16.8213 671.745 16.9463C671.604 17.0713 671.431 17.1729 671.225 17.251C671.022 17.3291 670.781 17.3682 670.503 17.3682ZM673.713 13.9658V17.29H672.991V13.0635H673.674L673.713 13.9658ZM673.542 15.0166L673.241 15.0049C673.243 14.7158 673.286 14.4489 673.37 14.2041C673.453 13.9567 673.57 13.7419 673.721 13.5596C673.872 13.3773 674.052 13.2367 674.26 13.1377C674.471 13.0361 674.704 12.9854 674.96 12.9854C675.168 12.9854 675.355 13.014 675.522 13.0713C675.689 13.126 675.831 13.2145 675.948 13.3369C676.068 13.4593 676.159 13.6182 676.221 13.8135C676.284 14.0062 676.315 14.2419 676.315 14.5205V17.29H675.588V14.5127C675.588 14.2913 675.556 14.1143 675.491 13.9814C675.426 13.846 675.331 13.7484 675.206 13.6885C675.081 13.626 674.927 13.5947 674.745 13.5947C674.565 13.5947 674.401 13.6325 674.253 13.708C674.107 13.7835 673.98 13.8877 673.874 14.0205C673.769 14.1533 673.687 14.3057 673.628 14.4775C673.57 14.6468 673.542 14.8265 673.542 15.0166ZM679.182 13.0635V13.6182H676.897V13.0635H679.182ZM677.67 12.0361H678.393V16.2432C678.393 16.3864 678.415 16.4945 678.46 16.5674C678.504 16.6403 678.561 16.6885 678.631 16.7119C678.702 16.7354 678.777 16.7471 678.858 16.7471C678.918 16.7471 678.98 16.7419 679.045 16.7314C679.113 16.7184 679.164 16.708 679.198 16.7002L679.202 17.29C679.144 17.3083 679.069 17.3252 678.975 17.3408C678.884 17.359 678.773 17.3682 678.643 17.3682C678.466 17.3682 678.303 17.333 678.155 17.2627C678.006 17.1924 677.888 17.0752 677.799 16.9111C677.713 16.7445 677.67 16.5205 677.67 16.2393V12.0361ZM682.491 16.1689C682.491 16.0648 682.467 15.9684 682.42 15.8799C682.376 15.7887 682.284 15.7067 682.143 15.6338C682.005 15.5583 681.797 15.4932 681.518 15.4385C681.284 15.389 681.072 15.3304 680.881 15.2627C680.694 15.195 680.534 15.113 680.401 15.0166C680.271 14.9202 680.17 14.807 680.1 14.6768C680.03 14.5465 679.995 14.3942 679.995 14.2197C679.995 14.0531 680.031 13.8955 680.104 13.7471C680.18 13.5986 680.285 13.4671 680.42 13.3525C680.558 13.238 680.724 13.1481 680.917 13.083C681.109 13.0179 681.324 12.9854 681.561 12.9854C681.9 12.9854 682.189 13.0452 682.428 13.165C682.668 13.2848 682.851 13.445 682.979 13.6455C683.107 13.8434 683.17 14.0635 683.17 14.3057H682.448C682.448 14.1885 682.413 14.0752 682.342 13.9658C682.275 13.8538 682.174 13.7614 682.042 13.6885C681.911 13.6156 681.751 13.5791 681.561 13.5791C681.361 13.5791 681.198 13.6104 681.073 13.6729C680.95 13.7327 680.861 13.8096 680.803 13.9033C680.749 13.9971 680.721 14.096 680.721 14.2002C680.721 14.2783 680.734 14.3486 680.76 14.4111C680.789 14.471 680.838 14.527 680.909 14.5791C680.979 14.6286 681.078 14.6755 681.206 14.7197C681.333 14.764 681.496 14.8083 681.694 14.8525C682.04 14.9307 682.325 15.0244 682.549 15.1338C682.773 15.2432 682.94 15.3773 683.049 15.5361C683.159 15.695 683.213 15.8877 683.213 16.1143C683.213 16.2992 683.174 16.4684 683.096 16.6221C683.021 16.7757 682.91 16.9085 682.764 17.0205C682.621 17.1299 682.449 17.2158 682.249 17.2783C682.051 17.3382 681.828 17.3682 681.581 17.3682C681.208 17.3682 680.893 17.3018 680.635 17.1689C680.378 17.0361 680.182 16.8643 680.049 16.6533C679.917 16.4424 679.85 16.2197 679.85 15.9854H680.577C680.587 16.1833 680.644 16.3408 680.749 16.458C680.853 16.5726 680.98 16.6546 681.131 16.7041C681.282 16.751 681.432 16.7744 681.581 16.7744C681.779 16.7744 681.944 16.7484 682.077 16.6963C682.212 16.6442 682.315 16.5726 682.385 16.4814C682.456 16.3903 682.491 16.2861 682.491 16.1689Z" fill="#656A91"/>
<path d="M709.209 20.3956H716.92V16.5549C716.92 14.415 715.194 12.6801 713.064 12.6801C710.935 12.6801 709.209 14.415 709.209 16.5549V20.3956ZM713.064 11.5779C715.802 11.5779 718.024 13.806 718.024 16.5549V21.4978H708.104V16.5549C708.104 13.806 710.326 11.5779 713.064 11.5779ZM711.689 22.0489H714.44C714.44 22.4143 714.294 22.7648 714.036 23.0232C713.778 23.2815 713.428 23.4267 713.064 23.4267C712.7 23.4267 712.35 23.2815 712.092 23.0232C711.834 22.7648 711.689 22.4143 711.689 22.0489Z" fill="#8C8FAC"/>
<path d="M713.064 13.7825C713.064 11.9563 714.546 10.4758 716.371 10.4758C718.196 10.4758 719.677 11.9563 719.677 13.7825C719.677 15.6087 718.196 17.0891 716.371 17.0891C714.546 17.0891 713.064 15.6087 713.064 13.7825Z" fill="#E7428C"/>
<path d="M716.371 15.7664C715.273 15.7664 714.387 14.8781 714.387 13.7824H711.741C711.741 16.3391 713.811 18.4117 716.371 18.4117V15.7664ZM718.355 13.7824C718.355 14.8781 717.468 15.7664 716.371 15.7664V18.4117C718.93 18.4117 721 16.3391 721 13.7824H718.355ZM716.371 11.7984C717.468 11.7984 718.355 12.6866 718.355 13.7824H721C721 11.2257 718.93 9.15308 716.371 9.15308V11.7984ZM716.371 9.15308C713.811 9.15308 711.741 11.2257 711.741 13.7824H714.387C714.387 12.6866 715.273 11.7984 716.371 11.7984V9.15308Z" fill="white"/>
<path d="M788.156 10.071L789.285 6.10229H789.832L789.516 7.64526L788.301 11.7898H787.758L788.156 10.071ZM786.988 6.10229L787.887 9.99292L788.156 11.7898H787.617L786.238 6.10229H786.988ZM791.293 9.98901L792.172 6.10229H792.926L791.551 11.7898H791.012L791.293 9.98901ZM789.914 6.10229L791.012 10.071L791.41 11.7898H790.867L789.695 7.64526L789.375 6.10229H789.914ZM793.336 9.72339V9.63354C793.336 9.32886 793.38 9.04631 793.469 8.78589C793.557 8.52287 793.685 8.295 793.852 8.10229C794.018 7.90698 794.22 7.75594 794.457 7.64917C794.694 7.53979 794.96 7.48511 795.254 7.48511C795.551 7.48511 795.818 7.53979 796.055 7.64917C796.294 7.75594 796.497 7.90698 796.664 8.10229C796.833 8.295 796.962 8.52287 797.051 8.78589C797.139 9.04631 797.184 9.32886 797.184 9.63354V9.72339C797.184 10.0281 797.139 10.3106 797.051 10.571C796.962 10.8315 796.833 11.0593 796.664 11.2546C796.497 11.4473 796.296 11.5984 796.059 11.7078C795.824 11.8145 795.559 11.8679 795.262 11.8679C794.965 11.8679 794.698 11.8145 794.461 11.7078C794.224 11.5984 794.021 11.4473 793.852 11.2546C793.685 11.0593 793.557 10.8315 793.469 10.571C793.38 10.3106 793.336 10.0281 793.336 9.72339ZM794.059 9.63354V9.72339C794.059 9.93433 794.083 10.1335 794.133 10.321C794.182 10.5059 794.257 10.67 794.355 10.8132C794.457 10.9565 794.583 11.0697 794.734 11.1531C794.885 11.2338 795.061 11.2742 795.262 11.2742C795.46 11.2742 795.633 11.2338 795.781 11.1531C795.932 11.0697 796.057 10.9565 796.156 10.8132C796.255 10.67 796.329 10.5059 796.379 10.321C796.431 10.1335 796.457 9.93433 796.457 9.72339V9.63354C796.457 9.42521 796.431 9.2286 796.379 9.0437C796.329 8.8562 796.254 8.69084 796.152 8.54761C796.053 8.40177 795.928 8.28719 795.777 8.20386C795.629 8.12052 795.454 8.07886 795.254 8.07886C795.056 8.07886 794.882 8.12052 794.73 8.20386C794.582 8.28719 794.457 8.40177 794.355 8.54761C794.257 8.69084 794.182 8.8562 794.133 9.0437C794.083 9.2286 794.059 9.42521 794.059 9.63354ZM798.812 8.46558V11.7898H798.09V7.56323H798.773L798.812 8.46558ZM798.641 9.51636L798.34 9.50464C798.342 9.21558 798.385 8.94865 798.469 8.70386C798.552 8.45646 798.669 8.24162 798.82 8.05933C798.971 7.87703 799.151 7.73641 799.359 7.63745C799.57 7.53589 799.803 7.48511 800.059 7.48511C800.267 7.48511 800.454 7.51375 800.621 7.57104C800.788 7.62573 800.93 7.71427 801.047 7.83667C801.167 7.95907 801.258 8.11792 801.32 8.31323C801.383 8.50594 801.414 8.74162 801.414 9.02026V11.7898H800.688V9.01245C800.688 8.7911 800.655 8.61401 800.59 8.4812C800.525 8.34578 800.43 8.24813 800.305 8.18823C800.18 8.12573 800.026 8.09448 799.844 8.09448C799.664 8.09448 799.5 8.13224 799.352 8.20776C799.206 8.28328 799.079 8.38745 798.973 8.52026C798.868 8.65308 798.786 8.80542 798.727 8.97729C798.669 9.14657 798.641 9.32625 798.641 9.51636ZM803.238 5.78979V11.7898H802.512V5.78979H803.238ZM805.82 7.56323L803.977 9.53589L802.945 10.6062L802.887 9.83667L803.625 8.95386L804.938 7.56323H805.82ZM805.16 11.7898L803.652 9.77417L804.027 9.12964L806.012 11.7898H805.16ZM809.059 11.0671V8.89136C809.059 8.72469 809.025 8.58016 808.957 8.45776C808.892 8.33276 808.793 8.23641 808.66 8.1687C808.527 8.10099 808.363 8.06714 808.168 8.06714C807.986 8.06714 807.826 8.09839 807.688 8.16089C807.552 8.22339 807.445 8.30542 807.367 8.40698C807.292 8.50854 807.254 8.61792 807.254 8.73511H806.531C806.531 8.58407 806.57 8.43433 806.648 8.28589C806.727 8.13745 806.839 8.00334 806.984 7.88354C807.133 7.76115 807.31 7.66479 807.516 7.59448C807.724 7.52157 807.956 7.48511 808.211 7.48511C808.518 7.48511 808.789 7.53719 809.023 7.64136C809.26 7.74552 809.445 7.90308 809.578 8.11401C809.714 8.32235 809.781 8.58407 809.781 8.89917V10.8679C809.781 11.0085 809.793 11.1583 809.816 11.3171C809.842 11.476 809.88 11.6127 809.93 11.7273V11.7898H809.176C809.139 11.7065 809.111 11.5958 809.09 11.4578C809.069 11.3171 809.059 11.1869 809.059 11.0671ZM809.184 9.22729L809.191 9.73511H808.461C808.255 9.73511 808.072 9.75203 807.91 9.78589C807.749 9.81714 807.613 9.86532 807.504 9.93042C807.395 9.99552 807.311 10.0776 807.254 10.1765C807.197 10.2729 807.168 10.3861 807.168 10.5164C807.168 10.6492 807.198 10.7703 807.258 10.8796C807.318 10.989 807.408 11.0763 807.527 11.1414C807.65 11.2039 807.799 11.2351 807.977 11.2351C808.198 11.2351 808.393 11.1882 808.562 11.0945C808.732 11.0007 808.866 10.8861 808.965 10.7507C809.066 10.6153 809.121 10.4838 809.129 10.3562L809.438 10.7039C809.419 10.8132 809.37 10.9343 809.289 11.0671C809.208 11.2 809.1 11.3276 808.965 11.45C808.832 11.5697 808.673 11.67 808.488 11.7507C808.306 11.8289 808.1 11.8679 807.871 11.8679C807.585 11.8679 807.333 11.8119 807.117 11.7C806.904 11.588 806.737 11.4382 806.617 11.2507C806.5 11.0606 806.441 10.8484 806.441 10.614C806.441 10.3875 806.486 10.1882 806.574 10.0164C806.663 9.84188 806.79 9.69735 806.957 9.58276C807.124 9.46558 807.324 9.37703 807.559 9.31714C807.793 9.25724 808.055 9.22729 808.344 9.22729H809.184ZM813.82 6.10229V11.7898H813.066V6.10229H813.82ZM815.805 8.46558V11.7898H815.082V7.56323H815.766L815.805 8.46558ZM815.633 9.51636L815.332 9.50464C815.335 9.21558 815.378 8.94865 815.461 8.70386C815.544 8.45646 815.661 8.24162 815.812 8.05933C815.964 7.87703 816.143 7.73641 816.352 7.63745C816.562 7.53589 816.796 7.48511 817.051 7.48511C817.259 7.48511 817.447 7.51375 817.613 7.57104C817.78 7.62573 817.922 7.71427 818.039 7.83667C818.159 7.95907 818.25 8.11792 818.312 8.31323C818.375 8.50594 818.406 8.74162 818.406 9.02026V11.7898H817.68V9.01245C817.68 8.7911 817.647 8.61401 817.582 8.4812C817.517 8.34578 817.422 8.24813 817.297 8.18823C817.172 8.12573 817.018 8.09448 816.836 8.09448C816.656 8.09448 816.492 8.13224 816.344 8.20776C816.198 8.28328 816.072 8.38745 815.965 8.52026C815.861 8.65308 815.779 8.80542 815.719 8.97729C815.661 9.14657 815.633 9.32625 815.633 9.51636ZM822.168 10.9695V5.78979H822.895V11.7898H822.23L822.168 10.9695ZM819.324 9.72339V9.64136C819.324 9.31844 819.363 9.02547 819.441 8.76245C819.522 8.49683 819.635 8.26896 819.781 8.07886C819.93 7.88875 820.105 7.74292 820.309 7.64136C820.514 7.53719 820.743 7.48511 820.996 7.48511C821.262 7.48511 821.493 7.53198 821.691 7.62573C821.892 7.71688 822.061 7.85099 822.199 8.02808C822.34 8.20256 822.451 8.41349 822.531 8.66089C822.612 8.90828 822.668 9.18823 822.699 9.50073V9.86011C822.671 10.17 822.615 10.4486 822.531 10.696C822.451 10.9434 822.34 11.1544 822.199 11.3289C822.061 11.5033 821.892 11.6375 821.691 11.7312C821.491 11.8223 821.257 11.8679 820.988 11.8679C820.741 11.8679 820.514 11.8145 820.309 11.7078C820.105 11.601 819.93 11.4513 819.781 11.2585C819.635 11.0658 819.522 10.8393 819.441 10.5789C819.363 10.3158 819.324 10.0307 819.324 9.72339ZM820.051 9.64136V9.72339C820.051 9.93433 820.072 10.1322 820.113 10.3171C820.158 10.502 820.225 10.6648 820.316 10.8054C820.408 10.946 820.523 11.0567 820.664 11.1375C820.805 11.2156 820.973 11.2546 821.168 11.2546C821.408 11.2546 821.604 11.2039 821.758 11.1023C821.914 11.0007 822.039 10.8666 822.133 10.7C822.227 10.5333 822.299 10.3523 822.352 10.157V9.21558C822.32 9.07235 822.275 8.93433 822.215 8.80151C822.158 8.6661 822.082 8.54631 821.988 8.44214C821.897 8.33537 821.784 8.25073 821.648 8.18823C821.516 8.12573 821.358 8.09448 821.176 8.09448C820.978 8.09448 820.807 8.13615 820.664 8.21948C820.523 8.30021 820.408 8.41219 820.316 8.55542C820.225 8.69604 820.158 8.86011 820.113 9.04761C820.072 9.2325 820.051 9.43042 820.051 9.64136ZM826.605 10.8132V7.56323H827.332V11.7898H826.641L826.605 10.8132ZM826.742 9.92261L827.043 9.91479C827.043 10.196 827.013 10.4565 826.953 10.696C826.896 10.933 826.802 11.1388 826.672 11.3132C826.542 11.4877 826.371 11.6244 826.16 11.7234C825.949 11.8197 825.693 11.8679 825.391 11.8679C825.185 11.8679 824.996 11.838 824.824 11.7781C824.655 11.7182 824.509 11.6257 824.387 11.5007C824.264 11.3757 824.169 11.213 824.102 11.0125C824.036 10.8119 824.004 10.571 824.004 10.2898V7.56323H824.727V10.2976C824.727 10.4877 824.747 10.6453 824.789 10.7703C824.833 10.8927 824.892 10.9903 824.965 11.0632C825.04 11.1335 825.124 11.183 825.215 11.2117C825.309 11.2403 825.405 11.2546 825.504 11.2546C825.811 11.2546 826.055 11.196 826.234 11.0789C826.414 10.9591 826.543 10.7989 826.621 10.5984C826.702 10.3953 826.742 10.17 826.742 9.92261ZM830.895 10.6687C830.895 10.5645 830.871 10.4682 830.824 10.3796C830.78 10.2885 830.688 10.2065 830.547 10.1335C830.409 10.058 830.201 9.99292 829.922 9.93823C829.688 9.88875 829.475 9.83016 829.285 9.76245C829.098 9.69474 828.938 9.61271 828.805 9.51636C828.674 9.42 828.574 9.30672 828.504 9.17651C828.434 9.04631 828.398 8.89396 828.398 8.71948C828.398 8.55282 828.435 8.39526 828.508 8.24683C828.583 8.09839 828.689 7.96688 828.824 7.85229C828.962 7.73771 829.128 7.64787 829.32 7.58276C829.513 7.51766 829.728 7.48511 829.965 7.48511C830.303 7.48511 830.592 7.545 830.832 7.66479C831.072 7.78459 831.255 7.94474 831.383 8.14526C831.51 8.34318 831.574 8.56323 831.574 8.80542H830.852C830.852 8.68823 830.816 8.57495 830.746 8.46558C830.678 8.3536 830.578 8.26115 830.445 8.18823C830.315 8.11532 830.155 8.07886 829.965 8.07886C829.764 8.07886 829.602 8.11011 829.477 8.17261C829.354 8.2325 829.264 8.30933 829.207 8.40308C829.152 8.49683 829.125 8.59578 829.125 8.69995C829.125 8.77808 829.138 8.84839 829.164 8.91089C829.193 8.97078 829.242 9.02677 829.312 9.07886C829.383 9.12834 829.482 9.17521 829.609 9.21948C829.737 9.26375 829.9 9.30802 830.098 9.35229C830.444 9.43042 830.729 9.52417 830.953 9.63354C831.177 9.74292 831.344 9.87703 831.453 10.0359C831.562 10.1947 831.617 10.3875 831.617 10.614C831.617 10.7989 831.578 10.9682 831.5 11.1218C831.424 11.2755 831.314 11.4083 831.168 11.5203C831.025 11.6296 830.853 11.7156 830.652 11.7781C830.454 11.838 830.232 11.8679 829.984 11.8679C829.612 11.8679 829.297 11.8015 829.039 11.6687C828.781 11.5359 828.586 11.364 828.453 11.1531C828.32 10.9421 828.254 10.7195 828.254 10.4851H828.98C828.991 10.683 829.048 10.8406 829.152 10.9578C829.257 11.0723 829.384 11.1544 829.535 11.2039C829.686 11.2507 829.836 11.2742 829.984 11.2742C830.182 11.2742 830.348 11.2481 830.48 11.196C830.616 11.144 830.719 11.0723 830.789 10.9812C830.859 10.8901 830.895 10.7859 830.895 10.6687ZM834.336 7.56323V8.11792H832.051V7.56323H834.336ZM832.824 6.53589H833.547V10.7429C833.547 10.8861 833.569 10.9942 833.613 11.0671C833.658 11.1401 833.715 11.1882 833.785 11.2117C833.855 11.2351 833.931 11.2468 834.012 11.2468C834.072 11.2468 834.134 11.2416 834.199 11.2312C834.267 11.2182 834.318 11.2078 834.352 11.2L834.355 11.7898C834.298 11.808 834.223 11.825 834.129 11.8406C834.038 11.8588 833.927 11.8679 833.797 11.8679C833.62 11.8679 833.457 11.8328 833.309 11.7625C833.16 11.6921 833.042 11.575 832.953 11.4109C832.867 11.2442 832.824 11.0203 832.824 10.739V6.53589ZM835.906 8.22729V11.7898H835.184V7.56323H835.887L835.906 8.22729ZM837.227 7.53979L837.223 8.21167C837.163 8.19865 837.105 8.19084 837.051 8.18823C836.999 8.18302 836.939 8.18042 836.871 8.18042C836.704 8.18042 836.557 8.20646 836.43 8.25854C836.302 8.31063 836.194 8.38354 836.105 8.47729C836.017 8.57104 835.947 8.68302 835.895 8.81323C835.845 8.94084 835.812 9.08146 835.797 9.23511L835.594 9.35229C835.594 9.09709 835.618 8.8575 835.668 8.63354C835.72 8.40959 835.799 8.21167 835.906 8.03979C836.013 7.86532 836.148 7.7299 836.312 7.63354C836.479 7.53459 836.677 7.48511 836.906 7.48511C836.958 7.48511 837.018 7.49162 837.086 7.50464C837.154 7.51506 837.201 7.52677 837.227 7.53979ZM838.68 7.56323V11.7898H837.953V7.56323H838.68ZM837.898 6.44214C837.898 6.32495 837.934 6.22599 838.004 6.14526C838.077 6.06453 838.184 6.02417 838.324 6.02417C838.462 6.02417 838.568 6.06453 838.641 6.14526C838.716 6.22599 838.754 6.32495 838.754 6.44214C838.754 6.55412 838.716 6.65047 838.641 6.7312C838.568 6.80933 838.462 6.84839 838.324 6.84839C838.184 6.84839 838.077 6.80933 838.004 6.7312C837.934 6.65047 837.898 6.55412 837.898 6.44214ZM841.594 11.8679C841.299 11.8679 841.033 11.8184 840.793 11.7195C840.556 11.6179 840.352 11.476 840.18 11.2937C840.01 11.1114 839.88 10.8953 839.789 10.6453C839.698 10.3953 839.652 10.1218 839.652 9.82495V9.66089C839.652 9.31714 839.703 9.01115 839.805 8.74292C839.906 8.47209 840.044 8.24292 840.219 8.05542C840.393 7.86792 840.591 7.72599 840.812 7.62964C841.034 7.53328 841.263 7.48511 841.5 7.48511C841.802 7.48511 842.062 7.53719 842.281 7.64136C842.503 7.74552 842.684 7.89136 842.824 8.07886C842.965 8.26375 843.069 8.4825 843.137 8.73511C843.204 8.98511 843.238 9.25854 843.238 9.55542V9.87964H840.082V9.28979H842.516V9.23511C842.505 9.04761 842.466 8.86532 842.398 8.68823C842.333 8.51115 842.229 8.36532 842.086 8.25073C841.943 8.13615 841.747 8.07886 841.5 8.07886C841.336 8.07886 841.185 8.11401 841.047 8.18433C840.909 8.25203 840.79 8.3536 840.691 8.48901C840.592 8.62443 840.516 8.78979 840.461 8.98511C840.406 9.18042 840.379 9.40568 840.379 9.66089V9.82495C840.379 10.0255 840.406 10.2143 840.461 10.3914C840.518 10.5658 840.6 10.7195 840.707 10.8523C840.816 10.9851 840.948 11.0893 841.102 11.1648C841.258 11.2403 841.435 11.2781 841.633 11.2781C841.888 11.2781 842.104 11.226 842.281 11.1218C842.458 11.0177 842.613 10.8783 842.746 10.7039L843.184 11.0515C843.092 11.1895 842.977 11.321 842.836 11.446C842.695 11.571 842.522 11.6726 842.316 11.7507C842.113 11.8289 841.872 11.8679 841.594 11.8679ZM846.543 10.6687C846.543 10.5645 846.52 10.4682 846.473 10.3796C846.428 10.2885 846.336 10.2065 846.195 10.1335C846.057 10.058 845.849 9.99292 845.57 9.93823C845.336 9.88875 845.124 9.83016 844.934 9.76245C844.746 9.69474 844.586 9.61271 844.453 9.51636C844.323 9.42 844.223 9.30672 844.152 9.17651C844.082 9.04631 844.047 8.89396 844.047 8.71948C844.047 8.55282 844.083 8.39526 844.156 8.24683C844.232 8.09839 844.337 7.96688 844.473 7.85229C844.611 7.73771 844.776 7.64787 844.969 7.58276C845.161 7.51766 845.376 7.48511 845.613 7.48511C845.952 7.48511 846.241 7.545 846.48 7.66479C846.72 7.78459 846.904 7.94474 847.031 8.14526C847.159 8.34318 847.223 8.56323 847.223 8.80542H846.5C846.5 8.68823 846.465 8.57495 846.395 8.46558C846.327 8.3536 846.227 8.26115 846.094 8.18823C845.964 8.11532 845.803 8.07886 845.613 8.07886C845.413 8.07886 845.25 8.11011 845.125 8.17261C845.003 8.2325 844.913 8.30933 844.855 8.40308C844.801 8.49683 844.773 8.59578 844.773 8.69995C844.773 8.77808 844.786 8.84839 844.812 8.91089C844.841 8.97078 844.891 9.02677 844.961 9.07886C845.031 9.12834 845.13 9.17521 845.258 9.21948C845.385 9.26375 845.548 9.30802 845.746 9.35229C846.092 9.43042 846.378 9.52417 846.602 9.63354C846.826 9.74292 846.992 9.87703 847.102 10.0359C847.211 10.1947 847.266 10.3875 847.266 10.614C847.266 10.7989 847.227 10.9682 847.148 11.1218C847.073 11.2755 846.962 11.4083 846.816 11.5203C846.673 11.6296 846.501 11.7156 846.301 11.7781C846.103 11.838 845.88 11.8679 845.633 11.8679C845.26 11.8679 844.945 11.8015 844.688 11.6687C844.43 11.5359 844.234 11.364 844.102 11.1531C843.969 10.9421 843.902 10.7195 843.902 10.4851H844.629C844.639 10.683 844.697 10.8406 844.801 10.9578C844.905 11.0723 845.033 11.1544 845.184 11.2039C845.335 11.2507 845.484 11.2742 845.633 11.2742C845.831 11.2742 845.996 11.2481 846.129 11.196C846.264 11.144 846.367 11.0723 846.438 10.9812C846.508 10.8901 846.543 10.7859 846.543 10.6687Z" fill="#656A91"/>
<path d="M788.452 17.6804V24.7898H787.524V17.6804H788.452ZM790.737 17.6804V18.4519H785.244V17.6804H790.737ZM790.928 22.2068V22.0945C790.928 21.7136 790.983 21.3604 791.094 21.0349C791.204 20.7061 791.364 20.4213 791.572 20.1804C791.781 19.9363 792.033 19.7475 792.329 19.614C792.625 19.4773 792.957 19.4089 793.325 19.4089C793.696 19.4089 794.03 19.4773 794.326 19.614C794.626 19.7475 794.88 19.9363 795.088 20.1804C795.299 20.4213 795.461 20.7061 795.571 21.0349C795.682 21.3604 795.737 21.7136 795.737 22.0945V22.2068C795.737 22.5876 795.682 22.9408 795.571 23.2664C795.461 23.5919 795.299 23.8767 795.088 24.1208C794.88 24.3617 794.627 24.5505 794.331 24.6873C794.038 24.8207 793.706 24.8875 793.335 24.8875C792.964 24.8875 792.63 24.8207 792.334 24.6873C792.038 24.5505 791.784 24.3617 791.572 24.1208C791.364 23.8767 791.204 23.5919 791.094 23.2664C790.983 22.9408 790.928 22.5876 790.928 22.2068ZM791.831 22.0945V22.2068C791.831 22.4705 791.862 22.7195 791.924 22.9539C791.986 23.185 792.078 23.3901 792.202 23.5691C792.329 23.7481 792.487 23.8897 792.676 23.9939C792.865 24.0948 793.084 24.1453 793.335 24.1453C793.582 24.1453 793.799 24.0948 793.984 23.9939C794.173 23.8897 794.329 23.7481 794.453 23.5691C794.577 23.3901 794.67 23.185 794.731 22.9539C794.797 22.7195 794.829 22.4705 794.829 22.2068V22.0945C794.829 21.8341 794.797 21.5883 794.731 21.3572C794.67 21.1228 794.575 20.9161 794.448 20.7371C794.325 20.5548 794.168 20.4115 793.979 20.3074C793.794 20.2032 793.576 20.1511 793.325 20.1511C793.078 20.1511 792.86 20.2032 792.671 20.3074C792.485 20.4115 792.329 20.5548 792.202 20.7371C792.078 20.9161 791.986 21.1228 791.924 21.3572C791.862 21.5883 791.831 21.8341 791.831 22.0945ZM797.773 20.6345V24.7898H796.87V19.5066H797.725L797.773 20.6345ZM797.559 21.948L797.183 21.9333C797.186 21.572 797.24 21.2384 797.344 20.9324C797.448 20.6231 797.594 20.3546 797.783 20.1267C797.972 19.8988 798.197 19.7231 798.457 19.5994C798.721 19.4724 799.012 19.4089 799.331 19.4089C799.591 19.4089 799.826 19.4447 800.034 19.5164C800.243 19.5847 800.42 19.6954 800.566 19.8484C800.716 20.0014 800.83 20.2 800.908 20.4441C800.986 20.685 801.025 20.9796 801.025 21.3279V24.7898H800.117V21.3181C800.117 21.0414 800.076 20.8201 799.995 20.6541C799.914 20.4848 799.795 20.3627 799.639 20.2878C799.482 20.2097 799.29 20.1707 799.062 20.1707C798.838 20.1707 798.633 20.2179 798.447 20.3123C798.265 20.4067 798.107 20.5369 797.974 20.7029C797.843 20.8689 797.741 21.0593 797.666 21.2742C797.594 21.4858 797.559 21.7104 797.559 21.948ZM803.379 19.5066V24.7898H802.471V19.5066H803.379ZM802.402 18.1052C802.402 17.9587 802.446 17.835 802.534 17.7341C802.625 17.6332 802.759 17.5828 802.935 17.5828C803.107 17.5828 803.239 17.6332 803.33 17.7341C803.424 17.835 803.472 17.9587 803.472 18.1052C803.472 18.2452 803.424 18.3656 803.33 18.4666C803.239 18.5642 803.107 18.613 802.935 18.613C802.759 18.613 802.625 18.5642 802.534 18.4666C802.446 18.3656 802.402 18.2452 802.402 18.1052ZM809.37 24.7898H807.886L807.896 24.0232H809.37C809.878 24.0232 810.301 23.9174 810.64 23.7058C810.978 23.491 811.232 23.1915 811.401 22.8074C811.574 22.42 811.66 21.9675 811.66 21.45V21.0154C811.66 20.6085 811.611 20.2472 811.514 19.9314C811.416 19.6124 811.273 19.3438 811.084 19.1257C810.895 18.9044 810.664 18.7367 810.391 18.6228C810.12 18.5089 809.81 18.4519 809.458 18.4519H807.856V17.6804H809.458C809.924 17.6804 810.348 17.7585 810.732 17.9148C811.117 18.0678 811.447 18.2908 811.724 18.5837C812.004 18.8735 812.218 19.225 812.368 19.6384C812.518 20.0486 812.593 20.5108 812.593 21.0251V21.45C812.593 21.9643 812.518 22.4281 812.368 22.8416C812.218 23.2517 812.002 23.6016 811.719 23.8914C811.439 24.1811 811.1 24.4041 810.703 24.5603C810.309 24.7133 809.865 24.7898 809.37 24.7898ZM808.389 17.6804V24.7898H807.446V17.6804H808.389ZM816.987 23.8865V21.1667C816.987 20.9584 816.945 20.7778 816.86 20.6248C816.779 20.4685 816.655 20.3481 816.489 20.2634C816.323 20.1788 816.118 20.1365 815.874 20.1365C815.646 20.1365 815.446 20.1755 815.273 20.2537C815.104 20.3318 814.971 20.4343 814.873 20.5613C814.779 20.6882 814.731 20.825 814.731 20.9714H813.828C813.828 20.7826 813.877 20.5955 813.975 20.4099C814.072 20.2244 814.212 20.0567 814.395 19.907C814.58 19.754 814.801 19.6335 815.059 19.5457C815.319 19.4545 815.609 19.4089 815.928 19.4089C816.312 19.4089 816.65 19.474 816.943 19.6042C817.24 19.7345 817.471 19.9314 817.637 20.1951C817.806 20.4555 817.891 20.7826 817.891 21.1765V23.6375C817.891 23.8132 817.905 24.0004 817.935 24.199C817.967 24.3975 818.014 24.5684 818.076 24.7117V24.7898H817.134C817.088 24.6856 817.052 24.5473 817.026 24.3748C817 24.199 816.987 24.0362 816.987 23.8865ZM817.144 21.5867L817.153 22.2214H816.24C815.983 22.2214 815.754 22.2426 815.552 22.2849C815.35 22.324 815.181 22.3842 815.044 22.4656C814.907 22.547 814.803 22.6495 814.731 22.7732C814.66 22.8936 814.624 23.0352 814.624 23.198C814.624 23.364 814.661 23.5154 814.736 23.6521C814.811 23.7888 814.924 23.8979 815.073 23.9792C815.226 24.0574 815.413 24.0964 815.635 24.0964C815.911 24.0964 816.156 24.0378 816.367 23.9207C816.579 23.8035 816.746 23.6602 816.87 23.491C816.997 23.3217 817.065 23.1573 817.075 22.9978L817.461 23.4324C817.438 23.5691 817.376 23.7205 817.275 23.8865C817.174 24.0525 817.039 24.212 816.87 24.365C816.704 24.5147 816.506 24.6401 816.274 24.741C816.047 24.8386 815.789 24.8875 815.503 24.8875C815.145 24.8875 814.831 24.8175 814.561 24.6775C814.294 24.5375 814.085 24.3503 813.936 24.116C813.789 23.8783 813.716 23.613 813.716 23.3201C813.716 23.0369 813.771 22.7878 813.882 22.573C813.993 22.3549 814.152 22.1742 814.36 22.031C814.569 21.8845 814.819 21.7738 815.112 21.699C815.405 21.6241 815.732 21.5867 816.094 21.5867H817.144ZM820.84 23.9744L822.285 19.5066H823.208L821.309 24.7898H820.703L820.84 23.9744ZM819.634 19.5066L821.123 23.9988L821.226 24.7898H820.62L818.706 19.5066H819.634ZM825.059 19.5066V24.7898H824.15V19.5066H825.059ZM824.082 18.1052C824.082 17.9587 824.126 17.835 824.214 17.7341C824.305 17.6332 824.438 17.5828 824.614 17.5828C824.787 17.5828 824.919 17.6332 825.01 17.7341C825.104 17.835 825.151 17.9587 825.151 18.1052C825.151 18.2452 825.104 18.3656 825.01 18.4666C824.919 18.5642 824.787 18.613 824.614 18.613C824.438 18.613 824.305 18.5642 824.214 18.4666C824.126 18.3656 824.082 18.2452 824.082 18.1052ZM829.839 23.7644V17.2898H830.747V24.7898H829.917L829.839 23.7644ZM826.284 22.2068V22.1042C826.284 21.7006 826.333 21.3344 826.431 21.0056C826.532 20.6736 826.673 20.3888 826.855 20.1511C827.041 19.9135 827.261 19.7312 827.515 19.6042C827.772 19.474 828.058 19.4089 828.374 19.4089C828.706 19.4089 828.996 19.4675 829.243 19.5847C829.494 19.6986 829.705 19.8663 829.878 20.0876C830.054 20.3057 830.192 20.5694 830.293 20.8787C830.394 21.1879 830.464 21.5378 830.503 21.9285V22.3777C830.467 22.7651 830.397 23.1134 830.293 23.4226C830.192 23.7319 830.054 23.9955 829.878 24.2136C829.705 24.4317 829.494 24.5994 829.243 24.7166C828.993 24.8305 828.7 24.8875 828.364 24.8875C828.055 24.8875 827.772 24.8207 827.515 24.6873C827.261 24.5538 827.041 24.3666 826.855 24.1257C826.673 23.8848 826.532 23.6016 826.431 23.2761C826.333 22.9473 826.284 22.5909 826.284 22.2068ZM827.192 22.1042V22.2068C827.192 22.4705 827.218 22.7179 827.271 22.949C827.326 23.1801 827.41 23.3835 827.524 23.5593C827.638 23.7351 827.783 23.8735 827.959 23.9744C828.135 24.072 828.345 24.1208 828.589 24.1208C828.888 24.1208 829.134 24.0574 829.326 23.9304C829.521 23.8035 829.678 23.6358 829.795 23.4275C829.912 23.2192 830.003 22.9929 830.068 22.7488V21.572C830.029 21.393 829.972 21.2205 829.897 21.0544C829.826 20.8852 829.731 20.7354 829.614 20.6052C829.5 20.4718 829.359 20.366 829.189 20.2878C829.023 20.2097 828.826 20.1707 828.599 20.1707C828.351 20.1707 828.138 20.2227 827.959 20.3269C827.783 20.4278 827.638 20.5678 827.524 20.7468C827.41 20.9226 827.326 21.1277 827.271 21.3621C827.218 21.5932 827.192 21.8406 827.192 22.1042ZM835.229 23.3884C835.229 23.2582 835.2 23.1378 835.142 23.0271C835.086 22.9132 834.971 22.8106 834.795 22.7195C834.622 22.6251 834.362 22.5437 834.014 22.4753C833.721 22.4135 833.455 22.3403 833.218 22.2556C832.983 22.171 832.783 22.0684 832.617 21.948C832.454 21.8276 832.329 21.686 832.241 21.5232C832.153 21.3604 832.109 21.17 832.109 20.9519C832.109 20.7436 832.155 20.5466 832.246 20.3611C832.34 20.1755 832.472 20.0111 832.642 19.8679C832.814 19.7247 833.021 19.6124 833.262 19.531C833.503 19.4496 833.771 19.4089 834.067 19.4089C834.491 19.4089 834.852 19.4838 835.151 19.6335C835.451 19.7833 835.68 19.9835 835.84 20.2341C835.999 20.4815 836.079 20.7566 836.079 21.0593H835.176C835.176 20.9128 835.132 20.7712 835.044 20.6345C834.959 20.4945 834.834 20.379 834.668 20.2878C834.505 20.1967 834.305 20.1511 834.067 20.1511C833.817 20.1511 833.613 20.1902 833.457 20.2683C833.304 20.3432 833.192 20.4392 833.12 20.5564C833.052 20.6736 833.018 20.7973 833.018 20.9275C833.018 21.0251 833.034 21.113 833.066 21.1912C833.102 21.266 833.164 21.336 833.252 21.4011C833.34 21.463 833.464 21.5216 833.623 21.5769C833.783 21.6322 833.986 21.6876 834.233 21.7429C834.666 21.8406 835.023 21.9578 835.303 22.0945C835.583 22.2312 835.791 22.3988 835.928 22.5974C836.064 22.796 836.133 23.0369 836.133 23.3201C836.133 23.5512 836.084 23.7628 835.986 23.9548C835.892 24.1469 835.754 24.3129 835.571 24.4529C835.392 24.5896 835.177 24.697 834.927 24.7751C834.679 24.85 834.401 24.8875 834.092 24.8875C833.626 24.8875 833.232 24.8044 832.91 24.6384C832.588 24.4724 832.344 24.2576 832.178 23.9939C832.012 23.7302 831.929 23.4519 831.929 23.1589H832.837C832.85 23.4063 832.922 23.6033 833.052 23.7498C833.182 23.893 833.341 23.9955 833.53 24.0574C833.719 24.116 833.906 24.1453 834.092 24.1453C834.339 24.1453 834.546 24.1127 834.712 24.0476C834.881 23.9825 835.01 23.893 835.098 23.7791C835.186 23.6651 835.229 23.5349 835.229 23.3884ZM837.08 22.2068V22.0945C837.08 21.7136 837.135 21.3604 837.246 21.0349C837.357 20.7061 837.516 20.4213 837.725 20.1804C837.933 19.9363 838.185 19.7475 838.481 19.614C838.778 19.4773 839.11 19.4089 839.478 19.4089C839.849 19.4089 840.182 19.4773 840.479 19.614C840.778 19.7475 841.032 19.9363 841.24 20.1804C841.452 20.4213 841.613 20.7061 841.724 21.0349C841.834 21.3604 841.89 21.7136 841.89 22.0945V22.2068C841.89 22.5876 841.834 22.9408 841.724 23.2664C841.613 23.5919 841.452 23.8767 841.24 24.1208C841.032 24.3617 840.78 24.5505 840.483 24.6873C840.19 24.8207 839.858 24.8875 839.487 24.8875C839.116 24.8875 838.783 24.8207 838.486 24.6873C838.19 24.5505 837.936 24.3617 837.725 24.1208C837.516 23.8767 837.357 23.5919 837.246 23.2664C837.135 22.9408 837.08 22.5876 837.08 22.2068ZM837.983 22.0945V22.2068C837.983 22.4705 838.014 22.7195 838.076 22.9539C838.138 23.185 838.231 23.3901 838.354 23.5691C838.481 23.7481 838.639 23.8897 838.828 23.9939C839.017 24.0948 839.237 24.1453 839.487 24.1453C839.735 24.1453 839.951 24.0948 840.137 23.9939C840.326 23.8897 840.482 23.7481 840.605 23.5691C840.729 23.3901 840.822 23.185 840.884 22.9539C840.949 22.7195 840.981 22.4705 840.981 22.2068V22.0945C840.981 21.8341 840.949 21.5883 840.884 21.3572C840.822 21.1228 840.728 20.9161 840.601 20.7371C840.477 20.5548 840.321 20.4115 840.132 20.3074C839.946 20.2032 839.728 20.1511 839.478 20.1511C839.23 20.1511 839.012 20.2032 838.823 20.3074C838.638 20.4115 838.481 20.5548 838.354 20.7371C838.231 20.9161 838.138 21.1228 838.076 21.3572C838.014 21.5883 837.983 21.8341 837.983 22.0945ZM843.926 20.6345V24.7898H843.022V19.5066H843.877L843.926 20.6345ZM843.711 21.948L843.335 21.9333C843.338 21.572 843.392 21.2384 843.496 20.9324C843.6 20.6231 843.747 20.3546 843.936 20.1267C844.124 19.8988 844.349 19.7231 844.609 19.5994C844.873 19.4724 845.164 19.4089 845.483 19.4089C845.744 19.4089 845.978 19.4447 846.187 19.5164C846.395 19.5847 846.572 19.6954 846.719 19.8484C846.868 20.0014 846.982 20.2 847.061 20.4441C847.139 20.685 847.178 20.9796 847.178 21.3279V24.7898H846.27V21.3181C846.27 21.0414 846.229 20.8201 846.147 20.6541C846.066 20.4848 845.947 20.3627 845.791 20.2878C845.635 20.2097 845.443 20.1707 845.215 20.1707C844.99 20.1707 844.785 20.2179 844.6 20.3123C844.417 20.4067 844.259 20.5369 844.126 20.7029C843.996 20.8689 843.893 21.0593 843.818 21.2742C843.747 21.4858 843.711 21.7104 843.711 21.948Z" fill="#32375E"/>
<rect x="852" y="0.289795" width="34" height="32" rx="6" fill="#F0F5F9"/>
<path d="M865.625 11.7585V20.2898H864.512V11.7585H865.625ZM868.367 11.7585V12.6843H861.775V11.7585H868.367ZM871.941 20.2898H870.16L870.172 19.3699H871.941C872.551 19.3699 873.059 19.2429 873.465 18.989C873.871 18.7312 874.176 18.3718 874.379 17.9109C874.586 17.446 874.689 16.9031 874.689 16.282V15.7605C874.689 15.2722 874.631 14.8386 874.514 14.4597C874.396 14.0769 874.225 13.7546 873.998 13.4929C873.771 13.2273 873.494 13.0261 873.166 12.8894C872.842 12.7527 872.469 12.6843 872.047 12.6843H870.125V11.7585H872.047C872.605 11.7585 873.115 11.8523 873.576 12.0398C874.037 12.2234 874.434 12.491 874.766 12.8425C875.102 13.1902 875.359 13.6121 875.539 14.1082C875.719 14.6003 875.809 15.155 875.809 15.7722V16.282C875.809 16.8992 875.719 17.4558 875.539 17.9519C875.359 18.4441 875.1 18.864 874.76 19.2117C874.424 19.5593 874.018 19.8269 873.541 20.0144C873.068 20.198 872.535 20.2898 871.941 20.2898ZM870.764 11.7585V20.2898H869.633V11.7585H870.764Z" fill="#32375E"/>
</svg>
