<svg xmlns="http://www.w3.org/2000/svg" fill="none" viewBox="0 0 63 16"><path fill="#32375E" d="M.346 2.065v2.571h3.26L0 9.756v1.007h8.077V7.982H4.47l3.44-4.823V2.065H.346zm9.083 8.698V2.058h3.389v8.698l-3.389.007zm14.463 0V5.94c0-3.1-1.63-4.063-3.538-4.085-.955-.015-2.09.297-2.855 1.159l-.151-.949h-2.99v8.698h3.336V6.186c0-1.144.751-1.673 1.555-1.673.624 0 1.262.37 1.262 1.441v4.809h3.381zm1.293.616c-.18 2.658 1.63 4.28 4.876 4.28 2.584 0 5.13-1.058 5.13-3.875 0-.478-.111-1.709-1.78-2.622 1.045-.724 1.63-1.796 1.646-2.89a3.16 3.16 0 0 0-.864-2.339l1.18-1.34L32.938.922c-.293.369-.661.81-.969 1.195a5.685 5.685 0 0 0-1.87-.334c-2.803 0-5.042 1.724-5.042 4.455 0 2.694 1.999 4.381 5.041 4.381 1.225 0 1.63.529 1.63 1.159 0 .847-.788 1.253-1.667 1.253-.895 0-1.744-.297-1.706-1.651h-3.17zm4.913-6.939c.992 0 1.706.812 1.706 1.797 0 1.158-.804 1.709-1.706 1.709-.992 0-1.758-.667-1.758-1.71 0-1.165.766-1.796 1.758-1.796zM40.7 11.38c-.181 2.658 1.63 4.28 4.875 4.28 2.585 0 5.132-1.058 5.132-3.875 0-.478-.113-1.709-1.78-2.622 1.044-.724 1.63-1.796 1.645-2.89a3.16 3.16 0 0 0-.864-2.339l1.172-1.34L48.453.922c-.293.369-.66.81-.969 1.195a5.68 5.68 0 0 0-1.87-.334c-2.804 0-5.042 1.724-5.042 4.455 0 2.694 1.998 4.381 5.041 4.381 1.225 0 1.63.529 1.63 1.159 0 .847-.789 1.253-1.668 1.253-.901 0-1.743-.297-1.705-1.651H40.7zm4.913-6.939c.992 0 1.706.812 1.706 1.797 0 1.158-.805 1.709-1.706 1.709-.992 0-1.758-.667-1.758-1.71-.008-1.165.766-1.796 1.758-1.796zm6.371 6.939c-.18 2.658 1.63 4.28 4.876 4.28 2.585 0 5.132-1.058 5.132-3.875 0-.478-.113-1.709-1.78-2.622 1.043-.724 1.63-1.796 1.645-2.89a3.16 3.16 0 0 0-.864-2.339l1.172-1.34L59.738.922c-.293.369-.66.81-.97 1.195a5.68 5.68 0 0 0-1.87-.334c-2.803 0-5.041 1.724-5.041 4.455 0 2.694 1.998 4.381 5.041 4.381 1.225 0 1.63.529 1.63 1.159 0 .847-.789 1.253-1.668 1.253-.901 0-1.743-.297-1.705-1.651h-3.17zm4.914-6.939c.992 0 1.706.812 1.706 1.797 0 1.158-.805 1.709-1.706 1.709-.992 0-1.758-.667-1.758-1.71 0-1.165.766-1.796 1.758-1.796z"/><path fill="#3F7BDA" stroke="#3F7BDA" d="M37.827 4.752c.49 0 .83.177 1.051.422.226.25.346.594.344.947 0 .353-.12.697-.348.948-.222.246-.562.423-1.047.423-.474 0-.808-.176-1.028-.422a1.442 1.442 0 0 1-.348-.95 1.413 1.413 0 0 1 .338-.948c.217-.244.553-.42 1.038-.42z"/></svg>