<svg width="928" height="40" viewBox="0 0 928 40" fill="none" xmlns="http://www.w3.org/2000/svg">
<rect width="928" height="40" rx="12" fill="white"/>
<rect x="16" y="12" width="16" height="16" rx="4" fill="#3F7BDA"/>
<path d="M22.6665 22.115L28.7945 15.9863L29.7378 16.929L22.6665 24.0003L18.4238 19.7577L19.3665 18.815L22.6665 22.115Z" fill="white"/>
<g opacity="0.9">
<path d="M60.9092 19.001H61.5537C61.8695 19.001 62.1299 18.9489 62.335 18.8447C62.5433 18.7373 62.6979 18.5924 62.7988 18.4102C62.903 18.2246 62.9551 18.0163 62.9551 17.7852C62.9551 17.5117 62.9095 17.2822 62.8184 17.0967C62.7272 16.9111 62.5905 16.7712 62.4082 16.6768C62.2259 16.5824 61.9948 16.5352 61.7148 16.5352C61.4609 16.5352 61.2363 16.5856 61.041 16.6865C60.849 16.7842 60.6976 16.9242 60.5869 17.1064C60.4795 17.2887 60.4258 17.5036 60.4258 17.751H59.5225C59.5225 17.3896 59.6136 17.0609 59.7959 16.7646C59.9782 16.4684 60.2337 16.2324 60.5625 16.0566C60.8945 15.8809 61.2786 15.793 61.7148 15.793C62.1445 15.793 62.5205 15.8695 62.8428 16.0225C63.165 16.1722 63.4157 16.3968 63.5947 16.6963C63.7738 16.9925 63.8633 17.362 63.8633 17.8047C63.8633 17.9837 63.821 18.1758 63.7363 18.3809C63.6549 18.5827 63.5264 18.7715 63.3506 18.9473C63.1781 19.123 62.9535 19.2679 62.6768 19.3818C62.4001 19.4925 62.068 19.5479 61.6807 19.5479H60.9092V19.001ZM60.9092 19.7432V19.2012H61.6807C62.1331 19.2012 62.5075 19.2549 62.8037 19.3623C63.0999 19.4697 63.3327 19.613 63.502 19.792C63.6745 19.971 63.7949 20.168 63.8633 20.3828C63.9349 20.5944 63.9707 20.806 63.9707 21.0176C63.9707 21.3496 63.9137 21.6442 63.7998 21.9014C63.6891 22.1585 63.5312 22.3766 63.3262 22.5557C63.1243 22.7347 62.8867 22.8698 62.6133 22.9609C62.3398 23.0521 62.042 23.0977 61.7197 23.0977C61.4105 23.0977 61.1191 23.0537 60.8457 22.9658C60.5755 22.8779 60.3363 22.751 60.1279 22.585C59.9196 22.4157 59.7568 22.209 59.6396 21.9648C59.5225 21.7174 59.4639 21.4359 59.4639 21.1201H60.3672C60.3672 21.3675 60.4209 21.584 60.5283 21.7695C60.639 21.9551 60.7952 22.0999 60.9971 22.2041C61.2021 22.305 61.443 22.3555 61.7197 22.3555C61.9964 22.3555 62.234 22.3083 62.4326 22.2139C62.6344 22.1162 62.7891 21.9697 62.8965 21.7744C63.0072 21.5791 63.0625 21.3333 63.0625 21.0371C63.0625 20.7409 63.0007 20.4984 62.877 20.3096C62.7533 20.1175 62.5775 19.9759 62.3496 19.8848C62.125 19.7904 61.8597 19.7432 61.5537 19.7432H60.9092Z" fill="#32375E"/>
</g>
<g opacity="0.9">
<path d="M118.896 20.6074V21.3496H113.759V20.8174L116.942 15.8906H117.68L116.889 17.3164L114.784 20.6074H118.896ZM117.904 15.8906V23H117.001V15.8906H117.904ZM124.179 18.8789V19.9629C124.179 20.5456 124.127 21.0371 124.022 21.4375C123.918 21.8379 123.769 22.1602 123.573 22.4043C123.378 22.6484 123.142 22.8258 122.865 22.9365C122.592 23.0439 122.283 23.0977 121.938 23.0977C121.664 23.0977 121.412 23.0635 121.181 22.9951C120.95 22.9268 120.741 22.8177 120.556 22.668C120.373 22.515 120.217 22.3164 120.087 22.0723C119.957 21.8281 119.857 21.5319 119.789 21.1836C119.721 20.8353 119.687 20.4284 119.687 19.9629V18.8789C119.687 18.2962 119.739 17.8079 119.843 17.4141C119.95 17.0202 120.102 16.7044 120.297 16.4668C120.492 16.2259 120.727 16.0534 121 15.9492C121.277 15.8451 121.586 15.793 121.928 15.793C122.204 15.793 122.458 15.8271 122.689 15.8955C122.924 15.9606 123.132 16.0664 123.314 16.2129C123.497 16.3561 123.651 16.5482 123.778 16.7891C123.909 17.0267 124.008 17.318 124.076 17.6631C124.145 18.0081 124.179 18.4134 124.179 18.8789ZM123.271 20.1094V18.7275C123.271 18.4085 123.251 18.1286 123.212 17.8877C123.176 17.6436 123.122 17.4352 123.051 17.2627C122.979 17.0902 122.888 16.9502 122.777 16.8428C122.67 16.7354 122.545 16.6572 122.401 16.6084C122.261 16.5563 122.104 16.5303 121.928 16.5303C121.713 16.5303 121.522 16.571 121.356 16.6523C121.19 16.7305 121.05 16.8558 120.937 17.0283C120.826 17.2008 120.741 17.4271 120.683 17.707C120.624 17.987 120.595 18.3271 120.595 18.7275V20.1094C120.595 20.4284 120.613 20.71 120.648 20.9541C120.688 21.1982 120.744 21.4098 120.819 21.5889C120.894 21.7646 120.985 21.9095 121.093 22.0234C121.2 22.1374 121.324 22.222 121.464 22.2773C121.607 22.3294 121.765 22.3555 121.938 22.3555C122.159 22.3555 122.353 22.3132 122.519 22.2285C122.685 22.1439 122.823 22.012 122.934 21.833C123.048 21.6507 123.132 21.418 123.188 21.1348C123.243 20.8483 123.271 20.5065 123.271 20.1094ZM129.999 22.2578V23H125.346V22.3506L127.675 19.7578C127.961 19.4388 128.183 19.1686 128.339 18.9473C128.498 18.7227 128.609 18.5225 128.671 18.3467C128.736 18.1676 128.769 17.9854 128.769 17.7998C128.769 17.5654 128.72 17.3538 128.622 17.165C128.528 16.973 128.388 16.82 128.202 16.7061C128.017 16.5921 127.792 16.5352 127.528 16.5352C127.213 16.5352 126.949 16.597 126.737 16.7207C126.529 16.8411 126.373 17.0104 126.269 17.2285C126.164 17.4466 126.112 17.6973 126.112 17.9805H125.209C125.209 17.5801 125.297 17.2139 125.473 16.8818C125.648 16.5498 125.909 16.2861 126.254 16.0908C126.599 15.8923 127.024 15.793 127.528 15.793C127.978 15.793 128.362 15.8727 128.681 16.0322C129 16.1885 129.244 16.4098 129.413 16.6963C129.586 16.9795 129.672 17.3115 129.672 17.6924C129.672 17.9007 129.636 18.1123 129.564 18.3271C129.496 18.5387 129.4 18.7503 129.276 18.9619C129.156 19.1735 129.014 19.3818 128.852 19.5869C128.692 19.792 128.521 19.9938 128.339 20.1924L126.435 22.2578H129.999Z" fill="#32375E"/>
</g>
<g opacity="0.9">
<path d="M168.409 19.001H169.054C169.369 19.001 169.63 18.9489 169.835 18.8447C170.043 18.7373 170.198 18.5924 170.299 18.4102C170.403 18.2246 170.455 18.0163 170.455 17.7852C170.455 17.5117 170.41 17.2822 170.318 17.0967C170.227 16.9111 170.09 16.7712 169.908 16.6768C169.726 16.5824 169.495 16.5352 169.215 16.5352C168.961 16.5352 168.736 16.5856 168.541 16.6865C168.349 16.7842 168.198 16.9242 168.087 17.1064C167.979 17.2887 167.926 17.5036 167.926 17.751H167.022C167.022 17.3896 167.114 17.0609 167.296 16.7646C167.478 16.4684 167.734 16.2324 168.062 16.0566C168.395 15.8809 168.779 15.793 169.215 15.793C169.645 15.793 170.021 15.8695 170.343 16.0225C170.665 16.1722 170.916 16.3968 171.095 16.6963C171.274 16.9925 171.363 17.362 171.363 17.8047C171.363 17.9837 171.321 18.1758 171.236 18.3809C171.155 18.5827 171.026 18.7715 170.851 18.9473C170.678 19.123 170.453 19.2679 170.177 19.3818C169.9 19.4925 169.568 19.5479 169.181 19.5479H168.409V19.001ZM168.409 19.7432V19.2012H169.181C169.633 19.2012 170.007 19.2549 170.304 19.3623C170.6 19.4697 170.833 19.613 171.002 19.792C171.174 19.971 171.295 20.168 171.363 20.3828C171.435 20.5944 171.471 20.806 171.471 21.0176C171.471 21.3496 171.414 21.6442 171.3 21.9014C171.189 22.1585 171.031 22.3766 170.826 22.5557C170.624 22.7347 170.387 22.8698 170.113 22.9609C169.84 23.0521 169.542 23.0977 169.22 23.0977C168.91 23.0977 168.619 23.0537 168.346 22.9658C168.076 22.8779 167.836 22.751 167.628 22.585C167.42 22.4157 167.257 22.209 167.14 21.9648C167.022 21.7174 166.964 21.4359 166.964 21.1201H167.867C167.867 21.3675 167.921 21.584 168.028 21.7695C168.139 21.9551 168.295 22.0999 168.497 22.2041C168.702 22.305 168.943 22.3555 169.22 22.3555C169.496 22.3555 169.734 22.3083 169.933 22.2139C170.134 22.1162 170.289 21.9697 170.396 21.7744C170.507 21.5791 170.562 21.3333 170.562 21.0371C170.562 20.7409 170.501 20.4984 170.377 20.3096C170.253 20.1175 170.077 19.9759 169.85 19.8848C169.625 19.7904 169.36 19.7432 169.054 19.7432H168.409ZM173.858 19.6162L173.136 19.4307L173.492 15.8906H177.14V16.7256H174.259L174.044 18.6592C174.174 18.5843 174.339 18.5143 174.537 18.4492C174.739 18.3841 174.97 18.3516 175.23 18.3516C175.559 18.3516 175.854 18.4085 176.114 18.5225C176.375 18.6331 176.596 18.7926 176.778 19.001C176.964 19.2093 177.105 19.46 177.203 19.7529C177.301 20.0459 177.35 20.373 177.35 20.7344C177.35 21.0762 177.302 21.3903 177.208 21.6768C177.117 21.9632 176.979 22.2139 176.793 22.4287C176.607 22.6403 176.373 22.8047 176.09 22.9219C175.81 23.0391 175.479 23.0977 175.099 23.0977C174.812 23.0977 174.54 23.0586 174.283 22.9805C174.029 22.8991 173.801 22.777 173.6 22.6143C173.401 22.4482 173.238 22.2432 173.111 21.999C172.988 21.7516 172.91 21.4619 172.877 21.1299H173.736C173.775 21.3968 173.854 21.6214 173.971 21.8037C174.088 21.986 174.241 22.1243 174.43 22.2188C174.622 22.3099 174.845 22.3555 175.099 22.3555C175.313 22.3555 175.504 22.318 175.67 22.2432C175.836 22.1683 175.976 22.0609 176.09 21.9209C176.204 21.7809 176.29 21.6117 176.349 21.4131C176.41 21.2145 176.441 20.9915 176.441 20.7441C176.441 20.5195 176.41 20.3112 176.349 20.1191C176.287 19.9271 176.194 19.7594 176.07 19.6162C175.95 19.473 175.802 19.3623 175.626 19.2842C175.45 19.2028 175.248 19.1621 175.021 19.1621C174.718 19.1621 174.488 19.2028 174.332 19.2842C174.179 19.3656 174.021 19.4762 173.858 19.6162ZM182.804 18.8789V19.9629C182.804 20.5456 182.752 21.0371 182.647 21.4375C182.543 21.8379 182.394 22.1602 182.198 22.4043C182.003 22.6484 181.767 22.8258 181.49 22.9365C181.217 23.0439 180.908 23.0977 180.562 23.0977C180.289 23.0977 180.037 23.0635 179.806 22.9951C179.575 22.9268 179.366 22.8177 179.181 22.668C178.998 22.515 178.842 22.3164 178.712 22.0723C178.582 21.8281 178.482 21.5319 178.414 21.1836C178.346 20.8353 178.312 20.4284 178.312 19.9629V18.8789C178.312 18.2962 178.364 17.8079 178.468 17.4141C178.575 17.0202 178.727 16.7044 178.922 16.4668C179.117 16.2259 179.352 16.0534 179.625 15.9492C179.902 15.8451 180.211 15.793 180.553 15.793C180.829 15.793 181.083 15.8271 181.314 15.8955C181.549 15.9606 181.757 16.0664 181.939 16.2129C182.122 16.3561 182.276 16.5482 182.403 16.7891C182.534 17.0267 182.633 17.318 182.701 17.6631C182.77 18.0081 182.804 18.4134 182.804 18.8789ZM181.896 20.1094V18.7275C181.896 18.4085 181.876 18.1286 181.837 17.8877C181.801 17.6436 181.747 17.4352 181.676 17.2627C181.604 17.0902 181.513 16.9502 181.402 16.8428C181.295 16.7354 181.17 16.6572 181.026 16.6084C180.886 16.5563 180.729 16.5303 180.553 16.5303C180.338 16.5303 180.147 16.571 179.981 16.6523C179.815 16.7305 179.675 16.8558 179.562 17.0283C179.451 17.2008 179.366 17.4271 179.308 17.707C179.249 17.987 179.22 18.3271 179.22 18.7275V20.1094C179.22 20.4284 179.238 20.71 179.273 20.9541C179.312 21.1982 179.369 21.4098 179.444 21.5889C179.519 21.7646 179.61 21.9095 179.718 22.0234C179.825 22.1374 179.949 22.222 180.089 22.2773C180.232 22.3294 180.39 22.3555 180.562 22.3555C180.784 22.3555 180.978 22.3132 181.144 22.2285C181.31 22.1439 181.448 22.012 181.559 21.833C181.673 21.6507 181.757 21.418 181.812 21.1348C181.868 20.8483 181.896 20.5065 181.896 20.1094ZM184.078 22.5215C184.078 22.3685 184.125 22.2399 184.22 22.1357C184.317 22.0283 184.457 21.9746 184.64 21.9746C184.822 21.9746 184.96 22.0283 185.055 22.1357C185.152 22.2399 185.201 22.3685 185.201 22.5215C185.201 22.6712 185.152 22.7982 185.055 22.9023C184.96 23.0065 184.822 23.0586 184.64 23.0586C184.457 23.0586 184.317 23.0065 184.22 22.9023C184.125 22.7982 184.078 22.6712 184.078 22.5215ZM191.197 15.8906V16.3984L188.253 23H187.301L190.24 16.6328H186.393V15.8906H191.197ZM193.546 19.001H194.19C194.506 19.001 194.767 18.9489 194.972 18.8447C195.18 18.7373 195.335 18.5924 195.436 18.4102C195.54 18.2246 195.592 18.0163 195.592 17.7852C195.592 17.5117 195.546 17.2822 195.455 17.0967C195.364 16.9111 195.227 16.7712 195.045 16.6768C194.863 16.5824 194.632 16.5352 194.352 16.5352C194.098 16.5352 193.873 16.5856 193.678 16.6865C193.486 16.7842 193.334 16.9242 193.224 17.1064C193.116 17.2887 193.062 17.5036 193.062 17.751H192.159C192.159 17.3896 192.25 17.0609 192.433 16.7646C192.615 16.4684 192.87 16.2324 193.199 16.0566C193.531 15.8809 193.915 15.793 194.352 15.793C194.781 15.793 195.157 15.8695 195.479 16.0225C195.802 16.1722 196.052 16.3968 196.231 16.6963C196.41 16.9925 196.5 17.362 196.5 17.8047C196.5 17.9837 196.458 18.1758 196.373 18.3809C196.292 18.5827 196.163 18.7715 195.987 18.9473C195.815 19.123 195.59 19.2679 195.313 19.3818C195.037 19.4925 194.705 19.5479 194.317 19.5479H193.546V19.001ZM193.546 19.7432V19.2012H194.317C194.77 19.2012 195.144 19.2549 195.44 19.3623C195.737 19.4697 195.969 19.613 196.139 19.792C196.311 19.971 196.432 20.168 196.5 20.3828C196.572 20.5944 196.607 20.806 196.607 21.0176C196.607 21.3496 196.55 21.6442 196.437 21.9014C196.326 22.1585 196.168 22.3766 195.963 22.5557C195.761 22.7347 195.523 22.8698 195.25 22.9609C194.977 23.0521 194.679 23.0977 194.356 23.0977C194.047 23.0977 193.756 23.0537 193.482 22.9658C193.212 22.8779 192.973 22.751 192.765 22.585C192.556 22.4157 192.394 22.209 192.276 21.9648C192.159 21.7174 192.101 21.4359 192.101 21.1201H193.004C193.004 21.3675 193.058 21.584 193.165 21.7695C193.276 21.9551 193.432 22.0999 193.634 22.2041C193.839 22.305 194.08 22.3555 194.356 22.3555C194.633 22.3555 194.871 22.3083 195.069 22.2139C195.271 22.1162 195.426 21.9697 195.533 21.7744C195.644 21.5791 195.699 21.3333 195.699 21.0371C195.699 20.7409 195.637 20.4984 195.514 20.3096C195.39 20.1175 195.214 19.9759 194.986 19.8848C194.762 19.7904 194.496 19.7432 194.19 19.7432H193.546Z" fill="#32375E"/>
</g>
<path d="M245.333 14.6663H248C248.176 14.6663 248.346 14.7366 248.471 14.8616C248.596 14.9866 248.666 15.1562 248.666 15.333V25.9997C248.666 26.1765 248.596 26.3461 248.471 26.4711C248.346 26.5961 248.176 26.6663 248 26.6663H236C235.823 26.6663 235.653 26.5961 235.528 26.4711C235.403 26.3461 235.333 26.1765 235.333 25.9997V15.333C235.333 15.1562 235.403 14.9866 235.528 14.8616C235.653 14.7366 235.823 14.6663 236 14.6663H238.666V13.333H240V14.6663H244V13.333H245.333V14.6663ZM247.333 18.6663V15.9997H245.333V17.333H244V15.9997H240V17.333H238.666V15.9997H236.666V18.6663H247.333ZM247.333 19.9997H236.666V25.333H247.333V19.9997ZM238 21.333H241.333V23.9997H238V21.333Z" fill="#8E959C"/>
<path d="M370.985 15.8906L372.831 19.46L374.682 15.8906H375.751L373.3 20.3438V23H372.357V20.3438L369.906 15.8906H370.985ZM378.397 23.0977C378.03 23.0977 377.696 23.0358 377.396 22.9121C377.1 22.7852 376.845 22.6077 376.63 22.3799C376.418 22.152 376.256 21.8818 376.142 21.5693C376.028 21.2568 375.971 20.915 375.971 20.5439V20.3389C375.971 19.9092 376.034 19.5267 376.161 19.1914C376.288 18.8529 376.461 18.5664 376.679 18.332C376.897 18.0977 377.144 17.9202 377.421 17.7998C377.698 17.6794 377.984 17.6191 378.28 17.6191C378.658 17.6191 378.983 17.6842 379.257 17.8145C379.534 17.9447 379.76 18.127 379.936 18.3613C380.111 18.5924 380.242 18.8659 380.326 19.1816C380.411 19.4941 380.453 19.8359 380.453 20.207V20.6123H376.508V19.875H379.55V19.8066C379.537 19.5723 379.488 19.3444 379.403 19.123C379.322 18.9017 379.192 18.7194 379.013 18.5762C378.834 18.4329 378.59 18.3613 378.28 18.3613C378.075 18.3613 377.886 18.4053 377.714 18.4932C377.541 18.5778 377.393 18.7048 377.27 18.874C377.146 19.0433 377.05 19.25 376.981 19.4941C376.913 19.7383 376.879 20.0199 376.879 20.3389V20.5439C376.879 20.7946 376.913 21.0306 376.981 21.252C377.053 21.4701 377.156 21.6621 377.289 21.8281C377.426 21.9941 377.59 22.1243 377.782 22.2188C377.978 22.3132 378.199 22.3604 378.446 22.3604C378.765 22.3604 379.035 22.2952 379.257 22.165C379.478 22.0348 379.672 21.8607 379.838 21.6426L380.385 22.0771C380.271 22.2497 380.126 22.4141 379.95 22.5703C379.774 22.7266 379.558 22.8535 379.301 22.9512C379.047 23.0488 378.746 23.0977 378.397 23.0977ZM384.584 21.5986C384.584 21.4684 384.555 21.348 384.496 21.2373C384.441 21.1234 384.325 21.0208 384.149 20.9297C383.977 20.8353 383.716 20.7539 383.368 20.6855C383.075 20.6237 382.81 20.5505 382.572 20.4658C382.338 20.3812 382.138 20.2786 381.972 20.1582C381.809 20.0378 381.684 19.8962 381.596 19.7334C381.508 19.5706 381.464 19.3802 381.464 19.1621C381.464 18.9538 381.509 18.7568 381.601 18.5713C381.695 18.3857 381.827 18.2214 381.996 18.0781C382.169 17.9349 382.375 17.8226 382.616 17.7412C382.857 17.6598 383.126 17.6191 383.422 17.6191C383.845 17.6191 384.206 17.694 384.506 17.8438C384.805 17.9935 385.035 18.1937 385.194 18.4443C385.354 18.6917 385.434 18.9668 385.434 19.2695H384.53C384.53 19.123 384.486 18.9814 384.398 18.8447C384.314 18.7048 384.188 18.5892 384.022 18.498C383.86 18.4069 383.66 18.3613 383.422 18.3613C383.171 18.3613 382.968 18.4004 382.812 18.4785C382.659 18.5534 382.546 18.6494 382.475 18.7666C382.406 18.8838 382.372 19.0075 382.372 19.1377C382.372 19.2354 382.388 19.3232 382.421 19.4014C382.457 19.4762 382.519 19.5462 382.606 19.6113C382.694 19.6732 382.818 19.7318 382.978 19.7871C383.137 19.8424 383.34 19.8978 383.588 19.9531C384.021 20.0508 384.377 20.168 384.657 20.3047C384.937 20.4414 385.146 20.609 385.282 20.8076C385.419 21.0062 385.487 21.2471 385.487 21.5303C385.487 21.7614 385.438 21.973 385.341 22.165C385.246 22.3571 385.108 22.5231 384.926 22.6631C384.747 22.7998 384.532 22.9072 384.281 22.9854C384.034 23.0602 383.756 23.0977 383.446 23.0977C382.981 23.0977 382.587 23.0146 382.265 22.8486C381.942 22.6826 381.698 22.4678 381.532 22.2041C381.366 21.9404 381.283 21.6621 381.283 21.3691H382.191C382.204 21.6165 382.276 21.8135 382.406 21.96C382.536 22.1032 382.696 22.2057 382.885 22.2676C383.074 22.3262 383.261 22.3555 383.446 22.3555C383.694 22.3555 383.9 22.3229 384.066 22.2578C384.236 22.1927 384.364 22.1032 384.452 21.9893C384.54 21.8753 384.584 21.7451 384.584 21.5986Z" fill="#32375E"/>
<g opacity="0.9">
<path d="M491.721 18.8789V19.9629C491.721 20.5456 491.669 21.0371 491.564 21.4375C491.46 21.8379 491.311 22.1602 491.115 22.4043C490.92 22.6484 490.684 22.8258 490.407 22.9365C490.134 23.0439 489.825 23.0977 489.479 23.0977C489.206 23.0977 488.954 23.0635 488.723 22.9951C488.492 22.9268 488.283 22.8177 488.098 22.668C487.915 22.515 487.759 22.3164 487.629 22.0723C487.499 21.8281 487.399 21.5319 487.331 21.1836C487.263 20.8353 487.229 20.4284 487.229 19.9629V18.8789C487.229 18.2962 487.281 17.8079 487.385 17.4141C487.492 17.0202 487.644 16.7044 487.839 16.4668C488.034 16.2259 488.269 16.0534 488.542 15.9492C488.819 15.8451 489.128 15.793 489.47 15.793C489.746 15.793 490 15.8271 490.231 15.8955C490.466 15.9606 490.674 16.0664 490.856 16.2129C491.039 16.3561 491.193 16.5482 491.32 16.7891C491.451 17.0267 491.55 17.318 491.618 17.6631C491.687 18.0081 491.721 18.4134 491.721 18.8789ZM490.812 20.1094V18.7275C490.812 18.4085 490.793 18.1286 490.754 17.8877C490.718 17.6436 490.664 17.4352 490.593 17.2627C490.521 17.0902 490.43 16.9502 490.319 16.8428C490.212 16.7354 490.087 16.6572 489.943 16.6084C489.803 16.5563 489.646 16.5303 489.47 16.5303C489.255 16.5303 489.064 16.571 488.898 16.6523C488.732 16.7305 488.592 16.8558 488.479 17.0283C488.368 17.2008 488.283 17.4271 488.225 17.707C488.166 17.987 488.137 18.3271 488.137 18.7275V20.1094C488.137 20.4284 488.155 20.71 488.19 20.9541C488.229 21.1982 488.286 21.4098 488.361 21.5889C488.436 21.7646 488.527 21.9095 488.635 22.0234C488.742 22.1374 488.866 22.222 489.006 22.2773C489.149 22.3294 489.307 22.3555 489.479 22.3555C489.701 22.3555 489.895 22.3132 490.061 22.2285C490.227 22.1439 490.365 22.012 490.476 21.833C490.59 21.6507 490.674 21.418 490.729 21.1348C490.785 20.8483 490.812 20.5065 490.812 20.1094ZM495.852 15.8516V23H494.948V16.9795L493.127 17.6436V16.8281L495.71 15.8516H495.852ZM500.485 19.6064V20.3486H498.103V19.6064H500.485ZM504.138 16.5205L501.784 23H500.822L503.532 15.8906H504.152L504.138 16.5205ZM506.11 23L503.752 16.5205L503.737 15.8906H504.357L507.077 23H506.11ZM505.988 20.3682V21.1396H501.994V20.3682H505.988ZM508.796 18.7324V25.0312H507.888V17.7168H508.718L508.796 18.7324ZM512.355 20.3145V20.417C512.355 20.8011 512.31 21.1576 512.219 21.4863C512.128 21.8118 511.994 22.0951 511.818 22.3359C511.646 22.5768 511.433 22.764 511.179 22.8975C510.925 23.0309 510.633 23.0977 510.305 23.0977C509.969 23.0977 509.673 23.0423 509.416 22.9316C509.159 22.821 508.941 22.6598 508.762 22.4482C508.583 22.2367 508.439 21.9827 508.332 21.6865C508.228 21.3903 508.156 21.0566 508.117 20.6855V20.1387C508.156 19.748 508.229 19.3981 508.337 19.0889C508.444 18.7796 508.586 18.516 508.762 18.2979C508.941 18.0765 509.157 17.9089 509.411 17.7949C509.665 17.6777 509.958 17.6191 510.29 17.6191C510.622 17.6191 510.917 17.6842 511.174 17.8145C511.431 17.9414 511.647 18.1237 511.823 18.3613C511.999 18.599 512.131 18.8838 512.219 19.2158C512.31 19.5446 512.355 19.9108 512.355 20.3145ZM511.447 20.417V20.3145C511.447 20.0508 511.42 19.8034 511.364 19.5723C511.309 19.3379 511.223 19.1328 511.105 18.957C510.992 18.778 510.845 18.638 510.666 18.5371C510.487 18.4329 510.274 18.3809 510.026 18.3809C509.799 18.3809 509.6 18.4199 509.431 18.498C509.265 18.5762 509.123 18.682 509.006 18.8154C508.889 18.9456 508.793 19.0954 508.718 19.2646C508.646 19.4307 508.592 19.6032 508.557 19.7822V21.0469C508.622 21.2747 508.713 21.4896 508.83 21.6914C508.947 21.89 509.104 22.0511 509.299 22.1748C509.494 22.2952 509.74 22.3555 510.036 22.3555C510.28 22.3555 510.49 22.305 510.666 22.2041C510.845 22.0999 510.992 21.9583 511.105 21.7793C511.223 21.6003 511.309 21.3952 511.364 21.1641C511.42 20.9297 511.447 20.6807 511.447 20.417ZM514.411 18.5469V23H513.508V17.7168H514.387L514.411 18.5469ZM516.062 17.6875L516.057 18.5273C515.982 18.5111 515.91 18.5013 515.842 18.498C515.777 18.4915 515.702 18.4883 515.617 18.4883C515.409 18.4883 515.225 18.5208 515.065 18.5859C514.906 18.651 514.771 18.7422 514.66 18.8594C514.549 18.9766 514.462 19.1165 514.396 19.2793C514.335 19.4388 514.294 19.6146 514.274 19.8066L514.021 19.9531C514.021 19.6341 514.051 19.3346 514.113 19.0547C514.178 18.7747 514.278 18.5273 514.411 18.3125C514.545 18.0944 514.714 17.9251 514.919 17.8047C515.127 17.681 515.375 17.6191 515.661 17.6191C515.726 17.6191 515.801 17.6273 515.886 17.6436C515.97 17.6566 516.029 17.6712 516.062 17.6875ZM518.776 19.6064V20.3486H516.394V19.6064H518.776ZM524.221 22.2578V23H519.567V22.3506L521.896 19.7578C522.183 19.4388 522.404 19.1686 522.561 18.9473C522.72 18.7227 522.831 18.5225 522.893 18.3467C522.958 18.1676 522.99 17.9854 522.99 17.7998C522.99 17.5654 522.941 17.3538 522.844 17.165C522.749 16.973 522.609 16.82 522.424 16.7061C522.238 16.5921 522.014 16.5352 521.75 16.5352C521.434 16.5352 521.171 16.597 520.959 16.7207C520.751 16.8411 520.594 17.0104 520.49 17.2285C520.386 17.4466 520.334 17.6973 520.334 17.9805H519.431C519.431 17.5801 519.519 17.2139 519.694 16.8818C519.87 16.5498 520.131 16.2861 520.476 16.0908C520.821 15.8923 521.245 15.793 521.75 15.793C522.199 15.793 522.583 15.8727 522.902 16.0322C523.221 16.1885 523.465 16.4098 523.635 16.6963C523.807 16.9795 523.894 17.3115 523.894 17.6924C523.894 17.9007 523.858 18.1123 523.786 18.3271C523.718 18.5387 523.622 18.7503 523.498 18.9619C523.378 19.1735 523.236 19.3818 523.073 19.5869C522.914 19.792 522.743 19.9938 522.561 20.1924L520.656 22.2578H524.221ZM529.846 22.2578V23H525.192V22.3506L527.521 19.7578C527.808 19.4388 528.029 19.1686 528.186 18.9473C528.345 18.7227 528.456 18.5225 528.518 18.3467C528.583 18.1676 528.615 17.9854 528.615 17.7998C528.615 17.5654 528.566 17.3538 528.469 17.165C528.374 16.973 528.234 16.82 528.049 16.7061C527.863 16.5921 527.639 16.5352 527.375 16.5352C527.059 16.5352 526.796 16.597 526.584 16.7207C526.376 16.8411 526.219 17.0104 526.115 17.2285C526.011 17.4466 525.959 17.6973 525.959 17.9805H525.056C525.056 17.5801 525.144 17.2139 525.319 16.8818C525.495 16.5498 525.756 16.2861 526.101 16.0908C526.446 15.8923 526.87 15.793 527.375 15.793C527.824 15.793 528.208 15.8727 528.527 16.0322C528.846 16.1885 529.09 16.4098 529.26 16.6963C529.432 16.9795 529.519 17.3115 529.519 17.6924C529.519 17.9007 529.483 18.1123 529.411 18.3271C529.343 18.5387 529.247 18.7503 529.123 18.9619C529.003 19.1735 528.861 19.3818 528.698 19.5869C528.539 19.792 528.368 19.9938 528.186 20.1924L526.281 22.2578H529.846ZM536.262 15.8516V23H535.358V16.9795L533.537 17.6436V16.8281L536.12 15.8516H536.262ZM542.385 15.8809H542.463V16.6475H542.385C541.906 16.6475 541.506 16.7256 541.184 16.8818C540.861 17.0348 540.606 17.2415 540.417 17.502C540.228 17.7591 540.091 18.0488 540.007 18.3711C539.925 18.6934 539.885 19.0205 539.885 19.3525V20.3975C539.885 20.7132 539.922 20.9932 539.997 21.2373C540.072 21.4782 540.174 21.6816 540.305 21.8477C540.435 22.0137 540.581 22.139 540.744 22.2236C540.91 22.3083 541.083 22.3506 541.262 22.3506C541.47 22.3506 541.656 22.3115 541.818 22.2334C541.981 22.152 542.118 22.0397 542.229 21.8965C542.342 21.75 542.429 21.5775 542.487 21.3789C542.546 21.1803 542.575 20.9622 542.575 20.7246C542.575 20.513 542.549 20.3096 542.497 20.1143C542.445 19.9157 542.365 19.7399 542.258 19.5869C542.15 19.4307 542.015 19.3086 541.853 19.2207C541.693 19.1296 541.503 19.084 541.281 19.084C541.031 19.084 540.796 19.1458 540.578 19.2695C540.363 19.39 540.186 19.5495 540.046 19.748C539.909 19.9434 539.831 20.1566 539.812 20.3877L539.333 20.3828C539.379 20.0182 539.463 19.7074 539.587 19.4502C539.714 19.1898 539.87 18.9782 540.056 18.8154C540.244 18.6494 540.454 18.529 540.686 18.4541C540.92 18.376 541.167 18.3369 541.428 18.3369C541.783 18.3369 542.089 18.4036 542.346 18.5371C542.603 18.6706 542.814 18.8496 542.98 19.0742C543.146 19.2956 543.269 19.5462 543.347 19.8262C543.428 20.1029 543.469 20.3877 543.469 20.6807C543.469 21.016 543.422 21.3301 543.327 21.623C543.233 21.916 543.091 22.1732 542.902 22.3945C542.717 22.6159 542.487 22.7884 542.214 22.9121C541.94 23.0358 541.623 23.0977 541.262 23.0977C540.878 23.0977 540.542 23.0195 540.256 22.8633C539.969 22.7038 539.732 22.4922 539.543 22.2285C539.354 21.9648 539.213 21.6719 539.118 21.3496C539.024 21.0273 538.977 20.7002 538.977 20.3682V19.9434C538.977 19.4421 539.027 18.9505 539.128 18.4688C539.229 17.987 539.403 17.5508 539.65 17.1602C539.901 16.7695 540.248 16.4587 540.69 16.2275C541.133 15.9964 541.698 15.8809 542.385 15.8809ZM544.602 22.5215C544.602 22.3685 544.649 22.2399 544.743 22.1357C544.841 22.0283 544.981 21.9746 545.163 21.9746C545.345 21.9746 545.484 22.0283 545.578 22.1357C545.676 22.2399 545.725 22.3685 545.725 22.5215C545.725 22.6712 545.676 22.7982 545.578 22.9023C545.484 23.0065 545.345 23.0586 545.163 23.0586C544.981 23.0586 544.841 23.0065 544.743 22.9023C544.649 22.7982 544.602 22.6712 544.602 22.5215ZM544.606 18.21C544.606 18.057 544.654 17.9284 544.748 17.8242C544.846 17.7168 544.986 17.6631 545.168 17.6631C545.35 17.6631 545.489 17.7168 545.583 17.8242C545.681 17.9284 545.729 18.057 545.729 18.21C545.729 18.3597 545.681 18.4867 545.583 18.5908C545.489 18.695 545.35 18.7471 545.168 18.7471C544.986 18.7471 544.846 18.695 544.748 18.5908C544.654 18.4867 544.606 18.3597 544.606 18.21ZM551.428 18.8789V19.9629C551.428 20.5456 551.376 21.0371 551.271 21.4375C551.167 21.8379 551.018 22.1602 550.822 22.4043C550.627 22.6484 550.391 22.8258 550.114 22.9365C549.841 23.0439 549.532 23.0977 549.187 23.0977C548.913 23.0977 548.661 23.0635 548.43 22.9951C548.199 22.9268 547.99 22.8177 547.805 22.668C547.622 22.515 547.466 22.3164 547.336 22.0723C547.206 21.8281 547.106 21.5319 547.038 21.1836C546.97 20.8353 546.936 20.4284 546.936 19.9629V18.8789C546.936 18.2962 546.988 17.8079 547.092 17.4141C547.199 17.0202 547.351 16.7044 547.546 16.4668C547.741 16.2259 547.976 16.0534 548.249 15.9492C548.526 15.8451 548.835 15.793 549.177 15.793C549.453 15.793 549.707 15.8271 549.938 15.8955C550.173 15.9606 550.381 16.0664 550.563 16.2129C550.746 16.3561 550.9 16.5482 551.027 16.7891C551.158 17.0267 551.257 17.318 551.325 17.6631C551.394 18.0081 551.428 18.4134 551.428 18.8789ZM550.52 20.1094V18.7275C550.52 18.4085 550.5 18.1286 550.461 17.8877C550.425 17.6436 550.371 17.4352 550.3 17.2627C550.228 17.0902 550.137 16.9502 550.026 16.8428C549.919 16.7354 549.794 16.6572 549.65 16.6084C549.51 16.5563 549.353 16.5303 549.177 16.5303C548.962 16.5303 548.771 16.571 548.605 16.6523C548.439 16.7305 548.299 16.8558 548.186 17.0283C548.075 17.2008 547.99 17.4271 547.932 17.707C547.873 17.987 547.844 18.3271 547.844 18.7275V20.1094C547.844 20.4284 547.862 20.71 547.897 20.9541C547.937 21.1982 547.993 21.4098 548.068 21.5889C548.143 21.7646 548.234 21.9095 548.342 22.0234C548.449 22.1374 548.573 22.222 548.713 22.2773C548.856 22.3294 549.014 22.3555 549.187 22.3555C549.408 22.3555 549.602 22.3132 549.768 22.2285C549.934 22.1439 550.072 22.012 550.183 21.833C550.297 21.6507 550.381 21.418 550.437 21.1348C550.492 20.8483 550.52 20.5065 550.52 20.1094ZM557.053 18.8789V19.9629C557.053 20.5456 557.001 21.0371 556.896 21.4375C556.792 21.8379 556.643 22.1602 556.447 22.4043C556.252 22.6484 556.016 22.8258 555.739 22.9365C555.466 23.0439 555.157 23.0977 554.812 23.0977C554.538 23.0977 554.286 23.0635 554.055 22.9951C553.824 22.9268 553.615 22.8177 553.43 22.668C553.247 22.515 553.091 22.3164 552.961 22.0723C552.831 21.8281 552.731 21.5319 552.663 21.1836C552.595 20.8353 552.561 20.4284 552.561 19.9629V18.8789C552.561 18.2962 552.613 17.8079 552.717 17.4141C552.824 17.0202 552.976 16.7044 553.171 16.4668C553.366 16.2259 553.601 16.0534 553.874 15.9492C554.151 15.8451 554.46 15.793 554.802 15.793C555.078 15.793 555.332 15.8271 555.563 15.8955C555.798 15.9606 556.006 16.0664 556.188 16.2129C556.371 16.3561 556.525 16.5482 556.652 16.7891C556.783 17.0267 556.882 17.318 556.95 17.6631C557.019 18.0081 557.053 18.4134 557.053 18.8789ZM556.145 20.1094V18.7275C556.145 18.4085 556.125 18.1286 556.086 17.8877C556.05 17.6436 555.996 17.4352 555.925 17.2627C555.853 17.0902 555.762 16.9502 555.651 16.8428C555.544 16.7354 555.419 16.6572 555.275 16.6084C555.135 16.5563 554.978 16.5303 554.802 16.5303C554.587 16.5303 554.396 16.571 554.23 16.6523C554.064 16.7305 553.924 16.8558 553.811 17.0283C553.7 17.2008 553.615 17.4271 553.557 17.707C553.498 17.987 553.469 18.3271 553.469 18.7275V20.1094C553.469 20.4284 553.487 20.71 553.522 20.9541C553.562 21.1982 553.618 21.4098 553.693 21.5889C553.768 21.7646 553.859 21.9095 553.967 22.0234C554.074 22.1374 554.198 22.222 554.338 22.2773C554.481 22.3294 554.639 22.3555 554.812 22.3555C555.033 22.3555 555.227 22.3132 555.393 22.2285C555.559 22.1439 555.697 22.012 555.808 21.833C555.922 21.6507 556.006 21.418 556.062 21.1348C556.117 20.8483 556.145 20.5065 556.145 20.1094ZM564.997 15.8906H565.935V20.7002C565.935 21.234 565.816 21.6784 565.578 22.0332C565.34 22.388 565.025 22.6549 564.631 22.834C564.24 23.0098 563.815 23.0977 563.356 23.0977C562.875 23.0977 562.438 23.0098 562.048 22.834C561.66 22.6549 561.353 22.388 561.125 22.0332C560.9 21.6784 560.788 21.234 560.788 20.7002V15.8906H561.721V20.7002C561.721 21.0713 561.789 21.3773 561.926 21.6182C562.062 21.859 562.253 22.0381 562.497 22.1553C562.744 22.2725 563.031 22.3311 563.356 22.3311C563.685 22.3311 563.972 22.2725 564.216 22.1553C564.463 22.0381 564.655 21.859 564.792 21.6182C564.929 21.3773 564.997 21.0713 564.997 20.7002V15.8906ZM570.041 15.8906V23H569.113V15.8906H570.041ZM572.326 15.8906V16.6621H566.833V15.8906H572.326ZM577.536 20.7393H578.474C578.425 21.1885 578.296 21.5905 578.088 21.9453C577.88 22.3001 577.585 22.5817 577.204 22.79C576.823 22.9951 576.348 23.0977 575.778 23.0977C575.362 23.0977 574.982 23.0195 574.641 22.8633C574.302 22.707 574.011 22.4857 573.767 22.1992C573.522 21.9095 573.334 21.5628 573.2 21.1592C573.07 20.7523 573.005 20.2998 573.005 19.8018V19.0938C573.005 18.5957 573.07 18.1449 573.2 17.7412C573.334 17.3343 573.524 16.986 573.771 16.6963C574.022 16.4066 574.323 16.1836 574.675 16.0273C575.026 15.8711 575.422 15.793 575.861 15.793C576.398 15.793 576.853 15.8939 577.224 16.0957C577.595 16.2975 577.883 16.5775 578.088 16.9355C578.296 17.2904 578.425 17.7021 578.474 18.1709H577.536C577.491 17.8389 577.406 17.554 577.282 17.3164C577.159 17.0755 576.983 16.89 576.755 16.7598C576.527 16.6296 576.229 16.5645 575.861 16.5645C575.546 16.5645 575.267 16.6247 575.026 16.7451C574.789 16.8656 574.589 17.0365 574.426 17.2578C574.266 17.4792 574.146 17.7445 574.064 18.0537C573.983 18.363 573.942 18.7064 573.942 19.084V19.8018C573.942 20.1501 573.978 20.4772 574.05 20.7832C574.125 21.0892 574.237 21.3577 574.387 21.5889C574.536 21.82 574.727 22.0023 574.958 22.1357C575.189 22.266 575.463 22.3311 575.778 22.3311C576.179 22.3311 576.498 22.2676 576.735 22.1406C576.973 22.0137 577.152 21.8314 577.272 21.5938C577.396 21.3561 577.484 21.0713 577.536 20.7393Z" fill="#32375E"/>
</g>
<g opacity="0.9">
<path d="M823.054 18.8789V19.9629C823.054 20.5456 823.002 21.0371 822.897 21.4375C822.793 21.8379 822.644 22.1602 822.448 22.4043C822.253 22.6484 822.017 22.8258 821.74 22.9365C821.467 23.0439 821.158 23.0977 820.812 23.0977C820.539 23.0977 820.287 23.0635 820.056 22.9951C819.825 22.9268 819.616 22.8177 819.431 22.668C819.248 22.515 819.092 22.3164 818.962 22.0723C818.832 21.8281 818.732 21.5319 818.664 21.1836C818.596 20.8353 818.562 20.4284 818.562 19.9629V18.8789C818.562 18.2962 818.614 17.8079 818.718 17.4141C818.825 17.0202 818.977 16.7044 819.172 16.4668C819.367 16.2259 819.602 16.0534 819.875 15.9492C820.152 15.8451 820.461 15.793 820.803 15.793C821.079 15.793 821.333 15.8271 821.564 15.8955C821.799 15.9606 822.007 16.0664 822.189 16.2129C822.372 16.3561 822.526 16.5482 822.653 16.7891C822.784 17.0267 822.883 17.318 822.951 17.6631C823.02 18.0081 823.054 18.4134 823.054 18.8789ZM822.146 20.1094V18.7275C822.146 18.4085 822.126 18.1286 822.087 17.8877C822.051 17.6436 821.997 17.4352 821.926 17.2627C821.854 17.0902 821.763 16.9502 821.652 16.8428C821.545 16.7354 821.42 16.6572 821.276 16.6084C821.136 16.5563 820.979 16.5303 820.803 16.5303C820.588 16.5303 820.397 16.571 820.231 16.6523C820.065 16.7305 819.925 16.8558 819.812 17.0283C819.701 17.2008 819.616 17.4271 819.558 17.707C819.499 17.987 819.47 18.3271 819.47 18.7275V20.1094C819.47 20.4284 819.488 20.71 819.523 20.9541C819.562 21.1982 819.619 21.4098 819.694 21.5889C819.769 21.7646 819.86 21.9095 819.968 22.0234C820.075 22.1374 820.199 22.222 820.339 22.2773C820.482 22.3294 820.64 22.3555 820.812 22.3555C821.034 22.3555 821.228 22.3132 821.394 22.2285C821.56 22.1439 821.698 22.012 821.809 21.833C821.923 21.6507 822.007 21.418 822.062 21.1348C822.118 20.8483 822.146 20.5065 822.146 20.1094ZM827.185 15.8516V23H826.281V16.9795L824.46 17.6436V16.8281L827.043 15.8516H827.185ZM831.818 19.6064V20.3486H829.436V19.6064H831.818ZM833.781 15.8906V23H832.839V15.8906H833.781ZM836.76 19.0889V19.8604H833.576V19.0889H836.76ZM837.243 15.8906V16.6621H833.576V15.8906H837.243ZM840.314 23.0977C839.947 23.0977 839.613 23.0358 839.313 22.9121C839.017 22.7852 838.762 22.6077 838.547 22.3799C838.335 22.152 838.173 21.8818 838.059 21.5693C837.945 21.2568 837.888 20.915 837.888 20.5439V20.3389C837.888 19.9092 837.951 19.5267 838.078 19.1914C838.205 18.8529 838.378 18.5664 838.596 18.332C838.814 18.0977 839.061 17.9202 839.338 17.7998C839.615 17.6794 839.901 17.6191 840.197 17.6191C840.575 17.6191 840.9 17.6842 841.174 17.8145C841.451 17.9447 841.677 18.127 841.853 18.3613C842.028 18.5924 842.159 18.8659 842.243 19.1816C842.328 19.4941 842.37 19.8359 842.37 20.207V20.6123H838.425V19.875H841.467V19.8066C841.454 19.5723 841.405 19.3444 841.32 19.123C841.239 18.9017 841.109 18.7194 840.93 18.5762C840.751 18.4329 840.507 18.3613 840.197 18.3613C839.992 18.3613 839.803 18.4053 839.631 18.4932C839.458 18.5778 839.31 18.7048 839.187 18.874C839.063 19.0433 838.967 19.25 838.898 19.4941C838.83 19.7383 838.796 20.0199 838.796 20.3389V20.5439C838.796 20.7946 838.83 21.0306 838.898 21.252C838.97 21.4701 839.073 21.6621 839.206 21.8281C839.343 21.9941 839.507 22.1243 839.699 22.2188C839.895 22.3132 840.116 22.3604 840.363 22.3604C840.682 22.3604 840.952 22.2952 841.174 22.165C841.395 22.0348 841.589 21.8607 841.755 21.6426L842.302 22.0771C842.188 22.2497 842.043 22.4141 841.867 22.5703C841.691 22.7266 841.475 22.8535 841.218 22.9512C840.964 23.0488 840.663 23.0977 840.314 23.0977ZM843.42 15.5H844.328V21.9746L844.25 23H843.42V15.5ZM847.897 20.3145V20.417C847.897 20.8011 847.852 21.1576 847.761 21.4863C847.67 21.8118 847.536 22.0951 847.36 22.3359C847.185 22.5768 846.97 22.764 846.716 22.8975C846.462 23.0309 846.171 23.0977 845.842 23.0977C845.507 23.0977 845.212 23.0407 844.958 22.9268C844.707 22.8096 844.496 22.6419 844.323 22.4238C844.151 22.2057 844.012 21.9421 843.908 21.6328C843.807 21.3236 843.737 20.9753 843.698 20.5879V20.1387C843.737 19.748 843.807 19.3981 843.908 19.0889C844.012 18.7796 844.151 18.516 844.323 18.2979C844.496 18.0765 844.707 17.9089 844.958 17.7949C845.209 17.6777 845.5 17.6191 845.832 17.6191C846.164 17.6191 846.459 17.6842 846.716 17.8145C846.973 17.9414 847.188 18.1237 847.36 18.3613C847.536 18.599 847.67 18.8838 847.761 19.2158C847.852 19.5446 847.897 19.9108 847.897 20.3145ZM846.989 20.417V20.3145C846.989 20.0508 846.965 19.8034 846.916 19.5723C846.867 19.3379 846.789 19.1328 846.682 18.957C846.574 18.778 846.433 18.638 846.257 18.5371C846.081 18.4329 845.865 18.3809 845.607 18.3809C845.38 18.3809 845.181 18.4199 845.012 18.498C844.846 18.5762 844.704 18.682 844.587 18.8154C844.47 18.9456 844.374 19.0954 844.299 19.2646C844.227 19.4307 844.174 19.6032 844.138 19.7822V20.959C844.19 21.1868 844.274 21.4066 844.392 21.6182C844.512 21.8265 844.672 21.9974 844.87 22.1309C845.072 22.2643 845.321 22.3311 845.617 22.3311C845.861 22.3311 846.07 22.2822 846.242 22.1846C846.418 22.0837 846.56 21.9453 846.667 21.7695C846.778 21.5938 846.859 21.3903 846.911 21.1592C846.963 20.9281 846.989 20.6807 846.989 20.417ZM850.92 19.6064V20.3486H848.537V19.6064H850.92ZM856.364 22.2578V23H851.711V22.3506L854.04 19.7578C854.326 19.4388 854.548 19.1686 854.704 18.9473C854.864 18.7227 854.974 18.5225 855.036 18.3467C855.101 18.1676 855.134 17.9854 855.134 17.7998C855.134 17.5654 855.085 17.3538 854.987 17.165C854.893 16.973 854.753 16.82 854.567 16.7061C854.382 16.5921 854.157 16.5352 853.894 16.5352C853.578 16.5352 853.314 16.597 853.103 16.7207C852.894 16.8411 852.738 17.0104 852.634 17.2285C852.53 17.4466 852.478 17.6973 852.478 17.9805H851.574C851.574 17.5801 851.662 17.2139 851.838 16.8818C852.014 16.5498 852.274 16.2861 852.619 16.0908C852.964 15.8923 853.389 15.793 853.894 15.793C854.343 15.793 854.727 15.8727 855.046 16.0322C855.365 16.1885 855.609 16.4098 855.778 16.6963C855.951 16.9795 856.037 17.3115 856.037 17.6924C856.037 17.9007 856.001 18.1123 855.93 18.3271C855.861 18.5387 855.765 18.7503 855.642 18.9619C855.521 19.1735 855.38 19.3818 855.217 19.5869C855.057 19.792 854.886 19.9938 854.704 20.1924L852.8 22.2578H856.364ZM861.989 22.2578V23H857.336V22.3506L859.665 19.7578C859.951 19.4388 860.173 19.1686 860.329 18.9473C860.489 18.7227 860.599 18.5225 860.661 18.3467C860.726 18.1676 860.759 17.9854 860.759 17.7998C860.759 17.5654 860.71 17.3538 860.612 17.165C860.518 16.973 860.378 16.82 860.192 16.7061C860.007 16.5921 859.782 16.5352 859.519 16.5352C859.203 16.5352 858.939 16.597 858.728 16.7207C858.519 16.8411 858.363 17.0104 858.259 17.2285C858.155 17.4466 858.103 17.6973 858.103 17.9805H857.199C857.199 17.5801 857.287 17.2139 857.463 16.8818C857.639 16.5498 857.899 16.2861 858.244 16.0908C858.589 15.8923 859.014 15.793 859.519 15.793C859.968 15.793 860.352 15.8727 860.671 16.0322C860.99 16.1885 861.234 16.4098 861.403 16.6963C861.576 16.9795 861.662 17.3115 861.662 17.6924C861.662 17.9007 861.626 18.1123 861.555 18.3271C861.486 18.5387 861.39 18.7503 861.267 18.9619C861.146 19.1735 861.005 19.3818 860.842 19.5869C860.682 19.792 860.511 19.9938 860.329 20.1924L858.425 22.2578H861.989ZM868.405 15.8516V23H867.502V16.9795L865.681 17.6436V16.8281L868.264 15.8516H868.405ZM874.528 15.8809H874.606V16.6475H874.528C874.05 16.6475 873.649 16.7256 873.327 16.8818C873.005 17.0348 872.749 17.2415 872.561 17.502C872.372 17.7591 872.235 18.0488 872.15 18.3711C872.069 18.6934 872.028 19.0205 872.028 19.3525V20.3975C872.028 20.7132 872.066 20.9932 872.141 21.2373C872.215 21.4782 872.318 21.6816 872.448 21.8477C872.578 22.0137 872.725 22.139 872.888 22.2236C873.054 22.3083 873.226 22.3506 873.405 22.3506C873.614 22.3506 873.799 22.3115 873.962 22.2334C874.125 22.152 874.261 22.0397 874.372 21.8965C874.486 21.75 874.572 21.5775 874.631 21.3789C874.689 21.1803 874.719 20.9622 874.719 20.7246C874.719 20.513 874.693 20.3096 874.641 20.1143C874.589 19.9157 874.509 19.7399 874.401 19.5869C874.294 19.4307 874.159 19.3086 873.996 19.2207C873.837 19.1296 873.646 19.084 873.425 19.084C873.174 19.084 872.94 19.1458 872.722 19.2695C872.507 19.39 872.329 19.5495 872.189 19.748C872.053 19.9434 871.975 20.1566 871.955 20.3877L871.477 20.3828C871.522 20.0182 871.607 19.7074 871.73 19.4502C871.857 19.1898 872.014 18.9782 872.199 18.8154C872.388 18.6494 872.598 18.529 872.829 18.4541C873.063 18.376 873.311 18.3369 873.571 18.3369C873.926 18.3369 874.232 18.4036 874.489 18.5371C874.746 18.6706 874.958 18.8496 875.124 19.0742C875.29 19.2956 875.412 19.5462 875.49 19.8262C875.572 20.1029 875.612 20.3877 875.612 20.6807C875.612 21.016 875.565 21.3301 875.471 21.623C875.376 21.916 875.235 22.1732 875.046 22.3945C874.86 22.6159 874.631 22.7884 874.357 22.9121C874.084 23.0358 873.767 23.0977 873.405 23.0977C873.021 23.0977 872.686 23.0195 872.399 22.8633C872.113 22.7038 871.875 22.4922 871.687 22.2285C871.498 21.9648 871.356 21.6719 871.262 21.3496C871.167 21.0273 871.12 20.7002 871.12 20.3682V19.9434C871.12 19.4421 871.171 18.9505 871.271 18.4688C871.372 17.987 871.547 17.5508 871.794 17.1602C872.045 16.7695 872.391 16.4587 872.834 16.2275C873.277 15.9964 873.841 15.8809 874.528 15.8809ZM876.745 22.5215C876.745 22.3685 876.792 22.2399 876.887 22.1357C876.984 22.0283 877.124 21.9746 877.307 21.9746C877.489 21.9746 877.627 22.0283 877.722 22.1357C877.819 22.2399 877.868 22.3685 877.868 22.5215C877.868 22.6712 877.819 22.7982 877.722 22.9023C877.627 23.0065 877.489 23.0586 877.307 23.0586C877.124 23.0586 876.984 23.0065 876.887 22.9023C876.792 22.7982 876.745 22.6712 876.745 22.5215ZM876.75 18.21C876.75 18.057 876.797 17.9284 876.892 17.8242C876.989 17.7168 877.129 17.6631 877.312 17.6631C877.494 17.6631 877.632 17.7168 877.727 17.8242C877.824 17.9284 877.873 18.057 877.873 18.21C877.873 18.3597 877.824 18.4867 877.727 18.5908C877.632 18.695 877.494 18.7471 877.312 18.7471C877.129 18.7471 876.989 18.695 876.892 18.5908C876.797 18.4867 876.75 18.3597 876.75 18.21ZM883.767 22.2578V23H879.113V22.3506L881.442 19.7578C881.729 19.4388 881.95 19.1686 882.106 18.9473C882.266 18.7227 882.377 18.5225 882.438 18.3467C882.504 18.1676 882.536 17.9854 882.536 17.7998C882.536 17.5654 882.487 17.3538 882.39 17.165C882.295 16.973 882.155 16.82 881.97 16.7061C881.784 16.5921 881.56 16.5352 881.296 16.5352C880.98 16.5352 880.716 16.597 880.505 16.7207C880.297 16.8411 880.14 17.0104 880.036 17.2285C879.932 17.4466 879.88 17.6973 879.88 17.9805H878.977C878.977 17.5801 879.064 17.2139 879.24 16.8818C879.416 16.5498 879.676 16.2861 880.021 16.0908C880.367 15.8923 880.791 15.793 881.296 15.793C881.745 15.793 882.129 15.8727 882.448 16.0322C882.767 16.1885 883.011 16.4098 883.181 16.6963C883.353 16.9795 883.439 17.3115 883.439 17.6924C883.439 17.9007 883.404 18.1123 883.332 18.3271C883.264 18.5387 883.168 18.7503 883.044 18.9619C882.924 19.1735 882.782 19.3818 882.619 19.5869C882.46 19.792 882.289 19.9938 882.106 20.1924L880.202 22.2578H883.767ZM889.538 20.6074V21.3496H884.401V20.8174L887.585 15.8906H888.322L887.531 17.3164L885.427 20.6074H889.538ZM888.547 15.8906V23H887.644V15.8906H888.547ZM897.141 15.8906H898.078V20.7002C898.078 21.234 897.959 21.6784 897.722 22.0332C897.484 22.388 897.168 22.6549 896.774 22.834C896.384 23.0098 895.959 23.0977 895.5 23.0977C895.018 23.0977 894.582 23.0098 894.191 22.834C893.804 22.6549 893.496 22.388 893.269 22.0332C893.044 21.6784 892.932 21.234 892.932 20.7002V15.8906H893.864V20.7002C893.864 21.0713 893.933 21.3773 894.069 21.6182C894.206 21.859 894.396 22.0381 894.641 22.1553C894.888 22.2725 895.174 22.3311 895.5 22.3311C895.829 22.3311 896.115 22.2725 896.359 22.1553C896.607 22.0381 896.799 21.859 896.936 21.6182C897.072 21.3773 897.141 21.0713 897.141 20.7002V15.8906ZM902.185 15.8906V23H901.257V15.8906H902.185ZM904.47 15.8906V16.6621H898.977V15.8906H904.47ZM909.68 20.7393H910.617C910.568 21.1885 910.44 21.5905 910.231 21.9453C910.023 22.3001 909.729 22.5817 909.348 22.79C908.967 22.9951 908.492 23.0977 907.922 23.0977C907.505 23.0977 907.126 23.0195 906.784 22.8633C906.446 22.707 906.154 22.4857 905.91 22.1992C905.666 21.9095 905.477 21.5628 905.344 21.1592C905.214 20.7523 905.148 20.2998 905.148 19.8018V19.0938C905.148 18.5957 905.214 18.1449 905.344 17.7412C905.477 17.3343 905.668 16.986 905.915 16.6963C906.166 16.4066 906.467 16.1836 906.818 16.0273C907.17 15.8711 907.565 15.793 908.005 15.793C908.542 15.793 908.996 15.8939 909.367 16.0957C909.738 16.2975 910.026 16.5775 910.231 16.9355C910.44 17.2904 910.568 17.7021 910.617 18.1709H909.68C909.634 17.8389 909.549 17.554 909.426 17.3164C909.302 17.0755 909.126 16.89 908.898 16.7598C908.671 16.6296 908.373 16.5645 908.005 16.5645C907.689 16.5645 907.411 16.6247 907.17 16.7451C906.932 16.8656 906.732 17.0365 906.569 17.2578C906.41 17.4792 906.289 17.7445 906.208 18.0537C906.127 18.363 906.086 18.7064 906.086 19.084V19.8018C906.086 20.1501 906.122 20.4772 906.193 20.7832C906.268 21.0892 906.381 21.3577 906.53 21.5889C906.68 21.82 906.87 22.0023 907.102 22.1357C907.333 22.266 907.606 22.3311 907.922 22.3311C908.322 22.3311 908.641 22.2676 908.879 22.1406C909.117 22.0137 909.296 21.8314 909.416 21.5938C909.54 21.3561 909.628 21.0713 909.68 20.7393Z" fill="#32375E"/>
</g>
</svg>
