<svg xmlns="http://www.w3.org/2000/svg" fill="none" viewBox="0 0 928 40"><rect width="928" height="40" fill="#fff" rx="12"/><rect width="16" height="16" x="16" y="12" fill="#3F7BDA" rx="4"/><path fill="#fff" d="m22.666 22.115 6.128-6.129.944.943L22.666 24l-4.242-4.242.942-.943 3.3 3.3z"/><path fill="#32375E" d="M64.799 23.11V24h-5.584v-.78l2.795-3.11c.343-.383.61-.708.797-.973.191-.27.324-.51.398-.721.078-.215.117-.434.117-.656 0-.282-.058-.535-.175-.762a1.318 1.318 0 0 0-.504-.55 1.516 1.516 0 0 0-.809-.206c-.379 0-.695.074-.95.223a1.37 1.37 0 0 0-.562.61 2.07 2.07 0 0 0-.187.902H59.05c0-.48.105-.92.316-1.319.211-.398.524-.715.938-.949.414-.238.923-.357 1.529-.357.539 0 1 .095 1.383.287.383.187.676.453.879.797.207.34.31.738.31 1.195 0 .25-.043.504-.129.762a3.86 3.86 0 0 1-.345.761 5.914 5.914 0 0 1-.51.75c-.191.246-.397.489-.615.727l-2.285 2.478h4.277zM117.975 21.129v.89h-6.164v-.638l3.82-5.912h.885l-.95 1.71-2.525 3.95h4.934zm-1.19-5.66V24h-1.084v-8.531h1.084zm7.529 3.586v1.3c0 .7-.062 1.29-.187 1.77s-.305.867-.539 1.16a2.051 2.051 0 0 1-.85.639 3.023 3.023 0 0 1-1.113.193c-.328 0-.631-.04-.908-.123a2.145 2.145 0 0 1-.75-.392 2.39 2.39 0 0 1-.563-.715 3.842 3.842 0 0 1-.357-1.067 7.687 7.687 0 0 1-.123-1.465v-1.3c0-.7.062-1.285.187-1.758.129-.473.311-.852.545-1.137.235-.289.516-.496.844-.62a3.139 3.139 0 0 1 1.113-.188c.332 0 .637.04.914.123a2.053 2.053 0 0 1 1.307 1.072c.156.285.275.635.357 1.049.082.414.123.9.123 1.459zm-1.089 1.476v-1.658c0-.383-.024-.719-.071-1.008a3.168 3.168 0 0 0-.193-.75 1.481 1.481 0 0 0-.328-.504 1.158 1.158 0 0 0-.451-.28 1.625 1.625 0 0 0-.569-.095c-.258 0-.486.05-.685.147a1.236 1.236 0 0 0-.504.451c-.133.207-.235.479-.305.814-.07.336-.105.745-.105 1.225v1.658c0 .383.021.721.064 1.014.047.293.115.547.205.762.09.21.199.384.328.521s.278.238.446.305c.172.062.361.094.568.094.266 0 .498-.051.697-.153.199-.101.366-.26.498-.474.137-.22.239-.498.305-.838.066-.344.1-.754.1-1.23zm6.046-5.11V24h-1.083v-7.225l-2.186.797v-.978l3.1-1.172h.169zM165.791 19.201h.773c.379 0 .692-.062.938-.187a1.29 1.29 0 0 0 .557-.522c.125-.223.187-.473.187-.75 0-.328-.055-.603-.164-.826a1.095 1.095 0 0 0-.492-.504c-.219-.113-.496-.17-.832-.17-.305 0-.574.06-.809.182-.23.117-.412.285-.545.504a1.495 1.495 0 0 0-.193.773h-1.084c0-.433.109-.828.328-1.183.219-.356.525-.64.92-.85.398-.211.859-.316 1.383-.316.515 0 .967.091 1.353.275.387.18.688.45.903.809.215.355.322.798.322 1.33 0 .215-.051.445-.152.691a2.05 2.05 0 0 1-.463.68 2.39 2.39 0 0 1-.809.521c-.332.133-.73.2-1.195.2h-.926V19.2zm0 .89v-.65h.926c.543 0 .992.065 1.347.194.356.129.635.3.838.515.207.215.352.452.434.71.086.253.129.507.129.761 0 .399-.069.752-.205 1.06-.133.31-.322.571-.569.786a2.427 2.427 0 0 1-.855.486c-.328.11-.686.164-1.072.164-.371 0-.721-.053-1.049-.158a2.718 2.718 0 0 1-.861-.457 2.133 2.133 0 0 1-.586-.744 2.335 2.335 0 0 1-.211-1.014h1.084c0 .297.064.557.193.78.133.222.32.396.562.52.247.122.536.183.868.183.332 0 .617-.057.855-.17.242-.117.428-.293.557-.528.133-.234.199-.529.199-.884 0-.356-.074-.647-.223-.873-.148-.231-.359-.4-.632-.51a2.458 2.458 0 0 0-.956-.17h-.773zm6.539-.152-.867-.222.428-4.248h4.377v1.002h-3.457l-.258 2.32c.156-.09.353-.174.592-.252.242-.078.519-.117.832-.117.394 0 .748.068 1.06.205.313.133.578.324.797.574.223.25.393.551.51.902.117.352.176.745.176 1.178 0 .41-.057.787-.17 1.131-.11.344-.276.645-.498.902a2.243 2.243 0 0 1-.844.592c-.336.14-.733.211-1.19.211-.343 0-.67-.047-.978-.14a2.513 2.513 0 0 1-.82-.44 2.365 2.365 0 0 1-.586-.738 2.95 2.95 0 0 1-.282-1.043h1.032c.046.32.14.59.281.808.14.22.324.385.551.498.23.11.498.165.802.165.258 0 .487-.045.686-.135.199-.09.367-.219.504-.387s.24-.371.31-.61c.075-.238.112-.505.112-.802 0-.27-.037-.52-.112-.75a1.704 1.704 0 0 0-.334-.604 1.457 1.457 0 0 0-.533-.398 1.711 1.711 0 0 0-.726-.146c-.364 0-.639.048-.827.146-.183.098-.373.23-.568.398zm10.734-.884v1.3c0 .7-.062 1.29-.187 1.77s-.305.867-.539 1.16a2.051 2.051 0 0 1-.85.639 3.023 3.023 0 0 1-1.113.193c-.328 0-.631-.04-.908-.123a2.145 2.145 0 0 1-.75-.392 2.39 2.39 0 0 1-.563-.715 3.842 3.842 0 0 1-.357-1.067 7.687 7.687 0 0 1-.123-1.465v-1.3c0-.7.062-1.285.187-1.758.129-.473.311-.852.545-1.137.235-.289.516-.496.844-.62a3.139 3.139 0 0 1 1.113-.188c.332 0 .637.04.914.123a2.053 2.053 0 0 1 1.307 1.072c.156.285.275.635.357 1.049.082.414.123.9.123 1.459zm-1.089 1.476v-1.658c0-.383-.024-.719-.071-1.008a3.168 3.168 0 0 0-.193-.75 1.481 1.481 0 0 0-.328-.504 1.158 1.158 0 0 0-.451-.28 1.625 1.625 0 0 0-.569-.095c-.258 0-.486.05-.685.147a1.236 1.236 0 0 0-.504.451c-.133.207-.235.479-.305.814-.07.336-.105.745-.105 1.225v1.658c0 .383.021.721.064 1.014.047.293.115.547.205.762.09.21.199.384.328.521s.278.238.446.305c.172.062.361.094.568.094.266 0 .498-.051.697-.153.199-.101.366-.26.498-.474.137-.22.239-.498.305-.838.066-.344.1-.754.1-1.23zm2.619 2.895a.66.66 0 0 1 .17-.463c.117-.129.285-.194.504-.194.218 0 .384.065.498.194.117.125.175.28.175.463 0 .18-.058.332-.175.457-.114.125-.28.187-.498.187-.219 0-.387-.062-.504-.187a.653.653 0 0 1-.17-.457zm8.543-7.957v.61L189.604 24h-1.143l3.527-7.64h-4.617v-.891h5.766zm2.818 3.732h.774c.378 0 .691-.062.937-.187a1.29 1.29 0 0 0 .557-.522c.125-.223.187-.473.187-.75 0-.328-.055-.603-.164-.826a1.095 1.095 0 0 0-.492-.504c-.219-.113-.496-.17-.832-.17-.305 0-.574.06-.809.182-.23.117-.412.285-.545.504a1.495 1.495 0 0 0-.193.773h-1.084c0-.433.109-.828.328-1.183.219-.356.526-.64.92-.85.399-.211.859-.316 1.383-.316.516 0 .967.091 1.353.275.387.18.688.45.903.809.215.355.322.798.322 1.33 0 .215-.051.445-.152.691a2.05 2.05 0 0 1-.463.68 2.39 2.39 0 0 1-.809.521c-.332.133-.73.2-1.195.2h-.926V19.2zm0 .89v-.65h.926c.543 0 .992.065 1.348.194.355.129.634.3.837.515.207.215.352.452.434.71.086.253.129.507.129.761 0 .399-.068.752-.205 1.06-.133.31-.322.571-.569.786a2.427 2.427 0 0 1-.855.486c-.328.11-.686.164-1.072.164-.371 0-.721-.053-1.049-.158a2.718 2.718 0 0 1-.861-.457 2.133 2.133 0 0 1-.586-.744 2.335 2.335 0 0 1-.211-1.014h1.084c0 .297.064.557.193.78.133.222.32.396.563.52.246.122.535.183.867.183.332 0 .617-.057.855-.17.242-.117.428-.293.557-.528.133-.234.199-.529.199-.884 0-.356-.074-.647-.223-.873-.148-.231-.359-.4-.632-.51a2.456 2.456 0 0 0-.955-.17h-.774z" opacity=".9"/><path fill="#8E959C" d="M245.333 14.666H248a.667.667 0 0 1 .666.667V26a.666.666 0 0 1-.666.666h-12a.668.668 0 0 1-.667-.666V15.333a.666.666 0 0 1 .667-.667h2.666v-1.333H240v1.333h4v-1.333h1.333v1.333zm2 4V16h-2v1.333H244V16h-4v1.333h-1.334V16h-2v2.666h10.667zm0 1.334h-10.667v5.333h10.667V20zM238 21.333h3.333V24H238v-2.667z"/><path fill="#32375E" d="M278.064 19.055v1.3c0 .7-.062 1.29-.187 1.77s-.305.867-.539 1.16a2.051 2.051 0 0 1-.85.639 3.023 3.023 0 0 1-1.113.193c-.328 0-.631-.04-.908-.123a2.145 2.145 0 0 1-.75-.392 2.39 2.39 0 0 1-.563-.715 3.842 3.842 0 0 1-.357-1.067 7.687 7.687 0 0 1-.123-1.465v-1.3c0-.7.062-1.285.187-1.758.129-.473.311-.852.545-1.137.235-.289.516-.496.844-.62a3.139 3.139 0 0 1 1.113-.188c.332 0 .637.04.914.123a2.053 2.053 0 0 1 1.307 1.072c.156.285.275.635.357 1.049.082.414.123.9.123 1.459zm-1.089 1.476v-1.658c0-.383-.024-.719-.071-1.008a3.168 3.168 0 0 0-.193-.75 1.481 1.481 0 0 0-.328-.504 1.158 1.158 0 0 0-.451-.28 1.625 1.625 0 0 0-.569-.095c-.258 0-.486.05-.685.147a1.236 1.236 0 0 0-.504.451c-.133.207-.235.479-.305.814-.07.336-.105.745-.105 1.225v1.658c0 .383.021.721.064 1.014.047.293.115.547.205.762.09.21.199.384.328.521s.278.238.446.305c.172.062.361.094.568.094.266 0 .498-.051.697-.153.199-.101.366-.26.498-.474.137-.22.239-.498.305-.838.066-.344.1-.754.1-1.23zm6.046-5.11V24h-1.083v-7.225l-2.186.797v-.978l3.1-1.172h.169zm5.561 4.507v.89h-2.859v-.89h2.859zm1.582-4.46h1.096l2.795 6.956 2.789-6.955h1.101L294.477 24h-.856l-3.457-8.531zm-.357 0h.966l.159 5.204V24h-1.125v-8.531zm7.523 0h.967V24h-1.125v-3.328l.158-5.203zm6.527 7.448v-3.264c0-.25-.05-.466-.152-.65a.999.999 0 0 0-.445-.434c-.199-.101-.446-.152-.739-.152a1.73 1.73 0 0 0-.72.14 1.264 1.264 0 0 0-.481.37.81.81 0 0 0-.17.492h-1.084c0-.227.059-.451.176-.674.117-.223.285-.424.504-.603a2.52 2.52 0 0 1 .797-.434 3.14 3.14 0 0 1 1.043-.164c.461 0 .867.078 1.219.234.355.157.633.393.832.71.203.312.304.704.304 1.177v2.953c0 .211.018.436.053.674.039.238.096.443.17.615V24h-1.131a2.091 2.091 0 0 1-.129-.498 4.054 4.054 0 0 1-.047-.586zm.188-2.76.012.762h-1.096c-.309 0-.584.025-.826.076-.242.047-.446.12-.61.217a.978.978 0 0 0-.504.879c0 .2.045.38.135.545.09.164.225.295.405.392.183.094.408.141.673.141.332 0 .625-.07.879-.211.254-.14.455-.313.604-.516.152-.203.234-.4.246-.591l.463.521a1.59 1.59 0 0 1-.223.545 2.605 2.605 0 0 1-1.201 1.025 2.327 2.327 0 0 1-.926.176c-.43 0-.806-.084-1.131-.252a1.937 1.937 0 0 1-.75-.674 1.79 1.79 0 0 1-.263-.955c0-.34.066-.638.199-.896.133-.262.324-.479.574-.65.25-.176.551-.31.902-.399a4.77 4.77 0 0 1 1.178-.135h1.26zm3.685-1.5V24h-1.084v-6.34h1.055l.029.996zm1.981-1.031-.006 1.008a1.573 1.573 0 0 0-.258-.035 2.706 2.706 0 0 0-.269-.012c-.25 0-.471.039-.662.117a1.37 1.37 0 0 0-.487.328c-.133.14-.238.309-.316.504a2.453 2.453 0 0 0-.147.633l-.304.176c0-.383.037-.742.111-1.078.078-.336.197-.633.357-.891a1.76 1.76 0 0 1 .61-.61 1.713 1.713 0 0 1 1.16-.193.796.796 0 0 1 .211.053zm3.258 2.303v.89h-2.86v-.89h2.86zm6.533 3.181V24h-5.584v-.78l2.795-3.11c.344-.383.609-.708.797-.973.191-.27.324-.51.398-.721a1.91 1.91 0 0 0 .117-.656c0-.282-.058-.535-.175-.762a1.326 1.326 0 0 0-.504-.55 1.517 1.517 0 0 0-.809-.206c-.379 0-.695.074-.949.223-.25.144-.438.348-.563.61a2.07 2.07 0 0 0-.187.902h-1.084c0-.48.105-.92.316-1.319.211-.398.524-.715.938-.949.414-.238.924-.357 1.529-.357.539 0 1 .095 1.383.287.383.187.676.453.879.797.207.34.31.738.31 1.195 0 .25-.043.504-.129.762a3.886 3.886 0 0 1-.345.761 6.002 6.002 0 0 1-.51.75 11.44 11.44 0 0 1-.615.727l-2.285 2.478h4.277zm6.75 0V24h-5.584v-.78l2.795-3.11c.344-.383.609-.708.797-.973.191-.27.324-.51.398-.721a1.91 1.91 0 0 0 .117-.656c0-.282-.058-.535-.175-.762a1.326 1.326 0 0 0-.504-.55 1.517 1.517 0 0 0-.809-.206c-.379 0-.695.074-.949.223-.25.144-.438.348-.563.61a2.07 2.07 0 0 0-.187.902h-1.084c0-.48.105-.92.316-1.319.211-.398.524-.715.938-.949.414-.238.924-.357 1.529-.357.539 0 1 .095 1.383.287.383.187.676.453.879.797.207.34.31.738.31 1.195 0 .25-.043.504-.129.762a3.886 3.886 0 0 1-.345.761 6.002 6.002 0 0 1-.51.75 11.44 11.44 0 0 1-.615.727l-2.285 2.478h4.277zm7.699-7.687V24h-1.084v-7.225l-2.185.797v-.978l3.099-1.172h.17zm7.348.035h.094v.92h-.094c-.574 0-1.055.094-1.442.281a2.356 2.356 0 0 0-.919.744 3.058 3.058 0 0 0-.493 1.043c-.097.387-.146.78-.146 1.178v1.254c0 .379.045.715.135 1.008.089.289.212.533.369.732.156.2.332.35.527.451.199.102.406.153.621.153.25 0 .473-.047.668-.14.195-.099.36-.233.492-.405.137-.176.241-.383.311-.621.07-.239.105-.5.105-.785 0-.254-.031-.498-.093-.733a1.962 1.962 0 0 0-.288-.633 1.373 1.373 0 0 0-1.171-.603c-.301 0-.582.074-.844.222a1.92 1.92 0 0 0-.639.575 1.54 1.54 0 0 0-.281.767l-.574-.006a3.61 3.61 0 0 1 .304-1.119c.153-.312.34-.566.563-.761.226-.2.478-.344.756-.434.281-.094.578-.14.89-.14.426 0 .793.08 1.102.24.309.16.562.375.762.644.199.266.345.566.439.902.098.332.147.674.147 1.026 0 .402-.057.78-.17 1.13-.114.352-.284.66-.51.926a2.299 2.299 0 0 1-.826.622 2.747 2.747 0 0 1-1.143.222c-.461 0-.863-.094-1.207-.281a2.576 2.576 0 0 1-.855-.762 3.458 3.458 0 0 1-.51-1.055 4.179 4.179 0 0 1-.17-1.177v-.51c0-.602.061-1.191.182-1.77.121-.578.33-1.101.627-1.57.3-.469.716-.842 1.248-1.119.531-.277 1.209-.416 2.033-.416zm2.66 7.969c0-.184.057-.338.17-.463.117-.129.285-.194.504-.194.219 0 .385.065.498.194.117.125.176.28.176.463 0 .18-.059.332-.176.457-.113.125-.279.187-.498.187-.219 0-.387-.062-.504-.187a.657.657 0 0 1-.17-.457zm.006-5.174a.66.66 0 0 1 .17-.463c.117-.129.285-.193.504-.193.218 0 .384.064.498.193.117.125.175.28.175.463 0 .18-.058.332-.175.457-.114.125-.28.188-.498.188-.219 0-.387-.063-.504-.188a.653.653 0 0 1-.17-.457zm8.185.803v1.3c0 .7-.062 1.29-.187 1.77s-.305.867-.539 1.16a2.057 2.057 0 0 1-.85.639 3.023 3.023 0 0 1-1.113.193c-.328 0-.631-.04-.908-.123a2.145 2.145 0 0 1-.75-.392 2.374 2.374 0 0 1-.563-.715 3.842 3.842 0 0 1-.357-1.067 7.687 7.687 0 0 1-.123-1.465v-1.3c0-.7.062-1.285.187-1.758.129-.473.311-.852.545-1.137.235-.289.516-.496.844-.62a3.139 3.139 0 0 1 1.113-.188c.332 0 .637.04.914.123a2.053 2.053 0 0 1 1.307 1.072c.156.285.275.635.357 1.049.082.414.123.9.123 1.459zm-1.089 1.476v-1.658c0-.383-.024-.719-.071-1.008a3.168 3.168 0 0 0-.193-.75 1.481 1.481 0 0 0-.328-.504 1.165 1.165 0 0 0-.451-.28 1.625 1.625 0 0 0-.569-.095c-.258 0-.486.05-.685.147-.2.094-.368.244-.504.451-.133.207-.235.479-.305.814-.07.336-.105.745-.105 1.225v1.658c0 .383.021.721.064 1.014.047.293.115.547.205.762.09.21.199.384.328.521s.278.238.446.305c.171.062.361.094.568.094.266 0 .498-.051.697-.153.199-.101.365-.26.498-.474.137-.22.239-.498.305-.838.066-.344.1-.754.1-1.23zm7.839-1.476v1.3c0 .7-.062 1.29-.187 1.77s-.305.867-.539 1.16a2.057 2.057 0 0 1-.85.639 3.023 3.023 0 0 1-1.113.193c-.328 0-.631-.04-.908-.123a2.145 2.145 0 0 1-.75-.392 2.374 2.374 0 0 1-.563-.715 3.842 3.842 0 0 1-.357-1.067 7.687 7.687 0 0 1-.123-1.465v-1.3c0-.7.062-1.285.187-1.758.129-.473.311-.852.545-1.137.235-.289.516-.496.844-.62a3.139 3.139 0 0 1 1.113-.188c.332 0 .637.04.914.123a2.053 2.053 0 0 1 1.307 1.072c.156.285.275.635.357 1.049.082.414.123.9.123 1.459zm-1.089 1.476v-1.658c0-.383-.024-.719-.071-1.008a3.168 3.168 0 0 0-.193-.75 1.481 1.481 0 0 0-.328-.504 1.165 1.165 0 0 0-.451-.28 1.625 1.625 0 0 0-.569-.095c-.258 0-.486.05-.685.147-.2.094-.368.244-.504.451-.133.207-.235.479-.305.814-.07.336-.105.745-.105 1.225v1.658c0 .383.021.721.064 1.014.047.293.115.547.205.762.09.21.199.384.328.521s.278.238.446.305c.171.062.361.094.568.094.266 0 .498-.051.697-.153.199-.101.365-.26.498-.474.137-.22.239-.498.305-.838.066-.344.1-.754.1-1.23zm10.623-5.062h1.125v5.771c0 .64-.143 1.174-.428 1.6a2.669 2.669 0 0 1-1.137.96c-.469.212-.978.317-1.529.317a3.782 3.782 0 0 1-1.57-.316 2.574 2.574 0 0 1-1.108-.961c-.269-.426-.404-.96-.404-1.6V15.47h1.119v5.771c0 .446.082.813.246 1.102.164.289.393.504.686.644.296.141.64.211 1.031.211.394 0 .738-.07 1.031-.21.297-.141.527-.356.692-.645.164-.29.246-.656.246-1.102V15.47zm6.052 0V24h-1.113v-8.531h1.113zm2.743 0v.926h-6.592v-.926h6.592zm6.251 5.818h1.125a3.578 3.578 0 0 1-.462 1.447c-.25.426-.604.764-1.061 1.014-.457.246-1.027.37-1.711.37-.5 0-.955-.095-1.365-.282a3.037 3.037 0 0 1-1.049-.797 3.745 3.745 0 0 1-.68-1.248 5.335 5.335 0 0 1-.234-1.629v-.85c0-.597.078-1.138.234-1.623.161-.488.389-.906.686-1.253a3.06 3.06 0 0 1 1.084-.803 3.469 3.469 0 0 1 1.424-.281c.644 0 1.189.12 1.634.363.446.242.791.578 1.038 1.008.25.425.404.92.462 1.482h-1.125a3.129 3.129 0 0 0-.304-1.025 1.59 1.59 0 0 0-.633-.668c-.273-.157-.631-.235-1.072-.235-.379 0-.713.073-1.002.217-.285.145-.526.35-.721.615a2.878 2.878 0 0 0-.434.955 4.887 4.887 0 0 0-.146 1.237v.861c0 .418.043.81.129 1.178.09.367.224.69.404.967a2 2 0 0 0 .686.656c.277.156.605.234.984.234.481 0 .863-.076 1.149-.228.285-.153.5-.371.644-.657.148-.285.254-.627.316-1.025zM494.291 19.201h.773c.379 0 .692-.062.938-.187a1.29 1.29 0 0 0 .557-.522c.125-.223.187-.473.187-.75 0-.328-.055-.603-.164-.826a1.095 1.095 0 0 0-.492-.504c-.219-.113-.496-.17-.832-.17-.305 0-.574.06-.809.182-.23.117-.412.285-.545.504a1.495 1.495 0 0 0-.193.773h-1.084c0-.433.109-.828.328-1.183.219-.356.525-.64.92-.85.398-.211.859-.316 1.383-.316.515 0 .967.091 1.353.275.387.18.688.45.903.809.215.355.322.798.322 1.33 0 .215-.051.445-.152.691a2.05 2.05 0 0 1-.463.68 2.39 2.39 0 0 1-.809.521c-.332.133-.73.2-1.195.2h-.926V19.2zm0 .89v-.65h.926c.543 0 .992.065 1.347.194.356.129.635.3.838.515.207.215.352.452.434.71.086.253.129.507.129.761 0 .399-.069.752-.205 1.06-.133.31-.322.571-.569.786a2.427 2.427 0 0 1-.855.486c-.328.11-.686.164-1.072.164-.371 0-.721-.053-1.049-.158a2.718 2.718 0 0 1-.861-.457 2.133 2.133 0 0 1-.586-.744 2.335 2.335 0 0 1-.211-1.014h1.084c0 .297.064.557.193.78.133.222.32.396.562.52.247.122.536.183.868.183.332 0 .617-.057.855-.17.242-.117.428-.293.557-.528.133-.234.199-.529.199-.884 0-.356-.074-.647-.223-.873-.148-.231-.359-.4-.632-.51a2.458 2.458 0 0 0-.956-.17h-.773zm6.539-.152-.867-.222.428-4.248h4.377v1.002h-3.457l-.258 2.32c.156-.09.353-.174.592-.252.242-.078.519-.117.832-.117.394 0 .748.068 1.06.205.313.133.578.324.797.574.223.25.393.551.51.902.117.352.176.745.176 1.178 0 .41-.057.787-.17 1.131-.11.344-.276.645-.498.902a2.243 2.243 0 0 1-.844.592c-.336.14-.733.211-1.19.211-.343 0-.67-.047-.978-.14a2.513 2.513 0 0 1-.82-.44 2.365 2.365 0 0 1-.586-.738 2.95 2.95 0 0 1-.282-1.043h1.032c.046.32.14.59.281.808.14.22.324.385.551.498.23.11.498.165.802.165.258 0 .487-.045.686-.135.199-.09.367-.219.504-.387s.24-.371.31-.61c.075-.238.112-.505.112-.802 0-.27-.037-.52-.112-.75a1.704 1.704 0 0 0-.334-.604 1.457 1.457 0 0 0-.533-.398 1.711 1.711 0 0 0-.726-.146c-.364 0-.639.048-.827.146-.183.098-.373.23-.568.398zm10.734-.884v1.3c0 .7-.062 1.29-.187 1.77s-.305.867-.539 1.16a2.051 2.051 0 0 1-.85.639 3.023 3.023 0 0 1-1.113.193c-.328 0-.631-.04-.908-.123a2.145 2.145 0 0 1-.75-.392 2.39 2.39 0 0 1-.563-.715 3.842 3.842 0 0 1-.357-1.067 7.687 7.687 0 0 1-.123-1.465v-1.3c0-.7.062-1.285.187-1.758.129-.473.311-.852.545-1.137.235-.289.516-.496.844-.62a3.139 3.139 0 0 1 1.113-.188c.332 0 .637.04.914.123a2.053 2.053 0 0 1 1.307 1.072c.156.285.275.635.357 1.049.082.414.123.9.123 1.459zm-1.089 1.476v-1.658c0-.383-.024-.719-.071-1.008a3.168 3.168 0 0 0-.193-.75 1.481 1.481 0 0 0-.328-.504 1.158 1.158 0 0 0-.451-.28 1.625 1.625 0 0 0-.569-.095c-.258 0-.486.05-.685.147a1.236 1.236 0 0 0-.504.451c-.133.207-.235.479-.305.814-.07.336-.105.745-.105 1.225v1.658c0 .383.021.721.064 1.014.047.293.115.547.205.762.09.21.199.384.328.521s.278.238.446.305c.172.062.361.094.568.094.266 0 .498-.051.697-.153.199-.101.366-.26.498-.474.137-.22.239-.498.305-.838.066-.344.1-.754.1-1.23zm2.619 2.895a.66.66 0 0 1 .17-.463c.117-.129.285-.194.504-.194.218 0 .384.065.498.194.117.125.175.28.175.463 0 .18-.058.332-.175.457-.114.125-.28.187-.498.187-.219 0-.387-.062-.504-.187a.653.653 0 0 1-.17-.457zm8.543-7.957v.61L518.104 24h-1.143l3.527-7.64h-4.617v-.891h5.766zm2.818 3.732h.774c.378 0 .691-.062.937-.187a1.29 1.29 0 0 0 .557-.522c.125-.223.187-.473.187-.75 0-.328-.055-.603-.164-.826a1.095 1.095 0 0 0-.492-.504c-.219-.113-.496-.17-.832-.17-.305 0-.574.06-.809.182-.23.117-.412.285-.545.504a1.495 1.495 0 0 0-.193.773h-1.084c0-.433.109-.828.328-1.183.219-.356.526-.64.92-.85.399-.211.859-.316 1.383-.316.516 0 .967.091 1.353.275.387.18.688.45.903.809.215.355.322.798.322 1.33 0 .215-.051.445-.152.691a2.05 2.05 0 0 1-.463.68 2.39 2.39 0 0 1-.809.521c-.332.133-.73.2-1.195.2h-.926V19.2zm0 .89v-.65h.926c.543 0 .992.065 1.348.194.355.129.634.3.837.515.207.215.352.452.434.71.086.253.129.507.129.761 0 .399-.068.752-.205 1.06-.133.31-.322.571-.569.786a2.427 2.427 0 0 1-.855.486c-.328.11-.686.164-1.072.164-.371 0-.721-.053-1.049-.158a2.718 2.718 0 0 1-.861-.457 2.133 2.133 0 0 1-.586-.744 2.335 2.335 0 0 1-.211-1.014h1.084c0 .297.064.557.193.78.133.222.32.396.563.52.246.122.535.183.867.183.332 0 .617-.057.855-.17.242-.117.428-.293.557-.528.133-.234.199-.529.199-.884 0-.356-.074-.647-.223-.873-.148-.231-.359-.4-.632-.51a2.456 2.456 0 0 0-.955-.17h-.774zM551.41 23.08V24h-4.517v-.92h4.517zm-4.289-7.611V24h-1.131v-8.531h1.131zm3.691 3.668v.92h-3.919v-.92h3.919zm.54-3.668v.926h-4.459v-.926h4.459zm6.339 0h1.125v5.771c0 .64-.142 1.174-.427 1.6a2.669 2.669 0 0 1-1.137.96c-.469.212-.979.317-1.529.317a3.79 3.79 0 0 1-1.571-.316 2.571 2.571 0 0 1-1.107-.961c-.27-.426-.404-.96-.404-1.6V15.47h1.119v5.771c0 .446.082.813.246 1.102.164.289.392.504.685.644.297.141.641.211 1.032.211.394 0 .738-.07 1.031-.21a1.53 1.53 0 0 0 .691-.645c.164-.29.246-.656.246-1.102V15.47zm2.901 0h2.824c.641 0 1.182.097 1.623.293a2.16 2.16 0 0 1 1.014.867c.234.379.351.846.351 1.4 0 .39-.08.748-.24 1.073a2.28 2.28 0 0 1-.68.82 2.998 2.998 0 0 1-1.054.498l-.317.123h-2.654l-.012-.92h2.004c.406 0 .744-.07 1.014-.21a1.48 1.48 0 0 0 .609-.581c.137-.242.205-.51.205-.803a1.83 1.83 0 0 0-.193-.861 1.292 1.292 0 0 0-.609-.568c-.274-.137-.627-.206-1.061-.206h-1.693V24h-1.131v-8.531zM565.578 24l-2.074-3.867 1.178-.006 2.103 3.803V24h-1.207zM724.271 15.422V24h-1.083v-7.225l-2.186.797v-.978l3.1-1.172h.169zm7.079.047-3.557 9.263h-.932l3.563-9.263h.926zm2.144 7.623h.111c.625 0 1.133-.088 1.524-.264.391-.176.691-.412.902-.709a2.65 2.65 0 0 0 .434-1.002c.078-.375.117-.76.117-1.154v-1.307a3.6 3.6 0 0 0-.135-1.031 2.239 2.239 0 0 0-.363-.756 1.605 1.605 0 0 0-.522-.463 1.287 1.287 0 0 0-.621-.158c-.25 0-.474.05-.673.152a1.402 1.402 0 0 0-.498.416c-.133.18-.235.391-.305.633a2.84 2.84 0 0 0-.106.791c0 .254.032.5.094.739.063.238.158.453.287.644.129.191.289.344.481.457.195.11.424.164.685.164.242 0 .469-.047.68-.14a1.975 1.975 0 0 0 1.143-1.623h.515c0 .324-.064.644-.193.96a2.938 2.938 0 0 1-.528.856 2.679 2.679 0 0 1-.796.621 2.2 2.2 0 0 1-.997.229c-.421 0-.787-.082-1.095-.247a2.208 2.208 0 0 1-.762-.656 2.991 2.991 0 0 1-.439-.914 3.852 3.852 0 0 1-.141-1.031c0-.406.057-.787.17-1.143a2.77 2.77 0 0 1 .504-.937c.222-.274.498-.487.826-.639a2.726 2.726 0 0 1 1.148-.228c.489 0 .905.097 1.248.293.344.195.623.457.838.785.219.328.379.697.481 1.107.101.41.152.832.152 1.266v.392c0 .442-.029.89-.088 1.348a5.353 5.353 0 0 1-.322 1.3 3.414 3.414 0 0 1-.686 1.114c-.3.324-.693.582-1.177.773-.481.188-1.075.282-1.782.282h-.111v-.92zM869.291 19.201h.773c.379 0 .692-.062.938-.187a1.29 1.29 0 0 0 .557-.522c.125-.223.187-.473.187-.75 0-.328-.055-.603-.164-.826a1.095 1.095 0 0 0-.492-.504c-.219-.113-.496-.17-.832-.17-.305 0-.574.06-.809.182-.23.117-.412.285-.545.504a1.495 1.495 0 0 0-.193.773h-1.084c0-.433.109-.828.328-1.183.219-.356.525-.64.92-.85.398-.211.859-.316 1.383-.316.515 0 .967.091 1.353.275.387.18.688.45.903.809.215.355.322.798.322 1.33 0 .215-.051.445-.152.691a2.05 2.05 0 0 1-.463.68 2.39 2.39 0 0 1-.809.521c-.332.133-.73.2-1.195.2h-.926V19.2zm0 .89v-.65h.926c.543 0 .992.065 1.347.194.356.129.635.3.838.515.207.215.352.452.434.71.086.253.129.507.129.761 0 .399-.069.752-.205 1.06-.133.31-.322.571-.569.786a2.427 2.427 0 0 1-.855.486c-.328.11-.686.164-1.072.164-.371 0-.721-.053-1.049-.158a2.718 2.718 0 0 1-.861-.457 2.133 2.133 0 0 1-.586-.744 2.335 2.335 0 0 1-.211-1.014h1.084c0 .297.064.557.193.78.133.222.32.396.562.52.247.122.536.183.868.183.332 0 .617-.057.855-.17.242-.117.428-.293.557-.528.133-.234.199-.529.199-.884 0-.356-.074-.647-.223-.873-.148-.231-.359-.4-.632-.51a2.458 2.458 0 0 0-.956-.17h-.773zm6.539-.152-.867-.222.428-4.248h4.377v1.002h-3.457l-.258 2.32c.156-.09.353-.174.592-.252.242-.078.519-.117.832-.117.394 0 .748.068 1.06.205.313.133.578.324.797.574.223.25.393.551.51.902.117.352.176.745.176 1.178 0 .41-.057.787-.17 1.131-.11.344-.276.645-.498.902a2.243 2.243 0 0 1-.844.592c-.336.14-.733.211-1.19.211-.343 0-.67-.047-.978-.14a2.513 2.513 0 0 1-.82-.44 2.365 2.365 0 0 1-.586-.738 2.95 2.95 0 0 1-.282-1.043h1.032c.046.32.14.59.281.808.14.22.324.385.551.498.23.11.498.165.802.165.258 0 .487-.045.686-.135.199-.09.367-.219.504-.387s.24-.371.31-.61c.075-.238.112-.505.112-.802 0-.27-.037-.52-.112-.75a1.704 1.704 0 0 0-.334-.604 1.457 1.457 0 0 0-.533-.398 1.711 1.711 0 0 0-.726-.146c-.364 0-.639.048-.827.146-.183.098-.373.23-.568.398zm10.734-.884v1.3c0 .7-.062 1.29-.187 1.77s-.305.867-.539 1.16a2.051 2.051 0 0 1-.85.639 3.023 3.023 0 0 1-1.113.193c-.328 0-.631-.04-.908-.123a2.145 2.145 0 0 1-.75-.392 2.39 2.39 0 0 1-.563-.715 3.842 3.842 0 0 1-.357-1.067 7.687 7.687 0 0 1-.123-1.465v-1.3c0-.7.062-1.285.187-1.758.129-.473.311-.852.545-1.137.235-.289.516-.496.844-.62a3.139 3.139 0 0 1 1.113-.188c.332 0 .637.04.914.123a2.053 2.053 0 0 1 1.307 1.072c.156.285.275.635.357 1.049.082.414.123.9.123 1.459zm-1.089 1.476v-1.658c0-.383-.024-.719-.071-1.008a3.168 3.168 0 0 0-.193-.75 1.481 1.481 0 0 0-.328-.504 1.158 1.158 0 0 0-.451-.28 1.625 1.625 0 0 0-.569-.095c-.258 0-.486.05-.685.147a1.236 1.236 0 0 0-.504.451c-.133.207-.235.479-.305.814-.07.336-.105.745-.105 1.225v1.658c0 .383.021.721.064 1.014.047.293.115.547.205.762.09.21.199.384.328.521s.278.238.446.305c.172.062.361.094.568.094.266 0 .498-.051.697-.153.199-.101.366-.26.498-.474.137-.22.239-.498.305-.838.066-.344.1-.754.1-1.23zm2.619 2.895a.66.66 0 0 1 .17-.463c.117-.129.285-.194.504-.194.218 0 .384.065.498.194.117.125.175.28.175.463 0 .18-.058.332-.175.457-.114.125-.28.187-.498.187-.219 0-.387-.062-.504-.187a.653.653 0 0 1-.17-.457zm8.543-7.957v.61L893.104 24h-1.143l3.527-7.64h-4.617v-.891h5.766zm2.818 3.732h.774c.378 0 .691-.062.937-.187a1.29 1.29 0 0 0 .557-.522c.125-.223.187-.473.187-.75 0-.328-.055-.603-.164-.826a1.095 1.095 0 0 0-.492-.504c-.219-.113-.496-.17-.832-.17-.305 0-.574.06-.809.182-.23.117-.412.285-.545.504a1.495 1.495 0 0 0-.193.773h-1.084c0-.433.109-.828.328-1.183.219-.356.526-.64.92-.85.399-.211.859-.316 1.383-.316.516 0 .967.091 1.353.275.387.18.688.45.903.809.215.355.322.798.322 1.33 0 .215-.051.445-.152.691a2.05 2.05 0 0 1-.463.68 2.39 2.39 0 0 1-.809.521c-.332.133-.73.2-1.195.2h-.926V19.2zm0 .89v-.65h.926c.543 0 .992.065 1.348.194.355.129.634.3.837.515.207.215.352.452.434.71.086.253.129.507.129.761 0 .399-.068.752-.205 1.06-.133.31-.322.571-.569.786a2.427 2.427 0 0 1-.855.486c-.328.11-.686.164-1.072.164-.371 0-.721-.053-1.049-.158a2.718 2.718 0 0 1-.861-.457 2.133 2.133 0 0 1-.586-.744 2.335 2.335 0 0 1-.211-1.014h1.084c0 .297.064.557.193.78.133.222.32.396.563.52.246.122.535.183.867.183.332 0 .617-.057.855-.17.242-.117.428-.293.557-.528.133-.234.199-.529.199-.884 0-.356-.074-.647-.223-.873-.148-.231-.359-.4-.632-.51a2.456 2.456 0 0 0-.955-.17h-.774z" opacity=".9"/></svg>