<svg width="928" height="40" viewBox="0 0 928 40" fill="none" xmlns="http://www.w3.org/2000/svg">
<rect x="0.5" y="0.5" width="927" height="39" rx="11.5" fill="#86B869"/>
<g opacity="0.9">
<path d="M62.5596 15.8516V23H61.6562V16.9795L59.835 17.6436V16.8281L62.418 15.8516H62.5596Z" fill="white"/>
</g>
<g opacity="0.9">
<path d="M118.896 20.6074V21.3496H113.759V20.8174L116.942 15.8906H117.68L116.889 17.3164L114.784 20.6074H118.896ZM117.904 15.8906V23H117.001V15.8906H117.904ZM124.179 18.8789V19.9629C124.179 20.5456 124.127 21.0371 124.022 21.4375C123.918 21.8379 123.769 22.1602 123.573 22.4043C123.378 22.6484 123.142 22.8258 122.865 22.9365C122.592 23.0439 122.283 23.0977 121.938 23.0977C121.664 23.0977 121.412 23.0635 121.181 22.9951C120.95 22.9268 120.741 22.8177 120.556 22.668C120.373 22.515 120.217 22.3164 120.087 22.0723C119.957 21.8281 119.857 21.5319 119.789 21.1836C119.721 20.8353 119.687 20.4284 119.687 19.9629V18.8789C119.687 18.2962 119.739 17.8079 119.843 17.4141C119.95 17.0202 120.102 16.7044 120.297 16.4668C120.492 16.2259 120.727 16.0534 121 15.9492C121.277 15.8451 121.586 15.793 121.928 15.793C122.204 15.793 122.458 15.8271 122.689 15.8955C122.924 15.9606 123.132 16.0664 123.314 16.2129C123.497 16.3561 123.651 16.5482 123.778 16.7891C123.909 17.0267 124.008 17.318 124.076 17.6631C124.145 18.0081 124.179 18.4134 124.179 18.8789ZM123.271 20.1094V18.7275C123.271 18.4085 123.251 18.1286 123.212 17.8877C123.176 17.6436 123.122 17.4352 123.051 17.2627C122.979 17.0902 122.888 16.9502 122.777 16.8428C122.67 16.7354 122.545 16.6572 122.401 16.6084C122.261 16.5563 122.104 16.5303 121.928 16.5303C121.713 16.5303 121.522 16.571 121.356 16.6523C121.19 16.7305 121.05 16.8558 120.937 17.0283C120.826 17.2008 120.741 17.4271 120.683 17.707C120.624 17.987 120.595 18.3271 120.595 18.7275V20.1094C120.595 20.4284 120.613 20.71 120.648 20.9541C120.688 21.1982 120.744 21.4098 120.819 21.5889C120.894 21.7646 120.985 21.9095 121.093 22.0234C121.2 22.1374 121.324 22.222 121.464 22.2773C121.607 22.3294 121.765 22.3555 121.938 22.3555C122.159 22.3555 122.353 22.3132 122.519 22.2285C122.685 22.1439 122.823 22.012 122.934 21.833C123.048 21.6507 123.132 21.418 123.188 21.1348C123.243 20.8483 123.271 20.5065 123.271 20.1094ZM129.804 18.8789V19.9629C129.804 20.5456 129.752 21.0371 129.647 21.4375C129.543 21.8379 129.394 22.1602 129.198 22.4043C129.003 22.6484 128.767 22.8258 128.49 22.9365C128.217 23.0439 127.908 23.0977 127.562 23.0977C127.289 23.0977 127.037 23.0635 126.806 22.9951C126.575 22.9268 126.366 22.8177 126.181 22.668C125.998 22.515 125.842 22.3164 125.712 22.0723C125.582 21.8281 125.482 21.5319 125.414 21.1836C125.346 20.8353 125.312 20.4284 125.312 19.9629V18.8789C125.312 18.2962 125.364 17.8079 125.468 17.4141C125.575 17.0202 125.727 16.7044 125.922 16.4668C126.117 16.2259 126.352 16.0534 126.625 15.9492C126.902 15.8451 127.211 15.793 127.553 15.793C127.829 15.793 128.083 15.8271 128.314 15.8955C128.549 15.9606 128.757 16.0664 128.939 16.2129C129.122 16.3561 129.276 16.5482 129.403 16.7891C129.534 17.0267 129.633 17.318 129.701 17.6631C129.77 18.0081 129.804 18.4134 129.804 18.8789ZM128.896 20.1094V18.7275C128.896 18.4085 128.876 18.1286 128.837 17.8877C128.801 17.6436 128.747 17.4352 128.676 17.2627C128.604 17.0902 128.513 16.9502 128.402 16.8428C128.295 16.7354 128.17 16.6572 128.026 16.6084C127.886 16.5563 127.729 16.5303 127.553 16.5303C127.338 16.5303 127.147 16.571 126.981 16.6523C126.815 16.7305 126.675 16.8558 126.562 17.0283C126.451 17.2008 126.366 17.4271 126.308 17.707C126.249 17.987 126.22 18.3271 126.22 18.7275V20.1094C126.22 20.4284 126.238 20.71 126.273 20.9541C126.312 21.1982 126.369 21.4098 126.444 21.5889C126.519 21.7646 126.61 21.9095 126.718 22.0234C126.825 22.1374 126.949 22.222 127.089 22.2773C127.232 22.3294 127.39 22.3555 127.562 22.3555C127.784 22.3555 127.978 22.3132 128.144 22.2285C128.31 22.1439 128.448 22.012 128.559 21.833C128.673 21.6507 128.757 21.418 128.812 21.1348C128.868 20.8483 128.896 20.5065 128.896 20.1094Z" fill="white"/>
</g>
<g opacity="0.9">
<path d="M168.409 19.001H169.054C169.369 19.001 169.63 18.9489 169.835 18.8447C170.043 18.7373 170.198 18.5924 170.299 18.4102C170.403 18.2246 170.455 18.0163 170.455 17.7852C170.455 17.5117 170.41 17.2822 170.318 17.0967C170.227 16.9111 170.09 16.7712 169.908 16.6768C169.726 16.5824 169.495 16.5352 169.215 16.5352C168.961 16.5352 168.736 16.5856 168.541 16.6865C168.349 16.7842 168.198 16.9242 168.087 17.1064C167.979 17.2887 167.926 17.5036 167.926 17.751H167.022C167.022 17.3896 167.114 17.0609 167.296 16.7646C167.478 16.4684 167.734 16.2324 168.062 16.0566C168.395 15.8809 168.779 15.793 169.215 15.793C169.645 15.793 170.021 15.8695 170.343 16.0225C170.665 16.1722 170.916 16.3968 171.095 16.6963C171.274 16.9925 171.363 17.362 171.363 17.8047C171.363 17.9837 171.321 18.1758 171.236 18.3809C171.155 18.5827 171.026 18.7715 170.851 18.9473C170.678 19.123 170.453 19.2679 170.177 19.3818C169.9 19.4925 169.568 19.5479 169.181 19.5479H168.409V19.001ZM168.409 19.7432V19.2012H169.181C169.633 19.2012 170.007 19.2549 170.304 19.3623C170.6 19.4697 170.833 19.613 171.002 19.792C171.174 19.971 171.295 20.168 171.363 20.3828C171.435 20.5944 171.471 20.806 171.471 21.0176C171.471 21.3496 171.414 21.6442 171.3 21.9014C171.189 22.1585 171.031 22.3766 170.826 22.5557C170.624 22.7347 170.387 22.8698 170.113 22.9609C169.84 23.0521 169.542 23.0977 169.22 23.0977C168.91 23.0977 168.619 23.0537 168.346 22.9658C168.076 22.8779 167.836 22.751 167.628 22.585C167.42 22.4157 167.257 22.209 167.14 21.9648C167.022 21.7174 166.964 21.4359 166.964 21.1201H167.867C167.867 21.3675 167.921 21.584 168.028 21.7695C168.139 21.9551 168.295 22.0999 168.497 22.2041C168.702 22.305 168.943 22.3555 169.22 22.3555C169.496 22.3555 169.734 22.3083 169.933 22.2139C170.134 22.1162 170.289 21.9697 170.396 21.7744C170.507 21.5791 170.562 21.3333 170.562 21.0371C170.562 20.7409 170.501 20.4984 170.377 20.3096C170.253 20.1175 170.077 19.9759 169.85 19.8848C169.625 19.7904 169.36 19.7432 169.054 19.7432H168.409ZM173.858 19.6162L173.136 19.4307L173.492 15.8906H177.14V16.7256H174.259L174.044 18.6592C174.174 18.5843 174.339 18.5143 174.537 18.4492C174.739 18.3841 174.97 18.3516 175.23 18.3516C175.559 18.3516 175.854 18.4085 176.114 18.5225C176.375 18.6331 176.596 18.7926 176.778 19.001C176.964 19.2093 177.105 19.46 177.203 19.7529C177.301 20.0459 177.35 20.373 177.35 20.7344C177.35 21.0762 177.302 21.3903 177.208 21.6768C177.117 21.9632 176.979 22.2139 176.793 22.4287C176.607 22.6403 176.373 22.8047 176.09 22.9219C175.81 23.0391 175.479 23.0977 175.099 23.0977C174.812 23.0977 174.54 23.0586 174.283 22.9805C174.029 22.8991 173.801 22.777 173.6 22.6143C173.401 22.4482 173.238 22.2432 173.111 21.999C172.988 21.7516 172.91 21.4619 172.877 21.1299H173.736C173.775 21.3968 173.854 21.6214 173.971 21.8037C174.088 21.986 174.241 22.1243 174.43 22.2188C174.622 22.3099 174.845 22.3555 175.099 22.3555C175.313 22.3555 175.504 22.318 175.67 22.2432C175.836 22.1683 175.976 22.0609 176.09 21.9209C176.204 21.7809 176.29 21.6117 176.349 21.4131C176.41 21.2145 176.441 20.9915 176.441 20.7441C176.441 20.5195 176.41 20.3112 176.349 20.1191C176.287 19.9271 176.194 19.7594 176.07 19.6162C175.95 19.473 175.802 19.3623 175.626 19.2842C175.45 19.2028 175.248 19.1621 175.021 19.1621C174.718 19.1621 174.488 19.2028 174.332 19.2842C174.179 19.3656 174.021 19.4762 173.858 19.6162ZM182.804 18.8789V19.9629C182.804 20.5456 182.752 21.0371 182.647 21.4375C182.543 21.8379 182.394 22.1602 182.198 22.4043C182.003 22.6484 181.767 22.8258 181.49 22.9365C181.217 23.0439 180.908 23.0977 180.562 23.0977C180.289 23.0977 180.037 23.0635 179.806 22.9951C179.575 22.9268 179.366 22.8177 179.181 22.668C178.998 22.515 178.842 22.3164 178.712 22.0723C178.582 21.8281 178.482 21.5319 178.414 21.1836C178.346 20.8353 178.312 20.4284 178.312 19.9629V18.8789C178.312 18.2962 178.364 17.8079 178.468 17.4141C178.575 17.0202 178.727 16.7044 178.922 16.4668C179.117 16.2259 179.352 16.0534 179.625 15.9492C179.902 15.8451 180.211 15.793 180.553 15.793C180.829 15.793 181.083 15.8271 181.314 15.8955C181.549 15.9606 181.757 16.0664 181.939 16.2129C182.122 16.3561 182.276 16.5482 182.403 16.7891C182.534 17.0267 182.633 17.318 182.701 17.6631C182.77 18.0081 182.804 18.4134 182.804 18.8789ZM181.896 20.1094V18.7275C181.896 18.4085 181.876 18.1286 181.837 17.8877C181.801 17.6436 181.747 17.4352 181.676 17.2627C181.604 17.0902 181.513 16.9502 181.402 16.8428C181.295 16.7354 181.17 16.6572 181.026 16.6084C180.886 16.5563 180.729 16.5303 180.553 16.5303C180.338 16.5303 180.147 16.571 179.981 16.6523C179.815 16.7305 179.675 16.8558 179.562 17.0283C179.451 17.2008 179.366 17.4271 179.308 17.707C179.249 17.987 179.22 18.3271 179.22 18.7275V20.1094C179.22 20.4284 179.238 20.71 179.273 20.9541C179.312 21.1982 179.369 21.4098 179.444 21.5889C179.519 21.7646 179.61 21.9095 179.718 22.0234C179.825 22.1374 179.949 22.222 180.089 22.2773C180.232 22.3294 180.39 22.3555 180.562 22.3555C180.784 22.3555 180.978 22.3132 181.144 22.2285C181.31 22.1439 181.448 22.012 181.559 21.833C181.673 21.6507 181.757 21.418 181.812 21.1348C181.868 20.8483 181.896 20.5065 181.896 20.1094ZM184.078 22.5215C184.078 22.3685 184.125 22.2399 184.22 22.1357C184.317 22.0283 184.457 21.9746 184.64 21.9746C184.822 21.9746 184.96 22.0283 185.055 22.1357C185.152 22.2399 185.201 22.3685 185.201 22.5215C185.201 22.6712 185.152 22.7982 185.055 22.9023C184.96 23.0065 184.822 23.0586 184.64 23.0586C184.457 23.0586 184.317 23.0065 184.22 22.9023C184.125 22.7982 184.078 22.6712 184.078 22.5215ZM191.197 15.8906V16.3984L188.253 23H187.301L190.24 16.6328H186.393V15.8906H191.197ZM193.546 19.001H194.19C194.506 19.001 194.767 18.9489 194.972 18.8447C195.18 18.7373 195.335 18.5924 195.436 18.4102C195.54 18.2246 195.592 18.0163 195.592 17.7852C195.592 17.5117 195.546 17.2822 195.455 17.0967C195.364 16.9111 195.227 16.7712 195.045 16.6768C194.863 16.5824 194.632 16.5352 194.352 16.5352C194.098 16.5352 193.873 16.5856 193.678 16.6865C193.486 16.7842 193.334 16.9242 193.224 17.1064C193.116 17.2887 193.062 17.5036 193.062 17.751H192.159C192.159 17.3896 192.25 17.0609 192.433 16.7646C192.615 16.4684 192.87 16.2324 193.199 16.0566C193.531 15.8809 193.915 15.793 194.352 15.793C194.781 15.793 195.157 15.8695 195.479 16.0225C195.802 16.1722 196.052 16.3968 196.231 16.6963C196.41 16.9925 196.5 17.362 196.5 17.8047C196.5 17.9837 196.458 18.1758 196.373 18.3809C196.292 18.5827 196.163 18.7715 195.987 18.9473C195.815 19.123 195.59 19.2679 195.313 19.3818C195.037 19.4925 194.705 19.5479 194.317 19.5479H193.546V19.001ZM193.546 19.7432V19.2012H194.317C194.77 19.2012 195.144 19.2549 195.44 19.3623C195.737 19.4697 195.969 19.613 196.139 19.792C196.311 19.971 196.432 20.168 196.5 20.3828C196.572 20.5944 196.607 20.806 196.607 21.0176C196.607 21.3496 196.55 21.6442 196.437 21.9014C196.326 22.1585 196.168 22.3766 195.963 22.5557C195.761 22.7347 195.523 22.8698 195.25 22.9609C194.977 23.0521 194.679 23.0977 194.356 23.0977C194.047 23.0977 193.756 23.0537 193.482 22.9658C193.212 22.8779 192.973 22.751 192.765 22.585C192.556 22.4157 192.394 22.209 192.276 21.9648C192.159 21.7174 192.101 21.4359 192.101 21.1201H193.004C193.004 21.3675 193.058 21.584 193.165 21.7695C193.276 21.9551 193.432 22.0999 193.634 22.2041C193.839 22.305 194.08 22.3555 194.356 22.3555C194.633 22.3555 194.871 22.3083 195.069 22.2139C195.271 22.1162 195.426 21.9697 195.533 21.7744C195.644 21.5791 195.699 21.3333 195.699 21.0371C195.699 20.7409 195.637 20.4984 195.514 20.3096C195.39 20.1175 195.214 19.9759 194.986 19.8848C194.762 19.7904 194.496 19.7432 194.19 19.7432H193.546Z" fill="white"/>
</g>
<path d="M242 26.6663C238.318 26.6663 235.333 23.6817 235.333 19.9997C235.333 16.3177 238.318 13.333 242 13.333C245.682 13.333 248.666 16.3177 248.666 19.9997C248.666 23.6817 245.682 26.6663 242 26.6663ZM241.335 22.6663L246.048 17.9523L245.106 17.0097L241.335 20.781L239.449 18.895L238.506 19.8377L241.335 22.6663Z" fill="white"/>
<path d="M370.985 15.8906L372.831 19.46L374.682 15.8906H375.751L373.3 20.3438V23H372.357V20.3438L369.906 15.8906H370.985ZM378.397 23.0977C378.03 23.0977 377.696 23.0358 377.396 22.9121C377.1 22.7852 376.845 22.6077 376.63 22.3799C376.418 22.152 376.256 21.8818 376.142 21.5693C376.028 21.2568 375.971 20.915 375.971 20.5439V20.3389C375.971 19.9092 376.034 19.5267 376.161 19.1914C376.288 18.8529 376.461 18.5664 376.679 18.332C376.897 18.0977 377.144 17.9202 377.421 17.7998C377.698 17.6794 377.984 17.6191 378.28 17.6191C378.658 17.6191 378.983 17.6842 379.257 17.8145C379.534 17.9447 379.76 18.127 379.936 18.3613C380.111 18.5924 380.242 18.8659 380.326 19.1816C380.411 19.4941 380.453 19.8359 380.453 20.207V20.6123H376.508V19.875H379.55V19.8066C379.537 19.5723 379.488 19.3444 379.403 19.123C379.322 18.9017 379.192 18.7194 379.013 18.5762C378.834 18.4329 378.59 18.3613 378.28 18.3613C378.075 18.3613 377.886 18.4053 377.714 18.4932C377.541 18.5778 377.393 18.7048 377.27 18.874C377.146 19.0433 377.05 19.25 376.981 19.4941C376.913 19.7383 376.879 20.0199 376.879 20.3389V20.5439C376.879 20.7946 376.913 21.0306 376.981 21.252C377.053 21.4701 377.156 21.6621 377.289 21.8281C377.426 21.9941 377.59 22.1243 377.782 22.2188C377.978 22.3132 378.199 22.3604 378.446 22.3604C378.765 22.3604 379.035 22.2952 379.257 22.165C379.478 22.0348 379.672 21.8607 379.838 21.6426L380.385 22.0771C380.271 22.2497 380.126 22.4141 379.95 22.5703C379.774 22.7266 379.558 22.8535 379.301 22.9512C379.047 23.0488 378.746 23.0977 378.397 23.0977ZM384.584 21.5986C384.584 21.4684 384.555 21.348 384.496 21.2373C384.441 21.1234 384.325 21.0208 384.149 20.9297C383.977 20.8353 383.716 20.7539 383.368 20.6855C383.075 20.6237 382.81 20.5505 382.572 20.4658C382.338 20.3812 382.138 20.2786 381.972 20.1582C381.809 20.0378 381.684 19.8962 381.596 19.7334C381.508 19.5706 381.464 19.3802 381.464 19.1621C381.464 18.9538 381.509 18.7568 381.601 18.5713C381.695 18.3857 381.827 18.2214 381.996 18.0781C382.169 17.9349 382.375 17.8226 382.616 17.7412C382.857 17.6598 383.126 17.6191 383.422 17.6191C383.845 17.6191 384.206 17.694 384.506 17.8438C384.805 17.9935 385.035 18.1937 385.194 18.4443C385.354 18.6917 385.434 18.9668 385.434 19.2695H384.53C384.53 19.123 384.486 18.9814 384.398 18.8447C384.314 18.7048 384.188 18.5892 384.022 18.498C383.86 18.4069 383.66 18.3613 383.422 18.3613C383.171 18.3613 382.968 18.4004 382.812 18.4785C382.659 18.5534 382.546 18.6494 382.475 18.7666C382.406 18.8838 382.372 19.0075 382.372 19.1377C382.372 19.2354 382.388 19.3232 382.421 19.4014C382.457 19.4762 382.519 19.5462 382.606 19.6113C382.694 19.6732 382.818 19.7318 382.978 19.7871C383.137 19.8424 383.34 19.8978 383.588 19.9531C384.021 20.0508 384.377 20.168 384.657 20.3047C384.937 20.4414 385.146 20.609 385.282 20.8076C385.419 21.0062 385.487 21.2471 385.487 21.5303C385.487 21.7614 385.438 21.973 385.341 22.165C385.246 22.3571 385.108 22.5231 384.926 22.6631C384.747 22.7998 384.532 22.9072 384.281 22.9854C384.034 23.0602 383.756 23.0977 383.446 23.0977C382.981 23.0977 382.587 23.0146 382.265 22.8486C381.942 22.6826 381.698 22.4678 381.532 22.2041C381.366 21.9404 381.283 21.6621 381.283 21.3691H382.191C382.204 21.6165 382.276 21.8135 382.406 21.96C382.536 22.1032 382.696 22.2057 382.885 22.2676C383.074 22.3262 383.261 22.3555 383.446 22.3555C383.694 22.3555 383.9 22.3229 384.066 22.2578C384.236 22.1927 384.364 22.1032 384.452 21.9893C384.54 21.8753 384.584 21.7451 384.584 21.5986Z" fill="white"/>
<g opacity="0.9">
<path d="M491.721 18.8789V19.9629C491.721 20.5456 491.669 21.0371 491.564 21.4375C491.46 21.8379 491.311 22.1602 491.115 22.4043C490.92 22.6484 490.684 22.8258 490.407 22.9365C490.134 23.0439 489.825 23.0977 489.479 23.0977C489.206 23.0977 488.954 23.0635 488.723 22.9951C488.492 22.9268 488.283 22.8177 488.098 22.668C487.915 22.515 487.759 22.3164 487.629 22.0723C487.499 21.8281 487.399 21.5319 487.331 21.1836C487.263 20.8353 487.229 20.4284 487.229 19.9629V18.8789C487.229 18.2962 487.281 17.8079 487.385 17.4141C487.492 17.0202 487.644 16.7044 487.839 16.4668C488.034 16.2259 488.269 16.0534 488.542 15.9492C488.819 15.8451 489.128 15.793 489.47 15.793C489.746 15.793 490 15.8271 490.231 15.8955C490.466 15.9606 490.674 16.0664 490.856 16.2129C491.039 16.3561 491.193 16.5482 491.32 16.7891C491.451 17.0267 491.55 17.318 491.618 17.6631C491.687 18.0081 491.721 18.4134 491.721 18.8789ZM490.812 20.1094V18.7275C490.812 18.4085 490.793 18.1286 490.754 17.8877C490.718 17.6436 490.664 17.4352 490.593 17.2627C490.521 17.0902 490.43 16.9502 490.319 16.8428C490.212 16.7354 490.087 16.6572 489.943 16.6084C489.803 16.5563 489.646 16.5303 489.47 16.5303C489.255 16.5303 489.064 16.571 488.898 16.6523C488.732 16.7305 488.592 16.8558 488.479 17.0283C488.368 17.2008 488.283 17.4271 488.225 17.707C488.166 17.987 488.137 18.3271 488.137 18.7275V20.1094C488.137 20.4284 488.155 20.71 488.19 20.9541C488.229 21.1982 488.286 21.4098 488.361 21.5889C488.436 21.7646 488.527 21.9095 488.635 22.0234C488.742 22.1374 488.866 22.222 489.006 22.2773C489.149 22.3294 489.307 22.3555 489.479 22.3555C489.701 22.3555 489.895 22.3132 490.061 22.2285C490.227 22.1439 490.365 22.012 490.476 21.833C490.59 21.6507 490.674 21.418 490.729 21.1348C490.785 20.8483 490.812 20.5065 490.812 20.1094ZM495.852 15.8516V23H494.948V16.9795L493.127 17.6436V16.8281L495.71 15.8516H495.852ZM500.485 19.6064V20.3486H498.103V19.6064H500.485ZM502.448 15.8906V23H501.506V15.8906H502.448ZM505.427 19.0889V19.8604H502.243V19.0889H505.427ZM505.91 15.8906V16.6621H502.243V15.8906H505.91ZM508.981 23.0977C508.614 23.0977 508.28 23.0358 507.98 22.9121C507.684 22.7852 507.429 22.6077 507.214 22.3799C507.002 22.152 506.84 21.8818 506.726 21.5693C506.612 21.2568 506.555 20.915 506.555 20.5439V20.3389C506.555 19.9092 506.618 19.5267 506.745 19.1914C506.872 18.8529 507.045 18.5664 507.263 18.332C507.481 18.0977 507.728 17.9202 508.005 17.7998C508.282 17.6794 508.568 17.6191 508.864 17.6191C509.242 17.6191 509.567 17.6842 509.841 17.8145C510.118 17.9447 510.344 18.127 510.52 18.3613C510.695 18.5924 510.826 18.8659 510.91 19.1816C510.995 19.4941 511.037 19.8359 511.037 20.207V20.6123H507.092V19.875H510.134V19.8066C510.121 19.5723 510.072 19.3444 509.987 19.123C509.906 18.9017 509.776 18.7194 509.597 18.5762C509.418 18.4329 509.174 18.3613 508.864 18.3613C508.659 18.3613 508.47 18.4053 508.298 18.4932C508.125 18.5778 507.977 18.7048 507.854 18.874C507.73 19.0433 507.634 19.25 507.565 19.4941C507.497 19.7383 507.463 20.0199 507.463 20.3389V20.5439C507.463 20.7946 507.497 21.0306 507.565 21.252C507.637 21.4701 507.74 21.6621 507.873 21.8281C508.01 21.9941 508.174 22.1243 508.366 22.2188C508.562 22.3132 508.783 22.3604 509.03 22.3604C509.349 22.3604 509.619 22.2952 509.841 22.165C510.062 22.0348 510.256 21.8607 510.422 21.6426L510.969 22.0771C510.855 22.2497 510.71 22.4141 510.534 22.5703C510.358 22.7266 510.142 22.8535 509.885 22.9512C509.631 23.0488 509.33 23.0977 508.981 23.0977ZM512.087 15.5H512.995V21.9746L512.917 23H512.087V15.5ZM516.564 20.3145V20.417C516.564 20.8011 516.519 21.1576 516.428 21.4863C516.337 21.8118 516.203 22.0951 516.027 22.3359C515.852 22.5768 515.637 22.764 515.383 22.8975C515.129 23.0309 514.838 23.0977 514.509 23.0977C514.174 23.0977 513.879 23.0407 513.625 22.9268C513.374 22.8096 513.163 22.6419 512.99 22.4238C512.818 22.2057 512.679 21.9421 512.575 21.6328C512.474 21.3236 512.404 20.9753 512.365 20.5879V20.1387C512.404 19.748 512.474 19.3981 512.575 19.0889C512.679 18.7796 512.818 18.516 512.99 18.2979C513.163 18.0765 513.374 17.9089 513.625 17.7949C513.876 17.6777 514.167 17.6191 514.499 17.6191C514.831 17.6191 515.126 17.6842 515.383 17.8145C515.64 17.9414 515.855 18.1237 516.027 18.3613C516.203 18.599 516.337 18.8838 516.428 19.2158C516.519 19.5446 516.564 19.9108 516.564 20.3145ZM515.656 20.417V20.3145C515.656 20.0508 515.632 19.8034 515.583 19.5723C515.534 19.3379 515.456 19.1328 515.349 18.957C515.241 18.778 515.1 18.638 514.924 18.5371C514.748 18.4329 514.532 18.3809 514.274 18.3809C514.047 18.3809 513.848 18.4199 513.679 18.498C513.513 18.5762 513.371 18.682 513.254 18.8154C513.137 18.9456 513.041 19.0954 512.966 19.2646C512.894 19.4307 512.84 19.6032 512.805 19.7822V20.959C512.857 21.1868 512.941 21.4066 513.059 21.6182C513.179 21.8265 513.339 21.9974 513.537 22.1309C513.739 22.2643 513.988 22.3311 514.284 22.3311C514.528 22.3311 514.737 22.2822 514.909 22.1846C515.085 22.0837 515.227 21.9453 515.334 21.7695C515.445 21.5938 515.526 21.3903 515.578 21.1592C515.63 20.9281 515.656 20.6807 515.656 20.417ZM519.587 19.6064V20.3486H517.204V19.6064H519.587ZM525.031 22.2578V23H520.378V22.3506L522.707 19.7578C522.993 19.4388 523.215 19.1686 523.371 18.9473C523.531 18.7227 523.641 18.5225 523.703 18.3467C523.768 18.1676 523.801 17.9854 523.801 17.7998C523.801 17.5654 523.752 17.3538 523.654 17.165C523.56 16.973 523.42 16.82 523.234 16.7061C523.049 16.5921 522.824 16.5352 522.561 16.5352C522.245 16.5352 521.981 16.597 521.77 16.7207C521.561 16.8411 521.405 17.0104 521.301 17.2285C521.197 17.4466 521.145 17.6973 521.145 17.9805H520.241C520.241 17.5801 520.329 17.2139 520.505 16.8818C520.681 16.5498 520.941 16.2861 521.286 16.0908C521.631 15.8923 522.056 15.793 522.561 15.793C523.01 15.793 523.394 15.8727 523.713 16.0322C524.032 16.1885 524.276 16.4098 524.445 16.6963C524.618 16.9795 524.704 17.3115 524.704 17.6924C524.704 17.9007 524.668 18.1123 524.597 18.3271C524.528 18.5387 524.432 18.7503 524.309 18.9619C524.188 19.1735 524.047 19.3818 523.884 19.5869C523.724 19.792 523.553 19.9938 523.371 20.1924L521.467 22.2578H525.031ZM530.656 22.2578V23H526.003V22.3506L528.332 19.7578C528.618 19.4388 528.84 19.1686 528.996 18.9473C529.156 18.7227 529.266 18.5225 529.328 18.3467C529.393 18.1676 529.426 17.9854 529.426 17.7998C529.426 17.5654 529.377 17.3538 529.279 17.165C529.185 16.973 529.045 16.82 528.859 16.7061C528.674 16.5921 528.449 16.5352 528.186 16.5352C527.87 16.5352 527.606 16.597 527.395 16.7207C527.186 16.8411 527.03 17.0104 526.926 17.2285C526.822 17.4466 526.77 17.6973 526.77 17.9805H525.866C525.866 17.5801 525.954 17.2139 526.13 16.8818C526.306 16.5498 526.566 16.2861 526.911 16.0908C527.256 15.8923 527.681 15.793 528.186 15.793C528.635 15.793 529.019 15.8727 529.338 16.0322C529.657 16.1885 529.901 16.4098 530.07 16.6963C530.243 16.9795 530.329 17.3115 530.329 17.6924C530.329 17.9007 530.293 18.1123 530.222 18.3271C530.153 18.5387 530.057 18.7503 529.934 18.9619C529.813 19.1735 529.672 19.3818 529.509 19.5869C529.349 19.792 529.178 19.9938 528.996 20.1924L527.092 22.2578H530.656ZM537.072 15.8516V23H536.169V16.9795L534.348 17.6436V16.8281L536.931 15.8516H537.072ZM543.195 15.8809H543.273V16.6475H543.195C542.717 16.6475 542.316 16.7256 541.994 16.8818C541.672 17.0348 541.416 17.2415 541.228 17.502C541.039 17.7591 540.902 18.0488 540.817 18.3711C540.736 18.6934 540.695 19.0205 540.695 19.3525V20.3975C540.695 20.7132 540.733 20.9932 540.808 21.2373C540.882 21.4782 540.985 21.6816 541.115 21.8477C541.245 22.0137 541.392 22.139 541.555 22.2236C541.721 22.3083 541.893 22.3506 542.072 22.3506C542.281 22.3506 542.466 22.3115 542.629 22.2334C542.792 22.152 542.928 22.0397 543.039 21.8965C543.153 21.75 543.239 21.5775 543.298 21.3789C543.356 21.1803 543.386 20.9622 543.386 20.7246C543.386 20.513 543.36 20.3096 543.308 20.1143C543.256 19.9157 543.176 19.7399 543.068 19.5869C542.961 19.4307 542.826 19.3086 542.663 19.2207C542.504 19.1296 542.313 19.084 542.092 19.084C541.841 19.084 541.607 19.1458 541.389 19.2695C541.174 19.39 540.996 19.5495 540.856 19.748C540.72 19.9434 540.642 20.1566 540.622 20.3877L540.144 20.3828C540.189 20.0182 540.274 19.7074 540.397 19.4502C540.524 19.1898 540.681 18.9782 540.866 18.8154C541.055 18.6494 541.265 18.529 541.496 18.4541C541.73 18.376 541.978 18.3369 542.238 18.3369C542.593 18.3369 542.899 18.4036 543.156 18.5371C543.413 18.6706 543.625 18.8496 543.791 19.0742C543.957 19.2956 544.079 19.5462 544.157 19.8262C544.239 20.1029 544.279 20.3877 544.279 20.6807C544.279 21.016 544.232 21.3301 544.138 21.623C544.043 21.916 543.902 22.1732 543.713 22.3945C543.527 22.6159 543.298 22.7884 543.024 22.9121C542.751 23.0358 542.434 23.0977 542.072 23.0977C541.688 23.0977 541.353 23.0195 541.066 22.8633C540.78 22.7038 540.542 22.4922 540.354 22.2285C540.165 21.9648 540.023 21.6719 539.929 21.3496C539.834 21.0273 539.787 20.7002 539.787 20.3682V19.9434C539.787 19.4421 539.838 18.9505 539.938 18.4688C540.039 17.987 540.214 17.5508 540.461 17.1602C540.712 16.7695 541.058 16.4587 541.501 16.2275C541.944 15.9964 542.508 15.8809 543.195 15.8809ZM545.412 22.5215C545.412 22.3685 545.459 22.2399 545.554 22.1357C545.651 22.0283 545.791 21.9746 545.974 21.9746C546.156 21.9746 546.294 22.0283 546.389 22.1357C546.486 22.2399 546.535 22.3685 546.535 22.5215C546.535 22.6712 546.486 22.7982 546.389 22.9023C546.294 23.0065 546.156 23.0586 545.974 23.0586C545.791 23.0586 545.651 23.0065 545.554 22.9023C545.459 22.7982 545.412 22.6712 545.412 22.5215ZM545.417 18.21C545.417 18.057 545.464 17.9284 545.559 17.8242C545.656 17.7168 545.796 17.6631 545.979 17.6631C546.161 17.6631 546.299 17.7168 546.394 17.8242C546.491 17.9284 546.54 18.057 546.54 18.21C546.54 18.3597 546.491 18.4867 546.394 18.5908C546.299 18.695 546.161 18.7471 545.979 18.7471C545.796 18.7471 545.656 18.695 545.559 18.5908C545.464 18.4867 545.417 18.3597 545.417 18.21ZM552.238 18.8789V19.9629C552.238 20.5456 552.186 21.0371 552.082 21.4375C551.978 21.8379 551.828 22.1602 551.633 22.4043C551.438 22.6484 551.201 22.8258 550.925 22.9365C550.651 23.0439 550.342 23.0977 549.997 23.0977C549.724 23.0977 549.471 23.0635 549.24 22.9951C549.009 22.9268 548.801 22.8177 548.615 22.668C548.433 22.515 548.277 22.3164 548.146 22.0723C548.016 21.8281 547.917 21.5319 547.849 21.1836C547.78 20.8353 547.746 20.4284 547.746 19.9629V18.8789C547.746 18.2962 547.798 17.8079 547.902 17.4141C548.01 17.0202 548.161 16.7044 548.356 16.4668C548.552 16.2259 548.786 16.0534 549.06 15.9492C549.336 15.8451 549.646 15.793 549.987 15.793C550.264 15.793 550.518 15.8271 550.749 15.8955C550.983 15.9606 551.192 16.0664 551.374 16.2129C551.556 16.3561 551.711 16.5482 551.838 16.7891C551.968 17.0267 552.067 17.318 552.136 17.6631C552.204 18.0081 552.238 18.4134 552.238 18.8789ZM551.33 20.1094V18.7275C551.33 18.4085 551.311 18.1286 551.271 17.8877C551.236 17.6436 551.182 17.4352 551.11 17.2627C551.039 17.0902 550.948 16.9502 550.837 16.8428C550.729 16.7354 550.604 16.6572 550.461 16.6084C550.321 16.5563 550.163 16.5303 549.987 16.5303C549.772 16.5303 549.582 16.571 549.416 16.6523C549.25 16.7305 549.11 16.8558 548.996 17.0283C548.885 17.2008 548.801 17.4271 548.742 17.707C548.684 17.987 548.654 18.3271 548.654 18.7275V20.1094C548.654 20.4284 548.672 20.71 548.708 20.9541C548.747 21.1982 548.804 21.4098 548.879 21.5889C548.954 21.7646 549.045 21.9095 549.152 22.0234C549.26 22.1374 549.383 22.222 549.523 22.2773C549.667 22.3294 549.825 22.3555 549.997 22.3555C550.218 22.3555 550.412 22.3132 550.578 22.2285C550.744 22.1439 550.882 22.012 550.993 21.833C551.107 21.6507 551.192 21.418 551.247 21.1348C551.302 20.8483 551.33 20.5065 551.33 20.1094ZM557.863 18.8789V19.9629C557.863 20.5456 557.811 21.0371 557.707 21.4375C557.603 21.8379 557.453 22.1602 557.258 22.4043C557.062 22.6484 556.826 22.8258 556.55 22.9365C556.276 23.0439 555.967 23.0977 555.622 23.0977C555.349 23.0977 555.096 23.0635 554.865 22.9951C554.634 22.9268 554.426 22.8177 554.24 22.668C554.058 22.515 553.902 22.3164 553.771 22.0723C553.641 21.8281 553.542 21.5319 553.474 21.1836C553.405 20.8353 553.371 20.4284 553.371 19.9629V18.8789C553.371 18.2962 553.423 17.8079 553.527 17.4141C553.635 17.0202 553.786 16.7044 553.981 16.4668C554.177 16.2259 554.411 16.0534 554.685 15.9492C554.961 15.8451 555.271 15.793 555.612 15.793C555.889 15.793 556.143 15.8271 556.374 15.8955C556.608 15.9606 556.817 16.0664 556.999 16.2129C557.181 16.3561 557.336 16.5482 557.463 16.7891C557.593 17.0267 557.692 17.318 557.761 17.6631C557.829 18.0081 557.863 18.4134 557.863 18.8789ZM556.955 20.1094V18.7275C556.955 18.4085 556.936 18.1286 556.896 17.8877C556.861 17.6436 556.807 17.4352 556.735 17.2627C556.664 17.0902 556.573 16.9502 556.462 16.8428C556.354 16.7354 556.229 16.6572 556.086 16.6084C555.946 16.5563 555.788 16.5303 555.612 16.5303C555.397 16.5303 555.207 16.571 555.041 16.6523C554.875 16.7305 554.735 16.8558 554.621 17.0283C554.51 17.2008 554.426 17.4271 554.367 17.707C554.309 17.987 554.279 18.3271 554.279 18.7275V20.1094C554.279 20.4284 554.297 20.71 554.333 20.9541C554.372 21.1982 554.429 21.4098 554.504 21.5889C554.579 21.7646 554.67 21.9095 554.777 22.0234C554.885 22.1374 555.008 22.222 555.148 22.2773C555.292 22.3294 555.45 22.3555 555.622 22.3555C555.843 22.3555 556.037 22.3132 556.203 22.2285C556.369 22.1439 556.507 22.012 556.618 21.833C556.732 21.6507 556.817 21.418 556.872 21.1348C556.927 20.8483 556.955 20.5065 556.955 20.1094ZM565.808 15.8906H566.745V20.7002C566.745 21.234 566.626 21.6784 566.389 22.0332C566.151 22.388 565.835 22.6549 565.441 22.834C565.051 23.0098 564.626 23.0977 564.167 23.0977C563.685 23.0977 563.249 23.0098 562.858 22.834C562.471 22.6549 562.163 22.388 561.936 22.0332C561.711 21.6784 561.599 21.234 561.599 20.7002V15.8906H562.531V20.7002C562.531 21.0713 562.6 21.3773 562.736 21.6182C562.873 21.859 563.063 22.0381 563.308 22.1553C563.555 22.2725 563.841 22.3311 564.167 22.3311C564.496 22.3311 564.782 22.2725 565.026 22.1553C565.274 22.0381 565.466 21.859 565.603 21.6182C565.739 21.3773 565.808 21.0713 565.808 20.7002V15.8906ZM570.852 15.8906V23H569.924V15.8906H570.852ZM573.137 15.8906V16.6621H567.644V15.8906H573.137ZM578.347 20.7393H579.284C579.235 21.1885 579.107 21.5905 578.898 21.9453C578.69 22.3001 578.396 22.5817 578.015 22.79C577.634 22.9951 577.159 23.0977 576.589 23.0977C576.172 23.0977 575.793 23.0195 575.451 22.8633C575.113 22.707 574.821 22.4857 574.577 22.1992C574.333 21.9095 574.144 21.5628 574.011 21.1592C573.881 20.7523 573.815 20.2998 573.815 19.8018V19.0938C573.815 18.5957 573.881 18.1449 574.011 17.7412C574.144 17.3343 574.335 16.986 574.582 16.6963C574.833 16.4066 575.134 16.1836 575.485 16.0273C575.837 15.8711 576.232 15.793 576.672 15.793C577.209 15.793 577.663 15.8939 578.034 16.0957C578.405 16.2975 578.693 16.5775 578.898 16.9355C579.107 17.2904 579.235 17.7021 579.284 18.1709H578.347C578.301 17.8389 578.216 17.554 578.093 17.3164C577.969 17.0755 577.793 16.89 577.565 16.7598C577.338 16.6296 577.04 16.5645 576.672 16.5645C576.356 16.5645 576.078 16.6247 575.837 16.7451C575.599 16.8656 575.399 17.0365 575.236 17.2578C575.077 17.4792 574.956 17.7445 574.875 18.0537C574.794 18.363 574.753 18.7064 574.753 19.084V19.8018C574.753 20.1501 574.789 20.4772 574.86 20.7832C574.935 21.0892 575.048 21.3577 575.197 21.5889C575.347 21.82 575.537 22.0023 575.769 22.1357C576 22.266 576.273 22.3311 576.589 22.3311C576.989 22.3311 577.308 22.2676 577.546 22.1406C577.784 22.0137 577.963 21.8314 578.083 21.5938C578.207 21.3561 578.295 21.0713 578.347 20.7393Z" fill="white"/>
</g>
<g opacity="0.9">
<path d="M823.054 18.8789V19.9629C823.054 20.5456 823.002 21.0371 822.897 21.4375C822.793 21.8379 822.644 22.1602 822.448 22.4043C822.253 22.6484 822.017 22.8258 821.74 22.9365C821.467 23.0439 821.158 23.0977 820.812 23.0977C820.539 23.0977 820.287 23.0635 820.056 22.9951C819.825 22.9268 819.616 22.8177 819.431 22.668C819.248 22.515 819.092 22.3164 818.962 22.0723C818.832 21.8281 818.732 21.5319 818.664 21.1836C818.596 20.8353 818.562 20.4284 818.562 19.9629V18.8789C818.562 18.2962 818.614 17.8079 818.718 17.4141C818.825 17.0202 818.977 16.7044 819.172 16.4668C819.367 16.2259 819.602 16.0534 819.875 15.9492C820.152 15.8451 820.461 15.793 820.803 15.793C821.079 15.793 821.333 15.8271 821.564 15.8955C821.799 15.9606 822.007 16.0664 822.189 16.2129C822.372 16.3561 822.526 16.5482 822.653 16.7891C822.784 17.0267 822.883 17.318 822.951 17.6631C823.02 18.0081 823.054 18.4134 823.054 18.8789ZM822.146 20.1094V18.7275C822.146 18.4085 822.126 18.1286 822.087 17.8877C822.051 17.6436 821.997 17.4352 821.926 17.2627C821.854 17.0902 821.763 16.9502 821.652 16.8428C821.545 16.7354 821.42 16.6572 821.276 16.6084C821.136 16.5563 820.979 16.5303 820.803 16.5303C820.588 16.5303 820.397 16.571 820.231 16.6523C820.065 16.7305 819.925 16.8558 819.812 17.0283C819.701 17.2008 819.616 17.4271 819.558 17.707C819.499 17.987 819.47 18.3271 819.47 18.7275V20.1094C819.47 20.4284 819.488 20.71 819.523 20.9541C819.562 21.1982 819.619 21.4098 819.694 21.5889C819.769 21.7646 819.86 21.9095 819.968 22.0234C820.075 22.1374 820.199 22.222 820.339 22.2773C820.482 22.3294 820.64 22.3555 820.812 22.3555C821.034 22.3555 821.228 22.3132 821.394 22.2285C821.56 22.1439 821.698 22.012 821.809 21.833C821.923 21.6507 822.007 21.418 822.062 21.1348C822.118 20.8483 822.146 20.5065 822.146 20.1094ZM827.185 15.8516V23H826.281V16.9795L824.46 17.6436V16.8281L827.043 15.8516H827.185ZM831.818 19.6064V20.3486H829.436V19.6064H831.818ZM833.781 15.8906V23H832.839V15.8906H833.781ZM836.76 19.0889V19.8604H833.576V19.0889H836.76ZM837.243 15.8906V16.6621H833.576V15.8906H837.243ZM840.314 23.0977C839.947 23.0977 839.613 23.0358 839.313 22.9121C839.017 22.7852 838.762 22.6077 838.547 22.3799C838.335 22.152 838.173 21.8818 838.059 21.5693C837.945 21.2568 837.888 20.915 837.888 20.5439V20.3389C837.888 19.9092 837.951 19.5267 838.078 19.1914C838.205 18.8529 838.378 18.5664 838.596 18.332C838.814 18.0977 839.061 17.9202 839.338 17.7998C839.615 17.6794 839.901 17.6191 840.197 17.6191C840.575 17.6191 840.9 17.6842 841.174 17.8145C841.451 17.9447 841.677 18.127 841.853 18.3613C842.028 18.5924 842.159 18.8659 842.243 19.1816C842.328 19.4941 842.37 19.8359 842.37 20.207V20.6123H838.425V19.875H841.467V19.8066C841.454 19.5723 841.405 19.3444 841.32 19.123C841.239 18.9017 841.109 18.7194 840.93 18.5762C840.751 18.4329 840.507 18.3613 840.197 18.3613C839.992 18.3613 839.803 18.4053 839.631 18.4932C839.458 18.5778 839.31 18.7048 839.187 18.874C839.063 19.0433 838.967 19.25 838.898 19.4941C838.83 19.7383 838.796 20.0199 838.796 20.3389V20.5439C838.796 20.7946 838.83 21.0306 838.898 21.252C838.97 21.4701 839.073 21.6621 839.206 21.8281C839.343 21.9941 839.507 22.1243 839.699 22.2188C839.895 22.3132 840.116 22.3604 840.363 22.3604C840.682 22.3604 840.952 22.2952 841.174 22.165C841.395 22.0348 841.589 21.8607 841.755 21.6426L842.302 22.0771C842.188 22.2497 842.043 22.4141 841.867 22.5703C841.691 22.7266 841.475 22.8535 841.218 22.9512C840.964 23.0488 840.663 23.0977 840.314 23.0977ZM843.42 15.5H844.328V21.9746L844.25 23H843.42V15.5ZM847.897 20.3145V20.417C847.897 20.8011 847.852 21.1576 847.761 21.4863C847.67 21.8118 847.536 22.0951 847.36 22.3359C847.185 22.5768 846.97 22.764 846.716 22.8975C846.462 23.0309 846.171 23.0977 845.842 23.0977C845.507 23.0977 845.212 23.0407 844.958 22.9268C844.707 22.8096 844.496 22.6419 844.323 22.4238C844.151 22.2057 844.012 21.9421 843.908 21.6328C843.807 21.3236 843.737 20.9753 843.698 20.5879V20.1387C843.737 19.748 843.807 19.3981 843.908 19.0889C844.012 18.7796 844.151 18.516 844.323 18.2979C844.496 18.0765 844.707 17.9089 844.958 17.7949C845.209 17.6777 845.5 17.6191 845.832 17.6191C846.164 17.6191 846.459 17.6842 846.716 17.8145C846.973 17.9414 847.188 18.1237 847.36 18.3613C847.536 18.599 847.67 18.8838 847.761 19.2158C847.852 19.5446 847.897 19.9108 847.897 20.3145ZM846.989 20.417V20.3145C846.989 20.0508 846.965 19.8034 846.916 19.5723C846.867 19.3379 846.789 19.1328 846.682 18.957C846.574 18.778 846.433 18.638 846.257 18.5371C846.081 18.4329 845.865 18.3809 845.607 18.3809C845.38 18.3809 845.181 18.4199 845.012 18.498C844.846 18.5762 844.704 18.682 844.587 18.8154C844.47 18.9456 844.374 19.0954 844.299 19.2646C844.227 19.4307 844.174 19.6032 844.138 19.7822V20.959C844.19 21.1868 844.274 21.4066 844.392 21.6182C844.512 21.8265 844.672 21.9974 844.87 22.1309C845.072 22.2643 845.321 22.3311 845.617 22.3311C845.861 22.3311 846.07 22.2822 846.242 22.1846C846.418 22.0837 846.56 21.9453 846.667 21.7695C846.778 21.5938 846.859 21.3903 846.911 21.1592C846.963 20.9281 846.989 20.6807 846.989 20.417ZM850.92 19.6064V20.3486H848.537V19.6064H850.92ZM856.364 22.2578V23H851.711V22.3506L854.04 19.7578C854.326 19.4388 854.548 19.1686 854.704 18.9473C854.864 18.7227 854.974 18.5225 855.036 18.3467C855.101 18.1676 855.134 17.9854 855.134 17.7998C855.134 17.5654 855.085 17.3538 854.987 17.165C854.893 16.973 854.753 16.82 854.567 16.7061C854.382 16.5921 854.157 16.5352 853.894 16.5352C853.578 16.5352 853.314 16.597 853.103 16.7207C852.894 16.8411 852.738 17.0104 852.634 17.2285C852.53 17.4466 852.478 17.6973 852.478 17.9805H851.574C851.574 17.5801 851.662 17.2139 851.838 16.8818C852.014 16.5498 852.274 16.2861 852.619 16.0908C852.964 15.8923 853.389 15.793 853.894 15.793C854.343 15.793 854.727 15.8727 855.046 16.0322C855.365 16.1885 855.609 16.4098 855.778 16.6963C855.951 16.9795 856.037 17.3115 856.037 17.6924C856.037 17.9007 856.001 18.1123 855.93 18.3271C855.861 18.5387 855.765 18.7503 855.642 18.9619C855.521 19.1735 855.38 19.3818 855.217 19.5869C855.057 19.792 854.886 19.9938 854.704 20.1924L852.8 22.2578H856.364ZM861.989 22.2578V23H857.336V22.3506L859.665 19.7578C859.951 19.4388 860.173 19.1686 860.329 18.9473C860.489 18.7227 860.599 18.5225 860.661 18.3467C860.726 18.1676 860.759 17.9854 860.759 17.7998C860.759 17.5654 860.71 17.3538 860.612 17.165C860.518 16.973 860.378 16.82 860.192 16.7061C860.007 16.5921 859.782 16.5352 859.519 16.5352C859.203 16.5352 858.939 16.597 858.728 16.7207C858.519 16.8411 858.363 17.0104 858.259 17.2285C858.155 17.4466 858.103 17.6973 858.103 17.9805H857.199C857.199 17.5801 857.287 17.2139 857.463 16.8818C857.639 16.5498 857.899 16.2861 858.244 16.0908C858.589 15.8923 859.014 15.793 859.519 15.793C859.968 15.793 860.352 15.8727 860.671 16.0322C860.99 16.1885 861.234 16.4098 861.403 16.6963C861.576 16.9795 861.662 17.3115 861.662 17.6924C861.662 17.9007 861.626 18.1123 861.555 18.3271C861.486 18.5387 861.39 18.7503 861.267 18.9619C861.146 19.1735 861.005 19.3818 860.842 19.5869C860.682 19.792 860.511 19.9938 860.329 20.1924L858.425 22.2578H861.989ZM868.405 15.8516V23H867.502V16.9795L865.681 17.6436V16.8281L868.264 15.8516H868.405ZM874.528 15.8809H874.606V16.6475H874.528C874.05 16.6475 873.649 16.7256 873.327 16.8818C873.005 17.0348 872.749 17.2415 872.561 17.502C872.372 17.7591 872.235 18.0488 872.15 18.3711C872.069 18.6934 872.028 19.0205 872.028 19.3525V20.3975C872.028 20.7132 872.066 20.9932 872.141 21.2373C872.215 21.4782 872.318 21.6816 872.448 21.8477C872.578 22.0137 872.725 22.139 872.888 22.2236C873.054 22.3083 873.226 22.3506 873.405 22.3506C873.614 22.3506 873.799 22.3115 873.962 22.2334C874.125 22.152 874.261 22.0397 874.372 21.8965C874.486 21.75 874.572 21.5775 874.631 21.3789C874.689 21.1803 874.719 20.9622 874.719 20.7246C874.719 20.513 874.693 20.3096 874.641 20.1143C874.589 19.9157 874.509 19.7399 874.401 19.5869C874.294 19.4307 874.159 19.3086 873.996 19.2207C873.837 19.1296 873.646 19.084 873.425 19.084C873.174 19.084 872.94 19.1458 872.722 19.2695C872.507 19.39 872.329 19.5495 872.189 19.748C872.053 19.9434 871.975 20.1566 871.955 20.3877L871.477 20.3828C871.522 20.0182 871.607 19.7074 871.73 19.4502C871.857 19.1898 872.014 18.9782 872.199 18.8154C872.388 18.6494 872.598 18.529 872.829 18.4541C873.063 18.376 873.311 18.3369 873.571 18.3369C873.926 18.3369 874.232 18.4036 874.489 18.5371C874.746 18.6706 874.958 18.8496 875.124 19.0742C875.29 19.2956 875.412 19.5462 875.49 19.8262C875.572 20.1029 875.612 20.3877 875.612 20.6807C875.612 21.016 875.565 21.3301 875.471 21.623C875.376 21.916 875.235 22.1732 875.046 22.3945C874.86 22.6159 874.631 22.7884 874.357 22.9121C874.084 23.0358 873.767 23.0977 873.405 23.0977C873.021 23.0977 872.686 23.0195 872.399 22.8633C872.113 22.7038 871.875 22.4922 871.687 22.2285C871.498 21.9648 871.356 21.6719 871.262 21.3496C871.167 21.0273 871.12 20.7002 871.12 20.3682V19.9434C871.12 19.4421 871.171 18.9505 871.271 18.4688C871.372 17.987 871.547 17.5508 871.794 17.1602C872.045 16.7695 872.391 16.4587 872.834 16.2275C873.277 15.9964 873.841 15.8809 874.528 15.8809ZM876.745 22.5215C876.745 22.3685 876.792 22.2399 876.887 22.1357C876.984 22.0283 877.124 21.9746 877.307 21.9746C877.489 21.9746 877.627 22.0283 877.722 22.1357C877.819 22.2399 877.868 22.3685 877.868 22.5215C877.868 22.6712 877.819 22.7982 877.722 22.9023C877.627 23.0065 877.489 23.0586 877.307 23.0586C877.124 23.0586 876.984 23.0065 876.887 22.9023C876.792 22.7982 876.745 22.6712 876.745 22.5215ZM876.75 18.21C876.75 18.057 876.797 17.9284 876.892 17.8242C876.989 17.7168 877.129 17.6631 877.312 17.6631C877.494 17.6631 877.632 17.7168 877.727 17.8242C877.824 17.9284 877.873 18.057 877.873 18.21C877.873 18.3597 877.824 18.4867 877.727 18.5908C877.632 18.695 877.494 18.7471 877.312 18.7471C877.129 18.7471 876.989 18.695 876.892 18.5908C876.797 18.4867 876.75 18.3597 876.75 18.21ZM883.767 22.2578V23H879.113V22.3506L881.442 19.7578C881.729 19.4388 881.95 19.1686 882.106 18.9473C882.266 18.7227 882.377 18.5225 882.438 18.3467C882.504 18.1676 882.536 17.9854 882.536 17.7998C882.536 17.5654 882.487 17.3538 882.39 17.165C882.295 16.973 882.155 16.82 881.97 16.7061C881.784 16.5921 881.56 16.5352 881.296 16.5352C880.98 16.5352 880.716 16.597 880.505 16.7207C880.297 16.8411 880.14 17.0104 880.036 17.2285C879.932 17.4466 879.88 17.6973 879.88 17.9805H878.977C878.977 17.5801 879.064 17.2139 879.24 16.8818C879.416 16.5498 879.676 16.2861 880.021 16.0908C880.367 15.8923 880.791 15.793 881.296 15.793C881.745 15.793 882.129 15.8727 882.448 16.0322C882.767 16.1885 883.011 16.4098 883.181 16.6963C883.353 16.9795 883.439 17.3115 883.439 17.6924C883.439 17.9007 883.404 18.1123 883.332 18.3271C883.264 18.5387 883.168 18.7503 883.044 18.9619C882.924 19.1735 882.782 19.3818 882.619 19.5869C882.46 19.792 882.289 19.9938 882.106 20.1924L880.202 22.2578H883.767ZM889.538 20.6074V21.3496H884.401V20.8174L887.585 15.8906H888.322L887.531 17.3164L885.427 20.6074H889.538ZM888.547 15.8906V23H887.644V15.8906H888.547ZM897.141 15.8906H898.078V20.7002C898.078 21.234 897.959 21.6784 897.722 22.0332C897.484 22.388 897.168 22.6549 896.774 22.834C896.384 23.0098 895.959 23.0977 895.5 23.0977C895.018 23.0977 894.582 23.0098 894.191 22.834C893.804 22.6549 893.496 22.388 893.269 22.0332C893.044 21.6784 892.932 21.234 892.932 20.7002V15.8906H893.864V20.7002C893.864 21.0713 893.933 21.3773 894.069 21.6182C894.206 21.859 894.396 22.0381 894.641 22.1553C894.888 22.2725 895.174 22.3311 895.5 22.3311C895.829 22.3311 896.115 22.2725 896.359 22.1553C896.607 22.0381 896.799 21.859 896.936 21.6182C897.072 21.3773 897.141 21.0713 897.141 20.7002V15.8906ZM902.185 15.8906V23H901.257V15.8906H902.185ZM904.47 15.8906V16.6621H898.977V15.8906H904.47ZM909.68 20.7393H910.617C910.568 21.1885 910.44 21.5905 910.231 21.9453C910.023 22.3001 909.729 22.5817 909.348 22.79C908.967 22.9951 908.492 23.0977 907.922 23.0977C907.505 23.0977 907.126 23.0195 906.784 22.8633C906.446 22.707 906.154 22.4857 905.91 22.1992C905.666 21.9095 905.477 21.5628 905.344 21.1592C905.214 20.7523 905.148 20.2998 905.148 19.8018V19.0938C905.148 18.5957 905.214 18.1449 905.344 17.7412C905.477 17.3343 905.668 16.986 905.915 16.6963C906.166 16.4066 906.467 16.1836 906.818 16.0273C907.17 15.8711 907.565 15.793 908.005 15.793C908.542 15.793 908.996 15.8939 909.367 16.0957C909.738 16.2975 910.026 16.5775 910.231 16.9355C910.44 17.2904 910.568 17.7021 910.617 18.1709H909.68C909.634 17.8389 909.549 17.554 909.426 17.3164C909.302 17.0755 909.126 16.89 908.898 16.7598C908.671 16.6296 908.373 16.5645 908.005 16.5645C907.689 16.5645 907.411 16.6247 907.17 16.7451C906.932 16.8656 906.732 17.0365 906.569 17.2578C906.41 17.4792 906.289 17.7445 906.208 18.0537C906.127 18.363 906.086 18.7064 906.086 19.084V19.8018C906.086 20.1501 906.122 20.4772 906.193 20.7832C906.268 21.0892 906.381 21.3577 906.53 21.5889C906.68 21.82 906.87 22.0023 907.102 22.1357C907.333 22.266 907.606 22.3311 907.922 22.3311C908.322 22.3311 908.641 22.2676 908.879 22.1406C909.117 22.0137 909.296 21.8314 909.416 21.5938C909.54 21.3561 909.628 21.0713 909.68 20.7393Z" fill="white"/>
</g>
<rect x="0.5" y="0.5" width="927" height="39" rx="11.5" stroke="#86B869"/>
</svg>
