<svg width="928" height="41" viewBox="0 0 928 41" fill="none" xmlns="http://www.w3.org/2000/svg">
<rect y="0.0800781" width="928" height="40" rx="12" fill="white"/>
<g clip-path="url(#clip0_1200_41610)">
<rect x="16.5" y="12.5801" width="15" height="15" rx="3.5" fill="white"/>
<rect x="16.5" y="12.5801" width="15" height="15" rx="3.5" stroke="#DAE6F0"/>
</g>
<g opacity="0.9">
<path d="M63.0576 15.9609H63.1357V16.7275H63.0576C62.5791 16.7275 62.1787 16.8057 61.8564 16.9619C61.5342 17.1149 61.2786 17.3216 61.0898 17.582C60.901 17.8392 60.7643 18.1289 60.6797 18.4512C60.5983 18.7734 60.5576 19.1006 60.5576 19.4326V20.4775C60.5576 20.7933 60.5951 21.0732 60.6699 21.3174C60.7448 21.5583 60.8473 21.7617 60.9775 21.9277C61.1077 22.0938 61.2542 22.2191 61.417 22.3037C61.583 22.3883 61.7555 22.4307 61.9346 22.4307C62.1429 22.4307 62.3285 22.3916 62.4912 22.3135C62.654 22.2321 62.7907 22.1198 62.9014 21.9766C63.0153 21.8301 63.1016 21.6576 63.1602 21.459C63.2188 21.2604 63.248 21.0423 63.248 20.8047C63.248 20.5931 63.222 20.3896 63.1699 20.1943C63.1178 19.9958 63.0381 19.82 62.9307 19.667C62.8232 19.5107 62.6882 19.3887 62.5254 19.3008C62.3659 19.2096 62.1755 19.1641 61.9541 19.1641C61.7035 19.1641 61.4691 19.2259 61.251 19.3496C61.0361 19.4701 60.8587 19.6296 60.7188 19.8281C60.582 20.0234 60.5039 20.2367 60.4844 20.4678L60.0059 20.4629C60.0514 20.0983 60.1361 19.7874 60.2598 19.5303C60.3867 19.2699 60.543 19.0583 60.7285 18.8955C60.9173 18.7295 61.1273 18.609 61.3584 18.5342C61.5928 18.4561 61.8402 18.417 62.1006 18.417C62.4554 18.417 62.7614 18.4837 63.0186 18.6172C63.2757 18.7507 63.4873 18.9297 63.6533 19.1543C63.8193 19.3757 63.9414 19.6263 64.0195 19.9062C64.1009 20.1829 64.1416 20.4678 64.1416 20.7607C64.1416 21.096 64.0944 21.4102 64 21.7031C63.9056 21.9961 63.764 22.2533 63.5752 22.4746C63.3896 22.696 63.1602 22.8685 62.8867 22.9922C62.6133 23.1159 62.2959 23.1777 61.9346 23.1777C61.5505 23.1777 61.2152 23.0996 60.9287 22.9434C60.6423 22.7839 60.4046 22.5723 60.2158 22.3086C60.027 22.0449 59.8854 21.752 59.791 21.4297C59.6966 21.1074 59.6494 20.7803 59.6494 20.4482V20.0234C59.6494 19.5221 59.6999 19.0306 59.8008 18.5488C59.9017 18.0671 60.0758 17.6309 60.3232 17.2402C60.5739 16.8496 60.9206 16.5387 61.3633 16.3076C61.806 16.0765 62.3708 15.9609 63.0576 15.9609Z" fill="#32375E"/>
</g>
<g opacity="0.9">
<path d="M118.896 20.6875V21.4297H113.759V20.8975L116.942 15.9707H117.68L116.889 17.3965L114.784 20.6875H118.896ZM117.904 15.9707V23.0801H117.001V15.9707H117.904ZM124.179 18.959V20.043C124.179 20.6257 124.127 21.1172 124.022 21.5176C123.918 21.918 123.769 22.2402 123.573 22.4844C123.378 22.7285 123.142 22.9059 122.865 23.0166C122.592 23.124 122.283 23.1777 121.938 23.1777C121.664 23.1777 121.412 23.1436 121.181 23.0752C120.95 23.0068 120.741 22.8978 120.556 22.748C120.373 22.5951 120.217 22.3965 120.087 22.1523C119.957 21.9082 119.857 21.612 119.789 21.2637C119.721 20.9154 119.687 20.5085 119.687 20.043V18.959C119.687 18.3763 119.739 17.888 119.843 17.4941C119.95 17.1003 120.102 16.7845 120.297 16.5469C120.492 16.306 120.727 16.1335 121 16.0293C121.277 15.9251 121.586 15.873 121.928 15.873C122.204 15.873 122.458 15.9072 122.689 15.9756C122.924 16.0407 123.132 16.1465 123.314 16.293C123.497 16.4362 123.651 16.6283 123.778 16.8691C123.909 17.1068 124.008 17.3981 124.076 17.7432C124.145 18.0882 124.179 18.4935 124.179 18.959ZM123.271 20.1895V18.8076C123.271 18.4886 123.251 18.2087 123.212 17.9678C123.176 17.7236 123.122 17.5153 123.051 17.3428C122.979 17.1702 122.888 17.0303 122.777 16.9229C122.67 16.8154 122.545 16.7373 122.401 16.6885C122.261 16.6364 122.104 16.6104 121.928 16.6104C121.713 16.6104 121.522 16.651 121.356 16.7324C121.19 16.8105 121.05 16.9359 120.937 17.1084C120.826 17.2809 120.741 17.5072 120.683 17.7871C120.624 18.0671 120.595 18.4072 120.595 18.8076V20.1895C120.595 20.5085 120.613 20.79 120.648 21.0342C120.688 21.2783 120.744 21.4899 120.819 21.6689C120.894 21.8447 120.985 21.9896 121.093 22.1035C121.2 22.2174 121.324 22.3021 121.464 22.3574C121.607 22.4095 121.765 22.4355 121.938 22.4355C122.159 22.4355 122.353 22.3932 122.519 22.3086C122.685 22.224 122.823 22.0921 122.934 21.9131C123.048 21.7308 123.132 21.498 123.188 21.2148C123.243 20.9284 123.271 20.5866 123.271 20.1895ZM126.483 19.6963L125.761 19.5107L126.117 15.9707H129.765V16.8057H126.884L126.669 18.7393C126.799 18.6644 126.964 18.5944 127.162 18.5293C127.364 18.4642 127.595 18.4316 127.855 18.4316C128.184 18.4316 128.479 18.4886 128.739 18.6025C129 18.7132 129.221 18.8727 129.403 19.0811C129.589 19.2894 129.73 19.54 129.828 19.833C129.926 20.126 129.975 20.4531 129.975 20.8145C129.975 21.1562 129.927 21.4704 129.833 21.7568C129.742 22.0433 129.604 22.2939 129.418 22.5088C129.232 22.7204 128.998 22.8848 128.715 23.002C128.435 23.1191 128.104 23.1777 127.724 23.1777C127.437 23.1777 127.165 23.1387 126.908 23.0605C126.654 22.9792 126.426 22.8571 126.225 22.6943C126.026 22.5283 125.863 22.3232 125.736 22.0791C125.613 21.8317 125.535 21.542 125.502 21.21H126.361C126.4 21.4769 126.479 21.7015 126.596 21.8838C126.713 22.0661 126.866 22.2044 127.055 22.2988C127.247 22.39 127.47 22.4355 127.724 22.4355C127.938 22.4355 128.129 22.3981 128.295 22.3232C128.461 22.2484 128.601 22.141 128.715 22.001C128.829 21.861 128.915 21.6917 128.974 21.4932C129.035 21.2946 129.066 21.0716 129.066 20.8242C129.066 20.5996 129.035 20.3913 128.974 20.1992C128.912 20.0072 128.819 19.8395 128.695 19.6963C128.575 19.5531 128.427 19.4424 128.251 19.3643C128.075 19.2829 127.873 19.2422 127.646 19.2422C127.343 19.2422 127.113 19.2829 126.957 19.3643C126.804 19.4456 126.646 19.5563 126.483 19.6963Z" fill="#32375E"/>
</g>
<g opacity="0.9">
<path d="M168.409 19.0811H169.054C169.369 19.0811 169.63 19.029 169.835 18.9248C170.043 18.8174 170.198 18.6725 170.299 18.4902C170.403 18.3047 170.455 18.0964 170.455 17.8652C170.455 17.5918 170.41 17.3623 170.318 17.1768C170.227 16.9912 170.09 16.8512 169.908 16.7568C169.726 16.6624 169.495 16.6152 169.215 16.6152C168.961 16.6152 168.736 16.6657 168.541 16.7666C168.349 16.8643 168.198 17.0042 168.087 17.1865C167.979 17.3688 167.926 17.5837 167.926 17.8311H167.022C167.022 17.4697 167.114 17.141 167.296 16.8447C167.478 16.5485 167.734 16.3125 168.062 16.1367C168.395 15.9609 168.779 15.873 169.215 15.873C169.645 15.873 170.021 15.9495 170.343 16.1025C170.665 16.2523 170.916 16.4769 171.095 16.7764C171.274 17.0726 171.363 17.4421 171.363 17.8848C171.363 18.0638 171.321 18.2559 171.236 18.4609C171.155 18.6628 171.026 18.8516 170.851 19.0273C170.678 19.2031 170.453 19.348 170.177 19.4619C169.9 19.5726 169.568 19.6279 169.181 19.6279H168.409V19.0811ZM168.409 19.8232V19.2812H169.181C169.633 19.2812 170.007 19.335 170.304 19.4424C170.6 19.5498 170.833 19.693 171.002 19.8721C171.174 20.0511 171.295 20.248 171.363 20.4629C171.435 20.6745 171.471 20.8861 171.471 21.0977C171.471 21.4297 171.414 21.7243 171.3 21.9814C171.189 22.2386 171.031 22.4567 170.826 22.6357C170.624 22.8148 170.387 22.9499 170.113 23.041C169.84 23.1322 169.542 23.1777 169.22 23.1777C168.91 23.1777 168.619 23.1338 168.346 23.0459C168.076 22.958 167.836 22.8311 167.628 22.665C167.42 22.4958 167.257 22.2891 167.14 22.0449C167.022 21.7975 166.964 21.516 166.964 21.2002H167.867C167.867 21.4476 167.921 21.6641 168.028 21.8496C168.139 22.0352 168.295 22.18 168.497 22.2842C168.702 22.3851 168.943 22.4355 169.22 22.4355C169.496 22.4355 169.734 22.3883 169.933 22.2939C170.134 22.1963 170.289 22.0498 170.396 21.8545C170.507 21.6592 170.562 21.4134 170.562 21.1172C170.562 20.821 170.501 20.5785 170.377 20.3896C170.253 20.1976 170.077 20.056 169.85 19.9648C169.625 19.8704 169.36 19.8232 169.054 19.8232H168.409ZM173.858 19.6963L173.136 19.5107L173.492 15.9707H177.14V16.8057H174.259L174.044 18.7393C174.174 18.6644 174.339 18.5944 174.537 18.5293C174.739 18.4642 174.97 18.4316 175.23 18.4316C175.559 18.4316 175.854 18.4886 176.114 18.6025C176.375 18.7132 176.596 18.8727 176.778 19.0811C176.964 19.2894 177.105 19.54 177.203 19.833C177.301 20.126 177.35 20.4531 177.35 20.8145C177.35 21.1562 177.302 21.4704 177.208 21.7568C177.117 22.0433 176.979 22.2939 176.793 22.5088C176.607 22.7204 176.373 22.8848 176.09 23.002C175.81 23.1191 175.479 23.1777 175.099 23.1777C174.812 23.1777 174.54 23.1387 174.283 23.0605C174.029 22.9792 173.801 22.8571 173.6 22.6943C173.401 22.5283 173.238 22.3232 173.111 22.0791C172.988 21.8317 172.91 21.542 172.877 21.21H173.736C173.775 21.4769 173.854 21.7015 173.971 21.8838C174.088 22.0661 174.241 22.2044 174.43 22.2988C174.622 22.39 174.845 22.4355 175.099 22.4355C175.313 22.4355 175.504 22.3981 175.67 22.3232C175.836 22.2484 175.976 22.141 176.09 22.001C176.204 21.861 176.29 21.6917 176.349 21.4932C176.41 21.2946 176.441 21.0716 176.441 20.8242C176.441 20.5996 176.41 20.3913 176.349 20.1992C176.287 20.0072 176.194 19.8395 176.07 19.6963C175.95 19.5531 175.802 19.4424 175.626 19.3643C175.45 19.2829 175.248 19.2422 175.021 19.2422C174.718 19.2422 174.488 19.2829 174.332 19.3643C174.179 19.4456 174.021 19.5563 173.858 19.6963ZM182.804 18.959V20.043C182.804 20.6257 182.752 21.1172 182.647 21.5176C182.543 21.918 182.394 22.2402 182.198 22.4844C182.003 22.7285 181.767 22.9059 181.49 23.0166C181.217 23.124 180.908 23.1777 180.562 23.1777C180.289 23.1777 180.037 23.1436 179.806 23.0752C179.575 23.0068 179.366 22.8978 179.181 22.748C178.998 22.5951 178.842 22.3965 178.712 22.1523C178.582 21.9082 178.482 21.612 178.414 21.2637C178.346 20.9154 178.312 20.5085 178.312 20.043V18.959C178.312 18.3763 178.364 17.888 178.468 17.4941C178.575 17.1003 178.727 16.7845 178.922 16.5469C179.117 16.306 179.352 16.1335 179.625 16.0293C179.902 15.9251 180.211 15.873 180.553 15.873C180.829 15.873 181.083 15.9072 181.314 15.9756C181.549 16.0407 181.757 16.1465 181.939 16.293C182.122 16.4362 182.276 16.6283 182.403 16.8691C182.534 17.1068 182.633 17.3981 182.701 17.7432C182.77 18.0882 182.804 18.4935 182.804 18.959ZM181.896 20.1895V18.8076C181.896 18.4886 181.876 18.2087 181.837 17.9678C181.801 17.7236 181.747 17.5153 181.676 17.3428C181.604 17.1702 181.513 17.0303 181.402 16.9229C181.295 16.8154 181.17 16.7373 181.026 16.6885C180.886 16.6364 180.729 16.6104 180.553 16.6104C180.338 16.6104 180.147 16.651 179.981 16.7324C179.815 16.8105 179.675 16.9359 179.562 17.1084C179.451 17.2809 179.366 17.5072 179.308 17.7871C179.249 18.0671 179.22 18.4072 179.22 18.8076V20.1895C179.22 20.5085 179.238 20.79 179.273 21.0342C179.312 21.2783 179.369 21.4899 179.444 21.6689C179.519 21.8447 179.61 21.9896 179.718 22.1035C179.825 22.2174 179.949 22.3021 180.089 22.3574C180.232 22.4095 180.39 22.4355 180.562 22.4355C180.784 22.4355 180.978 22.3932 181.144 22.3086C181.31 22.224 181.448 22.0921 181.559 21.9131C181.673 21.7308 181.757 21.498 181.812 21.2148C181.868 20.9284 181.896 20.5866 181.896 20.1895ZM184.078 22.6016C184.078 22.4486 184.125 22.32 184.22 22.2158C184.317 22.1084 184.457 22.0547 184.64 22.0547C184.822 22.0547 184.96 22.1084 185.055 22.2158C185.152 22.32 185.201 22.4486 185.201 22.6016C185.201 22.7513 185.152 22.8783 185.055 22.9824C184.96 23.0866 184.822 23.1387 184.64 23.1387C184.457 23.1387 184.317 23.0866 184.22 22.9824C184.125 22.8783 184.078 22.7513 184.078 22.6016ZM191.197 15.9707V16.4785L188.253 23.0801H187.301L190.24 16.7129H186.393V15.9707H191.197ZM193.546 19.0811H194.19C194.506 19.0811 194.767 19.029 194.972 18.9248C195.18 18.8174 195.335 18.6725 195.436 18.4902C195.54 18.3047 195.592 18.0964 195.592 17.8652C195.592 17.5918 195.546 17.3623 195.455 17.1768C195.364 16.9912 195.227 16.8512 195.045 16.7568C194.863 16.6624 194.632 16.6152 194.352 16.6152C194.098 16.6152 193.873 16.6657 193.678 16.7666C193.486 16.8643 193.334 17.0042 193.224 17.1865C193.116 17.3688 193.062 17.5837 193.062 17.8311H192.159C192.159 17.4697 192.25 17.141 192.433 16.8447C192.615 16.5485 192.87 16.3125 193.199 16.1367C193.531 15.9609 193.915 15.873 194.352 15.873C194.781 15.873 195.157 15.9495 195.479 16.1025C195.802 16.2523 196.052 16.4769 196.231 16.7764C196.41 17.0726 196.5 17.4421 196.5 17.8848C196.5 18.0638 196.458 18.2559 196.373 18.4609C196.292 18.6628 196.163 18.8516 195.987 19.0273C195.815 19.2031 195.59 19.348 195.313 19.4619C195.037 19.5726 194.705 19.6279 194.317 19.6279H193.546V19.0811ZM193.546 19.8232V19.2812H194.317C194.77 19.2812 195.144 19.335 195.44 19.4424C195.737 19.5498 195.969 19.693 196.139 19.8721C196.311 20.0511 196.432 20.248 196.5 20.4629C196.572 20.6745 196.607 20.8861 196.607 21.0977C196.607 21.4297 196.55 21.7243 196.437 21.9814C196.326 22.2386 196.168 22.4567 195.963 22.6357C195.761 22.8148 195.523 22.9499 195.25 23.041C194.977 23.1322 194.679 23.1777 194.356 23.1777C194.047 23.1777 193.756 23.1338 193.482 23.0459C193.212 22.958 192.973 22.8311 192.765 22.665C192.556 22.4958 192.394 22.2891 192.276 22.0449C192.159 21.7975 192.101 21.516 192.101 21.2002H193.004C193.004 21.4476 193.058 21.6641 193.165 21.8496C193.276 22.0352 193.432 22.18 193.634 22.2842C193.839 22.3851 194.08 22.4355 194.356 22.4355C194.633 22.4355 194.871 22.3883 195.069 22.2939C195.271 22.1963 195.426 22.0498 195.533 21.8545C195.644 21.6592 195.699 21.4134 195.699 21.1172C195.699 20.821 195.637 20.5785 195.514 20.3896C195.39 20.1976 195.214 20.056 194.986 19.9648C194.762 19.8704 194.496 19.8232 194.19 19.8232H193.546Z" fill="#32375E"/>
</g>
<g clip-path="url(#clip1_1200_41610)">
<path d="M245.333 14.7464H248C248.176 14.7464 248.346 14.8167 248.471 14.9417C248.596 15.0667 248.666 15.2363 248.666 15.4131V26.0798C248.666 26.2566 248.596 26.4261 248.471 26.5512C248.346 26.6762 248.176 26.7464 248 26.7464H236C235.823 26.7464 235.653 26.6762 235.528 26.5512C235.403 26.4261 235.333 26.2566 235.333 26.0798V15.4131C235.333 15.2363 235.403 15.0667 235.528 14.9417C235.653 14.8167 235.823 14.7464 236 14.7464H238.666V13.4131H240V14.7464H244V13.4131H245.333V14.7464ZM247.333 18.7464V16.0798H245.333V17.4131H244V16.0798H240V17.4131H238.666V16.0798H236.666V18.7464H247.333ZM247.333 20.0798H236.666V25.4131H247.333V20.0798ZM238 21.4131H241.333V24.0798H238V21.4131Z" fill="#8E959C"/>
</g>
<path d="M370.985 15.9707L372.831 19.54L374.682 15.9707H375.751L373.3 20.4238V23.0801H372.357V20.4238L369.906 15.9707H370.985ZM378.397 23.1777C378.03 23.1777 377.696 23.1159 377.396 22.9922C377.1 22.8652 376.845 22.6878 376.63 22.46C376.418 22.2321 376.256 21.9619 376.142 21.6494C376.028 21.3369 375.971 20.9951 375.971 20.624V20.4189C375.971 19.9893 376.034 19.6068 376.161 19.2715C376.288 18.9329 376.461 18.6465 376.679 18.4121C376.897 18.1777 377.144 18.0003 377.421 17.8799C377.698 17.7594 377.984 17.6992 378.28 17.6992C378.658 17.6992 378.983 17.7643 379.257 17.8945C379.534 18.0247 379.76 18.207 379.936 18.4414C380.111 18.6725 380.242 18.946 380.326 19.2617C380.411 19.5742 380.453 19.916 380.453 20.2871V20.6924H376.508V19.9551H379.55V19.8867C379.537 19.6523 379.488 19.4245 379.403 19.2031C379.322 18.9818 379.192 18.7995 379.013 18.6562C378.834 18.513 378.59 18.4414 378.28 18.4414C378.075 18.4414 377.886 18.4854 377.714 18.5732C377.541 18.6579 377.393 18.7848 377.27 18.9541C377.146 19.1234 377.05 19.3301 376.981 19.5742C376.913 19.8184 376.879 20.0999 376.879 20.4189V20.624C376.879 20.8747 376.913 21.1107 376.981 21.332C377.053 21.5501 377.156 21.7422 377.289 21.9082C377.426 22.0742 377.59 22.2044 377.782 22.2988C377.978 22.3932 378.199 22.4404 378.446 22.4404C378.765 22.4404 379.035 22.3753 379.257 22.2451C379.478 22.1149 379.672 21.9408 379.838 21.7227L380.385 22.1572C380.271 22.3298 380.126 22.4941 379.95 22.6504C379.774 22.8066 379.558 22.9336 379.301 23.0312C379.047 23.1289 378.746 23.1777 378.397 23.1777ZM384.584 21.6787C384.584 21.5485 384.555 21.4281 384.496 21.3174C384.441 21.2035 384.325 21.1009 384.149 21.0098C383.977 20.9154 383.716 20.834 383.368 20.7656C383.075 20.7038 382.81 20.6305 382.572 20.5459C382.338 20.4613 382.138 20.3587 381.972 20.2383C381.809 20.1178 381.684 19.9762 381.596 19.8135C381.508 19.6507 381.464 19.4603 381.464 19.2422C381.464 19.0339 381.509 18.8369 381.601 18.6514C381.695 18.4658 381.827 18.3014 381.996 18.1582C382.169 18.015 382.375 17.9027 382.616 17.8213C382.857 17.7399 383.126 17.6992 383.422 17.6992C383.845 17.6992 384.206 17.7741 384.506 17.9238C384.805 18.0736 385.035 18.2738 385.194 18.5244C385.354 18.7718 385.434 19.0469 385.434 19.3496H384.53C384.53 19.2031 384.486 19.0615 384.398 18.9248C384.314 18.7848 384.188 18.6693 384.022 18.5781C383.86 18.487 383.66 18.4414 383.422 18.4414C383.171 18.4414 382.968 18.4805 382.812 18.5586C382.659 18.6335 382.546 18.7295 382.475 18.8467C382.406 18.9639 382.372 19.0876 382.372 19.2178C382.372 19.3154 382.388 19.4033 382.421 19.4814C382.457 19.5563 382.519 19.6263 382.606 19.6914C382.694 19.7533 382.818 19.8118 382.978 19.8672C383.137 19.9225 383.34 19.9779 383.588 20.0332C384.021 20.1309 384.377 20.248 384.657 20.3848C384.937 20.5215 385.146 20.6891 385.282 20.8877C385.419 21.0863 385.487 21.3271 385.487 21.6104C385.487 21.8415 385.438 22.0531 385.341 22.2451C385.246 22.4372 385.108 22.6032 384.926 22.7432C384.747 22.8799 384.532 22.9873 384.281 23.0654C384.034 23.1403 383.756 23.1777 383.446 23.1777C382.981 23.1777 382.587 23.0947 382.265 22.9287C381.942 22.7627 381.698 22.5479 381.532 22.2842C381.366 22.0205 381.283 21.7422 381.283 21.4492H382.191C382.204 21.6966 382.276 21.8936 382.406 22.04C382.536 22.1833 382.696 22.2858 382.885 22.3477C383.074 22.4062 383.261 22.4355 383.446 22.4355C383.694 22.4355 383.9 22.403 384.066 22.3379C384.236 22.2728 384.364 22.1833 384.452 22.0693C384.54 21.9554 384.584 21.8252 384.584 21.6787Z" fill="#32375E"/>
<g opacity="0.9">
<path d="M491.721 18.959V20.043C491.721 20.6257 491.669 21.1172 491.564 21.5176C491.46 21.918 491.311 22.2402 491.115 22.4844C490.92 22.7285 490.684 22.9059 490.407 23.0166C490.134 23.124 489.825 23.1777 489.479 23.1777C489.206 23.1777 488.954 23.1436 488.723 23.0752C488.492 23.0068 488.283 22.8978 488.098 22.748C487.915 22.5951 487.759 22.3965 487.629 22.1523C487.499 21.9082 487.399 21.612 487.331 21.2637C487.263 20.9154 487.229 20.5085 487.229 20.043V18.959C487.229 18.3763 487.281 17.888 487.385 17.4941C487.492 17.1003 487.644 16.7845 487.839 16.5469C488.034 16.306 488.269 16.1335 488.542 16.0293C488.819 15.9251 489.128 15.873 489.47 15.873C489.746 15.873 490 15.9072 490.231 15.9756C490.466 16.0407 490.674 16.1465 490.856 16.293C491.039 16.4362 491.193 16.6283 491.32 16.8691C491.451 17.1068 491.55 17.3981 491.618 17.7432C491.687 18.0882 491.721 18.4935 491.721 18.959ZM490.812 20.1895V18.8076C490.812 18.4886 490.793 18.2087 490.754 17.9678C490.718 17.7236 490.664 17.5153 490.593 17.3428C490.521 17.1702 490.43 17.0303 490.319 16.9229C490.212 16.8154 490.087 16.7373 489.943 16.6885C489.803 16.6364 489.646 16.6104 489.47 16.6104C489.255 16.6104 489.064 16.651 488.898 16.7324C488.732 16.8105 488.592 16.9359 488.479 17.1084C488.368 17.2809 488.283 17.5072 488.225 17.7871C488.166 18.0671 488.137 18.4072 488.137 18.8076V20.1895C488.137 20.5085 488.155 20.79 488.19 21.0342C488.229 21.2783 488.286 21.4899 488.361 21.6689C488.436 21.8447 488.527 21.9896 488.635 22.1035C488.742 22.2174 488.866 22.3021 489.006 22.3574C489.149 22.4095 489.307 22.4355 489.479 22.4355C489.701 22.4355 489.895 22.3932 490.061 22.3086C490.227 22.224 490.365 22.0921 490.476 21.9131C490.59 21.7308 490.674 21.498 490.729 21.2148C490.785 20.9284 490.812 20.5866 490.812 20.1895ZM495.852 15.9316V23.0801H494.948V17.0596L493.127 17.7236V16.9082L495.71 15.9316H495.852ZM500.485 19.6865V20.4287H498.103V19.6865H500.485ZM504.489 21.0049V15.9707H505.427V21.0049C505.427 21.4736 505.331 21.8691 505.139 22.1914C504.947 22.5137 504.681 22.7594 504.343 22.9287C504.007 23.0947 503.622 23.1777 503.186 23.1777C502.749 23.1777 502.362 23.1029 502.023 22.9531C501.685 22.8034 501.42 22.5755 501.228 22.2695C501.035 21.9635 500.939 21.5778 500.939 21.1123H501.882C501.882 21.4118 501.937 21.6576 502.048 21.8496C502.159 22.0417 502.312 22.1833 502.507 22.2744C502.705 22.3656 502.932 22.4111 503.186 22.4111C503.433 22.4111 503.654 22.359 503.85 22.2549C504.048 22.1475 504.204 21.9896 504.318 21.7812C504.432 21.5697 504.489 21.3109 504.489 21.0049ZM510.119 21.8594V17.7969H511.027V23.0801H510.163L510.119 21.8594ZM510.29 20.7461L510.666 20.7363C510.666 21.0879 510.629 21.4134 510.554 21.7129C510.482 22.0091 510.365 22.2663 510.202 22.4844C510.039 22.7025 509.826 22.8734 509.562 22.9971C509.299 23.1175 508.978 23.1777 508.601 23.1777C508.343 23.1777 508.107 23.1403 507.893 23.0654C507.681 22.9906 507.499 22.875 507.346 22.7188C507.193 22.5625 507.074 22.359 506.989 22.1084C506.908 21.8577 506.867 21.5566 506.867 21.2051V17.7969H507.771V21.2148C507.771 21.4525 507.797 21.6494 507.849 21.8057C507.904 21.9587 507.977 22.0807 508.068 22.1719C508.163 22.2598 508.267 22.3216 508.381 22.3574C508.498 22.3932 508.618 22.4111 508.742 22.4111C509.126 22.4111 509.431 22.3379 509.655 22.1914C509.88 22.0417 510.041 21.8415 510.139 21.5908C510.24 21.3369 510.29 21.0553 510.29 20.7461ZM513.386 15.5801V23.0801H512.478V15.5801H513.386ZM516.716 19.6865V20.4287H514.333V19.6865H516.716ZM522.16 22.3379V23.0801H517.507V22.4307L519.836 19.8379C520.122 19.5189 520.344 19.2487 520.5 19.0273C520.66 18.8027 520.77 18.6025 520.832 18.4268C520.897 18.2477 520.93 18.0654 520.93 17.8799C520.93 17.6455 520.881 17.4339 520.783 17.2451C520.689 17.0531 520.549 16.9001 520.363 16.7861C520.178 16.6722 519.953 16.6152 519.689 16.6152C519.374 16.6152 519.11 16.6771 518.898 16.8008C518.69 16.9212 518.534 17.0905 518.43 17.3086C518.326 17.5267 518.273 17.7773 518.273 18.0605H517.37C517.37 17.6602 517.458 17.2939 517.634 16.9619C517.81 16.6299 518.07 16.3662 518.415 16.1709C518.76 15.9723 519.185 15.873 519.689 15.873C520.139 15.873 520.523 15.9528 520.842 16.1123C521.161 16.2686 521.405 16.4899 521.574 16.7764C521.747 17.0596 521.833 17.3916 521.833 17.7725C521.833 17.9808 521.797 18.1924 521.726 18.4072C521.657 18.6188 521.561 18.8304 521.438 19.042C521.317 19.2536 521.175 19.4619 521.013 19.667C520.853 19.8721 520.682 20.0739 520.5 20.2725L518.596 22.3379H522.16ZM527.785 22.3379V23.0801H523.132V22.4307L525.461 19.8379C525.747 19.5189 525.969 19.2487 526.125 19.0273C526.285 18.8027 526.395 18.6025 526.457 18.4268C526.522 18.2477 526.555 18.0654 526.555 17.8799C526.555 17.6455 526.506 17.4339 526.408 17.2451C526.314 17.0531 526.174 16.9001 525.988 16.7861C525.803 16.6722 525.578 16.6152 525.314 16.6152C524.999 16.6152 524.735 16.6771 524.523 16.8008C524.315 16.9212 524.159 17.0905 524.055 17.3086C523.951 17.5267 523.898 17.7773 523.898 18.0605H522.995C522.995 17.6602 523.083 17.2939 523.259 16.9619C523.435 16.6299 523.695 16.3662 524.04 16.1709C524.385 15.9723 524.81 15.873 525.314 15.873C525.764 15.873 526.148 15.9528 526.467 16.1123C526.786 16.2686 527.03 16.4899 527.199 16.7764C527.372 17.0596 527.458 17.3916 527.458 17.7725C527.458 17.9808 527.422 18.1924 527.351 18.4072C527.282 18.6188 527.186 18.8304 527.062 19.042C526.942 19.2536 526.8 19.4619 526.638 19.667C526.478 19.8721 526.307 20.0739 526.125 20.2725L524.221 22.3379H527.785ZM534.201 15.9316V23.0801H533.298V17.0596L531.477 17.7236V16.9082L534.06 15.9316H534.201ZM540.324 15.9609H540.402V16.7275H540.324C539.846 16.7275 539.445 16.8057 539.123 16.9619C538.801 17.1149 538.545 17.3216 538.356 17.582C538.168 17.8392 538.031 18.1289 537.946 18.4512C537.865 18.7734 537.824 19.1006 537.824 19.4326V20.4775C537.824 20.7933 537.862 21.0732 537.937 21.3174C538.011 21.5583 538.114 21.7617 538.244 21.9277C538.374 22.0938 538.521 22.2191 538.684 22.3037C538.85 22.3883 539.022 22.4307 539.201 22.4307C539.41 22.4307 539.595 22.3916 539.758 22.3135C539.921 22.2321 540.057 22.1198 540.168 21.9766C540.282 21.8301 540.368 21.6576 540.427 21.459C540.485 21.2604 540.515 21.0423 540.515 20.8047C540.515 20.5931 540.489 20.3896 540.437 20.1943C540.384 19.9958 540.305 19.82 540.197 19.667C540.09 19.5107 539.955 19.3887 539.792 19.3008C539.632 19.2096 539.442 19.1641 539.221 19.1641C538.97 19.1641 538.736 19.2259 538.518 19.3496C538.303 19.4701 538.125 19.6296 537.985 19.8281C537.849 20.0234 537.771 20.2367 537.751 20.4678L537.272 20.4629C537.318 20.0983 537.403 19.7874 537.526 19.5303C537.653 19.2699 537.81 19.0583 537.995 18.8955C538.184 18.7295 538.394 18.609 538.625 18.5342C538.859 18.4561 539.107 18.417 539.367 18.417C539.722 18.417 540.028 18.4837 540.285 18.6172C540.542 18.7507 540.754 18.9297 540.92 19.1543C541.086 19.3757 541.208 19.6263 541.286 19.9062C541.368 20.1829 541.408 20.4678 541.408 20.7607C541.408 21.096 541.361 21.4102 541.267 21.7031C541.172 21.9961 541.031 22.2533 540.842 22.4746C540.656 22.696 540.427 22.8685 540.153 22.9922C539.88 23.1159 539.562 23.1777 539.201 23.1777C538.817 23.1777 538.482 23.0996 538.195 22.9434C537.909 22.7839 537.671 22.5723 537.482 22.3086C537.294 22.0449 537.152 21.752 537.058 21.4297C536.963 21.1074 536.916 20.7803 536.916 20.4482V20.0234C536.916 19.5221 536.966 19.0306 537.067 18.5488C537.168 18.0671 537.342 17.6309 537.59 17.2402C537.84 16.8496 538.187 16.5387 538.63 16.3076C539.073 16.0765 539.637 15.9609 540.324 15.9609ZM542.541 22.6016C542.541 22.4486 542.588 22.32 542.683 22.2158C542.78 22.1084 542.92 22.0547 543.103 22.0547C543.285 22.0547 543.423 22.1084 543.518 22.2158C543.615 22.32 543.664 22.4486 543.664 22.6016C543.664 22.7513 543.615 22.8783 543.518 22.9824C543.423 23.0866 543.285 23.1387 543.103 23.1387C542.92 23.1387 542.78 23.0866 542.683 22.9824C542.588 22.8783 542.541 22.7513 542.541 22.6016ZM542.546 18.29C542.546 18.137 542.593 18.0085 542.688 17.9043C542.785 17.7969 542.925 17.7432 543.107 17.7432C543.29 17.7432 543.428 17.7969 543.522 17.9043C543.62 18.0085 543.669 18.137 543.669 18.29C543.669 18.4398 543.62 18.5667 543.522 18.6709C543.428 18.7751 543.29 18.8271 543.107 18.8271C542.925 18.8271 542.785 18.7751 542.688 18.6709C542.593 18.5667 542.546 18.4398 542.546 18.29ZM549.367 18.959V20.043C549.367 20.6257 549.315 21.1172 549.211 21.5176C549.107 21.918 548.957 22.2402 548.762 22.4844C548.566 22.7285 548.33 22.9059 548.054 23.0166C547.78 23.124 547.471 23.1777 547.126 23.1777C546.853 23.1777 546.6 23.1436 546.369 23.0752C546.138 23.0068 545.93 22.8978 545.744 22.748C545.562 22.5951 545.406 22.3965 545.275 22.1523C545.145 21.9082 545.046 21.612 544.978 21.2637C544.909 20.9154 544.875 20.5085 544.875 20.043V18.959C544.875 18.3763 544.927 17.888 545.031 17.4941C545.139 17.1003 545.29 16.7845 545.485 16.5469C545.681 16.306 545.915 16.1335 546.188 16.0293C546.465 15.9251 546.774 15.873 547.116 15.873C547.393 15.873 547.647 15.9072 547.878 15.9756C548.112 16.0407 548.321 16.1465 548.503 16.293C548.685 16.4362 548.84 16.6283 548.967 16.8691C549.097 17.1068 549.196 17.3981 549.265 17.7432C549.333 18.0882 549.367 18.4935 549.367 18.959ZM548.459 20.1895V18.8076C548.459 18.4886 548.439 18.2087 548.4 17.9678C548.365 17.7236 548.311 17.5153 548.239 17.3428C548.168 17.1702 548.076 17.0303 547.966 16.9229C547.858 16.8154 547.733 16.7373 547.59 16.6885C547.45 16.6364 547.292 16.6104 547.116 16.6104C546.901 16.6104 546.711 16.651 546.545 16.7324C546.379 16.8105 546.239 16.9359 546.125 17.1084C546.014 17.2809 545.93 17.5072 545.871 17.7871C545.812 18.0671 545.783 18.4072 545.783 18.8076V20.1895C545.783 20.5085 545.801 20.79 545.837 21.0342C545.876 21.2783 545.933 21.4899 546.008 21.6689C546.083 21.8447 546.174 21.9896 546.281 22.1035C546.389 22.2174 546.512 22.3021 546.652 22.3574C546.796 22.4095 546.953 22.4355 547.126 22.4355C547.347 22.4355 547.541 22.3932 547.707 22.3086C547.873 22.224 548.011 22.0921 548.122 21.9131C548.236 21.7308 548.321 21.498 548.376 21.2148C548.431 20.9284 548.459 20.5866 548.459 20.1895ZM554.992 18.959V20.043C554.992 20.6257 554.94 21.1172 554.836 21.5176C554.732 21.918 554.582 22.2402 554.387 22.4844C554.191 22.7285 553.955 22.9059 553.679 23.0166C553.405 23.124 553.096 23.1777 552.751 23.1777C552.478 23.1777 552.225 23.1436 551.994 23.0752C551.763 23.0068 551.555 22.8978 551.369 22.748C551.187 22.5951 551.031 22.3965 550.9 22.1523C550.77 21.9082 550.671 21.612 550.603 21.2637C550.534 20.9154 550.5 20.5085 550.5 20.043V18.959C550.5 18.3763 550.552 17.888 550.656 17.4941C550.764 17.1003 550.915 16.7845 551.11 16.5469C551.306 16.306 551.54 16.1335 551.813 16.0293C552.09 15.9251 552.399 15.873 552.741 15.873C553.018 15.873 553.272 15.9072 553.503 15.9756C553.737 16.0407 553.946 16.1465 554.128 16.293C554.31 16.4362 554.465 16.6283 554.592 16.8691C554.722 17.1068 554.821 17.3981 554.89 17.7432C554.958 18.0882 554.992 18.4935 554.992 18.959ZM554.084 20.1895V18.8076C554.084 18.4886 554.064 18.2087 554.025 17.9678C553.99 17.7236 553.936 17.5153 553.864 17.3428C553.793 17.1702 553.701 17.0303 553.591 16.9229C553.483 16.8154 553.358 16.7373 553.215 16.6885C553.075 16.6364 552.917 16.6104 552.741 16.6104C552.526 16.6104 552.336 16.651 552.17 16.7324C552.004 16.8105 551.864 16.9359 551.75 17.1084C551.639 17.2809 551.555 17.5072 551.496 17.7871C551.438 18.0671 551.408 18.4072 551.408 18.8076V20.1895C551.408 20.5085 551.426 20.79 551.462 21.0342C551.501 21.2783 551.558 21.4899 551.633 21.6689C551.708 21.8447 551.799 21.9896 551.906 22.1035C552.014 22.2174 552.137 22.3021 552.277 22.3574C552.421 22.4095 552.578 22.4355 552.751 22.4355C552.972 22.4355 553.166 22.3932 553.332 22.3086C553.498 22.224 553.636 22.0921 553.747 21.9131C553.861 21.7308 553.946 21.498 554.001 21.2148C554.056 20.9284 554.084 20.5866 554.084 20.1895ZM562.937 15.9707H563.874V20.7803C563.874 21.3141 563.755 21.7585 563.518 22.1133C563.28 22.4681 562.964 22.735 562.57 22.9141C562.18 23.0898 561.755 23.1777 561.296 23.1777C560.814 23.1777 560.378 23.0898 559.987 22.9141C559.6 22.735 559.292 22.4681 559.064 22.1133C558.84 21.7585 558.728 21.3141 558.728 20.7803V15.9707H559.66V20.7803C559.66 21.1514 559.729 21.4574 559.865 21.6982C560.002 21.9391 560.192 22.1182 560.437 22.2354C560.684 22.3525 560.97 22.4111 561.296 22.4111C561.625 22.4111 561.911 22.3525 562.155 22.2354C562.403 22.1182 562.595 21.9391 562.731 21.6982C562.868 21.4574 562.937 21.1514 562.937 20.7803V15.9707ZM567.98 15.9707V23.0801H567.053V15.9707H567.98ZM570.266 15.9707V16.7422H564.772V15.9707H570.266ZM575.476 20.8193H576.413C576.364 21.2686 576.236 21.6706 576.027 22.0254C575.819 22.3802 575.524 22.6618 575.144 22.8701C574.763 23.0752 574.287 23.1777 573.718 23.1777C573.301 23.1777 572.922 23.0996 572.58 22.9434C572.242 22.7871 571.95 22.5658 571.706 22.2793C571.462 21.9896 571.273 21.6429 571.14 21.2393C571.009 20.8324 570.944 20.3799 570.944 19.8818V19.1738C570.944 18.6758 571.009 18.2249 571.14 17.8213C571.273 17.4144 571.464 17.0661 571.711 16.7764C571.962 16.4867 572.263 16.2637 572.614 16.1074C572.966 15.9512 573.361 15.873 573.801 15.873C574.338 15.873 574.792 15.974 575.163 16.1758C575.534 16.3776 575.822 16.6576 576.027 17.0156C576.236 17.3704 576.364 17.7822 576.413 18.251H575.476C575.43 17.9189 575.345 17.6341 575.222 17.3965C575.098 17.1556 574.922 16.9701 574.694 16.8398C574.466 16.7096 574.169 16.6445 573.801 16.6445C573.485 16.6445 573.207 16.7048 572.966 16.8252C572.728 16.9456 572.528 17.1165 572.365 17.3379C572.206 17.5592 572.085 17.8245 572.004 18.1338C571.923 18.443 571.882 18.7865 571.882 19.1641V19.8818C571.882 20.2301 571.918 20.5573 571.989 20.8633C572.064 21.1693 572.176 21.4378 572.326 21.6689C572.476 21.9001 572.666 22.0824 572.897 22.2158C573.129 22.346 573.402 22.4111 573.718 22.4111C574.118 22.4111 574.437 22.3477 574.675 22.2207C574.912 22.0938 575.091 21.9115 575.212 21.6738C575.336 21.4362 575.424 21.1514 575.476 20.8193Z" fill="#32375E"/>
</g>
<defs>
<clipPath id="clip0_1200_41610">
<rect width="16" height="16" fill="white" transform="translate(16 12.0801)"/>
</clipPath>
<clipPath id="clip1_1200_41610">
<rect width="60" height="16" fill="white" transform="translate(212 12.0801)"/>
</clipPath>
</defs>
</svg>
