<svg xmlns="http://www.w3.org/2000/svg" fill="none" viewBox="0 0 928 40"><rect width="928" height="40" fill="#fff" rx="12"/><rect width="16" height="16" x="16" y="12" fill="#3F7BDA" rx="4"/><path fill="#fff" d="m22.666 22.115 6.128-6.129.944.943L22.666 24l-4.242-4.242.942-.943 3.3 3.3z"/><path fill="#32375E" d="M60.791 19.201h.774c.378 0 .69-.062.937-.187a1.29 1.29 0 0 0 .557-.522c.125-.223.187-.473.187-.75 0-.328-.055-.603-.164-.826a1.098 1.098 0 0 0-.492-.504c-.219-.113-.496-.17-.832-.17-.305 0-.574.06-.809.182a1.33 1.33 0 0 0-.545.504 1.496 1.496 0 0 0-.193.773h-1.084c0-.433.11-.828.328-1.183a2.36 2.36 0 0 1 .92-.85c.398-.211.86-.316 1.383-.316.515 0 .967.091 1.353.275.387.18.688.45.903.809.215.355.322.798.322 1.33 0 .215-.05.445-.152.691a2.046 2.046 0 0 1-.463.68 2.389 2.389 0 0 1-.809.521c-.332.133-.73.2-1.195.2h-.926V19.2zm0 .89v-.65h.926c.543 0 .992.065 1.348.194.355.129.634.3.837.515.207.215.352.452.434.71.086.253.129.507.129.761 0 .399-.069.752-.205 1.06-.133.31-.323.571-.569.786a2.43 2.43 0 0 1-.855.486c-.328.11-.686.164-1.072.164-.371 0-.721-.053-1.05-.158a2.717 2.717 0 0 1-.86-.457 2.14 2.14 0 0 1-.586-.744 2.341 2.341 0 0 1-.211-1.014h1.084c0 .297.064.557.193.78.133.222.32.396.563.52.246.122.535.183.867.183.332 0 .617-.057.855-.17.242-.117.428-.293.557-.528.133-.234.199-.529.199-.884 0-.356-.074-.647-.223-.873-.148-.231-.359-.4-.633-.51a2.454 2.454 0 0 0-.954-.17h-.774zM117.975 21.129v.89h-6.164v-.638l3.82-5.912h.885l-.95 1.71-2.525 3.95h4.934zm-1.19-5.66V24h-1.084v-8.531h1.084zm7.529 3.586v1.3c0 .7-.062 1.29-.187 1.77s-.305.867-.539 1.16a2.051 2.051 0 0 1-.85.639 3.023 3.023 0 0 1-1.113.193c-.328 0-.631-.04-.908-.123a2.145 2.145 0 0 1-.75-.392 2.39 2.39 0 0 1-.563-.715 3.842 3.842 0 0 1-.357-1.067 7.687 7.687 0 0 1-.123-1.465v-1.3c0-.7.062-1.285.187-1.758.129-.473.311-.852.545-1.137.235-.289.516-.496.844-.62a3.139 3.139 0 0 1 1.113-.188c.332 0 .637.04.914.123a2.053 2.053 0 0 1 1.307 1.072c.156.285.275.635.357 1.049.082.414.123.9.123 1.459zm-1.089 1.476v-1.658c0-.383-.024-.719-.071-1.008a3.168 3.168 0 0 0-.193-.75 1.481 1.481 0 0 0-.328-.504 1.158 1.158 0 0 0-.451-.28 1.625 1.625 0 0 0-.569-.095c-.258 0-.486.05-.685.147a1.236 1.236 0 0 0-.504.451c-.133.207-.235.479-.305.814-.07.336-.105.745-.105 1.225v1.658c0 .383.021.721.064 1.014.047.293.115.547.205.762.09.21.199.384.328.521s.278.238.446.305c.172.062.361.094.568.094.266 0 .498-.051.697-.153.199-.101.366-.26.498-.474.137-.22.239-.498.305-.838.066-.344.1-.754.1-1.23zm8.074 2.578V24h-5.584v-.78l2.795-3.11c.344-.383.609-.708.797-.973.191-.27.324-.51.398-.721a1.91 1.91 0 0 0 .117-.656c0-.282-.058-.535-.176-.762a1.318 1.318 0 0 0-.503-.55 1.519 1.519 0 0 0-.809-.206c-.379 0-.695.074-.949.223-.25.144-.438.348-.563.61a2.07 2.07 0 0 0-.187.902h-1.084c0-.48.105-.92.316-1.319.211-.398.524-.715.938-.949.414-.238.924-.357 1.529-.357.539 0 1 .095 1.383.287.383.187.676.453.879.797.207.34.31.738.31 1.195 0 .25-.043.504-.129.762a3.886 3.886 0 0 1-.345.761 6.002 6.002 0 0 1-.51.75c-.192.246-.397.489-.615.727l-2.286 2.478h4.278zM165.791 19.201h.773c.379 0 .692-.062.938-.187a1.29 1.29 0 0 0 .557-.522c.125-.223.187-.473.187-.75 0-.328-.055-.603-.164-.826a1.095 1.095 0 0 0-.492-.504c-.219-.113-.496-.17-.832-.17-.305 0-.574.06-.809.182-.23.117-.412.285-.545.504a1.495 1.495 0 0 0-.193.773h-1.084c0-.433.109-.828.328-1.183.219-.356.525-.64.92-.85.398-.211.859-.316 1.383-.316.515 0 .967.091 1.353.275.387.18.688.45.903.809.215.355.322.798.322 1.33 0 .215-.051.445-.152.691a2.05 2.05 0 0 1-.463.68 2.39 2.39 0 0 1-.809.521c-.332.133-.73.2-1.195.2h-.926V19.2zm0 .89v-.65h.926c.543 0 .992.065 1.347.194.356.129.635.3.838.515.207.215.352.452.434.71.086.253.129.507.129.761 0 .399-.069.752-.205 1.06-.133.31-.322.571-.569.786a2.427 2.427 0 0 1-.855.486c-.328.11-.686.164-1.072.164-.371 0-.721-.053-1.049-.158a2.718 2.718 0 0 1-.861-.457 2.133 2.133 0 0 1-.586-.744 2.335 2.335 0 0 1-.211-1.014h1.084c0 .297.064.557.193.78.133.222.32.396.562.52.247.122.536.183.868.183.332 0 .617-.057.855-.17.242-.117.428-.293.557-.528.133-.234.199-.529.199-.884 0-.356-.074-.647-.223-.873-.148-.231-.359-.4-.632-.51a2.458 2.458 0 0 0-.956-.17h-.773zm6.539-.152-.867-.222.428-4.248h4.377v1.002h-3.457l-.258 2.32c.156-.09.353-.174.592-.252.242-.078.519-.117.832-.117.394 0 .748.068 1.06.205.313.133.578.324.797.574.223.25.393.551.51.902.117.352.176.745.176 1.178 0 .41-.057.787-.17 1.131-.11.344-.276.645-.498.902a2.243 2.243 0 0 1-.844.592c-.336.14-.733.211-1.19.211-.343 0-.67-.047-.978-.14a2.513 2.513 0 0 1-.82-.44 2.365 2.365 0 0 1-.586-.738 2.95 2.95 0 0 1-.282-1.043h1.032c.046.32.14.59.281.808.14.22.324.385.551.498.23.11.498.165.802.165.258 0 .487-.045.686-.135.199-.09.367-.219.504-.387s.24-.371.31-.61c.075-.238.112-.505.112-.802 0-.27-.037-.52-.112-.75a1.704 1.704 0 0 0-.334-.604 1.457 1.457 0 0 0-.533-.398 1.711 1.711 0 0 0-.726-.146c-.364 0-.639.048-.827.146-.183.098-.373.23-.568.398zm10.734-.884v1.3c0 .7-.062 1.29-.187 1.77s-.305.867-.539 1.16a2.051 2.051 0 0 1-.85.639 3.023 3.023 0 0 1-1.113.193c-.328 0-.631-.04-.908-.123a2.145 2.145 0 0 1-.75-.392 2.39 2.39 0 0 1-.563-.715 3.842 3.842 0 0 1-.357-1.067 7.687 7.687 0 0 1-.123-1.465v-1.3c0-.7.062-1.285.187-1.758.129-.473.311-.852.545-1.137.235-.289.516-.496.844-.62a3.139 3.139 0 0 1 1.113-.188c.332 0 .637.04.914.123a2.053 2.053 0 0 1 1.307 1.072c.156.285.275.635.357 1.049.082.414.123.9.123 1.459zm-1.089 1.476v-1.658c0-.383-.024-.719-.071-1.008a3.168 3.168 0 0 0-.193-.75 1.481 1.481 0 0 0-.328-.504 1.158 1.158 0 0 0-.451-.28 1.625 1.625 0 0 0-.569-.095c-.258 0-.486.05-.685.147a1.236 1.236 0 0 0-.504.451c-.133.207-.235.479-.305.814-.07.336-.105.745-.105 1.225v1.658c0 .383.021.721.064 1.014.047.293.115.547.205.762.09.21.199.384.328.521s.278.238.446.305c.172.062.361.094.568.094.266 0 .498-.051.697-.153.199-.101.366-.26.498-.474.137-.22.239-.498.305-.838.066-.344.1-.754.1-1.23zm2.619 2.895a.66.66 0 0 1 .17-.463c.117-.129.285-.194.504-.194.218 0 .384.065.498.194.117.125.175.28.175.463 0 .18-.058.332-.175.457-.114.125-.28.187-.498.187-.219 0-.387-.062-.504-.187a.653.653 0 0 1-.17-.457zm8.543-7.957v.61L189.604 24h-1.143l3.527-7.64h-4.617v-.891h5.766zm2.818 3.732h.774c.378 0 .691-.062.937-.187a1.29 1.29 0 0 0 .557-.522c.125-.223.187-.473.187-.75 0-.328-.055-.603-.164-.826a1.095 1.095 0 0 0-.492-.504c-.219-.113-.496-.17-.832-.17-.305 0-.574.06-.809.182-.23.117-.412.285-.545.504a1.495 1.495 0 0 0-.193.773h-1.084c0-.433.109-.828.328-1.183.219-.356.526-.64.92-.85.399-.211.859-.316 1.383-.316.516 0 .967.091 1.353.275.387.18.688.45.903.809.215.355.322.798.322 1.33 0 .215-.051.445-.152.691a2.05 2.05 0 0 1-.463.68 2.39 2.39 0 0 1-.809.521c-.332.133-.73.2-1.195.2h-.926V19.2zm0 .89v-.65h.926c.543 0 .992.065 1.348.194.355.129.634.3.837.515.207.215.352.452.434.71.086.253.129.507.129.761 0 .399-.068.752-.205 1.06-.133.31-.322.571-.569.786a2.427 2.427 0 0 1-.855.486c-.328.11-.686.164-1.072.164-.371 0-.721-.053-1.049-.158a2.718 2.718 0 0 1-.861-.457 2.133 2.133 0 0 1-.586-.744 2.335 2.335 0 0 1-.211-1.014h1.084c0 .297.064.557.193.78.133.222.32.396.563.52.246.122.535.183.867.183.332 0 .617-.057.855-.17.242-.117.428-.293.557-.528.133-.234.199-.529.199-.884 0-.356-.074-.647-.223-.873-.148-.231-.359-.4-.632-.51a2.456 2.456 0 0 0-.955-.17h-.774z" opacity=".9"/><path fill="#8E959C" d="M245.333 14.666H248a.667.667 0 0 1 .666.667V26a.666.666 0 0 1-.666.666h-12a.668.668 0 0 1-.667-.666V15.333a.666.666 0 0 1 .667-.667h2.666v-1.333H240v1.333h4v-1.333h1.333v1.333zm2 4V16h-2v1.333H244V16h-4v1.333h-1.334V16h-2v2.666h10.667zm0 1.334h-10.667v5.333h10.667V20zM238 21.333h3.333V24H238v-2.667z"/><path fill="#32375E" d="M278.064 19.055v1.3c0 .7-.062 1.29-.187 1.77s-.305.867-.539 1.16a2.051 2.051 0 0 1-.85.639 3.023 3.023 0 0 1-1.113.193c-.328 0-.631-.04-.908-.123a2.145 2.145 0 0 1-.75-.392 2.39 2.39 0 0 1-.563-.715 3.842 3.842 0 0 1-.357-1.067 7.687 7.687 0 0 1-.123-1.465v-1.3c0-.7.062-1.285.187-1.758.129-.473.311-.852.545-1.137.235-.289.516-.496.844-.62a3.139 3.139 0 0 1 1.113-.188c.332 0 .637.04.914.123a2.053 2.053 0 0 1 1.307 1.072c.156.285.275.635.357 1.049.082.414.123.9.123 1.459zm-1.089 1.476v-1.658c0-.383-.024-.719-.071-1.008a3.168 3.168 0 0 0-.193-.75 1.481 1.481 0 0 0-.328-.504 1.158 1.158 0 0 0-.451-.28 1.625 1.625 0 0 0-.569-.095c-.258 0-.486.05-.685.147a1.236 1.236 0 0 0-.504.451c-.133.207-.235.479-.305.814-.07.336-.105.745-.105 1.225v1.658c0 .383.021.721.064 1.014.047.293.115.547.205.762.09.21.199.384.328.521s.278.238.446.305c.172.062.361.094.568.094.266 0 .498-.051.697-.153.199-.101.366-.26.498-.474.137-.22.239-.498.305-.838.066-.344.1-.754.1-1.23zm6.046-5.11V24h-1.083v-7.225l-2.186.797v-.978l3.1-1.172h.169zm5.561 4.507v.89h-2.859v-.89h2.859zm4.383-3.703L290.141 24h-1.155l3.252-8.531h.744l-.017.756zM295.332 24l-2.83-7.775-.018-.756h.745L296.492 24h-1.16zm-.146-3.158v.926h-4.793v-.926h4.793zm3.369-1.963v7.558h-1.09V17.66h.996l.094 1.219zm4.271 1.898v.123c0 .461-.055.89-.164 1.284-.109.39-.269.73-.48 1.02-.207.288-.463.513-.768.673-.305.16-.654.24-1.049.24-.402 0-.758-.066-1.066-.199a2.1 2.1 0 0 1-.785-.58 2.962 2.962 0 0 1-.516-.914 5.295 5.295 0 0 1-.258-1.201v-.657c.047-.468.135-.888.264-1.26a3.14 3.14 0 0 1 .51-.949 2.09 2.09 0 0 1 .779-.603c.305-.14.656-.211 1.055-.211.398 0 .752.078 1.06.234.309.153.569.371.78.657a3 3 0 0 1 .474 1.025c.109.395.164.834.164 1.318zm-1.09.123v-.123a3.84 3.84 0 0 0-.099-.89 2.257 2.257 0 0 0-.311-.739 1.48 1.48 0 0 0-.527-.503 1.502 1.502 0 0 0-.768-.188c-.273 0-.511.047-.715.14-.199.094-.369.221-.509.381a2.018 2.018 0 0 0-.346.54c-.086.199-.15.406-.193.62v1.518c.078.274.187.532.328.774.14.238.328.431.562.58.235.144.53.217.885.217.293 0 .545-.061.756-.182a1.53 1.53 0 0 0 .527-.51 2.33 2.33 0 0 0 .311-.738c.066-.281.099-.58.099-.897zm3.557-2.244V24h-1.084v-6.34h1.055l.029.996zm1.98-1.031-.005 1.008a1.573 1.573 0 0 0-.258-.035 2.713 2.713 0 0 0-.27-.012c-.25 0-.47.039-.662.117a1.376 1.376 0 0 0-.486.328c-.133.14-.238.309-.317.504a2.412 2.412 0 0 0-.146.633l-.305.176c0-.383.037-.742.112-1.078.078-.336.197-.633.357-.891a1.75 1.75 0 0 1 .609-.61 1.714 1.714 0 0 1 1.16-.193.796.796 0 0 1 .211.053zm3.258 2.303v.89h-2.859v-.89h2.859zm6.533 3.181V24h-5.584v-.78l2.795-3.11c.344-.383.61-.708.797-.973.192-.27.324-.51.399-.721a1.91 1.91 0 0 0 .117-.656c0-.282-.059-.535-.176-.762a1.313 1.313 0 0 0-.504-.55 1.513 1.513 0 0 0-.808-.206c-.379 0-.696.074-.95.223a1.37 1.37 0 0 0-.562.61 2.07 2.07 0 0 0-.188.902h-1.084c0-.48.106-.92.317-1.319.211-.398.523-.715.937-.949.414-.238.924-.357 1.53-.357.539 0 1 .095 1.382.287.383.187.676.453.879.797.207.34.311.738.311 1.195 0 .25-.043.504-.129.762a3.834 3.834 0 0 1-.346.761 5.886 5.886 0 0 1-.509.75c-.192.246-.397.489-.616.727l-2.285 2.478h4.277zm6.75 0V24h-5.584v-.78l2.795-3.11c.344-.383.61-.708.797-.973.192-.27.324-.51.399-.721a1.91 1.91 0 0 0 .117-.656c0-.282-.059-.535-.176-.762a1.313 1.313 0 0 0-.504-.55 1.513 1.513 0 0 0-.808-.206c-.379 0-.696.074-.95.223a1.37 1.37 0 0 0-.562.61 2.07 2.07 0 0 0-.188.902h-1.084c0-.48.106-.92.317-1.319.211-.398.523-.715.937-.949.414-.238.924-.357 1.53-.357.539 0 1 .095 1.382.287.383.187.676.453.879.797.207.34.311.738.311 1.195 0 .25-.043.504-.129.762a3.834 3.834 0 0 1-.346.761 5.886 5.886 0 0 1-.509.75c-.192.246-.397.489-.616.727l-2.285 2.478h4.277zm7.7-7.687V24h-1.084v-7.225l-2.186.797v-.978l3.1-1.172h.17zm7.347.035h.094v.92h-.094c-.574 0-1.054.094-1.441.281a2.36 2.36 0 0 0-.92.744 3.037 3.037 0 0 0-.492 1.043c-.098.387-.147.78-.147 1.178v1.254c0 .379.045.715.135 1.008.09.289.213.533.369.732.156.2.332.35.528.451.199.102.406.153.621.153.25 0 .472-.047.668-.14.195-.099.359-.233.492-.405.137-.176.24-.383.31-.621.071-.239.106-.5.106-.785a2.81 2.81 0 0 0-.094-.733 1.94 1.94 0 0 0-.287-.633 1.382 1.382 0 0 0-.486-.44 1.363 1.363 0 0 0-.686-.163c-.301 0-.582.074-.844.222-.257.145-.47.336-.638.575-.164.234-.258.49-.282.767l-.574-.006c.055-.437.156-.81.305-1.119.152-.312.34-.566.562-.761.227-.2.479-.344.756-.434.282-.094.578-.14.891-.14.426 0 .793.08 1.101.24.309.16.563.375.762.644.199.266.346.566.44.902.097.332.146.674.146 1.026 0 .402-.057.78-.17 1.13-.113.352-.283.66-.51.926a2.29 2.29 0 0 1-.826.622 2.746 2.746 0 0 1-1.142.222c-.461 0-.864-.094-1.207-.281a2.589 2.589 0 0 1-.856-.762 3.505 3.505 0 0 1-.51-1.055 4.179 4.179 0 0 1-.17-1.177v-.51c0-.602.061-1.191.182-1.77.121-.578.33-1.101.627-1.57a3.218 3.218 0 0 1 1.248-1.119c.531-.277 1.209-.416 2.033-.416zm2.66 7.969c0-.184.057-.338.17-.463.118-.129.286-.194.504-.194.219 0 .385.065.498.194.118.125.176.28.176.463a.64.64 0 0 1-.176.457c-.113.125-.279.187-.498.187-.218 0-.386-.062-.504-.187a.657.657 0 0 1-.17-.457zm.006-5.174c0-.184.057-.338.17-.463.117-.129.285-.193.504-.193.219 0 .385.064.498.193.117.125.176.28.176.463 0 .18-.059.332-.176.457-.113.125-.279.188-.498.188-.219 0-.387-.063-.504-.188a.658.658 0 0 1-.17-.457zm8.186.803v1.3c0 .7-.063 1.29-.188 1.77s-.304.867-.539 1.16a2.048 2.048 0 0 1-.849.639 3.025 3.025 0 0 1-1.114.193c-.328 0-.63-.04-.908-.123a2.163 2.163 0 0 1-.75-.392 2.372 2.372 0 0 1-.562-.715 3.809 3.809 0 0 1-.358-1.067 7.687 7.687 0 0 1-.123-1.465v-1.3c0-.7.063-1.285.188-1.758.129-.473.31-.852.545-1.137a1.98 1.98 0 0 1 .843-.62 3.144 3.144 0 0 1 1.114-.188c.332 0 .636.04.914.123.281.078.531.205.75.38.219.172.404.403.556.692.157.285.276.635.358 1.049.082.414.123.9.123 1.459zm-1.09 1.476v-1.658c0-.383-.023-.719-.07-1.008a3.166 3.166 0 0 0-.194-.75 1.481 1.481 0 0 0-.328-.504 1.158 1.158 0 0 0-.451-.28 1.619 1.619 0 0 0-.568-.095 1.54 1.54 0 0 0-.686.147 1.236 1.236 0 0 0-.504.451c-.133.207-.234.479-.304.814a6.027 6.027 0 0 0-.106 1.225v1.658c0 .383.022.721.065 1.014.046.293.115.547.205.762.089.21.199.384.328.521s.277.238.445.305c.172.062.361.094.568.094.266 0 .498-.051.698-.153.199-.101.365-.26.498-.474.136-.22.238-.498.304-.838.067-.344.1-.754.1-1.23zm7.84-1.476v1.3c0 .7-.063 1.29-.188 1.77s-.304.867-.539 1.16a2.048 2.048 0 0 1-.849.639 3.025 3.025 0 0 1-1.114.193c-.328 0-.63-.04-.908-.123a2.163 2.163 0 0 1-.75-.392 2.372 2.372 0 0 1-.562-.715 3.809 3.809 0 0 1-.358-1.067 7.687 7.687 0 0 1-.123-1.465v-1.3c0-.7.063-1.285.188-1.758.129-.473.31-.852.545-1.137a1.98 1.98 0 0 1 .843-.62 3.144 3.144 0 0 1 1.114-.188c.332 0 .636.04.914.123.281.078.531.205.75.38.219.172.404.403.556.692.157.285.276.635.358 1.049.082.414.123.9.123 1.459zm-1.09 1.476v-1.658c0-.383-.023-.719-.07-1.008a3.166 3.166 0 0 0-.194-.75 1.481 1.481 0 0 0-.328-.504 1.158 1.158 0 0 0-.451-.28 1.619 1.619 0 0 0-.568-.095 1.54 1.54 0 0 0-.686.147 1.236 1.236 0 0 0-.504.451c-.133.207-.234.479-.304.814a6.027 6.027 0 0 0-.106 1.225v1.658c0 .383.022.721.065 1.014.046.293.115.547.205.762.089.21.199.384.328.521s.277.238.445.305c.172.062.361.094.568.094.266 0 .498-.051.698-.153.199-.101.365-.26.498-.474.136-.22.238-.498.304-.838.067-.344.1-.754.1-1.23zm10.623-5.062h1.125v5.771c0 .64-.142 1.174-.428 1.6a2.672 2.672 0 0 1-1.136.96c-.469.212-.979.317-1.53.317a3.785 3.785 0 0 1-1.57-.316 2.566 2.566 0 0 1-1.107-.961c-.27-.426-.405-.96-.405-1.6V15.47h1.119v5.771c0 .446.082.813.247 1.102.164.289.392.504.685.644.297.141.641.211 1.031.211.395 0 .739-.07 1.032-.21.296-.141.527-.356.691-.645.164-.29.246-.656.246-1.102V15.47zm6.053 0V24h-1.113v-8.531h1.113zm2.742 0v.926h-6.592v-.926h6.592zm6.252 5.818h1.125a3.595 3.595 0 0 1-.463 1.447c-.25.426-.603.764-1.06 1.014-.457.246-1.028.37-1.711.37-.5 0-.955-.095-1.366-.282a3.024 3.024 0 0 1-1.048-.797 3.727 3.727 0 0 1-.68-1.248 5.334 5.334 0 0 1-.235-1.629v-.85c0-.597.079-1.138.235-1.623.16-.488.389-.906.685-1.253a3.069 3.069 0 0 1 1.084-.803 3.472 3.472 0 0 1 1.424-.281c.645 0 1.19.12 1.635.363.445.242.791.578 1.037 1.008.25.425.404.92.463 1.482h-1.125a3.129 3.129 0 0 0-.305-1.025 1.578 1.578 0 0 0-.633-.668c-.273-.157-.63-.235-1.072-.235-.379 0-.713.073-1.002.217-.285.145-.525.35-.72.615a2.858 2.858 0 0 0-.434.955 4.84 4.84 0 0 0-.147 1.237v.861c0 .418.043.81.129 1.178.09.367.225.69.405.967.179.277.408.496.685.656.278.156.606.234.985.234.48 0 .863-.076 1.148-.228a1.5 1.5 0 0 0 .645-.657 3.36 3.36 0 0 0 .316-1.025zM494.291 19.201h.773c.379 0 .692-.062.938-.187a1.29 1.29 0 0 0 .557-.522c.125-.223.187-.473.187-.75 0-.328-.055-.603-.164-.826a1.095 1.095 0 0 0-.492-.504c-.219-.113-.496-.17-.832-.17-.305 0-.574.06-.809.182-.23.117-.412.285-.545.504a1.495 1.495 0 0 0-.193.773h-1.084c0-.433.109-.828.328-1.183.219-.356.525-.64.92-.85.398-.211.859-.316 1.383-.316.515 0 .967.091 1.353.275.387.18.688.45.903.809.215.355.322.798.322 1.33 0 .215-.051.445-.152.691a2.05 2.05 0 0 1-.463.68 2.39 2.39 0 0 1-.809.521c-.332.133-.73.2-1.195.2h-.926V19.2zm0 .89v-.65h.926c.543 0 .992.065 1.347.194.356.129.635.3.838.515.207.215.352.452.434.71.086.253.129.507.129.761 0 .399-.069.752-.205 1.06-.133.31-.322.571-.569.786a2.427 2.427 0 0 1-.855.486c-.328.11-.686.164-1.072.164-.371 0-.721-.053-1.049-.158a2.718 2.718 0 0 1-.861-.457 2.133 2.133 0 0 1-.586-.744 2.335 2.335 0 0 1-.211-1.014h1.084c0 .297.064.557.193.78.133.222.32.396.562.52.247.122.536.183.868.183.332 0 .617-.057.855-.17.242-.117.428-.293.557-.528.133-.234.199-.529.199-.884 0-.356-.074-.647-.223-.873-.148-.231-.359-.4-.632-.51a2.458 2.458 0 0 0-.956-.17h-.773zm6.539-.152-.867-.222.428-4.248h4.377v1.002h-3.457l-.258 2.32c.156-.09.353-.174.592-.252.242-.078.519-.117.832-.117.394 0 .748.068 1.06.205.313.133.578.324.797.574.223.25.393.551.51.902.117.352.176.745.176 1.178 0 .41-.057.787-.17 1.131-.11.344-.276.645-.498.902a2.243 2.243 0 0 1-.844.592c-.336.14-.733.211-1.19.211-.343 0-.67-.047-.978-.14a2.513 2.513 0 0 1-.82-.44 2.365 2.365 0 0 1-.586-.738 2.95 2.95 0 0 1-.282-1.043h1.032c.046.32.14.59.281.808.14.22.324.385.551.498.23.11.498.165.802.165.258 0 .487-.045.686-.135.199-.09.367-.219.504-.387s.24-.371.31-.61c.075-.238.112-.505.112-.802 0-.27-.037-.52-.112-.75a1.704 1.704 0 0 0-.334-.604 1.457 1.457 0 0 0-.533-.398 1.711 1.711 0 0 0-.726-.146c-.364 0-.639.048-.827.146-.183.098-.373.23-.568.398zm10.734-.884v1.3c0 .7-.062 1.29-.187 1.77s-.305.867-.539 1.16a2.051 2.051 0 0 1-.85.639 3.023 3.023 0 0 1-1.113.193c-.328 0-.631-.04-.908-.123a2.145 2.145 0 0 1-.75-.392 2.39 2.39 0 0 1-.563-.715 3.842 3.842 0 0 1-.357-1.067 7.687 7.687 0 0 1-.123-1.465v-1.3c0-.7.062-1.285.187-1.758.129-.473.311-.852.545-1.137.235-.289.516-.496.844-.62a3.139 3.139 0 0 1 1.113-.188c.332 0 .637.04.914.123a2.053 2.053 0 0 1 1.307 1.072c.156.285.275.635.357 1.049.082.414.123.9.123 1.459zm-1.089 1.476v-1.658c0-.383-.024-.719-.071-1.008a3.168 3.168 0 0 0-.193-.75 1.481 1.481 0 0 0-.328-.504 1.158 1.158 0 0 0-.451-.28 1.625 1.625 0 0 0-.569-.095c-.258 0-.486.05-.685.147a1.236 1.236 0 0 0-.504.451c-.133.207-.235.479-.305.814-.07.336-.105.745-.105 1.225v1.658c0 .383.021.721.064 1.014.047.293.115.547.205.762.09.21.199.384.328.521s.278.238.446.305c.172.062.361.094.568.094.266 0 .498-.051.697-.153.199-.101.366-.26.498-.474.137-.22.239-.498.305-.838.066-.344.1-.754.1-1.23zm2.619 2.895a.66.66 0 0 1 .17-.463c.117-.129.285-.194.504-.194.218 0 .384.065.498.194.117.125.175.28.175.463 0 .18-.058.332-.175.457-.114.125-.28.187-.498.187-.219 0-.387-.062-.504-.187a.653.653 0 0 1-.17-.457zm8.543-7.957v.61L518.104 24h-1.143l3.527-7.64h-4.617v-.891h5.766zm2.818 3.732h.774c.378 0 .691-.062.937-.187a1.29 1.29 0 0 0 .557-.522c.125-.223.187-.473.187-.75 0-.328-.055-.603-.164-.826a1.095 1.095 0 0 0-.492-.504c-.219-.113-.496-.17-.832-.17-.305 0-.574.06-.809.182-.23.117-.412.285-.545.504a1.495 1.495 0 0 0-.193.773h-1.084c0-.433.109-.828.328-1.183.219-.356.526-.64.92-.85.399-.211.859-.316 1.383-.316.516 0 .967.091 1.353.275.387.18.688.45.903.809.215.355.322.798.322 1.33 0 .215-.051.445-.152.691a2.05 2.05 0 0 1-.463.68 2.39 2.39 0 0 1-.809.521c-.332.133-.73.2-1.195.2h-.926V19.2zm0 .89v-.65h.926c.543 0 .992.065 1.348.194.355.129.634.3.837.515.207.215.352.452.434.71.086.253.129.507.129.761 0 .399-.068.752-.205 1.06-.133.31-.322.571-.569.786a2.427 2.427 0 0 1-.855.486c-.328.11-.686.164-1.072.164-.371 0-.721-.053-1.049-.158a2.718 2.718 0 0 1-.861-.457 2.133 2.133 0 0 1-.586-.744 2.335 2.335 0 0 1-.211-1.014h1.084c0 .297.064.557.193.78.133.222.32.396.563.52.246.122.535.183.867.183.332 0 .617-.057.855-.17.242-.117.428-.293.557-.528.133-.234.199-.529.199-.884 0-.356-.074-.647-.223-.873-.148-.231-.359-.4-.632-.51a2.456 2.456 0 0 0-.955-.17h-.774zM551.41 23.08V24h-4.517v-.92h4.517zm-4.289-7.611V24h-1.131v-8.531h1.131zm3.691 3.668v.92h-3.919v-.92h3.919zm.54-3.668v.926h-4.459v-.926h4.459zm6.339 0h1.125v5.771c0 .64-.142 1.174-.427 1.6a2.669 2.669 0 0 1-1.137.96c-.469.212-.979.317-1.529.317a3.79 3.79 0 0 1-1.571-.316 2.571 2.571 0 0 1-1.107-.961c-.27-.426-.404-.96-.404-1.6V15.47h1.119v5.771c0 .446.082.813.246 1.102.164.289.392.504.685.644.297.141.641.211 1.032.211.394 0 .738-.07 1.031-.21a1.53 1.53 0 0 0 .691-.645c.164-.29.246-.656.246-1.102V15.47zm2.901 0h2.824c.641 0 1.182.097 1.623.293a2.16 2.16 0 0 1 1.014.867c.234.379.351.846.351 1.4 0 .39-.08.748-.24 1.073a2.28 2.28 0 0 1-.68.82 2.998 2.998 0 0 1-1.054.498l-.317.123h-2.654l-.012-.92h2.004c.406 0 .744-.07 1.014-.21a1.48 1.48 0 0 0 .609-.581c.137-.242.205-.51.205-.803a1.83 1.83 0 0 0-.193-.861 1.292 1.292 0 0 0-.609-.568c-.274-.137-.627-.206-1.061-.206h-1.693V24h-1.131v-8.531zM565.578 24l-2.074-3.867 1.178-.006 2.103 3.803V24h-1.207zM724.869 15.457h.094v.92h-.094c-.574 0-1.055.094-1.441.281a2.352 2.352 0 0 0-.92.744 3.037 3.037 0 0 0-.492 1.043c-.098.387-.147.78-.147 1.178v1.254c0 .379.045.715.135 1.008.09.289.213.533.369.732.156.2.332.35.527.451.2.102.407.153.621.153.25 0 .473-.047.668-.14a1.41 1.41 0 0 0 .493-.405c.136-.176.24-.383.31-.621.07-.239.106-.5.106-.785 0-.254-.032-.498-.094-.733a1.96 1.96 0 0 0-.287-.633 1.376 1.376 0 0 0-1.172-.603c-.301 0-.582.074-.844.222a1.92 1.92 0 0 0-.639.575 1.55 1.55 0 0 0-.281.767l-.574-.006c.055-.437.156-.81.305-1.119.152-.312.34-.566.562-.761.227-.2.479-.344.756-.434.281-.094.578-.14.891-.14.425 0 .793.08 1.101.24.309.16.563.375.762.644.199.266.346.566.439.902.098.332.147.674.147 1.026 0 .402-.057.78-.17 1.13-.113.352-.283.66-.51.926a2.29 2.29 0 0 1-.826.622 2.747 2.747 0 0 1-1.143.222c-.46 0-.863-.094-1.207-.281a2.595 2.595 0 0 1-.855-.762 3.458 3.458 0 0 1-.51-1.055 4.179 4.179 0 0 1-.17-1.177v-.51c0-.602.061-1.191.182-1.77.121-.578.33-1.101.627-1.57a3.218 3.218 0 0 1 1.248-1.119c.531-.277 1.209-.416 2.033-.416zm6.481.012-3.557 9.263h-.932l3.563-9.263h.926zm4.629-.047V24h-1.084v-7.225l-2.186.797v-.978l3.1-1.172h.17zm8.566 6.27c0 .519-.121.96-.363 1.324a2.28 2.28 0 0 1-.973.82 3.248 3.248 0 0 1-1.377.281c-.512 0-.973-.094-1.383-.281a2.27 2.27 0 0 1-.972-.82c-.239-.364-.358-.805-.358-1.325 0-.34.065-.65.193-.931.133-.285.319-.533.557-.744a2.55 2.55 0 0 1 .856-.487 3.27 3.27 0 0 1 1.095-.175c.524 0 .991.101 1.401.304.41.2.732.475.967.826.238.352.357.754.357 1.207zm-1.09-.024c0-.316-.068-.596-.205-.838a1.452 1.452 0 0 0-.574-.574 1.731 1.731 0 0 0-.856-.205c-.332 0-.619.068-.861.205a1.436 1.436 0 0 0-.557.574 1.723 1.723 0 0 0-.199.838c0 .328.065.61.193.844.133.23.321.408.563.533.246.121.537.182.873.182.336 0 .625-.061.867-.182.242-.125.428-.303.557-.533.133-.235.199-.516.199-.844zm.891-3.979c0 .415-.11.788-.328 1.12a2.283 2.283 0 0 1-.897.785 2.82 2.82 0 0 1-1.289.287c-.488 0-.924-.096-1.307-.287a2.235 2.235 0 0 1-.89-.785 2.015 2.015 0 0 1-.323-1.12c0-.496.108-.918.323-1.265.219-.348.517-.614.896-.797a2.935 2.935 0 0 1 1.295-.275c.488 0 .922.091 1.301.275a2.1 2.1 0 0 1 .891.797c.218.348.328.77.328 1.265zm-1.084.018c0-.285-.061-.537-.182-.756a1.33 1.33 0 0 0-.504-.515 1.43 1.43 0 0 0-.75-.194c-.285 0-.535.06-.75.182a1.261 1.261 0 0 0-.498.504 1.63 1.63 0 0 0-.176.779c0 .293.059.549.176.768.121.218.289.388.504.51.215.12.465.181.75.181s.533-.06.744-.182a1.29 1.29 0 0 0 .504-.51 1.56 1.56 0 0 0 .182-.767zM869.291 19.201h.773c.379 0 .692-.062.938-.187a1.29 1.29 0 0 0 .557-.522c.125-.223.187-.473.187-.75 0-.328-.055-.603-.164-.826a1.095 1.095 0 0 0-.492-.504c-.219-.113-.496-.17-.832-.17-.305 0-.574.06-.809.182-.23.117-.412.285-.545.504a1.495 1.495 0 0 0-.193.773h-1.084c0-.433.109-.828.328-1.183.219-.356.525-.64.92-.85.398-.211.859-.316 1.383-.316.515 0 .967.091 1.353.275.387.18.688.45.903.809.215.355.322.798.322 1.33 0 .215-.051.445-.152.691a2.05 2.05 0 0 1-.463.68 2.39 2.39 0 0 1-.809.521c-.332.133-.73.2-1.195.2h-.926V19.2zm0 .89v-.65h.926c.543 0 .992.065 1.347.194.356.129.635.3.838.515.207.215.352.452.434.71.086.253.129.507.129.761 0 .399-.069.752-.205 1.06-.133.31-.322.571-.569.786a2.427 2.427 0 0 1-.855.486c-.328.11-.686.164-1.072.164-.371 0-.721-.053-1.049-.158a2.718 2.718 0 0 1-.861-.457 2.133 2.133 0 0 1-.586-.744 2.335 2.335 0 0 1-.211-1.014h1.084c0 .297.064.557.193.78.133.222.32.396.562.52.247.122.536.183.868.183.332 0 .617-.057.855-.17.242-.117.428-.293.557-.528.133-.234.199-.529.199-.884 0-.356-.074-.647-.223-.873-.148-.231-.359-.4-.632-.51a2.458 2.458 0 0 0-.956-.17h-.773zm6.539-.152-.867-.222.428-4.248h4.377v1.002h-3.457l-.258 2.32c.156-.09.353-.174.592-.252.242-.078.519-.117.832-.117.394 0 .748.068 1.06.205.313.133.578.324.797.574.223.25.393.551.51.902.117.352.176.745.176 1.178 0 .41-.057.787-.17 1.131-.11.344-.276.645-.498.902a2.243 2.243 0 0 1-.844.592c-.336.14-.733.211-1.19.211-.343 0-.67-.047-.978-.14a2.513 2.513 0 0 1-.82-.44 2.365 2.365 0 0 1-.586-.738 2.95 2.95 0 0 1-.282-1.043h1.032c.046.32.14.59.281.808.14.22.324.385.551.498.23.11.498.165.802.165.258 0 .487-.045.686-.135.199-.09.367-.219.504-.387s.24-.371.31-.61c.075-.238.112-.505.112-.802 0-.27-.037-.52-.112-.75a1.704 1.704 0 0 0-.334-.604 1.457 1.457 0 0 0-.533-.398 1.711 1.711 0 0 0-.726-.146c-.364 0-.639.048-.827.146-.183.098-.373.23-.568.398zm10.734-.884v1.3c0 .7-.062 1.29-.187 1.77s-.305.867-.539 1.16a2.051 2.051 0 0 1-.85.639 3.023 3.023 0 0 1-1.113.193c-.328 0-.631-.04-.908-.123a2.145 2.145 0 0 1-.75-.392 2.39 2.39 0 0 1-.563-.715 3.842 3.842 0 0 1-.357-1.067 7.687 7.687 0 0 1-.123-1.465v-1.3c0-.7.062-1.285.187-1.758.129-.473.311-.852.545-1.137.235-.289.516-.496.844-.62a3.139 3.139 0 0 1 1.113-.188c.332 0 .637.04.914.123a2.053 2.053 0 0 1 1.307 1.072c.156.285.275.635.357 1.049.082.414.123.9.123 1.459zm-1.089 1.476v-1.658c0-.383-.024-.719-.071-1.008a3.168 3.168 0 0 0-.193-.75 1.481 1.481 0 0 0-.328-.504 1.158 1.158 0 0 0-.451-.28 1.625 1.625 0 0 0-.569-.095c-.258 0-.486.05-.685.147a1.236 1.236 0 0 0-.504.451c-.133.207-.235.479-.305.814-.07.336-.105.745-.105 1.225v1.658c0 .383.021.721.064 1.014.047.293.115.547.205.762.09.21.199.384.328.521s.278.238.446.305c.172.062.361.094.568.094.266 0 .498-.051.697-.153.199-.101.366-.26.498-.474.137-.22.239-.498.305-.838.066-.344.1-.754.1-1.23zm2.619 2.895a.66.66 0 0 1 .17-.463c.117-.129.285-.194.504-.194.218 0 .384.065.498.194.117.125.175.28.175.463 0 .18-.058.332-.175.457-.114.125-.28.187-.498.187-.219 0-.387-.062-.504-.187a.653.653 0 0 1-.17-.457zm8.543-7.957v.61L893.104 24h-1.143l3.527-7.64h-4.617v-.891h5.766zm2.818 3.732h.774c.378 0 .691-.062.937-.187a1.29 1.29 0 0 0 .557-.522c.125-.223.187-.473.187-.75 0-.328-.055-.603-.164-.826a1.095 1.095 0 0 0-.492-.504c-.219-.113-.496-.17-.832-.17-.305 0-.574.06-.809.182-.23.117-.412.285-.545.504a1.495 1.495 0 0 0-.193.773h-1.084c0-.433.109-.828.328-1.183.219-.356.526-.64.92-.85.399-.211.859-.316 1.383-.316.516 0 .967.091 1.353.275.387.18.688.45.903.809.215.355.322.798.322 1.33 0 .215-.051.445-.152.691a2.05 2.05 0 0 1-.463.68 2.39 2.39 0 0 1-.809.521c-.332.133-.73.2-1.195.2h-.926V19.2zm0 .89v-.65h.926c.543 0 .992.065 1.348.194.355.129.634.3.837.515.207.215.352.452.434.71.086.253.129.507.129.761 0 .399-.068.752-.205 1.06-.133.31-.322.571-.569.786a2.427 2.427 0 0 1-.855.486c-.328.11-.686.164-1.072.164-.371 0-.721-.053-1.049-.158a2.718 2.718 0 0 1-.861-.457 2.133 2.133 0 0 1-.586-.744 2.335 2.335 0 0 1-.211-1.014h1.084c0 .297.064.557.193.78.133.222.32.396.563.52.246.122.535.183.867.183.332 0 .617-.057.855-.17.242-.117.428-.293.557-.528.133-.234.199-.529.199-.884 0-.356-.074-.647-.223-.873-.148-.231-.359-.4-.632-.51a2.456 2.456 0 0 0-.955-.17h-.774z" opacity=".9"/></svg>