<svg xmlns="http://www.w3.org/2000/svg" fill="none" viewBox="0 0 928 40"><rect width="928" height="40" fill="#fff" rx="12"/><rect width="15" height="15" x="16.5" y="12.5" fill="#fff" rx="3.5"/><rect width="15" height="15" x="16.5" y="12.5" stroke="#DAE6F0" rx="3.5"/><path fill="#32375E" d="M64.975 21.129v.89H58.81v-.638l3.82-5.912h.885l-.95 1.71-2.525 3.95h4.934zm-1.19-5.66V24h-1.084v-8.531h1.084zM117.975 21.129v.89h-6.164v-.638l3.82-5.912h.885l-.95 1.71-2.525 3.95h4.934zm-1.19-5.66V24h-1.084v-8.531h1.084zm7.529 3.586v1.3c0 .7-.062 1.29-.187 1.77s-.305.867-.539 1.16a2.051 2.051 0 0 1-.85.639 3.023 3.023 0 0 1-1.113.193c-.328 0-.631-.04-.908-.123a2.145 2.145 0 0 1-.75-.392 2.39 2.39 0 0 1-.563-.715 3.842 3.842 0 0 1-.357-1.067 7.687 7.687 0 0 1-.123-1.465v-1.3c0-.7.062-1.285.187-1.758.129-.473.311-.852.545-1.137.235-.289.516-.496.844-.62a3.139 3.139 0 0 1 1.113-.188c.332 0 .637.04.914.123a2.053 2.053 0 0 1 1.307 1.072c.156.285.275.635.357 1.049.082.414.123.9.123 1.459zm-1.089 1.476v-1.658c0-.383-.024-.719-.071-1.008a3.168 3.168 0 0 0-.193-.75 1.481 1.481 0 0 0-.328-.504 1.158 1.158 0 0 0-.451-.28 1.625 1.625 0 0 0-.569-.095c-.258 0-.486.05-.685.147a1.236 1.236 0 0 0-.504.451c-.133.207-.235.479-.305.814-.07.336-.105.745-.105 1.225v1.658c0 .383.021.721.064 1.014.047.293.115.547.205.762.09.21.199.384.328.521s.278.238.446.305c.172.062.361.094.568.094.266 0 .498-.051.697-.153.199-.101.366-.26.498-.474.137-.22.239-.498.305-.838.066-.344.1-.754.1-1.23zm4.066-1.33h.773c.379 0 .692-.062.938-.187a1.29 1.29 0 0 0 .557-.522c.125-.223.187-.473.187-.75 0-.328-.055-.603-.164-.826a1.095 1.095 0 0 0-.492-.504c-.219-.113-.496-.17-.832-.17-.305 0-.574.06-.809.182-.23.117-.412.285-.545.504a1.495 1.495 0 0 0-.193.773h-1.084c0-.433.109-.828.328-1.183.219-.356.525-.64.92-.85.398-.211.859-.316 1.383-.316.515 0 .967.091 1.353.275.387.18.688.45.903.809.215.355.322.798.322 1.33 0 .215-.051.445-.152.691a2.05 2.05 0 0 1-.463.68 2.39 2.39 0 0 1-.809.521c-.332.133-.73.2-1.195.2h-.926V19.2zm0 .89v-.65h.926c.543 0 .992.065 1.347.194.356.129.635.3.838.515.207.215.352.452.434.71.086.253.129.507.129.761 0 .399-.069.752-.205 1.06-.133.31-.322.571-.569.786a2.427 2.427 0 0 1-.855.486c-.328.11-.686.164-1.072.164-.371 0-.721-.053-1.049-.158a2.718 2.718 0 0 1-.861-.457 2.133 2.133 0 0 1-.586-.744 2.335 2.335 0 0 1-.211-1.014h1.084c0 .297.064.557.193.78.133.222.32.396.562.52.247.122.536.183.868.183.332 0 .617-.057.855-.17.242-.117.428-.293.557-.528.133-.234.199-.529.199-.884 0-.356-.074-.647-.223-.873-.148-.231-.359-.4-.632-.51a2.458 2.458 0 0 0-.956-.17h-.773zM165.791 19.201h.773c.379 0 .692-.062.938-.187a1.29 1.29 0 0 0 .557-.522c.125-.223.187-.473.187-.75 0-.328-.055-.603-.164-.826a1.095 1.095 0 0 0-.492-.504c-.219-.113-.496-.17-.832-.17-.305 0-.574.06-.809.182-.23.117-.412.285-.545.504a1.495 1.495 0 0 0-.193.773h-1.084c0-.433.109-.828.328-1.183.219-.356.525-.64.92-.85.398-.211.859-.316 1.383-.316.515 0 .967.091 1.353.275.387.18.688.45.903.809.215.355.322.798.322 1.33 0 .215-.051.445-.152.691a2.05 2.05 0 0 1-.463.68 2.39 2.39 0 0 1-.809.521c-.332.133-.73.2-1.195.2h-.926V19.2zm0 .89v-.65h.926c.543 0 .992.065 1.347.194.356.129.635.3.838.515.207.215.352.452.434.71.086.253.129.507.129.761 0 .399-.069.752-.205 1.06-.133.31-.322.571-.569.786a2.427 2.427 0 0 1-.855.486c-.328.11-.686.164-1.072.164-.371 0-.721-.053-1.049-.158a2.718 2.718 0 0 1-.861-.457 2.133 2.133 0 0 1-.586-.744 2.335 2.335 0 0 1-.211-1.014h1.084c0 .297.064.557.193.78.133.222.32.396.562.52.247.122.536.183.868.183.332 0 .617-.057.855-.17.242-.117.428-.293.557-.528.133-.234.199-.529.199-.884 0-.356-.074-.647-.223-.873-.148-.231-.359-.4-.632-.51a2.458 2.458 0 0 0-.956-.17h-.773zm6.539-.152-.867-.222.428-4.248h4.377v1.002h-3.457l-.258 2.32c.156-.09.353-.174.592-.252.242-.078.519-.117.832-.117.394 0 .748.068 1.06.205.313.133.578.324.797.574.223.25.393.551.51.902.117.352.176.745.176 1.178 0 .41-.057.787-.17 1.131-.11.344-.276.645-.498.902a2.243 2.243 0 0 1-.844.592c-.336.14-.733.211-1.19.211-.343 0-.67-.047-.978-.14a2.513 2.513 0 0 1-.82-.44 2.365 2.365 0 0 1-.586-.738 2.95 2.95 0 0 1-.282-1.043h1.032c.046.32.14.59.281.808.14.22.324.385.551.498.23.11.498.165.802.165.258 0 .487-.045.686-.135.199-.09.367-.219.504-.387s.24-.371.31-.61c.075-.238.112-.505.112-.802 0-.27-.037-.52-.112-.75a1.704 1.704 0 0 0-.334-.604 1.457 1.457 0 0 0-.533-.398 1.711 1.711 0 0 0-.726-.146c-.364 0-.639.048-.827.146-.183.098-.373.23-.568.398zm10.734-.884v1.3c0 .7-.062 1.29-.187 1.77s-.305.867-.539 1.16a2.051 2.051 0 0 1-.85.639 3.023 3.023 0 0 1-1.113.193c-.328 0-.631-.04-.908-.123a2.145 2.145 0 0 1-.75-.392 2.39 2.39 0 0 1-.563-.715 3.842 3.842 0 0 1-.357-1.067 7.687 7.687 0 0 1-.123-1.465v-1.3c0-.7.062-1.285.187-1.758.129-.473.311-.852.545-1.137.235-.289.516-.496.844-.62a3.139 3.139 0 0 1 1.113-.188c.332 0 .637.04.914.123a2.053 2.053 0 0 1 1.307 1.072c.156.285.275.635.357 1.049.082.414.123.9.123 1.459zm-1.089 1.476v-1.658c0-.383-.024-.719-.071-1.008a3.168 3.168 0 0 0-.193-.75 1.481 1.481 0 0 0-.328-.504 1.158 1.158 0 0 0-.451-.28 1.625 1.625 0 0 0-.569-.095c-.258 0-.486.05-.685.147a1.236 1.236 0 0 0-.504.451c-.133.207-.235.479-.305.814-.07.336-.105.745-.105 1.225v1.658c0 .383.021.721.064 1.014.047.293.115.547.205.762.09.21.199.384.328.521s.278.238.446.305c.172.062.361.094.568.094.266 0 .498-.051.697-.153.199-.101.366-.26.498-.474.137-.22.239-.498.305-.838.066-.344.1-.754.1-1.23zm2.619 2.895a.66.66 0 0 1 .17-.463c.117-.129.285-.194.504-.194.218 0 .384.065.498.194.117.125.175.28.175.463 0 .18-.058.332-.175.457-.114.125-.28.187-.498.187-.219 0-.387-.062-.504-.187a.653.653 0 0 1-.17-.457zm8.543-7.957v.61L189.604 24h-1.143l3.527-7.64h-4.617v-.891h5.766zm2.818 3.732h.774c.378 0 .691-.062.937-.187a1.29 1.29 0 0 0 .557-.522c.125-.223.187-.473.187-.75 0-.328-.055-.603-.164-.826a1.095 1.095 0 0 0-.492-.504c-.219-.113-.496-.17-.832-.17-.305 0-.574.06-.809.182-.23.117-.412.285-.545.504a1.495 1.495 0 0 0-.193.773h-1.084c0-.433.109-.828.328-1.183.219-.356.526-.64.92-.85.399-.211.859-.316 1.383-.316.516 0 .967.091 1.353.275.387.18.688.45.903.809.215.355.322.798.322 1.33 0 .215-.051.445-.152.691a2.05 2.05 0 0 1-.463.68 2.39 2.39 0 0 1-.809.521c-.332.133-.73.2-1.195.2h-.926V19.2zm0 .89v-.65h.926c.543 0 .992.065 1.348.194.355.129.634.3.837.515.207.215.352.452.434.71.086.253.129.507.129.761 0 .399-.068.752-.205 1.06-.133.31-.322.571-.569.786a2.427 2.427 0 0 1-.855.486c-.328.11-.686.164-1.072.164-.371 0-.721-.053-1.049-.158a2.718 2.718 0 0 1-.861-.457 2.133 2.133 0 0 1-.586-.744 2.335 2.335 0 0 1-.211-1.014h1.084c0 .297.064.557.193.78.133.222.32.396.563.52.246.122.535.183.867.183.332 0 .617-.057.855-.17.242-.117.428-.293.557-.528.133-.234.199-.529.199-.884 0-.356-.074-.647-.223-.873-.148-.231-.359-.4-.632-.51a2.456 2.456 0 0 0-.955-.17h-.774z" opacity=".9"/><path fill="#8E959C" d="M245.333 14.666H248a.668.668 0 0 1 .667.667V26a.666.666 0 0 1-.667.666h-12a.665.665 0 0 1-.667-.666V15.333a.667.667 0 0 1 .667-.667h2.667v-1.333H240v1.333h4v-1.333h1.333v1.333zm2 4V16h-2v1.333H244V16h-4v1.333h-1.333V16h-2v2.666h10.666zm0 1.334h-10.666v5.333h10.666V20zM238 21.333h3.333V24H238v-2.667z"/><path fill="#32375E" d="M278.064 19.055v1.3c0 .7-.062 1.29-.187 1.77s-.305.867-.539 1.16a2.051 2.051 0 0 1-.85.639 3.023 3.023 0 0 1-1.113.193c-.328 0-.631-.04-.908-.123a2.145 2.145 0 0 1-.75-.392 2.39 2.39 0 0 1-.563-.715 3.842 3.842 0 0 1-.357-1.067 7.687 7.687 0 0 1-.123-1.465v-1.3c0-.7.062-1.285.187-1.758.129-.473.311-.852.545-1.137.235-.289.516-.496.844-.62a3.139 3.139 0 0 1 1.113-.188c.332 0 .637.04.914.123a2.053 2.053 0 0 1 1.307 1.072c.156.285.275.635.357 1.049.082.414.123.9.123 1.459zm-1.089 1.476v-1.658c0-.383-.024-.719-.071-1.008a3.168 3.168 0 0 0-.193-.75 1.481 1.481 0 0 0-.328-.504 1.158 1.158 0 0 0-.451-.28 1.625 1.625 0 0 0-.569-.095c-.258 0-.486.05-.685.147a1.236 1.236 0 0 0-.504.451c-.133.207-.235.479-.305.814-.07.336-.105.745-.105 1.225v1.658c0 .383.021.721.064 1.014.047.293.115.547.205.762.09.21.199.384.328.521s.278.238.446.305c.172.062.361.094.568.094.266 0 .498-.051.697-.153.199-.101.366-.26.498-.474.137-.22.239-.498.305-.838.066-.344.1-.754.1-1.23zm6.046-5.11V24h-1.083v-7.225l-2.186.797v-.978l3.1-1.172h.169zm5.561 4.507v.89h-2.859v-.89h2.859zm1.582-4.46h1.096l2.795 6.956 2.789-6.955h1.101L294.477 24h-.856l-3.457-8.531zm-.357 0h.966l.159 5.204V24h-1.125v-8.531zm7.523 0h.967V24h-1.125v-3.328l.158-5.203zm6.527 7.448v-3.264c0-.25-.05-.466-.152-.65a.999.999 0 0 0-.445-.434c-.199-.101-.446-.152-.739-.152a1.73 1.73 0 0 0-.72.14 1.264 1.264 0 0 0-.481.37.81.81 0 0 0-.17.492h-1.084c0-.227.059-.451.176-.674.117-.223.285-.424.504-.603a2.52 2.52 0 0 1 .797-.434 3.14 3.14 0 0 1 1.043-.164c.461 0 .867.078 1.219.234.355.157.633.393.832.71.203.312.304.704.304 1.177v2.953c0 .211.018.436.053.674.039.238.096.443.17.615V24h-1.131a2.091 2.091 0 0 1-.129-.498 4.054 4.054 0 0 1-.047-.586zm.188-2.76.012.762h-1.096c-.309 0-.584.025-.826.076-.242.047-.446.12-.61.217a.978.978 0 0 0-.504.879c0 .2.045.38.135.545.09.164.225.295.405.392.183.094.408.141.673.141.332 0 .625-.07.879-.211.254-.14.455-.313.604-.516.152-.203.234-.4.246-.591l.463.521a1.59 1.59 0 0 1-.223.545 2.605 2.605 0 0 1-1.201 1.025 2.327 2.327 0 0 1-.926.176c-.43 0-.806-.084-1.131-.252a1.937 1.937 0 0 1-.75-.674 1.79 1.79 0 0 1-.263-.955c0-.34.066-.638.199-.896.133-.262.324-.479.574-.65.25-.176.551-.31.902-.399a4.77 4.77 0 0 1 1.178-.135h1.26zm4.289 3.188 1.764-5.684h1.16l-2.543 7.319a4.043 4.043 0 0 1-.235.503 2.367 2.367 0 0 1-.363.522 1.722 1.722 0 0 1-.539.398 1.621 1.621 0 0 1-.744.159c-.086 0-.195-.012-.328-.036a3.098 3.098 0 0 1-.281-.058l-.006-.88c.031.005.08.009.146.013a1.746 1.746 0 0 0 .774-.088.945.945 0 0 0 .433-.323c.121-.148.225-.353.311-.615l.451-1.23zm-1.295-5.684 1.647 4.922.281 1.143-.779.398-2.333-6.463h1.184zm7.453 2.268v.89h-2.859v-.89h2.859zm6.533 3.181V24h-5.584v-.78l2.795-3.11c.344-.383.61-.708.797-.973.192-.27.324-.51.399-.721a1.91 1.91 0 0 0 .117-.656c0-.282-.059-.535-.176-.762a1.313 1.313 0 0 0-.504-.55 1.515 1.515 0 0 0-.808-.206c-.379 0-.696.074-.95.223a1.37 1.37 0 0 0-.562.61 2.07 2.07 0 0 0-.188.902h-1.084c0-.48.106-.92.317-1.319.211-.398.523-.715.937-.949.414-.238.924-.357 1.53-.357.539 0 1 .095 1.382.287.383.187.676.453.879.797.207.34.311.738.311 1.195 0 .25-.043.504-.129.762a3.834 3.834 0 0 1-.346.761 5.793 5.793 0 0 1-.51.75 11.44 11.44 0 0 1-.615.727l-2.285 2.478h4.277zm6.75 0V24h-5.584v-.78l2.795-3.11c.344-.383.61-.708.797-.973.192-.27.324-.51.399-.721a1.91 1.91 0 0 0 .117-.656c0-.282-.059-.535-.176-.762a1.313 1.313 0 0 0-.504-.55 1.515 1.515 0 0 0-.808-.206c-.379 0-.696.074-.95.223a1.37 1.37 0 0 0-.562.61 2.07 2.07 0 0 0-.188.902h-1.084c0-.48.106-.92.317-1.319.211-.398.523-.715.937-.949.414-.238.924-.357 1.53-.357.539 0 1 .095 1.382.287.383.187.676.453.879.797.207.34.311.738.311 1.195 0 .25-.043.504-.129.762a3.834 3.834 0 0 1-.346.761 5.793 5.793 0 0 1-.51.75 11.44 11.44 0 0 1-.615.727l-2.285 2.478h4.277zm7.7-7.687V24h-1.084v-7.225l-2.186.797v-.978l3.1-1.172h.17zm7.347.035h.094v.92h-.094c-.574 0-1.054.094-1.441.281a2.36 2.36 0 0 0-.92.744 3.037 3.037 0 0 0-.492 1.043c-.098.387-.147.78-.147 1.178v1.254c0 .379.045.715.135 1.008.09.289.213.533.369.732.156.2.332.35.528.451.199.102.406.153.621.153.25 0 .472-.047.668-.14.195-.099.359-.233.492-.405.136-.176.24-.383.31-.621.071-.239.106-.5.106-.785a2.81 2.81 0 0 0-.094-.733 1.94 1.94 0 0 0-.287-.633 1.382 1.382 0 0 0-.486-.44 1.363 1.363 0 0 0-.686-.163c-.301 0-.582.074-.844.222-.258.145-.47.336-.638.575-.164.234-.258.49-.282.767l-.574-.006c.055-.437.156-.81.305-1.119.152-.312.34-.566.562-.761.227-.2.479-.344.756-.434.281-.094.578-.14.891-.14.426 0 .793.08 1.101.24.309.16.563.375.762.644.199.266.346.566.44.902.097.332.146.674.146 1.026 0 .402-.057.78-.17 1.13-.113.352-.283.66-.51.926a2.29 2.29 0 0 1-.826.622 2.746 2.746 0 0 1-1.142.222c-.461 0-.864-.094-1.207-.281a2.589 2.589 0 0 1-.856-.762 3.505 3.505 0 0 1-.51-1.055 4.179 4.179 0 0 1-.17-1.177v-.51c0-.602.061-1.191.182-1.77.121-.578.33-1.101.627-1.57a3.218 3.218 0 0 1 1.248-1.119c.531-.277 1.209-.416 2.033-.416zm2.66 7.969c0-.184.057-.338.17-.463.118-.129.286-.194.504-.194.219 0 .385.065.498.194.117.125.176.28.176.463 0 .18-.059.332-.176.457-.113.125-.279.187-.498.187-.218 0-.386-.062-.504-.187a.657.657 0 0 1-.17-.457zm.006-5.174c0-.184.057-.338.17-.463.117-.129.285-.193.504-.193.219 0 .385.064.498.193.117.125.176.28.176.463 0 .18-.059.332-.176.457-.113.125-.279.188-.498.188-.219 0-.387-.063-.504-.188a.658.658 0 0 1-.17-.457zm8.186.803v1.3c0 .7-.063 1.29-.188 1.77s-.304.867-.539 1.16a2.048 2.048 0 0 1-.849.639c-.328.129-.7.193-1.114.193-.328 0-.63-.04-.908-.123a2.163 2.163 0 0 1-.75-.392 2.372 2.372 0 0 1-.562-.715 3.809 3.809 0 0 1-.358-1.067 7.687 7.687 0 0 1-.123-1.465v-1.3c0-.7.063-1.285.188-1.758.129-.473.31-.852.545-1.137a1.98 1.98 0 0 1 .843-.62 3.14 3.14 0 0 1 1.114-.188c.332 0 .636.04.914.123.281.078.531.205.75.38.218.172.404.403.556.692.157.285.276.635.358 1.049.082.414.123.9.123 1.459zm-1.09 1.476v-1.658c0-.383-.023-.719-.07-1.008a3.166 3.166 0 0 0-.194-.75 1.481 1.481 0 0 0-.328-.504 1.158 1.158 0 0 0-.451-.28 1.619 1.619 0 0 0-.568-.095 1.54 1.54 0 0 0-.686.147 1.236 1.236 0 0 0-.504.451c-.133.207-.234.479-.304.814a6.027 6.027 0 0 0-.106 1.225v1.658c0 .383.022.721.065 1.014.046.293.115.547.205.762.089.21.199.384.328.521s.277.238.445.305c.172.062.361.094.568.094.266 0 .498-.051.698-.153.199-.101.365-.26.498-.474.136-.22.238-.498.304-.838.067-.344.1-.754.1-1.23zm7.84-1.476v1.3c0 .7-.063 1.29-.188 1.77s-.304.867-.539 1.16a2.048 2.048 0 0 1-.849.639c-.328.129-.7.193-1.114.193-.328 0-.63-.04-.908-.123a2.163 2.163 0 0 1-.75-.392 2.372 2.372 0 0 1-.562-.715 3.809 3.809 0 0 1-.358-1.067 7.687 7.687 0 0 1-.123-1.465v-1.3c0-.7.063-1.285.188-1.758.129-.473.31-.852.545-1.137a1.98 1.98 0 0 1 .843-.62 3.14 3.14 0 0 1 1.114-.188c.332 0 .636.04.914.123.281.078.531.205.75.38.218.172.404.403.556.692.157.285.276.635.358 1.049.082.414.123.9.123 1.459zm-1.09 1.476v-1.658c0-.383-.023-.719-.07-1.008a3.166 3.166 0 0 0-.194-.75 1.481 1.481 0 0 0-.328-.504 1.158 1.158 0 0 0-.451-.28 1.619 1.619 0 0 0-.568-.095 1.54 1.54 0 0 0-.686.147 1.236 1.236 0 0 0-.504.451c-.133.207-.234.479-.304.814a6.027 6.027 0 0 0-.106 1.225v1.658c0 .383.022.721.065 1.014.046.293.115.547.205.762.089.21.199.384.328.521s.277.238.445.305c.172.062.361.094.568.094.266 0 .498-.051.698-.153.199-.101.365-.26.498-.474.136-.22.238-.498.304-.838.067-.344.1-.754.1-1.23zm10.623-5.062h1.125v5.771c0 .64-.143 1.174-.428 1.6a2.672 2.672 0 0 1-1.136.96c-.469.212-.979.317-1.53.317a3.785 3.785 0 0 1-1.57-.316 2.566 2.566 0 0 1-1.107-.961c-.27-.426-.405-.96-.405-1.6V15.47h1.119v5.771c0 .446.082.813.246 1.102.165.289.393.504.686.644.297.141.641.211 1.031.211.395 0 .739-.07 1.032-.21.296-.141.527-.356.691-.645.164-.29.246-.656.246-1.102V15.47zm6.053 0V24h-1.114v-8.531h1.114zm2.742 0v.926h-6.592v-.926h6.592zm6.252 5.818h1.125a3.595 3.595 0 0 1-.463 1.447c-.25.426-.604.764-1.061 1.014-.457.246-1.027.37-1.71.37-.5 0-.956-.095-1.366-.282a3.037 3.037 0 0 1-1.049-.797 3.743 3.743 0 0 1-.679-1.248 5.334 5.334 0 0 1-.235-1.629v-.85c0-.597.079-1.138.235-1.623a3.66 3.66 0 0 1 .685-1.253 3.06 3.06 0 0 1 1.084-.803 3.472 3.472 0 0 1 1.424-.281c.645 0 1.19.12 1.635.363.445.242.791.578 1.037 1.008.25.425.404.92.463 1.482h-1.125a3.129 3.129 0 0 0-.305-1.025 1.578 1.578 0 0 0-.633-.668c-.273-.157-.63-.235-1.072-.235-.379 0-.713.073-1.002.217-.285.145-.525.35-.721.615a2.877 2.877 0 0 0-.433.955 4.84 4.84 0 0 0-.147 1.237v.861c0 .418.043.81.129 1.178.09.367.225.69.405.967.179.277.408.496.685.656.278.156.606.234.985.234.48 0 .863-.076 1.148-.228a1.5 1.5 0 0 0 .645-.657 3.36 3.36 0 0 0 .316-1.025zM494.291 19.201h.773c.379 0 .692-.062.938-.187a1.29 1.29 0 0 0 .557-.522c.125-.223.187-.473.187-.75 0-.328-.055-.603-.164-.826a1.095 1.095 0 0 0-.492-.504c-.219-.113-.496-.17-.832-.17-.305 0-.574.06-.809.182-.23.117-.412.285-.545.504a1.495 1.495 0 0 0-.193.773h-1.084c0-.433.109-.828.328-1.183.219-.356.525-.64.92-.85.398-.211.859-.316 1.383-.316.515 0 .967.091 1.353.275.387.18.688.45.903.809.215.355.322.798.322 1.33 0 .215-.051.445-.152.691a2.05 2.05 0 0 1-.463.68 2.39 2.39 0 0 1-.809.521c-.332.133-.73.2-1.195.2h-.926V19.2zm0 .89v-.65h.926c.543 0 .992.065 1.347.194.356.129.635.3.838.515.207.215.352.452.434.71.086.253.129.507.129.761 0 .399-.069.752-.205 1.06-.133.31-.322.571-.569.786a2.427 2.427 0 0 1-.855.486c-.328.11-.686.164-1.072.164-.371 0-.721-.053-1.049-.158a2.718 2.718 0 0 1-.861-.457 2.133 2.133 0 0 1-.586-.744 2.335 2.335 0 0 1-.211-1.014h1.084c0 .297.064.557.193.78.133.222.32.396.562.52.247.122.536.183.868.183.332 0 .617-.057.855-.17.242-.117.428-.293.557-.528.133-.234.199-.529.199-.884 0-.356-.074-.647-.223-.873-.148-.231-.359-.4-.632-.51a2.458 2.458 0 0 0-.956-.17h-.773zm6.539-.152-.867-.222.428-4.248h4.377v1.002h-3.457l-.258 2.32c.156-.09.353-.174.592-.252.242-.078.519-.117.832-.117.394 0 .748.068 1.06.205.313.133.578.324.797.574.223.25.393.551.51.902.117.352.176.745.176 1.178 0 .41-.057.787-.17 1.131-.11.344-.276.645-.498.902a2.243 2.243 0 0 1-.844.592c-.336.14-.733.211-1.19.211-.343 0-.67-.047-.978-.14a2.513 2.513 0 0 1-.82-.44 2.365 2.365 0 0 1-.586-.738 2.95 2.95 0 0 1-.282-1.043h1.032c.046.32.14.59.281.808.14.22.324.385.551.498.23.11.498.165.802.165.258 0 .487-.045.686-.135.199-.09.367-.219.504-.387s.24-.371.31-.61c.075-.238.112-.505.112-.802 0-.27-.037-.52-.112-.75a1.704 1.704 0 0 0-.334-.604 1.457 1.457 0 0 0-.533-.398 1.711 1.711 0 0 0-.726-.146c-.364 0-.639.048-.827.146-.183.098-.373.23-.568.398zm10.734-.884v1.3c0 .7-.062 1.29-.187 1.77s-.305.867-.539 1.16a2.051 2.051 0 0 1-.85.639 3.023 3.023 0 0 1-1.113.193c-.328 0-.631-.04-.908-.123a2.145 2.145 0 0 1-.75-.392 2.39 2.39 0 0 1-.563-.715 3.842 3.842 0 0 1-.357-1.067 7.687 7.687 0 0 1-.123-1.465v-1.3c0-.7.062-1.285.187-1.758.129-.473.311-.852.545-1.137.235-.289.516-.496.844-.62a3.139 3.139 0 0 1 1.113-.188c.332 0 .637.04.914.123a2.053 2.053 0 0 1 1.307 1.072c.156.285.275.635.357 1.049.082.414.123.9.123 1.459zm-1.089 1.476v-1.658c0-.383-.024-.719-.071-1.008a3.168 3.168 0 0 0-.193-.75 1.481 1.481 0 0 0-.328-.504 1.158 1.158 0 0 0-.451-.28 1.625 1.625 0 0 0-.569-.095c-.258 0-.486.05-.685.147a1.236 1.236 0 0 0-.504.451c-.133.207-.235.479-.305.814-.07.336-.105.745-.105 1.225v1.658c0 .383.021.721.064 1.014.047.293.115.547.205.762.09.21.199.384.328.521s.278.238.446.305c.172.062.361.094.568.094.266 0 .498-.051.697-.153.199-.101.366-.26.498-.474.137-.22.239-.498.305-.838.066-.344.1-.754.1-1.23zm2.619 2.895a.66.66 0 0 1 .17-.463c.117-.129.285-.194.504-.194.218 0 .384.065.498.194.117.125.175.28.175.463 0 .18-.058.332-.175.457-.114.125-.28.187-.498.187-.219 0-.387-.062-.504-.187a.653.653 0 0 1-.17-.457zm8.543-7.957v.61L518.104 24h-1.143l3.527-7.64h-4.617v-.891h5.766zm2.818 3.732h.774c.378 0 .691-.062.937-.187a1.29 1.29 0 0 0 .557-.522c.125-.223.187-.473.187-.75 0-.328-.055-.603-.164-.826a1.095 1.095 0 0 0-.492-.504c-.219-.113-.496-.17-.832-.17-.305 0-.574.06-.809.182-.23.117-.412.285-.545.504a1.495 1.495 0 0 0-.193.773h-1.084c0-.433.109-.828.328-1.183.219-.356.526-.64.92-.85.399-.211.859-.316 1.383-.316.516 0 .967.091 1.353.275.387.18.688.45.903.809.215.355.322.798.322 1.33 0 .215-.051.445-.152.691a2.05 2.05 0 0 1-.463.68 2.39 2.39 0 0 1-.809.521c-.332.133-.73.2-1.195.2h-.926V19.2zm0 .89v-.65h.926c.543 0 .992.065 1.348.194.355.129.634.3.837.515.207.215.352.452.434.71.086.253.129.507.129.761 0 .399-.068.752-.205 1.06-.133.31-.322.571-.569.786a2.427 2.427 0 0 1-.855.486c-.328.11-.686.164-1.072.164-.371 0-.721-.053-1.049-.158a2.718 2.718 0 0 1-.861-.457 2.133 2.133 0 0 1-.586-.744 2.335 2.335 0 0 1-.211-1.014h1.084c0 .297.064.557.193.78.133.222.32.396.563.52.246.122.535.183.867.183.332 0 .617-.057.855-.17.242-.117.428-.293.557-.528.133-.234.199-.529.199-.884 0-.356-.074-.647-.223-.873-.148-.231-.359-.4-.632-.51a2.456 2.456 0 0 0-.955-.17h-.774zM551.41 23.08V24h-4.517v-.92h4.517zm-4.289-7.611V24h-1.131v-8.531h1.131zm3.691 3.668v.92h-3.919v-.92h3.919zm.54-3.668v.926h-4.459v-.926h4.459zm6.339 0h1.125v5.771c0 .64-.142 1.174-.427 1.6a2.669 2.669 0 0 1-1.137.96c-.469.212-.979.317-1.529.317a3.79 3.79 0 0 1-1.571-.316 2.571 2.571 0 0 1-1.107-.961c-.27-.426-.404-.96-.404-1.6V15.47h1.119v5.771c0 .446.082.813.246 1.102.164.289.392.504.685.644.297.141.641.211 1.032.211.394 0 .738-.07 1.031-.21a1.53 1.53 0 0 0 .691-.645c.164-.29.246-.656.246-1.102V15.47zm2.901 0h2.824c.641 0 1.182.097 1.623.293a2.16 2.16 0 0 1 1.014.867c.234.379.351.846.351 1.4 0 .39-.08.748-.24 1.073a2.28 2.28 0 0 1-.68.82 2.998 2.998 0 0 1-1.054.498l-.317.123h-2.654l-.012-.92h2.004c.406 0 .744-.07 1.014-.21a1.48 1.48 0 0 0 .609-.581c.137-.242.205-.51.205-.803a1.83 1.83 0 0 0-.193-.861 1.292 1.292 0 0 0-.609-.568c-.274-.137-.627-.206-1.061-.206h-1.693V24h-1.131v-8.531zM565.578 24l-2.074-3.867 1.178-.006 2.103 3.803V24h-1.207zM724.869 15.457h.094v.92h-.094c-.574 0-1.055.094-1.441.281a2.352 2.352 0 0 0-.92.744 3.037 3.037 0 0 0-.492 1.043c-.098.387-.147.78-.147 1.178v1.254c0 .379.045.715.135 1.008.09.289.213.533.369.732.156.2.332.35.527.451.2.102.407.153.621.153.25 0 .473-.047.668-.14a1.41 1.41 0 0 0 .493-.405c.136-.176.24-.383.31-.621.07-.239.106-.5.106-.785 0-.254-.032-.498-.094-.733a1.96 1.96 0 0 0-.287-.633 1.376 1.376 0 0 0-1.172-.603c-.301 0-.582.074-.844.222a1.92 1.92 0 0 0-.639.575 1.55 1.55 0 0 0-.281.767l-.574-.006c.055-.437.156-.81.305-1.119.152-.312.34-.566.562-.761.227-.2.479-.344.756-.434.281-.094.578-.14.891-.14.425 0 .793.08 1.101.24.309.16.563.375.762.644.199.266.346.566.439.902.098.332.147.674.147 1.026 0 .402-.057.78-.17 1.13-.113.352-.283.66-.51.926a2.29 2.29 0 0 1-.826.622 2.747 2.747 0 0 1-1.143.222c-.46 0-.863-.094-1.207-.281a2.595 2.595 0 0 1-.855-.762 3.458 3.458 0 0 1-.51-1.055 4.179 4.179 0 0 1-.17-1.177v-.51c0-.602.061-1.191.182-1.77.121-.578.33-1.101.627-1.57a3.218 3.218 0 0 1 1.248-1.119c.531-.277 1.209-.416 2.033-.416zm6.481.012-3.557 9.263h-.932l3.563-9.263h.926zm4.629-.047V24h-1.084v-7.225l-2.186.797v-.978l3.1-1.172h.17zm8.566 6.27c0 .519-.121.96-.363 1.324a2.28 2.28 0 0 1-.973.82 3.248 3.248 0 0 1-1.377.281c-.512 0-.973-.094-1.383-.281a2.27 2.27 0 0 1-.972-.82c-.239-.364-.358-.805-.358-1.325 0-.34.065-.65.193-.931.133-.285.319-.533.557-.744a2.55 2.55 0 0 1 .856-.487 3.27 3.27 0 0 1 1.095-.175c.524 0 .991.101 1.401.304.41.2.732.475.967.826.238.352.357.754.357 1.207zm-1.09-.024c0-.316-.068-.596-.205-.838a1.452 1.452 0 0 0-.574-.574 1.731 1.731 0 0 0-.856-.205c-.332 0-.619.068-.861.205a1.436 1.436 0 0 0-.557.574 1.723 1.723 0 0 0-.199.838c0 .328.065.61.193.844.133.23.321.408.563.533.246.121.537.182.873.182.336 0 .625-.061.867-.182.242-.125.428-.303.557-.533.133-.235.199-.516.199-.844zm.891-3.979c0 .415-.11.788-.328 1.12a2.283 2.283 0 0 1-.897.785 2.82 2.82 0 0 1-1.289.287c-.488 0-.924-.096-1.307-.287a2.235 2.235 0 0 1-.89-.785 2.015 2.015 0 0 1-.323-1.12c0-.496.108-.918.323-1.265.219-.348.517-.614.896-.797a2.935 2.935 0 0 1 1.295-.275c.488 0 .922.091 1.301.275a2.1 2.1 0 0 1 .891.797c.218.348.328.77.328 1.265zm-1.084.018c0-.285-.061-.537-.182-.756a1.33 1.33 0 0 0-.504-.515 1.43 1.43 0 0 0-.75-.194c-.285 0-.535.06-.75.182a1.261 1.261 0 0 0-.498.504 1.63 1.63 0 0 0-.176.779c0 .293.059.549.176.768.121.218.289.388.504.51.215.12.465.181.75.181s.533-.06.744-.182a1.29 1.29 0 0 0 .504-.51 1.56 1.56 0 0 0 .182-.767zM869.291 19.201h.773c.379 0 .692-.062.938-.187a1.29 1.29 0 0 0 .557-.522c.125-.223.187-.473.187-.75 0-.328-.055-.603-.164-.826a1.095 1.095 0 0 0-.492-.504c-.219-.113-.496-.17-.832-.17-.305 0-.574.06-.809.182-.23.117-.412.285-.545.504a1.495 1.495 0 0 0-.193.773h-1.084c0-.433.109-.828.328-1.183.219-.356.525-.64.92-.85.398-.211.859-.316 1.383-.316.515 0 .967.091 1.353.275.387.18.688.45.903.809.215.355.322.798.322 1.33 0 .215-.051.445-.152.691a2.05 2.05 0 0 1-.463.68 2.39 2.39 0 0 1-.809.521c-.332.133-.73.2-1.195.2h-.926V19.2zm0 .89v-.65h.926c.543 0 .992.065 1.347.194.356.129.635.3.838.515.207.215.352.452.434.71.086.253.129.507.129.761 0 .399-.069.752-.205 1.06-.133.31-.322.571-.569.786a2.427 2.427 0 0 1-.855.486c-.328.11-.686.164-1.072.164-.371 0-.721-.053-1.049-.158a2.718 2.718 0 0 1-.861-.457 2.133 2.133 0 0 1-.586-.744 2.335 2.335 0 0 1-.211-1.014h1.084c0 .297.064.557.193.78.133.222.32.396.562.52.247.122.536.183.868.183.332 0 .617-.057.855-.17.242-.117.428-.293.557-.528.133-.234.199-.529.199-.884 0-.356-.074-.647-.223-.873-.148-.231-.359-.4-.632-.51a2.458 2.458 0 0 0-.956-.17h-.773zm6.539-.152-.867-.222.428-4.248h4.377v1.002h-3.457l-.258 2.32c.156-.09.353-.174.592-.252.242-.078.519-.117.832-.117.394 0 .748.068 1.06.205.313.133.578.324.797.574.223.25.393.551.51.902.117.352.176.745.176 1.178 0 .41-.057.787-.17 1.131-.11.344-.276.645-.498.902a2.243 2.243 0 0 1-.844.592c-.336.14-.733.211-1.19.211-.343 0-.67-.047-.978-.14a2.513 2.513 0 0 1-.82-.44 2.365 2.365 0 0 1-.586-.738 2.95 2.95 0 0 1-.282-1.043h1.032c.046.32.14.59.281.808.14.22.324.385.551.498.23.11.498.165.802.165.258 0 .487-.045.686-.135.199-.09.367-.219.504-.387s.24-.371.31-.61c.075-.238.112-.505.112-.802 0-.27-.037-.52-.112-.75a1.704 1.704 0 0 0-.334-.604 1.457 1.457 0 0 0-.533-.398 1.711 1.711 0 0 0-.726-.146c-.364 0-.639.048-.827.146-.183.098-.373.23-.568.398zm10.734-.884v1.3c0 .7-.062 1.29-.187 1.77s-.305.867-.539 1.16a2.051 2.051 0 0 1-.85.639 3.023 3.023 0 0 1-1.113.193c-.328 0-.631-.04-.908-.123a2.145 2.145 0 0 1-.75-.392 2.39 2.39 0 0 1-.563-.715 3.842 3.842 0 0 1-.357-1.067 7.687 7.687 0 0 1-.123-1.465v-1.3c0-.7.062-1.285.187-1.758.129-.473.311-.852.545-1.137.235-.289.516-.496.844-.62a3.139 3.139 0 0 1 1.113-.188c.332 0 .637.04.914.123a2.053 2.053 0 0 1 1.307 1.072c.156.285.275.635.357 1.049.082.414.123.9.123 1.459zm-1.089 1.476v-1.658c0-.383-.024-.719-.071-1.008a3.168 3.168 0 0 0-.193-.75 1.481 1.481 0 0 0-.328-.504 1.158 1.158 0 0 0-.451-.28 1.625 1.625 0 0 0-.569-.095c-.258 0-.486.05-.685.147a1.236 1.236 0 0 0-.504.451c-.133.207-.235.479-.305.814-.07.336-.105.745-.105 1.225v1.658c0 .383.021.721.064 1.014.047.293.115.547.205.762.09.21.199.384.328.521s.278.238.446.305c.172.062.361.094.568.094.266 0 .498-.051.697-.153.199-.101.366-.26.498-.474.137-.22.239-.498.305-.838.066-.344.1-.754.1-1.23zm2.619 2.895a.66.66 0 0 1 .17-.463c.117-.129.285-.194.504-.194.218 0 .384.065.498.194.117.125.175.28.175.463 0 .18-.058.332-.175.457-.114.125-.28.187-.498.187-.219 0-.387-.062-.504-.187a.653.653 0 0 1-.17-.457zm8.543-7.957v.61L893.104 24h-1.143l3.527-7.64h-4.617v-.891h5.766zm2.818 3.732h.774c.378 0 .691-.062.937-.187a1.29 1.29 0 0 0 .557-.522c.125-.223.187-.473.187-.75 0-.328-.055-.603-.164-.826a1.095 1.095 0 0 0-.492-.504c-.219-.113-.496-.17-.832-.17-.305 0-.574.06-.809.182-.23.117-.412.285-.545.504a1.495 1.495 0 0 0-.193.773h-1.084c0-.433.109-.828.328-1.183.219-.356.526-.64.92-.85.399-.211.859-.316 1.383-.316.516 0 .967.091 1.353.275.387.18.688.45.903.809.215.355.322.798.322 1.33 0 .215-.051.445-.152.691a2.05 2.05 0 0 1-.463.68 2.39 2.39 0 0 1-.809.521c-.332.133-.73.2-1.195.2h-.926V19.2zm0 .89v-.65h.926c.543 0 .992.065 1.348.194.355.129.634.3.837.515.207.215.352.452.434.71.086.253.129.507.129.761 0 .399-.068.752-.205 1.06-.133.31-.322.571-.569.786a2.427 2.427 0 0 1-.855.486c-.328.11-.686.164-1.072.164-.371 0-.721-.053-1.049-.158a2.718 2.718 0 0 1-.861-.457 2.133 2.133 0 0 1-.586-.744 2.335 2.335 0 0 1-.211-1.014h1.084c0 .297.064.557.193.78.133.222.32.396.563.52.246.122.535.183.867.183.332 0 .617-.057.855-.17.242-.117.428-.293.557-.528.133-.234.199-.529.199-.884 0-.356-.074-.647-.223-.873-.148-.231-.359-.4-.632-.51a2.456 2.456 0 0 0-.955-.17h-.774z" opacity=".9"/></svg>