<svg xmlns="http://www.w3.org/2000/svg" fill="none" viewBox="0 0 928 40"><rect width="927" height="39" x=".5" y=".5" fill="#CFE3C3" rx="11.5"/><path fill="#435C35" d="M62.772 15.422V24h-1.084v-7.225l-2.186.797v-.978l3.1-1.172h.17zM117.975 21.129v.89h-6.164v-.638l3.82-5.912h.885l-.95 1.71-2.525 3.95h4.934zm-1.19-5.66V24h-1.084v-8.531h1.084zm7.529 3.586v1.3c0 .7-.062 1.29-.187 1.77s-.305.867-.539 1.16a2.051 2.051 0 0 1-.85.639 3.023 3.023 0 0 1-1.113.193c-.328 0-.631-.04-.908-.123a2.145 2.145 0 0 1-.75-.392 2.39 2.39 0 0 1-.563-.715 3.842 3.842 0 0 1-.357-1.067 7.687 7.687 0 0 1-.123-1.465v-1.3c0-.7.062-1.285.187-1.758.129-.473.311-.852.545-1.137.235-.289.516-.496.844-.62a3.139 3.139 0 0 1 1.113-.188c.332 0 .637.04.914.123a2.053 2.053 0 0 1 1.307 1.072c.156.285.275.635.357 1.049.082.414.123.9.123 1.459zm-1.089 1.476v-1.658c0-.383-.024-.719-.071-1.008a3.168 3.168 0 0 0-.193-.75 1.481 1.481 0 0 0-.328-.504 1.158 1.158 0 0 0-.451-.28 1.625 1.625 0 0 0-.569-.095c-.258 0-.486.05-.685.147a1.236 1.236 0 0 0-.504.451c-.133.207-.235.479-.305.814-.07.336-.105.745-.105 1.225v1.658c0 .383.021.721.064 1.014.047.293.115.547.205.762.09.21.199.384.328.521s.278.238.446.305c.172.062.361.094.568.094.266 0 .498-.051.697-.153.199-.101.366-.26.498-.474.137-.22.239-.498.305-.838.066-.344.1-.754.1-1.23zm7.839-1.476v1.3c0 .7-.062 1.29-.187 1.77s-.305.867-.539 1.16a2.051 2.051 0 0 1-.85.639 3.023 3.023 0 0 1-1.113.193c-.328 0-.631-.04-.908-.123a2.145 2.145 0 0 1-.75-.392 2.39 2.39 0 0 1-.563-.715 3.842 3.842 0 0 1-.357-1.067 7.687 7.687 0 0 1-.123-1.465v-1.3c0-.7.062-1.285.187-1.758.129-.473.311-.852.545-1.137.235-.289.516-.496.844-.62a3.139 3.139 0 0 1 1.113-.188c.332 0 .637.04.914.123a2.053 2.053 0 0 1 1.307 1.072c.156.285.275.635.357 1.049.082.414.123.9.123 1.459zm-1.089 1.476v-1.658c0-.383-.024-.719-.071-1.008a3.168 3.168 0 0 0-.193-.75 1.481 1.481 0 0 0-.328-.504 1.158 1.158 0 0 0-.451-.28 1.625 1.625 0 0 0-.569-.095c-.258 0-.486.05-.685.147a1.236 1.236 0 0 0-.504.451c-.133.207-.235.479-.305.814-.07.336-.105.745-.105 1.225v1.658c0 .383.021.721.064 1.014.047.293.115.547.205.762.09.21.199.384.328.521s.278.238.446.305c.172.062.361.094.568.094.266 0 .498-.051.697-.153.199-.101.366-.26.498-.474.137-.22.239-.498.305-.838.066-.344.1-.754.1-1.23zM165.791 19.201h.773c.379 0 .692-.062.938-.187a1.29 1.29 0 0 0 .557-.522c.125-.223.187-.473.187-.75 0-.328-.055-.603-.164-.826a1.095 1.095 0 0 0-.492-.504c-.219-.113-.496-.17-.832-.17-.305 0-.574.06-.809.182-.23.117-.412.285-.545.504a1.495 1.495 0 0 0-.193.773h-1.084c0-.433.109-.828.328-1.183.219-.356.525-.64.92-.85.398-.211.859-.316 1.383-.316.515 0 .967.091 1.353.275.387.18.688.45.903.809.215.355.322.798.322 1.33 0 .215-.051.445-.152.691a2.05 2.05 0 0 1-.463.68 2.39 2.39 0 0 1-.809.521c-.332.133-.73.2-1.195.2h-.926V19.2zm0 .89v-.65h.926c.543 0 .992.065 1.347.194.356.129.635.3.838.515.207.215.352.452.434.71.086.253.129.507.129.761 0 .399-.069.752-.205 1.06-.133.31-.322.571-.569.786a2.427 2.427 0 0 1-.855.486c-.328.11-.686.164-1.072.164-.371 0-.721-.053-1.049-.158a2.718 2.718 0 0 1-.861-.457 2.133 2.133 0 0 1-.586-.744 2.335 2.335 0 0 1-.211-1.014h1.084c0 .297.064.557.193.78.133.222.32.396.562.52.247.122.536.183.868.183.332 0 .617-.057.855-.17.242-.117.428-.293.557-.528.133-.234.199-.529.199-.884 0-.356-.074-.647-.223-.873-.148-.231-.359-.4-.632-.51a2.458 2.458 0 0 0-.956-.17h-.773zm6.539-.152-.867-.222.428-4.248h4.377v1.002h-3.457l-.258 2.32c.156-.09.353-.174.592-.252.242-.078.519-.117.832-.117.394 0 .748.068 1.06.205.313.133.578.324.797.574.223.25.393.551.51.902.117.352.176.745.176 1.178 0 .41-.057.787-.17 1.131-.11.344-.276.645-.498.902a2.243 2.243 0 0 1-.844.592c-.336.14-.733.211-1.19.211-.343 0-.67-.047-.978-.14a2.513 2.513 0 0 1-.82-.44 2.365 2.365 0 0 1-.586-.738 2.95 2.95 0 0 1-.282-1.043h1.032c.046.32.14.59.281.808.14.22.324.385.551.498.23.11.498.165.802.165.258 0 .487-.045.686-.135.199-.09.367-.219.504-.387s.24-.371.31-.61c.075-.238.112-.505.112-.802 0-.27-.037-.52-.112-.75a1.704 1.704 0 0 0-.334-.604 1.457 1.457 0 0 0-.533-.398 1.711 1.711 0 0 0-.726-.146c-.364 0-.639.048-.827.146-.183.098-.373.23-.568.398zm10.734-.884v1.3c0 .7-.062 1.29-.187 1.77s-.305.867-.539 1.16a2.051 2.051 0 0 1-.85.639 3.023 3.023 0 0 1-1.113.193c-.328 0-.631-.04-.908-.123a2.145 2.145 0 0 1-.75-.392 2.39 2.39 0 0 1-.563-.715 3.842 3.842 0 0 1-.357-1.067 7.687 7.687 0 0 1-.123-1.465v-1.3c0-.7.062-1.285.187-1.758.129-.473.311-.852.545-1.137.235-.289.516-.496.844-.62a3.139 3.139 0 0 1 1.113-.188c.332 0 .637.04.914.123a2.053 2.053 0 0 1 1.307 1.072c.156.285.275.635.357 1.049.082.414.123.9.123 1.459zm-1.089 1.476v-1.658c0-.383-.024-.719-.071-1.008a3.168 3.168 0 0 0-.193-.75 1.481 1.481 0 0 0-.328-.504 1.158 1.158 0 0 0-.451-.28 1.625 1.625 0 0 0-.569-.095c-.258 0-.486.05-.685.147a1.236 1.236 0 0 0-.504.451c-.133.207-.235.479-.305.814-.07.336-.105.745-.105 1.225v1.658c0 .383.021.721.064 1.014.047.293.115.547.205.762.09.21.199.384.328.521s.278.238.446.305c.172.062.361.094.568.094.266 0 .498-.051.697-.153.199-.101.366-.26.498-.474.137-.22.239-.498.305-.838.066-.344.1-.754.1-1.23zm2.619 2.895a.66.66 0 0 1 .17-.463c.117-.129.285-.194.504-.194.218 0 .384.065.498.194.117.125.175.28.175.463 0 .18-.058.332-.175.457-.114.125-.28.187-.498.187-.219 0-.387-.062-.504-.187a.653.653 0 0 1-.17-.457zm8.543-7.957v.61L189.604 24h-1.143l3.527-7.64h-4.617v-.891h5.766zm2.818 3.732h.774c.378 0 .691-.062.937-.187a1.29 1.29 0 0 0 .557-.522c.125-.223.187-.473.187-.75 0-.328-.055-.603-.164-.826a1.095 1.095 0 0 0-.492-.504c-.219-.113-.496-.17-.832-.17-.305 0-.574.06-.809.182-.23.117-.412.285-.545.504a1.495 1.495 0 0 0-.193.773h-1.084c0-.433.109-.828.328-1.183.219-.356.526-.64.92-.85.399-.211.859-.316 1.383-.316.516 0 .967.091 1.353.275.387.18.688.45.903.809.215.355.322.798.322 1.33 0 .215-.051.445-.152.691a2.05 2.05 0 0 1-.463.68 2.39 2.39 0 0 1-.809.521c-.332.133-.73.2-1.195.2h-.926V19.2zm0 .89v-.65h.926c.543 0 .992.065 1.348.194.355.129.634.3.837.515.207.215.352.452.434.71.086.253.129.507.129.761 0 .399-.068.752-.205 1.06-.133.31-.322.571-.569.786a2.427 2.427 0 0 1-.855.486c-.328.11-.686.164-1.072.164-.371 0-.721-.053-1.049-.158a2.718 2.718 0 0 1-.861-.457 2.133 2.133 0 0 1-.586-.744 2.335 2.335 0 0 1-.211-1.014h1.084c0 .297.064.557.193.78.133.222.32.396.563.52.246.122.535.183.867.183.332 0 .617-.057.855-.17.242-.117.428-.293.557-.528.133-.234.199-.529.199-.884 0-.356-.074-.647-.223-.873-.148-.231-.359-.4-.632-.51a2.456 2.456 0 0 0-.955-.17h-.774z" opacity=".9"/><path fill="#435C35" d="M242 26.666a6.667 6.667 0 1 1 0-13.333 6.667 6.667 0 0 1 0 13.333zm-.665-4 4.713-4.714-.942-.942-3.771 3.771-1.886-1.886-.943.943 2.829 2.828z"/><path fill="#435C35" d="M278.064 19.055v1.3c0 .7-.062 1.29-.187 1.77s-.305.867-.539 1.16a2.051 2.051 0 0 1-.85.639 3.023 3.023 0 0 1-1.113.193c-.328 0-.631-.04-.908-.123a2.145 2.145 0 0 1-.75-.392 2.39 2.39 0 0 1-.563-.715 3.842 3.842 0 0 1-.357-1.067 7.687 7.687 0 0 1-.123-1.465v-1.3c0-.7.062-1.285.187-1.758.129-.473.311-.852.545-1.137.235-.289.516-.496.844-.62a3.139 3.139 0 0 1 1.113-.188c.332 0 .637.04.914.123a2.053 2.053 0 0 1 1.307 1.072c.156.285.275.635.357 1.049.082.414.123.9.123 1.459zm-1.089 1.476v-1.658c0-.383-.024-.719-.071-1.008a3.168 3.168 0 0 0-.193-.75 1.481 1.481 0 0 0-.328-.504 1.158 1.158 0 0 0-.451-.28 1.625 1.625 0 0 0-.569-.095c-.258 0-.486.05-.685.147a1.236 1.236 0 0 0-.504.451c-.133.207-.235.479-.305.814-.07.336-.105.745-.105 1.225v1.658c0 .383.021.721.064 1.014.047.293.115.547.205.762.09.21.199.384.328.521s.278.238.446.305c.172.062.361.094.568.094.266 0 .498-.051.697-.153.199-.101.366-.26.498-.474.137-.22.239-.498.305-.838.066-.344.1-.754.1-1.23zm6.046-5.11V24h-1.083v-7.225l-2.186.797v-.978l3.1-1.172h.169zm5.561 4.507v.89h-2.859v-.89h2.859zm2.356-4.46V24h-1.131v-8.531h1.131zm3.574 3.839v.925h-3.821v-.925h3.821zm.58-3.838v.926h-4.401v-.926h4.401zm3.685 8.648a3.12 3.12 0 0 1-1.201-.223 2.73 2.73 0 0 1-.92-.638 2.845 2.845 0 0 1-.586-.973 3.585 3.585 0 0 1-.205-1.23v-.246c0-.516.076-.975.229-1.377a3.07 3.07 0 0 1 .621-1.032c.262-.28.558-.494.89-.638a2.562 2.562 0 0 1 1.032-.217c.453 0 .843.078 1.172.234.332.157.603.375.814.657.211.277.367.605.469.984.101.375.152.785.152 1.23v.487h-4.734v-.885h3.65v-.082a2.672 2.672 0 0 0-.176-.82 1.475 1.475 0 0 0-.468-.657c-.215-.171-.508-.257-.879-.257a1.477 1.477 0 0 0-1.213.615 2.29 2.29 0 0 0-.346.744c-.082.293-.123.63-.123 1.014v.246c0 .3.041.584.123.85.086.261.209.492.369.69.164.2.362.356.592.47.234.113.5.17.797.17.383 0 .707-.079.973-.235.265-.156.498-.365.697-.627l.656.522c-.137.207-.31.404-.521.591-.211.188-.471.34-.78.457-.304.118-.666.176-1.084.176zM302.504 15h1.09v7.77L303.5 24h-.996v-9zm5.373 5.777v.123c0 .461-.055.89-.164 1.284-.109.39-.27.73-.481 1.02-.211.288-.468.513-.773.673-.305.16-.654.24-1.049.24-.402 0-.756-.068-1.06-.205a2.083 2.083 0 0 1-.762-.603 3.12 3.12 0 0 1-.498-.95 5.996 5.996 0 0 1-.252-1.254v-.539c.047-.468.131-.888.252-1.26a3.12 3.12 0 0 1 .498-.949c.207-.265.461-.466.762-.603.3-.14.65-.211 1.048-.211.399 0 .752.078 1.061.234.309.153.566.371.773.657.211.285.372.627.481 1.025.109.395.164.834.164 1.318zm-1.09.123v-.123c0-.316-.029-.613-.088-.89a2.292 2.292 0 0 0-.281-.739 1.402 1.402 0 0 0-.51-.503c-.211-.125-.47-.188-.779-.188a1.69 1.69 0 0 0-.715.14c-.199.094-.369.221-.51.381-.14.157-.256.336-.345.54-.086.199-.151.406-.194.62v1.413c.063.273.164.537.305.79.144.25.336.456.574.616.242.16.541.24.897.24a1.5 1.5 0 0 0 .75-.175c.211-.122.38-.288.509-.499.133-.21.231-.455.293-.732.063-.277.094-.574.094-.89zm4.717-.972v.89h-2.859v-.89h2.859zm6.533 3.181V24h-5.584v-.78l2.795-3.11c.344-.383.609-.708.797-.973.191-.27.324-.51.398-.721a1.91 1.91 0 0 0 .118-.656c0-.282-.059-.535-.176-.762a1.32 1.32 0 0 0-.504-.55 1.517 1.517 0 0 0-.809-.206c-.379 0-.695.074-.949.223a1.37 1.37 0 0 0-.562.61 2.07 2.07 0 0 0-.188.902h-1.084c0-.48.106-.92.316-1.319.211-.398.524-.715.938-.949.414-.238.924-.357 1.529-.357.539 0 1 .095 1.383.287.383.187.676.453.879.797.207.34.311.738.311 1.195 0 .25-.043.504-.129.762a3.891 3.891 0 0 1-.346.761 6.002 6.002 0 0 1-.51.75 11.44 11.44 0 0 1-.615.727l-2.285 2.478h4.277zm6.75 0V24h-5.584v-.78l2.795-3.11c.344-.383.609-.708.797-.973.191-.27.324-.51.398-.721a1.91 1.91 0 0 0 .118-.656c0-.282-.059-.535-.176-.762a1.32 1.32 0 0 0-.504-.55 1.517 1.517 0 0 0-.809-.206c-.379 0-.695.074-.949.223a1.37 1.37 0 0 0-.562.61 2.07 2.07 0 0 0-.188.902h-1.084c0-.48.106-.92.316-1.319.211-.398.524-.715.938-.949.414-.238.924-.357 1.529-.357.539 0 1 .095 1.383.287.383.187.676.453.879.797.207.34.311.738.311 1.195 0 .25-.043.504-.129.762a3.891 3.891 0 0 1-.346.761 6.002 6.002 0 0 1-.51.75 11.44 11.44 0 0 1-.615.727l-2.285 2.478h4.277zm7.699-7.687V24h-1.084v-7.225l-2.185.797v-.978l3.099-1.172h.17zm7.348.035h.094v.92h-.094c-.574 0-1.055.094-1.441.281a2.352 2.352 0 0 0-.92.744 3.058 3.058 0 0 0-.493 1.043c-.097.387-.146.78-.146 1.178v1.254c0 .379.045.715.135 1.008.09.289.213.533.369.732.156.2.332.35.527.451.199.102.406.153.621.153.25 0 .473-.047.668-.14.196-.099.36-.233.492-.405.137-.176.241-.383.311-.621.07-.239.105-.5.105-.785 0-.254-.031-.498-.093-.733a1.96 1.96 0 0 0-.287-.633 1.376 1.376 0 0 0-1.172-.603c-.301 0-.582.074-.844.222a1.92 1.92 0 0 0-.639.575 1.55 1.55 0 0 0-.281.767l-.574-.006c.055-.437.156-.81.305-1.119.152-.312.339-.566.562-.761.227-.2.479-.344.756-.434.281-.094.578-.14.891-.14.425 0 .793.08 1.101.24.309.16.563.375.762.644.199.266.346.566.439.902.098.332.147.674.147 1.026 0 .402-.057.78-.17 1.13-.113.352-.283.66-.51.926a2.299 2.299 0 0 1-.826.622 2.747 2.747 0 0 1-1.143.222c-.461 0-.863-.094-1.207-.281a2.586 2.586 0 0 1-.855-.762 3.458 3.458 0 0 1-.51-1.055 4.179 4.179 0 0 1-.17-1.177v-.51c0-.602.061-1.191.182-1.77.121-.578.33-1.101.627-1.57a3.218 3.218 0 0 1 1.248-1.119c.531-.277 1.209-.416 2.033-.416zm2.66 7.969c0-.184.057-.338.17-.463.117-.129.285-.194.504-.194.219 0 .385.065.498.194.117.125.176.28.176.463 0 .18-.059.332-.176.457-.113.125-.279.187-.498.187-.219 0-.387-.062-.504-.187a.657.657 0 0 1-.17-.457zm.006-5.174c0-.184.057-.338.17-.463.117-.129.285-.193.504-.193.219 0 .385.064.498.193.117.125.176.28.176.463 0 .18-.059.332-.176.457-.113.125-.279.188-.498.188-.219 0-.387-.063-.504-.188a.658.658 0 0 1-.17-.457zm8.186.803v1.3c0 .7-.063 1.29-.188 1.77s-.305.867-.539 1.16a2.051 2.051 0 0 1-.85.639 3.023 3.023 0 0 1-1.113.193c-.328 0-.631-.04-.908-.123a2.163 2.163 0 0 1-.75-.392 2.39 2.39 0 0 1-.563-.715 3.842 3.842 0 0 1-.357-1.067 7.687 7.687 0 0 1-.123-1.465v-1.3c0-.7.062-1.285.187-1.758.129-.473.311-.852.545-1.137.235-.289.516-.496.844-.62a3.139 3.139 0 0 1 1.113-.188c.332 0 .637.04.914.123a2.053 2.053 0 0 1 1.307 1.072c.156.285.275.635.357 1.049.083.414.124.9.124 1.459zm-1.09 1.476v-1.658c0-.383-.024-.719-.071-1.008a3.168 3.168 0 0 0-.193-.75 1.481 1.481 0 0 0-.328-.504 1.158 1.158 0 0 0-.451-.28 1.625 1.625 0 0 0-.569-.095c-.257 0-.486.05-.685.147a1.236 1.236 0 0 0-.504.451c-.133.207-.234.479-.305.814-.07.336-.105.745-.105 1.225v1.658c0 .383.021.721.064 1.014.047.293.115.547.205.762.09.21.2.384.328.521.129.137.278.238.446.305.172.062.361.094.568.094.266 0 .498-.051.697-.153.2-.101.366-.26.498-.474.137-.22.239-.498.305-.838.066-.344.1-.754.1-1.23zm7.84-1.476v1.3c0 .7-.063 1.29-.188 1.77s-.305.867-.539 1.16a2.051 2.051 0 0 1-.85.639 3.023 3.023 0 0 1-1.113.193c-.328 0-.631-.04-.908-.123a2.163 2.163 0 0 1-.75-.392 2.39 2.39 0 0 1-.563-.715 3.842 3.842 0 0 1-.357-1.067 7.687 7.687 0 0 1-.123-1.465v-1.3c0-.7.062-1.285.187-1.758.129-.473.311-.852.545-1.137.235-.289.516-.496.844-.62a3.139 3.139 0 0 1 1.113-.188c.332 0 .637.04.914.123a2.053 2.053 0 0 1 1.307 1.072c.156.285.275.635.357 1.049.083.414.124.9.124 1.459zm-1.09 1.476v-1.658c0-.383-.024-.719-.071-1.008a3.168 3.168 0 0 0-.193-.75 1.481 1.481 0 0 0-.328-.504 1.158 1.158 0 0 0-.451-.28 1.625 1.625 0 0 0-.569-.095c-.257 0-.486.05-.685.147a1.236 1.236 0 0 0-.504.451c-.133.207-.234.479-.305.814-.07.336-.105.745-.105 1.225v1.658c0 .383.021.721.064 1.014.047.293.115.547.205.762.09.21.2.384.328.521.129.137.278.238.446.305.172.062.361.094.568.094.266 0 .498-.051.697-.153.2-.101.366-.26.498-.474.137-.22.239-.498.305-.838.066-.344.1-.754.1-1.23zm10.623-5.062h1.125v5.771c0 .64-.143 1.174-.428 1.6a2.669 2.669 0 0 1-1.137.96 3.68 3.68 0 0 1-1.529.317 3.782 3.782 0 0 1-1.57-.316 2.574 2.574 0 0 1-1.108-.961c-.269-.426-.404-.96-.404-1.6V15.47h1.119v5.771c0 .446.082.813.246 1.102.164.289.393.504.686.644.297.141.64.211 1.031.211.395 0 .738-.07 1.031-.21.297-.141.528-.356.692-.645.164-.29.246-.656.246-1.102V15.47zm6.052 0V24h-1.113v-8.531h1.113zm2.743 0v.926h-6.592v-.926h6.592zm6.252 5.818h1.125a3.595 3.595 0 0 1-.463 1.447c-.25.426-.604.764-1.061 1.014-.457.246-1.027.37-1.711.37-.5 0-.955-.095-1.365-.282a3.037 3.037 0 0 1-1.049-.797 3.745 3.745 0 0 1-.68-1.248 5.335 5.335 0 0 1-.234-1.629v-.85c0-.597.078-1.138.234-1.623.161-.488.389-.906.686-1.253a3.06 3.06 0 0 1 1.084-.803 3.472 3.472 0 0 1 1.424-.281c.644 0 1.189.12 1.635.363.445.242.791.578 1.037 1.008.25.425.404.92.463 1.482h-1.125a3.153 3.153 0 0 0-.305-1.025 1.584 1.584 0 0 0-.633-.668c-.273-.157-.631-.235-1.072-.235-.379 0-.713.073-1.002.217-.285.145-.525.35-.721.615a2.857 2.857 0 0 0-.433.955 4.84 4.84 0 0 0-.147 1.237v.861c0 .418.043.81.129 1.178.09.367.225.69.404.967.18.277.409.496.686.656.277.156.605.234.984.234.481 0 .864-.076 1.149-.228.285-.153.5-.371.644-.657.149-.285.254-.627.317-1.025zM494.291 19.201h.773c.379 0 .692-.062.938-.187a1.29 1.29 0 0 0 .557-.522c.125-.223.187-.473.187-.75 0-.328-.055-.603-.164-.826a1.095 1.095 0 0 0-.492-.504c-.219-.113-.496-.17-.832-.17-.305 0-.574.06-.809.182-.23.117-.412.285-.545.504a1.495 1.495 0 0 0-.193.773h-1.084c0-.433.109-.828.328-1.183.219-.356.525-.64.92-.85.398-.211.859-.316 1.383-.316.515 0 .967.091 1.353.275.387.18.688.45.903.809.215.355.322.798.322 1.33 0 .215-.051.445-.152.691a2.05 2.05 0 0 1-.463.68 2.39 2.39 0 0 1-.809.521c-.332.133-.73.2-1.195.2h-.926V19.2zm0 .89v-.65h.926c.543 0 .992.065 1.347.194.356.129.635.3.838.515.207.215.352.452.434.71.086.253.129.507.129.761 0 .399-.069.752-.205 1.06-.133.31-.322.571-.569.786a2.427 2.427 0 0 1-.855.486c-.328.11-.686.164-1.072.164-.371 0-.721-.053-1.049-.158a2.718 2.718 0 0 1-.861-.457 2.133 2.133 0 0 1-.586-.744 2.335 2.335 0 0 1-.211-1.014h1.084c0 .297.064.557.193.78.133.222.32.396.562.52.247.122.536.183.868.183.332 0 .617-.057.855-.17.242-.117.428-.293.557-.528.133-.234.199-.529.199-.884 0-.356-.074-.647-.223-.873-.148-.231-.359-.4-.632-.51a2.458 2.458 0 0 0-.956-.17h-.773zm6.539-.152-.867-.222.428-4.248h4.377v1.002h-3.457l-.258 2.32c.156-.09.353-.174.592-.252.242-.078.519-.117.832-.117.394 0 .748.068 1.06.205.313.133.578.324.797.574.223.25.393.551.51.902.117.352.176.745.176 1.178 0 .41-.057.787-.17 1.131-.11.344-.276.645-.498.902a2.243 2.243 0 0 1-.844.592c-.336.14-.733.211-1.19.211-.343 0-.67-.047-.978-.14a2.513 2.513 0 0 1-.82-.44 2.365 2.365 0 0 1-.586-.738 2.95 2.95 0 0 1-.282-1.043h1.032c.046.32.14.59.281.808.14.22.324.385.551.498.23.11.498.165.802.165.258 0 .487-.045.686-.135.199-.09.367-.219.504-.387s.24-.371.31-.61c.075-.238.112-.505.112-.802 0-.27-.037-.52-.112-.75a1.704 1.704 0 0 0-.334-.604 1.457 1.457 0 0 0-.533-.398 1.711 1.711 0 0 0-.726-.146c-.364 0-.639.048-.827.146-.183.098-.373.23-.568.398zm10.734-.884v1.3c0 .7-.062 1.29-.187 1.77s-.305.867-.539 1.16a2.051 2.051 0 0 1-.85.639 3.023 3.023 0 0 1-1.113.193c-.328 0-.631-.04-.908-.123a2.145 2.145 0 0 1-.75-.392 2.39 2.39 0 0 1-.563-.715 3.842 3.842 0 0 1-.357-1.067 7.687 7.687 0 0 1-.123-1.465v-1.3c0-.7.062-1.285.187-1.758.129-.473.311-.852.545-1.137.235-.289.516-.496.844-.62a3.139 3.139 0 0 1 1.113-.188c.332 0 .637.04.914.123a2.053 2.053 0 0 1 1.307 1.072c.156.285.275.635.357 1.049.082.414.123.9.123 1.459zm-1.089 1.476v-1.658c0-.383-.024-.719-.071-1.008a3.168 3.168 0 0 0-.193-.75 1.481 1.481 0 0 0-.328-.504 1.158 1.158 0 0 0-.451-.28 1.625 1.625 0 0 0-.569-.095c-.258 0-.486.05-.685.147a1.236 1.236 0 0 0-.504.451c-.133.207-.235.479-.305.814-.07.336-.105.745-.105 1.225v1.658c0 .383.021.721.064 1.014.047.293.115.547.205.762.09.21.199.384.328.521s.278.238.446.305c.172.062.361.094.568.094.266 0 .498-.051.697-.153.199-.101.366-.26.498-.474.137-.22.239-.498.305-.838.066-.344.1-.754.1-1.23zm2.619 2.895a.66.66 0 0 1 .17-.463c.117-.129.285-.194.504-.194.218 0 .384.065.498.194.117.125.175.28.175.463 0 .18-.058.332-.175.457-.114.125-.28.187-.498.187-.219 0-.387-.062-.504-.187a.653.653 0 0 1-.17-.457zm8.543-7.957v.61L518.104 24h-1.143l3.527-7.64h-4.617v-.891h5.766zm2.818 3.732h.774c.378 0 .691-.062.937-.187a1.29 1.29 0 0 0 .557-.522c.125-.223.187-.473.187-.75 0-.328-.055-.603-.164-.826a1.095 1.095 0 0 0-.492-.504c-.219-.113-.496-.17-.832-.17-.305 0-.574.06-.809.182-.23.117-.412.285-.545.504a1.495 1.495 0 0 0-.193.773h-1.084c0-.433.109-.828.328-1.183.219-.356.526-.64.92-.85.399-.211.859-.316 1.383-.316.516 0 .967.091 1.353.275.387.18.688.45.903.809.215.355.322.798.322 1.33 0 .215-.051.445-.152.691a2.05 2.05 0 0 1-.463.68 2.39 2.39 0 0 1-.809.521c-.332.133-.73.2-1.195.2h-.926V19.2zm0 .89v-.65h.926c.543 0 .992.065 1.348.194.355.129.634.3.837.515.207.215.352.452.434.71.086.253.129.507.129.761 0 .399-.068.752-.205 1.06-.133.31-.322.571-.569.786a2.427 2.427 0 0 1-.855.486c-.328.11-.686.164-1.072.164-.371 0-.721-.053-1.049-.158a2.718 2.718 0 0 1-.861-.457 2.133 2.133 0 0 1-.586-.744 2.335 2.335 0 0 1-.211-1.014h1.084c0 .297.064.557.193.78.133.222.32.396.563.52.246.122.535.183.867.183.332 0 .617-.057.855-.17.242-.117.428-.293.557-.528.133-.234.199-.529.199-.884 0-.356-.074-.647-.223-.873-.148-.231-.359-.4-.632-.51a2.456 2.456 0 0 0-.955-.17h-.774zM551.41 23.08V24h-4.517v-.92h4.517zm-4.289-7.611V24h-1.131v-8.531h1.131zm3.691 3.668v.92h-3.919v-.92h3.919zm.54-3.668v.926h-4.459v-.926h4.459zm6.339 0h1.125v5.771c0 .64-.142 1.174-.427 1.6a2.669 2.669 0 0 1-1.137.96c-.469.212-.979.317-1.529.317a3.79 3.79 0 0 1-1.571-.316 2.571 2.571 0 0 1-1.107-.961c-.27-.426-.404-.96-.404-1.6V15.47h1.119v5.771c0 .446.082.813.246 1.102.164.289.392.504.685.644.297.141.641.211 1.032.211.394 0 .738-.07 1.031-.21a1.53 1.53 0 0 0 .691-.645c.164-.29.246-.656.246-1.102V15.47zm2.901 0h2.824c.641 0 1.182.097 1.623.293a2.16 2.16 0 0 1 1.014.867c.234.379.351.846.351 1.4 0 .39-.08.748-.24 1.073a2.28 2.28 0 0 1-.68.82 2.998 2.998 0 0 1-1.054.498l-.317.123h-2.654l-.012-.92h2.004c.406 0 .744-.07 1.014-.21a1.48 1.48 0 0 0 .609-.581c.137-.242.205-.51.205-.803a1.83 1.83 0 0 0-.193-.861 1.292 1.292 0 0 0-.609-.568c-.274-.137-.627-.206-1.061-.206h-1.693V24h-1.131v-8.531zM565.578 24l-2.074-3.867 1.178-.006 2.103 3.803V24h-1.207zM726.299 23.11V24h-5.584v-.78l2.795-3.11c.344-.383.609-.708.797-.973.191-.27.324-.51.398-.721a1.91 1.91 0 0 0 .117-.656c0-.282-.058-.535-.176-.762a1.318 1.318 0 0 0-.503-.55 1.519 1.519 0 0 0-.809-.206c-.379 0-.695.074-.949.223-.25.144-.438.348-.563.61a2.07 2.07 0 0 0-.187.902h-1.084c0-.48.105-.92.316-1.319.211-.398.524-.715.938-.949.414-.238.924-.357 1.529-.357.539 0 1 .095 1.383.287.383.187.676.453.879.797.207.34.31.738.31 1.195 0 .25-.043.504-.129.762a3.886 3.886 0 0 1-.345.761 6.002 6.002 0 0 1-.51.75c-.192.246-.397.489-.615.727l-2.286 2.478h4.278zm5.051-7.641-3.557 9.263h-.932l3.563-9.263h.926zm6.832 5.66v.89h-6.164v-.638l3.82-5.912h.885l-.95 1.71-2.525 3.95h4.934zm-1.19-5.66V24h-1.084v-8.531h1.084zM869.291 19.201h.773c.379 0 .692-.062.938-.187a1.29 1.29 0 0 0 .557-.522c.125-.223.187-.473.187-.75 0-.328-.055-.603-.164-.826a1.095 1.095 0 0 0-.492-.504c-.219-.113-.496-.17-.832-.17-.305 0-.574.06-.809.182-.23.117-.412.285-.545.504a1.495 1.495 0 0 0-.193.773h-1.084c0-.433.109-.828.328-1.183.219-.356.525-.64.92-.85.398-.211.859-.316 1.383-.316.515 0 .967.091 1.353.275.387.18.688.45.903.809.215.355.322.798.322 1.33 0 .215-.051.445-.152.691a2.05 2.05 0 0 1-.463.68 2.39 2.39 0 0 1-.809.521c-.332.133-.73.2-1.195.2h-.926V19.2zm0 .89v-.65h.926c.543 0 .992.065 1.347.194.356.129.635.3.838.515.207.215.352.452.434.71.086.253.129.507.129.761 0 .399-.069.752-.205 1.06-.133.31-.322.571-.569.786a2.427 2.427 0 0 1-.855.486c-.328.11-.686.164-1.072.164-.371 0-.721-.053-1.049-.158a2.718 2.718 0 0 1-.861-.457 2.133 2.133 0 0 1-.586-.744 2.335 2.335 0 0 1-.211-1.014h1.084c0 .297.064.557.193.78.133.222.32.396.562.52.247.122.536.183.868.183.332 0 .617-.057.855-.17.242-.117.428-.293.557-.528.133-.234.199-.529.199-.884 0-.356-.074-.647-.223-.873-.148-.231-.359-.4-.632-.51a2.458 2.458 0 0 0-.956-.17h-.773zm6.539-.152-.867-.222.428-4.248h4.377v1.002h-3.457l-.258 2.32c.156-.09.353-.174.592-.252.242-.078.519-.117.832-.117.394 0 .748.068 1.06.205.313.133.578.324.797.574.223.25.393.551.51.902.117.352.176.745.176 1.178 0 .41-.057.787-.17 1.131-.11.344-.276.645-.498.902a2.243 2.243 0 0 1-.844.592c-.336.14-.733.211-1.19.211-.343 0-.67-.047-.978-.14a2.513 2.513 0 0 1-.82-.44 2.365 2.365 0 0 1-.586-.738 2.95 2.95 0 0 1-.282-1.043h1.032c.046.32.14.59.281.808.14.22.324.385.551.498.23.11.498.165.802.165.258 0 .487-.045.686-.135.199-.09.367-.219.504-.387s.24-.371.31-.61c.075-.238.112-.505.112-.802 0-.27-.037-.52-.112-.75a1.704 1.704 0 0 0-.334-.604 1.457 1.457 0 0 0-.533-.398 1.711 1.711 0 0 0-.726-.146c-.364 0-.639.048-.827.146-.183.098-.373.23-.568.398zm10.734-.884v1.3c0 .7-.062 1.29-.187 1.77s-.305.867-.539 1.16a2.051 2.051 0 0 1-.85.639 3.023 3.023 0 0 1-1.113.193c-.328 0-.631-.04-.908-.123a2.145 2.145 0 0 1-.75-.392 2.39 2.39 0 0 1-.563-.715 3.842 3.842 0 0 1-.357-1.067 7.687 7.687 0 0 1-.123-1.465v-1.3c0-.7.062-1.285.187-1.758.129-.473.311-.852.545-1.137.235-.289.516-.496.844-.62a3.139 3.139 0 0 1 1.113-.188c.332 0 .637.04.914.123a2.053 2.053 0 0 1 1.307 1.072c.156.285.275.635.357 1.049.082.414.123.9.123 1.459zm-1.089 1.476v-1.658c0-.383-.024-.719-.071-1.008a3.168 3.168 0 0 0-.193-.75 1.481 1.481 0 0 0-.328-.504 1.158 1.158 0 0 0-.451-.28 1.625 1.625 0 0 0-.569-.095c-.258 0-.486.05-.685.147a1.236 1.236 0 0 0-.504.451c-.133.207-.235.479-.305.814-.07.336-.105.745-.105 1.225v1.658c0 .383.021.721.064 1.014.047.293.115.547.205.762.09.21.199.384.328.521s.278.238.446.305c.172.062.361.094.568.094.266 0 .498-.051.697-.153.199-.101.366-.26.498-.474.137-.22.239-.498.305-.838.066-.344.1-.754.1-1.23zm2.619 2.895a.66.66 0 0 1 .17-.463c.117-.129.285-.194.504-.194.218 0 .384.065.498.194.117.125.175.28.175.463 0 .18-.058.332-.175.457-.114.125-.28.187-.498.187-.219 0-.387-.062-.504-.187a.653.653 0 0 1-.17-.457zm8.543-7.957v.61L893.104 24h-1.143l3.527-7.64h-4.617v-.891h5.766zm2.818 3.732h.774c.378 0 .691-.062.937-.187a1.29 1.29 0 0 0 .557-.522c.125-.223.187-.473.187-.75 0-.328-.055-.603-.164-.826a1.095 1.095 0 0 0-.492-.504c-.219-.113-.496-.17-.832-.17-.305 0-.574.06-.809.182-.23.117-.412.285-.545.504a1.495 1.495 0 0 0-.193.773h-1.084c0-.433.109-.828.328-1.183.219-.356.526-.64.92-.85.399-.211.859-.316 1.383-.316.516 0 .967.091 1.353.275.387.18.688.45.903.809.215.355.322.798.322 1.33 0 .215-.051.445-.152.691a2.05 2.05 0 0 1-.463.68 2.39 2.39 0 0 1-.809.521c-.332.133-.73.2-1.195.2h-.926V19.2zm0 .89v-.65h.926c.543 0 .992.065 1.348.194.355.129.634.3.837.515.207.215.352.452.434.71.086.253.129.507.129.761 0 .399-.068.752-.205 1.06-.133.31-.322.571-.569.786a2.427 2.427 0 0 1-.855.486c-.328.11-.686.164-1.072.164-.371 0-.721-.053-1.049-.158a2.718 2.718 0 0 1-.861-.457 2.133 2.133 0 0 1-.586-.744 2.335 2.335 0 0 1-.211-1.014h1.084c0 .297.064.557.193.78.133.222.32.396.563.52.246.122.535.183.867.183.332 0 .617-.057.855-.17.242-.117.428-.293.557-.528.133-.234.199-.529.199-.884 0-.356-.074-.647-.223-.873-.148-.231-.359-.4-.632-.51a2.456 2.456 0 0 0-.955-.17h-.774z" opacity=".9"/><rect width="927" height="39" x=".5" y=".5" stroke="#86B869" rx="11.5"/></svg>