<svg width="928" height="40" viewBox="0 0 928 40" fill="none" xmlns="http://www.w3.org/2000/svg">
<rect width="928" height="40" rx="12" fill="white"/>
<rect x="16" y="12" width="16" height="16" rx="4" fill="#3F7BDA"/>
<path d="M22.6665 22.115L28.7945 15.9863L29.7378 16.929L22.6665 24.0003L18.4238 19.7577L19.3665 18.815L22.6665 22.115Z" fill="white"/>
<g opacity="0.9">
<path d="M64.249 22.2578V23H59.5957V22.3506L61.9248 19.7578C62.2113 19.4388 62.4326 19.1686 62.5889 18.9473C62.7484 18.7227 62.859 18.5225 62.9209 18.3467C62.986 18.1676 63.0186 17.9854 63.0186 17.7998C63.0186 17.5654 62.9697 17.3538 62.8721 17.165C62.7777 16.973 62.6377 16.82 62.4521 16.7061C62.2666 16.5921 62.042 16.5352 61.7783 16.5352C61.4626 16.5352 61.1989 16.597 60.9873 16.7207C60.779 16.8411 60.6227 17.0104 60.5186 17.2285C60.4144 17.4466 60.3623 17.6973 60.3623 17.9805H59.459C59.459 17.5801 59.5469 17.2139 59.7227 16.8818C59.8984 16.5498 60.1589 16.2861 60.5039 16.0908C60.849 15.8923 61.2738 15.793 61.7783 15.793C62.2275 15.793 62.6117 15.8727 62.9307 16.0322C63.2497 16.1885 63.4938 16.4098 63.6631 16.6963C63.8356 16.9795 63.9219 17.3115 63.9219 17.6924C63.9219 17.9007 63.8861 18.1123 63.8145 18.3271C63.7461 18.5387 63.6501 18.7503 63.5264 18.9619C63.4059 19.1735 63.2643 19.3818 63.1016 19.5869C62.9421 19.792 62.7712 19.9938 62.5889 20.1924L60.6846 22.2578H64.249Z" fill="#32375E"/>
</g>
<g opacity="0.9">
<path d="M118.896 20.6074V21.3496H113.759V20.8174L116.942 15.8906H117.68L116.889 17.3164L114.784 20.6074H118.896ZM117.904 15.8906V23H117.001V15.8906H117.904ZM124.179 18.8789V19.9629C124.179 20.5456 124.127 21.0371 124.022 21.4375C123.918 21.8379 123.769 22.1602 123.573 22.4043C123.378 22.6484 123.142 22.8258 122.865 22.9365C122.592 23.0439 122.283 23.0977 121.938 23.0977C121.664 23.0977 121.412 23.0635 121.181 22.9951C120.95 22.9268 120.741 22.8177 120.556 22.668C120.373 22.515 120.217 22.3164 120.087 22.0723C119.957 21.8281 119.857 21.5319 119.789 21.1836C119.721 20.8353 119.687 20.4284 119.687 19.9629V18.8789C119.687 18.2962 119.739 17.8079 119.843 17.4141C119.95 17.0202 120.102 16.7044 120.297 16.4668C120.492 16.2259 120.727 16.0534 121 15.9492C121.277 15.8451 121.586 15.793 121.928 15.793C122.204 15.793 122.458 15.8271 122.689 15.8955C122.924 15.9606 123.132 16.0664 123.314 16.2129C123.497 16.3561 123.651 16.5482 123.778 16.7891C123.909 17.0267 124.008 17.318 124.076 17.6631C124.145 18.0081 124.179 18.4134 124.179 18.8789ZM123.271 20.1094V18.7275C123.271 18.4085 123.251 18.1286 123.212 17.8877C123.176 17.6436 123.122 17.4352 123.051 17.2627C122.979 17.0902 122.888 16.9502 122.777 16.8428C122.67 16.7354 122.545 16.6572 122.401 16.6084C122.261 16.5563 122.104 16.5303 121.928 16.5303C121.713 16.5303 121.522 16.571 121.356 16.6523C121.19 16.7305 121.05 16.8558 120.937 17.0283C120.826 17.2008 120.741 17.4271 120.683 17.707C120.624 17.987 120.595 18.3271 120.595 18.7275V20.1094C120.595 20.4284 120.613 20.71 120.648 20.9541C120.688 21.1982 120.744 21.4098 120.819 21.5889C120.894 21.7646 120.985 21.9095 121.093 22.0234C121.2 22.1374 121.324 22.222 121.464 22.2773C121.607 22.3294 121.765 22.3555 121.938 22.3555C122.159 22.3555 122.353 22.3132 122.519 22.2285C122.685 22.1439 122.823 22.012 122.934 21.833C123.048 21.6507 123.132 21.418 123.188 21.1348C123.243 20.8483 123.271 20.5065 123.271 20.1094ZM128.31 15.8516V23H127.406V16.9795L125.585 17.6436V16.8281L128.168 15.8516H128.31Z" fill="#32375E"/>
</g>
<g opacity="0.9">
<path d="M168.409 19.001H169.054C169.369 19.001 169.63 18.9489 169.835 18.8447C170.043 18.7373 170.198 18.5924 170.299 18.4102C170.403 18.2246 170.455 18.0163 170.455 17.7852C170.455 17.5117 170.41 17.2822 170.318 17.0967C170.227 16.9111 170.09 16.7712 169.908 16.6768C169.726 16.5824 169.495 16.5352 169.215 16.5352C168.961 16.5352 168.736 16.5856 168.541 16.6865C168.349 16.7842 168.198 16.9242 168.087 17.1064C167.979 17.2887 167.926 17.5036 167.926 17.751H167.022C167.022 17.3896 167.114 17.0609 167.296 16.7646C167.478 16.4684 167.734 16.2324 168.062 16.0566C168.395 15.8809 168.779 15.793 169.215 15.793C169.645 15.793 170.021 15.8695 170.343 16.0225C170.665 16.1722 170.916 16.3968 171.095 16.6963C171.274 16.9925 171.363 17.362 171.363 17.8047C171.363 17.9837 171.321 18.1758 171.236 18.3809C171.155 18.5827 171.026 18.7715 170.851 18.9473C170.678 19.123 170.453 19.2679 170.177 19.3818C169.9 19.4925 169.568 19.5479 169.181 19.5479H168.409V19.001ZM168.409 19.7432V19.2012H169.181C169.633 19.2012 170.007 19.2549 170.304 19.3623C170.6 19.4697 170.833 19.613 171.002 19.792C171.174 19.971 171.295 20.168 171.363 20.3828C171.435 20.5944 171.471 20.806 171.471 21.0176C171.471 21.3496 171.414 21.6442 171.3 21.9014C171.189 22.1585 171.031 22.3766 170.826 22.5557C170.624 22.7347 170.387 22.8698 170.113 22.9609C169.84 23.0521 169.542 23.0977 169.22 23.0977C168.91 23.0977 168.619 23.0537 168.346 22.9658C168.076 22.8779 167.836 22.751 167.628 22.585C167.42 22.4157 167.257 22.209 167.14 21.9648C167.022 21.7174 166.964 21.4359 166.964 21.1201H167.867C167.867 21.3675 167.921 21.584 168.028 21.7695C168.139 21.9551 168.295 22.0999 168.497 22.2041C168.702 22.305 168.943 22.3555 169.22 22.3555C169.496 22.3555 169.734 22.3083 169.933 22.2139C170.134 22.1162 170.289 21.9697 170.396 21.7744C170.507 21.5791 170.562 21.3333 170.562 21.0371C170.562 20.7409 170.501 20.4984 170.377 20.3096C170.253 20.1175 170.077 19.9759 169.85 19.8848C169.625 19.7904 169.36 19.7432 169.054 19.7432H168.409ZM173.858 19.6162L173.136 19.4307L173.492 15.8906H177.14V16.7256H174.259L174.044 18.6592C174.174 18.5843 174.339 18.5143 174.537 18.4492C174.739 18.3841 174.97 18.3516 175.23 18.3516C175.559 18.3516 175.854 18.4085 176.114 18.5225C176.375 18.6331 176.596 18.7926 176.778 19.001C176.964 19.2093 177.105 19.46 177.203 19.7529C177.301 20.0459 177.35 20.373 177.35 20.7344C177.35 21.0762 177.302 21.3903 177.208 21.6768C177.117 21.9632 176.979 22.2139 176.793 22.4287C176.607 22.6403 176.373 22.8047 176.09 22.9219C175.81 23.0391 175.479 23.0977 175.099 23.0977C174.812 23.0977 174.54 23.0586 174.283 22.9805C174.029 22.8991 173.801 22.777 173.6 22.6143C173.401 22.4482 173.238 22.2432 173.111 21.999C172.988 21.7516 172.91 21.4619 172.877 21.1299H173.736C173.775 21.3968 173.854 21.6214 173.971 21.8037C174.088 21.986 174.241 22.1243 174.43 22.2188C174.622 22.3099 174.845 22.3555 175.099 22.3555C175.313 22.3555 175.504 22.318 175.67 22.2432C175.836 22.1683 175.976 22.0609 176.09 21.9209C176.204 21.7809 176.29 21.6117 176.349 21.4131C176.41 21.2145 176.441 20.9915 176.441 20.7441C176.441 20.5195 176.41 20.3112 176.349 20.1191C176.287 19.9271 176.194 19.7594 176.07 19.6162C175.95 19.473 175.802 19.3623 175.626 19.2842C175.45 19.2028 175.248 19.1621 175.021 19.1621C174.718 19.1621 174.488 19.2028 174.332 19.2842C174.179 19.3656 174.021 19.4762 173.858 19.6162ZM182.804 18.8789V19.9629C182.804 20.5456 182.752 21.0371 182.647 21.4375C182.543 21.8379 182.394 22.1602 182.198 22.4043C182.003 22.6484 181.767 22.8258 181.49 22.9365C181.217 23.0439 180.908 23.0977 180.562 23.0977C180.289 23.0977 180.037 23.0635 179.806 22.9951C179.575 22.9268 179.366 22.8177 179.181 22.668C178.998 22.515 178.842 22.3164 178.712 22.0723C178.582 21.8281 178.482 21.5319 178.414 21.1836C178.346 20.8353 178.312 20.4284 178.312 19.9629V18.8789C178.312 18.2962 178.364 17.8079 178.468 17.4141C178.575 17.0202 178.727 16.7044 178.922 16.4668C179.117 16.2259 179.352 16.0534 179.625 15.9492C179.902 15.8451 180.211 15.793 180.553 15.793C180.829 15.793 181.083 15.8271 181.314 15.8955C181.549 15.9606 181.757 16.0664 181.939 16.2129C182.122 16.3561 182.276 16.5482 182.403 16.7891C182.534 17.0267 182.633 17.318 182.701 17.6631C182.77 18.0081 182.804 18.4134 182.804 18.8789ZM181.896 20.1094V18.7275C181.896 18.4085 181.876 18.1286 181.837 17.8877C181.801 17.6436 181.747 17.4352 181.676 17.2627C181.604 17.0902 181.513 16.9502 181.402 16.8428C181.295 16.7354 181.17 16.6572 181.026 16.6084C180.886 16.5563 180.729 16.5303 180.553 16.5303C180.338 16.5303 180.147 16.571 179.981 16.6523C179.815 16.7305 179.675 16.8558 179.562 17.0283C179.451 17.2008 179.366 17.4271 179.308 17.707C179.249 17.987 179.22 18.3271 179.22 18.7275V20.1094C179.22 20.4284 179.238 20.71 179.273 20.9541C179.312 21.1982 179.369 21.4098 179.444 21.5889C179.519 21.7646 179.61 21.9095 179.718 22.0234C179.825 22.1374 179.949 22.222 180.089 22.2773C180.232 22.3294 180.39 22.3555 180.562 22.3555C180.784 22.3555 180.978 22.3132 181.144 22.2285C181.31 22.1439 181.448 22.012 181.559 21.833C181.673 21.6507 181.757 21.418 181.812 21.1348C181.868 20.8483 181.896 20.5065 181.896 20.1094ZM184.078 22.5215C184.078 22.3685 184.125 22.2399 184.22 22.1357C184.317 22.0283 184.457 21.9746 184.64 21.9746C184.822 21.9746 184.96 22.0283 185.055 22.1357C185.152 22.2399 185.201 22.3685 185.201 22.5215C185.201 22.6712 185.152 22.7982 185.055 22.9023C184.96 23.0065 184.822 23.0586 184.64 23.0586C184.457 23.0586 184.317 23.0065 184.22 22.9023C184.125 22.7982 184.078 22.6712 184.078 22.5215ZM191.197 15.8906V16.3984L188.253 23H187.301L190.24 16.6328H186.393V15.8906H191.197ZM193.546 19.001H194.19C194.506 19.001 194.767 18.9489 194.972 18.8447C195.18 18.7373 195.335 18.5924 195.436 18.4102C195.54 18.2246 195.592 18.0163 195.592 17.7852C195.592 17.5117 195.546 17.2822 195.455 17.0967C195.364 16.9111 195.227 16.7712 195.045 16.6768C194.863 16.5824 194.632 16.5352 194.352 16.5352C194.098 16.5352 193.873 16.5856 193.678 16.6865C193.486 16.7842 193.334 16.9242 193.224 17.1064C193.116 17.2887 193.062 17.5036 193.062 17.751H192.159C192.159 17.3896 192.25 17.0609 192.433 16.7646C192.615 16.4684 192.87 16.2324 193.199 16.0566C193.531 15.8809 193.915 15.793 194.352 15.793C194.781 15.793 195.157 15.8695 195.479 16.0225C195.802 16.1722 196.052 16.3968 196.231 16.6963C196.41 16.9925 196.5 17.362 196.5 17.8047C196.5 17.9837 196.458 18.1758 196.373 18.3809C196.292 18.5827 196.163 18.7715 195.987 18.9473C195.815 19.123 195.59 19.2679 195.313 19.3818C195.037 19.4925 194.705 19.5479 194.317 19.5479H193.546V19.001ZM193.546 19.7432V19.2012H194.317C194.77 19.2012 195.144 19.2549 195.44 19.3623C195.737 19.4697 195.969 19.613 196.139 19.792C196.311 19.971 196.432 20.168 196.5 20.3828C196.572 20.5944 196.607 20.806 196.607 21.0176C196.607 21.3496 196.55 21.6442 196.437 21.9014C196.326 22.1585 196.168 22.3766 195.963 22.5557C195.761 22.7347 195.523 22.8698 195.25 22.9609C194.977 23.0521 194.679 23.0977 194.356 23.0977C194.047 23.0977 193.756 23.0537 193.482 22.9658C193.212 22.8779 192.973 22.751 192.765 22.585C192.556 22.4157 192.394 22.209 192.276 21.9648C192.159 21.7174 192.101 21.4359 192.101 21.1201H193.004C193.004 21.3675 193.058 21.584 193.165 21.7695C193.276 21.9551 193.432 22.0999 193.634 22.2041C193.839 22.305 194.08 22.3555 194.356 22.3555C194.633 22.3555 194.871 22.3083 195.069 22.2139C195.271 22.1162 195.426 21.9697 195.533 21.7744C195.644 21.5791 195.699 21.3333 195.699 21.0371C195.699 20.7409 195.637 20.4984 195.514 20.3096C195.39 20.1175 195.214 19.9759 194.986 19.8848C194.762 19.7904 194.496 19.7432 194.19 19.7432H193.546Z" fill="#32375E"/>
</g>
<path d="M245.333 14.6663H248C248.176 14.6663 248.346 14.7366 248.471 14.8616C248.596 14.9866 248.666 15.1562 248.666 15.333V25.9997C248.666 26.1765 248.596 26.3461 248.471 26.4711C248.346 26.5961 248.176 26.6663 248 26.6663H236C235.823 26.6663 235.653 26.5961 235.528 26.4711C235.403 26.3461 235.333 26.1765 235.333 25.9997V15.333C235.333 15.1562 235.403 14.9866 235.528 14.8616C235.653 14.7366 235.823 14.6663 236 14.6663H238.666V13.333H240V14.6663H244V13.333H245.333V14.6663ZM247.333 18.6663V15.9997H245.333V17.333H244V15.9997H240V17.333H238.666V15.9997H236.666V18.6663H247.333ZM247.333 19.9997H236.666V25.333H247.333V19.9997ZM238 21.333H241.333V23.9997H238V21.333Z" fill="#8E959C"/>
<path d="M370.985 15.8906L372.831 19.46L374.682 15.8906H375.751L373.3 20.3438V23H372.357V20.3438L369.906 15.8906H370.985ZM378.397 23.0977C378.03 23.0977 377.696 23.0358 377.396 22.9121C377.1 22.7852 376.845 22.6077 376.63 22.3799C376.418 22.152 376.256 21.8818 376.142 21.5693C376.028 21.2568 375.971 20.915 375.971 20.5439V20.3389C375.971 19.9092 376.034 19.5267 376.161 19.1914C376.288 18.8529 376.461 18.5664 376.679 18.332C376.897 18.0977 377.144 17.9202 377.421 17.7998C377.698 17.6794 377.984 17.6191 378.28 17.6191C378.658 17.6191 378.983 17.6842 379.257 17.8145C379.534 17.9447 379.76 18.127 379.936 18.3613C380.111 18.5924 380.242 18.8659 380.326 19.1816C380.411 19.4941 380.453 19.8359 380.453 20.207V20.6123H376.508V19.875H379.55V19.8066C379.537 19.5723 379.488 19.3444 379.403 19.123C379.322 18.9017 379.192 18.7194 379.013 18.5762C378.834 18.4329 378.59 18.3613 378.28 18.3613C378.075 18.3613 377.886 18.4053 377.714 18.4932C377.541 18.5778 377.393 18.7048 377.27 18.874C377.146 19.0433 377.05 19.25 376.981 19.4941C376.913 19.7383 376.879 20.0199 376.879 20.3389V20.5439C376.879 20.7946 376.913 21.0306 376.981 21.252C377.053 21.4701 377.156 21.6621 377.289 21.8281C377.426 21.9941 377.59 22.1243 377.782 22.2188C377.978 22.3132 378.199 22.3604 378.446 22.3604C378.765 22.3604 379.035 22.2952 379.257 22.165C379.478 22.0348 379.672 21.8607 379.838 21.6426L380.385 22.0771C380.271 22.2497 380.126 22.4141 379.95 22.5703C379.774 22.7266 379.558 22.8535 379.301 22.9512C379.047 23.0488 378.746 23.0977 378.397 23.0977ZM384.584 21.5986C384.584 21.4684 384.555 21.348 384.496 21.2373C384.441 21.1234 384.325 21.0208 384.149 20.9297C383.977 20.8353 383.716 20.7539 383.368 20.6855C383.075 20.6237 382.81 20.5505 382.572 20.4658C382.338 20.3812 382.138 20.2786 381.972 20.1582C381.809 20.0378 381.684 19.8962 381.596 19.7334C381.508 19.5706 381.464 19.3802 381.464 19.1621C381.464 18.9538 381.509 18.7568 381.601 18.5713C381.695 18.3857 381.827 18.2214 381.996 18.0781C382.169 17.9349 382.375 17.8226 382.616 17.7412C382.857 17.6598 383.126 17.6191 383.422 17.6191C383.845 17.6191 384.206 17.694 384.506 17.8438C384.805 17.9935 385.035 18.1937 385.194 18.4443C385.354 18.6917 385.434 18.9668 385.434 19.2695H384.53C384.53 19.123 384.486 18.9814 384.398 18.8447C384.314 18.7048 384.188 18.5892 384.022 18.498C383.86 18.4069 383.66 18.3613 383.422 18.3613C383.171 18.3613 382.968 18.4004 382.812 18.4785C382.659 18.5534 382.546 18.6494 382.475 18.7666C382.406 18.8838 382.372 19.0075 382.372 19.1377C382.372 19.2354 382.388 19.3232 382.421 19.4014C382.457 19.4762 382.519 19.5462 382.606 19.6113C382.694 19.6732 382.818 19.7318 382.978 19.7871C383.137 19.8424 383.34 19.8978 383.588 19.9531C384.021 20.0508 384.377 20.168 384.657 20.3047C384.937 20.4414 385.146 20.609 385.282 20.8076C385.419 21.0062 385.487 21.2471 385.487 21.5303C385.487 21.7614 385.438 21.973 385.341 22.165C385.246 22.3571 385.108 22.5231 384.926 22.6631C384.747 22.7998 384.532 22.9072 384.281 22.9854C384.034 23.0602 383.756 23.0977 383.446 23.0977C382.981 23.0977 382.587 23.0146 382.265 22.8486C381.942 22.6826 381.698 22.4678 381.532 22.2041C381.366 21.9404 381.283 21.6621 381.283 21.3691H382.191C382.204 21.6165 382.276 21.8135 382.406 21.96C382.536 22.1032 382.696 22.2057 382.885 22.2676C383.074 22.3262 383.261 22.3555 383.446 22.3555C383.694 22.3555 383.9 22.3229 384.066 22.2578C384.236 22.1927 384.364 22.1032 384.452 21.9893C384.54 21.8753 384.584 21.7451 384.584 21.5986Z" fill="#32375E"/>
<g opacity="0.9">
<path d="M491.721 18.8789V19.9629C491.721 20.5456 491.669 21.0371 491.564 21.4375C491.46 21.8379 491.311 22.1602 491.115 22.4043C490.92 22.6484 490.684 22.8258 490.407 22.9365C490.134 23.0439 489.825 23.0977 489.479 23.0977C489.206 23.0977 488.954 23.0635 488.723 22.9951C488.492 22.9268 488.283 22.8177 488.098 22.668C487.915 22.515 487.759 22.3164 487.629 22.0723C487.499 21.8281 487.399 21.5319 487.331 21.1836C487.263 20.8353 487.229 20.4284 487.229 19.9629V18.8789C487.229 18.2962 487.281 17.8079 487.385 17.4141C487.492 17.0202 487.644 16.7044 487.839 16.4668C488.034 16.2259 488.269 16.0534 488.542 15.9492C488.819 15.8451 489.128 15.793 489.47 15.793C489.746 15.793 490 15.8271 490.231 15.8955C490.466 15.9606 490.674 16.0664 490.856 16.2129C491.039 16.3561 491.193 16.5482 491.32 16.7891C491.451 17.0267 491.55 17.318 491.618 17.6631C491.687 18.0081 491.721 18.4134 491.721 18.8789ZM490.812 20.1094V18.7275C490.812 18.4085 490.793 18.1286 490.754 17.8877C490.718 17.6436 490.664 17.4352 490.593 17.2627C490.521 17.0902 490.43 16.9502 490.319 16.8428C490.212 16.7354 490.087 16.6572 489.943 16.6084C489.803 16.5563 489.646 16.5303 489.47 16.5303C489.255 16.5303 489.064 16.571 488.898 16.6523C488.732 16.7305 488.592 16.8558 488.479 17.0283C488.368 17.2008 488.283 17.4271 488.225 17.707C488.166 17.987 488.137 18.3271 488.137 18.7275V20.1094C488.137 20.4284 488.155 20.71 488.19 20.9541C488.229 21.1982 488.286 21.4098 488.361 21.5889C488.436 21.7646 488.527 21.9095 488.635 22.0234C488.742 22.1374 488.866 22.222 489.006 22.2773C489.149 22.3294 489.307 22.3555 489.479 22.3555C489.701 22.3555 489.895 22.3132 490.061 22.2285C490.227 22.1439 490.365 22.012 490.476 21.833C490.59 21.6507 490.674 21.418 490.729 21.1348C490.785 20.8483 490.812 20.5065 490.812 20.1094ZM495.852 15.8516V23H494.948V16.9795L493.127 17.6436V16.8281L495.71 15.8516H495.852ZM500.485 19.6064V20.3486H498.103V19.6064H500.485ZM501.804 15.8906H502.717L505.046 21.6865L507.37 15.8906H508.288L505.397 23H504.685L501.804 15.8906ZM501.506 15.8906H502.312L502.443 20.2266V23H501.506V15.8906ZM507.775 15.8906H508.581V23H507.644V20.2266L507.775 15.8906ZM513.215 22.0967V19.377C513.215 19.1686 513.173 18.988 513.088 18.835C513.007 18.6787 512.883 18.5583 512.717 18.4736C512.551 18.389 512.346 18.3467 512.102 18.3467C511.874 18.3467 511.674 18.3857 511.501 18.4639C511.332 18.542 511.198 18.6445 511.101 18.7715C511.006 18.8984 510.959 19.0352 510.959 19.1816H510.056C510.056 18.9928 510.104 18.8057 510.202 18.6201C510.3 18.4346 510.44 18.2669 510.622 18.1172C510.808 17.9642 511.029 17.8438 511.286 17.7559C511.547 17.6647 511.836 17.6191 512.155 17.6191C512.539 17.6191 512.878 17.6842 513.171 17.8145C513.467 17.9447 513.698 18.1416 513.864 18.4053C514.034 18.6657 514.118 18.9928 514.118 19.3867V21.8477C514.118 22.0234 514.133 22.2106 514.162 22.4092C514.195 22.6077 514.242 22.7786 514.304 22.9219V23H513.361C513.316 22.8958 513.28 22.7575 513.254 22.585C513.228 22.4092 513.215 22.2464 513.215 22.0967ZM513.371 19.7969L513.381 20.4316H512.468C512.211 20.4316 511.981 20.4528 511.779 20.4951C511.577 20.5342 511.408 20.5944 511.271 20.6758C511.135 20.7572 511.031 20.8597 510.959 20.9834C510.887 21.1038 510.852 21.2454 510.852 21.4082C510.852 21.5742 510.889 21.7256 510.964 21.8623C511.039 21.999 511.151 22.1081 511.301 22.1895C511.454 22.2676 511.641 22.3066 511.862 22.3066C512.139 22.3066 512.383 22.248 512.595 22.1309C512.806 22.0137 512.974 21.8704 513.098 21.7012C513.225 21.5319 513.293 21.3675 513.303 21.208L513.688 21.6426C513.666 21.7793 513.604 21.9307 513.503 22.0967C513.402 22.2627 513.267 22.4222 513.098 22.5752C512.932 22.7249 512.733 22.8503 512.502 22.9512C512.274 23.0488 512.017 23.0977 511.73 23.0977C511.372 23.0977 511.058 23.0277 510.788 22.8877C510.521 22.7477 510.313 22.5605 510.163 22.3262C510.017 22.0885 509.943 21.8232 509.943 21.5303C509.943 21.2471 509.999 20.998 510.109 20.7832C510.22 20.5651 510.38 20.3844 510.588 20.2412C510.796 20.0947 511.047 19.984 511.34 19.9092C511.633 19.8343 511.96 19.7969 512.321 19.7969H513.371ZM516.442 18.5469V23H515.539V17.7168H516.418L516.442 18.5469ZM518.093 17.6875L518.088 18.5273C518.013 18.5111 517.941 18.5013 517.873 18.498C517.808 18.4915 517.733 18.4883 517.648 18.4883C517.44 18.4883 517.256 18.5208 517.097 18.5859C516.937 18.651 516.802 18.7422 516.691 18.8594C516.581 18.9766 516.493 19.1165 516.428 19.2793C516.366 19.4388 516.325 19.6146 516.306 19.8066L516.052 19.9531C516.052 19.6341 516.083 19.3346 516.145 19.0547C516.21 18.7747 516.309 18.5273 516.442 18.3125C516.576 18.0944 516.745 17.9251 516.95 17.8047C517.159 17.681 517.406 17.6191 517.692 17.6191C517.757 17.6191 517.832 17.6273 517.917 17.6436C518.002 17.6566 518.06 17.6712 518.093 17.6875ZM520.808 19.6064V20.3486H518.425V19.6064H520.808ZM526.252 22.2578V23H521.599V22.3506L523.928 19.7578C524.214 19.4388 524.436 19.1686 524.592 18.9473C524.751 18.7227 524.862 18.5225 524.924 18.3467C524.989 18.1676 525.021 17.9854 525.021 17.7998C525.021 17.5654 524.973 17.3538 524.875 17.165C524.781 16.973 524.641 16.82 524.455 16.7061C524.27 16.5921 524.045 16.5352 523.781 16.5352C523.465 16.5352 523.202 16.597 522.99 16.7207C522.782 16.8411 522.626 17.0104 522.521 17.2285C522.417 17.4466 522.365 17.6973 522.365 17.9805H521.462C521.462 17.5801 521.55 17.2139 521.726 16.8818C521.901 16.5498 522.162 16.2861 522.507 16.0908C522.852 15.8923 523.277 15.793 523.781 15.793C524.23 15.793 524.615 15.8727 524.934 16.0322C525.253 16.1885 525.497 16.4098 525.666 16.6963C525.839 16.9795 525.925 17.3115 525.925 17.6924C525.925 17.9007 525.889 18.1123 525.817 18.3271C525.749 18.5387 525.653 18.7503 525.529 18.9619C525.409 19.1735 525.267 19.3818 525.104 19.5869C524.945 19.792 524.774 19.9938 524.592 20.1924L522.688 22.2578H526.252ZM531.877 22.2578V23H527.224V22.3506L529.553 19.7578C529.839 19.4388 530.061 19.1686 530.217 18.9473C530.376 18.7227 530.487 18.5225 530.549 18.3467C530.614 18.1676 530.646 17.9854 530.646 17.7998C530.646 17.5654 530.598 17.3538 530.5 17.165C530.406 16.973 530.266 16.82 530.08 16.7061C529.895 16.5921 529.67 16.5352 529.406 16.5352C529.09 16.5352 528.827 16.597 528.615 16.7207C528.407 16.8411 528.251 17.0104 528.146 17.2285C528.042 17.4466 527.99 17.6973 527.99 17.9805H527.087C527.087 17.5801 527.175 17.2139 527.351 16.8818C527.526 16.5498 527.787 16.2861 528.132 16.0908C528.477 15.8923 528.902 15.793 529.406 15.793C529.855 15.793 530.24 15.8727 530.559 16.0322C530.878 16.1885 531.122 16.4098 531.291 16.6963C531.464 16.9795 531.55 17.3115 531.55 17.6924C531.55 17.9007 531.514 18.1123 531.442 18.3271C531.374 18.5387 531.278 18.7503 531.154 18.9619C531.034 19.1735 530.892 19.3818 530.729 19.5869C530.57 19.792 530.399 19.9938 530.217 20.1924L528.312 22.2578H531.877ZM538.293 15.8516V23H537.39V16.9795L535.568 17.6436V16.8281L538.151 15.8516H538.293ZM544.416 15.8809H544.494V16.6475H544.416C543.938 16.6475 543.537 16.7256 543.215 16.8818C542.893 17.0348 542.637 17.2415 542.448 17.502C542.259 17.7591 542.123 18.0488 542.038 18.3711C541.957 18.6934 541.916 19.0205 541.916 19.3525V20.3975C541.916 20.7132 541.953 20.9932 542.028 21.2373C542.103 21.4782 542.206 21.6816 542.336 21.8477C542.466 22.0137 542.613 22.139 542.775 22.2236C542.941 22.3083 543.114 22.3506 543.293 22.3506C543.501 22.3506 543.687 22.3115 543.85 22.2334C544.012 22.152 544.149 22.0397 544.26 21.8965C544.374 21.75 544.46 21.5775 544.519 21.3789C544.577 21.1803 544.606 20.9622 544.606 20.7246C544.606 20.513 544.58 20.3096 544.528 20.1143C544.476 19.9157 544.396 19.7399 544.289 19.5869C544.182 19.4307 544.047 19.3086 543.884 19.2207C543.724 19.1296 543.534 19.084 543.312 19.084C543.062 19.084 542.827 19.1458 542.609 19.2695C542.395 19.39 542.217 19.5495 542.077 19.748C541.94 19.9434 541.862 20.1566 541.843 20.3877L541.364 20.3828C541.41 20.0182 541.494 19.7074 541.618 19.4502C541.745 19.1898 541.901 18.9782 542.087 18.8154C542.276 18.6494 542.486 18.529 542.717 18.4541C542.951 18.376 543.199 18.3369 543.459 18.3369C543.814 18.3369 544.12 18.4036 544.377 18.5371C544.634 18.6706 544.846 18.8496 545.012 19.0742C545.178 19.2956 545.3 19.5462 545.378 19.8262C545.459 20.1029 545.5 20.3877 545.5 20.6807C545.5 21.016 545.453 21.3301 545.358 21.623C545.264 21.916 545.122 22.1732 544.934 22.3945C544.748 22.6159 544.519 22.7884 544.245 22.9121C543.972 23.0358 543.654 23.0977 543.293 23.0977C542.909 23.0977 542.574 23.0195 542.287 22.8633C542.001 22.7038 541.763 22.4922 541.574 22.2285C541.385 21.9648 541.244 21.6719 541.149 21.3496C541.055 21.0273 541.008 20.7002 541.008 20.3682V19.9434C541.008 19.4421 541.058 18.9505 541.159 18.4688C541.26 17.987 541.434 17.5508 541.682 17.1602C541.932 16.7695 542.279 16.4587 542.722 16.2275C543.164 15.9964 543.729 15.8809 544.416 15.8809ZM546.633 22.5215C546.633 22.3685 546.68 22.2399 546.774 22.1357C546.872 22.0283 547.012 21.9746 547.194 21.9746C547.377 21.9746 547.515 22.0283 547.609 22.1357C547.707 22.2399 547.756 22.3685 547.756 22.5215C547.756 22.6712 547.707 22.7982 547.609 22.9023C547.515 23.0065 547.377 23.0586 547.194 23.0586C547.012 23.0586 546.872 23.0065 546.774 22.9023C546.68 22.7982 546.633 22.6712 546.633 22.5215ZM546.638 18.21C546.638 18.057 546.685 17.9284 546.779 17.8242C546.877 17.7168 547.017 17.6631 547.199 17.6631C547.382 17.6631 547.52 17.7168 547.614 17.8242C547.712 17.9284 547.761 18.057 547.761 18.21C547.761 18.3597 547.712 18.4867 547.614 18.5908C547.52 18.695 547.382 18.7471 547.199 18.7471C547.017 18.7471 546.877 18.695 546.779 18.5908C546.685 18.4867 546.638 18.3597 546.638 18.21ZM553.459 18.8789V19.9629C553.459 20.5456 553.407 21.0371 553.303 21.4375C553.199 21.8379 553.049 22.1602 552.854 22.4043C552.658 22.6484 552.422 22.8258 552.146 22.9365C551.872 23.0439 551.563 23.0977 551.218 23.0977C550.944 23.0977 550.692 23.0635 550.461 22.9951C550.23 22.9268 550.021 22.8177 549.836 22.668C549.654 22.515 549.497 22.3164 549.367 22.0723C549.237 21.8281 549.138 21.5319 549.069 21.1836C549.001 20.8353 548.967 20.4284 548.967 19.9629V18.8789C548.967 18.2962 549.019 17.8079 549.123 17.4141C549.23 17.0202 549.382 16.7044 549.577 16.4668C549.772 16.2259 550.007 16.0534 550.28 15.9492C550.557 15.8451 550.866 15.793 551.208 15.793C551.485 15.793 551.739 15.8271 551.97 15.8955C552.204 15.9606 552.412 16.0664 552.595 16.2129C552.777 16.3561 552.932 16.5482 553.059 16.7891C553.189 17.0267 553.288 17.318 553.356 17.6631C553.425 18.0081 553.459 18.4134 553.459 18.8789ZM552.551 20.1094V18.7275C552.551 18.4085 552.531 18.1286 552.492 17.8877C552.456 17.6436 552.403 17.4352 552.331 17.2627C552.259 17.0902 552.168 16.9502 552.058 16.8428C551.95 16.7354 551.825 16.6572 551.682 16.6084C551.542 16.5563 551.384 16.5303 551.208 16.5303C550.993 16.5303 550.803 16.571 550.637 16.6523C550.471 16.7305 550.331 16.8558 550.217 17.0283C550.106 17.2008 550.021 17.4271 549.963 17.707C549.904 17.987 549.875 18.3271 549.875 18.7275V20.1094C549.875 20.4284 549.893 20.71 549.929 20.9541C549.968 21.1982 550.025 21.4098 550.1 21.5889C550.174 21.7646 550.266 21.9095 550.373 22.0234C550.48 22.1374 550.604 22.222 550.744 22.2773C550.887 22.3294 551.045 22.3555 551.218 22.3555C551.439 22.3555 551.633 22.3132 551.799 22.2285C551.965 22.1439 552.103 22.012 552.214 21.833C552.328 21.6507 552.412 21.418 552.468 21.1348C552.523 20.8483 552.551 20.5065 552.551 20.1094ZM559.084 18.8789V19.9629C559.084 20.5456 559.032 21.0371 558.928 21.4375C558.824 21.8379 558.674 22.1602 558.479 22.4043C558.283 22.6484 558.047 22.8258 557.771 22.9365C557.497 23.0439 557.188 23.0977 556.843 23.0977C556.569 23.0977 556.317 23.0635 556.086 22.9951C555.855 22.9268 555.646 22.8177 555.461 22.668C555.279 22.515 555.122 22.3164 554.992 22.0723C554.862 21.8281 554.763 21.5319 554.694 21.1836C554.626 20.8353 554.592 20.4284 554.592 19.9629V18.8789C554.592 18.2962 554.644 17.8079 554.748 17.4141C554.855 17.0202 555.007 16.7044 555.202 16.4668C555.397 16.2259 555.632 16.0534 555.905 15.9492C556.182 15.8451 556.491 15.793 556.833 15.793C557.11 15.793 557.364 15.8271 557.595 15.8955C557.829 15.9606 558.037 16.0664 558.22 16.2129C558.402 16.3561 558.557 16.5482 558.684 16.7891C558.814 17.0267 558.913 17.318 558.981 17.6631C559.05 18.0081 559.084 18.4134 559.084 18.8789ZM558.176 20.1094V18.7275C558.176 18.4085 558.156 18.1286 558.117 17.8877C558.081 17.6436 558.028 17.4352 557.956 17.2627C557.884 17.0902 557.793 16.9502 557.683 16.8428C557.575 16.7354 557.45 16.6572 557.307 16.6084C557.167 16.5563 557.009 16.5303 556.833 16.5303C556.618 16.5303 556.428 16.571 556.262 16.6523C556.096 16.7305 555.956 16.8558 555.842 17.0283C555.731 17.2008 555.646 17.4271 555.588 17.707C555.529 17.987 555.5 18.3271 555.5 18.7275V20.1094C555.5 20.4284 555.518 20.71 555.554 20.9541C555.593 21.1982 555.65 21.4098 555.725 21.5889C555.799 21.7646 555.891 21.9095 555.998 22.0234C556.105 22.1374 556.229 22.222 556.369 22.2773C556.512 22.3294 556.67 22.3555 556.843 22.3555C557.064 22.3555 557.258 22.3132 557.424 22.2285C557.59 22.1439 557.728 22.012 557.839 21.833C557.953 21.6507 558.037 21.418 558.093 21.1348C558.148 20.8483 558.176 20.5065 558.176 20.1094ZM567.028 15.8906H567.966V20.7002C567.966 21.234 567.847 21.6784 567.609 22.0332C567.372 22.388 567.056 22.6549 566.662 22.834C566.271 23.0098 565.847 23.0977 565.388 23.0977C564.906 23.0977 564.47 23.0098 564.079 22.834C563.692 22.6549 563.384 22.388 563.156 22.0332C562.932 21.6784 562.819 21.234 562.819 20.7002V15.8906H563.752V20.7002C563.752 21.0713 563.82 21.3773 563.957 21.6182C564.094 21.859 564.284 22.0381 564.528 22.1553C564.776 22.2725 565.062 22.3311 565.388 22.3311C565.716 22.3311 566.003 22.2725 566.247 22.1553C566.494 22.0381 566.687 21.859 566.823 21.6182C566.96 21.3773 567.028 21.0713 567.028 20.7002V15.8906ZM572.072 15.8906V23H571.145V15.8906H572.072ZM574.357 15.8906V16.6621H568.864V15.8906H574.357ZM579.567 20.7393H580.505C580.456 21.1885 580.327 21.5905 580.119 21.9453C579.911 22.3001 579.616 22.5817 579.235 22.79C578.854 22.9951 578.379 23.0977 577.81 23.0977C577.393 23.0977 577.014 23.0195 576.672 22.8633C576.333 22.707 576.042 22.4857 575.798 22.1992C575.554 21.9095 575.365 21.5628 575.231 21.1592C575.101 20.7523 575.036 20.2998 575.036 19.8018V19.0938C575.036 18.5957 575.101 18.1449 575.231 17.7412C575.365 17.3343 575.555 16.986 575.803 16.6963C576.053 16.4066 576.354 16.1836 576.706 16.0273C577.058 15.8711 577.453 15.793 577.893 15.793C578.43 15.793 578.884 15.8939 579.255 16.0957C579.626 16.2975 579.914 16.5775 580.119 16.9355C580.327 17.2904 580.456 17.7021 580.505 18.1709H579.567C579.522 17.8389 579.437 17.554 579.313 17.3164C579.19 17.0755 579.014 16.89 578.786 16.7598C578.558 16.6296 578.26 16.5645 577.893 16.5645C577.577 16.5645 577.299 16.6247 577.058 16.7451C576.82 16.8656 576.62 17.0365 576.457 17.2578C576.298 17.4792 576.177 17.7445 576.096 18.0537C576.014 18.363 575.974 18.7064 575.974 19.084V19.8018C575.974 20.1501 576.009 20.4772 576.081 20.7832C576.156 21.0892 576.268 21.3577 576.418 21.5889C576.568 21.82 576.758 22.0023 576.989 22.1357C577.22 22.266 577.494 22.3311 577.81 22.3311C578.21 22.3311 578.529 22.2676 578.767 22.1406C579.004 22.0137 579.183 21.8314 579.304 21.5938C579.427 21.3561 579.515 21.0713 579.567 20.7393Z" fill="#32375E"/>
</g>
<g opacity="0.9">
<path d="M823.054 18.8789V19.9629C823.054 20.5456 823.002 21.0371 822.897 21.4375C822.793 21.8379 822.644 22.1602 822.448 22.4043C822.253 22.6484 822.017 22.8258 821.74 22.9365C821.467 23.0439 821.158 23.0977 820.812 23.0977C820.539 23.0977 820.287 23.0635 820.056 22.9951C819.825 22.9268 819.616 22.8177 819.431 22.668C819.248 22.515 819.092 22.3164 818.962 22.0723C818.832 21.8281 818.732 21.5319 818.664 21.1836C818.596 20.8353 818.562 20.4284 818.562 19.9629V18.8789C818.562 18.2962 818.614 17.8079 818.718 17.4141C818.825 17.0202 818.977 16.7044 819.172 16.4668C819.367 16.2259 819.602 16.0534 819.875 15.9492C820.152 15.8451 820.461 15.793 820.803 15.793C821.079 15.793 821.333 15.8271 821.564 15.8955C821.799 15.9606 822.007 16.0664 822.189 16.2129C822.372 16.3561 822.526 16.5482 822.653 16.7891C822.784 17.0267 822.883 17.318 822.951 17.6631C823.02 18.0081 823.054 18.4134 823.054 18.8789ZM822.146 20.1094V18.7275C822.146 18.4085 822.126 18.1286 822.087 17.8877C822.051 17.6436 821.997 17.4352 821.926 17.2627C821.854 17.0902 821.763 16.9502 821.652 16.8428C821.545 16.7354 821.42 16.6572 821.276 16.6084C821.136 16.5563 820.979 16.5303 820.803 16.5303C820.588 16.5303 820.397 16.571 820.231 16.6523C820.065 16.7305 819.925 16.8558 819.812 17.0283C819.701 17.2008 819.616 17.4271 819.558 17.707C819.499 17.987 819.47 18.3271 819.47 18.7275V20.1094C819.47 20.4284 819.488 20.71 819.523 20.9541C819.562 21.1982 819.619 21.4098 819.694 21.5889C819.769 21.7646 819.86 21.9095 819.968 22.0234C820.075 22.1374 820.199 22.222 820.339 22.2773C820.482 22.3294 820.64 22.3555 820.812 22.3555C821.034 22.3555 821.228 22.3132 821.394 22.2285C821.56 22.1439 821.698 22.012 821.809 21.833C821.923 21.6507 822.007 21.418 822.062 21.1348C822.118 20.8483 822.146 20.5065 822.146 20.1094ZM827.185 15.8516V23H826.281V16.9795L824.46 17.6436V16.8281L827.043 15.8516H827.185ZM831.818 19.6064V20.3486H829.436V19.6064H831.818ZM833.781 15.8906V23H832.839V15.8906H833.781ZM836.76 19.0889V19.8604H833.576V19.0889H836.76ZM837.243 15.8906V16.6621H833.576V15.8906H837.243ZM840.314 23.0977C839.947 23.0977 839.613 23.0358 839.313 22.9121C839.017 22.7852 838.762 22.6077 838.547 22.3799C838.335 22.152 838.173 21.8818 838.059 21.5693C837.945 21.2568 837.888 20.915 837.888 20.5439V20.3389C837.888 19.9092 837.951 19.5267 838.078 19.1914C838.205 18.8529 838.378 18.5664 838.596 18.332C838.814 18.0977 839.061 17.9202 839.338 17.7998C839.615 17.6794 839.901 17.6191 840.197 17.6191C840.575 17.6191 840.9 17.6842 841.174 17.8145C841.451 17.9447 841.677 18.127 841.853 18.3613C842.028 18.5924 842.159 18.8659 842.243 19.1816C842.328 19.4941 842.37 19.8359 842.37 20.207V20.6123H838.425V19.875H841.467V19.8066C841.454 19.5723 841.405 19.3444 841.32 19.123C841.239 18.9017 841.109 18.7194 840.93 18.5762C840.751 18.4329 840.507 18.3613 840.197 18.3613C839.992 18.3613 839.803 18.4053 839.631 18.4932C839.458 18.5778 839.31 18.7048 839.187 18.874C839.063 19.0433 838.967 19.25 838.898 19.4941C838.83 19.7383 838.796 20.0199 838.796 20.3389V20.5439C838.796 20.7946 838.83 21.0306 838.898 21.252C838.97 21.4701 839.073 21.6621 839.206 21.8281C839.343 21.9941 839.507 22.1243 839.699 22.2188C839.895 22.3132 840.116 22.3604 840.363 22.3604C840.682 22.3604 840.952 22.2952 841.174 22.165C841.395 22.0348 841.589 21.8607 841.755 21.6426L842.302 22.0771C842.188 22.2497 842.043 22.4141 841.867 22.5703C841.691 22.7266 841.475 22.8535 841.218 22.9512C840.964 23.0488 840.663 23.0977 840.314 23.0977ZM843.42 15.5H844.328V21.9746L844.25 23H843.42V15.5ZM847.897 20.3145V20.417C847.897 20.8011 847.852 21.1576 847.761 21.4863C847.67 21.8118 847.536 22.0951 847.36 22.3359C847.185 22.5768 846.97 22.764 846.716 22.8975C846.462 23.0309 846.171 23.0977 845.842 23.0977C845.507 23.0977 845.212 23.0407 844.958 22.9268C844.707 22.8096 844.496 22.6419 844.323 22.4238C844.151 22.2057 844.012 21.9421 843.908 21.6328C843.807 21.3236 843.737 20.9753 843.698 20.5879V20.1387C843.737 19.748 843.807 19.3981 843.908 19.0889C844.012 18.7796 844.151 18.516 844.323 18.2979C844.496 18.0765 844.707 17.9089 844.958 17.7949C845.209 17.6777 845.5 17.6191 845.832 17.6191C846.164 17.6191 846.459 17.6842 846.716 17.8145C846.973 17.9414 847.188 18.1237 847.36 18.3613C847.536 18.599 847.67 18.8838 847.761 19.2158C847.852 19.5446 847.897 19.9108 847.897 20.3145ZM846.989 20.417V20.3145C846.989 20.0508 846.965 19.8034 846.916 19.5723C846.867 19.3379 846.789 19.1328 846.682 18.957C846.574 18.778 846.433 18.638 846.257 18.5371C846.081 18.4329 845.865 18.3809 845.607 18.3809C845.38 18.3809 845.181 18.4199 845.012 18.498C844.846 18.5762 844.704 18.682 844.587 18.8154C844.47 18.9456 844.374 19.0954 844.299 19.2646C844.227 19.4307 844.174 19.6032 844.138 19.7822V20.959C844.19 21.1868 844.274 21.4066 844.392 21.6182C844.512 21.8265 844.672 21.9974 844.87 22.1309C845.072 22.2643 845.321 22.3311 845.617 22.3311C845.861 22.3311 846.07 22.2822 846.242 22.1846C846.418 22.0837 846.56 21.9453 846.667 21.7695C846.778 21.5938 846.859 21.3903 846.911 21.1592C846.963 20.9281 846.989 20.6807 846.989 20.417ZM850.92 19.6064V20.3486H848.537V19.6064H850.92ZM856.364 22.2578V23H851.711V22.3506L854.04 19.7578C854.326 19.4388 854.548 19.1686 854.704 18.9473C854.864 18.7227 854.974 18.5225 855.036 18.3467C855.101 18.1676 855.134 17.9854 855.134 17.7998C855.134 17.5654 855.085 17.3538 854.987 17.165C854.893 16.973 854.753 16.82 854.567 16.7061C854.382 16.5921 854.157 16.5352 853.894 16.5352C853.578 16.5352 853.314 16.597 853.103 16.7207C852.894 16.8411 852.738 17.0104 852.634 17.2285C852.53 17.4466 852.478 17.6973 852.478 17.9805H851.574C851.574 17.5801 851.662 17.2139 851.838 16.8818C852.014 16.5498 852.274 16.2861 852.619 16.0908C852.964 15.8923 853.389 15.793 853.894 15.793C854.343 15.793 854.727 15.8727 855.046 16.0322C855.365 16.1885 855.609 16.4098 855.778 16.6963C855.951 16.9795 856.037 17.3115 856.037 17.6924C856.037 17.9007 856.001 18.1123 855.93 18.3271C855.861 18.5387 855.765 18.7503 855.642 18.9619C855.521 19.1735 855.38 19.3818 855.217 19.5869C855.057 19.792 854.886 19.9938 854.704 20.1924L852.8 22.2578H856.364ZM861.989 22.2578V23H857.336V22.3506L859.665 19.7578C859.951 19.4388 860.173 19.1686 860.329 18.9473C860.489 18.7227 860.599 18.5225 860.661 18.3467C860.726 18.1676 860.759 17.9854 860.759 17.7998C860.759 17.5654 860.71 17.3538 860.612 17.165C860.518 16.973 860.378 16.82 860.192 16.7061C860.007 16.5921 859.782 16.5352 859.519 16.5352C859.203 16.5352 858.939 16.597 858.728 16.7207C858.519 16.8411 858.363 17.0104 858.259 17.2285C858.155 17.4466 858.103 17.6973 858.103 17.9805H857.199C857.199 17.5801 857.287 17.2139 857.463 16.8818C857.639 16.5498 857.899 16.2861 858.244 16.0908C858.589 15.8923 859.014 15.793 859.519 15.793C859.968 15.793 860.352 15.8727 860.671 16.0322C860.99 16.1885 861.234 16.4098 861.403 16.6963C861.576 16.9795 861.662 17.3115 861.662 17.6924C861.662 17.9007 861.626 18.1123 861.555 18.3271C861.486 18.5387 861.39 18.7503 861.267 18.9619C861.146 19.1735 861.005 19.3818 860.842 19.5869C860.682 19.792 860.511 19.9938 860.329 20.1924L858.425 22.2578H861.989ZM868.405 15.8516V23H867.502V16.9795L865.681 17.6436V16.8281L868.264 15.8516H868.405ZM874.528 15.8809H874.606V16.6475H874.528C874.05 16.6475 873.649 16.7256 873.327 16.8818C873.005 17.0348 872.749 17.2415 872.561 17.502C872.372 17.7591 872.235 18.0488 872.15 18.3711C872.069 18.6934 872.028 19.0205 872.028 19.3525V20.3975C872.028 20.7132 872.066 20.9932 872.141 21.2373C872.215 21.4782 872.318 21.6816 872.448 21.8477C872.578 22.0137 872.725 22.139 872.888 22.2236C873.054 22.3083 873.226 22.3506 873.405 22.3506C873.614 22.3506 873.799 22.3115 873.962 22.2334C874.125 22.152 874.261 22.0397 874.372 21.8965C874.486 21.75 874.572 21.5775 874.631 21.3789C874.689 21.1803 874.719 20.9622 874.719 20.7246C874.719 20.513 874.693 20.3096 874.641 20.1143C874.589 19.9157 874.509 19.7399 874.401 19.5869C874.294 19.4307 874.159 19.3086 873.996 19.2207C873.837 19.1296 873.646 19.084 873.425 19.084C873.174 19.084 872.94 19.1458 872.722 19.2695C872.507 19.39 872.329 19.5495 872.189 19.748C872.053 19.9434 871.975 20.1566 871.955 20.3877L871.477 20.3828C871.522 20.0182 871.607 19.7074 871.73 19.4502C871.857 19.1898 872.014 18.9782 872.199 18.8154C872.388 18.6494 872.598 18.529 872.829 18.4541C873.063 18.376 873.311 18.3369 873.571 18.3369C873.926 18.3369 874.232 18.4036 874.489 18.5371C874.746 18.6706 874.958 18.8496 875.124 19.0742C875.29 19.2956 875.412 19.5462 875.49 19.8262C875.572 20.1029 875.612 20.3877 875.612 20.6807C875.612 21.016 875.565 21.3301 875.471 21.623C875.376 21.916 875.235 22.1732 875.046 22.3945C874.86 22.6159 874.631 22.7884 874.357 22.9121C874.084 23.0358 873.767 23.0977 873.405 23.0977C873.021 23.0977 872.686 23.0195 872.399 22.8633C872.113 22.7038 871.875 22.4922 871.687 22.2285C871.498 21.9648 871.356 21.6719 871.262 21.3496C871.167 21.0273 871.12 20.7002 871.12 20.3682V19.9434C871.12 19.4421 871.171 18.9505 871.271 18.4688C871.372 17.987 871.547 17.5508 871.794 17.1602C872.045 16.7695 872.391 16.4587 872.834 16.2275C873.277 15.9964 873.841 15.8809 874.528 15.8809ZM876.745 22.5215C876.745 22.3685 876.792 22.2399 876.887 22.1357C876.984 22.0283 877.124 21.9746 877.307 21.9746C877.489 21.9746 877.627 22.0283 877.722 22.1357C877.819 22.2399 877.868 22.3685 877.868 22.5215C877.868 22.6712 877.819 22.7982 877.722 22.9023C877.627 23.0065 877.489 23.0586 877.307 23.0586C877.124 23.0586 876.984 23.0065 876.887 22.9023C876.792 22.7982 876.745 22.6712 876.745 22.5215ZM876.75 18.21C876.75 18.057 876.797 17.9284 876.892 17.8242C876.989 17.7168 877.129 17.6631 877.312 17.6631C877.494 17.6631 877.632 17.7168 877.727 17.8242C877.824 17.9284 877.873 18.057 877.873 18.21C877.873 18.3597 877.824 18.4867 877.727 18.5908C877.632 18.695 877.494 18.7471 877.312 18.7471C877.129 18.7471 876.989 18.695 876.892 18.5908C876.797 18.4867 876.75 18.3597 876.75 18.21ZM883.767 22.2578V23H879.113V22.3506L881.442 19.7578C881.729 19.4388 881.95 19.1686 882.106 18.9473C882.266 18.7227 882.377 18.5225 882.438 18.3467C882.504 18.1676 882.536 17.9854 882.536 17.7998C882.536 17.5654 882.487 17.3538 882.39 17.165C882.295 16.973 882.155 16.82 881.97 16.7061C881.784 16.5921 881.56 16.5352 881.296 16.5352C880.98 16.5352 880.716 16.597 880.505 16.7207C880.297 16.8411 880.14 17.0104 880.036 17.2285C879.932 17.4466 879.88 17.6973 879.88 17.9805H878.977C878.977 17.5801 879.064 17.2139 879.24 16.8818C879.416 16.5498 879.676 16.2861 880.021 16.0908C880.367 15.8923 880.791 15.793 881.296 15.793C881.745 15.793 882.129 15.8727 882.448 16.0322C882.767 16.1885 883.011 16.4098 883.181 16.6963C883.353 16.9795 883.439 17.3115 883.439 17.6924C883.439 17.9007 883.404 18.1123 883.332 18.3271C883.264 18.5387 883.168 18.7503 883.044 18.9619C882.924 19.1735 882.782 19.3818 882.619 19.5869C882.46 19.792 882.289 19.9938 882.106 20.1924L880.202 22.2578H883.767ZM889.538 20.6074V21.3496H884.401V20.8174L887.585 15.8906H888.322L887.531 17.3164L885.427 20.6074H889.538ZM888.547 15.8906V23H887.644V15.8906H888.547ZM897.141 15.8906H898.078V20.7002C898.078 21.234 897.959 21.6784 897.722 22.0332C897.484 22.388 897.168 22.6549 896.774 22.834C896.384 23.0098 895.959 23.0977 895.5 23.0977C895.018 23.0977 894.582 23.0098 894.191 22.834C893.804 22.6549 893.496 22.388 893.269 22.0332C893.044 21.6784 892.932 21.234 892.932 20.7002V15.8906H893.864V20.7002C893.864 21.0713 893.933 21.3773 894.069 21.6182C894.206 21.859 894.396 22.0381 894.641 22.1553C894.888 22.2725 895.174 22.3311 895.5 22.3311C895.829 22.3311 896.115 22.2725 896.359 22.1553C896.607 22.0381 896.799 21.859 896.936 21.6182C897.072 21.3773 897.141 21.0713 897.141 20.7002V15.8906ZM902.185 15.8906V23H901.257V15.8906H902.185ZM904.47 15.8906V16.6621H898.977V15.8906H904.47ZM909.68 20.7393H910.617C910.568 21.1885 910.44 21.5905 910.231 21.9453C910.023 22.3001 909.729 22.5817 909.348 22.79C908.967 22.9951 908.492 23.0977 907.922 23.0977C907.505 23.0977 907.126 23.0195 906.784 22.8633C906.446 22.707 906.154 22.4857 905.91 22.1992C905.666 21.9095 905.477 21.5628 905.344 21.1592C905.214 20.7523 905.148 20.2998 905.148 19.8018V19.0938C905.148 18.5957 905.214 18.1449 905.344 17.7412C905.477 17.3343 905.668 16.986 905.915 16.6963C906.166 16.4066 906.467 16.1836 906.818 16.0273C907.17 15.8711 907.565 15.793 908.005 15.793C908.542 15.793 908.996 15.8939 909.367 16.0957C909.738 16.2975 910.026 16.5775 910.231 16.9355C910.44 17.2904 910.568 17.7021 910.617 18.1709H909.68C909.634 17.8389 909.549 17.554 909.426 17.3164C909.302 17.0755 909.126 16.89 908.898 16.7598C908.671 16.6296 908.373 16.5645 908.005 16.5645C907.689 16.5645 907.411 16.6247 907.17 16.7451C906.932 16.8656 906.732 17.0365 906.569 17.2578C906.41 17.4792 906.289 17.7445 906.208 18.0537C906.127 18.363 906.086 18.7064 906.086 19.084V19.8018C906.086 20.1501 906.122 20.4772 906.193 20.7832C906.268 21.0892 906.381 21.3577 906.53 21.5889C906.68 21.82 906.87 22.0023 907.102 22.1357C907.333 22.266 907.606 22.3311 907.922 22.3311C908.322 22.3311 908.641 22.2676 908.879 22.1406C909.117 22.0137 909.296 21.8314 909.416 21.5938C909.54 21.3561 909.628 21.0713 909.68 20.7393Z" fill="#32375E"/>
</g>
</svg>
