<svg width="928" height="41" viewBox="0 0 928 41" fill="none" xmlns="http://www.w3.org/2000/svg">
<rect y="0.0800781" width="928" height="40" rx="12" fill="white"/>
<g clip-path="url(#clip0_1200_41592)">
<rect x="16.5" y="12.5801" width="15" height="15" rx="3.5" fill="white"/>
<rect x="16.5" y="12.5801" width="15" height="15" rx="3.5" stroke="#DAE6F0"/>
</g>
<g opacity="0.9">
<path d="M60.7334 19.6963L60.0107 19.5107L60.3672 15.9707H64.0146V16.8057H61.1338L60.9189 18.7393C61.0492 18.6644 61.2135 18.5944 61.4121 18.5293C61.6139 18.4642 61.8451 18.4316 62.1055 18.4316C62.4342 18.4316 62.7288 18.4886 62.9893 18.6025C63.2497 18.7132 63.471 18.8727 63.6533 19.0811C63.8389 19.2894 63.9805 19.54 64.0781 19.833C64.1758 20.126 64.2246 20.4531 64.2246 20.8145C64.2246 21.1562 64.1774 21.4704 64.083 21.7568C63.9919 22.0433 63.8535 22.2939 63.668 22.5088C63.4824 22.7204 63.248 22.8848 62.9648 23.002C62.6849 23.1191 62.3545 23.1777 61.9736 23.1777C61.6872 23.1777 61.4154 23.1387 61.1582 23.0605C60.9043 22.9792 60.6764 22.8571 60.4746 22.6943C60.276 22.5283 60.1133 22.3232 59.9863 22.0791C59.8626 21.8317 59.7845 21.542 59.752 21.21H60.6113C60.6504 21.4769 60.7285 21.7015 60.8457 21.8838C60.9629 22.0661 61.1159 22.2044 61.3047 22.2988C61.4967 22.39 61.7197 22.4355 61.9736 22.4355C62.1885 22.4355 62.3789 22.3981 62.5449 22.3232C62.7109 22.2484 62.8509 22.141 62.9648 22.001C63.0788 21.861 63.165 21.6917 63.2236 21.4932C63.2855 21.2946 63.3164 21.0716 63.3164 20.8242C63.3164 20.5996 63.2855 20.3913 63.2236 20.1992C63.1618 20.0072 63.069 19.8395 62.9453 19.6963C62.8249 19.5531 62.6768 19.4424 62.501 19.3643C62.3252 19.2829 62.1234 19.2422 61.8955 19.2422C61.5928 19.2422 61.3633 19.2829 61.207 19.3643C61.054 19.4456 60.8962 19.5563 60.7334 19.6963Z" fill="#32375E"/>
</g>
<g opacity="0.9">
<path d="M118.896 20.6875V21.4297H113.759V20.8975L116.942 15.9707H117.68L116.889 17.3965L114.784 20.6875H118.896ZM117.904 15.9707V23.0801H117.001V15.9707H117.904ZM124.179 18.959V20.043C124.179 20.6257 124.127 21.1172 124.022 21.5176C123.918 21.918 123.769 22.2402 123.573 22.4844C123.378 22.7285 123.142 22.9059 122.865 23.0166C122.592 23.124 122.283 23.1777 121.938 23.1777C121.664 23.1777 121.412 23.1436 121.181 23.0752C120.95 23.0068 120.741 22.8978 120.556 22.748C120.373 22.5951 120.217 22.3965 120.087 22.1523C119.957 21.9082 119.857 21.612 119.789 21.2637C119.721 20.9154 119.687 20.5085 119.687 20.043V18.959C119.687 18.3763 119.739 17.888 119.843 17.4941C119.95 17.1003 120.102 16.7845 120.297 16.5469C120.492 16.306 120.727 16.1335 121 16.0293C121.277 15.9251 121.586 15.873 121.928 15.873C122.204 15.873 122.458 15.9072 122.689 15.9756C122.924 16.0407 123.132 16.1465 123.314 16.293C123.497 16.4362 123.651 16.6283 123.778 16.8691C123.909 17.1068 124.008 17.3981 124.076 17.7432C124.145 18.0882 124.179 18.4935 124.179 18.959ZM123.271 20.1895V18.8076C123.271 18.4886 123.251 18.2087 123.212 17.9678C123.176 17.7236 123.122 17.5153 123.051 17.3428C122.979 17.1702 122.888 17.0303 122.777 16.9229C122.67 16.8154 122.545 16.7373 122.401 16.6885C122.261 16.6364 122.104 16.6104 121.928 16.6104C121.713 16.6104 121.522 16.651 121.356 16.7324C121.19 16.8105 121.05 16.9359 120.937 17.1084C120.826 17.2809 120.741 17.5072 120.683 17.7871C120.624 18.0671 120.595 18.4072 120.595 18.8076V20.1895C120.595 20.5085 120.613 20.79 120.648 21.0342C120.688 21.2783 120.744 21.4899 120.819 21.6689C120.894 21.8447 120.985 21.9896 121.093 22.1035C121.2 22.2174 121.324 22.3021 121.464 22.3574C121.607 22.4095 121.765 22.4355 121.938 22.4355C122.159 22.4355 122.353 22.3932 122.519 22.3086C122.685 22.224 122.823 22.0921 122.934 21.9131C123.048 21.7308 123.132 21.498 123.188 21.2148C123.243 20.9284 123.271 20.5866 123.271 20.1895ZM130.146 20.6875V21.4297H125.009V20.8975L128.192 15.9707H128.93L128.139 17.3965L126.034 20.6875H130.146ZM129.154 15.9707V23.0801H128.251V15.9707H129.154Z" fill="#32375E"/>
</g>
<g opacity="0.9">
<path d="M168.409 19.0811H169.054C169.369 19.0811 169.63 19.029 169.835 18.9248C170.043 18.8174 170.198 18.6725 170.299 18.4902C170.403 18.3047 170.455 18.0964 170.455 17.8652C170.455 17.5918 170.41 17.3623 170.318 17.1768C170.227 16.9912 170.09 16.8512 169.908 16.7568C169.726 16.6624 169.495 16.6152 169.215 16.6152C168.961 16.6152 168.736 16.6657 168.541 16.7666C168.349 16.8643 168.198 17.0042 168.087 17.1865C167.979 17.3688 167.926 17.5837 167.926 17.8311H167.022C167.022 17.4697 167.114 17.141 167.296 16.8447C167.478 16.5485 167.734 16.3125 168.062 16.1367C168.395 15.9609 168.779 15.873 169.215 15.873C169.645 15.873 170.021 15.9495 170.343 16.1025C170.665 16.2523 170.916 16.4769 171.095 16.7764C171.274 17.0726 171.363 17.4421 171.363 17.8848C171.363 18.0638 171.321 18.2559 171.236 18.4609C171.155 18.6628 171.026 18.8516 170.851 19.0273C170.678 19.2031 170.453 19.348 170.177 19.4619C169.9 19.5726 169.568 19.6279 169.181 19.6279H168.409V19.0811ZM168.409 19.8232V19.2812H169.181C169.633 19.2812 170.007 19.335 170.304 19.4424C170.6 19.5498 170.833 19.693 171.002 19.8721C171.174 20.0511 171.295 20.248 171.363 20.4629C171.435 20.6745 171.471 20.8861 171.471 21.0977C171.471 21.4297 171.414 21.7243 171.3 21.9814C171.189 22.2386 171.031 22.4567 170.826 22.6357C170.624 22.8148 170.387 22.9499 170.113 23.041C169.84 23.1322 169.542 23.1777 169.22 23.1777C168.91 23.1777 168.619 23.1338 168.346 23.0459C168.076 22.958 167.836 22.8311 167.628 22.665C167.42 22.4958 167.257 22.2891 167.14 22.0449C167.022 21.7975 166.964 21.516 166.964 21.2002H167.867C167.867 21.4476 167.921 21.6641 168.028 21.8496C168.139 22.0352 168.295 22.18 168.497 22.2842C168.702 22.3851 168.943 22.4355 169.22 22.4355C169.496 22.4355 169.734 22.3883 169.933 22.2939C170.134 22.1963 170.289 22.0498 170.396 21.8545C170.507 21.6592 170.562 21.4134 170.562 21.1172C170.562 20.821 170.501 20.5785 170.377 20.3896C170.253 20.1976 170.077 20.056 169.85 19.9648C169.625 19.8704 169.36 19.8232 169.054 19.8232H168.409ZM173.858 19.6963L173.136 19.5107L173.492 15.9707H177.14V16.8057H174.259L174.044 18.7393C174.174 18.6644 174.339 18.5944 174.537 18.5293C174.739 18.4642 174.97 18.4316 175.23 18.4316C175.559 18.4316 175.854 18.4886 176.114 18.6025C176.375 18.7132 176.596 18.8727 176.778 19.0811C176.964 19.2894 177.105 19.54 177.203 19.833C177.301 20.126 177.35 20.4531 177.35 20.8145C177.35 21.1562 177.302 21.4704 177.208 21.7568C177.117 22.0433 176.979 22.2939 176.793 22.5088C176.607 22.7204 176.373 22.8848 176.09 23.002C175.81 23.1191 175.479 23.1777 175.099 23.1777C174.812 23.1777 174.54 23.1387 174.283 23.0605C174.029 22.9792 173.801 22.8571 173.6 22.6943C173.401 22.5283 173.238 22.3232 173.111 22.0791C172.988 21.8317 172.91 21.542 172.877 21.21H173.736C173.775 21.4769 173.854 21.7015 173.971 21.8838C174.088 22.0661 174.241 22.2044 174.43 22.2988C174.622 22.39 174.845 22.4355 175.099 22.4355C175.313 22.4355 175.504 22.3981 175.67 22.3232C175.836 22.2484 175.976 22.141 176.09 22.001C176.204 21.861 176.29 21.6917 176.349 21.4932C176.41 21.2946 176.441 21.0716 176.441 20.8242C176.441 20.5996 176.41 20.3913 176.349 20.1992C176.287 20.0072 176.194 19.8395 176.07 19.6963C175.95 19.5531 175.802 19.4424 175.626 19.3643C175.45 19.2829 175.248 19.2422 175.021 19.2422C174.718 19.2422 174.488 19.2829 174.332 19.3643C174.179 19.4456 174.021 19.5563 173.858 19.6963ZM182.804 18.959V20.043C182.804 20.6257 182.752 21.1172 182.647 21.5176C182.543 21.918 182.394 22.2402 182.198 22.4844C182.003 22.7285 181.767 22.9059 181.49 23.0166C181.217 23.124 180.908 23.1777 180.562 23.1777C180.289 23.1777 180.037 23.1436 179.806 23.0752C179.575 23.0068 179.366 22.8978 179.181 22.748C178.998 22.5951 178.842 22.3965 178.712 22.1523C178.582 21.9082 178.482 21.612 178.414 21.2637C178.346 20.9154 178.312 20.5085 178.312 20.043V18.959C178.312 18.3763 178.364 17.888 178.468 17.4941C178.575 17.1003 178.727 16.7845 178.922 16.5469C179.117 16.306 179.352 16.1335 179.625 16.0293C179.902 15.9251 180.211 15.873 180.553 15.873C180.829 15.873 181.083 15.9072 181.314 15.9756C181.549 16.0407 181.757 16.1465 181.939 16.293C182.122 16.4362 182.276 16.6283 182.403 16.8691C182.534 17.1068 182.633 17.3981 182.701 17.7432C182.77 18.0882 182.804 18.4935 182.804 18.959ZM181.896 20.1895V18.8076C181.896 18.4886 181.876 18.2087 181.837 17.9678C181.801 17.7236 181.747 17.5153 181.676 17.3428C181.604 17.1702 181.513 17.0303 181.402 16.9229C181.295 16.8154 181.17 16.7373 181.026 16.6885C180.886 16.6364 180.729 16.6104 180.553 16.6104C180.338 16.6104 180.147 16.651 179.981 16.7324C179.815 16.8105 179.675 16.9359 179.562 17.1084C179.451 17.2809 179.366 17.5072 179.308 17.7871C179.249 18.0671 179.22 18.4072 179.22 18.8076V20.1895C179.22 20.5085 179.238 20.79 179.273 21.0342C179.312 21.2783 179.369 21.4899 179.444 21.6689C179.519 21.8447 179.61 21.9896 179.718 22.1035C179.825 22.2174 179.949 22.3021 180.089 22.3574C180.232 22.4095 180.39 22.4355 180.562 22.4355C180.784 22.4355 180.978 22.3932 181.144 22.3086C181.31 22.224 181.448 22.0921 181.559 21.9131C181.673 21.7308 181.757 21.498 181.812 21.2148C181.868 20.9284 181.896 20.5866 181.896 20.1895ZM184.078 22.6016C184.078 22.4486 184.125 22.32 184.22 22.2158C184.317 22.1084 184.457 22.0547 184.64 22.0547C184.822 22.0547 184.96 22.1084 185.055 22.2158C185.152 22.32 185.201 22.4486 185.201 22.6016C185.201 22.7513 185.152 22.8783 185.055 22.9824C184.96 23.0866 184.822 23.1387 184.64 23.1387C184.457 23.1387 184.317 23.0866 184.22 22.9824C184.125 22.8783 184.078 22.7513 184.078 22.6016ZM191.197 15.9707V16.4785L188.253 23.0801H187.301L190.24 16.7129H186.393V15.9707H191.197ZM193.546 19.0811H194.19C194.506 19.0811 194.767 19.029 194.972 18.9248C195.18 18.8174 195.335 18.6725 195.436 18.4902C195.54 18.3047 195.592 18.0964 195.592 17.8652C195.592 17.5918 195.546 17.3623 195.455 17.1768C195.364 16.9912 195.227 16.8512 195.045 16.7568C194.863 16.6624 194.632 16.6152 194.352 16.6152C194.098 16.6152 193.873 16.6657 193.678 16.7666C193.486 16.8643 193.334 17.0042 193.224 17.1865C193.116 17.3688 193.062 17.5837 193.062 17.8311H192.159C192.159 17.4697 192.25 17.141 192.433 16.8447C192.615 16.5485 192.87 16.3125 193.199 16.1367C193.531 15.9609 193.915 15.873 194.352 15.873C194.781 15.873 195.157 15.9495 195.479 16.1025C195.802 16.2523 196.052 16.4769 196.231 16.7764C196.41 17.0726 196.5 17.4421 196.5 17.8848C196.5 18.0638 196.458 18.2559 196.373 18.4609C196.292 18.6628 196.163 18.8516 195.987 19.0273C195.815 19.2031 195.59 19.348 195.313 19.4619C195.037 19.5726 194.705 19.6279 194.317 19.6279H193.546V19.0811ZM193.546 19.8232V19.2812H194.317C194.77 19.2812 195.144 19.335 195.44 19.4424C195.737 19.5498 195.969 19.693 196.139 19.8721C196.311 20.0511 196.432 20.248 196.5 20.4629C196.572 20.6745 196.607 20.8861 196.607 21.0977C196.607 21.4297 196.55 21.7243 196.437 21.9814C196.326 22.2386 196.168 22.4567 195.963 22.6357C195.761 22.8148 195.523 22.9499 195.25 23.041C194.977 23.1322 194.679 23.1777 194.356 23.1777C194.047 23.1777 193.756 23.1338 193.482 23.0459C193.212 22.958 192.973 22.8311 192.765 22.665C192.556 22.4958 192.394 22.2891 192.276 22.0449C192.159 21.7975 192.101 21.516 192.101 21.2002H193.004C193.004 21.4476 193.058 21.6641 193.165 21.8496C193.276 22.0352 193.432 22.18 193.634 22.2842C193.839 22.3851 194.08 22.4355 194.356 22.4355C194.633 22.4355 194.871 22.3883 195.069 22.2939C195.271 22.1963 195.426 22.0498 195.533 21.8545C195.644 21.6592 195.699 21.4134 195.699 21.1172C195.699 20.821 195.637 20.5785 195.514 20.3896C195.39 20.1976 195.214 20.056 194.986 19.9648C194.762 19.8704 194.496 19.8232 194.19 19.8232H193.546Z" fill="#32375E"/>
</g>
<g clip-path="url(#clip1_1200_41592)">
<path d="M245.333 14.7464H248C248.176 14.7464 248.346 14.8167 248.471 14.9417C248.596 15.0667 248.666 15.2363 248.666 15.4131V26.0798C248.666 26.2566 248.596 26.4261 248.471 26.5512C248.346 26.6762 248.176 26.7464 248 26.7464H236C235.823 26.7464 235.653 26.6762 235.528 26.5512C235.403 26.4261 235.333 26.2566 235.333 26.0798V15.4131C235.333 15.2363 235.403 15.0667 235.528 14.9417C235.653 14.8167 235.823 14.7464 236 14.7464H238.666V13.4131H240V14.7464H244V13.4131H245.333V14.7464ZM247.333 18.7464V16.0798H245.333V17.4131H244V16.0798H240V17.4131H238.666V16.0798H236.666V18.7464H247.333ZM247.333 20.0798H236.666V25.4131H247.333V20.0798ZM238 21.4131H241.333V24.0798H238V21.4131Z" fill="#8E959C"/>
</g>
<path d="M370.985 15.9707L372.831 19.54L374.682 15.9707H375.751L373.3 20.4238V23.0801H372.357V20.4238L369.906 15.9707H370.985ZM378.397 23.1777C378.03 23.1777 377.696 23.1159 377.396 22.9922C377.1 22.8652 376.845 22.6878 376.63 22.46C376.418 22.2321 376.256 21.9619 376.142 21.6494C376.028 21.3369 375.971 20.9951 375.971 20.624V20.4189C375.971 19.9893 376.034 19.6068 376.161 19.2715C376.288 18.9329 376.461 18.6465 376.679 18.4121C376.897 18.1777 377.144 18.0003 377.421 17.8799C377.698 17.7594 377.984 17.6992 378.28 17.6992C378.658 17.6992 378.983 17.7643 379.257 17.8945C379.534 18.0247 379.76 18.207 379.936 18.4414C380.111 18.6725 380.242 18.946 380.326 19.2617C380.411 19.5742 380.453 19.916 380.453 20.2871V20.6924H376.508V19.9551H379.55V19.8867C379.537 19.6523 379.488 19.4245 379.403 19.2031C379.322 18.9818 379.192 18.7995 379.013 18.6562C378.834 18.513 378.59 18.4414 378.28 18.4414C378.075 18.4414 377.886 18.4854 377.714 18.5732C377.541 18.6579 377.393 18.7848 377.27 18.9541C377.146 19.1234 377.05 19.3301 376.981 19.5742C376.913 19.8184 376.879 20.0999 376.879 20.4189V20.624C376.879 20.8747 376.913 21.1107 376.981 21.332C377.053 21.5501 377.156 21.7422 377.289 21.9082C377.426 22.0742 377.59 22.2044 377.782 22.2988C377.978 22.3932 378.199 22.4404 378.446 22.4404C378.765 22.4404 379.035 22.3753 379.257 22.2451C379.478 22.1149 379.672 21.9408 379.838 21.7227L380.385 22.1572C380.271 22.3298 380.126 22.4941 379.95 22.6504C379.774 22.8066 379.558 22.9336 379.301 23.0312C379.047 23.1289 378.746 23.1777 378.397 23.1777ZM384.584 21.6787C384.584 21.5485 384.555 21.4281 384.496 21.3174C384.441 21.2035 384.325 21.1009 384.149 21.0098C383.977 20.9154 383.716 20.834 383.368 20.7656C383.075 20.7038 382.81 20.6305 382.572 20.5459C382.338 20.4613 382.138 20.3587 381.972 20.2383C381.809 20.1178 381.684 19.9762 381.596 19.8135C381.508 19.6507 381.464 19.4603 381.464 19.2422C381.464 19.0339 381.509 18.8369 381.601 18.6514C381.695 18.4658 381.827 18.3014 381.996 18.1582C382.169 18.015 382.375 17.9027 382.616 17.8213C382.857 17.7399 383.126 17.6992 383.422 17.6992C383.845 17.6992 384.206 17.7741 384.506 17.9238C384.805 18.0736 385.035 18.2738 385.194 18.5244C385.354 18.7718 385.434 19.0469 385.434 19.3496H384.53C384.53 19.2031 384.486 19.0615 384.398 18.9248C384.314 18.7848 384.188 18.6693 384.022 18.5781C383.86 18.487 383.66 18.4414 383.422 18.4414C383.171 18.4414 382.968 18.4805 382.812 18.5586C382.659 18.6335 382.546 18.7295 382.475 18.8467C382.406 18.9639 382.372 19.0876 382.372 19.2178C382.372 19.3154 382.388 19.4033 382.421 19.4814C382.457 19.5563 382.519 19.6263 382.606 19.6914C382.694 19.7533 382.818 19.8118 382.978 19.8672C383.137 19.9225 383.34 19.9779 383.588 20.0332C384.021 20.1309 384.377 20.248 384.657 20.3848C384.937 20.5215 385.146 20.6891 385.282 20.8877C385.419 21.0863 385.487 21.3271 385.487 21.6104C385.487 21.8415 385.438 22.0531 385.341 22.2451C385.246 22.4372 385.108 22.6032 384.926 22.7432C384.747 22.8799 384.532 22.9873 384.281 23.0654C384.034 23.1403 383.756 23.1777 383.446 23.1777C382.981 23.1777 382.587 23.0947 382.265 22.9287C381.942 22.7627 381.698 22.5479 381.532 22.2842C381.366 22.0205 381.283 21.7422 381.283 21.4492H382.191C382.204 21.6966 382.276 21.8936 382.406 22.04C382.536 22.1833 382.696 22.2858 382.885 22.3477C383.074 22.4062 383.261 22.4355 383.446 22.4355C383.694 22.4355 383.9 22.403 384.066 22.3379C384.236 22.2728 384.364 22.1833 384.452 22.0693C384.54 21.9554 384.584 21.8252 384.584 21.6787Z" fill="#32375E"/>
<g opacity="0.9">
<path d="M491.721 18.959V20.043C491.721 20.6257 491.669 21.1172 491.564 21.5176C491.46 21.918 491.311 22.2402 491.115 22.4844C490.92 22.7285 490.684 22.9059 490.407 23.0166C490.134 23.124 489.825 23.1777 489.479 23.1777C489.206 23.1777 488.954 23.1436 488.723 23.0752C488.492 23.0068 488.283 22.8978 488.098 22.748C487.915 22.5951 487.759 22.3965 487.629 22.1523C487.499 21.9082 487.399 21.612 487.331 21.2637C487.263 20.9154 487.229 20.5085 487.229 20.043V18.959C487.229 18.3763 487.281 17.888 487.385 17.4941C487.492 17.1003 487.644 16.7845 487.839 16.5469C488.034 16.306 488.269 16.1335 488.542 16.0293C488.819 15.9251 489.128 15.873 489.47 15.873C489.746 15.873 490 15.9072 490.231 15.9756C490.466 16.0407 490.674 16.1465 490.856 16.293C491.039 16.4362 491.193 16.6283 491.32 16.8691C491.451 17.1068 491.55 17.3981 491.618 17.7432C491.687 18.0882 491.721 18.4935 491.721 18.959ZM490.812 20.1895V18.8076C490.812 18.4886 490.793 18.2087 490.754 17.9678C490.718 17.7236 490.664 17.5153 490.593 17.3428C490.521 17.1702 490.43 17.0303 490.319 16.9229C490.212 16.8154 490.087 16.7373 489.943 16.6885C489.803 16.6364 489.646 16.6104 489.47 16.6104C489.255 16.6104 489.064 16.651 488.898 16.7324C488.732 16.8105 488.592 16.9359 488.479 17.1084C488.368 17.2809 488.283 17.5072 488.225 17.7871C488.166 18.0671 488.137 18.4072 488.137 18.8076V20.1895C488.137 20.5085 488.155 20.79 488.19 21.0342C488.229 21.2783 488.286 21.4899 488.361 21.6689C488.436 21.8447 488.527 21.9896 488.635 22.1035C488.742 22.2174 488.866 22.3021 489.006 22.3574C489.149 22.4095 489.307 22.4355 489.479 22.4355C489.701 22.4355 489.895 22.3932 490.061 22.3086C490.227 22.224 490.365 22.0921 490.476 21.9131C490.59 21.7308 490.674 21.498 490.729 21.2148C490.785 20.9284 490.812 20.5866 490.812 20.1895ZM495.852 15.9316V23.0801H494.948V17.0596L493.127 17.7236V16.9082L495.71 15.9316H495.852ZM500.485 19.6865V20.4287H498.103V19.6865H500.485ZM504.489 21.0049V15.9707H505.427V21.0049C505.427 21.4736 505.331 21.8691 505.139 22.1914C504.947 22.5137 504.681 22.7594 504.343 22.9287C504.007 23.0947 503.622 23.1777 503.186 23.1777C502.749 23.1777 502.362 23.1029 502.023 22.9531C501.685 22.8034 501.42 22.5755 501.228 22.2695C501.035 21.9635 500.939 21.5778 500.939 21.1123H501.882C501.882 21.4118 501.937 21.6576 502.048 21.8496C502.159 22.0417 502.312 22.1833 502.507 22.2744C502.705 22.3656 502.932 22.4111 503.186 22.4111C503.433 22.4111 503.654 22.359 503.85 22.2549C504.048 22.1475 504.204 21.9896 504.318 21.7812C504.432 21.5697 504.489 21.3109 504.489 21.0049ZM510.119 21.8594V17.7969H511.027V23.0801H510.163L510.119 21.8594ZM510.29 20.7461L510.666 20.7363C510.666 21.0879 510.629 21.4134 510.554 21.7129C510.482 22.0091 510.365 22.2663 510.202 22.4844C510.039 22.7025 509.826 22.8734 509.562 22.9971C509.299 23.1175 508.978 23.1777 508.601 23.1777C508.343 23.1777 508.107 23.1403 507.893 23.0654C507.681 22.9906 507.499 22.875 507.346 22.7188C507.193 22.5625 507.074 22.359 506.989 22.1084C506.908 21.8577 506.867 21.5566 506.867 21.2051V17.7969H507.771V21.2148C507.771 21.4525 507.797 21.6494 507.849 21.8057C507.904 21.9587 507.977 22.0807 508.068 22.1719C508.163 22.2598 508.267 22.3216 508.381 22.3574C508.498 22.3932 508.618 22.4111 508.742 22.4111C509.126 22.4111 509.431 22.3379 509.655 22.1914C509.88 22.0417 510.041 21.8415 510.139 21.5908C510.24 21.3369 510.29 21.0553 510.29 20.7461ZM513.308 18.9248V23.0801H512.404V17.7969H513.259L513.308 18.9248ZM513.093 20.2383L512.717 20.2236C512.72 19.8623 512.774 19.5286 512.878 19.2227C512.982 18.9134 513.129 18.6449 513.317 18.417C513.506 18.1891 513.731 18.0133 513.991 17.8896C514.255 17.7627 514.546 17.6992 514.865 17.6992C515.126 17.6992 515.36 17.735 515.568 17.8066C515.777 17.875 515.954 17.9857 516.101 18.1387C516.25 18.2917 516.364 18.4902 516.442 18.7344C516.521 18.9753 516.56 19.2699 516.56 19.6182V23.0801H515.651V19.6084C515.651 19.3317 515.611 19.1104 515.529 18.9443C515.448 18.7751 515.329 18.653 515.173 18.5781C515.017 18.5 514.825 18.4609 514.597 18.4609C514.372 18.4609 514.167 18.5081 513.981 18.6025C513.799 18.6969 513.641 18.8271 513.508 18.9932C513.378 19.1592 513.275 19.3496 513.2 19.5645C513.129 19.776 513.093 20.0007 513.093 20.2383ZM519.812 19.6865V20.4287H517.429V19.6865H519.812ZM525.256 22.3379V23.0801H520.603V22.4307L522.932 19.8379C523.218 19.5189 523.439 19.2487 523.596 19.0273C523.755 18.8027 523.866 18.6025 523.928 18.4268C523.993 18.2477 524.025 18.0654 524.025 17.8799C524.025 17.6455 523.977 17.4339 523.879 17.2451C523.785 17.0531 523.645 16.9001 523.459 16.7861C523.273 16.6722 523.049 16.6152 522.785 16.6152C522.469 16.6152 522.206 16.6771 521.994 16.8008C521.786 16.9212 521.63 17.0905 521.525 17.3086C521.421 17.5267 521.369 17.7773 521.369 18.0605H520.466C520.466 17.6602 520.554 17.2939 520.729 16.9619C520.905 16.6299 521.166 16.3662 521.511 16.1709C521.856 15.9723 522.281 15.873 522.785 15.873C523.234 15.873 523.618 15.9528 523.938 16.1123C524.257 16.2686 524.501 16.4899 524.67 16.7764C524.842 17.0596 524.929 17.3916 524.929 17.7725C524.929 17.9808 524.893 18.1924 524.821 18.4072C524.753 18.6188 524.657 18.8304 524.533 19.042C524.413 19.2536 524.271 19.4619 524.108 19.667C523.949 19.8721 523.778 20.0739 523.596 20.2725L521.691 22.3379H525.256ZM530.881 22.3379V23.0801H526.228V22.4307L528.557 19.8379C528.843 19.5189 529.064 19.2487 529.221 19.0273C529.38 18.8027 529.491 18.6025 529.553 18.4268C529.618 18.2477 529.65 18.0654 529.65 17.8799C529.65 17.6455 529.602 17.4339 529.504 17.2451C529.41 17.0531 529.27 16.9001 529.084 16.7861C528.898 16.6722 528.674 16.6152 528.41 16.6152C528.094 16.6152 527.831 16.6771 527.619 16.8008C527.411 16.9212 527.255 17.0905 527.15 17.3086C527.046 17.5267 526.994 17.7773 526.994 18.0605H526.091C526.091 17.6602 526.179 17.2939 526.354 16.9619C526.53 16.6299 526.791 16.3662 527.136 16.1709C527.481 15.9723 527.906 15.873 528.41 15.873C528.859 15.873 529.243 15.9528 529.562 16.1123C529.882 16.2686 530.126 16.4899 530.295 16.7764C530.467 17.0596 530.554 17.3916 530.554 17.7725C530.554 17.9808 530.518 18.1924 530.446 18.4072C530.378 18.6188 530.282 18.8304 530.158 19.042C530.038 19.2536 529.896 19.4619 529.733 19.667C529.574 19.8721 529.403 20.0739 529.221 20.2725L527.316 22.3379H530.881ZM537.297 15.9316V23.0801H536.394V17.0596L534.572 17.7236V16.9082L537.155 15.9316H537.297ZM543.42 15.9609H543.498V16.7275H543.42C542.941 16.7275 542.541 16.8057 542.219 16.9619C541.896 17.1149 541.641 17.3216 541.452 17.582C541.263 17.8392 541.127 18.1289 541.042 18.4512C540.961 18.7734 540.92 19.1006 540.92 19.4326V20.4775C540.92 20.7933 540.957 21.0732 541.032 21.3174C541.107 21.5583 541.21 21.7617 541.34 21.9277C541.47 22.0938 541.617 22.2191 541.779 22.3037C541.945 22.3883 542.118 22.4307 542.297 22.4307C542.505 22.4307 542.691 22.3916 542.854 22.3135C543.016 22.2321 543.153 22.1198 543.264 21.9766C543.378 21.8301 543.464 21.6576 543.522 21.459C543.581 21.2604 543.61 21.0423 543.61 20.8047C543.61 20.5931 543.584 20.3896 543.532 20.1943C543.48 19.9958 543.4 19.82 543.293 19.667C543.186 19.5107 543.05 19.3887 542.888 19.3008C542.728 19.2096 542.538 19.1641 542.316 19.1641C542.066 19.1641 541.831 19.2259 541.613 19.3496C541.398 19.4701 541.221 19.6296 541.081 19.8281C540.944 20.0234 540.866 20.2367 540.847 20.4678L540.368 20.4629C540.414 20.0983 540.498 19.7874 540.622 19.5303C540.749 19.2699 540.905 19.0583 541.091 18.8955C541.28 18.7295 541.49 18.609 541.721 18.5342C541.955 18.4561 542.202 18.417 542.463 18.417C542.818 18.417 543.124 18.4837 543.381 18.6172C543.638 18.7507 543.85 18.9297 544.016 19.1543C544.182 19.3757 544.304 19.6263 544.382 19.9062C544.463 20.1829 544.504 20.4678 544.504 20.7607C544.504 21.096 544.457 21.4102 544.362 21.7031C544.268 21.9961 544.126 22.2533 543.938 22.4746C543.752 22.696 543.522 22.8685 543.249 22.9922C542.976 23.1159 542.658 23.1777 542.297 23.1777C541.913 23.1777 541.577 23.0996 541.291 22.9434C541.005 22.7839 540.767 22.5723 540.578 22.3086C540.389 22.0449 540.248 21.752 540.153 21.4297C540.059 21.1074 540.012 20.7803 540.012 20.4482V20.0234C540.012 19.5221 540.062 19.0306 540.163 18.5488C540.264 18.0671 540.438 17.6309 540.686 17.2402C540.936 16.8496 541.283 16.5387 541.726 16.3076C542.168 16.0765 542.733 15.9609 543.42 15.9609ZM545.637 22.6016C545.637 22.4486 545.684 22.32 545.778 22.2158C545.876 22.1084 546.016 22.0547 546.198 22.0547C546.381 22.0547 546.519 22.1084 546.613 22.2158C546.711 22.32 546.76 22.4486 546.76 22.6016C546.76 22.7513 546.711 22.8783 546.613 22.9824C546.519 23.0866 546.381 23.1387 546.198 23.1387C546.016 23.1387 545.876 23.0866 545.778 22.9824C545.684 22.8783 545.637 22.7513 545.637 22.6016ZM545.642 18.29C545.642 18.137 545.689 18.0085 545.783 17.9043C545.881 17.7969 546.021 17.7432 546.203 17.7432C546.385 17.7432 546.524 17.7969 546.618 17.9043C546.716 18.0085 546.765 18.137 546.765 18.29C546.765 18.4398 546.716 18.5667 546.618 18.6709C546.524 18.7751 546.385 18.8271 546.203 18.8271C546.021 18.8271 545.881 18.7751 545.783 18.6709C545.689 18.5667 545.642 18.4398 545.642 18.29ZM552.463 18.959V20.043C552.463 20.6257 552.411 21.1172 552.307 21.5176C552.202 21.918 552.053 22.2402 551.857 22.4844C551.662 22.7285 551.426 22.9059 551.149 23.0166C550.876 23.124 550.567 23.1777 550.222 23.1777C549.948 23.1777 549.696 23.1436 549.465 23.0752C549.234 23.0068 549.025 22.8978 548.84 22.748C548.658 22.5951 548.501 22.3965 548.371 22.1523C548.241 21.9082 548.142 21.612 548.073 21.2637C548.005 20.9154 547.971 20.5085 547.971 20.043V18.959C547.971 18.3763 548.023 17.888 548.127 17.4941C548.234 17.1003 548.386 16.7845 548.581 16.5469C548.776 16.306 549.011 16.1335 549.284 16.0293C549.561 15.9251 549.87 15.873 550.212 15.873C550.489 15.873 550.743 15.9072 550.974 15.9756C551.208 16.0407 551.416 16.1465 551.599 16.293C551.781 16.4362 551.936 16.6283 552.062 16.8691C552.193 17.1068 552.292 17.3981 552.36 17.7432C552.429 18.0882 552.463 18.4935 552.463 18.959ZM551.555 20.1895V18.8076C551.555 18.4886 551.535 18.2087 551.496 17.9678C551.46 17.7236 551.407 17.5153 551.335 17.3428C551.263 17.1702 551.172 17.0303 551.062 16.9229C550.954 16.8154 550.829 16.7373 550.686 16.6885C550.546 16.6364 550.388 16.6104 550.212 16.6104C549.997 16.6104 549.807 16.651 549.641 16.7324C549.475 16.8105 549.335 16.9359 549.221 17.1084C549.11 17.2809 549.025 17.5072 548.967 17.7871C548.908 18.0671 548.879 18.4072 548.879 18.8076V20.1895C548.879 20.5085 548.897 20.79 548.933 21.0342C548.972 21.2783 549.029 21.4899 549.104 21.6689C549.178 21.8447 549.27 21.9896 549.377 22.1035C549.484 22.2174 549.608 22.3021 549.748 22.3574C549.891 22.4095 550.049 22.4355 550.222 22.4355C550.443 22.4355 550.637 22.3932 550.803 22.3086C550.969 22.224 551.107 22.0921 551.218 21.9131C551.332 21.7308 551.416 21.498 551.472 21.2148C551.527 20.9284 551.555 20.5866 551.555 20.1895ZM558.088 18.959V20.043C558.088 20.6257 558.036 21.1172 557.932 21.5176C557.827 21.918 557.678 22.2402 557.482 22.4844C557.287 22.7285 557.051 22.9059 556.774 23.0166C556.501 23.124 556.192 23.1777 555.847 23.1777C555.573 23.1777 555.321 23.1436 555.09 23.0752C554.859 23.0068 554.65 22.8978 554.465 22.748C554.283 22.5951 554.126 22.3965 553.996 22.1523C553.866 21.9082 553.767 21.612 553.698 21.2637C553.63 20.9154 553.596 20.5085 553.596 20.043V18.959C553.596 18.3763 553.648 17.888 553.752 17.4941C553.859 17.1003 554.011 16.7845 554.206 16.5469C554.401 16.306 554.636 16.1335 554.909 16.0293C555.186 15.9251 555.495 15.873 555.837 15.873C556.114 15.873 556.368 15.9072 556.599 15.9756C556.833 16.0407 557.041 16.1465 557.224 16.293C557.406 16.4362 557.561 16.6283 557.688 16.8691C557.818 17.1068 557.917 17.3981 557.985 17.7432C558.054 18.0882 558.088 18.4935 558.088 18.959ZM557.18 20.1895V18.8076C557.18 18.4886 557.16 18.2087 557.121 17.9678C557.085 17.7236 557.032 17.5153 556.96 17.3428C556.888 17.1702 556.797 17.0303 556.687 16.9229C556.579 16.8154 556.454 16.7373 556.311 16.6885C556.171 16.6364 556.013 16.6104 555.837 16.6104C555.622 16.6104 555.432 16.651 555.266 16.7324C555.1 16.8105 554.96 16.9359 554.846 17.1084C554.735 17.2809 554.65 17.5072 554.592 17.7871C554.533 18.0671 554.504 18.4072 554.504 18.8076V20.1895C554.504 20.5085 554.522 20.79 554.558 21.0342C554.597 21.2783 554.654 21.4899 554.729 21.6689C554.803 21.8447 554.895 21.9896 555.002 22.1035C555.109 22.2174 555.233 22.3021 555.373 22.3574C555.516 22.4095 555.674 22.4355 555.847 22.4355C556.068 22.4355 556.262 22.3932 556.428 22.3086C556.594 22.224 556.732 22.0921 556.843 21.9131C556.957 21.7308 557.041 21.498 557.097 21.2148C557.152 20.9284 557.18 20.5866 557.18 20.1895ZM566.032 15.9707H566.97V20.7803C566.97 21.3141 566.851 21.7585 566.613 22.1133C566.376 22.4681 566.06 22.735 565.666 22.9141C565.275 23.0898 564.851 23.1777 564.392 23.1777C563.91 23.1777 563.474 23.0898 563.083 22.9141C562.696 22.735 562.388 22.4681 562.16 22.1133C561.936 21.7585 561.823 21.3141 561.823 20.7803V15.9707H562.756V20.7803C562.756 21.1514 562.824 21.4574 562.961 21.6982C563.098 21.9391 563.288 22.1182 563.532 22.2354C563.78 22.3525 564.066 22.4111 564.392 22.4111C564.72 22.4111 565.007 22.3525 565.251 22.2354C565.498 22.1182 565.69 21.9391 565.827 21.6982C565.964 21.4574 566.032 21.1514 566.032 20.7803V15.9707ZM571.076 15.9707V23.0801H570.148V15.9707H571.076ZM573.361 15.9707V16.7422H567.868V15.9707H573.361ZM578.571 20.8193H579.509C579.46 21.2686 579.331 21.6706 579.123 22.0254C578.915 22.3802 578.62 22.6618 578.239 22.8701C577.858 23.0752 577.383 23.1777 576.813 23.1777C576.397 23.1777 576.018 23.0996 575.676 22.9434C575.337 22.7871 575.046 22.5658 574.802 22.2793C574.558 21.9896 574.369 21.6429 574.235 21.2393C574.105 20.8324 574.04 20.3799 574.04 19.8818V19.1738C574.04 18.6758 574.105 18.2249 574.235 17.8213C574.369 17.4144 574.559 17.0661 574.807 16.7764C575.057 16.4867 575.358 16.2637 575.71 16.1074C576.062 15.9512 576.457 15.873 576.896 15.873C577.434 15.873 577.888 15.974 578.259 16.1758C578.63 16.3776 578.918 16.6576 579.123 17.0156C579.331 17.3704 579.46 17.7822 579.509 18.251H578.571C578.526 17.9189 578.441 17.6341 578.317 17.3965C578.194 17.1556 578.018 16.9701 577.79 16.8398C577.562 16.7096 577.264 16.6445 576.896 16.6445C576.581 16.6445 576.302 16.7048 576.062 16.8252C575.824 16.9456 575.624 17.1165 575.461 17.3379C575.301 17.5592 575.181 17.8245 575.1 18.1338C575.018 18.443 574.978 18.7865 574.978 19.1641V19.8818C574.978 20.2301 575.013 20.5573 575.085 20.8633C575.16 21.1693 575.272 21.4378 575.422 21.6689C575.572 21.9001 575.762 22.0824 575.993 22.2158C576.224 22.346 576.498 22.4111 576.813 22.4111C577.214 22.4111 577.533 22.3477 577.771 22.2207C578.008 22.0938 578.187 21.9115 578.308 21.6738C578.431 21.4362 578.519 21.1514 578.571 20.8193Z" fill="#32375E"/>
</g>
<defs>
<clipPath id="clip0_1200_41592">
<rect width="16" height="16" fill="white" transform="translate(16 12.0801)"/>
</clipPath>
<clipPath id="clip1_1200_41592">
<rect width="60" height="16" fill="white" transform="translate(212 12.0801)"/>
</clipPath>
</defs>
</svg>
