<svg width="928" height="41" viewBox="0 0 928 41" fill="none" xmlns="http://www.w3.org/2000/svg">
<rect y="0.0800781" width="928" height="40" rx="12" fill="white"/>
<g clip-path="url(#clip0_1200_41520)">
<rect x="16.5" y="12.5801" width="15" height="15" rx="3.5" fill="white"/>
<rect x="16.5" y="12.5801" width="15" height="15" rx="3.5" stroke="#DAE6F0"/>
</g>
<g opacity="0.9">
<path d="M62.5596 15.9316V23.0801H61.6562V17.0596L59.835 17.7236V16.9082L62.418 15.9316H62.5596Z" fill="#32375E"/>
</g>
<g opacity="0.9">
<path d="M118.896 20.6875V21.4297H113.759V20.8975L116.942 15.9707H117.68L116.889 17.3965L114.784 20.6875H118.896ZM117.904 15.9707V23.0801H117.001V15.9707H117.904ZM124.179 18.959V20.043C124.179 20.6257 124.127 21.1172 124.022 21.5176C123.918 21.918 123.769 22.2402 123.573 22.4844C123.378 22.7285 123.142 22.9059 122.865 23.0166C122.592 23.124 122.283 23.1777 121.938 23.1777C121.664 23.1777 121.412 23.1436 121.181 23.0752C120.95 23.0068 120.741 22.8978 120.556 22.748C120.373 22.5951 120.217 22.3965 120.087 22.1523C119.957 21.9082 119.857 21.612 119.789 21.2637C119.721 20.9154 119.687 20.5085 119.687 20.043V18.959C119.687 18.3763 119.739 17.888 119.843 17.4941C119.95 17.1003 120.102 16.7845 120.297 16.5469C120.492 16.306 120.727 16.1335 121 16.0293C121.277 15.9251 121.586 15.873 121.928 15.873C122.204 15.873 122.458 15.9072 122.689 15.9756C122.924 16.0407 123.132 16.1465 123.314 16.293C123.497 16.4362 123.651 16.6283 123.778 16.8691C123.909 17.1068 124.008 17.3981 124.076 17.7432C124.145 18.0882 124.179 18.4935 124.179 18.959ZM123.271 20.1895V18.8076C123.271 18.4886 123.251 18.2087 123.212 17.9678C123.176 17.7236 123.122 17.5153 123.051 17.3428C122.979 17.1702 122.888 17.0303 122.777 16.9229C122.67 16.8154 122.545 16.7373 122.401 16.6885C122.261 16.6364 122.104 16.6104 121.928 16.6104C121.713 16.6104 121.522 16.651 121.356 16.7324C121.19 16.8105 121.05 16.9359 120.937 17.1084C120.826 17.2809 120.741 17.5072 120.683 17.7871C120.624 18.0671 120.595 18.4072 120.595 18.8076V20.1895C120.595 20.5085 120.613 20.79 120.648 21.0342C120.688 21.2783 120.744 21.4899 120.819 21.6689C120.894 21.8447 120.985 21.9896 121.093 22.1035C121.2 22.2174 121.324 22.3021 121.464 22.3574C121.607 22.4095 121.765 22.4355 121.938 22.4355C122.159 22.4355 122.353 22.3932 122.519 22.3086C122.685 22.224 122.823 22.0921 122.934 21.9131C123.048 21.7308 123.132 21.498 123.188 21.2148C123.243 20.9284 123.271 20.5866 123.271 20.1895ZM129.804 18.959V20.043C129.804 20.6257 129.752 21.1172 129.647 21.5176C129.543 21.918 129.394 22.2402 129.198 22.4844C129.003 22.7285 128.767 22.9059 128.49 23.0166C128.217 23.124 127.908 23.1777 127.562 23.1777C127.289 23.1777 127.037 23.1436 126.806 23.0752C126.575 23.0068 126.366 22.8978 126.181 22.748C125.998 22.5951 125.842 22.3965 125.712 22.1523C125.582 21.9082 125.482 21.612 125.414 21.2637C125.346 20.9154 125.312 20.5085 125.312 20.043V18.959C125.312 18.3763 125.364 17.888 125.468 17.4941C125.575 17.1003 125.727 16.7845 125.922 16.5469C126.117 16.306 126.352 16.1335 126.625 16.0293C126.902 15.9251 127.211 15.873 127.553 15.873C127.829 15.873 128.083 15.9072 128.314 15.9756C128.549 16.0407 128.757 16.1465 128.939 16.293C129.122 16.4362 129.276 16.6283 129.403 16.8691C129.534 17.1068 129.633 17.3981 129.701 17.7432C129.77 18.0882 129.804 18.4935 129.804 18.959ZM128.896 20.1895V18.8076C128.896 18.4886 128.876 18.2087 128.837 17.9678C128.801 17.7236 128.747 17.5153 128.676 17.3428C128.604 17.1702 128.513 17.0303 128.402 16.9229C128.295 16.8154 128.17 16.7373 128.026 16.6885C127.886 16.6364 127.729 16.6104 127.553 16.6104C127.338 16.6104 127.147 16.651 126.981 16.7324C126.815 16.8105 126.675 16.9359 126.562 17.1084C126.451 17.2809 126.366 17.5072 126.308 17.7871C126.249 18.0671 126.22 18.4072 126.22 18.8076V20.1895C126.22 20.5085 126.238 20.79 126.273 21.0342C126.312 21.2783 126.369 21.4899 126.444 21.6689C126.519 21.8447 126.61 21.9896 126.718 22.1035C126.825 22.2174 126.949 22.3021 127.089 22.3574C127.232 22.4095 127.39 22.4355 127.562 22.4355C127.784 22.4355 127.978 22.3932 128.144 22.3086C128.31 22.224 128.448 22.0921 128.559 21.9131C128.673 21.7308 128.757 21.498 128.812 21.2148C128.868 20.9284 128.896 20.5866 128.896 20.1895Z" fill="#32375E"/>
</g>
<g opacity="0.9">
<path d="M168.409 19.0811H169.054C169.369 19.0811 169.63 19.029 169.835 18.9248C170.043 18.8174 170.198 18.6725 170.299 18.4902C170.403 18.3047 170.455 18.0964 170.455 17.8652C170.455 17.5918 170.41 17.3623 170.318 17.1768C170.227 16.9912 170.09 16.8512 169.908 16.7568C169.726 16.6624 169.495 16.6152 169.215 16.6152C168.961 16.6152 168.736 16.6657 168.541 16.7666C168.349 16.8643 168.198 17.0042 168.087 17.1865C167.979 17.3688 167.926 17.5837 167.926 17.8311H167.022C167.022 17.4697 167.114 17.141 167.296 16.8447C167.478 16.5485 167.734 16.3125 168.062 16.1367C168.395 15.9609 168.779 15.873 169.215 15.873C169.645 15.873 170.021 15.9495 170.343 16.1025C170.665 16.2523 170.916 16.4769 171.095 16.7764C171.274 17.0726 171.363 17.4421 171.363 17.8848C171.363 18.0638 171.321 18.2559 171.236 18.4609C171.155 18.6628 171.026 18.8516 170.851 19.0273C170.678 19.2031 170.453 19.348 170.177 19.4619C169.9 19.5726 169.568 19.6279 169.181 19.6279H168.409V19.0811ZM168.409 19.8232V19.2812H169.181C169.633 19.2812 170.007 19.335 170.304 19.4424C170.6 19.5498 170.833 19.693 171.002 19.8721C171.174 20.0511 171.295 20.248 171.363 20.4629C171.435 20.6745 171.471 20.8861 171.471 21.0977C171.471 21.4297 171.414 21.7243 171.3 21.9814C171.189 22.2386 171.031 22.4567 170.826 22.6357C170.624 22.8148 170.387 22.9499 170.113 23.041C169.84 23.1322 169.542 23.1777 169.22 23.1777C168.91 23.1777 168.619 23.1338 168.346 23.0459C168.076 22.958 167.836 22.8311 167.628 22.665C167.42 22.4958 167.257 22.2891 167.14 22.0449C167.022 21.7975 166.964 21.516 166.964 21.2002H167.867C167.867 21.4476 167.921 21.6641 168.028 21.8496C168.139 22.0352 168.295 22.18 168.497 22.2842C168.702 22.3851 168.943 22.4355 169.22 22.4355C169.496 22.4355 169.734 22.3883 169.933 22.2939C170.134 22.1963 170.289 22.0498 170.396 21.8545C170.507 21.6592 170.562 21.4134 170.562 21.1172C170.562 20.821 170.501 20.5785 170.377 20.3896C170.253 20.1976 170.077 20.056 169.85 19.9648C169.625 19.8704 169.36 19.8232 169.054 19.8232H168.409ZM173.858 19.6963L173.136 19.5107L173.492 15.9707H177.14V16.8057H174.259L174.044 18.7393C174.174 18.6644 174.339 18.5944 174.537 18.5293C174.739 18.4642 174.97 18.4316 175.23 18.4316C175.559 18.4316 175.854 18.4886 176.114 18.6025C176.375 18.7132 176.596 18.8727 176.778 19.0811C176.964 19.2894 177.105 19.54 177.203 19.833C177.301 20.126 177.35 20.4531 177.35 20.8145C177.35 21.1562 177.302 21.4704 177.208 21.7568C177.117 22.0433 176.979 22.2939 176.793 22.5088C176.607 22.7204 176.373 22.8848 176.09 23.002C175.81 23.1191 175.479 23.1777 175.099 23.1777C174.812 23.1777 174.54 23.1387 174.283 23.0605C174.029 22.9792 173.801 22.8571 173.6 22.6943C173.401 22.5283 173.238 22.3232 173.111 22.0791C172.988 21.8317 172.91 21.542 172.877 21.21H173.736C173.775 21.4769 173.854 21.7015 173.971 21.8838C174.088 22.0661 174.241 22.2044 174.43 22.2988C174.622 22.39 174.845 22.4355 175.099 22.4355C175.313 22.4355 175.504 22.3981 175.67 22.3232C175.836 22.2484 175.976 22.141 176.09 22.001C176.204 21.861 176.29 21.6917 176.349 21.4932C176.41 21.2946 176.441 21.0716 176.441 20.8242C176.441 20.5996 176.41 20.3913 176.349 20.1992C176.287 20.0072 176.194 19.8395 176.07 19.6963C175.95 19.5531 175.802 19.4424 175.626 19.3643C175.45 19.2829 175.248 19.2422 175.021 19.2422C174.718 19.2422 174.488 19.2829 174.332 19.3643C174.179 19.4456 174.021 19.5563 173.858 19.6963ZM182.804 18.959V20.043C182.804 20.6257 182.752 21.1172 182.647 21.5176C182.543 21.918 182.394 22.2402 182.198 22.4844C182.003 22.7285 181.767 22.9059 181.49 23.0166C181.217 23.124 180.908 23.1777 180.562 23.1777C180.289 23.1777 180.037 23.1436 179.806 23.0752C179.575 23.0068 179.366 22.8978 179.181 22.748C178.998 22.5951 178.842 22.3965 178.712 22.1523C178.582 21.9082 178.482 21.612 178.414 21.2637C178.346 20.9154 178.312 20.5085 178.312 20.043V18.959C178.312 18.3763 178.364 17.888 178.468 17.4941C178.575 17.1003 178.727 16.7845 178.922 16.5469C179.117 16.306 179.352 16.1335 179.625 16.0293C179.902 15.9251 180.211 15.873 180.553 15.873C180.829 15.873 181.083 15.9072 181.314 15.9756C181.549 16.0407 181.757 16.1465 181.939 16.293C182.122 16.4362 182.276 16.6283 182.403 16.8691C182.534 17.1068 182.633 17.3981 182.701 17.7432C182.77 18.0882 182.804 18.4935 182.804 18.959ZM181.896 20.1895V18.8076C181.896 18.4886 181.876 18.2087 181.837 17.9678C181.801 17.7236 181.747 17.5153 181.676 17.3428C181.604 17.1702 181.513 17.0303 181.402 16.9229C181.295 16.8154 181.17 16.7373 181.026 16.6885C180.886 16.6364 180.729 16.6104 180.553 16.6104C180.338 16.6104 180.147 16.651 179.981 16.7324C179.815 16.8105 179.675 16.9359 179.562 17.1084C179.451 17.2809 179.366 17.5072 179.308 17.7871C179.249 18.0671 179.22 18.4072 179.22 18.8076V20.1895C179.22 20.5085 179.238 20.79 179.273 21.0342C179.312 21.2783 179.369 21.4899 179.444 21.6689C179.519 21.8447 179.61 21.9896 179.718 22.1035C179.825 22.2174 179.949 22.3021 180.089 22.3574C180.232 22.4095 180.39 22.4355 180.562 22.4355C180.784 22.4355 180.978 22.3932 181.144 22.3086C181.31 22.224 181.448 22.0921 181.559 21.9131C181.673 21.7308 181.757 21.498 181.812 21.2148C181.868 20.9284 181.896 20.5866 181.896 20.1895ZM184.078 22.6016C184.078 22.4486 184.125 22.32 184.22 22.2158C184.317 22.1084 184.457 22.0547 184.64 22.0547C184.822 22.0547 184.96 22.1084 185.055 22.2158C185.152 22.32 185.201 22.4486 185.201 22.6016C185.201 22.7513 185.152 22.8783 185.055 22.9824C184.96 23.0866 184.822 23.1387 184.64 23.1387C184.457 23.1387 184.317 23.0866 184.22 22.9824C184.125 22.8783 184.078 22.7513 184.078 22.6016ZM191.197 15.9707V16.4785L188.253 23.0801H187.301L190.24 16.7129H186.393V15.9707H191.197ZM193.546 19.0811H194.19C194.506 19.0811 194.767 19.029 194.972 18.9248C195.18 18.8174 195.335 18.6725 195.436 18.4902C195.54 18.3047 195.592 18.0964 195.592 17.8652C195.592 17.5918 195.546 17.3623 195.455 17.1768C195.364 16.9912 195.227 16.8512 195.045 16.7568C194.863 16.6624 194.632 16.6152 194.352 16.6152C194.098 16.6152 193.873 16.6657 193.678 16.7666C193.486 16.8643 193.334 17.0042 193.224 17.1865C193.116 17.3688 193.062 17.5837 193.062 17.8311H192.159C192.159 17.4697 192.25 17.141 192.433 16.8447C192.615 16.5485 192.87 16.3125 193.199 16.1367C193.531 15.9609 193.915 15.873 194.352 15.873C194.781 15.873 195.157 15.9495 195.479 16.1025C195.802 16.2523 196.052 16.4769 196.231 16.7764C196.41 17.0726 196.5 17.4421 196.5 17.8848C196.5 18.0638 196.458 18.2559 196.373 18.4609C196.292 18.6628 196.163 18.8516 195.987 19.0273C195.815 19.2031 195.59 19.348 195.313 19.4619C195.037 19.5726 194.705 19.6279 194.317 19.6279H193.546V19.0811ZM193.546 19.8232V19.2812H194.317C194.77 19.2812 195.144 19.335 195.44 19.4424C195.737 19.5498 195.969 19.693 196.139 19.8721C196.311 20.0511 196.432 20.248 196.5 20.4629C196.572 20.6745 196.607 20.8861 196.607 21.0977C196.607 21.4297 196.55 21.7243 196.437 21.9814C196.326 22.2386 196.168 22.4567 195.963 22.6357C195.761 22.8148 195.523 22.9499 195.25 23.041C194.977 23.1322 194.679 23.1777 194.356 23.1777C194.047 23.1777 193.756 23.1338 193.482 23.0459C193.212 22.958 192.973 22.8311 192.765 22.665C192.556 22.4958 192.394 22.2891 192.276 22.0449C192.159 21.7975 192.101 21.516 192.101 21.2002H193.004C193.004 21.4476 193.058 21.6641 193.165 21.8496C193.276 22.0352 193.432 22.18 193.634 22.2842C193.839 22.3851 194.08 22.4355 194.356 22.4355C194.633 22.4355 194.871 22.3883 195.069 22.2939C195.271 22.1963 195.426 22.0498 195.533 21.8545C195.644 21.6592 195.699 21.4134 195.699 21.1172C195.699 20.821 195.637 20.5785 195.514 20.3896C195.39 20.1976 195.214 20.056 194.986 19.9648C194.762 19.8704 194.496 19.8232 194.19 19.8232H193.546Z" fill="#32375E"/>
</g>
<g clip-path="url(#clip1_1200_41520)">
<path d="M245.333 14.7464H248C248.176 14.7464 248.346 14.8167 248.471 14.9417C248.596 15.0667 248.666 15.2363 248.666 15.4131V26.0798C248.666 26.2566 248.596 26.4261 248.471 26.5512C248.346 26.6762 248.176 26.7464 248 26.7464H236C235.823 26.7464 235.653 26.6762 235.528 26.5512C235.403 26.4261 235.333 26.2566 235.333 26.0798V15.4131C235.333 15.2363 235.403 15.0667 235.528 14.9417C235.653 14.8167 235.823 14.7464 236 14.7464H238.666V13.4131H240V14.7464H244V13.4131H245.333V14.7464ZM247.333 18.7464V16.0798H245.333V17.4131H244V16.0798H240V17.4131H238.666V16.0798H236.666V18.7464H247.333ZM247.333 20.0798H236.666V25.4131H247.333V20.0798ZM238 21.4131H241.333V24.0798H238V21.4131Z" fill="#8E959C"/>
</g>
<path d="M370.985 15.9707L372.831 19.54L374.682 15.9707H375.751L373.3 20.4238V23.0801H372.357V20.4238L369.906 15.9707H370.985ZM378.397 23.1777C378.03 23.1777 377.696 23.1159 377.396 22.9922C377.1 22.8652 376.845 22.6878 376.63 22.46C376.418 22.2321 376.256 21.9619 376.142 21.6494C376.028 21.3369 375.971 20.9951 375.971 20.624V20.4189C375.971 19.9893 376.034 19.6068 376.161 19.2715C376.288 18.9329 376.461 18.6465 376.679 18.4121C376.897 18.1777 377.144 18.0003 377.421 17.8799C377.698 17.7594 377.984 17.6992 378.28 17.6992C378.658 17.6992 378.983 17.7643 379.257 17.8945C379.534 18.0247 379.76 18.207 379.936 18.4414C380.111 18.6725 380.242 18.946 380.326 19.2617C380.411 19.5742 380.453 19.916 380.453 20.2871V20.6924H376.508V19.9551H379.55V19.8867C379.537 19.6523 379.488 19.4245 379.403 19.2031C379.322 18.9818 379.192 18.7995 379.013 18.6562C378.834 18.513 378.59 18.4414 378.28 18.4414C378.075 18.4414 377.886 18.4854 377.714 18.5732C377.541 18.6579 377.393 18.7848 377.27 18.9541C377.146 19.1234 377.05 19.3301 376.981 19.5742C376.913 19.8184 376.879 20.0999 376.879 20.4189V20.624C376.879 20.8747 376.913 21.1107 376.981 21.332C377.053 21.5501 377.156 21.7422 377.289 21.9082C377.426 22.0742 377.59 22.2044 377.782 22.2988C377.978 22.3932 378.199 22.4404 378.446 22.4404C378.765 22.4404 379.035 22.3753 379.257 22.2451C379.478 22.1149 379.672 21.9408 379.838 21.7227L380.385 22.1572C380.271 22.3298 380.126 22.4941 379.95 22.6504C379.774 22.8066 379.558 22.9336 379.301 23.0312C379.047 23.1289 378.746 23.1777 378.397 23.1777ZM384.584 21.6787C384.584 21.5485 384.555 21.4281 384.496 21.3174C384.441 21.2035 384.325 21.1009 384.149 21.0098C383.977 20.9154 383.716 20.834 383.368 20.7656C383.075 20.7038 382.81 20.6305 382.572 20.5459C382.338 20.4613 382.138 20.3587 381.972 20.2383C381.809 20.1178 381.684 19.9762 381.596 19.8135C381.508 19.6507 381.464 19.4603 381.464 19.2422C381.464 19.0339 381.509 18.8369 381.601 18.6514C381.695 18.4658 381.827 18.3014 381.996 18.1582C382.169 18.015 382.375 17.9027 382.616 17.8213C382.857 17.7399 383.126 17.6992 383.422 17.6992C383.845 17.6992 384.206 17.7741 384.506 17.9238C384.805 18.0736 385.035 18.2738 385.194 18.5244C385.354 18.7718 385.434 19.0469 385.434 19.3496H384.53C384.53 19.2031 384.486 19.0615 384.398 18.9248C384.314 18.7848 384.188 18.6693 384.022 18.5781C383.86 18.487 383.66 18.4414 383.422 18.4414C383.171 18.4414 382.968 18.4805 382.812 18.5586C382.659 18.6335 382.546 18.7295 382.475 18.8467C382.406 18.9639 382.372 19.0876 382.372 19.2178C382.372 19.3154 382.388 19.4033 382.421 19.4814C382.457 19.5563 382.519 19.6263 382.606 19.6914C382.694 19.7533 382.818 19.8118 382.978 19.8672C383.137 19.9225 383.34 19.9779 383.588 20.0332C384.021 20.1309 384.377 20.248 384.657 20.3848C384.937 20.5215 385.146 20.6891 385.282 20.8877C385.419 21.0863 385.487 21.3271 385.487 21.6104C385.487 21.8415 385.438 22.0531 385.341 22.2451C385.246 22.4372 385.108 22.6032 384.926 22.7432C384.747 22.8799 384.532 22.9873 384.281 23.0654C384.034 23.1403 383.756 23.1777 383.446 23.1777C382.981 23.1777 382.587 23.0947 382.265 22.9287C381.942 22.7627 381.698 22.5479 381.532 22.2842C381.366 22.0205 381.283 21.7422 381.283 21.4492H382.191C382.204 21.6966 382.276 21.8936 382.406 22.04C382.536 22.1833 382.696 22.2858 382.885 22.3477C383.074 22.4062 383.261 22.4355 383.446 22.4355C383.694 22.4355 383.9 22.403 384.066 22.3379C384.236 22.2728 384.364 22.1833 384.452 22.0693C384.54 21.9554 384.584 21.8252 384.584 21.6787Z" fill="#32375E"/>
<g opacity="0.9">
<path d="M491.721 18.959V20.043C491.721 20.6257 491.669 21.1172 491.564 21.5176C491.46 21.918 491.311 22.2402 491.115 22.4844C490.92 22.7285 490.684 22.9059 490.407 23.0166C490.134 23.124 489.825 23.1777 489.479 23.1777C489.206 23.1777 488.954 23.1436 488.723 23.0752C488.492 23.0068 488.283 22.8978 488.098 22.748C487.915 22.5951 487.759 22.3965 487.629 22.1523C487.499 21.9082 487.399 21.612 487.331 21.2637C487.263 20.9154 487.229 20.5085 487.229 20.043V18.959C487.229 18.3763 487.281 17.888 487.385 17.4941C487.492 17.1003 487.644 16.7845 487.839 16.5469C488.034 16.306 488.269 16.1335 488.542 16.0293C488.819 15.9251 489.128 15.873 489.47 15.873C489.746 15.873 490 15.9072 490.231 15.9756C490.466 16.0407 490.674 16.1465 490.856 16.293C491.039 16.4362 491.193 16.6283 491.32 16.8691C491.451 17.1068 491.55 17.3981 491.618 17.7432C491.687 18.0882 491.721 18.4935 491.721 18.959ZM490.812 20.1895V18.8076C490.812 18.4886 490.793 18.2087 490.754 17.9678C490.718 17.7236 490.664 17.5153 490.593 17.3428C490.521 17.1702 490.43 17.0303 490.319 16.9229C490.212 16.8154 490.087 16.7373 489.943 16.6885C489.803 16.6364 489.646 16.6104 489.47 16.6104C489.255 16.6104 489.064 16.651 488.898 16.7324C488.732 16.8105 488.592 16.9359 488.479 17.1084C488.368 17.2809 488.283 17.5072 488.225 17.7871C488.166 18.0671 488.137 18.4072 488.137 18.8076V20.1895C488.137 20.5085 488.155 20.79 488.19 21.0342C488.229 21.2783 488.286 21.4899 488.361 21.6689C488.436 21.8447 488.527 21.9896 488.635 22.1035C488.742 22.2174 488.866 22.3021 489.006 22.3574C489.149 22.4095 489.307 22.4355 489.479 22.4355C489.701 22.4355 489.895 22.3932 490.061 22.3086C490.227 22.224 490.365 22.0921 490.476 21.9131C490.59 21.7308 490.674 21.498 490.729 21.2148C490.785 20.9284 490.812 20.5866 490.812 20.1895ZM495.852 15.9316V23.0801H494.948V17.0596L493.127 17.7236V16.9082L495.71 15.9316H495.852ZM500.485 19.6865V20.4287H498.103V19.6865H500.485ZM502.448 15.9707V23.0801H501.506V15.9707H502.448ZM505.427 19.1689V19.9404H502.243V19.1689H505.427ZM505.91 15.9707V16.7422H502.243V15.9707H505.91ZM508.981 23.1777C508.614 23.1777 508.28 23.1159 507.98 22.9922C507.684 22.8652 507.429 22.6878 507.214 22.46C507.002 22.2321 506.84 21.9619 506.726 21.6494C506.612 21.3369 506.555 20.9951 506.555 20.624V20.4189C506.555 19.9893 506.618 19.6068 506.745 19.2715C506.872 18.9329 507.045 18.6465 507.263 18.4121C507.481 18.1777 507.728 18.0003 508.005 17.8799C508.282 17.7594 508.568 17.6992 508.864 17.6992C509.242 17.6992 509.567 17.7643 509.841 17.8945C510.118 18.0247 510.344 18.207 510.52 18.4414C510.695 18.6725 510.826 18.946 510.91 19.2617C510.995 19.5742 511.037 19.916 511.037 20.2871V20.6924H507.092V19.9551H510.134V19.8867C510.121 19.6523 510.072 19.4245 509.987 19.2031C509.906 18.9818 509.776 18.7995 509.597 18.6562C509.418 18.513 509.174 18.4414 508.864 18.4414C508.659 18.4414 508.47 18.4854 508.298 18.5732C508.125 18.6579 507.977 18.7848 507.854 18.9541C507.73 19.1234 507.634 19.3301 507.565 19.5742C507.497 19.8184 507.463 20.0999 507.463 20.4189V20.624C507.463 20.8747 507.497 21.1107 507.565 21.332C507.637 21.5501 507.74 21.7422 507.873 21.9082C508.01 22.0742 508.174 22.2044 508.366 22.2988C508.562 22.3932 508.783 22.4404 509.03 22.4404C509.349 22.4404 509.619 22.3753 509.841 22.2451C510.062 22.1149 510.256 21.9408 510.422 21.7227L510.969 22.1572C510.855 22.3298 510.71 22.4941 510.534 22.6504C510.358 22.8066 510.142 22.9336 509.885 23.0312C509.631 23.1289 509.33 23.1777 508.981 23.1777ZM512.087 15.5801H512.995V22.0547L512.917 23.0801H512.087V15.5801ZM516.564 20.3945V20.4971C516.564 20.8812 516.519 21.2376 516.428 21.5664C516.337 21.8919 516.203 22.1751 516.027 22.416C515.852 22.6569 515.637 22.8441 515.383 22.9775C515.129 23.111 514.838 23.1777 514.509 23.1777C514.174 23.1777 513.879 23.1208 513.625 23.0068C513.374 22.8896 513.163 22.722 512.99 22.5039C512.818 22.2858 512.679 22.0221 512.575 21.7129C512.474 21.4036 512.404 21.0553 512.365 20.668V20.2188C512.404 19.8281 512.474 19.4782 512.575 19.1689C512.679 18.8597 512.818 18.596 512.99 18.3779C513.163 18.1566 513.374 17.9889 513.625 17.875C513.876 17.7578 514.167 17.6992 514.499 17.6992C514.831 17.6992 515.126 17.7643 515.383 17.8945C515.64 18.0215 515.855 18.2038 516.027 18.4414C516.203 18.679 516.337 18.9639 516.428 19.2959C516.519 19.6247 516.564 19.9909 516.564 20.3945ZM515.656 20.4971V20.3945C515.656 20.1309 515.632 19.8835 515.583 19.6523C515.534 19.418 515.456 19.2129 515.349 19.0371C515.241 18.8581 515.1 18.7181 514.924 18.6172C514.748 18.513 514.532 18.4609 514.274 18.4609C514.047 18.4609 513.848 18.5 513.679 18.5781C513.513 18.6562 513.371 18.762 513.254 18.8955C513.137 19.0257 513.041 19.1755 512.966 19.3447C512.894 19.5107 512.84 19.6833 512.805 19.8623V21.0391C512.857 21.2669 512.941 21.4867 513.059 21.6982C513.179 21.9066 513.339 22.0775 513.537 22.2109C513.739 22.3444 513.988 22.4111 514.284 22.4111C514.528 22.4111 514.737 22.3623 514.909 22.2646C515.085 22.1637 515.227 22.0254 515.334 21.8496C515.445 21.6738 515.526 21.4704 515.578 21.2393C515.63 21.0081 515.656 20.7607 515.656 20.4971ZM519.587 19.6865V20.4287H517.204V19.6865H519.587ZM525.031 22.3379V23.0801H520.378V22.4307L522.707 19.8379C522.993 19.5189 523.215 19.2487 523.371 19.0273C523.531 18.8027 523.641 18.6025 523.703 18.4268C523.768 18.2477 523.801 18.0654 523.801 17.8799C523.801 17.6455 523.752 17.4339 523.654 17.2451C523.56 17.0531 523.42 16.9001 523.234 16.7861C523.049 16.6722 522.824 16.6152 522.561 16.6152C522.245 16.6152 521.981 16.6771 521.77 16.8008C521.561 16.9212 521.405 17.0905 521.301 17.3086C521.197 17.5267 521.145 17.7773 521.145 18.0605H520.241C520.241 17.6602 520.329 17.2939 520.505 16.9619C520.681 16.6299 520.941 16.3662 521.286 16.1709C521.631 15.9723 522.056 15.873 522.561 15.873C523.01 15.873 523.394 15.9528 523.713 16.1123C524.032 16.2686 524.276 16.4899 524.445 16.7764C524.618 17.0596 524.704 17.3916 524.704 17.7725C524.704 17.9808 524.668 18.1924 524.597 18.4072C524.528 18.6188 524.432 18.8304 524.309 19.042C524.188 19.2536 524.047 19.4619 523.884 19.667C523.724 19.8721 523.553 20.0739 523.371 20.2725L521.467 22.3379H525.031ZM530.656 22.3379V23.0801H526.003V22.4307L528.332 19.8379C528.618 19.5189 528.84 19.2487 528.996 19.0273C529.156 18.8027 529.266 18.6025 529.328 18.4268C529.393 18.2477 529.426 18.0654 529.426 17.8799C529.426 17.6455 529.377 17.4339 529.279 17.2451C529.185 17.0531 529.045 16.9001 528.859 16.7861C528.674 16.6722 528.449 16.6152 528.186 16.6152C527.87 16.6152 527.606 16.6771 527.395 16.8008C527.186 16.9212 527.03 17.0905 526.926 17.3086C526.822 17.5267 526.77 17.7773 526.77 18.0605H525.866C525.866 17.6602 525.954 17.2939 526.13 16.9619C526.306 16.6299 526.566 16.3662 526.911 16.1709C527.256 15.9723 527.681 15.873 528.186 15.873C528.635 15.873 529.019 15.9528 529.338 16.1123C529.657 16.2686 529.901 16.4899 530.07 16.7764C530.243 17.0596 530.329 17.3916 530.329 17.7725C530.329 17.9808 530.293 18.1924 530.222 18.4072C530.153 18.6188 530.057 18.8304 529.934 19.042C529.813 19.2536 529.672 19.4619 529.509 19.667C529.349 19.8721 529.178 20.0739 528.996 20.2725L527.092 22.3379H530.656ZM537.072 15.9316V23.0801H536.169V17.0596L534.348 17.7236V16.9082L536.931 15.9316H537.072ZM543.195 15.9609H543.273V16.7275H543.195C542.717 16.7275 542.316 16.8057 541.994 16.9619C541.672 17.1149 541.416 17.3216 541.228 17.582C541.039 17.8392 540.902 18.1289 540.817 18.4512C540.736 18.7734 540.695 19.1006 540.695 19.4326V20.4775C540.695 20.7933 540.733 21.0732 540.808 21.3174C540.882 21.5583 540.985 21.7617 541.115 21.9277C541.245 22.0938 541.392 22.2191 541.555 22.3037C541.721 22.3883 541.893 22.4307 542.072 22.4307C542.281 22.4307 542.466 22.3916 542.629 22.3135C542.792 22.2321 542.928 22.1198 543.039 21.9766C543.153 21.8301 543.239 21.6576 543.298 21.459C543.356 21.2604 543.386 21.0423 543.386 20.8047C543.386 20.5931 543.36 20.3896 543.308 20.1943C543.256 19.9958 543.176 19.82 543.068 19.667C542.961 19.5107 542.826 19.3887 542.663 19.3008C542.504 19.2096 542.313 19.1641 542.092 19.1641C541.841 19.1641 541.607 19.2259 541.389 19.3496C541.174 19.4701 540.996 19.6296 540.856 19.8281C540.72 20.0234 540.642 20.2367 540.622 20.4678L540.144 20.4629C540.189 20.0983 540.274 19.7874 540.397 19.5303C540.524 19.2699 540.681 19.0583 540.866 18.8955C541.055 18.7295 541.265 18.609 541.496 18.5342C541.73 18.4561 541.978 18.417 542.238 18.417C542.593 18.417 542.899 18.4837 543.156 18.6172C543.413 18.7507 543.625 18.9297 543.791 19.1543C543.957 19.3757 544.079 19.6263 544.157 19.9062C544.239 20.1829 544.279 20.4678 544.279 20.7607C544.279 21.096 544.232 21.4102 544.138 21.7031C544.043 21.9961 543.902 22.2533 543.713 22.4746C543.527 22.696 543.298 22.8685 543.024 22.9922C542.751 23.1159 542.434 23.1777 542.072 23.1777C541.688 23.1777 541.353 23.0996 541.066 22.9434C540.78 22.7839 540.542 22.5723 540.354 22.3086C540.165 22.0449 540.023 21.752 539.929 21.4297C539.834 21.1074 539.787 20.7803 539.787 20.4482V20.0234C539.787 19.5221 539.838 19.0306 539.938 18.5488C540.039 18.0671 540.214 17.6309 540.461 17.2402C540.712 16.8496 541.058 16.5387 541.501 16.3076C541.944 16.0765 542.508 15.9609 543.195 15.9609ZM545.412 22.6016C545.412 22.4486 545.459 22.32 545.554 22.2158C545.651 22.1084 545.791 22.0547 545.974 22.0547C546.156 22.0547 546.294 22.1084 546.389 22.2158C546.486 22.32 546.535 22.4486 546.535 22.6016C546.535 22.7513 546.486 22.8783 546.389 22.9824C546.294 23.0866 546.156 23.1387 545.974 23.1387C545.791 23.1387 545.651 23.0866 545.554 22.9824C545.459 22.8783 545.412 22.7513 545.412 22.6016ZM545.417 18.29C545.417 18.137 545.464 18.0085 545.559 17.9043C545.656 17.7969 545.796 17.7432 545.979 17.7432C546.161 17.7432 546.299 17.7969 546.394 17.9043C546.491 18.0085 546.54 18.137 546.54 18.29C546.54 18.4398 546.491 18.5667 546.394 18.6709C546.299 18.7751 546.161 18.8271 545.979 18.8271C545.796 18.8271 545.656 18.7751 545.559 18.6709C545.464 18.5667 545.417 18.4398 545.417 18.29ZM552.238 18.959V20.043C552.238 20.6257 552.186 21.1172 552.082 21.5176C551.978 21.918 551.828 22.2402 551.633 22.4844C551.438 22.7285 551.201 22.9059 550.925 23.0166C550.651 23.124 550.342 23.1777 549.997 23.1777C549.724 23.1777 549.471 23.1436 549.24 23.0752C549.009 23.0068 548.801 22.8978 548.615 22.748C548.433 22.5951 548.277 22.3965 548.146 22.1523C548.016 21.9082 547.917 21.612 547.849 21.2637C547.78 20.9154 547.746 20.5085 547.746 20.043V18.959C547.746 18.3763 547.798 17.888 547.902 17.4941C548.01 17.1003 548.161 16.7845 548.356 16.5469C548.552 16.306 548.786 16.1335 549.06 16.0293C549.336 15.9251 549.646 15.873 549.987 15.873C550.264 15.873 550.518 15.9072 550.749 15.9756C550.983 16.0407 551.192 16.1465 551.374 16.293C551.556 16.4362 551.711 16.6283 551.838 16.8691C551.968 17.1068 552.067 17.3981 552.136 17.7432C552.204 18.0882 552.238 18.4935 552.238 18.959ZM551.33 20.1895V18.8076C551.33 18.4886 551.311 18.2087 551.271 17.9678C551.236 17.7236 551.182 17.5153 551.11 17.3428C551.039 17.1702 550.948 17.0303 550.837 16.9229C550.729 16.8154 550.604 16.7373 550.461 16.6885C550.321 16.6364 550.163 16.6104 549.987 16.6104C549.772 16.6104 549.582 16.651 549.416 16.7324C549.25 16.8105 549.11 16.9359 548.996 17.1084C548.885 17.2809 548.801 17.5072 548.742 17.7871C548.684 18.0671 548.654 18.4072 548.654 18.8076V20.1895C548.654 20.5085 548.672 20.79 548.708 21.0342C548.747 21.2783 548.804 21.4899 548.879 21.6689C548.954 21.8447 549.045 21.9896 549.152 22.1035C549.26 22.2174 549.383 22.3021 549.523 22.3574C549.667 22.4095 549.825 22.4355 549.997 22.4355C550.218 22.4355 550.412 22.3932 550.578 22.3086C550.744 22.224 550.882 22.0921 550.993 21.9131C551.107 21.7308 551.192 21.498 551.247 21.2148C551.302 20.9284 551.33 20.5866 551.33 20.1895ZM557.863 18.959V20.043C557.863 20.6257 557.811 21.1172 557.707 21.5176C557.603 21.918 557.453 22.2402 557.258 22.4844C557.062 22.7285 556.826 22.9059 556.55 23.0166C556.276 23.124 555.967 23.1777 555.622 23.1777C555.349 23.1777 555.096 23.1436 554.865 23.0752C554.634 23.0068 554.426 22.8978 554.24 22.748C554.058 22.5951 553.902 22.3965 553.771 22.1523C553.641 21.9082 553.542 21.612 553.474 21.2637C553.405 20.9154 553.371 20.5085 553.371 20.043V18.959C553.371 18.3763 553.423 17.888 553.527 17.4941C553.635 17.1003 553.786 16.7845 553.981 16.5469C554.177 16.306 554.411 16.1335 554.685 16.0293C554.961 15.9251 555.271 15.873 555.612 15.873C555.889 15.873 556.143 15.9072 556.374 15.9756C556.608 16.0407 556.817 16.1465 556.999 16.293C557.181 16.4362 557.336 16.6283 557.463 16.8691C557.593 17.1068 557.692 17.3981 557.761 17.7432C557.829 18.0882 557.863 18.4935 557.863 18.959ZM556.955 20.1895V18.8076C556.955 18.4886 556.936 18.2087 556.896 17.9678C556.861 17.7236 556.807 17.5153 556.735 17.3428C556.664 17.1702 556.573 17.0303 556.462 16.9229C556.354 16.8154 556.229 16.7373 556.086 16.6885C555.946 16.6364 555.788 16.6104 555.612 16.6104C555.397 16.6104 555.207 16.651 555.041 16.7324C554.875 16.8105 554.735 16.9359 554.621 17.1084C554.51 17.2809 554.426 17.5072 554.367 17.7871C554.309 18.0671 554.279 18.4072 554.279 18.8076V20.1895C554.279 20.5085 554.297 20.79 554.333 21.0342C554.372 21.2783 554.429 21.4899 554.504 21.6689C554.579 21.8447 554.67 21.9896 554.777 22.1035C554.885 22.2174 555.008 22.3021 555.148 22.3574C555.292 22.4095 555.45 22.4355 555.622 22.4355C555.843 22.4355 556.037 22.3932 556.203 22.3086C556.369 22.224 556.507 22.0921 556.618 21.9131C556.732 21.7308 556.817 21.498 556.872 21.2148C556.927 20.9284 556.955 20.5866 556.955 20.1895ZM565.808 15.9707H566.745V20.7803C566.745 21.3141 566.626 21.7585 566.389 22.1133C566.151 22.4681 565.835 22.735 565.441 22.9141C565.051 23.0898 564.626 23.1777 564.167 23.1777C563.685 23.1777 563.249 23.0898 562.858 22.9141C562.471 22.735 562.163 22.4681 561.936 22.1133C561.711 21.7585 561.599 21.3141 561.599 20.7803V15.9707H562.531V20.7803C562.531 21.1514 562.6 21.4574 562.736 21.6982C562.873 21.9391 563.063 22.1182 563.308 22.2354C563.555 22.3525 563.841 22.4111 564.167 22.4111C564.496 22.4111 564.782 22.3525 565.026 22.2354C565.274 22.1182 565.466 21.9391 565.603 21.6982C565.739 21.4574 565.808 21.1514 565.808 20.7803V15.9707ZM570.852 15.9707V23.0801H569.924V15.9707H570.852ZM573.137 15.9707V16.7422H567.644V15.9707H573.137ZM578.347 20.8193H579.284C579.235 21.2686 579.107 21.6706 578.898 22.0254C578.69 22.3802 578.396 22.6618 578.015 22.8701C577.634 23.0752 577.159 23.1777 576.589 23.1777C576.172 23.1777 575.793 23.0996 575.451 22.9434C575.113 22.7871 574.821 22.5658 574.577 22.2793C574.333 21.9896 574.144 21.6429 574.011 21.2393C573.881 20.8324 573.815 20.3799 573.815 19.8818V19.1738C573.815 18.6758 573.881 18.2249 574.011 17.8213C574.144 17.4144 574.335 17.0661 574.582 16.7764C574.833 16.4867 575.134 16.2637 575.485 16.1074C575.837 15.9512 576.232 15.873 576.672 15.873C577.209 15.873 577.663 15.974 578.034 16.1758C578.405 16.3776 578.693 16.6576 578.898 17.0156C579.107 17.3704 579.235 17.7822 579.284 18.251H578.347C578.301 17.9189 578.216 17.6341 578.093 17.3965C577.969 17.1556 577.793 16.9701 577.565 16.8398C577.338 16.7096 577.04 16.6445 576.672 16.6445C576.356 16.6445 576.078 16.7048 575.837 16.8252C575.599 16.9456 575.399 17.1165 575.236 17.3379C575.077 17.5592 574.956 17.8245 574.875 18.1338C574.794 18.443 574.753 18.7865 574.753 19.1641V19.8818C574.753 20.2301 574.789 20.5573 574.86 20.8633C574.935 21.1693 575.048 21.4378 575.197 21.6689C575.347 21.9001 575.537 22.0824 575.769 22.2158C576 22.346 576.273 22.4111 576.589 22.4111C576.989 22.4111 577.308 22.3477 577.546 22.2207C577.784 22.0938 577.963 21.9115 578.083 21.6738C578.207 21.4362 578.295 21.1514 578.347 20.8193Z" fill="#32375E"/>
</g>
<g opacity="0.9">
<path d="M823.054 18.959V20.043C823.054 20.6257 823.002 21.1172 822.897 21.5176C822.793 21.918 822.644 22.2402 822.448 22.4844C822.253 22.7285 822.017 22.9059 821.74 23.0166C821.467 23.124 821.158 23.1777 820.812 23.1777C820.539 23.1777 820.287 23.1436 820.056 23.0752C819.825 23.0068 819.616 22.8978 819.431 22.748C819.248 22.5951 819.092 22.3965 818.962 22.1523C818.832 21.9082 818.732 21.612 818.664 21.2637C818.596 20.9154 818.562 20.5085 818.562 20.043V18.959C818.562 18.3763 818.614 17.888 818.718 17.4941C818.825 17.1003 818.977 16.7845 819.172 16.5469C819.367 16.306 819.602 16.1335 819.875 16.0293C820.152 15.9251 820.461 15.873 820.803 15.873C821.079 15.873 821.333 15.9072 821.564 15.9756C821.799 16.0407 822.007 16.1465 822.189 16.293C822.372 16.4362 822.526 16.6283 822.653 16.8691C822.784 17.1068 822.883 17.3981 822.951 17.7432C823.02 18.0882 823.054 18.4935 823.054 18.959ZM822.146 20.1895V18.8076C822.146 18.4886 822.126 18.2087 822.087 17.9678C822.051 17.7236 821.997 17.5153 821.926 17.3428C821.854 17.1702 821.763 17.0303 821.652 16.9229C821.545 16.8154 821.42 16.7373 821.276 16.6885C821.136 16.6364 820.979 16.6104 820.803 16.6104C820.588 16.6104 820.397 16.651 820.231 16.7324C820.065 16.8105 819.925 16.9359 819.812 17.1084C819.701 17.2809 819.616 17.5072 819.558 17.7871C819.499 18.0671 819.47 18.4072 819.47 18.8076V20.1895C819.47 20.5085 819.488 20.79 819.523 21.0342C819.562 21.2783 819.619 21.4899 819.694 21.6689C819.769 21.8447 819.86 21.9896 819.968 22.1035C820.075 22.2174 820.199 22.3021 820.339 22.3574C820.482 22.4095 820.64 22.4355 820.812 22.4355C821.034 22.4355 821.228 22.3932 821.394 22.3086C821.56 22.224 821.698 22.0921 821.809 21.9131C821.923 21.7308 822.007 21.498 822.062 21.2148C822.118 20.9284 822.146 20.5866 822.146 20.1895ZM827.185 15.9316V23.0801H826.281V17.0596L824.46 17.7236V16.9082L827.043 15.9316H827.185ZM831.818 19.6865V20.4287H829.436V19.6865H831.818ZM833.781 15.9707V23.0801H832.839V15.9707H833.781ZM836.76 19.1689V19.9404H833.576V19.1689H836.76ZM837.243 15.9707V16.7422H833.576V15.9707H837.243ZM840.314 23.1777C839.947 23.1777 839.613 23.1159 839.313 22.9922C839.017 22.8652 838.762 22.6878 838.547 22.46C838.335 22.2321 838.173 21.9619 838.059 21.6494C837.945 21.3369 837.888 20.9951 837.888 20.624V20.4189C837.888 19.9893 837.951 19.6068 838.078 19.2715C838.205 18.9329 838.378 18.6465 838.596 18.4121C838.814 18.1777 839.061 18.0003 839.338 17.8799C839.615 17.7594 839.901 17.6992 840.197 17.6992C840.575 17.6992 840.9 17.7643 841.174 17.8945C841.451 18.0247 841.677 18.207 841.853 18.4414C842.028 18.6725 842.159 18.946 842.243 19.2617C842.328 19.5742 842.37 19.916 842.37 20.2871V20.6924H838.425V19.9551H841.467V19.8867C841.454 19.6523 841.405 19.4245 841.32 19.2031C841.239 18.9818 841.109 18.7995 840.93 18.6562C840.751 18.513 840.507 18.4414 840.197 18.4414C839.992 18.4414 839.803 18.4854 839.631 18.5732C839.458 18.6579 839.31 18.7848 839.187 18.9541C839.063 19.1234 838.967 19.3301 838.898 19.5742C838.83 19.8184 838.796 20.0999 838.796 20.4189V20.624C838.796 20.8747 838.83 21.1107 838.898 21.332C838.97 21.5501 839.073 21.7422 839.206 21.9082C839.343 22.0742 839.507 22.2044 839.699 22.2988C839.895 22.3932 840.116 22.4404 840.363 22.4404C840.682 22.4404 840.952 22.3753 841.174 22.2451C841.395 22.1149 841.589 21.9408 841.755 21.7227L842.302 22.1572C842.188 22.3298 842.043 22.4941 841.867 22.6504C841.691 22.8066 841.475 22.9336 841.218 23.0312C840.964 23.1289 840.663 23.1777 840.314 23.1777ZM843.42 15.5801H844.328V22.0547L844.25 23.0801H843.42V15.5801ZM847.897 20.3945V20.4971C847.897 20.8812 847.852 21.2376 847.761 21.5664C847.67 21.8919 847.536 22.1751 847.36 22.416C847.185 22.6569 846.97 22.8441 846.716 22.9775C846.462 23.111 846.171 23.1777 845.842 23.1777C845.507 23.1777 845.212 23.1208 844.958 23.0068C844.707 22.8896 844.496 22.722 844.323 22.5039C844.151 22.2858 844.012 22.0221 843.908 21.7129C843.807 21.4036 843.737 21.0553 843.698 20.668V20.2188C843.737 19.8281 843.807 19.4782 843.908 19.1689C844.012 18.8597 844.151 18.596 844.323 18.3779C844.496 18.1566 844.707 17.9889 844.958 17.875C845.209 17.7578 845.5 17.6992 845.832 17.6992C846.164 17.6992 846.459 17.7643 846.716 17.8945C846.973 18.0215 847.188 18.2038 847.36 18.4414C847.536 18.679 847.67 18.9639 847.761 19.2959C847.852 19.6247 847.897 19.9909 847.897 20.3945ZM846.989 20.4971V20.3945C846.989 20.1309 846.965 19.8835 846.916 19.6523C846.867 19.418 846.789 19.2129 846.682 19.0371C846.574 18.8581 846.433 18.7181 846.257 18.6172C846.081 18.513 845.865 18.4609 845.607 18.4609C845.38 18.4609 845.181 18.5 845.012 18.5781C844.846 18.6562 844.704 18.762 844.587 18.8955C844.47 19.0257 844.374 19.1755 844.299 19.3447C844.227 19.5107 844.174 19.6833 844.138 19.8623V21.0391C844.19 21.2669 844.274 21.4867 844.392 21.6982C844.512 21.9066 844.672 22.0775 844.87 22.2109C845.072 22.3444 845.321 22.4111 845.617 22.4111C845.861 22.4111 846.07 22.3623 846.242 22.2646C846.418 22.1637 846.56 22.0254 846.667 21.8496C846.778 21.6738 846.859 21.4704 846.911 21.2393C846.963 21.0081 846.989 20.7607 846.989 20.4971ZM850.92 19.6865V20.4287H848.537V19.6865H850.92ZM856.364 22.3379V23.0801H851.711V22.4307L854.04 19.8379C854.326 19.5189 854.548 19.2487 854.704 19.0273C854.864 18.8027 854.974 18.6025 855.036 18.4268C855.101 18.2477 855.134 18.0654 855.134 17.8799C855.134 17.6455 855.085 17.4339 854.987 17.2451C854.893 17.0531 854.753 16.9001 854.567 16.7861C854.382 16.6722 854.157 16.6152 853.894 16.6152C853.578 16.6152 853.314 16.6771 853.103 16.8008C852.894 16.9212 852.738 17.0905 852.634 17.3086C852.53 17.5267 852.478 17.7773 852.478 18.0605H851.574C851.574 17.6602 851.662 17.2939 851.838 16.9619C852.014 16.6299 852.274 16.3662 852.619 16.1709C852.964 15.9723 853.389 15.873 853.894 15.873C854.343 15.873 854.727 15.9528 855.046 16.1123C855.365 16.2686 855.609 16.4899 855.778 16.7764C855.951 17.0596 856.037 17.3916 856.037 17.7725C856.037 17.9808 856.001 18.1924 855.93 18.4072C855.861 18.6188 855.765 18.8304 855.642 19.042C855.521 19.2536 855.38 19.4619 855.217 19.667C855.057 19.8721 854.886 20.0739 854.704 20.2725L852.8 22.3379H856.364ZM861.989 22.3379V23.0801H857.336V22.4307L859.665 19.8379C859.951 19.5189 860.173 19.2487 860.329 19.0273C860.489 18.8027 860.599 18.6025 860.661 18.4268C860.726 18.2477 860.759 18.0654 860.759 17.8799C860.759 17.6455 860.71 17.4339 860.612 17.2451C860.518 17.0531 860.378 16.9001 860.192 16.7861C860.007 16.6722 859.782 16.6152 859.519 16.6152C859.203 16.6152 858.939 16.6771 858.728 16.8008C858.519 16.9212 858.363 17.0905 858.259 17.3086C858.155 17.5267 858.103 17.7773 858.103 18.0605H857.199C857.199 17.6602 857.287 17.2939 857.463 16.9619C857.639 16.6299 857.899 16.3662 858.244 16.1709C858.589 15.9723 859.014 15.873 859.519 15.873C859.968 15.873 860.352 15.9528 860.671 16.1123C860.99 16.2686 861.234 16.4899 861.403 16.7764C861.576 17.0596 861.662 17.3916 861.662 17.7725C861.662 17.9808 861.626 18.1924 861.555 18.4072C861.486 18.6188 861.39 18.8304 861.267 19.042C861.146 19.2536 861.005 19.4619 860.842 19.667C860.682 19.8721 860.511 20.0739 860.329 20.2725L858.425 22.3379H861.989ZM868.405 15.9316V23.0801H867.502V17.0596L865.681 17.7236V16.9082L868.264 15.9316H868.405ZM874.528 15.9609H874.606V16.7275H874.528C874.05 16.7275 873.649 16.8057 873.327 16.9619C873.005 17.1149 872.749 17.3216 872.561 17.582C872.372 17.8392 872.235 18.1289 872.15 18.4512C872.069 18.7734 872.028 19.1006 872.028 19.4326V20.4775C872.028 20.7933 872.066 21.0732 872.141 21.3174C872.215 21.5583 872.318 21.7617 872.448 21.9277C872.578 22.0938 872.725 22.2191 872.888 22.3037C873.054 22.3883 873.226 22.4307 873.405 22.4307C873.614 22.4307 873.799 22.3916 873.962 22.3135C874.125 22.2321 874.261 22.1198 874.372 21.9766C874.486 21.8301 874.572 21.6576 874.631 21.459C874.689 21.2604 874.719 21.0423 874.719 20.8047C874.719 20.5931 874.693 20.3896 874.641 20.1943C874.589 19.9958 874.509 19.82 874.401 19.667C874.294 19.5107 874.159 19.3887 873.996 19.3008C873.837 19.2096 873.646 19.1641 873.425 19.1641C873.174 19.1641 872.94 19.2259 872.722 19.3496C872.507 19.4701 872.329 19.6296 872.189 19.8281C872.053 20.0234 871.975 20.2367 871.955 20.4678L871.477 20.4629C871.522 20.0983 871.607 19.7874 871.73 19.5303C871.857 19.2699 872.014 19.0583 872.199 18.8955C872.388 18.7295 872.598 18.609 872.829 18.5342C873.063 18.4561 873.311 18.417 873.571 18.417C873.926 18.417 874.232 18.4837 874.489 18.6172C874.746 18.7507 874.958 18.9297 875.124 19.1543C875.29 19.3757 875.412 19.6263 875.49 19.9062C875.572 20.1829 875.612 20.4678 875.612 20.7607C875.612 21.096 875.565 21.4102 875.471 21.7031C875.376 21.9961 875.235 22.2533 875.046 22.4746C874.86 22.696 874.631 22.8685 874.357 22.9922C874.084 23.1159 873.767 23.1777 873.405 23.1777C873.021 23.1777 872.686 23.0996 872.399 22.9434C872.113 22.7839 871.875 22.5723 871.687 22.3086C871.498 22.0449 871.356 21.752 871.262 21.4297C871.167 21.1074 871.12 20.7803 871.12 20.4482V20.0234C871.12 19.5221 871.171 19.0306 871.271 18.5488C871.372 18.0671 871.547 17.6309 871.794 17.2402C872.045 16.8496 872.391 16.5387 872.834 16.3076C873.277 16.0765 873.841 15.9609 874.528 15.9609ZM876.745 22.6016C876.745 22.4486 876.792 22.32 876.887 22.2158C876.984 22.1084 877.124 22.0547 877.307 22.0547C877.489 22.0547 877.627 22.1084 877.722 22.2158C877.819 22.32 877.868 22.4486 877.868 22.6016C877.868 22.7513 877.819 22.8783 877.722 22.9824C877.627 23.0866 877.489 23.1387 877.307 23.1387C877.124 23.1387 876.984 23.0866 876.887 22.9824C876.792 22.8783 876.745 22.7513 876.745 22.6016ZM876.75 18.29C876.75 18.137 876.797 18.0085 876.892 17.9043C876.989 17.7969 877.129 17.7432 877.312 17.7432C877.494 17.7432 877.632 17.7969 877.727 17.9043C877.824 18.0085 877.873 18.137 877.873 18.29C877.873 18.4398 877.824 18.5667 877.727 18.6709C877.632 18.7751 877.494 18.8271 877.312 18.8271C877.129 18.8271 876.989 18.7751 876.892 18.6709C876.797 18.5667 876.75 18.4398 876.75 18.29ZM883.767 22.3379V23.0801H879.113V22.4307L881.442 19.8379C881.729 19.5189 881.95 19.2487 882.106 19.0273C882.266 18.8027 882.377 18.6025 882.438 18.4268C882.504 18.2477 882.536 18.0654 882.536 17.8799C882.536 17.6455 882.487 17.4339 882.39 17.2451C882.295 17.0531 882.155 16.9001 881.97 16.7861C881.784 16.6722 881.56 16.6152 881.296 16.6152C880.98 16.6152 880.716 16.6771 880.505 16.8008C880.297 16.9212 880.14 17.0905 880.036 17.3086C879.932 17.5267 879.88 17.7773 879.88 18.0605H878.977C878.977 17.6602 879.064 17.2939 879.24 16.9619C879.416 16.6299 879.676 16.3662 880.021 16.1709C880.367 15.9723 880.791 15.873 881.296 15.873C881.745 15.873 882.129 15.9528 882.448 16.1123C882.767 16.2686 883.011 16.4899 883.181 16.7764C883.353 17.0596 883.439 17.3916 883.439 17.7725C883.439 17.9808 883.404 18.1924 883.332 18.4072C883.264 18.6188 883.168 18.8304 883.044 19.042C882.924 19.2536 882.782 19.4619 882.619 19.667C882.46 19.8721 882.289 20.0739 882.106 20.2725L880.202 22.3379H883.767ZM889.538 20.6875V21.4297H884.401V20.8975L887.585 15.9707H888.322L887.531 17.3965L885.427 20.6875H889.538ZM888.547 15.9707V23.0801H887.644V15.9707H888.547ZM897.141 15.9707H898.078V20.7803C898.078 21.3141 897.959 21.7585 897.722 22.1133C897.484 22.4681 897.168 22.735 896.774 22.9141C896.384 23.0898 895.959 23.1777 895.5 23.1777C895.018 23.1777 894.582 23.0898 894.191 22.9141C893.804 22.735 893.496 22.4681 893.269 22.1133C893.044 21.7585 892.932 21.3141 892.932 20.7803V15.9707H893.864V20.7803C893.864 21.1514 893.933 21.4574 894.069 21.6982C894.206 21.9391 894.396 22.1182 894.641 22.2354C894.888 22.3525 895.174 22.4111 895.5 22.4111C895.829 22.4111 896.115 22.3525 896.359 22.2354C896.607 22.1182 896.799 21.9391 896.936 21.6982C897.072 21.4574 897.141 21.1514 897.141 20.7803V15.9707ZM902.185 15.9707V23.0801H901.257V15.9707H902.185ZM904.47 15.9707V16.7422H898.977V15.9707H904.47ZM909.68 20.8193H910.617C910.568 21.2686 910.44 21.6706 910.231 22.0254C910.023 22.3802 909.729 22.6618 909.348 22.8701C908.967 23.0752 908.492 23.1777 907.922 23.1777C907.505 23.1777 907.126 23.0996 906.784 22.9434C906.446 22.7871 906.154 22.5658 905.91 22.2793C905.666 21.9896 905.477 21.6429 905.344 21.2393C905.214 20.8324 905.148 20.3799 905.148 19.8818V19.1738C905.148 18.6758 905.214 18.2249 905.344 17.8213C905.477 17.4144 905.668 17.0661 905.915 16.7764C906.166 16.4867 906.467 16.2637 906.818 16.1074C907.17 15.9512 907.565 15.873 908.005 15.873C908.542 15.873 908.996 15.974 909.367 16.1758C909.738 16.3776 910.026 16.6576 910.231 17.0156C910.44 17.3704 910.568 17.7822 910.617 18.251H909.68C909.634 17.9189 909.549 17.6341 909.426 17.3965C909.302 17.1556 909.126 16.9701 908.898 16.8398C908.671 16.7096 908.373 16.6445 908.005 16.6445C907.689 16.6445 907.411 16.7048 907.17 16.8252C906.932 16.9456 906.732 17.1165 906.569 17.3379C906.41 17.5592 906.289 17.8245 906.208 18.1338C906.127 18.443 906.086 18.7865 906.086 19.1641V19.8818C906.086 20.2301 906.122 20.5573 906.193 20.8633C906.268 21.1693 906.381 21.4378 906.53 21.6689C906.68 21.9001 906.87 22.0824 907.102 22.2158C907.333 22.346 907.606 22.4111 907.922 22.4111C908.322 22.4111 908.641 22.3477 908.879 22.2207C909.117 22.0938 909.296 21.9115 909.416 21.6738C909.54 21.4362 909.628 21.1514 909.68 20.8193Z" fill="#32375E"/>
</g>
<defs>
<clipPath id="clip0_1200_41520">
<rect width="16" height="16" fill="white" transform="translate(16 12.0801)"/>
</clipPath>
<clipPath id="clip1_1200_41520">
<rect width="60" height="16" fill="white" transform="translate(212 12.0801)"/>
</clipPath>
</defs>
</svg>
